<?xml version="1.0" encoding="UTF-8"?>
<svg id="Layer_2" data-name="Layer 2" xmlns="http://www.w3.org/2000/svg" viewBox="0 0 164.23 164.52">
  <defs>
    <style>
      .cls-1 {
        fill: #fa9000;
      }

      .cls-1, .cls-2, .cls-3 {
        stroke-width: 0px;
      }

      .cls-2 {
        fill: #262260;
      }

      .cls-3 {
        fill: #15153f;
      }
    </style>
  </defs>
  <g id="Portraits">
    <g id="A">
      <g id="Tiles">
        <g id="A-1">
          <path class="cls-1" d="m137.16,0H26.78C13.17,0,1.91,10.05,0,23.13v118.25c1.91,13.08,13.17,23.13,26.78,23.13h110.38c3.89,0,7.59-.83,10.94-2.31,1.63-7.35,4.13-14.42,7.19-21.14-26.24-29.77-.11-33.1-2.09-57.46-.97-11.98,5.32-20.27,11.03-25.38v-31.16c0-14.95-12.12-27.07-27.07-27.07Z"/>
          <path class="cls-3" d="m153.2,83.61c1.98,24.36-24.15,27.69,2.09,57.46,2.63-5.78,5.67-11.31,8.94-16.53V58.23c-5.7,5.12-12,13.41-11.03,25.38Z"/>
          <path class="cls-2" d="m148.1,162.21c9.5-4.2,16.13-13.7,16.13-24.76v-12.9c-3.26,5.22-6.3,10.74-8.94,16.53-3.06,6.72-5.56,13.79-7.19,21.14Z"/>
        </g>
      </g>
    </g>
  </g>
</svg>