<?xml version="1.0" encoding="UTF-8"?>
<svg id="Layer_2" data-name="Layer 2" xmlns="http://www.w3.org/2000/svg" viewBox="0 0 164.52 164.52">
  <defs>
    <style>
      .cls-1 {
        fill: #fa9000;
      }

      .cls-1, .cls-2, .cls-3 {
        stroke-width: 0px;
      }

      .cls-2 {
        fill: #262260;
      }

      .cls-3 {
        fill: #15153f;
      }
    </style>
  </defs>
  <g id="Portraits">
    <g id="A">
      <g id="Tiles">
        <g id="A-3">
          <path class="cls-1" d="m137.45,0H27.07C12.12,0,0,12.12,0,27.07v15.02c.15.17.29.33.41.46,2.84-3.28,19.19-20.55,48.26-20.55,19.3,0,39.37,22.02,53.24,47.16,0,0,36.63-8.17,50.05,6.99,9.77,11.04-5.11,35.57,12.56,47.26V27.07c0-14.95-12.12-27.07-27.07-27.07Z"/>
          <path class="cls-3" d="m151.96,76.15c-13.42-15.16-50.05-6.99-50.05-6.99-13.87-25.14-33.94-47.16-53.24-47.16C19.6,22,3.25,39.27.41,42.55c.3.34.45.54.45.54l-.28,70.3c4.98-5.1,12.17-7.99,19.89-7.16,7.51.81,13.99,1.83,18.43,2.29,17.5,1.83,66.49,12.68,105.54,55.09,11.57-3.08,20.09-13.62,20.09-26.16v-14.04c-17.67-11.69-2.79-36.22-12.56-47.26Z"/>
          <path class="cls-3" d="m.58,113.39l.28-70.3s-.15-.19-.45-.54c-.11-.13-.25-.29-.41-.46v71.9c.19-.21.38-.4.58-.6Z"/>
          <path class="cls-2" d="m38.89,108.52c-4.44-.46-10.92-1.48-18.43-2.29-7.72-.83-14.91,2.06-19.89,7.16-.19.2-.39.4-.58.6v23.46c0,14.95,12.12,27.07,27.07,27.07h110.38c2.41,0,4.75-.32,6.98-.91-39.05-42.41-88.04-53.25-105.54-55.09Z"/>
        </g>
      </g>
    </g>
  </g>
</svg>