<?xml version="1.0" encoding="UTF-8"?>
<svg id="Layer_2" data-name="Layer 2" xmlns="http://www.w3.org/2000/svg" viewBox="0 0 164.52 164.52">
  <defs>
    <style>
      .cls-1 {
        fill: #f9d584;
      }

      .cls-1, .cls-2, .cls-3 {
        stroke-width: 0px;
      }

      .cls-2 {
        fill: #262260;
      }

      .cls-3 {
        fill: #15153f;
      }
    </style>
  </defs>
  <g id="Portraits">
    <g id="A">
      <g id="Tiles">
        <g id="A-7">
          <path class="cls-3" d="m149.15,2.65c4.78,5.52,9.9,11.83,14.78,18.81-1.75-8.32-7.32-15.22-14.78-18.81Z"/>
          <path class="cls-1" d="m79.84,115.59c-41.63-.68-70.55-12.98-79.84-38.24v60.09c0,14.95,12.12,27.07,27.07,27.07h103.07c-5.62-24.46-2.12-48.14-50.3-48.93Z"/>
          <path class="cls-2" d="m137.45,0H27.07C12.12,0,0,12.12,0,27.07v50.29c9.29,25.26,38.21,37.55,79.84,38.24,48.18.79,44.68,24.47,50.3,48.93h7.31c14.95,0,27.07-12.12,27.07-27.07V27.07c0-1.92-.2-3.8-.58-5.61-4.88-6.98-10-13.29-14.78-18.81-3.54-1.7-7.51-2.65-11.7-2.65Z"/>
        </g>
      </g>
    </g>
  </g>
</svg>