<?xml version="1.0" encoding="UTF-8"?>
<svg id="Layer_2" data-name="Layer 2" xmlns="http://www.w3.org/2000/svg" viewBox="0 0 164.52 164.52">
  <defs>
    <style>
      .cls-1 {
        fill: #f9d584;
      }

      .cls-1, .cls-2, .cls-3, .cls-4, .cls-5, .cls-6 {
        stroke-width: 0px;
      }

      .cls-2 {
        fill: #262260;
      }

      .cls-3 {
        fill: #15153f;
      }

      .cls-4 {
        fill: #dba76d;
      }

      .cls-5 {
        fill: #e2bb6d;
      }

      .cls-6 {
        fill: #333;
      }
    </style>
  </defs>
  <g id="Portraits">
    <g id="A">
      <g id="Tiles">
        <g id="A-11">
          <path class="cls-5" d="m162.95,146.55c.78-2.19,1.28-4.51,1.48-6.92-.49,2.33-.98,4.63-1.48,6.92Z"/>
          <path class="cls-1" d="m27.07,164.52h9.85c-6.51-3.49-16.47-7.42-28.97-7.9,4.9,4.88,11.65,7.9,19.11,7.9Z"/>
          <path class="cls-1" d="m164.52,137.45v-21.99c-3.16-1.54-5.5-4.68-6.32-9.86-2.51-15.85,11.09-50.81-16.31-82.41-6.29-7.25-9.37-15.23-11.35-23.19H27.07C12.12,0,0,12.12,0,27.07v110.38c0,5.87,1.88,11.3,5.05,15.74.07,0,.14,0,.21,0,14.92,0,26.67,4.72,33.95,8.73.82.45,1.11,1.48.66,2.29-.06.12-.14.22-.23.31h97.8c11.76,0,21.76-7.5,25.5-17.97.49-2.29.99-4.59,1.48-6.92.06-.72.1-1.45.1-2.18ZM41.73,27.46c-.79-1.69-.06-3.7,1.62-4.49,42.22-19.77,77.61,9.27,80.86,13.9,1.07,1.52.7,3.63-.82,4.7-.59.41-1.27.61-1.93.61-1.02,0-2.02-.46-2.68-1.33-.8-.83-32.24-30.65-72.56-11.77-1.69.79-3.69.06-4.49-1.62Zm39.62,66.21c-7.87,1.06-15.11-4.46-16.16-12.33-.32-2.41-.03-4.75.76-6.88-6,3.34-10.54,7.3-13.63,10.54-.41.43-.97.65-1.52.65-.52,0-1.05-.19-1.46-.58-.84-.8-.87-2.14-.07-2.98,4.65-4.88,12.34-11.28,23.2-15.23,1.52-.84,3.22-1.44,5.05-1.68.18-.02.36-.03.54-.05,17.75-4.54,32.9.29,40.54,3.71,1.06.48,1.54,1.72,1.06,2.79-.48,1.06-1.72,1.54-2.79,1.06-4.76-2.13-15.71-6.1-29.08-4.94,3.11,2.23,5.33,5.67,5.88,9.76,1.06,7.87-4.46,15.11-12.33,16.16Z"/>
          <path class="cls-2" d="m158.2,105.59c.82,5.18,3.16,8.33,6.32,9.86V27.07c0-14.95-12.12-27.07-27.07-27.07h-6.9c1.97,7.95,5.06,15.94,11.35,23.19,27.4,31.59,13.79,66.55,16.31,82.41Z"/>
          <path class="cls-3" d="m87.8,67.74c13.37-1.15,24.33,2.82,29.08,4.94,1.06.47,2.31,0,2.79-1.06.47-1.06,0-2.31-1.06-2.79-7.65-3.42-22.79-8.25-40.54-3.71,3.58-.35,7,.66,9.74,2.62Z"/>
          <path class="cls-3" d="m72.48,66.85c-10.86,3.95-18.55,10.35-23.2,15.23-.8.84-.77,2.18.07,2.98.41.39.93.58,1.46.58.56,0,1.11-.22,1.52-.65,3.09-3.24,7.62-7.2,13.63-10.54,1.19-3.21,3.5-5.92,6.52-7.6Z"/>
          <path class="cls-6" d="m87.8,67.74c-2.74-1.96-6.15-2.96-9.74-2.62-.18.02-.36.02-.54.05-1.83.25-3.52.84-5.05,1.68-3.02,1.68-5.34,4.39-6.52,7.6-.79,2.13-1.08,4.48-.76,6.88,1.06,7.87,8.29,13.39,16.16,12.33,7.87-1.06,13.39-8.29,12.33-16.16-.55-4.09-2.78-7.53-5.88-9.76Z"/>
          <path class="cls-4" d="m39.87,164.21c.45-.82.15-1.84-.66-2.29-7.28-4.01-19.03-8.73-33.95-8.73-.07,0-.14,0-.21,0,.87,1.22,1.84,2.37,2.9,3.43,12.5.49,22.46,4.41,28.97,7.9h2.72c.08-.09.16-.2.23-.31Z"/>
          <path class="cls-2" d="m118.77,40.85c.66.87,1.66,1.33,2.68,1.33.67,0,1.34-.2,1.93-.61,1.52-1.07,1.89-3.17.82-4.7-3.25-4.63-38.64-33.67-80.86-13.9-1.69.79-2.41,2.8-1.62,4.49.79,1.69,2.8,2.41,4.49,1.62,40.31-18.88,71.75,10.94,72.56,11.77Z"/>
        </g>
      </g>
    </g>
  </g>
</svg>