<?xml version="1.0" encoding="UTF-8"?>
<svg id="Layer_2" data-name="Layer 2" xmlns="http://www.w3.org/2000/svg" viewBox="0 0 164.52 164.52">
  <defs>
    <style>
      .cls-1 {
        fill: #f9d584;
      }

      .cls-1, .cls-2, .cls-3, .cls-4 {
        stroke-width: 0px;
      }

      .cls-2 {
        fill: #fa9000;
      }

      .cls-3 {
        fill: #dba76d;
      }

      .cls-4 {
        fill: #e2bb6d;
      }
    </style>
  </defs>
  <g id="Portraits">
    <g id="A">
      <g id="Tiles">
        <g id="A-15">
          <path class="cls-2" d="m70.61,144.29c.18,7.14.72,13.98,1.72,20.23h65.11c14.95,0,27.07-12.12,27.07-27.07V27.07c0-3.26-.58-6.38-1.63-9.27-4.68,2.24-8.44,3.1-9.56,3.32-16.38,62.33-37.54,104.08-82.71,123.17Z"/>
          <path class="cls-4" d="m7.48,156.12c4.93,5.17,11.88,8.4,19.59,8.4h45.27c-1-6.25-1.54-13.09-1.72-20.23-17.21,7.27-37.89,11.25-63.13,11.83Z"/>
          <path class="cls-4" d="m153.33,21.12c1.12-.22,4.88-1.08,9.56-3.32-1.36-3.72-3.51-7.06-6.24-9.82-1.09,4.48-2.19,8.85-3.32,13.14Z"/>
          <path class="cls-1" d="m153.33,21.12c1.13-4.28,2.23-8.66,3.32-13.14-4.9-4.93-11.69-7.99-19.2-7.99H27.07C12.12,0,0,12.12,0,27.07v45.94c16.65.68,32.94-4.59,50.01-15.85.97-.64,2.28-.37,2.92.6.64.97.37,2.28-.6,2.92-16.5,10.89-32.29,16.31-48.25,16.59-.42,0-.85.01-1.27.01-.94,0-1.87-.02-2.81-.05v60.22c0,7.24,2.85,13.81,7.48,18.67,25.24-.58,45.93-4.56,63.13-11.83,45.18-19.08,66.33-60.84,82.71-123.17Z"/>
          <path class="cls-3" d="m2.81,77.28c.42,0,.85,0,1.27-.01,15.97-.27,31.75-5.7,48.25-16.59.97-.64,1.24-1.95.6-2.92-.64-.97-1.95-1.24-2.92-.6-17.07,11.26-33.36,16.53-50.01,15.85v4.21c.94.04,1.88.05,2.81.05Z"/>
        </g>
      </g>
    </g>
  </g>
</svg>