<?xml version="1.0" encoding="UTF-8"?>
<svg id="Layer_2" data-name="Layer 2" xmlns="http://www.w3.org/2000/svg" viewBox="0 0 164.52 164.52">
  <defs>
    <style>
      .cls-1 {
        fill: #fa9000;
      }

      .cls-1, .cls-2, .cls-3 {
        stroke-width: 0px;
      }

      .cls-2 {
        fill: #e2bb6d;
      }

      .cls-3 {
        fill: #978882;
      }
    </style>
  </defs>
  <g id="Portraits">
    <g id="A">
      <g id="Tiles">
        <g id="A-18">
          <path class="cls-1" d="m137.45,0h-64.82c1.14,6.42,2.8,12.16,5.12,16.87,0,0,42.69,3.41,86.74,8.92-.67-14.36-12.52-25.79-27.04-25.79Z"/>
          <path class="cls-2" d="m77.75,16.87c-2.32-4.71-3.98-10.46-5.12-16.87H27.07C12.12,0,0,12.12,0,27.07v110.38c0,3.21.56,6.28,1.58,9.14,3.2-1.17,10.33-3.79,26.2-9.61,63.73-23.37,49.96-120.1,49.96-120.1Z"/>
          <path class="cls-3" d="m27.79,136.98c-15.87,5.82-23,8.43-26.2,9.61,3.75,10.45,13.74,17.93,25.49,17.93h110.38c14.95,0,27.07-12.12,27.07-27.07V27.07c0-.43-.01-.85-.03-1.28-44.04-5.51-86.74-8.92-86.74-8.92,0,0,13.76,96.74-49.96,120.1Z"/>
        </g>
      </g>
    </g>
  </g>
</svg>