<?xml version="1.0" encoding="UTF-8"?>
<svg id="Layer_2" data-name="Layer 2" xmlns="http://www.w3.org/2000/svg" viewBox="0 0 164.52 164.52">
  <defs>
    <style>
      .cls-1 {
        fill: #fa9000;
      }

      .cls-1, .cls-2, .cls-3 {
        stroke-width: 0px;
      }

      .cls-2 {
        fill: #262260;
      }

      .cls-3 {
        fill: #15153f;
      }
    </style>
  </defs>
  <g id="Portraits">
    <g id="A">
      <g id="Tiles">
        <g id="A-4">
          <path class="cls-1" d="m137.45,0H27.07C12.12,0,0,12.12,0,27.07v26.27c6.18,4.69,15.23,13.71,14.08,27.9-2.03,24.93,25.4,27.83-4.03,59.61,2.98,6.89,5.34,14.13,6.77,21.66,3.16,1.3,6.62,2.01,10.25,2.01h110.38c14.95,0,27.07-12.12,27.07-27.07V27.07c0-14.95-12.12-27.07-27.07-27.07Z"/>
          <path class="cls-3" d="m14.08,81.24c1.15-14.19-7.9-23.21-14.08-27.9v68.6c3.72,5.93,7.17,12.25,10.04,18.9,29.43-31.78,2-34.68,4.03-59.61Z"/>
          <path class="cls-2" d="m0,121.94v15.5c0,11.32,6.95,21.01,16.82,25.06-1.44-7.52-3.79-14.77-6.77-21.66-2.88-6.65-6.32-12.98-10.04-18.9Z"/>
        </g>
      </g>
    </g>
  </g>
</svg>