<?xml version="1.0" encoding="UTF-8"?>
<svg id="Layer_2" data-name="Layer 2" xmlns="http://www.w3.org/2000/svg" viewBox="0 0 164.52 164.52">
  <defs>
    <style>
      .cls-1 {
        fill: #fa9000;
      }

      .cls-1, .cls-2 {
        stroke-width: 0px;
      }

      .cls-2 {
        fill: #262260;
      }
    </style>
  </defs>
  <g id="Portraits">
    <g id="A">
      <g id="Tiles">
        <g id="A-8">
          <path class="cls-1" d="m137.45,0H27.07c-3.3,0-6.46.59-9.38,1.67.9,7.04.94,14.3-.13,21.72-4.52,31.31,11.67,36.1,11.68,61.95.03,54.5-22.52,39.23-6.19,78.87,1.31.2,2.65.3,4.02.3h110.38c14.95,0,27.07-12.12,27.07-27.07V27.07c0-14.95-12.12-27.07-27.07-27.07Z"/>
          <path class="cls-2" d="m29.24,85.35c-.01-25.85-16.21-30.65-11.68-61.95,1.07-7.42,1.03-14.68.13-21.72C7.36,5.49,0,15.42,0,27.07v110.38c0,13.58,10.01,24.83,23.05,26.77-16.33-39.64,6.22-24.37,6.19-78.87Z"/>
        </g>
      </g>
    </g>
  </g>
</svg>