<?xml version="1.0" encoding="UTF-8"?>
<svg id="Layer_2" data-name="Layer 2" xmlns="http://www.w3.org/2000/svg" viewBox="0 0 164.52 164.52">
  <defs>
    <style>
      .cls-1 {
        fill: #f9d584;
      }

      .cls-1, .cls-2, .cls-3, .cls-4 {
        stroke-width: 0px;
      }

      .cls-2 {
        fill: #fa9000;
      }

      .cls-3 {
        fill: #262260;
      }

      .cls-4 {
        fill: #e2bb6d;
      }
    </style>
  </defs>
  <g id="Portraits">
    <g id="A">
      <g id="Tiles">
        <g id="A-12">
          <path class="cls-2" d="m137.45,0H27.07c-1.05,0-2.08.07-3.1.18.94,2.21,1.99,4.57,3.17,7.13,5.34,11.58-1.74,23.77-11.18,30.66,11.32,41.75-3.07,61.02-15.96,69.69v29.8c0,14.95,12.12,27.07,27.07,27.07h110.38c14.95,0,27.07-12.12,27.07-27.07V27.07c0-14.95-12.12-27.07-27.07-27.07Z"/>
          <path class="cls-4" d="m15.96,37.96c-5.02,3.67-10.72,5.83-15.56,5.6-.13.66-.27,1.32-.4,1.97v62.12c12.9-8.67,27.28-27.94,15.96-69.69Z"/>
          <path class="cls-1" d="m0,43.53v2c.13-.65.27-1.31.4-1.97-.13,0-.27-.02-.4-.03Z"/>
          <path class="cls-3" d="m15.96,37.96c9.44-6.89,16.52-19.08,11.18-30.66-1.18-2.55-2.23-4.92-3.17-7.13C10.48,1.72,0,13.17,0,27.07v16.46c.13.01.26.02.4.03,4.85.23,10.54-1.93,15.56-5.6Z"/>
        </g>
      </g>
    </g>
  </g>
</svg>