<?xml version="1.0" encoding="UTF-8"?>
<svg id="Layer_2" data-name="Layer 2" xmlns="http://www.w3.org/2000/svg" viewBox="0 0 164.52 164.52">
  <defs>
    <style>
      .cls-1 {
        fill: #fa9000;
      }

      .cls-1, .cls-2, .cls-3 {
        stroke-width: 0px;
      }

      .cls-2 {
        fill: #e2bb6d;
      }

      .cls-3 {
        fill: #978882;
      }
    </style>
  </defs>
  <g id="Portraits">
    <g id="A">
      <g id="Tiles">
        <g id="A-16">
          <path class="cls-1" d="m137.45,0H27.07C12.12,0,0,12.12,0,27.07v92.47c34.61,4.43,69.23,10.14,83.85,16.48,9.43,4.09,17.44,8.91,24.27,14.22,5.95,4.27,10.97,9.09,15.2,14.28h14.12c14.95,0,27.07-12.12,27.07-27.07V27.07c0-14.95-12.12-27.07-27.07-27.07Z"/>
          <path class="cls-2" d="m108.13,150.24c5.72,4.45,10.6,9.25,14.76,14.28h.44c-4.23-5.19-9.25-10.01-15.2-14.28Z"/>
          <path class="cls-3" d="m108.13,150.24c-6.83-5.32-14.85-10.14-24.27-14.22-14.63-6.34-49.24-12.05-83.85-16.48v17.91c0,14.95,12.12,27.07,27.07,27.07h95.81c-4.16-5.02-9.04-9.82-14.76-14.28Z"/>
        </g>
      </g>
    </g>
  </g>
</svg>