<?xml version="1.0" encoding="UTF-8"?>
<svg id="Layer_2" data-name="Layer 2" xmlns="http://www.w3.org/2000/svg" viewBox="0 0 164.23 164.52">
  <defs>
    <style>
      .cls-1 {
        fill: #fa9000;
      }

      .cls-1, .cls-2 {
        stroke-width: 0px;
      }

      .cls-2 {
        fill: #262260;
      }
    </style>
  </defs>
  <g id="Portraits">
    <g id="A">
      <g id="Tiles">
        <g id="A-5">
          <path class="cls-1" d="m26.78,0C13.17,0,1.91,10.05,0,23.13v118.25c1.91,13.08,13.17,23.13,26.78,23.13h110.38c1.78,0,3.52-.18,5.2-.5,14.3-36.41-7.25-23.01-7.23-76.29.01-25.85,16.21-30.65,11.68-61.95-1.18-8.2-1-16.19.19-23.91-3.05-1.19-6.37-1.85-9.85-1.85H26.78Z"/>
          <path class="cls-2" d="m146.82,25.77c4.52,31.31-11.67,36.1-11.68,61.95-.03,53.28,21.52,39.88,7.23,76.29,12.46-2.43,21.87-13.39,21.87-26.57V27.07c0-11.48-7.14-21.28-17.22-25.22-1.18,7.72-1.37,15.72-.19,23.91Z"/>
        </g>
      </g>
    </g>
  </g>
</svg>