<?xml version="1.0" encoding="UTF-8"?>
<svg id="Layer_2" data-name="Layer 2" xmlns="http://www.w3.org/2000/svg" viewBox="0 0 164.23 164.52">
  <defs>
    <style>
      .cls-1 {
        fill: #fa9000;
      }

      .cls-1, .cls-2, .cls-3 {
        stroke-width: 0px;
      }

      .cls-2 {
        fill: #262260;
      }

      .cls-3 {
        fill: #e2bb6d;
      }
    </style>
  </defs>
  <g id="Portraits">
    <g id="A">
      <g id="Tiles">
        <g id="A-9">
          <path class="cls-1" d="m0,23.13v118.25c1.91,13.08,13.17,23.13,26.78,23.13h110.38c14.95,0,27.07-12.12,27.07-27.07v-28.93c-12.16-9.23-24.32-28.32-14.16-67.04-10.24-6.62-18.49-19.55-12.84-31.8,1.58-3.43,2.94-6.53,4.1-9.36-1.36-.21-2.76-.32-4.18-.32H26.78C13.17,0,1.91,10.05,0,23.13Z"/>
          <path class="cls-3" d="m150.07,41.48c-10.16,38.72,2,57.81,14.16,67.04v-62.6c-4.38.29-9.47-1.42-14.16-4.44Z"/>
          <path class="cls-2" d="m150.07,41.48c4.68,3.03,9.78,4.73,14.16,4.44v-18.85c0-13.53-9.92-24.74-22.89-26.75-1.16,2.83-2.52,5.93-4.1,9.36-5.65,12.25,2.6,25.18,12.84,31.8Z"/>
        </g>
      </g>
    </g>
  </g>
</svg>