<?xml version="1.0" encoding="UTF-8"?>
<svg id="Layer_2" data-name="Layer 2" xmlns="http://www.w3.org/2000/svg" viewBox="0 0 164.23 164.52">
  <defs>
    <style>
      .cls-1 {
        fill: #fa9000;
      }

      .cls-1, .cls-2, .cls-3 {
        stroke-width: 0px;
      }

      .cls-2 {
        fill: #e2bb6d;
      }

      .cls-3 {
        fill: #978882;
      }
    </style>
  </defs>
  <g id="Portraits">
    <g id="A">
      <g id="Tiles">
        <g id="A-13">
          <path class="cls-1" d="m0,23.13v118.25c1.91,13.08,13.17,23.13,26.78,23.13h18.35c3.75-4.28,8.08-8.28,13.09-11.88,6.81-5.32,14.82-10.15,24.26-14.24,14.33-6.22,47.85-11.82,81.75-16.21V27.07c0-14.95-12.12-27.07-27.07-27.07H26.78C13.17,0,1.91,10.05,0,23.13Z"/>
          <path class="cls-2" d="m58.22,152.64c-5,3.6-9.34,7.6-13.09,11.88h.45c3.66-4.16,7.85-8.14,12.64-11.88Z"/>
          <path class="cls-3" d="m58.22,152.64c-4.79,3.74-8.98,7.72-12.64,11.88h91.57c14.95,0,27.07-12.12,27.07-27.07v-15.26c-33.9,4.39-67.42,9.99-81.75,16.21-9.44,4.09-17.45,8.92-24.26,14.24Z"/>
        </g>
      </g>
    </g>
  </g>
</svg>