<?xml version="1.0" encoding="UTF-8"?>
<svg id="Layer_2" data-name="Layer 2" xmlns="http://www.w3.org/2000/svg" viewBox="0 0 164.52 164.52">
  <defs>
    <style>
      .cls-1 {
        fill: #fa9000;
      }

      .cls-1, .cls-2, .cls-3 {
        stroke-width: 0px;
      }

      .cls-2 {
        fill: #262260;
      }

      .cls-3 {
        fill: #15153f;
      }
    </style>
  </defs>
  <g id="Portraits">
    <g id="A">
      <g id="Tiles">
        <g id="A-2">
          <path class="cls-1" d="m137.45,0H27.07C12.12,0,0,12.12,0,27.07v98.88c1.5-1.11,2.8-1.95,3.68-2.54,17.74-11.68,2.82-36.24,12.6-47.29,13.42-15.16,50.05-6.99,50.05-6.99,13.87-25.14,33.94-47.16,53.24-47.16,23.27,0,38.38,11.06,44.95,17.16v-12.07c0-14.95-12.12-27.07-27.07-27.07Z"/>
          <path class="cls-3" d="m66.33,69.13s-36.63-8.17-50.05,6.99c-9.78,11.05,5.14,35.61-12.6,47.29-.89.58-2.18,1.43-3.68,2.54v11.5c0,12.77,8.84,23.47,20.74,26.32,39.07-42.56,88.18-53.44,105.71-55.27,4.44-.46,10.92-1.48,18.43-2.29,7.6-.82,14.68,1.96,19.65,6.91V39.14c-6.56-6.1-21.68-17.16-44.95-17.16-19.3,0-39.37,22.02-53.24,47.16Z"/>
          <path class="cls-2" d="m144.87,106.2c-7.51.81-13.99,1.83-18.43,2.29-17.52,1.83-66.63,12.71-105.71,55.27,2.03.49,4.15.75,6.33.75h110.38c10.67,0,19.9-6.18,24.31-15.15l-.63-19.13c0-4.53,1.24-8.75,3.39-12.35v-4.77c-4.97-4.94-12.05-7.72-19.65-6.91Z"/>
          <path class="cls-2" d="m161.75,149.37c1.77-3.6,2.76-7.64,2.76-11.92v-19.56c-2.15,3.6-3.39,7.82-3.39,12.35l.63,19.13Z"/>
        </g>
      </g>
    </g>
  </g>
</svg>