<?xml version="1.0" encoding="UTF-8"?>
<svg id="Layer_2" data-name="Layer 2" xmlns="http://www.w3.org/2000/svg" viewBox="0 0 164.52 164.52">
  <defs>
    <style>
      .cls-1 {
        fill: #f9d584;
      }

      .cls-1, .cls-2, .cls-3 {
        stroke-width: 0px;
      }

      .cls-2 {
        fill: #262260;
      }

      .cls-3 {
        fill: #15153f;
      }
    </style>
  </defs>
  <g id="Portraits">
    <g id="A">
      <g id="Tiles">
        <g id="A-6">
          <path class="cls-3" d="m.3,23.02C5.67,15.17,11.39,8.13,16.67,2.07,8.08,5.65,1.73,13.53.3,23.02Z"/>
          <path class="cls-1" d="m85.49,115.56c-48.19.79-44.68,24.49-50.3,48.95h102.25c14.95,0,27.07-12.12,27.07-27.07v-58.09c-10.07,23.88-38.52,35.54-79.02,36.21Z"/>
          <path class="cls-2" d="m0,27.07v110.38c0,14.95,12.12,27.07,27.07,27.07h8.12c5.63-24.46,2.11-48.16,50.3-48.95,40.5-.66,68.95-12.33,79.02-36.21v-15.1c-.19-2.01-.31-4.06-.31-6.19l-1.32-40.26c-3.78-10.39-13.75-17.81-25.44-17.81H27.07c-3.69,0-7.2.74-10.4,2.07C11.39,8.13,5.67,15.17.3,23.02c-.2,1.32-.3,2.67-.3,4.05Z"/>
          <path class="cls-2" d="m164.52,64.25V27.07c0-3.25-.58-6.37-1.63-9.26l1.32,40.26c0,2.13.11,4.19.31,6.19Z"/>
        </g>
      </g>
    </g>
  </g>
</svg>