<?xml version="1.0" encoding="UTF-8"?>
<svg id="Layer_2" data-name="Layer 2" xmlns="http://www.w3.org/2000/svg" viewBox="0 0 164.52 164.52">
  <defs>
    <style>
      .cls-1 {
        fill: #f9d584;
      }

      .cls-1, .cls-2, .cls-3, .cls-4, .cls-5, .cls-6 {
        stroke-width: 0px;
      }

      .cls-2 {
        fill: #262260;
      }

      .cls-3 {
        fill: #15153f;
      }

      .cls-4 {
        fill: #dba76d;
      }

      .cls-5 {
        fill: #e2bb6d;
      }

      .cls-6 {
        fill: #333;
      }
    </style>
  </defs>
  <g id="Portraits">
    <g id="A">
      <g id="Tiles">
        <g id="A-10">
          <path class="cls-5" d="m0,137.45c0,7.27,2.87,13.86,7.53,18.72-2.53-11.33-5.01-23.2-7.53-35.61v16.89Z"/>
          <path class="cls-1" d="m136.81,162.98c5.09-3.01,12.41-6.45,21.55-8.35,3.84-4.67,6.15-10.66,6.15-17.18V27.07c0-14.95-12.12-27.07-27.07-27.07H34.78c-1.97,7.95-5.06,15.92-11.34,23.16C-3.95,54.75,9.65,89.71,7.14,105.56c-.89,5.62-3.57,8.85-7.14,10.22v4.77c2.52,12.41,5,24.29,7.53,35.61,4.93,5.14,11.86,8.35,19.54,8.35h108.93c-.03-.6.26-1.21.82-1.54Zm-10.44-78.6c-.41.41-.95.61-1.48.61s-1.08-.21-1.5-.62c-3.15-3.18-7.76-7.06-13.82-10.29.83,2.12,1.17,4.45.89,6.87-.91,7.89-8.05,13.54-15.93,12.63-7.89-.91-13.54-8.05-12.63-15.93.47-4.1,2.64-7.58,5.7-9.87-13.39-.91-24.27,3.26-28.98,5.48-1.05.49-2.31.04-2.8-1.01-.49-1.05-.04-2.31,1.01-2.8,7.58-3.56,22.63-8.67,40.46-4.46.18.01.36.01.54.04,1.83.21,3.54.77,5.08,1.59,10.93,3.75,18.73,10.01,23.48,14.8.82.83.81,2.16-.01,2.98Zm5.84-56.95c-.79,1.69-2.8,2.41-4.49,1.62-40.32-18.89-71.75,10.94-72.56,11.77-.66.87-1.66,1.33-2.68,1.33-.67,0-1.34-.2-1.93-.61-1.53-1.07-1.89-3.17-.83-4.7,3.25-4.63,38.64-33.67,80.86-13.9,1.69.79,2.41,2.8,1.62,4.49Z"/>
          <path class="cls-1" d="m153.24,159.42c-4.53,1.38-8.46,3.09-11.7,4.79,4.32-.66,8.31-2.34,11.7-4.79Z"/>
          <path class="cls-2" d="m7.14,105.56c2.51-15.85-11.09-50.81,16.31-82.41,6.28-7.24,9.36-15.21,11.34-23.16h-7.71C12.12,0,0,12.12,0,27.07v88.71c3.57-1.37,6.25-4.6,7.14-10.22Z"/>
          <path class="cls-3" d="m102.91,66.61c3.05,1.62,5.42,4.29,6.66,7.48,6.06,3.23,10.67,7.11,13.82,10.29.41.42.95.62,1.5.62s1.07-.2,1.48-.61c.83-.82.83-2.15.01-2.98-4.74-4.79-12.55-11.05-23.48-14.8Z"/>
          <path class="cls-3" d="m97.29,64.98c-17.84-4.21-32.88.9-40.46,4.46-1.05.5-1.51,1.75-1.01,2.8.49,1.05,1.75,1.5,2.8,1.01,4.72-2.21,15.6-6.38,28.98-5.48,2.7-2.01,6.1-3.08,9.69-2.8Z"/>
          <path class="cls-6" d="m102.91,66.61c-1.54-.82-3.24-1.38-5.08-1.59-.18-.02-.36-.02-.54-.04-3.59-.28-6.99.79-9.69,2.8-3.07,2.28-5.23,5.77-5.7,9.87-.91,7.89,4.74,15.02,12.63,15.93,7.89.91,15.02-4.74,15.93-12.63.28-2.41-.06-4.75-.89-6.87-1.25-3.19-3.61-5.86-6.66-7.48Z"/>
          <path class="cls-4" d="m136,164.52h1.45c1.39,0,2.76-.11,4.09-.31,3.24-1.7,7.17-3.41,11.7-4.79,1.91-1.37,3.63-2.98,5.12-4.79-9.15,1.91-16.46,5.34-21.55,8.35-.56.33-.85.93-.82,1.54Z"/>
          <path class="cls-2" d="m130.58,22.95c-42.23-19.77-77.62,9.27-80.86,13.9-1.07,1.53-.7,3.63.83,4.7.59.41,1.26.61,1.93.61,1.02,0,2.03-.46,2.68-1.33.81-.83,32.24-30.65,72.56-11.77,1.69.79,3.69.06,4.49-1.62.79-1.69.06-3.7-1.62-4.49Z"/>
        </g>
      </g>
    </g>
  </g>
</svg>