<?xml version="1.0" encoding="UTF-8"?>
<svg id="Layer_2" data-name="Layer 2" xmlns="http://www.w3.org/2000/svg" viewBox="0 0 164.52 164.52">
  <defs>
    <style>
      .cls-1 {
        fill: #f9d584;
      }

      .cls-1, .cls-2, .cls-3, .cls-4 {
        stroke-width: 0px;
      }

      .cls-2 {
        fill: #fa9000;
      }

      .cls-3 {
        fill: #dba76d;
      }

      .cls-4 {
        fill: #e2bb6d;
      }
    </style>
  </defs>
  <g id="Portraits">
    <g id="A">
      <g id="Tiles">
        <g id="A-14">
          <path class="cls-2" d="m27.07,164.52h67.89c1.03-6.38,1.57-13.38,1.74-20.69C52.25,124.55,31.3,82.98,15.05,21.16h-.74s-5.51-.89-12.21-4.57c-1.35,3.22-2.1,6.76-2.1,10.47v110.38c0,14.95,12.12,27.07,27.07,27.07Z"/>
          <path class="cls-4" d="m94.96,164.52h42.49c7.78,0,14.78-3.28,19.72-8.53-24.07-.89-43.91-4.97-60.47-12.15-.17,7.3-.71,14.31-1.74,20.69Z"/>
          <path class="cls-4" d="m15.05,21.16c-1.36-5.17-2.68-10.47-3.99-15.92-3.93,2.89-7.05,6.8-8.96,11.35,6.7,3.67,12.21,4.57,12.21,4.57h.74Z"/>
          <path class="cls-1" d="m96.69,143.83c16.57,7.19,36.41,11.27,60.47,12.15,4.55-4.84,7.35-11.36,7.35-18.54v-60.41c-13.44-1.03-27.16-5.7-41.75-14.18-1.01-.58-1.35-1.88-.76-2.88.58-1.01,1.88-1.35,2.88-.76,13.8,8.03,26.84,12.55,39.63,13.6V27.07c0-14.95-12.12-27.07-27.07-27.07H27.07c-5.99,0-11.52,1.95-16.01,5.24,1.3,5.45,2.63,10.75,3.99,15.92,16.25,61.81,37.2,103.39,81.64,122.67Z"/>
          <path class="cls-3" d="m122.01,59.97c-.58,1.01-.24,2.3.76,2.88,14.58,8.48,28.31,13.15,41.75,14.18v-4.23c-12.79-1.05-25.83-5.58-39.63-13.6-1.01-.59-2.3-.24-2.88.76Z"/>
        </g>
      </g>
    </g>
  </g>
</svg>