<?xml version="1.0" encoding="UTF-8"?>
<svg id="Layer_2" data-name="Layer 2" xmlns="http://www.w3.org/2000/svg" viewBox="0 0 164.52 164.52">
  <defs>
    <style>
      .cls-1 {
        fill: #fa9000;
      }

      .cls-1, .cls-2, .cls-3 {
        stroke-width: 0px;
      }

      .cls-2 {
        fill: #e2bb6d;
      }

      .cls-3 {
        fill: #978882;
      }
    </style>
  </defs>
  <g id="Portraits">
    <g id="A">
      <g id="Tiles">
        <g id="A-17">
          <path class="cls-1" d="m94.66,0H27.07C12.44,0,.53,11.61.02,26.12c45.01-5.72,89.52-9.27,89.52-9.27,2.31-4.71,3.97-10.44,5.11-16.85Z"/>
          <path class="cls-2" d="m139.51,136.95c12.66,4.64,19.76,7.24,23.74,8.7.82-2.59,1.27-5.35,1.27-8.21V27.07c0-14.95-12.12-27.07-27.07-27.07h-42.79c-1.14,6.41-2.8,12.14-5.11,16.85,0,0-13.76,96.74,49.96,120.1Z"/>
          <path class="cls-3" d="m0,137.45c0,14.95,12.12,27.07,27.07,27.07h110.38c12.09,0,22.32-7.93,25.8-18.86-3.98-1.46-11.08-4.06-23.74-8.7-63.73-23.37-49.96-120.1-49.96-120.1,0,0-44.51,3.55-89.52,9.27-.01.32-.02.63-.02.95v110.38Z"/>
        </g>
      </g>
    </g>
  </g>
</svg>