<?xml version="1.0" encoding="UTF-8"?>
<svg id="Layer_2" data-name="Layer 2" xmlns="http://www.w3.org/2000/svg" viewBox="0 0 164.52 164.52">
  <defs>
    <style>
      .cls-1 {
        fill: #fa9000;
      }

      .cls-1, .cls-2, .cls-3, .cls-4 {
        stroke-width: 0px;
      }

      .cls-2 {
        fill: #472513;
      }

      .cls-3 {
        fill: #7c553a;
      }

      .cls-4 {
        fill: #8c5e3b;
      }
    </style>
  </defs>
  <g id="Portraits">
    <g id="H">
      <g id="Tiles">
        <g id="H-7">
          <path class="cls-1" d="m137.45,0H40.67c1.51.13,3.03.25,4.52.39,14.63,1.42,28.31,3.64,41,6.41,2.11.46,4.2.94,6.26,1.43,6.18,1.47,12.1,3.07,17.77,4.77,22.25,6.66,40.48,14.8,54.3,22.56v-8.49c0-14.95-12.12-27.07-27.07-27.07Z"/>
          <path class="cls-4" d="m163.9,139.09c-18.5-26.51-78.08-36.48-139.76-36.34-.04,0-.08,0-.12,0-.99,0-1.99,0-2.99.02-.07,0-.14,0-.21,0-.98,0-1.97.02-2.95.03-.07,0-.14,0-.21,0-1,.01-1.99.03-2.99.05-.03,0-.07,0-.1,0-4.86.09-9.73.25-14.57.46v34.13c0,14.95,12.12,27.07,27.07,27.07h110.38c14.14,0,25.74-10.84,26.96-24.66-.17-.25-.33-.5-.5-.75,0,0,0,0,0-.01Z"/>
          <path class="cls-3" d="m17.66,102.81c.07,0,.14,0,.21,0-.07,0-.14,0-.21,0Z"/>
          <path class="cls-3" d="m24.01,102.75s.08,0,.12,0c-.04,0-.08,0-.12,0Z"/>
          <path class="cls-3" d="m20.82,102.77c.07,0,.14,0,.21,0-.07,0-.14,0-.21,0Z"/>
          <path class="cls-3" d="m163.9,139.09s0,0,0,.01c0,0,0,0,0-.01Z"/>
          <path class="cls-3" d="m14.57,102.86s.07,0,.1,0c-.03,0-.07,0-.1,0Z"/>
          <path class="cls-2" d="m92.45,8.23c-2.06-.49-4.15-.97-6.26-1.43C73.5,4.03,59.81,1.81,45.18.39c-1.49-.14-3.01-.26-4.52-.39h-13.6C12.12,0,0,12.12,0,27.07v76.24c4.84-.21,9.71-.36,14.57-.46.03,0,.07,0,.1,0,1-.02,1.99-.03,2.99-.05.07,0,.14,0,.21,0,.98-.01,1.97-.02,2.95-.03.07,0,.14,0,.21,0,1,0,1.99-.01,2.99-.02.04,0,.08,0,.12,0,61.68-.14,121.26,9.83,139.76,36.34,0,0,0,0,0,.01.17.25.33.5.5.75.07-.79.11-1.6.11-2.41V35.56c-13.82-7.76-32.05-15.91-54.3-22.56-5.67-1.7-11.59-3.3-17.77-4.77Z"/>
        </g>
      </g>
    </g>
  </g>
</svg>