<?xml version="1.0" encoding="UTF-8"?>
<svg id="Layer_2" data-name="Layer 2" xmlns="http://www.w3.org/2000/svg" viewBox="0 0 164.52 164.52">
  <defs>
    <style>
      .cls-1 {
        fill: #fa9000;
      }

      .cls-1, .cls-2, .cls-3, .cls-4 {
        stroke-width: 0px;
      }

      .cls-2 {
        fill: #7a4226;
      }

      .cls-3 {
        fill: #7c4b29;
      }

      .cls-4 {
        fill: #8c5e3b;
      }
    </style>
  </defs>
  <g id="Portraits">
    <g id="H">
      <g id="Tiles">
        <g id="H-15">
          <path class="cls-1" d="m164.52,137.45V33.23c-5.79,2.9-10.33,3.63-10.33,3.63h-5.98c-15.73,51.22-35.99,92.04-65.45,116.66l1.6,11h53.08c14.95,0,27.07-12.12,27.07-27.07Z"/>
          <path class="cls-3" d="m67.13,164.52h17.23l-1.6-11c-4.94,4.13-10.15,7.81-15.63,11Z"/>
          <path class="cls-3" d="m154.19,36.86s4.53-.74,10.33-3.63v-6.16c0-7.56-3.1-14.4-8.1-19.31-2.6,10.02-5.32,19.74-8.2,29.1h5.98Z"/>
          <path class="cls-4" d="m82.76,153.52c29.46-24.62,49.73-65.44,65.45-116.66,2.88-9.37,5.6-19.08,8.2-29.1-4.88-4.8-11.58-7.76-18.97-7.76H27.07C12.12,0,0,12.12,0,27.07v.67c2.61.07,5.43.02,8.47-.15,1.17-.05,2.16.82,2.22,1.98.07,1.16-.82,2.16-1.98,2.22-2.24.13-4.38.19-6.41.19-.78,0-1.54-.01-2.3-.03v44.84c1.99.07,4.02.11,6.12.1,19.46-.13,33.97-3.74,42.72-6.74,9.48-3.25,14.42-6.51,14.47-6.54.97-.65,2.28-.39,2.92.58.65.97.39,2.27-.58,2.92-.83.56-20.9,13.73-59.51,13.99-.37,0-.74,0-1.1,0-1.73,0-3.4-.04-5.05-.09v56.42c0,14.95,12.12,27.07,27.07,27.07h40.06c5.48-3.19,10.69-6.87,15.63-11Z"/>
          <path class="cls-2" d="m6.15,81.11c38.61-.26,58.67-13.43,59.51-13.99.97-.65,1.22-1.95.58-2.92-.65-.97-1.96-1.23-2.92-.58-.05.03-4.99,3.29-14.47,6.54-8.75,3-23.26,6.6-42.72,6.74-2.1.01-4.14-.03-6.12-.1v4.23c1.65.05,3.32.09,5.05.09.36,0,.73,0,1.1,0Z"/>
          <path class="cls-2" d="m8.71,31.8c1.16-.07,2.05-1.06,1.98-2.22-.07-1.16-1.06-2.03-2.22-1.98-3.04.17-5.86.22-8.47.15v4.22c.75.02,1.51.03,2.3.03,2.03,0,4.17-.06,6.41-.19Z"/>
        </g>
      </g>
    </g>
  </g>
</svg>