<?xml version="1.0" encoding="UTF-8"?>
<svg id="Layer_2" data-name="Layer 2" xmlns="http://www.w3.org/2000/svg" viewBox="0 0 164.52 164.52">
  <defs>
    <style>
      .cls-1 {
        fill: #fa9000;
      }

      .cls-1, .cls-2, .cls-3, .cls-4 {
        stroke-width: 0px;
      }

      .cls-2 {
        fill: #7c4b29;
      }

      .cls-3 {
        fill: #8948b7;
      }

      .cls-4 {
        fill: #8c5e3b;
      }
    </style>
  </defs>
  <g id="Portraits">
    <g id="H">
      <g id="Tiles">
        <g id="H-18">
          <path class="cls-1" d="m137.45,0h-49.7c14.93,5.65,39.8,15.85,62.46,28.89,3.9,2.25,8.74,4.27,14.31,6.16v-7.97c0-14.95-12.12-27.07-27.07-27.07Z"/>
          <path class="cls-3" d="m87.75,0h-3.13l4.08,28.02c5.26,31.15-18.75,84.05-50.34,84.05H0v25.38c0,14.95,12.12,27.07,27.07,27.07h110.38c14.95,0,27.07-12.12,27.07-27.07V35.04c-5.57-1.88-10.4-3.91-14.31-6.16C127.54,15.85,102.68,5.65,87.75,0Z"/>
          <path class="cls-2" d="m88.7,28.02L84.61,0h-20.53C48.15,8.59,29.9,13.21,8.82,13.21c-1.67,0-3.32-.03-4.95-.09C1.41,17.19,0,21.97,0,27.07v85h38.35c31.59,0,55.6-52.9,50.34-84.05Z"/>
          <path class="cls-4" d="m64.08,0H27.07C17.22,0,8.61,5.26,3.87,13.12c1.64.06,3.28.09,4.95.09,21.08,0,39.33-4.62,55.26-13.21Z"/>
        </g>
      </g>
    </g>
  </g>
</svg>