<?xml version="1.0" encoding="UTF-8"?>
<svg id="Layer_2" data-name="Layer 2" xmlns="http://www.w3.org/2000/svg" viewBox="0 0 164.52 164.52">
  <defs>
    <style>
      .cls-1 {
        fill: #fa9000;
      }

      .cls-1, .cls-2, .cls-3 {
        stroke-width: 0px;
      }

      .cls-2 {
        fill: #472513;
      }

      .cls-3 {
        fill: #7c553a;
      }
    </style>
  </defs>
  <g id="Portraits">
    <g id="H">
      <g id="Tiles">
        <g id="H-4">
          <path class="cls-1" d="m137.45,0H27.07C12.12,0,0,12.12,0,27.07v104.15c2.16,1.29,4.2,2.55,6.1,3.8,1.93,1.26,3.73,2.49,5.39,3.69.47.34.94.69,1.39,1.05.15.12.3.25.45.37.3.25.6.49.9.74.17.15.34.3.5.45.26.24.53.47.79.72.18.17.35.34.52.51.24.24.49.47.72.71.18.18.35.37.53.56.23.24.45.48.68.72.18.2.35.4.52.6.21.25.43.49.64.74.17.21.34.42.51.63.2.25.41.5.61.76.17.21.33.44.49.65.19.26.39.52.58.79.16.22.31.45.47.68.19.27.37.54.56.82.15.23.3.47.45.71.18.28.36.55.53.84.15.24.29.49.44.73.17.29.34.57.5.86.14.25.28.5.42.75.16.29.32.59.48.89.13.25.27.51.4.77.16.3.31.6.46.91.13.26.25.52.38.79.15.31.3.62.44.94.12.27.24.54.36.81.14.32.28.64.42.96.12.27.23.55.35.83.13.32.27.65.4.98.11.28.22.56.33.84.13.33.26.67.38,1.01.09.24.17.47.26.71h108.11c14.95,0,27.07-12.12,27.07-27.07V27.07c0-14.95-12.12-27.07-27.07-27.07Z"/>
          <path class="cls-3" d="m29.33,164.52h0c-.09-.24-.17-.47-.26-.71.09.24.17.47.26.71Z"/>
          <path class="cls-3" d="m19.13,145.89c.17.21.34.42.51.63-.17-.21-.33-.42-.51-.63Z"/>
          <path class="cls-3" d="m12.88,139.75c.15.12.3.25.45.37-.15-.12-.29-.25-.45-.37Z"/>
          <path class="cls-3" d="m20.24,147.28c.17.21.33.44.49.65-.16-.22-.32-.44-.49-.65Z"/>
          <path class="cls-3" d="m21.31,148.73c.16.22.31.45.47.68-.16-.23-.31-.45-.47-.68Z"/>
          <path class="cls-3" d="m22.33,150.22c.15.23.3.47.45.71-.15-.24-.3-.47-.45-.71Z"/>
          <path class="cls-3" d="m14.23,140.87c.17.15.34.3.5.45-.17-.15-.33-.31-.5-.45Z"/>
          <path class="cls-3" d="m16.77,143.26c.18.18.35.37.53.56-.18-.19-.35-.38-.53-.56Z"/>
          <path class="cls-3" d="m17.97,144.55c.18.2.35.4.52.6-.17-.2-.34-.4-.52-.6Z"/>
          <path class="cls-3" d="m24.26,153.35c.14.25.28.5.42.75-.14-.25-.28-.5-.42-.75Z"/>
          <path class="cls-3" d="m15.52,142.04c.18.17.35.34.52.51-.17-.17-.35-.35-.52-.51Z"/>
          <path class="cls-3" d="m23.32,151.76c.15.24.29.49.44.73-.14-.24-.29-.49-.44-.73Z"/>
          <path class="cls-3" d="m27.62,160.16c.12.27.23.55.35.83-.11-.28-.23-.55-.35-.83Z"/>
          <path class="cls-3" d="m25.16,154.99c.13.25.27.51.4.77-.13-.26-.26-.52-.4-.77Z"/>
          <path class="cls-3" d="m26.84,158.39c.12.27.24.54.36.81-.12-.27-.24-.54-.36-.81Z"/>
          <path class="cls-3" d="m28.37,161.96c.11.28.22.56.33.84-.11-.28-.22-.56-.33-.84Z"/>
          <path class="cls-3" d="m26.02,156.67c.13.26.25.52.38.79-.13-.26-.25-.53-.38-.79Z"/>
          <path class="cls-2" d="m28.69,162.8c-.11-.28-.22-.56-.33-.84-.13-.33-.26-.65-.4-.98-.11-.28-.23-.55-.35-.83-.14-.32-.28-.64-.42-.96-.12-.27-.24-.54-.36-.81-.14-.32-.29-.63-.44-.94-.13-.26-.25-.53-.38-.79-.15-.31-.31-.61-.46-.91-.13-.26-.26-.52-.4-.77-.16-.3-.32-.59-.48-.89-.14-.25-.28-.5-.42-.75-.17-.29-.34-.57-.5-.86-.14-.24-.29-.49-.44-.73-.17-.28-.35-.56-.53-.84-.15-.24-.3-.47-.45-.71-.18-.28-.37-.55-.56-.82-.16-.23-.31-.45-.47-.68-.19-.27-.39-.53-.58-.79-.16-.22-.32-.44-.49-.65-.2-.26-.4-.51-.61-.76-.17-.21-.33-.42-.51-.63-.21-.25-.42-.5-.64-.74-.17-.2-.34-.4-.52-.6-.22-.25-.45-.48-.68-.72-.18-.19-.35-.38-.53-.56-.24-.24-.48-.48-.72-.71-.17-.17-.35-.35-.52-.51-.26-.24-.53-.48-.79-.72-.17-.15-.33-.31-.5-.45-.29-.25-.6-.5-.9-.74-.15-.12-.29-.25-.45-.37-.46-.36-.92-.71-1.39-1.05-1.66-1.2-3.46-2.43-5.39-3.69-1.91-1.24-3.94-2.51-6.1-3.8v6.23c0,14.95,12.12,27.07,27.07,27.07h2.26c-.09-.24-.17-.48-.26-.71-.12-.34-.25-.67-.38-1.01Z"/>
        </g>
      </g>
    </g>
  </g>
</svg>