<?xml version="1.0" encoding="UTF-8"?>
<svg id="Layer_2" data-name="Layer 2" xmlns="http://www.w3.org/2000/svg" viewBox="0 0 164.52 164.52">
  <defs>
    <style>
      .cls-1 {
        fill: #fa9000;
      }

      .cls-1, .cls-2, .cls-3, .cls-4 {
        stroke-width: 0px;
      }

      .cls-2 {
        fill: #472513;
      }

      .cls-3 {
        fill: #7c553a;
      }

      .cls-4 {
        fill: #8c5e3b;
      }
    </style>
  </defs>
  <g id="Portraits">
    <g id="H">
      <g id="Tiles">
        <g id="H-8">
          <path class="cls-1" d="m137.45,0H29.93c.04.11.07.22.11.32.12.35.23.7.34,1.05.09.29.18.58.28.88.11.36.22.71.33,1.07.09.3.17.59.26.89.1.36.21.73.31,1.09.08.3.16.6.24.9.1.37.2.74.29,1.11.08.3.15.61.23.91.09.37.18.75.27,1.13.07.31.15.62.22.93.09.38.17.76.26,1.15.07.31.14.62.2.93.08.39.16.77.24,1.16.06.32.13.63.19.95.08.39.15.78.22,1.18.06.32.12.63.17.95.07.4.14.8.21,1.2.05.32.11.63.16.95.07.41.13.82.19,1.23.05.31.1.63.15.95.06.41.12.83.18,1.25.04.32.09.63.13.95.06.42.11.84.17,1.26.04.32.08.63.12.95.05.42.1.85.15,1.27.04.32.07.64.11.96.05.43.09.85.14,1.28.03.32.07.65.1.97.04.43.08.85.12,1.28.03.32.06.65.09.98.04.43.07.87.11,1.3.03.32.05.64.08.96.03.44.07.88.1,1.33.02.32.05.64.07.95.03.45.06.9.09,1.35.02.31.04.62.06.94.03.46.05.92.08,1.38.02.31.03.61.05.92.02.47.04.93.06,1.4.01.3.03.61.04.91.02.47.04.95.05,1.42.01.29.02.59.03.88.02.5.03,1,.04,1.5,0,.27.02.54.02.81.01.57.03,1.15.04,1.72,0,.19,0,.39.01.58.01.69.02,1.38.03,2.08,0,.08,0,.16,0,.24,0,.77.01,1.54.01,2.31,0,.23,0,.47,0,.7,0,.54,0,1.08,0,1.61,0,.3,0,.61,0,.91,0,.46,0,.92,0,1.37,0,.37,0,.75-.01,1.12,0,.39,0,.79-.02,1.18,0,.39-.01.78-.02,1.17,0,.37-.01.74-.02,1.1,0,.41-.02.82-.03,1.23,0,.35-.02.7-.03,1.05-.01.41-.02.81-.03,1.22-.01.35-.02.7-.03,1.05-.01.41-.03.82-.04,1.22-.01.35-.02.69-.04,1.04-.01.41-.03.81-.05,1.22-.01.34-.03.68-.04,1.02-.02.42-.03.83-.05,1.24-.01.33-.03.65-.04.98-.02.42-.04.84-.06,1.26-.01.32-.03.63-.04.95-.02.43-.04.87-.07,1.3-.02.29-.03.59-.04.88-.02.44-.05.88-.07,1.32-.02.29-.03.58-.05.86-.02.44-.05.88-.08,1.31-.02.28-.03.55-.05.83-.03.45-.05.9-.08,1.35-.02.25-.03.51-.05.76-.03.47-.06.94-.09,1.41-.01.22-.03.45-.04.67-.03.48-.06.96-.09,1.44-.01.21-.03.42-.04.62-.03.51-.07,1.02-.1,1.52-.01.16-.02.31-.03.47-.04.54-.07,1.08-.11,1.61,0,.13-.02.26-.03.39-.04.55-.08,1.09-.12,1.63,0,.11-.02.22-.02.32-.12,1.59-.23,3.16-.35,4.7-1.99,26.51-4.76,47.24-7.96,63.4,0,0,.02,0,.03,0h110.38c14.95,0,27.07-12.12,27.07-27.07V27.07c0-14.95-12.12-27.07-27.07-27.07Z"/>
          <path class="cls-4" d="m0,137.45c0,6.05,1.98,11.63,5.34,16.14-.16-7.1-1.7-13.71-5.34-19.09v2.96Z"/>
          <path class="cls-3" d="m37.08,55.05c0,.24,0,.47,0,.7,0-.23,0-.47,0-.7Z"/>
          <path class="cls-3" d="m37.07,52.49c0,.08,0,.16,0,.24,0-.08,0-.16,0-.24Z"/>
          <path class="cls-3" d="m35.8,28.83c.03.32.07.65.1.97-.03-.32-.07-.65-.1-.97Z"/>
          <path class="cls-3" d="m37.07,59.65c0,.37,0,.75-.01,1.12,0-.37.01-.75.01-1.12Z"/>
          <path class="cls-3" d="m37,64.23c0,.41-.02.82-.03,1.23,0-.41.02-.82.03-1.23Z"/>
          <path class="cls-3" d="m37.04,61.95c0,.39-.01.78-.02,1.17,0-.39.02-.78.02-1.17Z"/>
          <path class="cls-3" d="m36.97,47.3c0,.27.02.54.02.81,0-.27-.02-.54-.02-.81Z"/>
          <path class="cls-3" d="m37.08,57.36c0,.3,0,.61,0,.91,0-.3,0-.61,0-.91Z"/>
          <path class="cls-3" d="m36.22,33.36c.03.32.05.64.08.96-.03-.32-.05-.64-.08-.96Z"/>
          <path class="cls-3" d="m36.4,35.65c.02.32.05.64.07.95-.02-.32-.05-.64-.07-.95Z"/>
          <path class="cls-3" d="m36.89,44.92c.01.29.02.59.03.88,0-.29-.02-.59-.03-.88Z"/>
          <path class="cls-3" d="m36.02,31.08c.03.32.06.65.09.98-.03-.33-.06-.65-.09-.98Z"/>
          <path class="cls-3" d="m36.8,42.58c.01.3.03.61.04.91-.01-.3-.03-.61-.04-.91Z"/>
          <path class="cls-3" d="m36.55,37.95c.02.31.04.62.06.94-.02-.31-.04-.62-.06-.94Z"/>
          <path class="cls-3" d="m36.69,40.27c.02.31.03.61.05.92-.02-.31-.03-.61-.05-.92Z"/>
          <path class="cls-3" d="m37.03,49.83c0,.19,0,.39.01.58,0-.19,0-.39-.01-.58Z"/>
          <path class="cls-3" d="m35.91,88.4c-.03.48-.06.96-.09,1.44.03-.48.06-.96.09-1.44Z"/>
          <path class="cls-3" d="m36.17,84.21c-.03.45-.05.9-.08,1.35.03-.45.05-.9.08-1.35Z"/>
          <path class="cls-3" d="m36.94,66.51c-.01.41-.02.81-.03,1.22.01-.41.02-.81.03-1.22Z"/>
          <path class="cls-3" d="m35.77,90.47c-.03.51-.07,1.02-.1,1.52.03-.5.07-1.01.1-1.52Z"/>
          <path class="cls-3" d="m35.35,96.42c-.04.61-.09,1.21-.13,1.81-13.74-11.64-24.8-20.77-35.22-28.08v64.34c3.64,5.39,5.18,12,5.34,19.09,4.93,6.63,12.82,10.92,21.71,10.93,3.2-16.16,5.97-36.89,7.96-63.4.12-1.53.23-3.1.35-4.7Z"/>
          <path class="cls-3" d="m35.63,92.46c-.04.54-.07,1.08-.11,1.61.04-.53.08-1.07.11-1.61Z"/>
          <path class="cls-3" d="m35.49,94.46c-.04.55-.08,1.09-.12,1.63.04-.54.08-1.09.12-1.63Z"/>
          <path class="cls-3" d="m36.04,86.32c-.03.47-.06.94-.09,1.41.03-.47.06-.94.09-1.41Z"/>
          <path class="cls-3" d="m36.8,71.04c-.01.41-.03.81-.05,1.22.02-.41.03-.81.05-1.22Z"/>
          <path class="cls-3" d="m36.88,68.78c-.01.41-.03.82-.04,1.22.01-.41.03-.82.04-1.22Z"/>
          <path class="cls-3" d="m36.72,73.28c-.02.42-.03.83-.05,1.24.02-.41.04-.83.05-1.24Z"/>
          <path class="cls-3" d="m36.41,79.89c-.02.44-.05.88-.07,1.32.02-.44.05-.88.07-1.32Z"/>
          <path class="cls-3" d="m36.62,75.5c-.02.42-.04.84-.06,1.26.02-.42.04-.84.06-1.26Z"/>
          <path class="cls-3" d="m36.29,82.07c-.02.44-.05.88-.08,1.31.03-.44.05-.87.08-1.31Z"/>
          <path class="cls-3" d="m36.52,77.71c-.02.43-.04.87-.07,1.3.02-.43.04-.86.07-1.3Z"/>
          <path class="cls-3" d="m33.91,15.65c.06.32.12.63.17.95-.06-.32-.12-.63-.17-.95Z"/>
          <path class="cls-3" d="m32.59,9.35c.07.31.15.62.22.93-.07-.31-.14-.62-.22-.93Z"/>
          <path class="cls-3" d="m33.5,13.52c.06.32.13.63.19.95-.06-.32-.13-.63-.19-.95Z"/>
          <path class="cls-3" d="m34.65,19.97c.05.31.1.63.15.95-.05-.32-.1-.63-.15-.95Z"/>
          <path class="cls-3" d="m34.98,22.16c.04.32.09.63.13.95-.04-.32-.09-.63-.13-.95Z"/>
          <path class="cls-3" d="m32.09,7.32c.08.3.15.61.23.91-.08-.3-.15-.61-.23-.91Z"/>
          <path class="cls-3" d="m34.3,17.8c.05.32.11.63.16.95-.05-.32-.11-.63-.16-.95Z"/>
          <path class="cls-3" d="m31.55,5.3c.08.3.16.6.24.9-.08-.3-.16-.6-.24-.9Z"/>
          <path class="cls-3" d="m30.38,1.37c.09.29.18.58.28.88-.09-.29-.18-.59-.28-.88Z"/>
          <path class="cls-3" d="m29.93,0h0c.04.11.07.21.11.32-.04-.11-.07-.22-.11-.32Z"/>
          <path class="cls-3" d="m30.99,3.32c.09.3.17.59.26.89-.09-.3-.17-.59-.26-.89Z"/>
          <path class="cls-3" d="m33.06,11.43c.07.31.14.62.2.93-.07-.31-.13-.62-.2-.93Z"/>
          <path class="cls-3" d="m35.55,26.59c.04.32.07.64.11.96-.04-.32-.07-.64-.11-.96Z"/>
          <path class="cls-3" d="m35.28,24.37c.04.32.08.63.12.95-.04-.32-.08-.64-.12-.95Z"/>
          <path class="cls-2" d="m35.22,98.23c.04-.6.09-1.2.13-1.81,0-.11.02-.22.02-.32.04-.54.08-1.09.12-1.63,0-.13.02-.26.03-.39.04-.53.08-1.07.11-1.61.01-.16.02-.31.03-.47.03-.5.07-1.01.1-1.52.01-.21.03-.42.04-.62.03-.48.06-.96.09-1.44.01-.22.03-.45.04-.67.03-.47.06-.94.09-1.41.02-.25.03-.5.05-.76.03-.45.05-.9.08-1.35.02-.27.03-.55.05-.83.03-.44.05-.87.08-1.31.02-.29.03-.58.05-.86.02-.44.05-.88.07-1.32.02-.29.03-.58.04-.88.02-.43.04-.86.07-1.3.02-.31.03-.63.04-.95.02-.42.04-.84.06-1.26.01-.33.03-.65.04-.98.02-.41.04-.83.05-1.24.01-.34.03-.68.04-1.02.02-.41.03-.81.05-1.22.01-.34.02-.69.04-1.04.01-.41.03-.82.04-1.22.01-.35.02-.7.03-1.05.01-.41.02-.81.03-1.22,0-.35.02-.7.03-1.05,0-.41.02-.82.03-1.23,0-.37.01-.73.02-1.1,0-.39.02-.78.02-1.17,0-.39.01-.79.02-1.18,0-.37.01-.75.01-1.12,0-.46,0-.92,0-1.37,0-.3,0-.61,0-.91,0-.54,0-1.08,0-1.61,0-.23,0-.47,0-.7,0-.77,0-1.54-.01-2.31,0-.08,0-.16,0-.24,0-.69-.02-1.38-.03-2.08,0-.19,0-.39-.01-.58-.01-.57-.02-1.15-.04-1.72,0-.27-.02-.54-.02-.81-.01-.5-.03-1-.04-1.5,0-.29-.02-.59-.03-.88-.02-.47-.03-.95-.05-1.42-.01-.3-.03-.61-.04-.91-.02-.47-.04-.93-.06-1.4-.02-.31-.03-.61-.05-.92-.02-.46-.05-.92-.08-1.38-.02-.31-.04-.62-.06-.94-.03-.45-.06-.9-.09-1.35-.02-.32-.05-.64-.07-.95-.03-.44-.06-.89-.1-1.33-.03-.32-.05-.64-.08-.96-.04-.44-.07-.87-.11-1.3-.03-.33-.06-.65-.09-.98-.04-.43-.08-.86-.12-1.28-.03-.32-.07-.65-.1-.97-.04-.43-.09-.85-.14-1.28-.04-.32-.07-.64-.11-.96-.05-.43-.1-.85-.15-1.27-.04-.32-.08-.64-.12-.95-.05-.42-.11-.84-.17-1.26-.04-.32-.09-.63-.13-.95-.06-.42-.12-.83-.18-1.25-.05-.32-.1-.63-.15-.95-.06-.41-.13-.82-.19-1.23-.05-.32-.11-.63-.16-.95-.07-.4-.14-.8-.21-1.2-.06-.32-.12-.63-.17-.95-.07-.39-.15-.79-.22-1.18-.06-.32-.13-.63-.19-.95-.08-.39-.16-.78-.24-1.16-.07-.31-.13-.62-.2-.93-.08-.38-.17-.77-.26-1.15-.07-.31-.14-.62-.22-.93-.09-.38-.18-.75-.27-1.13-.08-.3-.15-.61-.23-.91-.1-.37-.19-.74-.29-1.11-.08-.3-.16-.6-.24-.9-.1-.37-.2-.73-.31-1.09-.09-.3-.17-.59-.26-.89-.11-.36-.22-.72-.33-1.07-.09-.29-.18-.59-.28-.88-.11-.35-.23-.7-.34-1.05-.04-.11-.07-.21-.11-.32h-2.86C12.12,0,0,12.12,0,27.07v43.08c10.42,7.31,21.48,16.44,35.22,28.08Z"/>
        </g>
      </g>
    </g>
  </g>
</svg>