<?xml version="1.0" encoding="UTF-8"?>
<svg id="Layer_2" data-name="Layer 2" xmlns="http://www.w3.org/2000/svg" viewBox="0 0 164.52 164.52">
  <defs>
    <style>
      .cls-1 {
        fill: #fa9000;
      }

      .cls-1, .cls-2, .cls-3 {
        stroke-width: 0px;
      }

      .cls-2 {
        fill: #7c4b29;
      }

      .cls-3 {
        fill: #7c553a;
      }
    </style>
  </defs>
  <g id="Portraits">
    <g id="H">
      <g id="Tiles">
        <g id="H-12">
          <path class="cls-1" d="m137.45,0H27.07c-.12,0-.25,0-.37,0-4.4,21.53-9.59,34.69-14.76,42.51.28.78.57,1.56.85,2.37,17.16,49.09.98,70.26-12.78,79.12v13.43c0,14.95,12.12,27.07,27.07,27.07h110.38c14.95,0,27.07-12.12,27.07-27.07V27.07c0-14.95-12.12-27.07-27.07-27.07Z"/>
          <path class="cls-2" d="m12.78,44.89c-.28-.81-.57-1.59-.85-2.37-4.13,6.26-8.25,9.1-11.94,10.08v71.42c13.77-8.86,29.94-30.03,12.78-79.12Z"/>
          <path class="cls-3" d="m11.94,42.52C17.1,34.7,22.3,21.54,26.7,0,11.92.21,0,12.24,0,27.07v25.53c3.68-.98,7.8-3.82,11.94-10.08Z"/>
        </g>
      </g>
    </g>
  </g>
</svg>