<?xml version="1.0" encoding="UTF-8"?>
<svg id="Layer_2" data-name="Layer 2" xmlns="http://www.w3.org/2000/svg" viewBox="0 0 164.23 164.52">
  <defs>
    <style>
      .cls-1 {
        fill: #fa9000;
      }

      .cls-1, .cls-2, .cls-3 {
        stroke-width: 0px;
      }

      .cls-2 {
        fill: #472513;
      }

      .cls-3 {
        fill: #7c553a;
      }
    </style>
  </defs>
  <g id="Portraits">
    <g id="H">
      <g id="Tiles">
        <g id="H-5">
          <path class="cls-1" d="m137.16,0H26.78C13.17,0,1.91,10.05,0,23.13v118.25c1.91,13.08,13.17,23.13,26.78,23.13h110.38c10.16,0,19.01-5.6,23.64-13.88-1.39-9.5-2.72-20.33-3.96-32.68-1.23-12.27-2.13-23.72-2.71-34.39h0s0-.01,0-.02c-.26-4.86-.46-9.54-.6-14.08-.01-.44-.03-.88-.04-1.32-.03-1.22-.06-2.42-.09-3.62-.01-.5-.02-.99-.03-1.49-.02-1.18-.04-2.34-.05-3.49,0-.46,0-.91-.01-1.36,0-1.19-.02-2.37-.01-3.53,0-.22,0-.43,0-.65,0-3.93.07-7.72.19-11.37.01-.42.02-.84.04-1.26.03-.99.07-1.96.12-2.92.02-.49.04-.98.07-1.47.04-.93.09-1.85.14-2.76.03-.5.06-.99.09-1.48.06-.9.11-1.79.17-2.67.03-.43.06-.85.1-1.27.22-2.97.49-5.84.79-8.6.05-.49.11-.99.16-1.48.08-.72.17-1.42.26-2.13.07-.53.13-1.06.2-1.58.09-.67.18-1.33.28-1.99.08-.54.16-1.07.24-1.6.1-.63.19-1.25.29-1.86.07-.42.14-.83.21-1.24-4.93-5.12-11.84-8.31-19.51-8.31Z"/>
          <path class="cls-3" d="m153.95,32.74c.06-.9.11-1.79.17-2.67-.06.88-.12,1.78-.17,2.67Z"/>
          <path class="cls-3" d="m153.31,54.01c0-3.93.07-7.72.19-11.37-.11,3.66-.18,7.44-.19,11.37Z"/>
          <path class="cls-3" d="m153.32,58.19c0-1.19-.02-2.37-.01-3.53,0,1.16,0,2.35.01,3.53Z"/>
          <path class="cls-3" d="m153.72,36.98c.04-.93.09-1.85.14-2.76-.05.91-.1,1.83-.14,2.76Z"/>
          <path class="cls-3" d="m155.18,18.71c.08-.72.17-1.42.26-2.13-.09.7-.18,1.41-.26,2.13Z"/>
          <path class="cls-3" d="m154.22,28.79c.22-2.97.49-5.84.79-8.6-.3,2.76-.57,5.63-.79,8.6Z"/>
          <path class="cls-3" d="m153.54,41.37c.03-.99.07-1.96.12-2.92-.04.97-.08,1.94-.12,2.92Z"/>
          <path class="cls-3" d="m153.38,63.05c-.02-1.18-.04-2.34-.05-3.49.01,1.15.03,2.32.05,3.49Z"/>
          <path class="cls-3" d="m154.13,83.54c-.26-4.86-.46-9.54-.6-14.08.14,4.54.33,9.22.6,14.08Z"/>
          <path class="cls-3" d="m156.84,117.95c1.24,12.36,2.57,23.19,3.96,32.68,2.18-3.9,3.43-8.4,3.43-13.19v-59.16c-3.49,1.77-6.86,3.53-10.1,5.27.58,10.67,1.47,22.12,2.71,34.39Z"/>
          <path class="cls-3" d="m156.17,11.42c.1-.63.19-1.25.29-1.86-.1.61-.2,1.24-.29,1.86Z"/>
          <path class="cls-3" d="m153.49,68.15c-.03-1.22-.06-2.42-.09-3.62.02,1.2.05,2.4.09,3.62Z"/>
          <path class="cls-3" d="m155.65,15.01c.09-.67.18-1.33.28-1.99-.1.66-.19,1.32-.28,1.99Z"/>
          <path class="cls-2" d="m156.17,11.42c-.08.53-.16,1.06-.24,1.6-.1.66-.19,1.32-.28,1.99-.07.52-.14,1.05-.2,1.58-.09.7-.18,1.41-.26,2.13-.06.49-.11.99-.16,1.48-.3,2.76-.57,5.62-.79,8.6-.03.43-.07.84-.1,1.27-.06.88-.12,1.78-.17,2.67-.03.49-.06.98-.09,1.48-.05.91-.1,1.83-.14,2.76-.02.49-.05.98-.07,1.47-.04.97-.08,1.94-.12,2.92-.01.42-.03.84-.04,1.26-.11,3.66-.18,7.44-.19,11.37,0,.22,0,.43,0,.65,0,1.16,0,2.35.01,3.53,0,.45,0,.9.01,1.36.01,1.15.03,2.32.05,3.49,0,.49.02.99.03,1.49.02,1.2.05,2.4.09,3.62.01.44.03.88.04,1.32.14,4.54.33,9.22.6,14.08,0,0,0,.01,0,.02h0c3.24-1.75,6.61-3.51,10.1-5.27V27.07c0-7.28-2.88-13.89-7.56-18.76-.07.41-.14.82-.21,1.24-.1.61-.2,1.24-.29,1.86Z"/>
        </g>
      </g>
    </g>
  </g>
</svg>