<?xml version="1.0" encoding="UTF-8"?>
<svg id="Layer_2" data-name="Layer 2" xmlns="http://www.w3.org/2000/svg" viewBox="0 0 164.52 164.52">
  <defs>
    <style>
      .cls-1 {
        fill: #fa9000;
      }

      .cls-1, .cls-2, .cls-3, .cls-4 {
        stroke-width: 0px;
      }

      .cls-2 {
        fill: #472513;
      }

      .cls-3 {
        fill: #7c553a;
      }

      .cls-4 {
        fill: #8c5e3b;
      }
    </style>
  </defs>
  <g id="Portraits">
    <g id="H">
      <g id="Tiles">
        <g id="H-6">
          <path class="cls-1" d="m27.07,0C12.12,0,0,12.12,0,27.07v19.01C20.58,27.8,72.9,6.09,140.49.18c-1-.11-2.02-.18-3.05-.18H27.07Z"/>
          <path class="cls-4" d="m160.11,103.65c-.96.05-1.91.11-2.87.17-.11,0-.23.01-.34.02-.89.05-1.78.11-2.68.17-.18.01-.36.02-.54.04-.86.06-1.71.12-2.57.18-.2.01-.4.03-.6.04-.85.06-1.69.12-2.53.19-.2.02-.4.03-.6.05-.86.07-1.71.13-2.57.2-.16.01-.32.03-.48.04-.89.07-1.78.15-2.66.22-.1,0-.2.02-.3.03-5,.43-9.94.92-14.79,1.47,0,0-.01,0-.02,0-.86.1-1.71.2-2.56.29-.17.02-.33.04-.5.06-.78.09-1.56.19-2.34.28-.23.03-.47.06-.7.09-.74.09-1.48.18-2.22.28-.26.03-.53.07-.79.1-.72.09-1.44.19-2.15.28-.27.04-.54.07-.82.11-.71.1-1.42.19-2.12.29-.27.04-.54.08-.81.11-.71.1-1.41.2-2.11.3-.26.04-.51.07-.76.11-.72.1-1.43.21-2.14.32-.21.03-.42.06-.63.1-.76.12-1.51.23-2.26.35-.08.01-.17.03-.25.04-3.48.55-6.89,1.13-10.22,1.73-.14.03-.28.05-.42.08-.67.12-1.33.25-1.99.37-.25.05-.49.09-.74.14-.62.12-1.24.24-1.85.36-.28.05-.55.11-.83.16-.59.12-1.18.23-1.76.35-.3.06-.59.12-.89.18-.57.12-1.14.23-1.7.35-.29.06-.59.12-.88.19-.56.12-1.12.24-1.68.36-.29.06-.57.12-.86.19-.56.12-1.12.25-1.67.37-.27.06-.54.12-.8.18-.56.13-1.13.26-1.68.39-.24.06-.48.11-.72.17-.58.14-1.15.27-1.72.41-.18.04-.35.09-.53.13-2.78.68-5.47,1.38-8.05,2.1-.17.05-.35.1-.52.14-.51.14-1.02.29-1.53.44-.22.06-.45.13-.67.19-.48.14-.95.28-1.42.42-.24.07-.48.15-.72.22-.46.14-.91.28-1.36.42-.25.08-.49.15-.74.23-.44.14-.87.28-1.3.42-.25.08-.49.16-.74.24-.42.14-.84.28-1.26.42-.24.08-.47.16-.71.24-.42.14-.83.29-1.24.43-.22.08-.44.16-.67.24-.41.15-.82.3-1.22.44-.2.07-.4.15-.59.22-.42.16-.83.31-1.24.47-.15.06-.29.11-.43.17-2.03.8-3.95,1.61-5.73,2.43-.13.06-.26.12-.39.18-.35.16-.69.33-1.02.49-.16.08-.33.16-.49.24-.32.16-.62.31-.93.47-.17.09-.35.18-.52.27-.29.15-.58.31-.87.46-.17.09-.34.19-.51.28-.28.15-.55.31-.82.46-.16.09-.33.19-.49.28-.26.16-.52.31-.77.47-.15.09-.3.19-.45.28-.25.16-.5.32-.74.47-.14.09-.28.19-.41.28-.24.16-.48.32-.71.49-.12.09-.24.17-.36.26-.23.17-.47.34-.69.51-.09.07-.18.14-.27.21-.87.69-1.65,1.38-2.34,2.07,0,0,0,0,0,0-2.73,2.79-3.98,5.67-3.48,8.61.77,4.51,1.1,13.38,1.22,22.14h110.13c14.95,0,27.07-12.12,27.07-27.07v-34.03c-1.46.07-2.91.14-4.36.22-.02,0-.03,0-.05,0Z"/>
          <path class="cls-3" d="m63.9,117.92c.17-.05.34-.1.52-.14-.17.05-.35.09-.52.14Z"/>
          <path class="cls-3" d="m105.91,109.17c.21-.03.42-.06.63-.1-.21.03-.42.06-.63.1Z"/>
          <path class="cls-3" d="m61.7,118.55c.22-.07.45-.13.67-.19-.22.06-.45.13-.67.19Z"/>
          <path class="cls-3" d="m120.46,107.17c.23-.03.47-.06.7-.09-.23.03-.47.06-.7.09Z"/>
          <path class="cls-3" d="m59.55,119.19c.24-.07.48-.15.72-.22-.24.07-.48.15-.72.22Z"/>
          <path class="cls-3" d="m72.47,115.67c.18-.04.35-.09.53-.13-.18.04-.35.09-.53.13Z"/>
          <path class="cls-3" d="m74.71,115.13c.24-.06.48-.11.72-.17-.24.06-.48.11-.72.17Z"/>
          <path class="cls-3" d="m141.38,104.98c.1,0,.2-.02.3-.03-.1,0-.2.02-.3.03Z"/>
          <path class="cls-3" d="m53.46,121.16c.24-.08.47-.16.71-.24-.24.08-.47.16-.71.24Z"/>
          <path class="cls-3" d="m126.56,106.45s.01,0,.02,0c0,0-.01,0-.02,0Z"/>
          <path class="cls-3" d="m57.46,119.84c.24-.08.49-.15.74-.23-.25.08-.49.15-.74.23Z"/>
          <path class="cls-3" d="m55.42,120.5c.24-.08.49-.16.74-.24-.25.08-.49.16-.74.24Z"/>
          <path class="cls-3" d="m87.35,112.4c.27-.05.55-.11.83-.16-.28.05-.55.11-.83.16Z"/>
          <path class="cls-3" d="m90.03,111.88c.24-.05.49-.09.74-.14-.25.05-.49.09-.74.14Z"/>
          <path class="cls-3" d="m92.76,111.37c.14-.03.28-.05.42-.08-.14.03-.28.05-.42.08Z"/>
          <path class="cls-3" d="m111.55,108.35c.27-.04.54-.08.81-.11-.27.04-.54.08-.81.11Z"/>
          <path class="cls-3" d="m29.58,133.77c-9.99,4.07-19.37,8.33-28.07,12.61,3.69,10.56,13.73,18.14,25.56,18.14h.25c-.12-8.77-.44-17.63-1.22-22.14-.5-2.94.74-5.82,3.48-8.61Z"/>
          <path class="cls-3" d="m77.11,114.57c.27-.06.53-.12.8-.18-.27.06-.54.12-.8.18Z"/>
          <path class="cls-3" d="m103.4,109.56c.08-.01.17-.03.25-.04-.08.01-.17.03-.25.04Z"/>
          <path class="cls-3" d="m108.68,108.76c.25-.04.51-.07.76-.11-.26.04-.51.07-.76.11Z"/>
          <path class="cls-3" d="m79.59,114.02c.28-.06.57-.13.86-.19-.29.06-.57.12-.86.19Z"/>
          <path class="cls-3" d="m117.45,107.55c.26-.03.53-.07.79-.1-.26.03-.53.07-.79.1Z"/>
          <path class="cls-3" d="m114.48,107.94c.27-.04.54-.07.82-.11-.27.04-.54.07-.82.11Z"/>
          <path class="cls-3" d="m82.12,113.47c.29-.06.59-.12.88-.19-.29.06-.59.12-.88.19Z"/>
          <path class="cls-3" d="m84.71,112.93c.29-.06.59-.12.89-.18-.3.06-.59.12-.89.18Z"/>
          <path class="cls-3" d="m123.5,106.8c.17-.02.33-.04.5-.06-.17.02-.33.04-.5.06Z"/>
          <path class="cls-3" d="m40.43,126.48c.16-.08.33-.16.49-.24-.16.08-.33.16-.49.24Z"/>
          <path class="cls-3" d="m37.61,127.96c.17-.09.34-.19.51-.28-.17.09-.34.19-.51.28Z"/>
          <path class="cls-3" d="m32.87,130.97c.12-.09.24-.17.36-.26-.12.09-.24.17-.36.26Z"/>
          <path class="cls-3" d="m38.99,127.22c.17-.09.34-.18.52-.27-.17.09-.35.18-.52.27Z"/>
          <path class="cls-3" d="m150.51,104.26c.2-.01.4-.03.6-.04-.2.01-.4.03-.6.04Z"/>
          <path class="cls-3" d="m33.93,130.22c.14-.09.27-.19.41-.28-.14.09-.28.19-.41.28Z"/>
          <path class="cls-3" d="m156.9,103.84c.11,0,.23-.01.34-.02-.11,0-.23.01-.34.02Z"/>
          <path class="cls-3" d="m35.08,129.46c.15-.09.3-.19.45-.28-.15.09-.3.19-.45.28Z"/>
          <path class="cls-3" d="m36.31,128.71c.16-.09.32-.19.49-.28-.16.09-.33.19-.49.28Z"/>
          <path class="cls-3" d="m153.68,104.04c.18-.01.36-.02.54-.04-.18.01-.36.02-.54.04Z"/>
          <path class="cls-3" d="m160.11,103.65s.03,0,.05,0c-.02,0-.03,0-.05,0Z"/>
          <path class="cls-3" d="m147.38,104.49c.2-.02.4-.03.6-.05-.2.02-.4.03-.6.05Z"/>
          <path class="cls-3" d="m48.07,123.14c.15-.06.29-.11.43-.17-.15.06-.29.11-.43.17Z"/>
          <path class="cls-3" d="m49.74,122.5c.2-.07.39-.15.59-.22-.2.07-.4.15-.59.22Z"/>
          <path class="cls-3" d="m51.55,121.83c.22-.08.44-.16.67-.24-.22.08-.44.16-.67.24Z"/>
          <path class="cls-3" d="m144.33,104.73c.16-.01.32-.03.48-.04-.16.01-.32.03-.48.04Z"/>
          <path class="cls-3" d="m31.92,131.69c.09-.07.18-.14.27-.21-.09.07-.18.14-.27.21Z"/>
          <path class="cls-3" d="m41.95,125.75c.13-.06.26-.12.39-.18-.13.06-.26.12-.39.18Z"/>
          <path class="cls-2" d="m0,137.45c0,3.13.54,6.13,1.51,8.93,8.7-4.27,18.08-8.53,28.07-12.61,0,0,0,0,0,0,.68-.7,1.47-1.39,2.34-2.07.09-.07.18-.14.27-.21.22-.17.45-.34.69-.51.12-.09.24-.17.36-.26.23-.16.47-.33.71-.49.14-.09.27-.19.41-.28.24-.16.49-.32.74-.47.15-.09.3-.19.45-.28.25-.16.51-.31.77-.47.16-.09.32-.19.49-.28.27-.15.54-.31.82-.46.17-.09.34-.19.51-.28.29-.16.57-.31.87-.46.17-.09.34-.18.52-.27.31-.16.61-.31.93-.47.16-.08.33-.16.49-.24.34-.16.68-.33,1.02-.49.13-.06.26-.12.39-.18,1.78-.83,3.7-1.64,5.73-2.43.15-.06.29-.11.43-.17.41-.16.82-.31,1.24-.47.2-.07.39-.15.59-.22.4-.15.81-.3,1.22-.44.22-.08.44-.16.67-.24.41-.14.82-.29,1.24-.43.24-.08.47-.16.71-.24.42-.14.84-.28,1.26-.42.24-.08.49-.16.74-.24.43-.14.86-.28,1.3-.42.24-.08.49-.15.74-.23.45-.14.9-.28,1.36-.42.24-.07.48-.15.72-.22.47-.14.94-.28,1.42-.42.22-.07.45-.13.67-.19.51-.15,1.01-.29,1.53-.44.17-.05.34-.1.52-.14,2.58-.72,5.27-1.42,8.05-2.1.18-.04.35-.09.53-.13.57-.14,1.14-.27,1.72-.41.24-.06.48-.11.72-.17.56-.13,1.12-.26,1.68-.39.27-.06.53-.12.8-.18.55-.12,1.11-.25,1.67-.37.28-.06.57-.13.86-.19.56-.12,1.12-.24,1.68-.36.29-.06.59-.12.88-.19.57-.12,1.13-.24,1.7-.35.29-.06.59-.12.89-.18.58-.12,1.17-.24,1.76-.35.27-.05.55-.11.83-.16.61-.12,1.23-.24,1.85-.36.24-.05.49-.09.74-.14.66-.12,1.32-.25,1.99-.37.14-.03.28-.05.42-.08,3.33-.61,6.74-1.18,10.22-1.73.08-.01.17-.03.25-.04.75-.12,1.5-.23,2.26-.35.21-.03.42-.06.63-.1.71-.11,1.42-.21,2.14-.32.25-.04.51-.07.76-.11.7-.1,1.41-.2,2.11-.3.27-.04.54-.08.81-.11.7-.1,1.41-.19,2.12-.29.27-.04.54-.07.82-.11.72-.1,1.43-.19,2.15-.28.26-.03.53-.07.79-.1.74-.09,1.47-.19,2.22-.28.23-.03.47-.06.7-.09.78-.1,1.56-.19,2.34-.28.17-.02.33-.04.5-.06.85-.1,1.71-.2,2.56-.29,0,0,.01,0,.02,0,4.86-.55,9.79-1.04,14.79-1.47.1,0,.2-.02.3-.03.88-.08,1.77-.15,2.66-.22.16-.01.32-.03.48-.04.85-.07,1.71-.14,2.57-.2.2-.02.4-.03.6-.05.84-.06,1.69-.13,2.53-.19.2-.01.4-.03.6-.04.85-.06,1.71-.12,2.57-.18.18-.01.36-.02.54-.04.89-.06,1.78-.11,2.68-.17.11,0,.23-.01.34-.02.95-.06,1.91-.11,2.87-.17.02,0,.03,0,.05,0,1.45-.08,2.9-.15,4.36-.22V27.07c0-13.92-10.51-25.38-24.02-26.9C72.9,6.09,20.58,27.8,0,46.08v91.37Z"/>
        </g>
      </g>
    </g>
  </g>
</svg>