<?xml version="1.0" encoding="UTF-8"?>
<svg id="Layer_2" data-name="Layer 2" xmlns="http://www.w3.org/2000/svg" viewBox="0 0 164.52 164.52">
  <defs>
    <style>
      .cls-1 {
        fill: #fa9000;
      }

      .cls-1, .cls-2, .cls-3, .cls-4, .cls-5, .cls-6, .cls-7 {
        stroke-width: 0px;
      }

      .cls-2 {
        fill: #472513;
      }

      .cls-3 {
        fill: #7a4226;
      }

      .cls-4 {
        fill: #7c4b29;
      }

      .cls-5 {
        fill: #7c553a;
      }

      .cls-6 {
        fill: #1a1a1a;
      }

      .cls-7 {
        fill: #8c5e3b;
      }
    </style>
  </defs>
  <g id="Portraits">
    <g id="H">
      <g id="Tiles">
        <g id="H-10">
          <path class="cls-1" d="m3.49,102.39c-1.16-3.19-2.33-6.92-3.49-11.28v19.58c1.17-2.99,2.33-5.76,3.49-8.3Z"/>
          <path class="cls-4" d="m3.49,102.39c-1.16,2.54-2.32,5.31-3.49,8.3v26.76c0,12.57,8.57,23.13,20.18,26.18-4.13-16.02-7.91-32.77-11.42-50.12-1.71-2.62-3.49-6.23-5.27-11.13Z"/>
          <path class="cls-7" d="m154.87,152.27c-1.55,2.59-3.5,5.85-5.32,9.39,8.87-4.44,14.97-13.61,14.97-24.21v-8.69c-2.34,7.71-4.86,14.96-7.08,19.09-.65,1.21-1.54,2.7-2.57,4.41Z"/>
          <path class="cls-7" d="m27.25,22.35c-40.28,9.3-3.1,92.96-3.1,92.96,0,0-6.98,11.05-15.39-1.8,3.51,17.35,7.29,34.1,11.42,50.12,2.2.58,4.51.89,6.89.89h110.38c2.2,0,4.33-.27,6.38-.76,2.3-5.07,5.15-9.85,7.42-13.65,1-1.67,1.86-3.12,2.47-4.25,3.41-6.34,7.69-20.97,10.8-32.59V27.07c0-14.95-12.12-27.07-27.07-27.07H27.34c.12,11.51-.09,22.35-.09,22.35Zm104.96,47.59c-.08-.09-7.03-7.56-23.14-9.66,4.45,2.63,7.44,7.47,7.44,13.01,0,8.35-6.77,15.12-15.12,15.12s-15.12-6.77-15.12-15.12c0-5.75,3.21-10.74,7.93-13.3-19.23,1.52-24.47,9.42-24.52,9.5l-3.6-2.19c.28-.46,7.03-11.22,32.7-11.76,25.47-.54,36.14,11.09,36.59,11.59l-3.14,2.81Zm-93.23-30.37c.59-.8,14.91-19.61,49.2-21.32,34.71-1.72,49.71,20.57,50.33,21.52,1.27,1.95.73,4.56-1.22,5.83-.71.47-1.51.69-2.3.69-1.37,0-2.71-.67-3.52-1.9-.55-.82-13.18-19.22-42.86-17.73-30.36,1.52-42.73,17.75-42.85,17.92-1.39,1.87-4.03,2.26-5.9.88-1.87-1.39-2.26-4.03-.88-5.9Z"/>
          <path class="cls-5" d="m8.76,113.51c8.41,12.84,15.39,1.8,15.39,1.8,0,0-37.18-83.67,3.1-92.96,0,0,.21-10.84.09-22.35h-.27C12.12,0,0,12.12,0,27.07v64.04c1.16,4.36,2.33,8.09,3.49,11.28,1.78,4.9,3.56,8.51,5.27,11.13Z"/>
          <path class="cls-2" d="m39.85,45.46c1.87,1.39,4.51,1,5.9-.88.12-.16,12.49-16.4,42.85-17.92,29.68-1.49,42.32,16.91,42.86,17.73.81,1.23,2.15,1.9,3.52,1.9.79,0,1.59-.22,2.3-.69,1.95-1.27,2.5-3.89,1.22-5.83-.62-.95-15.62-23.24-50.33-21.52-34.29,1.71-48.61,20.52-49.2,21.32-1.39,1.87-.99,4.51.88,5.9Z"/>
          <path class="cls-6" d="m98.84,59.75c-1.64.03-3.19.12-4.67.23-4.72,2.56-7.93,7.56-7.93,13.3,0,8.35,6.77,15.12,15.12,15.12s15.12-6.77,15.12-15.12c0-5.54-2.99-10.38-7.44-13.01-3.07-.4-6.47-.61-10.22-.53Z"/>
          <path class="cls-6" d="m98.76,55.53c-25.68.54-32.43,11.3-32.7,11.76l3.6,2.19c.05-.09,5.3-7.99,24.52-9.5,1.47-.12,3.02-.2,4.67-.23,3.75-.08,7.15.13,10.22.53,16.11,2.1,23.06,9.57,23.14,9.66l3.14-2.81c-.44-.5-11.12-12.13-36.59-11.59Z"/>
          <path class="cls-3" d="m151.25,150.1c-2.27,3.8-5.13,8.58-7.42,13.65,2.01-.48,3.92-1.19,5.73-2.1,1.82-3.54,3.77-6.8,5.32-9.39,1.03-1.72,1.91-3.2,2.57-4.41,2.23-4.14,4.74-11.38,7.08-19.09v-15.5c-3.1,11.62-7.38,26.25-10.8,32.59-.61,1.13-1.47,2.58-2.47,4.25Z"/>
        </g>
      </g>
    </g>
  </g>
</svg>