<?xml version="1.0" encoding="UTF-8"?>
<svg id="Layer_2" data-name="Layer 2" xmlns="http://www.w3.org/2000/svg" viewBox="0 0 164.52 164.52">
  <defs>
    <style>
      .cls-1 {
        fill: #fa9000;
      }

      .cls-1, .cls-2, .cls-3, .cls-4, .cls-5 {
        stroke-width: 0px;
      }

      .cls-2 {
        fill: #7a4226;
      }

      .cls-3 {
        fill: #7c4b29;
      }

      .cls-4 {
        fill: #8948b7;
      }

      .cls-5 {
        fill: #8c5e3b;
      }
    </style>
  </defs>
  <g id="Portraits">
    <g id="H">
      <g id="Tiles">
        <g id="H-14">
          <path class="cls-1" d="m89.56,143.24c-24.81-25-43.34-61.75-57.95-106.4h-6.91S10.68,34.56.44,22.23c-.28,1.57-.44,3.18-.44,4.84v110.38c0,14.95,12.12,27.07,27.07,27.07h57.13c.9-.33,1.73-.63,2.51-.91l2.85-20.37Z"/>
          <path class="cls-4" d="m86.71,163.6c-.78.28-1.62.58-2.51.91h2.38l.13-.91Z"/>
          <path class="cls-3" d="m89.56,143.24l-2.85,20.37-.13.91h30.58c-9.99-5.63-19.16-12.78-27.6-21.28Z"/>
          <path class="cls-3" d="m24.7,36.84h6.91c-3.78-11.55-7.29-23.62-10.58-36.15C10.54,3.08,2.36,11.57.44,22.23c10.24,12.33,24.26,14.61,24.26,14.61Z"/>
          <path class="cls-5" d="m145.62,19.76c2.75,4.55,9.09,7.16,18.9,7.82v-.51c0-11.71-7.43-21.67-17.83-25.45-2.65,6.58-3.98,13.34-1.07,18.14Z"/>
          <path class="cls-5" d="m89.56,143.24c8.44,8.51,17.61,15.65,27.6,21.28h20.29c14.95,0,27.07-12.12,27.07-27.07v-56.57c-32.68-1.68-49.42-13.28-50.18-13.82-.95-.67-1.17-1.99-.5-2.94.67-.95,1.99-1.17,2.94-.5.1.07,4.95,3.43,14.28,6.72,7.25,2.56,18.57,5.47,33.46,6.3V31.81c-11.54-.72-18.95-3.98-22.51-9.87-3.73-6.16-2.39-13.99.56-21.46-1.66-.32-3.37-.49-5.12-.49H27.07c-2.08,0-4.09.24-6.04.68,3.29,12.54,6.81,24.61,10.58,36.15,14.6,44.65,33.14,81.4,57.95,106.4Z"/>
          <path class="cls-2" d="m116.78,63.63c-.95-.67-2.26-.45-2.94.5-.67.95-.45,2.26.5,2.94.76.54,17.5,12.13,50.18,13.82v-4.24c-14.89-.82-26.21-3.74-33.46-6.3-9.33-3.29-14.17-6.65-14.28-6.72Z"/>
          <path class="cls-2" d="m142.01,21.95c3.56,5.88,10.97,9.14,22.51,9.87v-4.23c-9.81-.66-16.15-3.27-18.9-7.82-2.91-4.8-1.58-11.57,1.07-18.14-1.33-.48-2.7-.86-4.12-1.13-2.95,7.47-4.29,15.3-.56,21.46Z"/>
        </g>
      </g>
    </g>
  </g>
</svg>