<?xml version="1.0" encoding="UTF-8"?>
<svg id="Layer_2" data-name="Layer 2" xmlns="http://www.w3.org/2000/svg" viewBox="0 0 164.52 164.52">
  <defs>
    <style>
      .cls-1 {
        fill: #fa9000;
      }

      .cls-1, .cls-2, .cls-3, .cls-4 {
        stroke-width: 0px;
      }

      .cls-2 {
        fill: #7c4b29;
      }

      .cls-3 {
        fill: #8948b7;
      }

      .cls-4 {
        fill: #8c5e3b;
      }
    </style>
  </defs>
  <g id="Portraits">
    <g id="H">
      <g id="Tiles">
        <g id="H-17">
          <path class="cls-1" d="m79.6,0H27.07C12.12,0,0,12.12,0,27.07v8.89c6.8-2.14,12.64-4.47,17.2-7.1C39.84,15.84,64.66,5.65,79.6,0Z"/>
          <path class="cls-3" d="m27.07,164.52h110.38c14.95,0,27.07-12.12,27.07-27.07v-25.4h-31.76c-31.59,0-55.6-52.9-50.34-84.05l3.92-27.99h-6.74c-14.94,5.65-39.76,15.84-62.39,28.86-4.57,2.63-10.41,4.95-17.2,7.1v101.49c0,14.95,12.12,27.07,27.07,27.07Z"/>
          <path class="cls-2" d="m132.76,112.05h31.76V27.07c0-5.49-1.64-10.59-4.44-14.86-14.52-1.76-27.73-5.91-39.77-12.21h-33.96l-3.92,27.99c-5.26,31.15,18.75,84.05,50.34,84.05Z"/>
          <path class="cls-4" d="m137.45,0h-17.14c12.04,6.3,25.25,10.46,39.77,12.21-4.84-7.36-13.16-12.21-22.63-12.21Z"/>
        </g>
      </g>
    </g>
  </g>
</svg>