<?xml version="1.0" encoding="UTF-8"?>
<svg id="Layer_2" data-name="Layer 2" xmlns="http://www.w3.org/2000/svg" viewBox="0 0 164.52 164.52">
  <defs>
    <style>
      .cls-1 {
        fill: #d2905d;
      }

      .cls-1, .cls-2, .cls-3 {
        stroke-width: 0px;
      }

      .cls-2 {
        fill: #919fac;
      }

      .cls-3 {
        fill: #fe7879;
      }
    </style>
  </defs>
  <g id="Portraits">
    <g id="Tiles">
      <g id="I-7">
        <path class="cls-3" d="m137.45,0H27.07C15.89,0,6.29,6.78,2.16,16.45c.17,0,.33,0,.5,0,.9-.01,1.79-.03,2.7-.03,53.27,0,98.28,23.26,131.48,58.89-1.02-2.99-1.01-4.76.71-4.58,8.44.88,17.82,9.18,26.97,21.63V27.07c0-14.95-12.12-27.07-27.07-27.07Z"/>
        <path class="cls-1" d="m2.66,16.46c-.17,0-.33,0-.5,0-1.39,3.26-2.16,6.85-2.16,10.62v110.38c0,3.78.78,7.38,2.18,10.65V16.46c.16,0,.32,0,.49,0Z"/>
        <path class="cls-1" d="m151.39,121.85c13.86,2.6-10.11-33.5-14.55-46.53C103.64,39.68,58.63,16.43,5.36,16.43c-.9,0-1.8.02-2.7.03-.16,0-.32,0-.49,0v131.63c4.14,9.66,13.72,16.42,24.89,16.42h110.38c4.86,0,9.43-1.29,13.37-3.54-2.08-3.07-4.35-5.85-6.88-8.25-42.59-40.46,7.45-30.88,7.45-30.88Z"/>
        <path class="cls-2" d="m137.55,70.73c-1.72-.18-1.73,1.6-.71,4.58,4.45,13.03,28.41,49.13,14.55,46.53,0,0-50.05-9.58-7.45,30.88,2.53,2.4,4.81,5.19,6.88,8.25,8.18-4.66,13.7-13.45,13.7-23.53v-45.08c-9.15-12.45-18.53-20.75-26.97-21.63Z"/>
      </g>
    </g>
  </g>
</svg>