<?xml version="1.0" encoding="UTF-8"?>
<svg id="Layer_2" data-name="Layer 2" xmlns="http://www.w3.org/2000/svg" viewBox="0 0 164.52 164.52">
  <defs>
    <style>
      .cls-1 {
        fill: #1a1a1a;
      }

      .cls-1, .cls-2, .cls-3 {
        stroke-width: 0px;
      }

      .cls-2 {
        fill: #d2905d;
      }

      .cls-3 {
        fill: #919fac;
      }
    </style>
  </defs>
  <g id="Portraits">
    <g id="Tiles">
      <g id="I-11">
        <path class="cls-2" d="m0,137.45c0,3.78.78,7.38,2.18,10.65V16.42c-1.4,3.27-2.18,6.87-2.18,10.65v110.38Z"/>
        <path class="cls-2" d="m27.07,164.52h110.38c14.95,0,27.07-12.12,27.07-27.07V30.63c-1.49-7.18-3.39-14-5.77-20.26-4.96-6.31-12.65-10.37-21.3-10.37H27.07C15.9,0,6.31,6.77,2.18,16.42v131.67c4.14,9.66,13.72,16.42,24.89,16.42Zm97.12-98.27c-.68.95-1.99,1.17-2.94.49-4.68-3.34-11.94-7.42-21.32-9.34,2.75,2.94,4.25,7.02,3.75,11.33-.9,7.79-7.94,13.37-15.73,12.47-7.79-.9-13.37-7.94-12.47-15.73.38-3.25,1.83-6.11,3.96-8.28-11.05,2.01-19.28,6.95-23.03,9.56-.37.26-.79.38-1.2.38-.67,0-1.32-.32-1.73-.9-.67-.96-.43-2.27.52-2.93,7.12-4.97,21.97-12.99,41.38-10.88,12.74,1.38,22.44,6.69,28.33,10.89.95.68,1.17,1.99.49,2.94Zm-89.52-25.36C65.1,11.27,103.51,5.67,148.82,24.24c2.15.88,3.19,3.34,2.3,5.5-.88,2.15-3.34,3.19-5.5,2.3-42.5-17.42-76.87-12.55-105.08,14.89-.82.8-1.88,1.19-2.94,1.19s-2.2-.43-3.02-1.28c-1.62-1.67-1.59-4.34.08-5.96Z"/>
        <path class="cls-3" d="m164.52,27.07c0-6.3-2.16-12.1-5.77-16.7,2.39,6.25,4.28,13.08,5.77,20.26v-3.56Z"/>
        <path class="cls-1" d="m123.7,63.3c-5.89-4.21-15.59-9.51-28.33-10.89-19.41-2.11-34.26,5.91-41.38,10.88-.96.67-1.19,1.98-.52,2.93.41.59,1.06.9,1.73.9.42,0,.84-.12,1.2-.38,3.75-2.61,11.99-7.55,23.03-9.56,2.96-3.03,7.24-4.71,11.77-4.19,3.47.4,6.5,2.03,8.72,4.4,9.38,1.92,16.65,6,21.32,9.34.95.68,2.26.46,2.94-.49s.46-2.26-.49-2.94Z"/>
        <path class="cls-1" d="m91.2,53c-4.54-.53-8.81,1.16-11.77,4.19-2.12,2.17-3.58,5.03-3.96,8.28-.9,7.79,4.68,14.83,12.47,15.73,7.79.9,14.83-4.68,15.73-12.47.5-4.31-1-8.39-3.75-11.33-2.22-2.37-5.24-4-8.72-4.4Z"/>
        <path class="cls-3" d="m37.6,48.12c1.06,0,2.12-.4,2.94-1.19,28.21-27.44,62.58-32.31,105.08-14.89,2.16.88,4.62-.15,5.5-2.3.88-2.15-.15-4.62-2.3-5.5C103.51,5.67,65.1,11.27,34.66,40.88c-1.67,1.62-1.71,4.29-.08,5.96.83.85,1.92,1.28,3.02,1.28Z"/>
      </g>
    </g>
  </g>
</svg>