<?xml version="1.0" encoding="UTF-8"?>
<svg id="Layer_2" data-name="Layer 2" xmlns="http://www.w3.org/2000/svg" viewBox="0 0 164.52 164.52">
  <defs>
    <style>
      .cls-1 {
        fill: #d2905d;
      }

      .cls-1, .cls-2, .cls-3 {
        stroke-width: 0px;
      }

      .cls-2 {
        fill: #bb7a4c;
      }

      .cls-3 {
        fill: #fe7879;
      }
    </style>
  </defs>
  <g id="Portraits">
    <g id="Tiles">
      <g id="I-15">
        <path class="cls-3" d="m117.19,133.87c.55,11.1,1.89,21.67,4.42,30.65h15.84c14.95,0,27.07-12.12,27.07-27.07v-30.22c-9.39,10.87-24.06,19.63-47.33,26.64Z"/>
        <path class="cls-1" d="m2.18,17.66v-1.24c-.17.4-.33.8-.48,1.2.16.01.32.02.48.04Z"/>
        <path class="cls-1" d="m.55,78.72c-.18,0-.37,0-.55,0v58.74c0,3.78.78,7.38,2.18,10.65v-69.39c-.54,0-1.08.02-1.62.02Z"/>
        <path class="cls-1" d="m2.18,74.47V21.05c-.49-.04-.98-.07-1.47-.11-.46,1.97-.71,4.02-.71,6.13v47.41c.73,0,1.45,0,2.18-.01Z"/>
        <path class="cls-2" d="m5.36,151.07c-.56.04-1.12.03-1.67.01,4.7,8.03,13.41,13.44,23.38,13.44h94.54c-2.53-8.97-3.88-19.55-4.42-30.65-25.49,7.68-61.31,13.26-111.83,17.2Z"/>
        <path class="cls-1" d="m6.39,17.95c.93.06,1.64.86,1.58,1.79-.05.89-.8,1.58-1.68,1.58-.04,0-.07,0-.1,0-1.36-.08-2.7-.17-4.01-.27v53.42c18.13-.16,36.45-2.96,55.24-10.24,1.09-.42,2.31.12,2.73,1.2.42,1.08-.12,2.31-1.2,2.73-19.37,7.51-38.19,10.39-56.77,10.54v69.39c.44,1.03.95,2.03,1.51,2.99.55.02,1.11.03,1.67-.01,50.52-3.94,86.33-9.52,111.83-17.2,23.27-7.01,37.94-15.77,47.33-26.64V27.07c0-14.95-12.12-27.07-27.07-27.07H27.07C15.9,0,6.31,6.77,2.18,16.42v1.24c1.36.1,2.76.2,4.21.29Zm36.01-8.17c.51-.78,1.56-.99,2.34-.48,25.88,17.11,26.97,18.86,37.36,35.65,1.58,2.55,3.38,5.46,5.52,8.83.5.79.27,1.83-.52,2.33-.28.18-.59.26-.9.26-.56,0-1.1-.28-1.42-.78-2.15-3.38-3.96-6.3-5.54-8.87-10.25-16.56-11.08-17.91-36.35-34.61-.78-.51-.99-1.56-.48-2.34Z"/>
        <path class="cls-2" d="m6.19,21.32s.07,0,.1,0c.88,0,1.63-.69,1.68-1.58.06-.93-.65-1.73-1.58-1.79-1.45-.09-2.85-.19-4.21-.29-.16-.01-.32-.02-.48-.04-.4,1.07-.73,2.18-.99,3.31.49.04.98.08,1.47.11,1.31.1,2.65.19,4.01.27Z"/>
        <path class="cls-2" d="m2.18,78.7c18.57-.16,37.39-3.03,56.77-10.54,1.09-.42,1.62-1.64,1.2-2.73-.42-1.08-1.64-1.63-2.73-1.2-18.79,7.29-37.11,10.08-55.24,10.24-.73,0-1.45.01-2.18.01v4.23c.18,0,.37,0,.55,0,.54,0,1.08-.01,1.62-.02Z"/>
        <path class="cls-2" d="m42.88,12.12c25.26,16.7,26.1,18.05,36.35,34.61,1.59,2.56,3.39,5.48,5.54,8.87.32.51.87.78,1.42.78.31,0,.62-.08.9-.26.79-.5,1.02-1.54.52-2.33-2.14-3.37-3.94-6.28-5.52-8.83-10.39-16.78-11.47-18.54-37.36-35.65-.78-.52-1.82-.3-2.34.48-.51.78-.3,1.82.48,2.34Z"/>
      </g>
    </g>
  </g>
</svg>