<?xml version="1.0" encoding="UTF-8"?>
<svg id="Layer_2" data-name="Layer 2" xmlns="http://www.w3.org/2000/svg" viewBox="0 0 164.52 164.52">
  <defs>
    <style>
      .cls-1 {
        fill: #42be8f;
      }

      .cls-1, .cls-2, .cls-3 {
        stroke-width: 0px;
      }

      .cls-2 {
        fill: #bb7a4c;
      }

      .cls-3 {
        fill: #fe7879;
      }
    </style>
  </defs>
  <g id="Portraits">
    <g id="Tiles">
      <g id="I-18">
        <path class="cls-3" d="m2.89,58.89l-.16-43.68s-.03.06-.05.09l-.16,43.52c.12.02.25.05.37.07Z"/>
        <path class="cls-3" d="m137.45,0h-15.34c1.3,4.24,2.88,8.09,4.79,11.43.3.52.59,1.01.89,1.5.2-.76.27-1.18.27-1.18,0,0,13.62,1.11,33.54,3.1-4.47-8.8-13.6-14.84-24.15-14.84Z"/>
        <path class="cls-2" d="m2.68,15.3c-1.72,3.56-2.68,7.55-2.68,11.77v31.32c.89.13,1.73.27,2.52.43l.16-43.52Z"/>
        <path class="cls-1" d="m2.89,59.31v-.41c-.12-.02-.25-.05-.37-.07-.8-.16-1.64-.3-2.52-.43v1.85c.87-.36,1.84-.67,2.89-.94Z"/>
        <path class="cls-1" d="m0,137.45c0,2.8.43,5.51,1.22,8.05-.23-6.68-.54-13.37-1.22-20.02v11.97Z"/>
        <path class="cls-2" d="m2.89,59.31c7.44-1.94,19.57-2.07,38.51-2.76,71.88-2.61,84.56-36.81,86.38-43.62-.29-.48-.59-.98-.89-1.5-1.91-3.34-3.49-7.19-4.79-11.43H27.07C16.37,0,7.13,6.21,2.73,15.21l.16,43.68v.41Z"/>
        <path class="cls-1" d="m127.78,12.92c-1.82,6.81-14.5,41.02-86.38,43.62-18.93.69-31.07.82-38.51,2.76-1.06.28-2.02.59-2.89.94v65.23c.68,6.65.99,13.33,1.22,20.02,3.43,11.02,13.71,19.02,25.85,19.02h110.38c14.95,0,27.07-12.12,27.07-27.07V27.07c0-4.4-1.06-8.56-2.92-12.23-19.92-1.98-33.54-3.1-33.54-3.1,0,0-.07.42-.27,1.18Z"/>
      </g>
    </g>
  </g>
</svg>