<?xml version="1.0" encoding="UTF-8"?>
<svg id="Layer_2" data-name="Layer 2" xmlns="http://www.w3.org/2000/svg" viewBox="0 0 164.52 164.52">
  <defs>
    <style>
      .cls-1 {
        fill: #bb7a4c;
      }

      .cls-1, .cls-2, .cls-3 {
        stroke-width: 0px;
      }

      .cls-2 {
        fill: #919fac;
      }

      .cls-3 {
        fill: #fe7879;
      }
    </style>
  </defs>
  <g id="Portraits">
    <g id="Tiles">
      <g id="I-8">
        <path class="cls-3" d="m137.45,0H27.07C12.64,0,.85,11.29.05,25.51c22.53,34.05,42.54,90.72,42.2,120.21-.04,3.66-.16,7.17-.33,10.56,4.22.98,8.34,3.43,11.79,8.23h83.73c14.95,0,27.07-12.12,27.07-27.07V27.07c0-14.95-12.12-27.07-27.07-27.07Z"/>
        <path class="cls-1" d="m41.92,156.28c-.14,2.84-.33,5.58-.55,8.23h12.34c-3.46-4.8-7.57-7.25-11.79-8.23Z"/>
        <path class="cls-2" d="m42.25,145.72C42.58,116.24,22.57,59.56.05,25.51c-.03.52-.05,1.03-.05,1.56v110.38c0,14.95,12.12,27.07,27.07,27.07h14.3c.22-2.65.41-5.4.55-8.23.17-3.39.29-6.9.33-10.56Z"/>
      </g>
    </g>
  </g>
</svg>