<?xml version="1.0" encoding="UTF-8"?>
<svg id="Layer_2" data-name="Layer 2" xmlns="http://www.w3.org/2000/svg" viewBox="0 0 164.52 164.52">
  <defs>
    <style>
      .cls-1 {
        fill: #d2905d;
      }

      .cls-1, .cls-2, .cls-3, .cls-4 {
        stroke-width: 0px;
      }

      .cls-2 {
        fill: #bb7a4c;
      }

      .cls-3 {
        fill: #919fac;
      }

      .cls-4 {
        fill: #fe7879;
      }
    </style>
  </defs>
  <g id="Portraits">
    <g id="Tiles">
      <g id="I-12">
        <path class="cls-4" d="m137.45,0H54.86c5.16,8.36,8.55,22.73,7.99,46.51-1.31,56.05-29.18,67.51-48.04,68.81-1.07,16.64-1.49,31.35-3.2,44.35,4.38,3.05,9.7,4.85,15.45,4.85h110.38c14.95,0,27.07-12.12,27.07-27.07V27.07c0-14.95-12.12-27.07-27.07-27.07Z"/>
        <path class="cls-2" d="m25.21,44.85c-.31,1.41-.62,2.82-.96,4.22-6.06,24.9-8.19,46.88-9.43,66.25,18.86-1.3,46.73-12.76,48.04-68.81.56-23.78-2.83-38.15-7.99-46.51h-13.63c-1.27,13.69-3.61,24.93-6.58,34.16-1.75,5.43-5.28,8.92-9.43,10.68Z"/>
        <path class="cls-1" d="m24.25,49.07c.34-1.4.65-2.81.96-4.22C14.6,49.36-.09,42.62.39,28.07c.07-2.12.12-4.28.16-6.46-.36,1.77-.55,3.59-.55,5.46v110.38c0,9.21,4.6,17.33,11.62,22.22,1.7-13,2.12-27.72,3.2-44.35,1.25-19.37,3.37-41.35,9.43-66.25Z"/>
        <path class="cls-3" d="m.39,28.07c-.47,14.55,14.22,21.29,24.83,16.78,4.15-1.77,7.68-5.26,9.43-10.68,2.97-9.23,5.31-20.47,6.58-34.16h-14.16C13.99,0,3.08,9.27.55,21.61c-.04,2.19-.09,4.35-.16,6.46Z"/>
      </g>
    </g>
  </g>
</svg>