<?xml version="1.0" encoding="UTF-8"?>
<svg id="Layer_2" data-name="Layer 2" xmlns="http://www.w3.org/2000/svg" viewBox="0 0 164.52 164.52">
  <defs>
    <style>
      .cls-1 {
        fill: #42be8f;
      }

      .cls-1, .cls-2, .cls-3 {
        stroke-width: 0px;
      }

      .cls-2 {
        fill: #d2905d;
      }

      .cls-3 {
        fill: #fe7879;
      }
    </style>
  </defs>
  <g id="Portraits">
    <g id="Tiles">
      <g id="I-16">
        <path class="cls-3" d="m137.45,0H27.07c-6.84,0-13.09,2.55-17.86,6.73C7.26,14.77,4.39,22.04,0,28.62v80.15c43.96,4.5,111.2,12.59,137.49,22.12,10.07,3.65,18.78,7.94,26.32,12.69.46-1.97.7-4.02.7-6.13V27.07c0-14.95-12.12-27.07-27.07-27.07Z"/>
        <path class="cls-1" d="m0,108.77v28.68c0,14.95,12.12,27.07,27.07,27.07h110.38c12.84,0,23.59-8.95,26.37-20.94-7.55-4.75-16.25-9.04-26.32-12.69-26.29-9.53-93.54-17.62-137.49-22.12Z"/>
        <path class="cls-2" d="m0,27.07v1.55c4.39-6.58,7.26-13.85,9.21-21.89C3.57,11.69,0,18.96,0,27.07Z"/>
      </g>
    </g>
  </g>
</svg>