<?xml version="1.0" encoding="UTF-8"?>
<svg id="Layer_2" data-name="Layer 2" xmlns="http://www.w3.org/2000/svg" viewBox="0 0 164.23 164.52">
  <defs>
    <style>
      .cls-1 {
        fill: #d2905d;
      }

      .cls-1, .cls-2, .cls-3, .cls-4 {
        stroke-width: 0px;
      }

      .cls-2 {
        fill: #bb7a4c;
      }

      .cls-3 {
        fill: #919fac;
      }

      .cls-4 {
        fill: #fe7879;
      }
    </style>
  </defs>
  <g id="Portraits">
    <g id="Tiles">
      <g id="I-9">
        <path class="cls-4" d="m0,23.13v118.25c1.91,13.08,13.17,23.13,26.78,23.13h110.38c9.1,0,17.14-4.49,22.04-11.37-.84-9.44-1.29-19.72-1.95-30.88-18.25-3.35-40.85-17.73-42.03-68.06-.76-32.59,5.88-47.5,14.36-53.5-.02-.24-.04-.47-.06-.71H26.78C13.17,0,1.91,10.05,0,23.13Z"/>
        <path class="cls-2" d="m146.65,47.56c-4.55-1.63-8.47-5.21-10.35-11.03-3.09-9.6-5.49-21.38-6.72-35.83-8.48,6-15.12,20.91-14.36,53.5,1.18,50.33,23.77,64.71,42.03,68.06-1.22-20.47-3.18-43.94-9.72-70.83-.31-1.29-.6-2.58-.88-3.88Z"/>
        <path class="cls-1" d="m146.65,47.56c.29,1.29.57,2.59.88,3.88,6.54,26.89,8.5,50.36,9.72,70.83.66,11.17,1.11,21.44,1.95,30.88,3.16-4.43,5.03-9.85,5.03-15.7V44.65c-4.88,3.86-11.74,5-17.58,2.91Z"/>
        <path class="cls-3" d="m136.31,36.54c1.87,5.82,5.8,9.4,10.35,11.03,5.84,2.09,12.7.95,17.58-2.91v-17.58c0-14.95-12.12-27.07-27.07-27.07h-7.63c.02.24.04.47.06.71,1.23,14.44,3.63,26.23,6.72,35.83Z"/>
      </g>
    </g>
  </g>
</svg>