<?xml version="1.0" encoding="UTF-8"?>
<svg id="Layer_2" data-name="Layer 2" xmlns="http://www.w3.org/2000/svg" viewBox="0 0 164.23 164.52">
  <defs>
    <style>
      .cls-1 {
        fill: #42be8f;
      }

      .cls-1, .cls-2 {
        stroke-width: 0px;
      }

      .cls-2 {
        fill: #fe7879;
      }
    </style>
  </defs>
  <g id="Portraits">
    <g id="Tiles">
      <g id="I-13">
        <path class="cls-2" d="m164.23,112.16V27.07c0-14.95-12.12-27.07-27.07-27.07H26.78C13.17,0,1.91,10.05,0,23.13v118.25c.49,3.35,1.59,6.49,3.19,9.33,9.02-6.66,20-12.61,33.33-17.45,24.4-8.85,84.11-16.45,127.71-21.1Z"/>
        <path class="cls-1" d="m26.78,164.52h110.38c14.95,0,27.07-12.12,27.07-27.07v-25.29c-43.6,4.65-103.3,12.25-127.71,21.1-13.34,4.84-24.32,10.79-33.33,17.45,4.64,8.24,13.46,13.81,23.59,13.81Z"/>
      </g>
    </g>
  </g>
</svg>