<?xml version="1.0" encoding="UTF-8"?>
<svg id="Layer_2" data-name="Layer 2" xmlns="http://www.w3.org/2000/svg" viewBox="0 0 164.52 164.52">
  <defs>
    <style>
      .cls-1 {
        fill: #d2905d;
      }

      .cls-1, .cls-2, .cls-3 {
        stroke-width: 0px;
      }

      .cls-2 {
        fill: #919fac;
      }

      .cls-3 {
        fill: #fe7879;
      }
    </style>
  </defs>
  <g id="Portraits">
    <g id="Tiles">
      <g id="I-6">
        <path class="cls-3" d="m137.45,0H27.07C12.12,0,0,12.12,0,27.07v76.29c11.38-18.42,23.63-31.53,34.37-32.65,2-.21,1.69,2.22.14,6.12,32.29-35.36,76.04-58.91,127.86-60.34-4.12-9.69-13.73-16.49-24.92-16.49Z"/>
        <path class="cls-1" d="m34.51,76.83c-5.6,14.11-27.33,47.49-13.98,44.99,0,0,50.05-9.58,7.45,30.88-3.19,3.03-6,6.66-8.48,10.74,2.4.7,4.94,1.08,7.57,1.08h110.38c14.95,0,27.07-12.12,27.07-27.07V27.07c0-3.76-.77-7.33-2.15-10.58-51.83,1.43-95.58,24.98-127.86,60.34Z"/>
        <path class="cls-2" d="m20.52,121.82c-13.35,2.5,8.39-30.88,13.98-44.99,1.55-3.9,1.86-6.33-.14-6.12-10.74,1.12-22.99,14.23-34.37,32.65v34.09c0,12.32,8.24,22.71,19.5,25.99,2.48-4.07,5.28-7.7,8.48-10.74,42.59-40.46-7.45-30.88-7.45-30.88Z"/>
      </g>
    </g>
  </g>
</svg>