<?xml version="1.0" encoding="UTF-8"?>
<svg id="Layer_2" data-name="Layer 2" xmlns="http://www.w3.org/2000/svg" viewBox="0 0 164.52 164.52">
  <defs>
    <style>
      .cls-1 {
        fill: #1a1a1a;
      }

      .cls-1, .cls-2, .cls-3, .cls-4 {
        stroke-width: 0px;
      }

      .cls-2 {
        fill: #d2905d;
      }

      .cls-3 {
        fill: #bb7a4c;
      }

      .cls-4 {
        fill: #919fac;
      }
    </style>
  </defs>
  <g id="Portraits">
    <g id="Tiles">
      <g id="I-10">
        <path class="cls-2" d="m137.45,0H27.07c-3.63,0-7.09.72-10.25,2.02C3.61,28.13,1.71,68.99,2.75,101.07c.13,4.07-.93,7.52-2.75,10.29v26.09c0,14.95,12.12,27.07,27.07,27.07h100.17c-.66-14.29,10.71-37.2,33.98-78.25.46-.81,1.49-1.1,2.3-.63.81.46,1.09,1.49.63,2.3-22.83,40.27-34.27,63.23-33.53,76.59h6.83c14.95,0,27.07-12.12,27.07-27.07V27.07c0-14.95-12.12-27.07-27.07-27.07Zm-23.63,66.72c-.68.95-1.99,1.17-2.94.49-4.68-3.34-11.94-7.42-21.32-9.34,2.75,2.94,4.25,7.02,3.75,11.33-.9,7.79-7.94,13.37-15.73,12.47-7.79-.9-13.37-7.94-12.47-15.73.38-3.25,1.83-6.11,3.96-8.28-11.05,2.01-19.29,6.95-23.04,9.57-.37.26-.79.38-1.2.38-.67,0-1.32-.32-1.73-.9-.67-.96-.43-2.27.52-2.93,7.12-4.97,21.97-12.98,41.38-10.88,12.74,1.38,22.44,6.69,28.33,10.89.95.68,1.17,1.99.49,2.94Zm27.07-22.03c-.83,1.12-2.1,1.71-3.4,1.71-.87,0-1.75-.27-2.5-.82C98.02,18.32,63.5,14.66,29.46,34.4c-2.02,1.17-4.59.48-5.76-1.53-1.17-2.01-.48-4.59,1.53-5.76,36.75-21.3,75.36-17.36,114.77,11.69,1.87,1.38,2.27,4.02.89,5.9Z"/>
        <path class="cls-4" d="m16.82,2.02C6.95,6.06,0,15.75,0,27.07v84.29c1.82-2.77,2.89-6.22,2.75-10.29C1.71,68.99,3.61,28.13,16.82,2.02Z"/>
        <path class="cls-1" d="m113.33,63.78c-5.89-4.21-15.59-9.51-28.33-10.89-19.41-2.1-34.26,5.91-41.38,10.88-.96.67-1.19,1.98-.52,2.93.41.59,1.06.9,1.73.9.42,0,.84-.12,1.2-.38,3.75-2.62,11.99-7.55,23.04-9.57,2.96-3.03,7.24-4.71,11.77-4.18,3.47.4,6.5,2.03,8.72,4.4,9.38,1.92,16.65,6,21.32,9.34.95.68,2.26.46,2.94-.49s.46-2.26-.49-2.94Z"/>
        <path class="cls-1" d="m80.83,53.47c-4.53-.53-8.81,1.16-11.77,4.18-2.13,2.17-3.58,5.03-3.96,8.28-.9,7.79,4.68,14.83,12.47,15.73,7.79.9,14.83-4.68,15.73-12.47.5-4.31-1-8.39-3.75-11.33-2.22-2.37-5.24-4-8.72-4.4Z"/>
        <path class="cls-4" d="m140,38.8C100.59,9.74,61.98,5.8,25.23,27.1c-2.01,1.17-2.7,3.75-1.53,5.76,1.17,2.01,3.75,2.7,5.76,1.53,34.04-19.73,68.57-16.07,105.54,11.19.75.55,1.63.82,2.5.82,1.29,0,2.57-.59,3.4-1.71,1.38-1.87.98-4.51-.89-5.9Z"/>
        <path class="cls-3" d="m164.15,87.93c.46-.81.17-1.84-.63-2.3-.81-.46-1.84-.17-2.3.63-23.27,41.05-34.64,63.96-33.98,78.25h3.38c-.73-13.36,10.71-36.31,33.53-76.59Z"/>
      </g>
    </g>
  </g>
</svg>