<?xml version="1.0" encoding="UTF-8"?>
<svg id="Layer_2" data-name="Layer 2" xmlns="http://www.w3.org/2000/svg" viewBox="0 0 164.52 164.52">
  <defs>
    <style>
      .cls-1 {
        fill: #d2905d;
      }

      .cls-1, .cls-2, .cls-3 {
        stroke-width: 0px;
      }

      .cls-2 {
        fill: #bb7a4c;
      }

      .cls-3 {
        fill: #fe7879;
      }
    </style>
  </defs>
  <g id="Portraits">
    <g id="Tiles">
      <g id="I-14">
        <path class="cls-3" d="m27.07,164.52h23.59c2.53-9.04,3.86-19.67,4.39-30.83C23.76,124.17,8.15,111.46,0,94.66v42.79c0,14.95,12.12,27.07,27.07,27.07Z"/>
        <path class="cls-2" d="m50.66,164.52h86.79c10.2,0,19.08-5.64,23.69-13.98-47.57-3.93-81.63-9.41-106.09-16.85-.53,11.16-1.86,21.79-4.39,30.83Z"/>
        <path class="cls-1" d="m55.05,133.69c24.47,7.44,58.52,12.92,106.09,16.85,2.15-3.88,3.38-8.34,3.38-13.09v-58.79c-20.36-.36-40.45-3.78-60.71-7.76-1.14-.22-1.89-1.33-1.66-2.47.22-1.14,1.33-1.89,2.47-1.66,20.01,3.93,39.85,7.32,59.9,7.67V27.07c0-2.26-.28-4.45-.8-6.55-17.29-1.71-29.57-5.22-34.32-13.96-1.06-1.96-1.73-4.13-2.02-6.56H27.07C12.12,0,0,12.12,0,27.07v67.59c8.15,16.79,23.76,29.51,55.05,39.03ZM112.13,7.15c.78-.51,1.82-.3,2.34.48.51.78.3,1.82-.48,2.34-25.26,16.7-26.1,18.05-36.35,34.61-1.59,2.56-3.39,5.48-5.54,8.87-.32.51-.87.78-1.42.78-.31,0-.62-.08-.9-.26-.79-.5-1.02-1.54-.52-2.33,2.14-3.37,3.94-6.28,5.52-8.83,10.39-16.78,11.47-18.54,37.36-35.65Z"/>
        <path class="cls-1" d="m162.57,16.99c-4-9.96-13.74-16.99-25.12-16.99h-6.67c.27,1.84.79,3.48,1.59,4.95,3.49,6.43,12.5,10.11,30.21,12.04Z"/>
        <path class="cls-2" d="m163.72,20.52c-.3-1.21-.69-2.39-1.14-3.53-17.71-1.93-26.72-5.61-30.21-12.04-.8-1.47-1.32-3.11-1.59-4.95h-3.4c.29,2.43.96,4.6,2.02,6.56,4.74,8.74,17.02,12.26,34.32,13.96Z"/>
        <path class="cls-2" d="m102.14,68.42c-.22,1.14.52,2.25,1.66,2.47,20.26,3.98,40.35,7.41,60.71,7.76v-4.23c-20.05-.35-39.89-3.74-59.9-7.67-1.14-.23-2.25.52-2.47,1.66Z"/>
        <path class="cls-2" d="m74.77,42.8c-1.58,2.55-3.38,5.46-5.52,8.83-.5.79-.27,1.83.52,2.33.28.18.59.26.9.26.56,0,1.1-.28,1.42-.78,2.15-3.38,3.96-6.3,5.54-8.87,10.25-16.56,11.08-17.91,36.35-34.61.78-.51.99-1.56.48-2.34-.51-.78-1.56-.99-2.34-.48-25.88,17.11-26.97,18.86-37.36,35.65Z"/>
      </g>
    </g>
  </g>
</svg>