<?xml version="1.0" encoding="UTF-8"?>
<svg id="Layer_2" data-name="Layer 2" xmlns="http://www.w3.org/2000/svg" viewBox="0 0 164.52 164.52">
  <defs>
    <style>
      .cls-1 {
        fill: #42be8f;
      }

      .cls-1, .cls-2, .cls-3 {
        stroke-width: 0px;
      }

      .cls-2 {
        fill: #bb7a4c;
      }

      .cls-3 {
        fill: #fe7879;
      }
    </style>
  </defs>
  <g id="Portraits">
    <g id="Tiles">
      <g id="I-17">
        <path class="cls-3" d="m45.26,11.72c1.96-3.41,3.58-7.36,4.9-11.72h-23.09C16.09,0,6.65,6.54,2.4,15.93c21.13-2.2,37.57-3.63,42.77-4.07.03-.05.06-.1.09-.15Z"/>
        <path class="cls-2" d="m45.17,11.86c1.13-.1,1.75-.15,1.75-.15,0,0,6.79,41.91,86.65,44.8,13.53.49,23.59.7,30.95,1.49v-30.94c0-14.95-12.12-27.07-27.07-27.07H50.17c-1.32,4.35-2.94,8.3-4.9,11.72-.03.05-.06.1-.09.15Z"/>
        <path class="cls-1" d="m0,27.07v110.38c0,14.95,12.12,27.07,27.07,27.07h110.38c14.95,0,27.07-12.12,27.07-27.07v-31.61c-4.56-27.15-7.27-38.78,0-44.04v-3.79c-7.36-.79-17.41-1-30.95-1.49C53.71,53.62,46.92,11.72,46.92,11.72c0,0-.62.05-1.75.15-5.2.44-21.64,1.87-42.77,4.07-1.54,3.4-2.4,7.17-2.4,11.14Z"/>
        <path class="cls-1" d="m164.52,105.84v-44.04c-7.27,5.27-4.56,16.89,0,44.04Z"/>
      </g>
    </g>
  </g>
</svg>