<?xml version="1.0" encoding="UTF-8"?>
<svg id="Layer_2" data-name="Layer 2" xmlns="http://www.w3.org/2000/svg" viewBox="0 0 164.52 164.52">
  <defs>
    <style>
      .cls-1 {
        fill: #2d1102;
      }

      .cls-1, .cls-2, .cls-3 {
        stroke-width: 0px;
      }

      .cls-2 {
        fill: #9adbc3;
      }

      .cls-3 {
        fill: #a86854;
      }
    </style>
  </defs>
  <g id="Portraits">
    <g id="E">
      <g id="Tiles">
        <g id="E-7">
          <path class="cls-2" d="m137.45,0H27.07c-4.55,0-8.84,1.13-12.61,3.12,40.39-1.3,81.2,6.12,111.5,23.22,17.93,10.11,30.29,22.8,38.56,33.96V27.07c0-14.95-12.12-27.07-27.07-27.07Z"/>
          <path class="cls-1" d="m125.96,26.33C95.66,9.24,54.85,1.81,14.46,3.12c-5.3,2.79-9.55,7.29-12.04,12.76,45.13,3.3,96.19,21.83,123.53,47.73,20.23,19.17,38.31,45.76,30.88,56.44-1.99,2.86-7.49,4.21-15.5,4.58,5.71,9.82,10.42,20.76,14.02,33.11,5.61-4.96,9.15-12.21,9.15-20.28V60.3c-8.27-11.16-20.63-23.85-38.56-33.96Z"/>
          <path class="cls-3" d="m0,114.45v22.99c0,14.95,12.12,27.07,27.07,27.07h110.38c6.87,0,13.14-2.57,17.92-6.79-3.61-12.35-8.31-23.29-14.02-33.11-29.35,1.37-92.53-10.46-141.34-10.17Z"/>
          <path class="cls-1" d="m141.34,124.62c8.01-.37,13.51-1.73,15.5-4.58,7.43-10.68-10.65-37.27-30.88-56.44C98.62,37.7,47.56,19.18,2.42,15.88c-1.55,3.41-2.42,7.2-2.42,11.19v87.38c48.8-.29,111.99,11.54,141.34,10.17Z"/>
        </g>
      </g>
    </g>
  </g>
</svg>