<?xml version="1.0" encoding="UTF-8"?>
<svg id="Layer_2" data-name="Layer 2" xmlns="http://www.w3.org/2000/svg" viewBox="0 0 164.52 164.52">
  <defs>
    <style>
      .cls-1 {
        fill: #492b22;
      }

      .cls-1, .cls-2, .cls-3, .cls-4 {
        stroke-width: 0px;
      }

      .cls-2 {
        fill: #2d1102;
      }

      .cls-3 {
        fill: #1a1a1a;
      }

      .cls-4 {
        fill: #a86854;
      }
    </style>
  </defs>
  <g id="Portraits">
    <g id="E">
      <g id="Tiles">
        <g id="E-11">
          <path class="cls-2" d="m159.21,125.62c-1.53,11.77-3.49,22.99-5.82,33.7,6.74-4.92,11.12-12.88,11.12-21.87V27.07c0-5.43-1.6-10.48-4.36-14.72,5.17,29.7,5.14,66.52-.95,113.27Z"/>
          <path class="cls-4" d="m160.16,12.35c-4.83-7.43-13.19-12.35-22.71-12.35h-52.07c3.42.21,7.06.65,10.95,1.39,31.78,6.08,41.71,31.22,42.11,32.28.83,2.17-.26,4.61-2.44,5.44-.49.19-1,.28-1.5.28-1.7,0-3.3-1.03-3.94-2.71-.34-.88-8.8-21.84-35.82-27.01-14.25-2.73-24.67-.86-30.91,1.19-6.73,2.21-10.18,5.11-10.22,5.14-1.76,1.5-4.42,1.31-5.94-.44s-1.34-4.39.4-5.92c.51-.45,9.99-8.51,28.43-9.64H27.07C12.12,0,0,12.12,0,27.07v34.22c.64.5.96,1.35.75,2.19-.09.33-.34,1.33-.75,2.86v71.1c0,14.95,12.12,27.07,27.07,27.07h110.38c5.96,0,11.47-1.93,15.95-5.2,2.33-10.7,4.29-21.93,5.82-33.7,6.09-46.75,6.12-83.57.95-113.27Zm-86.79,81.7c-8.38,0-15.17-6.79-15.17-15.17s6.79-15.17,15.17-15.17,15.17,6.79,15.17,15.17-6.79,15.17-15.17,15.17Zm41.9-16.02c-.04-.09-5.75-11.05-31.43-14.24-13.62-1.69-23.32.46-29.06,2.56-6.2,2.27-9.25,4.97-9.28,5l-2.84-3.12c.54-.5,13.61-12.1,41.7-8.62,28.28,3.51,34.48,16.1,34.73,16.63l-3.82,1.79Z"/>
          <path class="cls-2" d="m47.68,15.56c1.51,1.75,4.17,1.95,5.94.44.03-.03,3.48-2.92,10.22-5.14,6.24-2.05,16.66-3.92,30.91-1.19,27.02,5.17,35.48,26.13,35.82,27.01.64,1.68,2.24,2.71,3.94,2.71.5,0,1.01-.09,1.5-.28,2.18-.83,3.27-3.27,2.44-5.44-.41-1.07-10.34-26.2-42.11-32.28-3.88-.74-7.53-1.18-10.95-1.39h-8.87c-18.43,1.13-27.92,9.2-28.43,9.64-1.74,1.53-1.92,4.16-.4,5.92Z"/>
          <path class="cls-1" d="m0,61.29v5.05c.4-1.54.66-2.53.75-2.86.22-.84-.1-1.69-.75-2.19Z"/>
          <path class="cls-3" d="m84.36,59.61c-28.09-3.49-41.15,8.12-41.7,8.62l2.84,3.12s3.08-2.73,9.28-5c5.74-2.1,15.44-4.25,29.06-2.56,25.69,3.19,31.39,14.15,31.43,14.24l3.82-1.79c-.25-.53-6.45-13.12-34.73-16.63Z"/>
          <circle class="cls-3" cx="73.37" cy="78.88" r="15.17"/>
        </g>
      </g>
    </g>
  </g>
</svg>