<?xml version="1.0" encoding="UTF-8"?>
<svg id="Layer_2" data-name="Layer 2" xmlns="http://www.w3.org/2000/svg" viewBox="0 0 164.52 164.52">
  <defs>
    <style>
      .cls-1 {
        fill: #492b22;
      }

      .cls-1, .cls-2, .cls-3, .cls-4 {
        stroke-width: 0px;
      }

      .cls-2 {
        fill: #2d1102;
      }

      .cls-3 {
        fill: #a86854;
      }

      .cls-4 {
        fill: #a05744;
      }
    </style>
  </defs>
  <g id="Portraits">
    <g id="E">
      <g id="Tiles">
        <g id="E-15">
          <path class="cls-2" d="m150.95,3.61c-13.89,55.99-38.13,96.61-64.63,123.56-.77,9.88-1.67,23.61-2.02,37.35h53.15c14.95,0,27.07-12.12,27.07-27.07V27.07c0-10.03-5.46-18.78-13.57-23.46Z"/>
          <path class="cls-4" d="m29.32,164.52h54.98c.35-13.74,1.25-27.46,2.02-37.35-18.84,19.16-38.81,31.4-57,37.35Z"/>
          <path class="cls-3" d="m86.32,127.17c26.5-26.95,50.74-67.57,64.63-123.56-3.97-2.29-8.58-3.61-13.5-3.61H27.07C16.77,0,7.81,5.76,3.23,14.23c10.15-1.73,19.43-7.18,25.28-12.67.85-.79,2.18-.75,2.98.1.8.85.75,2.18-.1,2.98C22.4,13.08,12.04,17.94,1.3,18.78c-.84,2.61-1.3,5.4-1.3,8.29v45.05c1.31.03,2.63.04,3.99.04,18.03-.12,31.47-3.46,39.58-6.24,8.78-3.01,13.36-6.03,13.4-6.06.97-.65,2.28-.39,2.92.58.65.97.39,2.27-.58,2.92-.78.52-19.43,12.76-55.3,13.01-.34,0-.68,0-1.02,0-1.01,0-2.01-.01-3-.03v61.11c0,14.95,12.12,27.07,27.07,27.07h2.25c18.19-5.94,38.16-18.19,57-37.35Z"/>
          <path class="cls-1" d="m31.4,4.64c.85-.8.89-2.13.1-2.98-.8-.85-2.13-.89-2.98-.1C22.67,7.05,13.39,12.5,3.23,14.23c-.78,1.44-1.43,2.97-1.94,4.55,10.74-.85,21.1-5.7,30.1-14.14Z"/>
          <path class="cls-1" d="m4.02,76.37c35.87-.24,54.52-12.49,55.3-13.01.97-.65,1.22-1.95.58-2.92-.65-.97-1.96-1.23-2.92-.58-.04.03-4.62,3.05-13.4,6.06-8.1,2.78-21.55,6.11-39.58,6.24-1.36,0-2.68,0-3.99-.04v4.22c.99.02,1.98.03,3,.03.34,0,.68,0,1.02,0Z"/>
        </g>
      </g>
    </g>
  </g>
</svg>