<?xml version="1.0" encoding="UTF-8"?>
<svg id="Layer_2" data-name="Layer 2" xmlns="http://www.w3.org/2000/svg" viewBox="0 0 164.52 164.52">
  <defs>
    <style>
      .cls-1 {
        fill: #2d1102;
      }

      .cls-1, .cls-2, .cls-3 {
        stroke-width: 0px;
      }

      .cls-2 {
        fill: #dd47c8;
      }

      .cls-3 {
        fill: #a05744;
      }
    </style>
  </defs>
  <g id="Portraits">
    <g id="E">
      <g id="Tiles">
        <g id="E-18">
          <path class="cls-1" d="m137.45,0h-53.2c-.4,18.09.19,35.91,3.33,44.71.21.57.44,1.16.67,1.74,9.37,6.02,19.6,12.55,28.57,18.22,7.66,4.84,25.48,10.31,47.69,15.59V27.07c0-14.95-12.12-27.07-27.07-27.07Z"/>
          <path class="cls-2" d="m88.26,46.45c8.7,21.57,38.07,51.04,38.07,51.04,0,0-34.32,53.31-121.76,52.43-.51,0-1.01,0-1.51,0,4.51,8.67,13.57,14.59,24.02,14.59h110.38c14.95,0,27.07-12.12,27.07-27.07v-57.19c-22.21-5.28-40.03-10.75-47.69-15.59-8.98-5.67-19.2-12.21-28.57-18.22Z"/>
          <path class="cls-3" d="m126.33,97.49s-29.37-29.48-38.07-51.04c-.24-.59-.47-1.17-.67-1.74-3.14-8.79-3.74-26.62-3.33-44.71H27.07C12.12,0,0,12.12,0,27.07v110.38c0,4.5,1.1,8.74,3.05,12.48.51,0,1,0,1.51,0,87.45.88,121.76-52.43,121.76-52.43Z"/>
        </g>
      </g>
    </g>
  </g>
</svg>