<?xml version="1.0" encoding="UTF-8"?>
<svg id="Layer_2" data-name="Layer 2" xmlns="http://www.w3.org/2000/svg" viewBox="0 0 164.52 164.52">
  <defs>
    <style>
      .cls-1 {
        fill: #2d1102;
      }

      .cls-1, .cls-2 {
        stroke-width: 0px;
      }

      .cls-2 {
        fill: #9adbc3;
      }
    </style>
  </defs>
  <g id="Portraits">
    <g id="E">
      <g id="Tiles">
        <g id="E-8">
          <path class="cls-2" d="m137.45,0H27.07c-7.45,0-14.2,3.01-19.09,7.88,1.72,3.82,2.45,6.12,2.45,6.12,0,0,46.85,10.65,56.45,54.62,14.72,52.78-3.38,81.21-21.61,95.9h92.18c14.95,0,27.07-12.12,27.07-27.07V27.07c0-14.95-12.12-27.07-27.07-27.07Z"/>
          <path class="cls-1" d="m66.88,68.62C57.28,24.65,10.43,14,10.43,14c0,0-.73-2.3-2.45-6.12C3.05,12.78,0,19.57,0,27.07v110.38c0,14.95,12.12,27.07,27.07,27.07h18.2c18.23-14.69,36.33-43.12,21.61-95.9Z"/>
        </g>
      </g>
    </g>
  </g>
</svg>