<?xml version="1.0" encoding="UTF-8"?>
<svg id="Layer_2" data-name="Layer 2" xmlns="http://www.w3.org/2000/svg" viewBox="0 0 164.52 164.52">
  <defs>
    <style>
      .cls-1 {
        fill: #2d1102;
      }

      .cls-1, .cls-2 {
        stroke-width: 0px;
      }

      .cls-2 {
        fill: #9adbc3;
      }
    </style>
  </defs>
  <g id="Portraits">
    <g id="E">
      <g id="Tiles">
        <g id="E-12">
          <path class="cls-2" d="m137.45,0H43.07c-12.93,9.67-25.28,12.6-25.28,12.6,11.55,60.44-10.67,94.21-10.67,140.43,0,.95.02,1.87.05,2.77,4.95,5.36,12.03,8.72,19.89,8.72h110.38c14.95,0,27.07-12.12,27.07-27.07V27.07c0-14.95-12.12-27.07-27.07-27.07Z"/>
          <path class="cls-1" d="m17.79,12.6s12.34-2.93,25.28-12.6h-16C12.12,0,0,12.12,0,27.07v110.38c0,7.08,2.72,13.53,7.18,18.35-.03-.91-.05-1.83-.05-2.77,0-46.22,22.22-79.99,10.67-140.43Z"/>
        </g>
      </g>
    </g>
  </g>
</svg>