<?xml version="1.0" encoding="UTF-8"?>
<svg id="Layer_2" data-name="Layer 2" xmlns="http://www.w3.org/2000/svg" viewBox="0 0 164.52 164.52">
  <defs>
    <style>
      .cls-1 {
        fill: #2d1102;
      }

      .cls-1, .cls-2 {
        stroke-width: 0px;
      }

      .cls-2 {
        fill: #9adbc3;
      }
    </style>
  </defs>
  <g id="Portraits">
    <g id="E">
      <g id="Tiles">
        <g id="E-16">
          <path class="cls-2" d="m137.45,0H27.07c-6.61,0-12.66,2.37-17.36,6.3,8.14,27.11,33.42,32.07,44.52,76.48,7.93,31.72,7.05,60.07,4.67,81.73h78.54c14.95,0,27.07-12.12,27.07-27.07V27.07c0-14.95-12.12-27.07-27.07-27.07Z"/>
          <path class="cls-1" d="m54.23,82.78C43.13,38.38,17.86,33.41,9.71,6.3,3.78,11.27,0,18.73,0,27.07v110.38c0,14.95,12.12,27.07,27.07,27.07h31.83c2.39-21.67,3.26-50.01-4.67-81.73Z"/>
        </g>
      </g>
    </g>
  </g>
</svg>