<?xml version="1.0" encoding="UTF-8"?>
<svg id="Layer_2" data-name="Layer 2" xmlns="http://www.w3.org/2000/svg" viewBox="0 0 164.23 164.52">
  <defs>
    <style>
      .cls-1 {
        fill: #2d1102;
      }

      .cls-1, .cls-2 {
        stroke-width: 0px;
      }

      .cls-2 {
        fill: #9adbc3;
      }
    </style>
  </defs>
  <g id="Portraits">
    <g id="E">
      <g id="Tiles">
        <g id="E-5">
          <path class="cls-2" d="m26.78,0C13.17,0,1.91,10.05,0,23.13v118.25c1.91,13.08,13.17,23.13,26.78,23.13h89.94c-11.93-21.28-19.58-52.02-8.01-93.52,9.23-33.11,27.98-53.78,44.03-66.05-4.41-3.11-9.78-4.94-15.58-4.94H26.78Z"/>
          <path class="cls-1" d="m108.71,70.99c-11.57,41.5-3.93,72.24,8.01,93.52h20.44c14.95,0,27.07-12.12,27.07-27.07v-9.39l-9.3-36.54c.5-6.76,2.16-23.24,9.3-41.77v-22.68c0-9.15-4.54-17.23-11.49-22.13-16.05,12.27-34.79,32.94-44.03,66.05Z"/>
          <path class="cls-1" d="m164.23,128.06V49.75c-7.14,18.53-8.8,35.01-9.3,41.77l9.3,36.54Z"/>
        </g>
      </g>
    </g>
  </g>
</svg>