<?xml version="1.0" encoding="UTF-8"?>
<svg id="Layer_2" data-name="Layer 2" xmlns="http://www.w3.org/2000/svg" viewBox="0 0 164.23 164.52">
  <defs>
    <style>
      .cls-1 {
        fill: #2d1102;
      }

      .cls-1, .cls-2 {
        stroke-width: 0px;
      }

      .cls-2 {
        fill: #9adbc3;
      }
    </style>
  </defs>
  <g id="Portraits">
    <g id="E">
      <g id="Tiles">
        <g id="E-9">
          <path class="cls-2" d="m0,23.13v118.25c1.91,13.08,13.17,23.13,26.78,23.13h110.38c10.27,0,19.2-5.72,23.79-14.14-5.3-34.33-17.74-65.65-8.47-114.11,0,0-20.18-11.35-34.77-36.27H26.78C13.17,0,1.91,10.05,0,23.13Z"/>
          <path class="cls-1" d="m152.47,36.27c-9.26,48.46,3.18,79.78,8.47,114.11,2.09-3.84,3.28-8.25,3.28-12.93V27.07c0-14.95-12.12-27.07-27.07-27.07h-19.46c14.59,24.92,34.77,36.27,34.77,36.27Z"/>
        </g>
      </g>
    </g>
  </g>
</svg>