<?xml version="1.0" encoding="UTF-8"?>
<svg id="Layer_2" data-name="Layer 2" xmlns="http://www.w3.org/2000/svg" viewBox="0 0 164.23 164.52">
  <defs>
    <style>
      .cls-1 {
        fill: #2d1102;
      }

      .cls-1, .cls-2 {
        stroke-width: 0px;
      }

      .cls-2 {
        fill: #9adbc3;
      }
    </style>
  </defs>
  <g id="Portraits">
    <g id="E">
      <g id="Tiles">
        <g id="E-13">
          <path class="cls-2" d="m0,23.13v118.25c1.91,13.08,13.17,23.13,26.78,23.13h82.98c-.39-17.19.97-36.87,6.27-58.06,12.53-50.1,43.09-50,46.74-88.13-3.64-10.66-13.73-18.32-25.62-18.32H26.78C13.17,0,1.91,10.05,0,23.13Z"/>
          <path class="cls-1" d="m109.76,164.52h27.4c14.95,0,27.07-12.12,27.07-27.07V27.07c0-3.06-.52-6-1.45-8.75-3.65,38.13-34.22,38.03-46.74,88.13-5.3,21.19-6.66,40.87-6.27,58.06Z"/>
        </g>
      </g>
    </g>
  </g>
</svg>