<?xml version="1.0" encoding="UTF-8"?>
<svg id="Layer_2" data-name="Layer 2" xmlns="http://www.w3.org/2000/svg" viewBox="0 0 164.52 164.52">
  <defs>
    <style>
      .cls-1 {
        fill: #2d1102;
      }

      .cls-1, .cls-2, .cls-3 {
        stroke-width: 0px;
      }

      .cls-2 {
        fill: #9adbc3;
      }

      .cls-3 {
        fill: #a86854;
      }
    </style>
  </defs>
  <g id="Portraits">
    <g id="E">
      <g id="Tiles">
        <g id="E-6">
          <path class="cls-2" d="m27.07,0C12.12,0,0,12.12,0,27.07v38.67c7.7-4.22,12.9-5.88,12.9-5.88,0,0,36.64-15.44,68.58-32.48,20.55-10.96,45.73-18.35,72.24-21.94-4.53-3.41-10.16-5.44-16.27-5.44H27.07Z"/>
          <path class="cls-1" d="m12.9,59.85s-5.19,1.67-12.9,5.88v46.23c3.26-6.98,7.35-14.08,12.49-20.93,9.03-12.03,17.75-16.37,46.5-33.77,60.31-36.5,54.74-35.6,60.6-37.33,12.33-3.64,26.85-5.03,42.3-4.52-1.89-3.95-4.7-7.38-8.17-9.99-26.51,3.58-51.69,10.97-72.24,21.94C49.53,44.41,12.9,59.85,12.9,59.85Z"/>
          <path class="cls-3" d="m44.07,164.52h93.38c14.95,0,27.07-12.12,27.07-27.07v-22.99c-10.03.16-19.4.87-27.67,2.36-29.59,5.32-62.08,16.27-92.78,47.7Z"/>
          <path class="cls-1" d="m119.59,19.94c-5.85,1.73-.29.83-60.6,37.33-28.76,17.41-37.47,21.74-46.5,33.77-5.14,6.84-9.22,13.95-12.49,20.93v25.48c0,14.95,12.12,27.07,27.07,27.07h17c30.7-31.42,63.19-42.37,92.78-47.7,8.27-1.49,17.64-2.2,27.67-2.36V27.07c0-4.17-.94-8.12-2.63-11.65-15.45-.51-29.97.88-42.3,4.52Z"/>
        </g>
      </g>
    </g>
  </g>
</svg>