<?xml version="1.0" encoding="UTF-8"?>
<svg id="Layer_2" data-name="Layer 2" xmlns="http://www.w3.org/2000/svg" viewBox="0 0 164.52 164.52">
  <defs>
    <style>
      .cls-1 {
        fill: none;
        stroke: #1a1a1a;
        stroke-linecap: round;
        stroke-linejoin: round;
      }

      .cls-1, .cls-2, .cls-3, .cls-4, .cls-5 {
        stroke-width: 0px;
      }

      .cls-2 {
        fill: #492b22;
      }

      .cls-3 {
        fill: #2d1102;
      }

      .cls-4 {
        fill: #1a1a1a;
      }

      .cls-5 {
        fill: #a86854;
      }
    </style>
  </defs>
  <g id="Portraits">
    <g id="E">
      <g id="Tiles">
        <g id="E-10">
          <path class="cls-3" d="m24.35,164.38c-2.86-12.21-5.23-25.14-7.01-38.78-.74-5.71-1.39-11.26-1.95-16.68-2.39-7.72-4.24-15.35-5.34-22.91L0,46.53v90.92c0,14.03,10.67,25.57,24.35,26.93Z"/>
          <path class="cls-3" d="m12.98,44.9c-4.44,13.63-4.95,27.27-2.93,41.11l5.01,19.7c-2.24-22.68-2.89-42.82-2.08-60.81Z"/>
          <path class="cls-5" d="m12.98,44.9c-.81,17.99-.16,38.13,2.08,60.81l2.53,9.94c-.77-2.25-1.51-4.49-2.2-6.73.56,5.42,1.21,10.97,1.95,16.68,1.78,13.65,4.14,26.57,7.01,38.78.9.09,1.8.14,2.72.14h107.37c.15-.67.38-1.33.71-1.96,5.61-10.43,28.71-99.26,28.94-100.16.08-.31.23-.59.43-.82V27.07c0-14.95-12.12-27.07-27.07-27.07H42.42c-4.78,5.02-9.51,10.52-14.18,16.61-7.27,9.47-12.19,18.88-15.26,28.29Zm97.25,49.13c-8.38,0-15.17-6.79-15.17-15.17s6.79-15.17,15.17-15.17,15.17,6.79,15.17,15.17-6.79,15.17-15.17,15.17Zm29.3-24.03l-1.43,1.55s0,0,0,0h0s0,0,0,0c-.22-.2-12.35-10.84-38.28-7.8-25.71,3.02-31.48,13.94-31.53,14.05l-3.8-1.83c.25-.53,6.54-13.08,34.84-16.41,28.11-3.3,41.1,8.39,41.64,8.89l-1.43,1.55ZM47.43,31.52c.44-1.01,11.11-24.92,42.97-30.22,31.63-5.25,47.37,8.83,48.03,9.43,1.71,1.58,1.82,4.24.25,5.96-1.57,1.71-4.22,1.82-5.94.26-.11-.1-3.48-3.03-10.08-5.38-6.19-2.2-16.56-4.33-30.87-1.95-27.18,4.51-36.25,24.41-36.62,25.26-.7,1.58-2.24,2.52-3.87,2.52-.56,0-1.13-.11-1.68-.35-2.13-.93-3.11-3.4-2.19-5.53Z"/>
          <path class="cls-5" d="m164.52,137.45v-60.08c-6.81,25.71-21.07,78.51-25.61,87.1,14.27-.76,25.61-12.57,25.61-27.03Z"/>
          <path class="cls-3" d="m12.98,44.9c3.06-9.41,7.99-18.82,15.26-28.29,4.67-6.08,9.4-11.59,14.18-16.61h-15.35C12.12,0,0,12.12,0,27.07v19.46l10.04,39.47c-2.02-13.84-1.51-27.48,2.93-41.11Z"/>
          <path class="cls-3" d="m15.06,105.71l-5.01-19.7c1.1,7.57,2.96,15.19,5.34,22.91.69,2.23,1.42,4.47,2.2,6.73l-2.53-9.94Z"/>
          <path class="cls-3" d="m49.61,37.04c.55.24,1.12.35,1.68.35,1.62,0,3.17-.94,3.87-2.52.37-.84,9.44-20.74,36.62-25.26,14.31-2.38,24.69-.25,30.87,1.95,6.6,2.35,9.97,5.29,10.08,5.38,1.71,1.56,4.37,1.44,5.94-.26,1.58-1.71,1.46-4.38-.25-5.96-.65-.6-16.4-14.69-48.03-9.43-31.87,5.29-42.54,29.2-42.97,30.22-.92,2.13.06,4.6,2.19,5.53Z"/>
          <path class="cls-2" d="m135.15,162.56c-.34.63-.57,1.28-.71,1.96h3.01c.49,0,.97-.01,1.46-.04,4.54-8.59,18.81-61.4,25.61-87.1v-15.79c-.19.23-.34.51-.43.82-.23.9-23.33,89.72-28.94,100.16Z"/>
          <line class="cls-1" x1="138.09" y1="71.54" x2="138.09" y2="71.54"/>
          <path class="cls-4" d="m99.32,59.56c-28.3,3.33-34.58,15.88-34.84,16.41l3.8,1.83c.06-.11,5.83-11.03,31.53-14.05,25.93-3.05,38.06,7.6,38.28,7.8,0,0,0,0,0,0l1.43-1.55,1.43-1.55c-.54-.5-13.53-12.19-41.64-8.89Z"/>
          <circle class="cls-4" cx="110.23" cy="78.86" r="15.17"/>
        </g>
      </g>
    </g>
  </g>
</svg>