<?xml version="1.0" encoding="UTF-8"?>
<svg id="Layer_2" data-name="Layer 2" xmlns="http://www.w3.org/2000/svg" viewBox="0 0 164.52 164.52">
  <defs>
    <style>
      .cls-1 {
        fill: #492b22;
      }

      .cls-1, .cls-2, .cls-3, .cls-4 {
        stroke-width: 0px;
      }

      .cls-2 {
        fill: #2d1102;
      }

      .cls-3 {
        fill: #a86854;
      }

      .cls-4 {
        fill: #a05744;
      }
    </style>
  </defs>
  <g id="Portraits">
    <g id="E">
      <g id="Tiles">
        <g id="E-14">
          <path class="cls-2" d="m27.07,164.52h65.19c-.36-14.19-1.31-28.37-2.1-38.32C63.29,98.69,38.55,57.23,24.82.1,10.92,1.25,0,12.88,0,27.07v110.38c0,14.95,12.12,27.07,27.07,27.07Z"/>
          <path class="cls-4" d="m90.16,126.2c.79,9.95,1.73,24.13,2.1,38.32h45.19c2.6,0,5.12-.38,7.5-1.06-17.41-6.38-36.59-18.62-54.79-37.26Z"/>
          <path class="cls-3" d="m144.01,7.92c5.55,4.27,11.54,6.28,17.49,6.74C157.15,6.25,148.53.41,138.5.03c.07,2.3,2.08,5.25,5.51,7.89Z"/>
          <path class="cls-3" d="m144.95,163.46c11.3-3.25,19.57-13.66,19.57-26.01v-61.22c-31.35-1.28-47.41-12.41-48.12-12.92-.95-.67-1.17-1.99-.5-2.94.67-.95,1.99-1.17,2.94-.5.06.04,4.55,3.17,13.22,6.22,6.96,2.45,17.93,5.29,32.46,5.92V27.07c0-2.87-.45-5.64-1.28-8.23-8.15-.4-15.96-3.08-21.8-7.58-4.62-3.55-7.14-7.61-7.18-11.26H27.07c-.76,0-1.51.04-2.25.1,13.73,57.13,38.47,98.59,65.34,126.1,18.21,18.64,37.39,30.88,54.79,37.26Z"/>
          <path class="cls-1" d="m141.44,11.26c5.84,4.49,13.65,7.18,21.8,7.58-.46-1.45-1.05-2.85-1.74-4.18-5.95-.46-11.94-2.47-17.49-6.74-3.44-2.64-5.44-5.59-5.51-7.89-.35-.01-.7-.03-1.05-.03h-3.18c.04,3.65,2.56,7.71,7.18,11.26Z"/>
          <path class="cls-1" d="m118.83,59.87c-.95-.67-2.26-.45-2.94.5-.67.95-.45,2.26.5,2.94.71.51,16.77,11.64,48.12,12.92v-4.22c-14.54-.63-25.51-3.47-32.46-5.92-8.67-3.05-13.16-6.18-13.22-6.22Z"/>
        </g>
      </g>
    </g>
  </g>
</svg>