<?xml version="1.0" encoding="UTF-8"?>
<svg id="Layer_2" data-name="Layer 2" xmlns="http://www.w3.org/2000/svg" viewBox="0 0 164.52 164.52">
  <defs>
    <style>
      .cls-1 {
        fill: #2d1102;
      }

      .cls-1, .cls-2, .cls-3 {
        stroke-width: 0px;
      }

      .cls-2 {
        fill: #dd47c8;
      }

      .cls-3 {
        fill: #a05744;
      }
    </style>
  </defs>
  <g id="Portraits">
    <g id="E">
      <g id="Tiles">
        <g id="E-17">
          <path class="cls-1" d="m88.3,46.42c.24-.59.47-1.17.67-1.74,3.14-8.79,3.74-26.6,3.33-44.68H27.07C12.12,0,0,12.12,0,27.07v55.91c27.69-6.09,50.72-12.65,59.72-18.34,8.98-5.67,19.2-12.21,28.57-18.22Z"/>
          <path class="cls-2" d="m0,137.45c0,14.95,12.12,27.07,27.07,27.07h110.38c10.53,0,19.64-6.01,24.12-14.78-79.76-3.22-111.34-52.27-111.34-52.27,0,0,29.37-29.48,38.07-51.04-9.37,6.02-19.6,12.55-28.57,18.22-9,5.69-32.04,12.24-59.72,18.34v54.47Z"/>
          <path class="cls-3" d="m88.97,44.68c-.21.57-.44,1.16-.67,1.74-8.7,21.57-38.07,51.04-38.07,51.04,0,0,31.58,49.04,111.34,52.27,1.88-3.69,2.95-7.86,2.95-12.29V27.07c0-14.95-12.12-27.07-27.07-27.07h-45.15c.4,18.08-.19,35.89-3.33,44.68Z"/>
        </g>
      </g>
    </g>
  </g>
</svg>