<?xml version="1.0" encoding="UTF-8"?>
<svg id="Layer_2" data-name="Layer 2" xmlns="http://www.w3.org/2000/svg" viewBox="0 0 164.52 164.52">
  <defs>
    <style>
      .cls-1 {
        fill: #494778;
      }

      .cls-1, .cls-2, .cls-3 {
        stroke-width: 0px;
      }

      .cls-2 {
        fill: #704b3e;
      }

      .cls-3 {
        fill: #ffdb77;
      }
    </style>
  </defs>
  <g id="Portraits">
    <g id="K">
      <g id="Tiles">
        <g id="K-7">
          <path class="cls-3" d="m137.45,0h-7.58c8.69,7.91,16.48,16.26,23.13,24.7,3.39,4.31,7.49,9.92,11.53,16.04v-13.67c0-14.95-12.12-27.07-27.07-27.07Z"/>
          <path class="cls-1" d="m157.19,155.96c4.54-4.84,7.33-11.35,7.33-18.51v-50.19c-21.11-7.96-59.03-36.14-105.38-40.16,48.93,24.52,84.05,52.81,98.05,108.86Z"/>
          <path class="cls-2" d="m59.14,47.1c-9.01-.78-18.33-.66-27.91.71-11.08,1.58-21.32,4.65-31.23,9.1v80.54c0,14.95,12.12,27.07,27.07,27.07h110.38c7.79,0,14.8-3.29,19.74-8.56-14.01-56.06-49.12-84.34-98.05-108.86Z"/>
          <path class="cls-1" d="m129.86,0H27.07C12.12,0,0,12.12,0,27.07v29.83c9.9-4.45,20.15-7.52,31.23-9.1,9.58-1.37,18.9-1.49,27.91-.71,46.35,4.03,84.27,32.2,105.38,40.16v-46.52c-4.03-6.12-8.14-11.74-11.53-16.04-6.65-8.44-14.44-16.79-23.13-24.7Z"/>
        </g>
      </g>
    </g>
  </g>
</svg>