<?xml version="1.0" encoding="UTF-8"?>
<svg id="Layer_2" data-name="Layer 2" xmlns="http://www.w3.org/2000/svg" viewBox="0 0 164.52 164.52">
  <defs>
    <style>
      .cls-1 {
        fill: #494778;
      }

      .cls-1, .cls-2, .cls-3, .cls-4 {
        stroke-width: 0px;
      }

      .cls-2 {
        fill: #704b3e;
      }

      .cls-3 {
        fill: #2e2e59;
      }

      .cls-4 {
        fill: #1a1a1a;
      }
    </style>
  </defs>
  <g id="Portraits">
    <g id="K">
      <g id="Tiles">
        <g id="K-11">
          <path class="cls-1" d="m159.21,117.1c-1.97,15.17-4.29,29.49-6.94,42.99,7.38-4.84,12.25-13.17,12.25-22.65V27.07c0-4.21-.96-8.19-2.67-11.74,3.37,27.58,2.69,60.87-2.64,101.77Z"/>
          <path class="cls-2" d="m0,27.07v110.38c0,14.95,12.12,27.07,27.07,27.07h110.38c5.47,0,10.56-1.63,14.82-4.42,2.65-13.51,4.97-27.83,6.94-42.99,5.32-40.9,6.01-74.19,2.64-101.77-4.37-9.07-13.65-15.33-24.4-15.33H27.07C12.12,0,0,12.12,0,27.07Zm109.79,49.84c-.03-.06-3.88-7.37-20.2-10.72,3.46,2.56,5.71,6.65,5.71,11.28,0,7.75-6.28,14.03-14.03,14.03s-14.03-6.28-14.03-14.03c0-5.62,3.32-10.46,8.09-12.7-15.58.19-22.97,6.62-23.06,6.69l-2.84-3.12c.46-.42,11.45-10.18,34.99-7.26,23.73,2.95,28.97,13.6,29.19,14.05l-3.82,1.79ZM45.33,25.62c.58-.67,14.59-16.46,46.63-14.87,32.31,1.62,45.63,25.13,46.19,26.13,1.12,2.04.38,4.6-1.66,5.73-.65.36-1.34.52-2.03.52-1.49,0-2.93-.79-3.7-2.18-.46-.82-11.75-20.4-39.22-21.78-14.48-.73-24.55,2.58-30.45,5.47-6.36,3.13-9.38,6.47-9.4,6.51-1.54,1.73-4.2,1.91-5.94.38-1.74-1.53-1.94-4.16-.42-5.92Z"/>
          <path class="cls-3" d="m51.69,31.15s3.04-3.38,9.4-6.51c5.89-2.9,15.96-6.2,30.45-5.47,27.48,1.37,38.76,20.96,39.22,21.78.77,1.39,2.21,2.18,3.7,2.18.69,0,1.39-.17,2.03-.52,2.04-1.12,2.78-3.69,1.66-5.73-.55-1-13.87-24.51-46.19-26.13-32.05-1.6-46.05,14.19-46.63,14.87-1.51,1.75-1.32,4.39.42,5.92,1.74,1.53,4.4,1.35,5.94-.38Z"/>
          <path class="cls-4" d="m84.43,61.07c-23.54-2.92-34.53,6.85-34.99,7.26l2.84,3.12c.08-.08,7.48-6.51,23.06-6.69,1.81-.85,3.81-1.33,5.94-1.33,3.12,0,5.99,1.03,8.32,2.75,16.32,3.35,20.17,10.67,20.2,10.72l3.82-1.79c-.21-.45-5.46-11.1-29.19-14.05Z"/>
          <path class="cls-4" d="m75.33,64.76c-4.78,2.24-8.09,7.08-8.09,12.7,0,7.75,6.28,14.03,14.03,14.03s14.03-6.28,14.03-14.03c0-4.63-2.25-8.72-5.71-11.28-2.33-1.72-5.2-2.75-8.32-2.75-2.13,0-4.13.49-5.94,1.33Z"/>
        </g>
      </g>
    </g>
  </g>
</svg>