<?xml version="1.0" encoding="UTF-8"?>
<svg id="Layer_2" data-name="Layer 2" xmlns="http://www.w3.org/2000/svg" viewBox="0 0 164.52 164.52">
  <defs>
    <style>
      .cls-1 {
        fill: #494778;
      }

      .cls-1, .cls-2, .cls-3, .cls-4 {
        stroke-width: 0px;
      }

      .cls-2 {
        fill: #492b22;
      }

      .cls-3 {
        fill: #704b3e;
      }

      .cls-4 {
        fill: #684235;
      }
    </style>
  </defs>
  <g id="Portraits">
    <g id="K">
      <g id="Tiles">
        <g id="K-15">
          <path class="cls-1" d="m150.34,3.26c-13.54,63.15-34.98,107.27-64.73,133.64-.55,8.31-1.07,17.96-1.32,27.61h53.15c14.95,0,27.07-12.12,27.07-27.07V27.07c0-10.28-5.73-19.22-14.18-23.81Z"/>
          <path class="cls-4" d="m28.91,164.52h55.39c.25-9.65.77-19.3,1.32-27.61-16.37,14.51-35.25,23.64-56.71,27.61Z"/>
          <path class="cls-3" d="m150.34,3.26c-3.83-2.08-8.23-3.26-12.89-3.26H27.07C16.77,0,7.81,5.76,3.23,14.23c10.15-1.73,19.43-7.18,25.28-12.67.85-.79,2.18-.75,2.98.1.8.85.75,2.18-.1,2.98C22.4,13.08,12.04,17.94,1.3,18.78c-.84,2.61-1.3,5.4-1.3,8.29v48.27c.62,0,1.23.02,1.86.01,18.03-.12,31.47-3.46,39.58-6.24,8.78-3.01,13.36-6.03,13.4-6.06.97-.65,2.28-.39,2.92.58s.39,2.27-.58,2.92c-.78.52-19.43,12.76-55.3,13.01-.34,0-.68,0-1.02,0-.29,0-.58,0-.87,0v57.89c0,14.95,12.12,27.07,27.07,27.07h1.84c21.46-3.97,40.34-13.1,56.71-27.61,29.74-26.37,51.19-70.49,64.73-133.64Z"/>
          <path class="cls-2" d="m31.4,4.64c.85-.8.89-2.13.1-2.98-.8-.85-2.13-.89-2.98-.1C22.67,7.05,13.39,12.5,3.23,14.23c-.78,1.44-1.43,2.97-1.94,4.55,10.74-.85,21.1-5.7,30.1-14.14Z"/>
          <path class="cls-2" d="m1.89,79.56c35.87-.24,54.52-12.49,55.3-13.01.97-.65,1.22-1.95.58-2.92s-1.96-1.23-2.92-.58c-.04.03-4.62,3.05-13.4,6.06-8.1,2.78-21.55,6.11-39.58,6.24-.63,0-1.24,0-1.86-.01v4.22c.29,0,.57,0,.87,0,.34,0,.68,0,1.02,0Z"/>
        </g>
      </g>
    </g>
  </g>
</svg>