<?xml version="1.0" encoding="UTF-8"?>
<svg id="Layer_2" data-name="Layer 2" xmlns="http://www.w3.org/2000/svg" viewBox="0 0 164.52 164.52">
  <defs>
    <style>
      .cls-1 {
        fill: #494778;
      }

      .cls-1, .cls-2, .cls-3, .cls-4 {
        stroke-width: 0px;
      }

      .cls-2 {
        fill: #275a8a;
      }

      .cls-3 {
        fill: #684235;
      }

      .cls-4 {
        fill: #ffdb77;
      }
    </style>
  </defs>
  <g id="Portraits">
    <g id="K">
      <g id="Tiles">
        <g id="K-18">
          <path class="cls-4" d="m158.16,96.12c-.28-.05-.55-.11-.83-.17.27.06.55.11.83.17Z"/>
          <path class="cls-4" d="m160.33,96.54c-.3-.06-.59-.11-.88-.17.29.06.59.11.88.17Z"/>
          <path class="cls-4" d="m162.56,96.96c-.3-.06-.6-.11-.9-.17.3.06.6.11.9.17Z"/>
          <path class="cls-4" d="m164.52,97.32h0c-.17-.03-.34-.06-.51-.09.17.03.34.06.51.09Z"/>
          <path class="cls-4" d="m156.04,95.69c-.24-.05-.48-.1-.72-.15.24.05.48.1.72.15Z"/>
          <path class="cls-4" d="m143.89,92.68c-.14-.04-.28-.09-.41-.13.13.04.28.09.41.13Z"/>
          <path class="cls-4" d="m148.25,93.91c-.21-.05-.41-.11-.62-.16.2.05.41.11.62.16Z"/>
          <path class="cls-4" d="m146.71,93.5c-.2-.05-.39-.11-.58-.16.19.05.39.11.58.16Z"/>
          <path class="cls-4" d="m153.71,95.19c-.1-.02-.2-.04-.3-.07.1.02.2.04.3.07Z"/>
          <path class="cls-4" d="m145.28,93.1c-.18-.05-.36-.1-.53-.15.17.05.35.1.53.15Z"/>
          <path class="cls-4" d="m149.88,94.31c-.21-.05-.42-.1-.63-.16.21.05.42.1.63.16Z"/>
          <path class="cls-4" d="m151.6,94.72c-.19-.04-.36-.08-.54-.13.18.04.36.09.54.13Z"/>
          <path class="cls-1" d="m87.58,44.71c4.12,11.53,14.82,25.73,23.93,36.49,8.78,3.14,17.98,6.42,26.49,9.44,1.46.52,2.9,1.03,4.32,1.53.37.13.75.26,1.16.39.13.04.28.09.41.13.28.09.56.18.85.26.17.05.35.1.53.15.28.08.56.16.85.24.19.05.39.11.58.16.3.08.61.16.92.25.2.05.41.11.62.16.32.08.66.17,1,.25.21.05.42.1.63.16.38.09.78.19,1.18.28.18.04.36.09.54.13.59.14,1.19.27,1.81.41.1.02.2.04.3.07.53.11,1.06.23,1.61.35.24.05.48.1.72.15.43.09.85.18,1.29.27.27.06.55.11.83.17.42.08.85.17,1.29.25.29.06.59.11.88.17.44.08.88.17,1.33.25.3.06.6.11.9.17.47.09.96.18,1.44.26.17.03.34.06.51.09V27.07c0-14.95-12.12-27.07-27.07-27.07h-53.2c-.4,18.09.19,35.91,3.33,44.71Z"/>
          <path class="cls-2" d="m27.07,164.52h110.38c14.95,0,27.07-12.12,27.07-27.07v-40.13c-.17-.03-.34-.06-.51-.09-.49-.09-.97-.18-1.44-.26-.3-.06-.6-.11-.9-.17-.45-.08-.89-.17-1.33-.25-.3-.06-.59-.11-.88-.17-.43-.08-.86-.17-1.29-.25-.28-.05-.55-.11-.83-.17-.44-.09-.87-.18-1.29-.27-.24-.05-.49-.1-.72-.15-.55-.12-1.08-.23-1.61-.35-.1-.02-.2-.04-.3-.07-.62-.14-1.22-.27-1.81-.41-.19-.04-.36-.08-.54-.13-.4-.09-.79-.19-1.18-.28-.21-.05-.42-.1-.63-.16-.34-.08-.67-.17-1-.25-.21-.05-.41-.11-.62-.16-.31-.08-.62-.16-.92-.25-.2-.05-.39-.11-.58-.16-.29-.08-.57-.16-.85-.24-.18-.05-.36-.1-.53-.15-.29-.09-.57-.18-.85-.26-.14-.04-.28-.09-.41-.13-.4-.13-.79-.26-1.16-.39-1.42-.5-2.86-1.01-4.32-1.53-8.52-3.02-17.71-6.29-26.49-9.44,8.02,9.48,14.82,16.3,14.82,16.3,0,0-34.32,53.31-121.76,52.43-.51,0-1.01,0-1.51,0,4.51,8.67,13.57,14.59,24.02,14.59Z"/>
          <path class="cls-3" d="m126.33,97.49s-6.79-6.82-14.82-16.3c-9.11-10.77-19.81-24.96-23.93-36.49-3.14-8.79-3.74-26.62-3.33-44.71H27.07C12.12,0,0,12.12,0,27.07v110.38c0,4.5,1.1,8.74,3.05,12.48.51,0,1,0,1.51,0,87.45.88,121.76-52.43,121.76-52.43Z"/>
        </g>
      </g>
    </g>
  </g>
</svg>