<?xml version="1.0" encoding="UTF-8"?>
<svg id="Layer_2" data-name="Layer 2" xmlns="http://www.w3.org/2000/svg" viewBox="0 0 164.52 164.52">
  <defs>
    <style>
      .cls-1 {
        fill: #494778;
      }

      .cls-1, .cls-2 {
        stroke-width: 0px;
      }

      .cls-2 {
        fill: #ffdb77;
      }
    </style>
  </defs>
  <g id="Portraits">
    <g id="K">
      <g id="Tiles">
        <g id="K-4">
          <path class="cls-2" d="m28.08,164.52h109.37c14.95,0,27.07-12.12,27.07-27.07V27.07c0-14.95-12.12-27.07-27.07-27.07H27.07C12.12,0,0,12.12,0,27.07v110.38c0,1.23.09,2.43.25,3.61,1.55,2.57,3.05,5.17,4.44,7.75,6.15,3.12,14.58,8.15,23.4,15.7Z"/>
          <path class="cls-1" d="m8.92,157.53c4.8,4.34,11.16,6.99,18.15,6.99h1.01c-8.82-7.55-17.24-12.59-23.4-15.7,1.58,2.95,3.02,5.88,4.24,8.72Z"/>
          <path class="cls-1" d="m8.92,157.53c-1.22-2.83-2.66-5.76-4.24-8.72-1.39-2.59-2.88-5.19-4.44-7.75.87,6.5,4.04,12.28,8.68,16.47Z"/>
        </g>
      </g>
    </g>
  </g>
</svg>