<?xml version="1.0" encoding="UTF-8"?>
<svg id="Layer_2" data-name="Layer 2" xmlns="http://www.w3.org/2000/svg" viewBox="0 0 164.52 164.52">
  <defs>
    <style>
      .cls-1 {
        fill: #494778;
      }

      .cls-1, .cls-2 {
        stroke-width: 0px;
      }

      .cls-2 {
        fill: #ffdb77;
      }
    </style>
  </defs>
  <g id="Portraits">
    <g id="K">
      <g id="Tiles">
        <g id="K-8">
          <path class="cls-2" d="m137.45,0H30.04c14.15,12.65,28.95,31.84,36.83,60.1,18.35,65.8,35.34,93.76,43.61,104.42h26.96c14.95,0,27.07-12.12,27.07-27.07V27.07c0-14.95-12.12-27.07-27.07-27.07Z"/>
          <path class="cls-1" d="m30.04,0h-2.97c-5.22,0-10.09,1.48-14.23,4.04.56,4.12.06,7.55-1.96,9.84-1.96,2.23-4.85,2.82-8.56,2.22-1.49,3.35-2.32,7.06-2.32,10.96v110.38c0,14.95,12.12,27.07,27.07,27.07h83.42c-8.27-10.65-25.27-38.61-43.61-104.42C59,31.84,44.19,12.65,30.04,0Z"/>
          <path class="cls-1" d="m10.88,13.88c2.01-2.29,2.52-5.72,1.96-9.84-4.61,2.86-8.3,7.06-10.52,12.07,3.72.6,6.6.01,8.56-2.22Z"/>
        </g>
      </g>
    </g>
  </g>
</svg>