<?xml version="1.0" encoding="UTF-8"?>
<svg id="Layer_2" data-name="Layer 2" xmlns="http://www.w3.org/2000/svg" viewBox="0 0 164.52 164.52">
  <defs>
    <style>
      .cls-1 {
        fill: #494778;
      }

      .cls-1, .cls-2 {
        stroke-width: 0px;
      }

      .cls-2 {
        fill: #ffdb77;
      }
    </style>
  </defs>
  <g id="Portraits">
    <g id="K">
      <g id="Tiles">
        <g id="K-12">
          <path class="cls-2" d="m137.45,0h-25.58c2.49,3,3.89,4.08,3.89,4.08,11.55,60.44-10.67,94.21-10.67,140.43,0,7.97,1,14.45,2.73,20.01h29.62c14.95,0,27.07-12.12,27.07-27.07V27.07c0-14.95-12.12-27.07-27.07-27.07Z"/>
          <path class="cls-1" d="m115.76,4.08s-1.4-1.08-3.89-4.08H27.07C12.12,0,0,12.12,0,27.07v110.38c0,14.95,12.12,27.07,27.07,27.07h80.76c-1.73-5.56-2.73-12.04-2.73-20.01,0-46.22,22.22-79.99,10.67-140.43Z"/>
        </g>
      </g>
    </g>
  </g>
</svg>