<?xml version="1.0" encoding="UTF-8"?>
<svg id="Layer_2" data-name="Layer 2" xmlns="http://www.w3.org/2000/svg" viewBox="0 0 164.52 164.52">
  <defs>
    <style>
      .cls-1 {
        fill: #494778;
      }

      .cls-1, .cls-2 {
        stroke-width: 0px;
      }

      .cls-2 {
        fill: #ffdb77;
      }
    </style>
  </defs>
  <g id="Portraits">
    <g id="K">
      <g id="Tiles">
        <g id="K-16">
          <path class="cls-2" d="m137.45,0h-29.05c8.82,25.2,33.01,31.09,43.8,74.27,7.97,31.89,7.04,60.36,4.63,82.07,4.75-4.88,7.69-11.54,7.69-18.89V27.07c0-14.95-12.12-27.07-27.07-27.07Z"/>
          <path class="cls-1" d="m152.2,74.27C141.41,31.09,117.22,25.2,108.4,0H27.07C12.12,0,0,12.12,0,27.07v110.38c0,14.95,12.12,27.07,27.07,27.07h110.38c7.6,0,14.47-3.14,19.38-8.18,2.41-21.71,3.34-50.18-4.63-82.07Z"/>
        </g>
      </g>
    </g>
  </g>
</svg>