<?xml version="1.0" encoding="UTF-8"?>
<svg id="Layer_2" data-name="Layer 2" xmlns="http://www.w3.org/2000/svg" viewBox="0 0 164.23 164.52">
  <defs>
    <style>
      .cls-1 {
        fill: #494778;
      }

      .cls-1, .cls-2 {
        stroke-width: 0px;
      }

      .cls-2 {
        fill: #ffdb77;
      }
    </style>
  </defs>
  <g id="Portraits">
    <g id="K">
      <g id="Tiles">
        <g id="K-9">
          <path class="cls-2" d="m0,23.13v118.25c1.91,13.08,13.17,23.13,26.78,23.13h41.65c1.31-5.02,2.06-10.77,2.06-17.64,0-46.22-22.22-79.99-10.67-140.43,0,0,2.12-1.63,5.78-6.45H26.78C13.17,0,1.91,10.05,0,23.13Z"/>
          <path class="cls-1" d="m59.83,6.45c-11.55,60.44,10.67,94.21,10.67,140.43,0,6.86-.75,12.62-2.06,17.64h68.72c14.95,0,27.07-12.12,27.07-27.07V27.07c0-14.95-12.12-27.07-27.07-27.07h-71.55c-3.66,4.82-5.78,6.45-5.78,6.45Z"/>
        </g>
      </g>
    </g>
  </g>
</svg>