<?xml version="1.0" encoding="UTF-8"?>
<svg id="Layer_2" data-name="Layer 2" xmlns="http://www.w3.org/2000/svg" viewBox="0 0 164.23 164.52">
  <defs>
    <style>
      .cls-1 {
        fill: #494778;
      }

      .cls-1, .cls-2 {
        stroke-width: 0px;
      }

      .cls-2 {
        fill: #ffdb77;
      }
    </style>
  </defs>
  <g id="Portraits">
    <g id="K">
      <g id="Tiles">
        <g id="K-13">
          <path class="cls-2" d="m0,23.13v118.25c1.54,10.6,9.23,19.2,19.33,22.09-2.79-22.23-4.51-52.55,4.06-86.84C34.51,32.15,59.86,27.25,67.96,0H26.78C13.17,0,1.91,10.05,0,23.13Z"/>
          <path class="cls-1" d="m19.33,163.48c2.37.68,4.87,1.04,7.46,1.04h110.38c14.95,0,27.07-12.12,27.07-27.07V27.07c0-14.95-12.12-27.07-27.07-27.07h-69.2c-8.09,27.25-33.44,32.15-44.57,76.64-8.57,34.28-6.85,64.61-4.06,86.84Z"/>
        </g>
      </g>
    </g>
  </g>
</svg>