<?xml version="1.0" encoding="UTF-8"?>
<svg id="Layer_2" data-name="Layer 2" xmlns="http://www.w3.org/2000/svg" viewBox="0 0 164.52 164.52">
  <defs>
    <style>
      .cls-1 {
        fill: #494778;
      }

      .cls-1, .cls-2 {
        stroke-width: 0px;
      }

      .cls-2 {
        fill: #ffdb77;
      }
    </style>
  </defs>
  <g id="Portraits">
    <g id="K">
      <g id="Tiles">
        <g id="K-2">
          <path class="cls-2" d="m137.45,0H27.07C12.12,0,0,12.12,0,27.07v110.38c0,14.95,12.12,27.07,27.07,27.07h31.51c5.5-2.63,11.82-5.63,19.19-9.17,76.07-36.5,69.05-35.6,76.44-37.33,3.42-.8,6.86-1.42,10.3-1.89V27.07c0-14.95-12.12-27.07-27.07-27.07Z"/>
          <path class="cls-1" d="m77.78,155.35c-7.38,3.54-13.69,6.53-19.19,9.17h78.87c14.95,0,27.07-12.12,27.07-27.07v-21.31c-3.45.47-6.88,1.09-10.3,1.89-7.38,1.73-.36.83-76.44,37.33Z"/>
        </g>
      </g>
    </g>
  </g>
</svg>