<?xml version="1.0" encoding="UTF-8"?>
<svg id="Layer_2" data-name="Layer 2" xmlns="http://www.w3.org/2000/svg" viewBox="0 0 164.52 164.52">
  <defs>
    <style>
      .cls-1 {
        fill: #494778;
      }

      .cls-1, .cls-2, .cls-3 {
        stroke-width: 0px;
      }

      .cls-2 {
        fill: #704b3e;
      }

      .cls-3 {
        fill: #ffdb77;
      }
    </style>
  </defs>
  <g id="Portraits">
    <g id="K">
      <g id="Tiles">
        <g id="K-6">
          <path class="cls-3" d="m0,27.07v22.85c4.56-8.89,10.74-18.17,19.12-27.02C27.68,13.86,36.01,9.16,55.01,0h-27.94C12.12,0,0,12.12,0,27.07Z"/>
          <path class="cls-2" d="m42.65,164.52h94.8c14.95,0,27.07-12.12,27.07-27.07V58.23c-28.11,13.47-53.82,38.09-88.52,71.32-12.45,11.92-23.53,23.7-33.35,34.97Z"/>
          <path class="cls-1" d="m19.12,22.89C10.74,31.74,4.56,41.03,0,49.92v87.53c0,14.95,12.12,27.07,27.07,27.07h15.58c9.82-11.27,20.91-23.05,33.35-34.97,34.69-33.23,60.4-57.85,88.52-71.32v-31.16c0-14.95-12.12-27.07-27.07-27.07H55.01c-19,9.16-27.34,13.86-35.9,22.89Z"/>
        </g>
      </g>
    </g>
  </g>
</svg>