<?xml version="1.0" encoding="UTF-8"?>
<svg id="Layer_2" data-name="Layer 2" xmlns="http://www.w3.org/2000/svg" viewBox="0 0 164.52 164.52">
  <defs>
    <style>
      .cls-1 {
        fill: #494778;
      }

      .cls-1, .cls-2, .cls-3, .cls-4, .cls-5 {
        stroke-width: 0px;
      }

      .cls-2 {
        fill: #492b22;
      }

      .cls-3 {
        fill: #704b3e;
      }

      .cls-4 {
        fill: #2e2e59;
      }

      .cls-5 {
        fill: #1a1a1a;
      }
    </style>
  </defs>
  <g id="Portraits">
    <g id="K">
      <g id="Tiles">
        <g id="K-10">
          <path class="cls-1" d="m13.02,35.47c-4.33,5.96-8.22,11.57-11.68,16.73l-1.34-11.74v96.99c0,14.31,11.1,26.01,25.16,27-3.02-14.78-5.63-30.55-7.82-47.37-4.09-31.4-5.44-58.31-4.32-81.61Z"/>
          <path class="cls-3" d="m17.34,117.08c2.19,16.81,4.8,32.59,7.82,47.37.63.04,1.27.07,1.91.07h107.37c.15-.67.38-1.33.71-1.96,5.69-10.57,22.67-50.71,22.84-51.11.45-1.07,1.69-1.57,2.76-1.12,1.07.45,1.57,1.69,1.12,2.76-.7,1.65-17.15,40.54-22.97,51.39,14.27-.76,25.61-12.57,25.61-27.03V27.07c0-14.95-12.12-27.07-27.07-27.07H41.15c-10.94,12.66-20.27,24.65-28.13,35.47-1.12,23.29.23,50.2,4.32,81.61Zm115.41-47.02l-1.42,1.55c-.08-.08-7.43-6.55-22.99-6.84,4.74,2.25,8.02,7.07,8.02,12.67,0,7.75-6.28,14.03-14.03,14.03s-14.03-6.28-14.03-14.03c0-4.67,2.29-8.8,5.8-11.35-16.36,3.23-20.29,10.52-20.33,10.6l-3.81-1.81c.21-.45,5.53-11.07,29.28-13.86,23.56-2.76,34.49,7.07,34.94,7.49l-1.43,1.55ZM43.91,35.83c.55-.96,13.88-23.49,46.15-25.1,32.04-1.6,46.05,14.19,46.63,14.87,1.52,1.76,1.33,4.42-.43,5.95-1.76,1.52-4.4,1.33-5.93-.42-.1-.11-3.11-3.41-9.4-6.5-5.89-2.9-15.96-6.2-30.45-5.47-27.72,1.39-39.15,20.69-39.26,20.89-.78,1.35-2.2,2.11-3.66,2.11-.71,0-1.44-.18-2.1-.56-2.02-1.16-2.71-3.74-1.55-5.76Z"/>
          <path class="cls-1" d="m1.34,52.2c3.46-5.16,7.35-10.76,11.68-16.73C20.88,24.65,30.21,12.66,41.15,0h-14.08C12.12,0,0,12.12,0,27.07v13.39l1.34,11.74Z"/>
          <path class="cls-4" d="m45.46,41.59c.66.38,1.39.56,2.1.56,1.46,0,2.88-.76,3.66-2.11.11-.2,11.54-19.5,39.26-20.89,14.49-.73,24.55,2.58,30.45,5.47,6.29,3.09,9.3,6.39,9.4,6.5,1.53,1.75,4.17,1.93,5.93.42,1.76-1.52,1.96-4.18.43-5.95-.58-.67-14.59-16.47-46.63-14.87-32.26,1.61-45.59,24.14-46.15,25.1-1.16,2.02-.47,4.6,1.55,5.76Z"/>
          <path class="cls-2" d="m160.76,110.33c-1.07-.45-2.31.05-2.76,1.12-.17.4-17.15,40.54-22.84,51.11-.34.63-.57,1.28-.71,1.96h3.01c.49,0,.98-.01,1.46-.04,5.82-10.85,22.27-49.74,22.97-51.39.45-1.07-.05-2.31-1.12-2.76Z"/>
          <path class="cls-5" d="m99.24,61.02c-23.75,2.79-29.06,13.41-29.28,13.86l3.81,1.81c.04-.08,3.97-7.37,20.33-10.6,2.31-1.68,5.15-2.68,8.23-2.68,2.15,0,4.18.5,6.01,1.37,15.57.29,22.91,6.77,22.99,6.84l1.42-1.55,1.43-1.55c-.45-.42-11.38-10.25-34.94-7.49Z"/>
          <path class="cls-5" d="m94.09,66.08c-3.51,2.55-5.8,6.68-5.8,11.35,0,7.75,6.28,14.03,14.03,14.03s14.03-6.28,14.03-14.03c0-5.6-3.28-10.41-8.02-12.67-1.82-.87-3.85-1.37-6.01-1.37-3.08,0-5.91,1-8.23,2.68Z"/>
        </g>
      </g>
    </g>
  </g>
</svg>