<?xml version="1.0" encoding="UTF-8"?>
<svg id="Layer_2" data-name="Layer 2" xmlns="http://www.w3.org/2000/svg" viewBox="0 0 164.52 164.52">
  <defs>
    <style>
      .cls-1 {
        fill: #494778;
      }

      .cls-1, .cls-2, .cls-3, .cls-4 {
        stroke-width: 0px;
      }

      .cls-2 {
        fill: #492b22;
      }

      .cls-3 {
        fill: #704b3e;
      }

      .cls-4 {
        fill: #684235;
      }
    </style>
  </defs>
  <g id="Portraits">
    <g id="K">
      <g id="Tiles">
        <g id="K-14">
          <path class="cls-1" d="m0,137.45c0,14.95,12.12,27.07,27.07,27.07h65.19c-.25-9.66-.77-19.32-1.32-27.64C60.7,110.07,39.03,64.9,25.54.05,11.3.84,0,12.63,0,27.07v110.38Z"/>
          <path class="cls-4" d="m92.26,164.52h45.19c2.22,0,4.38-.27,6.45-.78-19.91-4.31-37.55-13.2-52.96-26.86.55,8.32,1.07,17.98,1.32,27.64Z"/>
          <path class="cls-3" d="m90.94,136.88c15.41,13.66,33.04,22.55,52.96,26.86,11.84-2.89,20.62-13.56,20.62-26.29v-57.96c-32.75-.85-49.52-12.47-50.25-12.99-.95-.67-1.17-1.99-.5-2.94.67-.95,1.99-1.17,2.94-.5.06.04,4.55,3.17,13.22,6.22,7.29,2.57,19,5.53,34.59,5.98V27.07c0-2.87-.45-5.64-1.28-8.23-8.15-.4-15.96-3.08-21.8-7.58-4.62-3.55-7.14-7.61-7.18-11.26H27.07c-.51,0-1.02.02-1.53.05,13.5,64.85,35.16,110.02,65.4,136.83Z"/>
          <path class="cls-3" d="m144.01,7.92c5.55,4.27,11.54,6.28,17.49,6.74C157.15,6.25,148.53.41,138.5.03c.07,2.3,2.08,5.25,5.51,7.89Z"/>
          <path class="cls-2" d="m141.44,11.26c5.84,4.49,13.65,7.18,21.8,7.58-.46-1.45-1.05-2.85-1.74-4.18-5.95-.46-11.94-2.47-17.49-6.74-3.44-2.64-5.44-5.59-5.51-7.89-.35-.01-.7-.03-1.05-.03h-3.18c.04,3.65,2.56,7.71,7.18,11.26Z"/>
          <path class="cls-2" d="m116.7,63.06c-.95-.67-2.26-.45-2.94.5-.67.95-.45,2.26.5,2.94.73.52,17.5,12.14,50.25,12.99v-4.23c-15.59-.45-27.3-3.41-34.59-5.98-8.67-3.05-13.16-6.18-13.22-6.22Z"/>
        </g>
      </g>
    </g>
  </g>
</svg>