<?xml version="1.0" encoding="UTF-8"?>
<svg id="Layer_2" data-name="Layer 2" xmlns="http://www.w3.org/2000/svg" viewBox="0 0 164.52 164.52">
  <defs>
    <style>
      .cls-1 {
        fill: #494778;
      }

      .cls-1, .cls-2, .cls-3, .cls-4 {
        stroke-width: 0px;
      }

      .cls-2 {
        fill: #275a8a;
      }

      .cls-3 {
        fill: #684235;
      }

      .cls-4 {
        fill: #ffdb77;
      }
    </style>
  </defs>
  <g id="Portraits">
    <g id="K">
      <g id="Tiles">
        <g id="K-17">
          <path class="cls-4" d="m33.03,92.54c-.14.04-.28.09-.43.13.14-.04.29-.09.43-.13Z"/>
          <path class="cls-4" d="m31.7,92.95c-.17.05-.35.1-.52.15.18-.05.35-.1.52-.15Z"/>
          <path class="cls-4" d="m26.42,94.35c-.11.03-.23.05-.34.08.11-.03.23-.05.34-.08Z"/>
          <path class="cls-4" d="m28.59,93.81c-.16.04-.32.08-.49.13.17-.04.32-.08.49-.13Z"/>
          <path class="cls-4" d="m30.25,93.36c-.18.05-.37.1-.56.15.19-.05.37-.1.56-.15Z"/>
          <path class="cls-4" d="m55.71,84.51c-.32.11-.63.23-.95.34.32-.11.63-.23.95-.34Z"/>
          <path class="cls-4" d="m41.89,89.43c-.31.11-.61.22-.92.32.3-.11.61-.22.92-.32Z"/>
          <path class="cls-4" d="m64.71,81.29c-.27.09-.53.19-.8.28.27-.1.53-.19.8-.28Z"/>
          <path class="cls-4" d="m46.54,87.77c-.36.13-.72.25-1.08.38.36-.13.72-.25,1.08-.38Z"/>
          <path class="cls-4" d="m50.96,86.2c-.32.11-.63.22-.95.34.32-.11.63-.22.95-.34Z"/>
          <path class="cls-4" d="m15.54,96.65c-.21.04-.43.08-.65.12.21-.04.43-.08.65-.12Z"/>
          <path class="cls-4" d="m5.39,98.45c-.26.04-.51.09-.77.13.26-.04.51-.09.77-.13Z"/>
          <path class="cls-4" d="m2.01,99c-.33.05-.67.11-1.01.16.34-.05.68-.11,1.01-.16Z"/>
          <path class="cls-4" d="m8.24,97.96c-.34.06-.67.12-1.02.17.34-.06.68-.12,1.02-.17Z"/>
          <path class="cls-4" d="m34.22,92.14s0,0,0,0c1.58-.56,3.2-1.13,4.84-1.71-1.64.58-3.26,1.15-4.84,1.71,0,0,0,0,0,0Z"/>
          <path class="cls-4" d="m24.62,94.77c-.22.05-.45.1-.67.15.22-.05.45-.1.67-.15Z"/>
          <path class="cls-4" d="m18.35,96.1c-.21.04-.41.08-.62.12.21-.04.41-.08.62-.12Z"/>
          <path class="cls-4" d="m20.66,95.63c-.26.05-.52.11-.79.16.27-.05.53-.11.79-.16Z"/>
          <path class="cls-4" d="m22.7,95.2c-.25.05-.51.11-.77.17.26-.05.51-.11.77-.17Z"/>
          <path class="cls-4" d="m13.2,97.08c-.3.05-.6.11-.91.16.3-.05.61-.11.91-.16Z"/>
          <path class="cls-4" d="m10.79,97.52c-.34.06-.68.12-1.03.18.35-.06.69-.12,1.03-.18Z"/>
          <path class="cls-1" d="m2.01,99c.88-.14,1.75-.28,2.61-.42.26-.04.51-.09.77-.13.62-.1,1.23-.21,1.84-.31.34-.06.68-.12,1.02-.17.51-.09,1.02-.18,1.52-.26.35-.06.69-.12,1.03-.18.51-.09,1.01-.18,1.51-.27.3-.05.61-.11.91-.16.57-.1,1.13-.21,1.69-.31.21-.04.43-.08.65-.12.75-.14,1.48-.28,2.2-.43.21-.04.41-.08.62-.12.51-.1,1.02-.2,1.51-.31.27-.05.53-.11.79-.16.43-.09.86-.18,1.28-.27.26-.05.51-.11.77-.17.42-.09.84-.18,1.25-.28.22-.05.45-.1.67-.15.5-.11.99-.23,1.46-.34.11-.03.23-.05.34-.08.58-.14,1.13-.28,1.68-.41.17-.04.32-.08.49-.13.37-.1.74-.19,1.1-.29.19-.05.37-.1.56-.15.32-.09.63-.18.93-.26.18-.05.35-.1.52-.15.31-.09.61-.18.9-.28.14-.04.29-.09.43-.13.41-.13.81-.27,1.19-.4,0,0,0,0,0,0,1.58-.56,3.2-1.13,4.84-1.71.63-.22,1.27-.45,1.9-.67.3-.11.61-.22.92-.32,1.18-.42,2.37-.84,3.57-1.27.36-.13.72-.25,1.08-.38,1.16-.41,2.32-.82,3.48-1.24.32-.11.63-.22.95-.34,1.26-.45,2.53-.9,3.79-1.35.32-.11.63-.23.95-.34,2.75-.98,5.5-1.96,8.21-2.93.27-.1.53-.19.8-.28.11-.04.22-.08.33-.12,9.11-10.77,19.81-24.96,23.93-36.49,3.14-8.79,3.74-26.6,3.33-44.68H27.07C12.12,0,0,12.12,0,27.07v72.25c.34-.05.67-.11,1.01-.16.34-.05.68-.11,1.01-.16Z"/>
          <path class="cls-2" d="m27.07,164.52h110.38c10.53,0,19.64-6.01,24.12-14.78-79.76-3.22-111.34-52.27-111.34-52.27,0,0,6.79-6.82,14.82-16.3-.11.04-.22.08-.33.12-.27.09-.53.19-.8.28-2.71.97-5.46,1.95-8.21,2.93-.32.11-.63.23-.95.34-1.27.45-2.53.9-3.79,1.35-.32.11-.63.22-.95.34-1.17.41-2.33.83-3.48,1.24-.36.13-.72.25-1.08.38-1.2.43-2.39.85-3.57,1.27-.31.11-.61.22-.92.32-.64.23-1.27.45-1.9.67-1.64.58-3.26,1.15-4.84,1.71,0,0,0,0,0,0-.38.13-.77.27-1.19.4-.14.04-.28.09-.43.13-.29.09-.59.18-.9.28-.17.05-.35.1-.52.15-.3.09-.62.18-.93.26-.18.05-.37.1-.56.15-.36.1-.73.19-1.1.29-.16.04-.32.08-.49.13-.54.14-1.1.28-1.68.41-.11.03-.23.05-.34.08-.48.11-.96.23-1.46.34-.22.05-.45.1-.67.15-.41.09-.82.18-1.25.28-.25.05-.51.11-.77.17-.42.09-.85.18-1.28.27-.26.05-.52.11-.79.16-.5.1-1,.2-1.51.31-.21.04-.41.08-.62.12-.72.14-1.45.28-2.2.43-.21.04-.43.08-.65.12-.56.1-1.12.21-1.69.31-.3.05-.6.11-.91.16-.5.09-1,.18-1.51.27-.34.06-.68.12-1.03.18-.5.09-1.01.18-1.52.26-.34.06-.67.12-1.02.17-.61.1-1.22.21-1.84.31-.26.04-.51.09-.77.13-.86.14-1.73.28-2.61.42-.33.05-.67.11-1.01.16-.33.05-.67.11-1.01.16v38.13c0,14.95,12.12,27.07,27.07,27.07Z"/>
          <path class="cls-3" d="m88.97,44.68c-4.12,11.53-14.82,25.73-23.93,36.49-8.02,9.48-14.82,16.3-14.82,16.3,0,0,31.58,49.04,111.34,52.27,1.88-3.69,2.95-7.86,2.95-12.29V27.07c0-14.95-12.12-27.07-27.07-27.07h-45.15c.4,18.08-.19,35.89-3.33,44.68Z"/>
        </g>
      </g>
    </g>
  </g>
</svg>