<?xml version="1.0" encoding="UTF-8"?>
<svg id="Layer_2" data-name="Layer 2" xmlns="http://www.w3.org/2000/svg" xmlns:xlink="http://www.w3.org/1999/xlink" viewBox="0 0 725.54 836.54">
  <defs>
    <style>
      .cls-1 {
        clip-path: url(#clippath);
      }

      .cls-2, .cls-3, .cls-4, .cls-5, .cls-6 {
        fill: none;
      }

      .cls-2, .cls-7, .cls-8, .cls-9, .cls-10, .cls-11, .cls-12, .cls-13 {
        stroke-width: 0px;
      }

      .cls-3 {
        stroke-width: 3.37px;
      }

      .cls-3, .cls-4, .cls-5, .cls-6 {
        stroke-linecap: round;
        stroke-linejoin: round;
      }

      .cls-3, .cls-6 {
        stroke: #dba76d;
      }

      .cls-4 {
        stroke: #262260;
        stroke-width: 6.75px;
      }

      .cls-5 {
        stroke: #15153f;
      }

      .cls-5, .cls-6 {
        stroke-width: 4.22px;
      }

      .cls-7 {
        fill: #f9d584;
      }

      .cls-8 {
        fill: #fa9000;
      }

      .cls-9 {
        fill: #262260;
      }

      .cls-10 {
        fill: #15153f;
      }

      .cls-11 {
        fill: #e2bb6d;
      }

      .cls-12 {
        fill: #333;
      }

      .cls-13 {
        fill: #978882;
      }
    </style>
    <clipPath id="clippath">
      <path class="cls-2" d="m190.34,710.44c0,14.95-12.12,27.07-27.07,27.07H52.89c-13.61,0-24.87-10.05-26.78-23.13v-118.25c1.91-13.08,13.17-23.13,26.78-23.13h110.38c14.95,0,27.07,12.12,27.07,27.07v110.38Zm0-166.23c0,14.95-12.12,27.07-27.07,27.07H52.89c-13.61,0-24.87-10.05-26.78-23.13v-118.25c1.91-13.08,13.17-23.13,26.78-23.13h110.38c14.95,0,27.07,12.12,27.07,27.07v110.38Zm0-166.23c0,14.95-12.12,27.07-27.07,27.07H52.89c-13.61,0-24.87-10.05-26.78-23.13v-118.25c1.91-13.08,13.17-23.13,26.78-23.13h110.38c14.95,0,27.07,12.12,27.07,27.07v110.38Zm0-166.23c0,14.95-12.12,27.07-27.07,27.07H52.89c-13.61,0-24.87-10.05-26.78-23.13v-118.25c1.91-13.08,13.17-23.13,26.78-23.13h110.38c14.95,0,27.07,12.12,27.07,27.07v110.38Zm168.1,594.3c0,14.95-12.12,27.07-27.07,27.07h-110.38c-14.95,0-27.07-12.12-27.07-27.07v-110.38c0-14.95,12.12-27.07,27.07-27.07h110.38c14.95,0,27.07,12.12,27.07,27.07v110.38Zm0-166.23c0,14.95-12.12,27.07-27.07,27.07h-110.38c-14.95,0-27.07-12.12-27.07-27.07v-110.38c0-14.95,12.12-27.07,27.07-27.07h110.38c14.95,0,27.07,12.12,27.07,27.07v110.38Zm0-166.23c0,14.95-12.12,27.07-27.07,27.07h-110.38c-14.95,0-27.07-12.12-27.07-27.07v-110.38c0-14.95,12.12-27.07,27.07-27.07h110.38c14.95,0,27.07,12.12,27.07,27.07v110.38Zm0-166.23c0,14.95-12.12,27.07-27.07,27.07h-110.38c-14.95,0-27.07-12.12-27.07-27.07v-110.38c0-14.95,12.12-27.07,27.07-27.07h110.38c14.95,0,27.07,12.12,27.07,27.07v110.38Zm0-166.23c0,14.95-12.12,27.07-27.07,27.07h-110.38c-14.95,0-27.07-12.12-27.07-27.07V30.74c0-14.95,12.12-27.07,27.07-27.07h110.38c14.95,0,27.07,12.12,27.07,27.07v110.38Zm167.43,664.9c0,14.95-12.12,27.07-27.07,27.07h-110.38c-14.95,0-27.07-12.12-27.07-27.07v-110.38c0-14.95,12.12-27.07,27.07-27.07h110.38c14.95,0,27.07,12.12,27.07,27.07v110.38Zm0-166.23c0,14.95-12.12,27.07-27.07,27.07h-110.38c-14.95,0-27.07-12.12-27.07-27.07v-110.38c0-14.95,12.12-27.07,27.07-27.07h110.38c14.95,0,27.07,12.12,27.07,27.07v110.38Zm0-166.23c0,14.95-12.12,27.07-27.07,27.07h-110.38c-14.95,0-27.07-12.12-27.07-27.07v-110.38c0-14.95,12.12-27.07,27.07-27.07h110.38c14.95,0,27.07,12.12,27.07,27.07v110.38Zm0-166.23c0,14.95-12.12,27.07-27.07,27.07h-110.38c-14.95,0-27.07-12.12-27.07-27.07v-110.38c0-14.95,12.12-27.07,27.07-27.07h110.38c14.95,0,27.07,12.12,27.07,27.07v110.38Zm0-166.23c0,14.95-12.12,27.07-27.07,27.07h-110.38c-14.95,0-27.07-12.12-27.07-27.07V30.72c0-14.95,12.12-27.07,27.07-27.07h110.38c14.95,0,27.07,12.12,27.07,27.07v110.38Zm168.77,571.72c0,14.95-12.12,27.07-27.07,27.07h-110.38c-14.95,0-27.07-12.12-27.07-27.07v-110.38c0-14.95,12.12-27.07,27.07-27.07h110.38c14.95,0,27.07,12.12,27.07,27.07v110.38Zm0-166.23c0,14.95-12.12,27.07-27.07,27.07h-110.38c-14.95,0-27.07-12.12-27.07-27.07v-110.38c0-14.95,12.12-27.07,27.07-27.07h110.38c14.95,0,27.07,12.12,27.07,27.07v110.38Zm0-166.23c0,14.95-12.12,27.07-27.07,27.07h-110.38c-14.95,0-27.07-12.12-27.07-27.07v-110.38c0-14.95,12.12-27.07,27.07-27.07h110.38c14.95,0,27.07,12.12,27.07,27.07v110.38Zm0-166.23c0,14.95-12.12,27.07-27.07,27.07h-110.38c-14.95,0-27.07-12.12-27.07-27.07v-110.38c0-14.95,12.12-27.07,27.07-27.07h110.38c14.95,0,27.07,12.12,27.07,27.07v110.38Z"/>
    </clipPath>
  </defs>
  <g id="Layer_27" data-name="Layer 27">
    <g id="A">
      <g class="cls-1">
        <g>
          <rect class="cls-8" width="725.54" height="836.54"/>
          <g>
            <path id="Exercise_Bun" class="cls-10" d="m361.3,46.73s16.59-21.09,48.71-21.09c19.3,0,39.37,22.02,53.24,47.16,0,0,36.63-8.17,50.05,6.99,9.78,11.05-5.14,35.61,12.6,47.29,4.54,2.99,19.76,12.68,18.29,30.83-2.03,25,25.56,27.84-4.26,59.86-31.96,34.32-55.86,44.5-65.89,48.15-14.65,5.32-30.62,1.63-61.95-5.98-50.89-12.35-50-12.47-50-12.47l-.79-200.74Z"/>
            <path id="Exercise_Bun-2" data-name="Exercise_Bun" class="cls-10" d="m362.2,46.73s-16.59-21.09-48.71-21.09c-19.3,0-39.37,22.02-53.24,47.16,0,0-36.63-8.17-50.05,6.99-9.78,11.05,5.14,35.61-12.6,47.29-4.54,2.99-19.76,12.68-18.29,30.83,2.03,25-25.56,27.84,4.26,59.86,31.96,34.32,55.86,44.5,65.89,48.15,14.65,5.32,30.62,1.63,61.95-5.98,50.89-12.35,50-12.47,50-12.47l.79-200.74Z"/>
            <path id="Exercise_L_Shoulder" class="cls-11" d="m50.94,836.53s-21.12-96.96,57.6-123.07c113.42-37.62,156.99,8.47,174.92-28.01,17.93-36.48-3.23-134.26-3.23-134.26l82.02-12.4-.96,297.74H50.94Z"/>
            <path id="Exercise_L_Ear" class="cls-11" d="m208.23,523.53s-55.75-9.02-28.21-87.81c27.54-78.79,53.56-27.12,53.56-27.12l13.54,114.93h-38.89Z"/>
            <path id="Exercise_L_Face" class="cls-7" d="m364.17,143.57c-.96-.01-1.92-.04-2.88-.04-122.58,0-196.97,165.26-170.07,299.78,27.89,139.45,47.49,215.23,170.07,215.23.97,0,1.92-.03,2.88-.05V143.57Z"/>
            <path id="Exercise_L_Shirt" class="cls-13" d="m283.46,685.44s-13.76,96.74,49.96,120.1l28.83,10.57-.96,20.41H50.94s-23.97-89.74,57.65-125.14c33.86-14.69,174.87-25.94,174.87-25.94Z"/>
            <path id="Exercise_L_Hair" class="cls-9" d="m365.55,133.9c0-14.37-12.47-25.57-26.76-24.03-7.51.81-13.99,1.83-18.43,2.29-17.78,1.86-68.11,13.01-107.45,57.17-19.07,21.4-45.79,56.78-39.99,96.97,4.52,31.31-11.67,36.1-11.68,61.95-.03,58.38,25.85,36.7,2.1,88.19-11.36,24.63,33.47,52.04,37.71,25.26,2.51-15.85-11.09-50.81,16.31-82.4,26.08-30.08-2.91-72.76,62.05-73.83,51.11-.84,83.06-19.17,83.06-57.5l3.08-94.06Z"/>
            <path id="Exercise_R_Shoulder" class="cls-11" d="m672.6,836.53s20.13-96.96-58.59-123.07c-113.42-37.62-156.99,8.47-174.92-28.01-17.93-36.48,3.23-134.26,3.23-134.26l-82.02-12.4.99,297.74h311.31Z"/>
            <path id="Exercise_R_Ear" class="cls-11" d="m514.33,523.53s55.75-9.02,28.21-87.81c-27.54-78.79-53.56-27.12-53.56-27.12l-13.54,114.93h38.89Z"/>
            <path class="cls-7" d="m359.45,143.57c.96-.01,1.92-.04,2.88-.04,122.58,0,196.97,165.26,170.07,299.78-27.89,139.45-47.49,215.23-170.07,215.23-.97,0-1.92-.03-2.88-.05V143.57Z"/>
            <path class="cls-13" d="m439.09,685.44s13.76,96.74-49.96,120.1l-28.83,10.57.99,20.41h311.31s22.99-89.74-58.64-125.14c-33.86-14.69-174.87-25.94-174.87-25.94Z"/>
            <path id="Exercise_L_Hair-2" data-name="Exercise_L_Hair" class="cls-9" d="m355.04,133.9c0-14.37,12.47-25.57,26.76-24.03,7.51.81,13.99,1.83,18.43,2.29,17.78,1.86,68.11,13.01,107.45,57.17,19.07,21.4,45.79,56.78,39.99,96.97-4.52,31.31,11.67,36.1,11.68,61.95.03,58.38-25.85,36.7-2.1,88.19,11.36,24.63-33.47,52.04-37.71,25.26-2.51-15.85,11.09-50.81-16.31-82.4-26.08-30.08,2.91-72.76-62.05-73.83-51.11-.84-83.06-19.17-83.06-57.5l-3.08-94.06Z"/>
            <path class="cls-5" d="m412.14,419.64c3.96-4.15,12.29-11.7,25.2-15.65,20.05-6.13,37.02.76,41.74,2.88"/>
            <circle class="cls-12" cx="440.78" cy="415.52" r="14.38"/>
            <path class="cls-5" d="m318.8,419.02c-4.04-4.07-12.5-11.47-25.48-15.18-20.16-5.76-37,1.45-41.68,3.64"/>
            <circle class="cls-12" cx="290.1" cy="415.43" r="14.38"/>
            <path class="cls-3" d="m331.59,500.57c5.29-3.13,17.42-9.36,34.08-9.58,16.49-.22,28.69,5.55,34.08,8.52"/>
            <path class="cls-6" d="m317.75,563.39c32.96,19.17,62.49,19.17,94.77-2.13"/>
            <path class="cls-4" d="m406.13,362.14c42.06-19.7,75.36,10.91,76.67,12.78"/>
            <path class="cls-4" d="m323.07,362.14c-42.06-19.7-75.36,10.91-76.67,12.78"/>
          </g>
        </g>
      </g>
    </g>
  </g>
</svg>