<?xml version="1.0" encoding="UTF-8"?>
<svg id="Layer_2" data-name="Layer 2" xmlns="http://www.w3.org/2000/svg" xmlns:xlink="http://www.w3.org/1999/xlink" viewBox="0 0 725.54 836.54">
  <defs>
    <style>
      .cls-1 {
        clip-path: url(#clippath);
      }

      .cls-2, .cls-3, .cls-4, .cls-5, .cls-6 {
        fill: none;
      }

      .cls-2, .cls-7, .cls-8, .cls-9, .cls-10, .cls-11, .cls-12, .cls-13 {
        stroke-width: 0px;
      }

      .cls-3 {
        stroke-width: 3.37px;
      }

      .cls-3, .cls-4, .cls-5, .cls-6 {
        stroke-linecap: round;
        stroke-linejoin: round;
      }

      .cls-3, .cls-6 {
        stroke: #e0b16e;
      }

      .cls-4 {
        stroke: #bcb15e;
        stroke-width: 6.75px;
      }

      .cls-5 {
        stroke: #15153f;
      }

      .cls-5, .cls-6 {
        stroke-width: 4.22px;
      }

      .cls-7 {
        fill: #4b416d;
      }

      .cls-8 {
        fill: #e0b16e;
      }

      .cls-9 {
        fill: #333;
      }

      .cls-10 {
        fill: #ede27a;
      }

      .cls-11 {
        fill: #fff8a4;
      }

      .cls-12 {
        fill: #fe7879;
      }

      .cls-13 {
        fill: #ffd79c;
      }
    </style>
    <clipPath id="clippath">
      <path id="Tiles" class="cls-2" d="m525.86,806.02c0,14.95-12.12,27.07-27.07,27.07h-110.38c-14.95,0-27.07-12.12-27.07-27.07v-110.38c0-14.95,12.12-27.07,27.07-27.07h110.38c14.95,0,27.07,12.12,27.07,27.07v110.38Zm-167.43-110.35c0-14.95-12.12-27.07-27.07-27.07h-110.38c-14.95,0-27.07,12.12-27.07,27.07v110.38c0,14.95,12.12,27.07,27.07,27.07h110.38c14.95,0,27.07-12.12,27.07-27.07v-110.38Zm336.2-93.23c0-14.95-12.12-27.07-27.07-27.07h-110.38c-14.95,0-27.07,12.12-27.07,27.07v110.38c0,14.95,12.12,27.07,27.07,27.07h110.38c14.95,0,27.07-12.12,27.07-27.07v-110.38Zm-168.77-73.03c0-14.95-12.12-27.07-27.07-27.07h-110.38c-14.95,0-27.07,12.12-27.07,27.07v110.38c0,14.95,12.12,27.07,27.07,27.07h110.38c14.95,0,27.07-12.12,27.07-27.07v-110.38Zm-167.43.03c0-14.95-12.12-27.07-27.07-27.07h-110.38c-14.95,0-27.07,12.12-27.07,27.07v110.38c0,14.95,12.12,27.07,27.07,27.07h110.38c14.95,0,27.07-12.12,27.07-27.07v-110.38Zm-168.1,70.63c0-14.95-12.12-27.07-27.07-27.07H52.89c-13.61,0-24.87,10.05-26.78,23.13v118.25c1.91,13.08,13.17,23.13,26.78,23.13h110.38c14.95,0,27.07-12.12,27.07-27.07v-110.38Zm504.29-163.86c0-14.95-12.12-27.07-27.07-27.07h-110.38c-14.95,0-27.07,12.12-27.07,27.07v110.38c0,14.95,12.12,27.07,27.07,27.07h110.38c14.95,0,27.07-12.12,27.07-27.07v-110.38Zm-168.77-73.03c0-14.95-12.12-27.07-27.07-27.07h-110.38c-14.95,0-27.07,12.12-27.07,27.07v110.38c0,14.95,12.12,27.07,27.07,27.07h110.38c14.95,0,27.07-12.12,27.07-27.07v-110.38Zm-167.43.03c0-14.95-12.12-27.07-27.07-27.07h-110.38c-14.95,0-27.07,12.12-27.07,27.07v110.38c0,14.95,12.12,27.07,27.07,27.07h110.38c14.95,0,27.07-12.12,27.07-27.07v-110.38Zm-168.1,70.63c0-14.95-12.12-27.07-27.07-27.07H52.89c-13.61,0-24.87,10.05-26.78,23.13v118.25c1.91,13.08,13.17,23.13,26.78,23.13h110.38c14.95,0,27.07-12.12,27.07-27.07v-110.38Zm504.29-163.86c0-14.95-12.12-27.07-27.07-27.07h-110.38c-14.95,0-27.07,12.12-27.07,27.07v110.38c0,14.95,12.12,27.07,27.07,27.07h110.38c14.95,0,27.07-12.12,27.07-27.07v-110.38Zm-168.77-73.03c0-14.95-12.12-27.07-27.07-27.07h-110.38c-14.95,0-27.07,12.12-27.07,27.07v110.38c0,14.95,12.12,27.07,27.07,27.07h110.38c14.95,0,27.07-12.12,27.07-27.07v-110.38Zm-167.43.03c0-14.95-12.12-27.07-27.07-27.07h-110.38c-14.95,0-27.07,12.12-27.07,27.07v110.38c0,14.95,12.12,27.07,27.07,27.07h110.38c14.95,0,27.07-12.12,27.07-27.07v-110.38Zm-168.1,70.63c0-14.95-12.12-27.07-27.07-27.07H52.89c-13.61,0-24.87,10.05-26.78,23.13v118.25c1.91,13.08,13.17,23.13,26.78,23.13h110.38c14.95,0,27.07-12.12,27.07-27.07v-110.38Zm504.29-163.86c0-14.95-12.12-27.07-27.07-27.07h-110.38c-14.95,0-27.07,12.12-27.07,27.07v110.38c0,14.95,12.12,27.07,27.07,27.07h110.38c14.95,0,27.07-12.12,27.07-27.07v-110.38Zm-168.77-73.03c0-14.95-12.12-27.07-27.07-27.07h-110.38c-14.95,0-27.07,12.12-27.07,27.07v110.38c0,14.95,12.12,27.07,27.07,27.07h110.38c14.95,0,27.07-12.12,27.07-27.07V30.72Zm-167.43.03c0-14.95-12.12-27.07-27.07-27.07h-110.38c-14.95,0-27.07,12.12-27.07,27.07v110.38c0,14.95,12.12,27.07,27.07,27.07h110.38c14.95,0,27.07-12.12,27.07-27.07V30.74Zm-168.1,70.63c0-14.95-12.12-27.07-27.07-27.07H52.89c-13.61,0-24.87,10.05-26.78,23.13v118.25c1.91,13.08,13.17,23.13,26.78,23.13h110.38c14.95,0,27.07-12.12,27.07-27.07v-110.38Z"/>
    </clipPath>
  </defs>
  <g id="Layer_27" data-name="Layer 27">
    <g id="B">
      <g class="cls-1">
        <g>
          <rect class="cls-12" width="725.54" height="836.54"/>
          <g>
            <path class="cls-8" d="m637.44,725.44c-113.42-37.62-180.42-3.52-198.35-40-17.93-36.48,3.23-134.26,3.23-134.26l-80.07-12.1v-.29s-.97.15-.97.15l-.97-.15v.29s-80.07,12.1-80.07,12.1c0,0,21.16,97.78,3.23,134.26-17.93,36.48-89.51,13.03-202.94,50.65-78.72,26.11-29.58,100.44-29.58,100.44h621.66s43.56-84.98-35.16-111.09Z"/>
            <path class="cls-10" d="m120.85,253.64c-10.02-8.52-7.2-21.24-6.41-25.09,3.09-15.03-17.07-19.95-17.72-30.59-.89-14.6,22-29.14,22-29.14-5.76-19.93-6.75-41.43,3.11-51.29,14.85-14.85,32.03-14.38,35.15-14.16-.22-3.13-.7-20.3,14.16-35.15,9.86-9.86,31.36-8.86,51.29-3.11,0,0,14.54-22.89,29.14-22,10.64.65,15.57,20.82,30.59,17.72,3.85-.79,16.58-3.62,25.09,6.41,11.73,13.81,27.28,1.17,28.4,32.76,1.21,33.86-5.8,51.27-9.06,58.25-4.77,10.2-14.81,16.47-34.7,28.59-32.31,19.68-31.91,19.17-31.91,19.17l-.35.35s.52-.39-19.17,31.91c-12.12,19.89-18.39,29.93-28.59,34.7-6.99,3.26-24.4,10.27-58.25,9.06-31.59-1.12-18.95-16.67-32.76-28.4Z"/>
            <path class="cls-10" d="m599.14,255.77c10.02-8.52,7.2-21.24,6.41-25.09-3.09-15.03,17.07-19.95,17.72-30.59.89-14.6-22-29.14-22-29.14,5.76-19.93,6.75-41.43-3.11-51.29-14.85-14.85-32.03-14.38-35.15-14.16.22-3.13.7-20.3-14.16-35.15-9.86-9.86-31.36-8.86-51.29-3.11,0,0-14.54-22.89-29.14-22-10.64.65-15.57,20.82-30.59,17.72-3.85-.79-16.58-3.62-25.09,6.41-11.73,13.81-27.28,1.17-28.4,32.76-1.21,33.86,5.8,51.27,9.06,58.25,4.77,10.2,14.81,16.47,34.7,28.59,32.31,19.68,31.91,19.17,31.91,19.17l.35.35s-.52-.39,19.17,31.91c12.12,19.89,18.39,29.93,28.59,34.7,6.99,3.26,24.4,10.27,58.25,9.06,31.59-1.12,18.95-16.67,32.76-28.4Z"/>
            <path id="Exercise_L_Ear" class="cls-8" d="m208.23,523.53s-55.75-9.02-28.21-87.81c27.54-78.79,53.56-27.12,53.56-27.12l13.54,114.93h-38.89Z"/>
            <path id="Exercise_R_Ear" class="cls-8" d="m514.33,523.53s55.75-9.02,28.21-87.81c-27.54-78.79-53.56-27.12-53.56-27.12l-13.54,114.93h38.89Z"/>
            <path class="cls-13" d="m362.33,143.53c-.17,0-.35,0-.52,0-.17,0-.35,0-.52,0-122.58,0-196.97,165.26-170.07,299.78,27.89,139.45,47.49,215.23,170.07,215.23.18,0,.35,0,.52,0,.17,0,.34,0,.52,0,122.58,0,142.18-75.77,170.07-215.23,26.9-134.52-47.49-299.78-170.07-299.78Z"/>
            <path class="cls-7" d="m650.92,719.89c-38.82-13.74-200.48-24.27-200.48-24.27,0,0,15.78,90.49-57.28,112.34-22.39,6.7-29.6,8.86-31.93,9.55-2.33-.7-9.54-2.86-31.93-9.55-73.06-21.86-57.28-112.34-57.28-112.34,0,0-161.66,10.53-200.48,24.27-93.58,33.12-66.09,116.64-66.09,116.64h712.7s26.35-83.52-67.22-116.64Z"/>
            <path class="cls-11" d="m558.64,347.42c-.01-25.85-15.5-49.81-10.97-81.12,5.8-40.19-20.92-75.57-39.99-96.97-39.34-44.15-89.67-55.3-107.45-57.17-4.44-.46-10.92-1.48-18.43-2.29-8.61-.93-16.55,2.77-21.51,8.99-4.96-6.22-12.9-9.92-21.51-8.99-7.51.81-13.99,1.83-18.43,2.29-17.78,1.86-68.11,13.01-107.45,57.17-19.07,21.4-57.26,58.04-51.46,98.22,4.52,31.31.01,34.84,0,60.7-.03,58.38,18.1,37.27,9.58,68.15-7.21,26.14-3.69,61.76,23.43,61.76,12.78,0,21.3,58.57,26.62,42.59,13.93-41.79-10.52-77.23-5.32-108.61,10.82-65.33,45.57-106.83,89.45-107.55,34.48-.57,48.49-8.7,53.97-25.69,2.8,17,12.72,25.13,47.19,25.69,64.96,1.06,86.83,36.17,96.86,74.7,8.56,32.85-19.51,135.19-17,151.05,4.24,26.79,61-41.1,56.44-74.54-6.39-46.85,16-30.01,15.97-88.38Z"/>
            <path class="cls-5" d="m412.14,434.55c3.96-4.15,12.29-11.7,25.2-15.65,20.05-6.13,37.02.76,41.74,2.88"/>
            <circle class="cls-9" cx="440.78" cy="430.43" r="14.38"/>
            <path class="cls-5" d="m318.8,433.93c-4.04-4.07-12.5-11.47-25.48-15.18-20.16-5.76-37,1.45-41.68,3.64"/>
            <circle class="cls-9" cx="290.1" cy="430.34" r="14.38"/>
            <path class="cls-3" d="m399.74,500.56c-5.29,3.13-17.18,23.4-33.83,23.62-16.49.22-28.93-19.59-34.32-22.56"/>
            <path class="cls-6" d="m317.75,575.11c32.96,19.17,87.8,17.42,115.78-9.93"/>
            <path class="cls-4" d="m406.37,382.56c39.4-44.72,75.12-9.51,76.43-7.64"/>
            <path class="cls-4" d="m323.31,382.56c-37.27-47.92-75.6-9.51-76.91-7.64"/>
          </g>
        </g>
      </g>
    </g>
  </g>
</svg>