<?xml version="1.0" encoding="UTF-8"?>
<svg id="Layer_2" data-name="Layer 2" xmlns="http://www.w3.org/2000/svg" xmlns:xlink="http://www.w3.org/1999/xlink" viewBox="0 0 731.67 836.54">
  <defs>
    <style>
      .cls-1 {
        stroke-width: 3.37px;
      }

      .cls-1, .cls-2, .cls-3, .cls-4, .cls-5 {
        fill: none;
      }

      .cls-1, .cls-3 {
        stroke: #3f1900;
      }

      .cls-1, .cls-3, .cls-4, .cls-5 {
        stroke-linecap: round;
        stroke-linejoin: round;
      }

      .cls-6 {
        clip-path: url(#clippath);
      }

      .cls-2, .cls-7, .cls-8, .cls-9, .cls-10, .cls-11, .cls-12 {
        stroke-width: 0px;
      }

      .cls-3, .cls-4 {
        stroke-width: 4.22px;
      }

      .cls-4 {
        stroke: #1a1a1a;
      }

      .cls-5 {
        stroke: #d1c695;
        stroke-width: 8.43px;
      }

      .cls-7 {
        fill: #471d00;
      }

      .cls-8 {
        fill: #542f16;
      }

      .cls-9 {
        fill: #1a1a1a;
      }

      .cls-10 {
        fill: #cc9456;
      }

      .cls-11 {
        fill: #fff5cc;
      }

      .cls-12 {
        fill: #ecac01;
      }
    </style>
    <clipPath id="clippath">
      <path id="Tiles" class="cls-2" d="m528.65,806.02c0,14.95-12.12,27.07-27.07,27.07h-110.38c-14.95,0-27.07-12.12-27.07-27.07v-110.38c0-14.95,12.12-27.07,27.07-27.07h110.38c14.95,0,27.07,12.12,27.07,27.07v110.38Zm-167.43-110.35c0-14.95-12.12-27.07-27.07-27.07h-110.38c-14.95,0-27.07,12.12-27.07,27.07v110.38c0,14.95,12.12,27.07,27.07,27.07h110.38c14.95,0,27.07-12.12,27.07-27.07v-110.38Zm336.2-93.23c0-14.95-12.12-27.07-27.07-27.07h-110.38c-14.95,0-27.07,12.12-27.07,27.07v110.38c0,14.95,12.12,27.07,27.07,27.07h110.38c14.95,0,27.07-12.12,27.07-27.07v-110.38Zm-168.77-73.03c0-14.95-12.12-27.07-27.07-27.07h-110.38c-14.95,0-27.07,12.12-27.07,27.07v110.38c0,14.95,12.12,27.07,27.07,27.07h110.38c14.95,0,27.07-12.12,27.07-27.07v-110.38Zm-167.43.03c0-14.95-12.12-27.07-27.07-27.07h-110.38c-14.95,0-27.07,12.12-27.07,27.07v110.38c0,14.95,12.12,27.07,27.07,27.07h110.38c14.95,0,27.07-12.12,27.07-27.07v-110.38Zm-168.1,70.63c0-14.95-12.12-27.07-27.07-27.07H55.68c-13.61,0-24.87,10.05-26.78,23.13v118.25c1.91,13.08,13.17,23.13,26.78,23.13h110.38c14.95,0,27.07-12.12,27.07-27.07v-110.38Zm504.29-163.86c0-14.95-12.12-27.07-27.07-27.07h-110.38c-14.95,0-27.07,12.12-27.07,27.07v110.38c0,14.95,12.12,27.07,27.07,27.07h110.38c14.95,0,27.07-12.12,27.07-27.07v-110.38Zm-168.77-73.03c0-14.95-12.12-27.07-27.07-27.07h-110.38c-14.95,0-27.07,12.12-27.07,27.07v110.38c0,14.95,12.12,27.07,27.07,27.07h110.38c14.95,0,27.07-12.12,27.07-27.07v-110.38Zm-167.43.03c0-14.95-12.12-27.07-27.07-27.07h-110.38c-14.95,0-27.07,12.12-27.07,27.07v110.38c0,14.95,12.12,27.07,27.07,27.07h110.38c14.95,0,27.07-12.12,27.07-27.07v-110.38Zm-168.1,70.63c0-14.95-12.12-27.07-27.07-27.07H55.68c-13.61,0-24.87,10.05-26.78,23.13v118.25c1.91,13.08,13.17,23.13,26.78,23.13h110.38c14.95,0,27.07-12.12,27.07-27.07v-110.38Zm504.29-163.86c0-14.95-12.12-27.07-27.07-27.07h-110.38c-14.95,0-27.07,12.12-27.07,27.07v110.38c0,14.95,12.12,27.07,27.07,27.07h110.38c14.95,0,27.07-12.12,27.07-27.07v-110.38Zm-168.77-73.03c0-14.95-12.12-27.07-27.07-27.07h-110.38c-14.95,0-27.07,12.12-27.07,27.07v110.38c0,14.95,12.12,27.07,27.07,27.07h110.38c14.95,0,27.07-12.12,27.07-27.07v-110.38Zm-167.43.03c0-14.95-12.12-27.07-27.07-27.07h-110.38c-14.95,0-27.07,12.12-27.07,27.07v110.38c0,14.95,12.12,27.07,27.07,27.07h110.38c14.95,0,27.07-12.12,27.07-27.07v-110.38Zm-168.1,70.63c0-14.95-12.12-27.07-27.07-27.07H55.68c-13.61,0-24.87,10.05-26.78,23.13v118.25c1.91,13.08,13.17,23.13,26.78,23.13h110.38c14.95,0,27.07-12.12,27.07-27.07v-110.38Zm504.29-163.86c0-14.95-12.12-27.07-27.07-27.07h-110.38c-14.95,0-27.07,12.12-27.07,27.07v110.38c0,14.95,12.12,27.07,27.07,27.07h110.38c14.95,0,27.07-12.12,27.07-27.07v-110.38Zm-168.77-73.03c0-14.95-12.12-27.07-27.07-27.07h-110.38c-14.95,0-27.07,12.12-27.07,27.07v110.38c0,14.95,12.12,27.07,27.07,27.07h110.38c14.95,0,27.07-12.12,27.07-27.07V30.72Zm-167.43.03c0-14.95-12.12-27.07-27.07-27.07h-110.38c-14.95,0-27.07,12.12-27.07,27.07v110.38c0,14.95,12.12,27.07,27.07,27.07h110.38c14.95,0,27.07-12.12,27.07-27.07V30.74Zm-168.1,70.63c0-14.95-12.12-27.07-27.07-27.07H55.68c-13.61,0-24.87,10.05-26.78,23.13v118.25c1.91,13.08,13.17,23.13,26.78,23.13h110.38c14.95,0,27.07-12.12,27.07-27.07v-110.38Z"/>
    </clipPath>
  </defs>
  <g id="Layer_27" data-name="Layer 27">
    <g id="C">
      <g class="cls-6">
        <g>
          <rect class="cls-12" x="2.79" width="725.54" height="836.54"/>
          <path class="cls-7" d="m661.62,708.01c-132.02-37.62-149.72,8.47-170.59-28.01-20.87-36.48-2.63-134.26-2.63-134.26l-122.09-12.4v.42s-121.7,12.29-121.7,12.29c0,0,18.35,97.78-2.64,134.26-20.99,36.48-38.78-9.61-171.53,28.01C-21.7,734.43,3.01,836.53,3.01,836.53h363.24l.59-160.42.59,160.42h361.24s24.58-102.41-67.05-128.52Z"/>
          <path class="cls-7" d="m209.26,528.41s-63.15,17.61-65.14-67.44c-1.99-85.04,46.4-49.74,46.4-49.74l60.27,99.12-41.54,18.05Z"/>
          <path class="cls-10" d="m315.45,724.38c-79.86-2.9-72.89-44.06-72.89-44.06,0,0-136.65,11.26-177.14,25.94-17.32,6.28-32.68,14.44-46.25,23.61v106.67h350.67l.46-17.33c.35-11.13.7-22.29,2.42-33.29,9.67-61.86,1.47-59.4-57.27-61.53Z"/>
          <path class="cls-10" d="m711.44,725.98c-12.54-7.58-26.21-14.35-41.04-19.72-40.5-14.69-178.21-25.94-178.21-25.94,0,0-1.23,16.18-72.38,52.58-45.79,23.43-66.39-8.84-56.72,53.02,1.72,11.01,2.08,22.17,2.42,33.29l.46,17.33h345.46v-110.55Z"/>
          <path class="cls-7" d="m530.62,523.08s63.15,17.61,65.14-67.44c1.99-85.04-46.4-49.74-46.4-49.74l-60.27,99.12,41.54,18.05Z"/>
          <path class="cls-8" d="m369.49,186.3c-.9,0-1.8.02-2.7.03-.9-.01-1.79-.03-2.7-.03-135.26,0-217.77,150-187.66,271.9,16.56,67.05-126.74,217.89,190.36,217.54,317.1-.35,163.76-152.62,190.36-217.54,47.61-116.19-52.4-271.9-187.66-271.9Z"/>
          <path class="cls-11" d="m376.15,240.93c110.74-44.72-44.72-152.27-186.35,4.26-20.76,22.95-32.69,100.23-32.2,143.43.27,23.43,3.26,41.2,7.6,54.67,6.21,19.28,34.92,14.15,34.26-6.09-1.29-39.55,1.9-92.44,25.22-114.6,42.59-40.46,151.46-81.67,151.46-81.67Z"/>
          <path class="cls-11" d="m369.76,186.63c17.04,3.19-3.28-24.09,119.26,21.3,86.25,31.95,86.62,137.5,86.13,180.7-.27,23.43-3.26,41.2-7.6,54.67-6.21,19.28-34.92,14.15-34.26-6.09,1.29-39.55,29.21-159-113.48-155.81-216.68,4.85-50.05-94.77-50.05-94.77Z"/>
          <path class="cls-4" d="m316.72,412.54c-3.95-2.82-12.07-7.78-23.42-9.01-17.63-1.91-30.64,6.5-34.23,9.01"/>
          <circle class="cls-9" cx="294.75" cy="417.53" r="13.38"/>
          <path class="cls-4" d="m469.06,412.11c-3.95-2.82-12.07-7.78-23.42-9.01-17.63-1.91-30.64,6.5-34.23,9.01"/>
          <circle class="cls-9" cx="434.64" cy="417.06" r="13.38"/>
          <path class="cls-5" d="m331.01,378.32c-47.82-35.26-78.7-25.97-103.76-11.44"/>
          <path class="cls-5" d="m508.16,364.25c-54.98-22.54-82.46-4.43-103.23,15.77"/>
          <path class="cls-1" d="m358.05,457.1c-51.11,19.17-79.61,63.83-2.13,69.22"/>
          <path class="cls-3" d="m300.92,571.19c55.53,23.81,75.76,25.94,121.39-2.66"/>
          <path class="cls-1" d="m311.9,542.87c-29.53,19.52-26.35,18.75-42.39,43.98"/>
          <path class="cls-1" d="m407.94,533.29c29.53,19.52,26.35,18.75,42.39,43.98"/>
        </g>
      </g>
    </g>
  </g>
</svg>