<?xml version="1.0" encoding="UTF-8"?>
<svg id="Layer_2" data-name="Layer 2" xmlns="http://www.w3.org/2000/svg" xmlns:xlink="http://www.w3.org/1999/xlink" viewBox="0 0 725.54 837.35">
  <defs>
    <style>
      .cls-1 {
        clip-path: url(#clippath);
      }

      .cls-2, .cls-3, .cls-4, .cls-5, .cls-6 {
        fill: none;
      }

      .cls-2, .cls-7, .cls-8, .cls-9, .cls-10, .cls-11, .cls-12, .cls-13, .cls-14 {
        stroke-width: 0px;
      }

      .cls-3 {
        stroke-width: 3.37px;
      }

      .cls-3, .cls-4, .cls-5, .cls-6 {
        stroke-linecap: round;
        stroke-linejoin: round;
      }

      .cls-3, .cls-6 {
        stroke: #d6835f;
      }

      .cls-4 {
        stroke: #b75700;
        stroke-width: 8.43px;
      }

      .cls-5 {
        stroke: #1a1a1a;
      }

      .cls-5, .cls-6 {
        stroke-width: 4.22px;
      }

      .cls-7 {
        fill: #82c482;
      }

      .cls-8 {
        fill: #262260;
      }

      .cls-9 {
        fill: #1a1a1a;
      }

      .cls-10 {
        fill: #c1650a;
      }

      .cls-11 {
        fill: #b75700;
      }

      .cls-12 {
        fill: #ffca7d;
      }

      .cls-13 {
        fill: #ffdb77;
      }

      .cls-14 {
        fill: #ffcf8f;
      }
    </style>
    <clipPath id="clippath">
      <path id="Tiles" class="cls-2" d="m525.86,806.02c0,14.95-12.12,27.07-27.07,27.07h-110.38c-14.95,0-27.07-12.12-27.07-27.07v-110.38c0-14.95,12.12-27.07,27.07-27.07h110.38c14.95,0,27.07,12.12,27.07,27.07v110.38Zm-167.43-110.35c0-14.95-12.12-27.07-27.07-27.07h-110.38c-14.95,0-27.07,12.12-27.07,27.07v110.38c0,14.95,12.12,27.07,27.07,27.07h110.38c14.95,0,27.07-12.12,27.07-27.07v-110.38Zm336.2-93.23c0-14.95-12.12-27.07-27.07-27.07h-110.38c-14.95,0-27.07,12.12-27.07,27.07v110.38c0,14.95,12.12,27.07,27.07,27.07h110.38c14.95,0,27.07-12.12,27.07-27.07v-110.38Zm-168.77-73.03c0-14.95-12.12-27.07-27.07-27.07h-110.38c-14.95,0-27.07,12.12-27.07,27.07v110.38c0,14.95,12.12,27.07,27.07,27.07h110.38c14.95,0,27.07-12.12,27.07-27.07v-110.38Zm-167.43.03c0-14.95-12.12-27.07-27.07-27.07h-110.38c-14.95,0-27.07,12.12-27.07,27.07v110.38c0,14.95,12.12,27.07,27.07,27.07h110.38c14.95,0,27.07-12.12,27.07-27.07v-110.38Zm-168.1,70.63c0-14.95-12.12-27.07-27.07-27.07H52.89c-13.61,0-24.87,10.05-26.78,23.13v118.25c1.91,13.08,13.17,23.13,26.78,23.13h110.38c14.95,0,27.07-12.12,27.07-27.07v-110.38Zm504.29-163.86c0-14.95-12.12-27.07-27.07-27.07h-110.38c-14.95,0-27.07,12.12-27.07,27.07v110.38c0,14.95,12.12,27.07,27.07,27.07h110.38c14.95,0,27.07-12.12,27.07-27.07v-110.38Zm-168.77-73.03c0-14.95-12.12-27.07-27.07-27.07h-110.38c-14.95,0-27.07,12.12-27.07,27.07v110.38c0,14.95,12.12,27.07,27.07,27.07h110.38c14.95,0,27.07-12.12,27.07-27.07v-110.38Zm-167.43.03c0-14.95-12.12-27.07-27.07-27.07h-110.38c-14.95,0-27.07,12.12-27.07,27.07v110.38c0,14.95,12.12,27.07,27.07,27.07h110.38c14.95,0,27.07-12.12,27.07-27.07v-110.38Zm-168.1,70.63c0-14.95-12.12-27.07-27.07-27.07H52.89c-13.61,0-24.87,10.05-26.78,23.13v118.25c1.91,13.08,13.17,23.13,26.78,23.13h110.38c14.95,0,27.07-12.12,27.07-27.07v-110.38Zm504.29-163.86c0-14.95-12.12-27.07-27.07-27.07h-110.38c-14.95,0-27.07,12.12-27.07,27.07v110.38c0,14.95,12.12,27.07,27.07,27.07h110.38c14.95,0,27.07-12.12,27.07-27.07v-110.38Zm-168.77-73.03c0-14.95-12.12-27.07-27.07-27.07h-110.38c-14.95,0-27.07,12.12-27.07,27.07v110.38c0,14.95,12.12,27.07,27.07,27.07h110.38c14.95,0,27.07-12.12,27.07-27.07v-110.38Zm-167.43.03c0-14.95-12.12-27.07-27.07-27.07h-110.38c-14.95,0-27.07,12.12-27.07,27.07v110.38c0,14.95,12.12,27.07,27.07,27.07h110.38c14.95,0,27.07-12.12,27.07-27.07v-110.38Zm-168.1,70.63c0-14.95-12.12-27.07-27.07-27.07H52.89c-13.61,0-24.87,10.05-26.78,23.13v118.25c1.91,13.08,13.17,23.13,26.78,23.13h110.38c14.95,0,27.07-12.12,27.07-27.07v-110.38Zm504.29-163.86c0-14.95-12.12-27.07-27.07-27.07h-110.38c-14.95,0-27.07,12.12-27.07,27.07v110.38c0,14.95,12.12,27.07,27.07,27.07h110.38c14.95,0,27.07-12.12,27.07-27.07v-110.38Zm-168.77-73.03c0-14.95-12.12-27.07-27.07-27.07h-110.38c-14.95,0-27.07,12.12-27.07,27.07v110.38c0,14.95,12.12,27.07,27.07,27.07h110.38c14.95,0,27.07-12.12,27.07-27.07V30.72Zm-167.43.03c0-14.95-12.12-27.07-27.07-27.07h-110.38c-14.95,0-27.07,12.12-27.07,27.07v110.38c0,14.95,12.12,27.07,27.07,27.07h110.38c14.95,0,27.07-12.12,27.07-27.07V30.74Zm-168.1,70.63c0-14.95-12.12-27.07-27.07-27.07H52.89c-13.61,0-24.87,10.05-26.78,23.13v118.25c1.91,13.08,13.17,23.13,26.78,23.13h110.38c14.95,0,27.07-12.12,27.07-27.07v-110.38Z"/>
    </clipPath>
  </defs>
  <g id="Layer_27" data-name="Layer 27">
    <g id="D">
      <g class="cls-1">
        <g>
          <rect class="cls-13" width="725.54" height="836.54"/>
          <path class="cls-12" d="m262.71,526.67s26.96,97.78,4.12,134.26c-14.88,23.77-136.1,83.46-218.77,122.18v34.65l317.9-3.09,1.22-300.39-104.47,12.4Z"/>
          <path class="cls-7" d="m329.48,793.03c-85.84-6.33-55.41-149.91-55.41-149.91,0,0-187.28,14.05-230.31,32.38-12.4,5.28-23.21,11.61-32.67,18.64v142.38h353.8l1.22-40.95s-.21.14-36.63-2.54Z"/>
          <path class="cls-12" d="m185.47,506.82s-55.75-9.02-28.21-87.81c27.54-78.79,53.56-27.12,53.56-27.12l13.54,114.93h-38.89Z"/>
          <path class="cls-14" d="m368.16,153.33c-.92-.01-1.83-.04-2.76-.04-117.36,0-211.85,176.53-186.09,310.68,26.7,139.07,68.73,202.9,186.09,202.9.93,0,1.84-.03,2.76-.05V153.33Z"/>
          <path class="cls-8" d="m367.78,132.18c-18.34-.94-36.91,1.91-46.41,2.73-31.61,2.73-134.36,18.7-169.5,157.13-20.55,80.97,23.43,129.91,23.43,129.91,0,0,10.59-60.21,98.74-104.2,58.02-28.95,83.26-38.83,93.74-42.2v-143.37Z"/>
          <path class="cls-12" d="m679.61,782.19c-82.61-38.73-202.04-97.67-216.8-121.25-22.84-36.48,4.12-134.26,4.12-134.26l-99.95,140.2-3.29,147.79,315.93,3.07v-35.55Z"/>
          <path class="cls-7" d="m708.65,687.32c-6.97-4.33-14.54-8.31-22.78-11.82-43.03-18.33-230.31-32.38-230.31-32.38,0,0,30.65,149.66-55.41,150.97-36.37.56-36.63,1.48-36.63,1.48l1.22,40.95h343.91v-149.2Z"/>
          <path class="cls-10" d="m513.92,505.02c24.88,11.29,30.88,78.63,27.69,99.03-3.32,21.17-10.31,16.28-12.45,40.96-1.43,16.49,7.51,19.38,8.07,39.3.71,25-22.13,16.21-28.74,46.1-6,27.11,5.43,26.97,4.37,55.73-.79,21.36-13.84,38.71-40.68,50.39-.96.42-10.44,0-10.44,0-44.72,0-44.72,1.84-83.33,0-18.23-.87,29.9-11.24,40.25-40.89,6.19-17.73,1.44-34.51,8.6-49.92,11.32-24.37,23.84-19.87,29.09-39.69,5.75-21.71-10.52-34.51-6.65-58.25,4.21-25.82,31.18-21.4,28.08-44.02-2.4-17.45-14.17-25.63-16.07-42.76-2.33-21.02,25.45-68.11,52.22-55.97Z"/>
          <path class="cls-12" d="m552.69,504.69s55.75-9.02,28.21-87.81c-27.54-78.79-53.56-27.12-53.56-27.12l-13.54,114.93h38.89Z"/>
          <path class="cls-14" d="m368.04,153.33c.94-.01,1.87-.04,2.82-.04,119.91,0,216.46,176.53,190.14,310.68-27.28,139.07-70.23,202.9-190.14,202.9-.95,0-1.88-.03-2.82-.05V153.33Z"/>
          <path class="cls-11" d="m361.39,132.18c18.34-.94,43.3,1.91,52.8,2.73,31.61,2.73,128.69,9.55,166.82,160.33,38.12,150.78-29.82,117.13-29.82,117.13,0,0-1.52-50.62-89.67-94.62-58.02-28.95-83.26-38.83-93.74-42.2l-6.39-143.37Z"/>
          <path class="cls-5" d="m318.07,405.13c-5.68-2.74-17.18-7.31-32-6.39-23.02,1.43-37.84,15.08-41.89,19.08"/>
          <circle class="cls-9" cx="285.62" cy="413.88" r="15.81"/>
          <path class="cls-5" d="m414.03,405.13c5.68-2.74,17.18-7.31,32-6.39,23.02,1.43,37.84,15.08,41.89,19.08"/>
          <circle class="cls-9" cx="446.48" cy="413.88" r="15.81"/>
          <path class="cls-6" d="m307.08,578.7c9.97,4.58,69.22,27.16,121.39-5.85"/>
          <path class="cls-3" d="m361.65,408.12c-19.17,81.99-77.73,105.42,2.94,112.61"/>
          <path class="cls-4" d="m398.66,374.78c7.75-4,26.34-15.47,51.11-13.84,24.56,1.61,35.42,12.09,42.59,17.04"/>
          <path class="cls-4" d="m331.57,375.85c-7.75-4-26.34-16.54-51.11-14.91-24.56,1.61-36.48,12.09-43.66,17.04"/>
          <path class="cls-11" d="m367.78,132.18c-18.34-.94-36.91,1.91-46.41,2.73-31.61,2.73-134.36,18.7-169.5,157.13-20.55,80.97,23.43,129.91,23.43,129.91,0,0,10.59-60.21,98.74-104.2,58.02-28.95,83.26-38.83,93.74-42.2v-143.37Z"/>
          <path class="cls-10" d="m321.34,304.73c-7.08-1.57-18.86-3.12-20.7,3.89-15.3,58.32-73.65,44.4-73.6,44.96,2.82,28.16-28.28,58.58-52.39,59.15-21.15.5-21.29,0-21.29,0,0,0-26.79-16.1-22.29-55.13,5.32-46.02,61.67-54.07,80.8-49.04,0,0,31.74-48.92,72.93-44.68,13.62,1.4,25.58-36.5,73.76-9.37,17.35,9.77-1.77,58.07-37.23,50.21Z"/>
          <path class="cls-10" d="m409.63,304.73c7.08-1.57,18.86-3.12,20.7,3.89,15.3,58.32,73.65,44.4,73.6,44.96-2.82,28.16,28.28,58.58,52.39,59.15,21.15.5,21.29,0,21.29,0,0,0,26.79-16.1,22.29-55.13-5.32-46.02-61.67-54.07-80.8-49.04,0,0-31.74-48.92-72.93-44.68-13.62,1.4-25.58-36.5-73.76-9.37-17.35,9.77,1.77,58.07,37.23,50.21Z"/>
        </g>
      </g>
    </g>
  </g>
</svg>