<?xml version="1.0" encoding="UTF-8"?>
<svg id="Layer_2" data-name="Layer 2" xmlns="http://www.w3.org/2000/svg" xmlns:xlink="http://www.w3.org/1999/xlink" viewBox="0 0 725.54 836.54">
  <defs>
    <style>
      .cls-1 {
        clip-path: url(#clippath);
      }

      .cls-2, .cls-3, .cls-4, .cls-5 {
        fill: none;
      }

      .cls-2, .cls-6, .cls-7, .cls-8, .cls-9, .cls-10, .cls-11 {
        stroke-width: 0px;
      }

      .cls-3 {
        stroke: #2d1102;
        stroke-width: 8.43px;
      }

      .cls-3, .cls-4 {
        stroke-linecap: round;
      }

      .cls-3, .cls-4, .cls-5 {
        stroke-miterlimit: 10;
      }

      .cls-4 {
        stroke: #492b22;
      }

      .cls-4, .cls-5 {
        stroke-width: 4.22px;
      }

      .cls-5 {
        stroke: #1a1a1a;
      }

      .cls-6 {
        fill: #2d1102;
      }

      .cls-7 {
        fill: #9adbc3;
      }

      .cls-8 {
        fill: #1a1a1a;
      }

      .cls-9 {
        fill: #dd47c8;
      }

      .cls-10 {
        fill: #a86854;
      }

      .cls-11 {
        fill: #a05744;
      }
    </style>
    <clipPath id="clippath">
      <path id="Tiles" class="cls-2" d="m525.86,806.02c0,14.95-12.12,27.07-27.07,27.07h-110.38c-14.95,0-27.07-12.12-27.07-27.07v-110.38c0-14.95,12.12-27.07,27.07-27.07h110.38c14.95,0,27.07,12.12,27.07,27.07v110.38Zm-167.43-110.35c0-14.95-12.12-27.07-27.07-27.07h-110.38c-14.95,0-27.07,12.12-27.07,27.07v110.38c0,14.95,12.12,27.07,27.07,27.07h110.38c14.95,0,27.07-12.12,27.07-27.07v-110.38Zm336.2-93.23c0-14.95-12.12-27.07-27.07-27.07h-110.38c-14.95,0-27.07,12.12-27.07,27.07v110.38c0,14.95,12.12,27.07,27.07,27.07h110.38c14.95,0,27.07-12.12,27.07-27.07v-110.38Zm-168.77-73.03c0-14.95-12.12-27.07-27.07-27.07h-110.38c-14.95,0-27.07,12.12-27.07,27.07v110.38c0,14.95,12.12,27.07,27.07,27.07h110.38c14.95,0,27.07-12.12,27.07-27.07v-110.38Zm-167.43.03c0-14.95-12.12-27.07-27.07-27.07h-110.38c-14.95,0-27.07,12.12-27.07,27.07v110.38c0,14.95,12.12,27.07,27.07,27.07h110.38c14.95,0,27.07-12.12,27.07-27.07v-110.38Zm-168.1,70.63c0-14.95-12.12-27.07-27.07-27.07H52.89c-13.61,0-24.87,10.05-26.78,23.13v118.25c1.91,13.08,13.17,23.13,26.78,23.13h110.38c14.95,0,27.07-12.12,27.07-27.07v-110.38Zm504.29-163.86c0-14.95-12.12-27.07-27.07-27.07h-110.38c-14.95,0-27.07,12.12-27.07,27.07v110.38c0,14.95,12.12,27.07,27.07,27.07h110.38c14.95,0,27.07-12.12,27.07-27.07v-110.38Zm-168.77-73.03c0-14.95-12.12-27.07-27.07-27.07h-110.38c-14.95,0-27.07,12.12-27.07,27.07v110.38c0,14.95,12.12,27.07,27.07,27.07h110.38c14.95,0,27.07-12.12,27.07-27.07v-110.38Zm-167.43.03c0-14.95-12.12-27.07-27.07-27.07h-110.38c-14.95,0-27.07,12.12-27.07,27.07v110.38c0,14.95,12.12,27.07,27.07,27.07h110.38c14.95,0,27.07-12.12,27.07-27.07v-110.38Zm-168.1,70.63c0-14.95-12.12-27.07-27.07-27.07H52.89c-13.61,0-24.87,10.05-26.78,23.13v118.25c1.91,13.08,13.17,23.13,26.78,23.13h110.38c14.95,0,27.07-12.12,27.07-27.07v-110.38Zm504.29-163.86c0-14.95-12.12-27.07-27.07-27.07h-110.38c-14.95,0-27.07,12.12-27.07,27.07v110.38c0,14.95,12.12,27.07,27.07,27.07h110.38c14.95,0,27.07-12.12,27.07-27.07v-110.38Zm-168.77-73.03c0-14.95-12.12-27.07-27.07-27.07h-110.38c-14.95,0-27.07,12.12-27.07,27.07v110.38c0,14.95,12.12,27.07,27.07,27.07h110.38c14.95,0,27.07-12.12,27.07-27.07v-110.38Zm-167.43.03c0-14.95-12.12-27.07-27.07-27.07h-110.38c-14.95,0-27.07,12.12-27.07,27.07v110.38c0,14.95,12.12,27.07,27.07,27.07h110.38c14.95,0,27.07-12.12,27.07-27.07v-110.38Zm-168.1,70.63c0-14.95-12.12-27.07-27.07-27.07H52.89c-13.61,0-24.87,10.05-26.78,23.13v118.25c1.91,13.08,13.17,23.13,26.78,23.13h110.38c14.95,0,27.07-12.12,27.07-27.07v-110.38Zm504.29-163.86c0-14.95-12.12-27.07-27.07-27.07h-110.38c-14.95,0-27.07,12.12-27.07,27.07v110.38c0,14.95,12.12,27.07,27.07,27.07h110.38c14.95,0,27.07-12.12,27.07-27.07v-110.38Zm-168.77-73.03c0-14.95-12.12-27.07-27.07-27.07h-110.38c-14.95,0-27.07,12.12-27.07,27.07v110.38c0,14.95,12.12,27.07,27.07,27.07h110.38c14.95,0,27.07-12.12,27.07-27.07V30.72Zm-167.43.03c0-14.95-12.12-27.07-27.07-27.07h-110.38c-14.95,0-27.07,12.12-27.07,27.07v110.38c0,14.95,12.12,27.07,27.07,27.07h110.38c14.95,0,27.07-12.12,27.07-27.07V30.74Zm-168.1,70.63c0-14.95-12.12-27.07-27.07-27.07H52.89c-13.61,0-24.87,10.05-26.78,23.13v118.25c1.91,13.08,13.17,23.13,26.78,23.13h110.38c14.95,0,27.07-12.12,27.07-27.07v-110.38Z"/>
    </clipPath>
  </defs>
  <g id="Layer_27" data-name="Layer 27">
    <g id="E">
      <g class="cls-1">
        <g>
          <rect class="cls-7" width="725.54" height="836.54"/>
          <path class="cls-6" d="m584.35,658.15c-13.33-53.33-47.11-49.77-47.11-95.99s22.22-79.99,10.67-140.43c0,0,74.86-17.78,49.08-110.21-9.6-43.97-56.45-54.62-56.45-54.62,0,0-11.71-37.27-53.24-60.7-57.69-32.54-153.47-30.1-211.91,1.06-31.95,17.04-68.58,32.48-68.58,32.48,0,0-54.02,17.31-71.99,81.77-25.77,92.43,43.76,131.51,43.76,131.51-11.55,60.44,10.67,94.21,10.67,140.43s-33.77,42.66-47.11,95.99c-13.33,53.33-1.78,97.12,0,115.66,1.39,14.47-90.95-3.65-90.88-2.95,67.35-5.34,155.23-15.27,176.89-22.91,30.22-10.67,71.99-25.77,71.99-25.77l50.85,8.78,14.92-308.21,14.92,308.21,50.85-8.78s41.77,15.11,71.99,25.77c21.66,7.65,109.54,17.57,176.89,22.91.07-.7-97.59-3.88-96.21-18.35,1.78-18.55,13.33-62.33,0-115.66Z"/>
          <path class="cls-9" d="m675.18,772.16c-42.73-1.3-172.38-23.35-197.01-38.92-24.63-15.57-58.67-37.62-58.67-37.62l-53.6,16.58-53.6-16.58s-34.04,22.05-58.67,37.62c-24.63,15.57-154.27,37.62-197.01,38.92-15.52.47-27.42,9.09-36.3,19.87v44.5h681.71v-53.95c-7.4-5.99-16.3-10.1-26.87-10.42Z"/>
          <path class="cls-11" d="m448.93,713.28c-7.75-21.68,0-98.31,0-98.31l-83.02-15.87-83.02,15.87s7.75,76.62,0,98.31c-7.75,21.68-38.74,52.79-38.74,52.79,0,0,34.32,53.31,121.76,52.43,87.45.88,121.76-52.43,121.76-52.43,0,0-30.99-31.11-38.74-52.79Z"/>
          <path class="cls-10" d="m420.12,225.31c-19.32-9.66-37.41-14.85-54.22-16.21-16.81,1.36-34.89,6.55-54.22,16.21-77.05,38.53-119.99,86.21-100.43,236.42,19.07,146.47,105.67,209.4,154.65,209.4s135.58-62.94,154.65-209.4c19.55-150.21-23.38-197.89-100.43-236.42Z"/>
          <path class="cls-6" d="m181.04,332.05c.75-10.26,4.18-42.89,25.37-71.1,9.03-12.03,17.75-16.37,46.5-33.77,60.31-36.5,54.74-35.6,60.6-37.33,49.79-14.69,135.3,7.17,173.79,43.64,20.23,19.17,38.31,45.76,30.88,56.44-10.94,15.71-127.79-13.92-187.41-3.19-34.73,6.25-73.47,20.23-108.61,66.02-25.23,32.87-22.36,64.96-10.65,99.03"/>
          <path class="cls-3" d="m412.2,348.92s14.84-13,44.68-7.28c29.83,5.71,38.97,29.65,38.97,29.65"/>
          <path class="cls-3" d="m329.49,349.97s-14.52-13.36-44.48-8.38c-29.97,4.98-39.79,27.73-39.79,27.73"/>
          <path class="cls-4" d="m360.05,399.06s-23.32,89.85-29.12,100.63c-5.8,10.78,29.71,34.5,60.38,5.75"/>
          <path class="cls-5" d="m405.43,405.89s12.57-11.49,40.01-8.08c27.45,3.41,33.08,15.44,33.08,15.44"/>
          <circle class="cls-8" cx="434.71" cy="414.99" r="15.17"/>
          <path class="cls-5" d="m333.44,406.13s-12.49-11.57-39.96-8.34c-27.47,3.23-33.18,15.22-33.18,15.22"/>
          <circle class="cls-8" cx="304.15" cy="414.99" r="15.17"/>
          <path class="cls-4" d="m311.53,563.95s18.17,12.89,53.81,12.65c35.65-.24,54.14-12.65,54.14-12.65"/>
        </g>
      </g>
    </g>
  </g>
</svg>