<?xml version="1.0" encoding="UTF-8"?>
<svg id="Layer_2" data-name="Layer 2" xmlns="http://www.w3.org/2000/svg" xmlns:xlink="http://www.w3.org/1999/xlink" viewBox="0 0 725.54 836.54">
  <defs>
    <style>
      .cls-1 {
        clip-path: url(#clippath);
      }

      .cls-2, .cls-3, .cls-4, .cls-5 {
        fill: none;
      }

      .cls-2, .cls-6, .cls-7, .cls-8, .cls-9, .cls-10, .cls-11, .cls-12, .cls-13 {
        stroke-width: 0px;
      }

      .cls-3 {
        stroke: #1b1e38;
        stroke-linecap: round;
        stroke-width: 8.43px;
      }

      .cls-3, .cls-4, .cls-5 {
        stroke-miterlimit: 10;
      }

      .cls-4 {
        stroke: #1a1a1a;
      }

      .cls-4, .cls-5 {
        stroke-width: 4.22px;
      }

      .cls-5 {
        stroke: #b28a6f;
      }

      .cls-6 {
        fill: #77ad53;
      }

      .cls-7 {
        fill: #2d8462;
      }

      .cls-8 {
        fill: #3b3f56;
      }

      .cls-9 {
        fill: #1a1a1a;
      }

      .cls-10 {
        fill: #1b1e38;
      }

      .cls-11 {
        fill: #dbad89;
      }

      .cls-12 {
        fill: #80ba5a;
      }

      .cls-13 {
        fill: #fcc7a2;
      }
    </style>
    <clipPath id="clippath">
      <path id="Tiles" class="cls-2" d="m525.86,806.02c0,14.95-12.12,27.07-27.07,27.07h-110.38c-14.95,0-27.07-12.12-27.07-27.07v-110.38c0-14.95,12.12-27.07,27.07-27.07h110.38c14.95,0,27.07,12.12,27.07,27.07v110.38Zm-167.43-110.35c0-14.95-12.12-27.07-27.07-27.07h-110.38c-14.95,0-27.07,12.12-27.07,27.07v110.38c0,14.95,12.12,27.07,27.07,27.07h110.38c14.95,0,27.07-12.12,27.07-27.07v-110.38Zm336.2-93.23c0-14.95-12.12-27.07-27.07-27.07h-110.38c-14.95,0-27.07,12.12-27.07,27.07v110.38c0,14.95,12.12,27.07,27.07,27.07h110.38c14.95,0,27.07-12.12,27.07-27.07v-110.38Zm-168.77-73.03c0-14.95-12.12-27.07-27.07-27.07h-110.38c-14.95,0-27.07,12.12-27.07,27.07v110.38c0,14.95,12.12,27.07,27.07,27.07h110.38c14.95,0,27.07-12.12,27.07-27.07v-110.38Zm-167.43.03c0-14.95-12.12-27.07-27.07-27.07h-110.38c-14.95,0-27.07,12.12-27.07,27.07v110.38c0,14.95,12.12,27.07,27.07,27.07h110.38c14.95,0,27.07-12.12,27.07-27.07v-110.38Zm-168.1,70.63c0-14.95-12.12-27.07-27.07-27.07H52.89c-13.61,0-24.87,10.05-26.78,23.13v118.25c1.91,13.08,13.17,23.13,26.78,23.13h110.38c14.95,0,27.07-12.12,27.07-27.07v-110.38Zm504.29-163.86c0-14.95-12.12-27.07-27.07-27.07h-110.38c-14.95,0-27.07,12.12-27.07,27.07v110.38c0,14.95,12.12,27.07,27.07,27.07h110.38c14.95,0,27.07-12.12,27.07-27.07v-110.38Zm-168.77-73.03c0-14.95-12.12-27.07-27.07-27.07h-110.38c-14.95,0-27.07,12.12-27.07,27.07v110.38c0,14.95,12.12,27.07,27.07,27.07h110.38c14.95,0,27.07-12.12,27.07-27.07v-110.38Zm-167.43.03c0-14.95-12.12-27.07-27.07-27.07h-110.38c-14.95,0-27.07,12.12-27.07,27.07v110.38c0,14.95,12.12,27.07,27.07,27.07h110.38c14.95,0,27.07-12.12,27.07-27.07v-110.38Zm-168.1,70.63c0-14.95-12.12-27.07-27.07-27.07H52.89c-13.61,0-24.87,10.05-26.78,23.13v118.25c1.91,13.08,13.17,23.13,26.78,23.13h110.38c14.95,0,27.07-12.12,27.07-27.07v-110.38Zm504.29-163.86c0-14.95-12.12-27.07-27.07-27.07h-110.38c-14.95,0-27.07,12.12-27.07,27.07v110.38c0,14.95,12.12,27.07,27.07,27.07h110.38c14.95,0,27.07-12.12,27.07-27.07v-110.38Zm-168.77-73.03c0-14.95-12.12-27.07-27.07-27.07h-110.38c-14.95,0-27.07,12.12-27.07,27.07v110.38c0,14.95,12.12,27.07,27.07,27.07h110.38c14.95,0,27.07-12.12,27.07-27.07v-110.38Zm-167.43.03c0-14.95-12.12-27.07-27.07-27.07h-110.38c-14.95,0-27.07,12.12-27.07,27.07v110.38c0,14.95,12.12,27.07,27.07,27.07h110.38c14.95,0,27.07-12.12,27.07-27.07v-110.38Zm-168.1,70.63c0-14.95-12.12-27.07-27.07-27.07H52.89c-13.61,0-24.87,10.05-26.78,23.13v118.25c1.91,13.08,13.17,23.13,26.78,23.13h110.38c14.95,0,27.07-12.12,27.07-27.07v-110.38Zm504.29-163.86c0-14.95-12.12-27.07-27.07-27.07h-110.38c-14.95,0-27.07,12.12-27.07,27.07v110.38c0,14.95,12.12,27.07,27.07,27.07h110.38c14.95,0,27.07-12.12,27.07-27.07v-110.38Zm-168.77-73.03c0-14.95-12.12-27.07-27.07-27.07h-110.38c-14.95,0-27.07,12.12-27.07,27.07v110.38c0,14.95,12.12,27.07,27.07,27.07h110.38c14.95,0,27.07-12.12,27.07-27.07V30.72Zm-167.43.03c0-14.95-12.12-27.07-27.07-27.07h-110.38c-14.95,0-27.07,12.12-27.07,27.07v110.38c0,14.95,12.12,27.07,27.07,27.07h110.38c14.95,0,27.07-12.12,27.07-27.07V30.74Zm-168.1,70.63c0-14.95-12.12-27.07-27.07-27.07H52.89c-13.61,0-24.87,10.05-26.78,23.13v118.25c1.91,13.08,13.17,23.13,26.78,23.13h110.38c14.95,0,27.07-12.12,27.07-27.07v-110.38Z"/>
    </clipPath>
  </defs>
  <g id="Layer_27" data-name="Layer 27">
    <g id="F">
      <g class="cls-1">
        <g>
          <rect class="cls-7" width="725.54" height="836.54"/>
          <path class="cls-10" d="m494.42,226.51s68.28,1.82,85.58,67.37c17.3,65.55-38.24,159.33-32.78,180.27,5.46,20.94-1.82,78.71-23.67,87.61-21.85,8.9-111.07,27.85-111.07,27.85,0,0-169.5-.04-202.65-25.43-33.15-25.39-22.57-52.7-19.66-64.08,2.9-11.38-37-74.2-41.18-124.28-4.18-50.07-2.36-96.51,66.84-129.28,69.19-32.78,170.25-75.57,278.6-20.03Z"/>
          <path class="cls-11" d="m200.9,410.38s-16.1-33.32-37.19-15.73c-21.08,17.59-12.28,69.49-4.84,88.61,7.43,19.12,30.55,60.07,49.95,40.96"/>
          <path class="cls-6" d="m501.7,709.51c-30.96-18.28-73.75-44.17-73.75-44.17l-67.37,19.46-67.37-19.46s-42.79,25.89-73.75,44.17c-25.14,14.84-134.37,37.22-205.73,51.3v75.72h696.23v-75.35c-69.7-13.85-183.07-36.79-208.27-51.67Z"/>
          <path class="cls-11" d="m471.7,680.02c-10.37-20.05,0-90.91,0-90.91l-111.12-14.68-111.12,14.68s10.37,70.86,0,90.91c-10.37,20.05-51.85,48.82-51.85,48.82,0,0,138.48-33.93,161.91,107.69h0c34.08-144.82,164.03-107.69,164.03-107.69,0,0-41.48-28.77-51.85-48.82Z"/>
          <path class="cls-11" d="m515.63,524.22c19.4,19.11,42.51-21.84,49.95-40.96,7.43-19.12,16.24-71.01-4.84-88.61-21.08-17.59-37.19,15.73-37.19,15.73"/>
          <path class="cls-13" d="m422.22,201.93c-21.97-9.9-42.53-15.21-61.64-16.6-19.11,1.4-39.67,6.71-61.64,16.6-87.61,39.46-136.42,88.31-114.19,242.18,21.68,150.04,46.55,221.24,175.83,221.22,122-.02,154.15-71.18,175.83-221.22,22.23-153.87-26.58-202.71-114.19-242.18Z"/>
          <path class="cls-3" d="m411.27,373.88s15.48-24.74,51.9-22.92c36.42,1.82,45.94,21.85,45.94,21.85"/>
          <path class="cls-3" d="m313.81,372.82s-15.48-23.67-51.9-21.85c-36.42,1.82-47,21.85-47,21.85"/>
          <path class="cls-12" d="m150.55,723.35s55.63-73.51,96.87-64.49c13.17,2.88,9.88,49.55,65.83,54.26,25.94,2.19,24.98,38.94,24.98,38.94l-2.13,21.3.5-.29-74.28,45.41s-90.09-21.49-111.76-95.13Z"/>
          <path class="cls-12" d="m569.07,727.62s-58.35-73.52-95.8-73.01c-13.48.18-14.72,50.6-66.89,62.78-25.35,5.92-20.24,27.22-20.24,27.22l-2.13,33.01-.98-.28,74.28,45.41s90.09-21.49,111.76-95.13Z"/>
          <path class="cls-4" d="m418.97,407.82s7.64-15.2,34.48-21.8c26.84-6.6,36.38,2.63,36.38,2.63"/>
          <circle class="cls-9" cx="452.22" cy="403.37" r="16.84"/>
          <path class="cls-4" d="m306.95,409.65s-6.79-15.6-33.23-23.66c-26.44-8.06-36.47.63-36.47.63"/>
          <circle class="cls-9" cx="274.59" cy="403.37" r="16.84"/>
          <path class="cls-10" d="m246.05,625.7s11.24-54.66,32.54-62.12c21.3-7.45,81.99,14.04,81.99,14.04,0,0,61.21-25.7,80.12-15.61,18.91,10.09,33.69,52.36,33.69,52.36l26.87-26.42s-41.35-53.03-66.14-50.99c-107.61,8.85-147.49-4.92-164.79.74s-49.93,32.44-37.34,60.58l12.59,28.13"/>
          <path class="cls-5" d="m298.82,580.26s22.88,15.65,57.61,15.37c34.74-.28,57.19-15.37,57.19-15.37"/>
          <path class="cls-10" d="m538.81,340.12l-2.74,21.72-26.41,184.71s-32.91,97.65-157.6,103.29-146.95-151.21-146.95-151.21l-25.76-146.15c-3.53,27.86.55,61.36,6.46,102.28,21.68,150.04,41.22,240.89,170.51,240.87,122-.02,159.48-90.83,181.16-240.87,6.82-47.17,6.94-84.45,1.33-114.64Z"/>
          <path class="cls-5" d="m359.22,534.7c-63.73,3.64-40.2-34.31-33.24-47.25,6.96-12.94,14.91-46.85,14.91-46.85"/>
          <path class="cls-8" d="m540.54,372.98c54.31-40.46,47.92-84.12,35.14-104.36-8.85-14.02-53.24-59.63-93.71-83.06-28.86-16.71-75.47-40.36-109.68-44.72-50.05-6.39-104.01,4.79-140.29,48.83-13.2,16.02-30.55,60.03-20.94,70.49,14.13,15.39,36.12-34.78,94.15,16.97,39.4,35.14,82.75,45.45,146.95,42.59,47.92-2.13,69.22,20.89,85.19,43.66"/>
        </g>
      </g>
    </g>
  </g>
</svg>