<?xml version="1.0" encoding="UTF-8"?>
<svg id="Layer_2" data-name="Layer 2" xmlns="http://www.w3.org/2000/svg" xmlns:xlink="http://www.w3.org/1999/xlink" viewBox="0 0 725.54 836.54">
  <defs>
    <style>
      .cls-1 {
        clip-path: url(#clippath);
      }

      .cls-2, .cls-3, .cls-4, .cls-5 {
        fill: none;
      }

      .cls-2, .cls-6, .cls-7, .cls-8, .cls-9, .cls-10, .cls-11, .cls-12, .cls-13 {
        stroke-width: 0px;
      }

      .cls-3 {
        stroke: #af7331;
        stroke-linecap: round;
        stroke-width: 8.43px;
      }

      .cls-3, .cls-4, .cls-5 {
        stroke-miterlimit: 10;
      }

      .cls-4 {
        stroke: #1a1a1a;
      }

      .cls-4, .cls-5 {
        stroke-width: 4.22px;
      }

      .cls-5 {
        stroke: #d68f5f;
      }

      .cls-6 {
        fill: #5459a3;
      }

      .cls-7 {
        fill: #5c69c6;
      }

      .cls-8 {
        fill: #1a1a1a;
      }

      .cls-9 {
        fill: #d89845;
      }

      .cls-10 {
        fill: #af7331;
      }

      .cls-11 {
        fill: #bfdcdd;
      }

      .cls-12 {
        fill: #e5ab83;
      }

      .cls-13 {
        fill: #efc3a5;
      }
    </style>
    <clipPath id="clippath">
      <path id="Tiles" class="cls-2" d="m525.86,806.02c0,14.95-12.12,27.07-27.07,27.07h-110.38c-14.95,0-27.07-12.12-27.07-27.07v-110.38c0-14.95,12.12-27.07,27.07-27.07h110.38c14.95,0,27.07,12.12,27.07,27.07v110.38Zm-167.43-110.35c0-14.95-12.12-27.07-27.07-27.07h-110.38c-14.95,0-27.07,12.12-27.07,27.07v110.38c0,14.95,12.12,27.07,27.07,27.07h110.38c14.95,0,27.07-12.12,27.07-27.07v-110.38Zm336.2-93.23c0-14.95-12.12-27.07-27.07-27.07h-110.38c-14.95,0-27.07,12.12-27.07,27.07v110.38c0,14.95,12.12,27.07,27.07,27.07h110.38c14.95,0,27.07-12.12,27.07-27.07v-110.38Zm-168.77-73.03c0-14.95-12.12-27.07-27.07-27.07h-110.38c-14.95,0-27.07,12.12-27.07,27.07v110.38c0,14.95,12.12,27.07,27.07,27.07h110.38c14.95,0,27.07-12.12,27.07-27.07v-110.38Zm-167.43.03c0-14.95-12.12-27.07-27.07-27.07h-110.38c-14.95,0-27.07,12.12-27.07,27.07v110.38c0,14.95,12.12,27.07,27.07,27.07h110.38c14.95,0,27.07-12.12,27.07-27.07v-110.38Zm-168.1,70.63c0-14.95-12.12-27.07-27.07-27.07H52.89c-13.61,0-24.87,10.05-26.78,23.13v118.25c1.91,13.08,13.17,23.13,26.78,23.13h110.38c14.95,0,27.07-12.12,27.07-27.07v-110.38Zm504.29-163.86c0-14.95-12.12-27.07-27.07-27.07h-110.38c-14.95,0-27.07,12.12-27.07,27.07v110.38c0,14.95,12.12,27.07,27.07,27.07h110.38c14.95,0,27.07-12.12,27.07-27.07v-110.38Zm-168.77-73.03c0-14.95-12.12-27.07-27.07-27.07h-110.38c-14.95,0-27.07,12.12-27.07,27.07v110.38c0,14.95,12.12,27.07,27.07,27.07h110.38c14.95,0,27.07-12.12,27.07-27.07v-110.38Zm-167.43.03c0-14.95-12.12-27.07-27.07-27.07h-110.38c-14.95,0-27.07,12.12-27.07,27.07v110.38c0,14.95,12.12,27.07,27.07,27.07h110.38c14.95,0,27.07-12.12,27.07-27.07v-110.38Zm-168.1,70.63c0-14.95-12.12-27.07-27.07-27.07H52.89c-13.61,0-24.87,10.05-26.78,23.13v118.25c1.91,13.08,13.17,23.13,26.78,23.13h110.38c14.95,0,27.07-12.12,27.07-27.07v-110.38Zm504.29-163.86c0-14.95-12.12-27.07-27.07-27.07h-110.38c-14.95,0-27.07,12.12-27.07,27.07v110.38c0,14.95,12.12,27.07,27.07,27.07h110.38c14.95,0,27.07-12.12,27.07-27.07v-110.38Zm-168.77-73.03c0-14.95-12.12-27.07-27.07-27.07h-110.38c-14.95,0-27.07,12.12-27.07,27.07v110.38c0,14.95,12.12,27.07,27.07,27.07h110.38c14.95,0,27.07-12.12,27.07-27.07v-110.38Zm-167.43.03c0-14.95-12.12-27.07-27.07-27.07h-110.38c-14.95,0-27.07,12.12-27.07,27.07v110.38c0,14.95,12.12,27.07,27.07,27.07h110.38c14.95,0,27.07-12.12,27.07-27.07v-110.38Zm-168.1,70.63c0-14.95-12.12-27.07-27.07-27.07H52.89c-13.61,0-24.87,10.05-26.78,23.13v118.25c1.91,13.08,13.17,23.13,26.78,23.13h110.38c14.95,0,27.07-12.12,27.07-27.07v-110.38Zm504.29-163.86c0-14.95-12.12-27.07-27.07-27.07h-110.38c-14.95,0-27.07,12.12-27.07,27.07v110.38c0,14.95,12.12,27.07,27.07,27.07h110.38c14.95,0,27.07-12.12,27.07-27.07v-110.38Zm-168.77-73.03c0-14.95-12.12-27.07-27.07-27.07h-110.38c-14.95,0-27.07,12.12-27.07,27.07v110.38c0,14.95,12.12,27.07,27.07,27.07h110.38c14.95,0,27.07-12.12,27.07-27.07V30.72Zm-167.43.03c0-14.95-12.12-27.07-27.07-27.07h-110.38c-14.95,0-27.07,12.12-27.07,27.07v110.38c0,14.95,12.12,27.07,27.07,27.07h110.38c14.95,0,27.07-12.12,27.07-27.07V30.74Zm-168.1,70.63c0-14.95-12.12-27.07-27.07-27.07H52.89c-13.61,0-24.87,10.05-26.78,23.13v118.25c1.91,13.08,13.17,23.13,26.78,23.13h110.38c14.95,0,27.07-12.12,27.07-27.07v-110.38Z"/>
    </clipPath>
  </defs>
  <g id="Layer_27" data-name="Layer 27">
    <g id="G">
      <g class="cls-1">
        <g>
          <rect class="cls-7" width="725.54" height="836.54"/>
          <g id="Sample_portrait" data-name="Sample portrait">
            <path class="cls-10" d="m555.9,411.4s25.81,219.53,18.72,257.61c-7.09,38.07-160.79,45.79-160.79,45.79l-42.5-115.24s158.83-273.01,184.57-188.15Z"/>
            <path class="cls-12" d="m511.78,533.73s55.75-9.02,28.21-87.81c-27.54-78.79-53.56-27.12-53.56-27.12l-13.54,114.93h38.89Z"/>
            <path class="cls-10" d="m161.58,411.4s-24.56,169.18-17.46,207.25c7.09,38.07,166.42,107.86,166.42,107.86l35.62-126.96s-158.83-273.01-184.57-188.15Z"/>
            <path class="cls-12" d="m611.47,708.75c-113.42-37.62-156.99,8.47-174.92-28.01-17.93-36.48,3.23-134.26,3.23-134.26l-80.07-12.1v-.29s-.97.15-.97.15l-.97-.15v.29s-80.07,12.1-80.07,12.1c0,0,21.16,97.78,3.23,134.26-17.93,36.48-61.49-9.61-174.92,28.01-78.72,26.11-57.6,127.78-57.6,127.78h621.66s20.13-101.67-58.59-127.78Z"/>
            <path class="cls-12" d="m205.69,533.73s-55.75-9.02-28.21-87.81c27.54-78.79,53.56-27.12,53.56-27.12l13.54,114.93h-38.89Z"/>
            <path class="cls-13" d="m235.99,199.4s-74.21,104.73-47.31,239.2c27.89,139.43,105.88,230.4,164.45,230.4,72.41,0,147.78-90.97,175.66-230.4,26.89-134.47-119.23-332.91-292.8-239.2Z"/>
            <path class="cls-6" d="m611.42,706.68c-33.86-14.69-174.87-25.94-174.87-25.94,0,0,52.71,99.07-11.01,122.44-19.53,7.16-64.77,7.13-66.8,7.88-2.03-.75-45.71-.72-65.24-7.88-63.73-23.37-12.57-122.44-12.57-122.44,0,0-141.01,11.26-174.87,25.94-81.63,35.4-68.3,129.85-68.3,129.85h642.96s12.34-94.44-69.29-129.85Z"/>
            <path class="cls-9" d="m563.03,332.62c-37.12-161.54-131.11-165.16-239.72-172.61-30.84-2.12-131.75,11.07-168.87,172.61-37.12,161.54,52.8,181.98,52.8,181.98,0,0-18.1-163.99,67.09-200.19,59.29-25.2,86.69,15.33,96.9,11.71,10.21,3.62,60.24-22.24,102.23,26.62,58.57,68.15,44.72,140.56,44.72,140.56,0,0,81.98.85,44.85-160.69Z"/>
          </g>
          <path class="cls-3" d="m398.87,388.4s9-21.91,42.71-20.23c33.71,1.69,42.13,20.23,42.13,20.23"/>
          <path class="cls-3" d="m323.24,388.4s-11.13-21.91-44.84-20.23c-33.71,1.69-42.13,20.23-42.13,20.23"/>
          <path class="cls-5" d="m353.66,440.59s-12.33,36.4-18.77,48.38c-6.44,11.98-32.34,55.98,18.77,53.85"/>
          <path class="cls-4" d="m406.39,442.32s8.46-13.28,33.8-16.83c25.33-3.55,33.25,5.84,33.25,5.84"/>
          <circle class="cls-8" cx="438.46" cy="441.87" r="15.59"/>
          <path class="cls-4" d="m306.94,444.78s-7.42-13.89-32.41-19.37c-24.99-5.48-33.6,3.28-33.6,3.28"/>
          <circle class="cls-8" cx="275.82" cy="441.87" r="15.59"/>
          <path class="cls-5" d="m308.94,587.54s5.11,7.72,44.72,7.45c39.61-.27,44.72-7.45,44.72-7.45"/>
          <rect class="cls-11" x="511.79" y="522.05" width="10.65" height="28.75" rx="3.59" ry="3.59" transform="translate(-75.07 84.24) rotate(-8.68)"/>
          <rect class="cls-11" x="196.6" y="522.05" width="10.65" height="28.75" rx="3.59" ry="3.59" transform="translate(47.53 -15.56) rotate(5)"/>
        </g>
      </g>
    </g>
  </g>
</svg>