<?xml version="1.0" encoding="UTF-8"?>
<svg id="Layer_2" data-name="Layer 2" xmlns="http://www.w3.org/2000/svg" xmlns:xlink="http://www.w3.org/1999/xlink" viewBox="0 0 725.54 836.54">
  <defs>
    <style>
      .cls-1 {
        clip-path: url(#clippath);
      }

      .cls-2, .cls-3, .cls-4, .cls-5 {
        fill: none;
      }

      .cls-2, .cls-6, .cls-7, .cls-8, .cls-9, .cls-10, .cls-11, .cls-12 {
        stroke-width: 0px;
      }

      .cls-3 {
        stroke: #472513;
        stroke-width: 8.43px;
      }

      .cls-3, .cls-4 {
        stroke-linecap: round;
      }

      .cls-3, .cls-4, .cls-5 {
        stroke-miterlimit: 10;
      }

      .cls-4 {
        stroke: #7a4226;
      }

      .cls-4, .cls-5 {
        stroke-width: 4.22px;
      }

      .cls-5 {
        stroke: #1a1a1a;
      }

      .cls-6 {
        fill: #fa9000;
      }

      .cls-7 {
        fill: #472513;
      }

      .cls-8 {
        fill: #7c4b29;
      }

      .cls-9 {
        fill: #7c553a;
      }

      .cls-10 {
        fill: #8948b7;
      }

      .cls-11 {
        fill: #1a1a1a;
      }

      .cls-12 {
        fill: #8c5e3b;
      }
    </style>
    <clipPath id="clippath">
      <path id="Tiles" class="cls-2" d="m525.86,806.02c0,14.95-12.12,27.07-27.07,27.07h-110.38c-14.95,0-27.07-12.12-27.07-27.07v-110.38c0-14.95,12.12-27.07,27.07-27.07h110.38c14.95,0,27.07,12.12,27.07,27.07v110.38Zm-167.43-110.35c0-14.95-12.12-27.07-27.07-27.07h-110.38c-14.95,0-27.07,12.12-27.07,27.07v110.38c0,14.95,12.12,27.07,27.07,27.07h110.38c14.95,0,27.07-12.12,27.07-27.07v-110.38Zm336.2-93.23c0-14.95-12.12-27.07-27.07-27.07h-110.38c-14.95,0-27.07,12.12-27.07,27.07v110.38c0,14.95,12.12,27.07,27.07,27.07h110.38c14.95,0,27.07-12.12,27.07-27.07v-110.38Zm-168.77-73.03c0-14.95-12.12-27.07-27.07-27.07h-110.38c-14.95,0-27.07,12.12-27.07,27.07v110.38c0,14.95,12.12,27.07,27.07,27.07h110.38c14.95,0,27.07-12.12,27.07-27.07v-110.38Zm-167.43.03c0-14.95-12.12-27.07-27.07-27.07h-110.38c-14.95,0-27.07,12.12-27.07,27.07v110.38c0,14.95,12.12,27.07,27.07,27.07h110.38c14.95,0,27.07-12.12,27.07-27.07v-110.38Zm-168.1,70.63c0-14.95-12.12-27.07-27.07-27.07H52.89c-13.61,0-24.87,10.05-26.78,23.13v118.25c1.91,13.08,13.17,23.13,26.78,23.13h110.38c14.95,0,27.07-12.12,27.07-27.07v-110.38Zm504.29-163.86c0-14.95-12.12-27.07-27.07-27.07h-110.38c-14.95,0-27.07,12.12-27.07,27.07v110.38c0,14.95,12.12,27.07,27.07,27.07h110.38c14.95,0,27.07-12.12,27.07-27.07v-110.38Zm-168.77-73.03c0-14.95-12.12-27.07-27.07-27.07h-110.38c-14.95,0-27.07,12.12-27.07,27.07v110.38c0,14.95,12.12,27.07,27.07,27.07h110.38c14.95,0,27.07-12.12,27.07-27.07v-110.38Zm-167.43.03c0-14.95-12.12-27.07-27.07-27.07h-110.38c-14.95,0-27.07,12.12-27.07,27.07v110.38c0,14.95,12.12,27.07,27.07,27.07h110.38c14.95,0,27.07-12.12,27.07-27.07v-110.38Zm-168.1,70.63c0-14.95-12.12-27.07-27.07-27.07H52.89c-13.61,0-24.87,10.05-26.78,23.13v118.25c1.91,13.08,13.17,23.13,26.78,23.13h110.38c14.95,0,27.07-12.12,27.07-27.07v-110.38Zm504.29-163.86c0-14.95-12.12-27.07-27.07-27.07h-110.38c-14.95,0-27.07,12.12-27.07,27.07v110.38c0,14.95,12.12,27.07,27.07,27.07h110.38c14.95,0,27.07-12.12,27.07-27.07v-110.38Zm-168.77-73.03c0-14.95-12.12-27.07-27.07-27.07h-110.38c-14.95,0-27.07,12.12-27.07,27.07v110.38c0,14.95,12.12,27.07,27.07,27.07h110.38c14.95,0,27.07-12.12,27.07-27.07v-110.38Zm-167.43.03c0-14.95-12.12-27.07-27.07-27.07h-110.38c-14.95,0-27.07,12.12-27.07,27.07v110.38c0,14.95,12.12,27.07,27.07,27.07h110.38c14.95,0,27.07-12.12,27.07-27.07v-110.38Zm-168.1,70.63c0-14.95-12.12-27.07-27.07-27.07H52.89c-13.61,0-24.87,10.05-26.78,23.13v118.25c1.91,13.08,13.17,23.13,26.78,23.13h110.38c14.95,0,27.07-12.12,27.07-27.07v-110.38Zm504.29-163.86c0-14.95-12.12-27.07-27.07-27.07h-110.38c-14.95,0-27.07,12.12-27.07,27.07v110.38c0,14.95,12.12,27.07,27.07,27.07h110.38c14.95,0,27.07-12.12,27.07-27.07v-110.38Zm-168.77-73.03c0-14.95-12.12-27.07-27.07-27.07h-110.38c-14.95,0-27.07,12.12-27.07,27.07v110.38c0,14.95,12.12,27.07,27.07,27.07h110.38c14.95,0,27.07-12.12,27.07-27.07V30.72Zm-167.43.03c0-14.95-12.12-27.07-27.07-27.07h-110.38c-14.95,0-27.07,12.12-27.07,27.07v110.38c0,14.95,12.12,27.07,27.07,27.07h110.38c14.95,0,27.07-12.12,27.07-27.07V30.74Zm-168.1,70.63c0-14.95-12.12-27.07-27.07-27.07H52.89c-13.61,0-24.87,10.05-26.78,23.13v118.25c1.91,13.08,13.17,23.13,26.78,23.13h110.38c14.95,0,27.07-12.12,27.07-27.07v-110.38Z"/>
    </clipPath>
  </defs>
  <g id="Layer_27" data-name="Layer 27">
    <g id="H">
      <g class="cls-1">
        <g>
          <rect class="cls-6" width="725.54" height="836.54"/>
          <path class="cls-10" d="m701.92,757.19c-43.51-36.85-155.01-39.4-190.36-59.73-35.35-20.33-76.06-33.78-76.06-33.78h-148.3s-40.71,13.44-76.06,33.78c-35.35,20.33-146.85,22.88-190.36,59.73-2.93,2.48-5.71,5-8.34,7.52v71.83h693.59v-75.77c-1.33-1.2-2.69-2.39-4.09-3.57Z"/>
          <path class="cls-8" d="m399.7,780.64h-73.02c-31.59,0-55.6-52.9-50.34-84.05l7.88-56.21c4.15-24.57,25.43-32.97,50.34-32.97h57.27c24.92,0,46.19,10.53,50.34,35.1l7.88,54.08c5.26,31.15-18.75,84.05-50.34,84.05Z"/>
          <path class="cls-8" d="m515.53,539.2s54.08-8.75,27.36-85.18c-26.71-76.42-51.95-26.3-51.95-26.3l-13.13,111.48h37.72Z"/>
          <path class="cls-8" d="m218.62,539.2s-54.08-8.75-27.36-85.18c26.71-76.42,51.95-26.3,51.95-26.3l13.13,111.48h-37.72Z"/>
          <path class="cls-12" d="m368.04,231.35c-161.86,9.58-192,85.15-165.91,215.59,27.05,135.25,70.07,234.85,168.04,234.85s134.82-99.6,161.87-234.85c26.09-130.44,10.33-225.91-164-215.59Z"/>
          <g id="Sample_portrait" data-name="Sample portrait">
            <path class="cls-9" d="m565.12,344.02c3.11-41.33,7.04-106.65-23.51-128.64-26.62-19.17-87.42-47.29-173.57-46.85-84.23.42-151.21,26.62-174.64,47.92-12.78,21.3-18.1,66.02-10.46,142.04,12.89,128.14,35.12,92.96,35.12,92.96,0,0-37.18-83.67,3.1-92.96,0,0,.7-35.45-1.14-46.2-6.39-37.27,268.34-66.02,306.68-1.06,5.55,9.4-2.9,59.66-2.9,59.66,29.95,21.69-7.23,86.76-7.23,86.76,0,0,37.05,39.24,48.55-113.62Z"/>
          </g>
          <path class="cls-3" d="m417.75,378.21s13.9-21.25,46.6-19.62c32.7,1.63,46.03,19.62,46.03,19.62"/>
          <path class="cls-3" d="m328.9,378.21s-13.9-21.25-46.6-19.62c-32.7,1.63-46.03,19.62-46.03,19.62"/>
          <path class="cls-5" d="m420.66,404.66s10.16-11.41,34.97-10.89c24.81.52,30.94,10.74,30.94,10.74"/>
          <circle class="cls-11" cx="453.05" cy="409.42" r="15.12"/>
          <circle class="cls-11" cx="295.29" cy="409.42" r="15.12"/>
          <path class="cls-4" d="m309.48,567.71s19.58,13.9,58,13.63c38.42-.26,58.35-13.63,58.35-13.63"/>
          <path class="cls-5" d="m327.69,404.66s-10.16-11.41-34.97-10.89c-24.81.52-30.94,10.74-30.94,10.74"/>
          <path class="cls-4" d="m369.93,532.04c-57.22,3.27-26.69-37.43-20.44-49.05,6.25-11.62,15.12-49.46,15.12-49.46"/>
          <path class="cls-7" d="m541.61,215.38c-26.62-19.17-87.42-47.29-173.57-46.85-84.23.42-151.21,26.62-174.64,47.92-10.72,17.86-16.18,52.2-13.16,107.65,12.63-6.8,27.16-13.86,43.26-20.42,31.81-32.45,265.55-52.09,302.65,6.67,11.6,7.73,23.69,17.67,39.18,30.8,3.06-41.42,6.12-104.26-23.73-125.76Z"/>
        </g>
      </g>
    </g>
  </g>
</svg>