<?xml version="1.0" encoding="UTF-8"?>
<svg id="Layer_2" data-name="Layer 2" xmlns="http://www.w3.org/2000/svg" xmlns:xlink="http://www.w3.org/1999/xlink" viewBox="0 0 731.67 836.54">
  <defs>
    <style>
      .cls-1 {
        stroke-width: 3.37px;
      }

      .cls-1, .cls-2, .cls-3, .cls-4, .cls-5 {
        fill: none;
      }

      .cls-1, .cls-3, .cls-4, .cls-5 {
        stroke-linecap: round;
        stroke-linejoin: round;
      }

      .cls-1, .cls-4 {
        stroke: #bb7a4c;
      }

      .cls-6 {
        clip-path: url(#clippath);
      }

      .cls-2, .cls-7, .cls-8, .cls-9, .cls-10, .cls-11, .cls-12 {
        stroke-width: 0px;
      }

      .cls-3 {
        stroke: #919fac;
        stroke-width: 8.43px;
      }

      .cls-4, .cls-5 {
        stroke-width: 4.22px;
      }

      .cls-5 {
        stroke: #1a1a1a;
      }

      .cls-7 {
        fill: #1a1a1a;
      }

      .cls-8 {
        fill: #42be8f;
      }

      .cls-9 {
        fill: #d2905d;
      }

      .cls-10 {
        fill: #bb7a4c;
      }

      .cls-11 {
        fill: #919fac;
      }

      .cls-12 {
        fill: #fe7879;
      }
    </style>
    <clipPath id="clippath">
      <path id="Tiles" class="cls-2" d="m528.65,806.02c0,14.95-12.12,27.07-27.07,27.07h-110.38c-14.95,0-27.07-12.12-27.07-27.07v-110.38c0-14.95,12.12-27.07,27.07-27.07h110.38c14.95,0,27.07,12.12,27.07,27.07v110.38Zm-167.43-110.35c0-14.95-12.12-27.07-27.07-27.07h-110.38c-14.95,0-27.07,12.12-27.07,27.07v110.38c0,14.95,12.12,27.07,27.07,27.07h110.38c14.95,0,27.07-12.12,27.07-27.07v-110.38Zm336.2-93.23c0-14.95-12.12-27.07-27.07-27.07h-110.38c-14.95,0-27.07,12.12-27.07,27.07v110.38c0,14.95,12.12,27.07,27.07,27.07h110.38c14.95,0,27.07-12.12,27.07-27.07v-110.38Zm-168.77-73.03c0-14.95-12.12-27.07-27.07-27.07h-110.38c-14.95,0-27.07,12.12-27.07,27.07v110.38c0,14.95,12.12,27.07,27.07,27.07h110.38c14.95,0,27.07-12.12,27.07-27.07v-110.38Zm-167.43.03c0-14.95-12.12-27.07-27.07-27.07h-110.38c-14.95,0-27.07,12.12-27.07,27.07v110.38c0,14.95,12.12,27.07,27.07,27.07h110.38c14.95,0,27.07-12.12,27.07-27.07v-110.38Zm-168.1,70.63c0-14.95-12.12-27.07-27.07-27.07H55.68c-13.61,0-24.87,10.05-26.78,23.13v118.25c1.91,13.08,13.17,23.13,26.78,23.13h110.38c14.95,0,27.07-12.12,27.07-27.07v-110.38Zm504.29-163.86c0-14.95-12.12-27.07-27.07-27.07h-110.38c-14.95,0-27.07,12.12-27.07,27.07v110.38c0,14.95,12.12,27.07,27.07,27.07h110.38c14.95,0,27.07-12.12,27.07-27.07v-110.38Zm-168.77-73.03c0-14.95-12.12-27.07-27.07-27.07h-110.38c-14.95,0-27.07,12.12-27.07,27.07v110.38c0,14.95,12.12,27.07,27.07,27.07h110.38c14.95,0,27.07-12.12,27.07-27.07v-110.38Zm-167.43.03c0-14.95-12.12-27.07-27.07-27.07h-110.38c-14.95,0-27.07,12.12-27.07,27.07v110.38c0,14.95,12.12,27.07,27.07,27.07h110.38c14.95,0,27.07-12.12,27.07-27.07v-110.38Zm-168.1,70.63c0-14.95-12.12-27.07-27.07-27.07H55.68c-13.61,0-24.87,10.05-26.78,23.13v118.25c1.91,13.08,13.17,23.13,26.78,23.13h110.38c14.95,0,27.07-12.12,27.07-27.07v-110.38Zm504.29-163.86c0-14.95-12.12-27.07-27.07-27.07h-110.38c-14.95,0-27.07,12.12-27.07,27.07v110.38c0,14.95,12.12,27.07,27.07,27.07h110.38c14.95,0,27.07-12.12,27.07-27.07v-110.38Zm-168.77-73.03c0-14.95-12.12-27.07-27.07-27.07h-110.38c-14.95,0-27.07,12.12-27.07,27.07v110.38c0,14.95,12.12,27.07,27.07,27.07h110.38c14.95,0,27.07-12.12,27.07-27.07v-110.38Zm-167.43.03c0-14.95-12.12-27.07-27.07-27.07h-110.38c-14.95,0-27.07,12.12-27.07,27.07v110.38c0,14.95,12.12,27.07,27.07,27.07h110.38c14.95,0,27.07-12.12,27.07-27.07v-110.38Zm-168.1,70.63c0-14.95-12.12-27.07-27.07-27.07H55.68c-13.61,0-24.87,10.05-26.78,23.13v118.25c1.91,13.08,13.17,23.13,26.78,23.13h110.38c14.95,0,27.07-12.12,27.07-27.07v-110.38Zm504.29-163.86c0-14.95-12.12-27.07-27.07-27.07h-110.38c-14.95,0-27.07,12.12-27.07,27.07v110.38c0,14.95,12.12,27.07,27.07,27.07h110.38c14.95,0,27.07-12.12,27.07-27.07v-110.38Zm-168.77-73.03c0-14.95-12.12-27.07-27.07-27.07h-110.38c-14.95,0-27.07,12.12-27.07,27.07v110.38c0,14.95,12.12,27.07,27.07,27.07h110.38c14.95,0,27.07-12.12,27.07-27.07V30.72Zm-167.43.03c0-14.95-12.12-27.07-27.07-27.07h-110.38c-14.95,0-27.07,12.12-27.07,27.07v110.38c0,14.95,12.12,27.07,27.07,27.07h110.38c14.95,0,27.07-12.12,27.07-27.07V30.74Zm-168.1,70.63c0-14.95-12.12-27.07-27.07-27.07H55.68c-13.61,0-24.87,10.05-26.78,23.13v118.25c1.91,13.08,13.17,23.13,26.78,23.13h110.38c14.95,0,27.07-12.12,27.07-27.07v-110.38Z"/>
    </clipPath>
  </defs>
  <g id="Layer_27" data-name="Layer 27">
    <g id="I">
      <g class="cls-6">
        <g>
          <rect class="cls-12" x="2.79" width="725.54" height="836.54"/>
          <path class="cls-10" d="m3.01,836.53s-24.72-102.09,67.42-128.2c132.75-37.62,150.54,8.47,171.53-28.01,20.99-36.48,2.64-134.26,2.64-134.26l122.77-12.4-1.12,302.87H3.01Z"/>
          <path class="cls-10" d="m209.26,528.41s-63.15,17.61-65.14-67.44c-1.99-85.04,46.4-49.74,46.4-49.74l60.27,99.12-41.54,18.05Z"/>
          <path class="cls-9" d="m367.28,186.34c-1.06-.01-2.11-.04-3.18-.04-135.26,0-217.35,149.89-187.66,271.9,30.78,126.48-39.86,177.47,187.66,195.21,1.07.08,2.12-.03,3.18-.04V186.34Z"/>
          <path class="cls-8" d="m330.28,725.12c-79.86-2.9-86.65-44.8-86.65-44.8,0,0-137.71,11.26-178.21,25.94-21.37,7.75-36.68,18.35-47.57,30.18v100.1h351.99l.46-17.33c.35-11.13.7-22.29,2.42-33.29,9.67-61.86,16.3-58.66-42.44-60.79Z"/>
          <path class="cls-11" d="m217.23,291.72c-17.04,3.19,23.09-52.08,13.84-51.11-30.78,3.22-73.97,104.81-73.47,148.01.27,23.43,3.26,41.2,7.6,54.67,6.21,19.28,34.92,14.15,34.26-6.09-1.29-39.55,1.9-92.44,25.22-114.6,42.59-40.46-7.45-30.88-7.45-30.88Z"/>
          <path class="cls-10" d="m728.67,836.53s24.58-102.41-67.05-128.52c-132.02-37.62-149.72,8.47-170.59-28.01-20.87-36.48-2.63-134.26-2.63-134.26l-122.09-12.4,1.12,303.19h361.24Z"/>
          <path class="cls-8" d="m711.44,730.01c-10.26-9.22-23.63-17.44-41.04-23.75-40.5-14.69-178.21-25.94-178.21-25.94,0,0-6.79,41.91-86.65,44.8-58.74,2.13-52.12-1.06-42.44,60.79,1.72,11.01,2.08,22.17,2.42,33.29l.46,17.33h345.46v-106.52Z"/>
          <path class="cls-10" d="m530.62,523.08s63.15,17.61,65.14-67.44c1.99-85.04-46.4-49.74-46.4-49.74l-60.27,99.12,41.54,18.05Z"/>
          <path class="cls-9" d="m366.31,186.34c1.06-.01,2.11-.04,3.18-.04,135.26,0,217.35,149.89,187.66,271.9-30.78,126.48,39.86,177.47-187.66,195.21-1.07.08-2.12-.03-3.18-.04V186.34Z"/>
          <path class="cls-11" d="m515.52,291.72c17.04,3.19-23.09-52.08-13.84-51.11,30.78,3.22,73.97,104.81,73.47,148.01-.27,23.43-3.26,41.2-7.6,54.67-6.21,19.28-34.92,14.15-34.26-6.09,1.29-39.55-1.9-92.44-25.22-114.6-42.59-40.46,7.45-30.88,7.45-30.88Z"/>
          <path class="cls-5" d="m308.81,401.63c-4.61-3.29-14.08-9.07-27.33-10.51-20.58-2.23-35.76,7.59-39.95,10.51"/>
          <circle class="cls-7" cx="275.91" cy="403.7" r="14.19"/>
          <path class="cls-5" d="m486.6,401.13c-4.61-3.29-14.08-9.07-27.33-10.51-20.58-2.23-35.76,7.59-39.95,10.51"/>
          <circle class="cls-7" cx="453.7" cy="403.2" r="14.19"/>
          <path class="cls-3" d="m334.2,378.32c-47.82-35.26-85.09-25.97-110.15-11.44"/>
          <path class="cls-3" d="m511.35,364.25c-54.98-22.54-88.85-4.43-109.62,15.77"/>
          <path class="cls-1" d="m359.39,423.23c-44.97,79.33-48.67,95.1,11.03,98.74"/>
          <path class="cls-4" d="m300.92,571.19c38.24,7.51,78.7,13.9,121.39-2.66"/>
          <path class="cls-1" d="m309.77,510.92c-29.53,19.52-26.35,18.75-42.39,43.98"/>
          <path class="cls-1" d="m407.94,513.05c29.53,19.52,26.35,18.75,42.39,43.98"/>
        </g>
      </g>
    </g>
  </g>
</svg>