<?xml version="1.0" encoding="UTF-8"?>
<svg id="Layer_2" data-name="Layer 2" xmlns="http://www.w3.org/2000/svg" xmlns:xlink="http://www.w3.org/1999/xlink" viewBox="0 0 725.54 836.54">
  <defs>
    <style>
      .cls-1 {
        clip-path: url(#clippath);
      }

      .cls-2, .cls-3, .cls-4, .cls-5, .cls-6 {
        fill: none;
      }

      .cls-2, .cls-7, .cls-8, .cls-9, .cls-10, .cls-11, .cls-12, .cls-13 {
        stroke-width: 0px;
      }

      .cls-3 {
        stroke-width: 3.37px;
      }

      .cls-3, .cls-4, .cls-5, .cls-6 {
        stroke-linecap: round;
        stroke-linejoin: round;
      }

      .cls-3, .cls-5 {
        stroke: #893e28;
      }

      .cls-4 {
        stroke: #1a1a1a;
      }

      .cls-4, .cls-5 {
        stroke-width: 4.22px;
      }

      .cls-6 {
        stroke: #262260;
        stroke-width: 8.43px;
      }

      .cls-7 {
        fill: #262260;
      }

      .cls-8 {
        fill: #893e28;
      }

      .cls-9 {
        fill: #1a1a1a;
      }

      .cls-10 {
        fill: #15153f;
      }

      .cls-11 {
        fill: #ac5d43;
      }

      .cls-12 {
        fill: #9895da;
      }

      .cls-13 {
        fill: #ecac01;
      }
    </style>
    <clipPath id="clippath">
      <path id="Tiles" class="cls-2" d="m525.86,806.02c0,14.95-12.12,27.07-27.07,27.07h-110.38c-14.95,0-27.07-12.12-27.07-27.07v-110.38c0-14.95,12.12-27.07,27.07-27.07h110.38c14.95,0,27.07,12.12,27.07,27.07v110.38Zm-167.43-110.35c0-14.95-12.12-27.07-27.07-27.07h-110.38c-14.95,0-27.07,12.12-27.07,27.07v110.38c0,14.95,12.12,27.07,27.07,27.07h110.38c14.95,0,27.07-12.12,27.07-27.07v-110.38Zm336.2-93.23c0-14.95-12.12-27.07-27.07-27.07h-110.38c-14.95,0-27.07,12.12-27.07,27.07v110.38c0,14.95,12.12,27.07,27.07,27.07h110.38c14.95,0,27.07-12.12,27.07-27.07v-110.38Zm-168.77-73.03c0-14.95-12.12-27.07-27.07-27.07h-110.38c-14.95,0-27.07,12.12-27.07,27.07v110.38c0,14.95,12.12,27.07,27.07,27.07h110.38c14.95,0,27.07-12.12,27.07-27.07v-110.38Zm-167.43.03c0-14.95-12.12-27.07-27.07-27.07h-110.38c-14.95,0-27.07,12.12-27.07,27.07v110.38c0,14.95,12.12,27.07,27.07,27.07h110.38c14.95,0,27.07-12.12,27.07-27.07v-110.38Zm-168.1,70.63c0-14.95-12.12-27.07-27.07-27.07H52.89c-13.61,0-24.87,10.05-26.78,23.13v118.25c1.91,13.08,13.17,23.13,26.78,23.13h110.38c14.95,0,27.07-12.12,27.07-27.07v-110.38Zm504.29-163.86c0-14.95-12.12-27.07-27.07-27.07h-110.38c-14.95,0-27.07,12.12-27.07,27.07v110.38c0,14.95,12.12,27.07,27.07,27.07h110.38c14.95,0,27.07-12.12,27.07-27.07v-110.38Zm-168.77-73.03c0-14.95-12.12-27.07-27.07-27.07h-110.38c-14.95,0-27.07,12.12-27.07,27.07v110.38c0,14.95,12.12,27.07,27.07,27.07h110.38c14.95,0,27.07-12.12,27.07-27.07v-110.38Zm-167.43.03c0-14.95-12.12-27.07-27.07-27.07h-110.38c-14.95,0-27.07,12.12-27.07,27.07v110.38c0,14.95,12.12,27.07,27.07,27.07h110.38c14.95,0,27.07-12.12,27.07-27.07v-110.38Zm-168.1,70.63c0-14.95-12.12-27.07-27.07-27.07H52.89c-13.61,0-24.87,10.05-26.78,23.13v118.25c1.91,13.08,13.17,23.13,26.78,23.13h110.38c14.95,0,27.07-12.12,27.07-27.07v-110.38Zm504.29-163.86c0-14.95-12.12-27.07-27.07-27.07h-110.38c-14.95,0-27.07,12.12-27.07,27.07v110.38c0,14.95,12.12,27.07,27.07,27.07h110.38c14.95,0,27.07-12.12,27.07-27.07v-110.38Zm-168.77-73.03c0-14.95-12.12-27.07-27.07-27.07h-110.38c-14.95,0-27.07,12.12-27.07,27.07v110.38c0,14.95,12.12,27.07,27.07,27.07h110.38c14.95,0,27.07-12.12,27.07-27.07v-110.38Zm-167.43.03c0-14.95-12.12-27.07-27.07-27.07h-110.38c-14.95,0-27.07,12.12-27.07,27.07v110.38c0,14.95,12.12,27.07,27.07,27.07h110.38c14.95,0,27.07-12.12,27.07-27.07v-110.38Zm-168.1,70.63c0-14.95-12.12-27.07-27.07-27.07H52.89c-13.61,0-24.87,10.05-26.78,23.13v118.25c1.91,13.08,13.17,23.13,26.78,23.13h110.38c14.95,0,27.07-12.12,27.07-27.07v-110.38Zm504.29-163.86c0-14.95-12.12-27.07-27.07-27.07h-110.38c-14.95,0-27.07,12.12-27.07,27.07v110.38c0,14.95,12.12,27.07,27.07,27.07h110.38c14.95,0,27.07-12.12,27.07-27.07v-110.38Zm-168.77-73.03c0-14.95-12.12-27.07-27.07-27.07h-110.38c-14.95,0-27.07,12.12-27.07,27.07v110.38c0,14.95,12.12,27.07,27.07,27.07h110.38c14.95,0,27.07-12.12,27.07-27.07V30.72Zm-167.43.03c0-14.95-12.12-27.07-27.07-27.07h-110.38c-14.95,0-27.07,12.12-27.07,27.07v110.38c0,14.95,12.12,27.07,27.07,27.07h110.38c14.95,0,27.07-12.12,27.07-27.07V30.74Zm-168.1,70.63c0-14.95-12.12-27.07-27.07-27.07H52.89c-13.61,0-24.87,10.05-26.78,23.13v118.25c1.91,13.08,13.17,23.13,26.78,23.13h110.38c14.95,0,27.07-12.12,27.07-27.07v-110.38Z"/>
    </clipPath>
  </defs>
  <g id="Layer_27" data-name="Layer 27">
    <g id="J">
      <g class="cls-1">
        <g>
          <rect class="cls-13" width="725.54" height="836.54"/>
          <path class="cls-8" d="m262.71,526.67s26.96,97.78,4.12,134.26c-14.8,23.64-134.82,82.83-217.45,121.56v35.25l316.58-3.08,1.22-300.39-104.47,12.4Z"/>
          <path class="cls-12" d="m329.48,793.03c-80.98-29.16-55.41-149.91-55.41-149.91,0,0-187.28,14.05-230.31,32.38-12.84,5.47-23.63,12.06-32.67,19.4v141.62h353.8l1.22-30.3-36.63-13.19Z"/>
          <path class="cls-10" d="m252.49,473.81c-27.18-2.86-56.21,19.12-63.77,38.33-7.85,19.94,10.64,28.75,0,51.11-7.11,14.95-16.28,12.92-26.85,29.82-13.26,21.2,10.88,25.18,1.46,54.31-8.54,26.42-31.92,28.09-31.67,45.79.31,21.37,14.67,37.77,13.79,56.44-1,21.03-44.2,55.37-28.61,55.37,26.22,0,83.43-2.13,106.08-2.13,18.25,0-23.96-24.56-17.88-55.37,3.64-18.42,18.98-28.87,20.6-45.79,2.57-26.74-14.18-31.35-8.68-51.11,6.02-21.63,30.21-22.29,38.89-44.72,9.44-24.4-16.07-34.23-1.94-52.18,10.9-13.84,25.19-14.94,35.5-28.75,12.65-16.95-7.69-48.04-36.92-51.11Z"/>
          <path class="cls-8" d="m185.47,506.82s-55.75-9.02-28.21-87.81c27.54-78.79,53.56-27.12,53.56-27.12l13.54,114.93h-38.89Z"/>
          <path class="cls-11" d="m368.16,153.33c-.92-.01-1.83-.04-2.76-.04-117.36,0-211.85,171.66-186.09,302.11,26.7,135.23,68.73,197.31,186.09,197.31.93,0,1.84-.03,2.76-.05V153.33Z"/>
          <path class="cls-7" d="m367.78,132.18c-18.34-.94-36.91,1.91-46.41,2.73-31.61,2.73-125.29,32.27-163.41,183.05-38.12,150.78,38.82,131.04,38.82,131.04,0,0-10.89-87.25,77.26-131.24,58.02-28.95,83.26-38.83,93.74-42.2v-143.37Z"/>
          <path class="cls-8" d="m671.69,778.46c-82.12-38.69-194.58-94.69-208.88-117.53-22.84-36.48,4.12-134.26,4.12-134.26l-104.47-12.4,1.22,300.39,308.01,2.99v-39.2Z"/>
          <path class="cls-12" d="m707.33,686.81c-6.42-4.13-13.55-7.93-21.46-11.3-43.03-18.33-230.31-32.38-230.31-32.38,0,0,25.57,120.75-55.41,149.91l-36.63,13.19,1.22,30.3h342.59v-149.72Z"/>
          <path class="cls-10" d="m471.52,473.81c27.18-2.86,56.21,19.12,63.77,38.33,7.85,19.94-10.64,28.75,0,51.11,7.11,14.95,16.28,12.92,26.85,29.82,13.26,21.2-10.88,25.18-1.46,54.31,8.54,26.42,31.92,28.09,31.67,45.79-.31,21.37-14.67,37.77-13.79,56.44,1,21.03,44.2,55.37,28.61,55.37-26.22,0-83.43-2.13-106.08-2.13-18.25,0,23.96-24.56,17.88-55.37-3.64-18.42-18.98-28.87-20.6-45.79-2.57-26.74,14.18-31.35,8.68-51.11-6.02-21.63-30.21-22.29-38.89-44.72-9.44-24.4,16.07-34.23,1.94-52.18-10.9-13.84-25.19-14.94-35.5-28.75-12.65-16.95,7.69-48.04,36.92-51.11Z"/>
          <path class="cls-8" d="m552.69,504.69s55.75-9.02,28.21-87.81c-27.54-78.79-53.56-27.12-53.56-27.12l-13.54,114.93h38.89Z"/>
          <path class="cls-11" d="m363.2,153.33c.94-.01,1.87-.04,2.82-.04,119.91,0,216.46,171.66,190.14,302.11-27.28,135.23-70.23,197.31-190.14,197.31-.95,0-1.88-.03-2.82-.05V153.33Z"/>
          <path class="cls-7" d="m367.78,132.18c18.34-.94,36.91,1.91,46.41,2.73,31.61,2.73,125.29,32.27,163.41,183.05,38.12,150.78-38.82,131.04-38.82,131.04,0,0,10.89-87.25-77.26-131.24-58.02-28.95-83.26-38.83-93.74-42.2v-143.37Z"/>
          <path class="cls-4" d="m314.98,404.86c-5.16-2.49-15.61-6.64-29.09-5.81-20.93,1.3-34.4,13.71-38.08,17.35"/>
          <circle class="cls-9" cx="285.48" cy="412.81" r="14.38"/>
          <path class="cls-4" d="m417.12,404.86c5.16-2.49,15.61-6.64,29.09-5.81,20.93,1.3,34.4,13.71,38.08,17.35"/>
          <circle class="cls-9" cx="446.63" cy="412.81" r="14.38"/>
          <path class="cls-5" d="m302.82,558.46c9.97,4.58,69.22,27.16,121.39-5.85"/>
          <path class="cls-3" d="m360.86,461.57c-29.82,17.04-21.3,52.18,3.73,51.71"/>
          <path class="cls-6" d="m398.66,371.59c7.75-4,26.34-12.28,51.11-10.65,24.56,1.61,41.81,12.09,48.98,17.04"/>
          <path class="cls-6" d="m331.57,371.59c-7.75-4-26.34-12.28-51.11-10.65-24.56,1.61-41.81,12.09-48.98,17.04"/>
        </g>
      </g>
    </g>
  </g>
</svg>