<?xml version="1.0" encoding="UTF-8"?>
<svg id="Layer_2" data-name="Layer 2" xmlns="http://www.w3.org/2000/svg" xmlns:xlink="http://www.w3.org/1999/xlink" viewBox="0 0 725.54 836.54">
  <defs>
    <style>
      .cls-1 {
        clip-path: url(#clippath);
      }

      .cls-2, .cls-3, .cls-4, .cls-5 {
        fill: none;
      }

      .cls-2, .cls-6, .cls-7, .cls-8, .cls-9, .cls-10, .cls-11 {
        stroke-width: 0px;
      }

      .cls-3 {
        stroke: #2e2e59;
        stroke-width: 8.43px;
      }

      .cls-3, .cls-4 {
        stroke-linecap: round;
      }

      .cls-3, .cls-4, .cls-5 {
        stroke-miterlimit: 10;
      }

      .cls-4 {
        stroke: #492b22;
      }

      .cls-4, .cls-5 {
        stroke-width: 4.22px;
      }

      .cls-5 {
        stroke: #1a1a1a;
      }

      .cls-6 {
        fill: #494778;
      }

      .cls-7 {
        fill: #275a8a;
      }

      .cls-8 {
        fill: #704b3e;
      }

      .cls-9 {
        fill: #1a1a1a;
      }

      .cls-10 {
        fill: #684235;
      }

      .cls-11 {
        fill: #ffdb77;
      }
    </style>
    <clipPath id="clippath">
      <path id="Tiles" class="cls-2" d="m525.86,806.02c0,14.95-12.12,27.07-27.07,27.07h-110.38c-14.95,0-27.07-12.12-27.07-27.07v-110.38c0-14.95,12.12-27.07,27.07-27.07h110.38c14.95,0,27.07,12.12,27.07,27.07v110.38Zm-167.43-110.35c0-14.95-12.12-27.07-27.07-27.07h-110.38c-14.95,0-27.07,12.12-27.07,27.07v110.38c0,14.95,12.12,27.07,27.07,27.07h110.38c14.95,0,27.07-12.12,27.07-27.07v-110.38Zm336.2-93.23c0-14.95-12.12-27.07-27.07-27.07h-110.38c-14.95,0-27.07,12.12-27.07,27.07v110.38c0,14.95,12.12,27.07,27.07,27.07h110.38c14.95,0,27.07-12.12,27.07-27.07v-110.38Zm-168.77-73.03c0-14.95-12.12-27.07-27.07-27.07h-110.38c-14.95,0-27.07,12.12-27.07,27.07v110.38c0,14.95,12.12,27.07,27.07,27.07h110.38c14.95,0,27.07-12.12,27.07-27.07v-110.38Zm-167.43.03c0-14.95-12.12-27.07-27.07-27.07h-110.38c-14.95,0-27.07,12.12-27.07,27.07v110.38c0,14.95,12.12,27.07,27.07,27.07h110.38c14.95,0,27.07-12.12,27.07-27.07v-110.38Zm-168.1,70.63c0-14.95-12.12-27.07-27.07-27.07H52.89c-13.61,0-24.87,10.05-26.78,23.13v118.25c1.91,13.08,13.17,23.13,26.78,23.13h110.38c14.95,0,27.07-12.12,27.07-27.07v-110.38Zm504.29-163.86c0-14.95-12.12-27.07-27.07-27.07h-110.38c-14.95,0-27.07,12.12-27.07,27.07v110.38c0,14.95,12.12,27.07,27.07,27.07h110.38c14.95,0,27.07-12.12,27.07-27.07v-110.38Zm-168.77-73.03c0-14.95-12.12-27.07-27.07-27.07h-110.38c-14.95,0-27.07,12.12-27.07,27.07v110.38c0,14.95,12.12,27.07,27.07,27.07h110.38c14.95,0,27.07-12.12,27.07-27.07v-110.38Zm-167.43.03c0-14.95-12.12-27.07-27.07-27.07h-110.38c-14.95,0-27.07,12.12-27.07,27.07v110.38c0,14.95,12.12,27.07,27.07,27.07h110.38c14.95,0,27.07-12.12,27.07-27.07v-110.38Zm-168.1,70.63c0-14.95-12.12-27.07-27.07-27.07H52.89c-13.61,0-24.87,10.05-26.78,23.13v118.25c1.91,13.08,13.17,23.13,26.78,23.13h110.38c14.95,0,27.07-12.12,27.07-27.07v-110.38Zm504.29-163.86c0-14.95-12.12-27.07-27.07-27.07h-110.38c-14.95,0-27.07,12.12-27.07,27.07v110.38c0,14.95,12.12,27.07,27.07,27.07h110.38c14.95,0,27.07-12.12,27.07-27.07v-110.38Zm-168.77-73.03c0-14.95-12.12-27.07-27.07-27.07h-110.38c-14.95,0-27.07,12.12-27.07,27.07v110.38c0,14.95,12.12,27.07,27.07,27.07h110.38c14.95,0,27.07-12.12,27.07-27.07v-110.38Zm-167.43.03c0-14.95-12.12-27.07-27.07-27.07h-110.38c-14.95,0-27.07,12.12-27.07,27.07v110.38c0,14.95,12.12,27.07,27.07,27.07h110.38c14.95,0,27.07-12.12,27.07-27.07v-110.38Zm-168.1,70.63c0-14.95-12.12-27.07-27.07-27.07H52.89c-13.61,0-24.87,10.05-26.78,23.13v118.25c1.91,13.08,13.17,23.13,26.78,23.13h110.38c14.95,0,27.07-12.12,27.07-27.07v-110.38Zm504.29-163.86c0-14.95-12.12-27.07-27.07-27.07h-110.38c-14.95,0-27.07,12.12-27.07,27.07v110.38c0,14.95,12.12,27.07,27.07,27.07h110.38c14.95,0,27.07-12.12,27.07-27.07v-110.38Zm-168.77-73.03c0-14.95-12.12-27.07-27.07-27.07h-110.38c-14.95,0-27.07,12.12-27.07,27.07v110.38c0,14.95,12.12,27.07,27.07,27.07h110.38c14.95,0,27.07-12.12,27.07-27.07V30.72Zm-167.43.03c0-14.95-12.12-27.07-27.07-27.07h-110.38c-14.95,0-27.07,12.12-27.07,27.07v110.38c0,14.95,12.12,27.07,27.07,27.07h110.38c14.95,0,27.07-12.12,27.07-27.07V30.74Zm-168.1,70.63c0-14.95-12.12-27.07-27.07-27.07H52.89c-13.61,0-24.87,10.05-26.78,23.13v118.25c1.91,13.08,13.17,23.13,26.78,23.13h110.38c14.95,0,27.07-12.12,27.07-27.07v-110.38Z"/>
    </clipPath>
  </defs>
  <g id="Layer_27" data-name="Layer 27">
    <g id="K">
      <g class="cls-1">
        <g>
          <rect class="cls-11" width="725.54" height="836.54"/>
          <path class="cls-6" d="m682.31,649.63c-13.33-53.33-47.11-49.77-47.11-95.99s22.22-79.99,10.67-140.43c0,0-23.11-17.78-48.88-110.21-17.97-64.45-71.99-81.77-71.99-81.77,0,0-39.11-7.11-89.77-49.77-50.66-42.66-68.44-21.33-68.44-21.33l-.89-.88-.89.88s-17.78-21.33-68.44,21.33c-50.66,42.66-89.77,49.77-89.77,49.77,0,0-54.02,17.31-71.99,81.77-25.77,92.43-48.88,110.21-48.88,110.21-11.55,60.44,10.67,94.21,10.67,140.43s-33.77,42.66-47.11,95.99c-13.33,53.33-1.78,97.12,0,115.66,1.39,14.47,1.69,17.65,1.76,18.35,67.35-5.34,155.23-15.27,176.89-22.91,30.22-10.67,71.99-25.77,71.99-25.77l50.85,8.78,14.92-308.21,14.92,308.21,50.85-8.78s41.77,15.11,71.99,25.77c21.66,7.65,109.54,17.57,176.89,22.91.07-.7.37-3.88,1.76-18.35,1.78-18.55,13.33-62.33,0-115.66Z"/>
          <path class="cls-7" d="m503.67,760.73c-30.22-10.67-71.99-25.77-71.99-25.77l-65.77,11.36-65.77-11.36s-41.77,15.11-71.99,25.77c-26.2,9.25-149.28,21.83-215.73,25.6v50.2h696.23v-50.85c-68.18-4.4-180.14-16.18-204.98-24.94Z"/>
          <path class="cls-10" d="m448.93,713.28c-7.75-21.68,0-98.31,0-98.31l-83.02-15.87-83.02,15.87s7.75,76.62,0,98.31c-7.75,21.68-38.74,52.79-38.74,52.79,0,0,34.32,53.31,121.76,52.43,87.45.88,121.76-52.43,121.76-52.43,0,0-30.99-31.11-38.74-52.79Z"/>
          <path class="cls-8" d="m420.12,216.79c-19.32-9.66-37.41-14.85-54.22-16.21-16.81,1.36-34.89,6.55-54.22,16.21-77.05,38.53-119.99,86.21-100.43,236.42,19.07,146.47,69.58,215.01,154.65,215.95,85.07-.94,135.58-69.49,154.65-215.95,19.55-150.21-23.38-197.89-100.43-236.42Z"/>
          <path class="cls-6" d="m181.04,263.9c.95-10.26,5.28-42.89,32-71.1,11.39-12.03,22.39-16.37,58.66-33.77,76.07-36.5,69.05-35.6,76.44-37.33,62.81-14.69,130.78,27.91,166.2,72.88,12.89,16.36,36.04,51.54,26.66,62.22-13.8,15.71-73.21-49.84-148.43-39.11-43.81,6.25-74.62,35.76-122.65,81.77-34.86,33.39-59.07,65.64-74.66,88.88"/>
          <path class="cls-3" d="m409.86,364.48s12.89-14.93,43.23-13.41c30.34,1.52,42.7,23.95,42.7,23.95"/>
          <path class="cls-3" d="m327.42,364.48s-12.89-14.93-43.23-13.41c-30.34,1.52-42.7,23-42.7,23"/>
          <path class="cls-4" d="m353.85,448.4s-17.13,40.51-22.93,51.29c-5.8,10.78,29.71,34.5,60.38,5.75"/>
          <path class="cls-5" d="m412.2,406s10.46-9.56,33.31-6.73c22.85,2.84,27.54,12.85,27.54,12.85"/>
          <circle class="cls-9" cx="442.61" cy="413.57" r="14.03"/>
          <path class="cls-5" d="m326.66,406.19s-10.4-9.63-33.26-6.94c-22.87,2.69-27.62,12.67-27.62,12.67"/>
          <circle class="cls-9" cx="296.24" cy="413.57" r="14.03"/>
          <path class="cls-4" d="m309.4,567.15s18.17,12.89,53.81,12.65,54.14-12.65,54.14-12.65"/>
        </g>
      </g>
    </g>
  </g>
</svg>