<?xml version="1.0" encoding="UTF-8"?>
<svg id="Layer_2" data-name="Layer 2" xmlns="http://www.w3.org/2000/svg" xmlns:xlink="http://www.w3.org/1999/xlink" viewBox="0 0 725.54 836.54">
  <defs>
    <style>
      .cls-1 {
        clip-path: url(#clippath);
      }

      .cls-2, .cls-3, .cls-4, .cls-5 {
        fill: none;
      }

      .cls-2, .cls-6, .cls-7, .cls-8, .cls-9, .cls-10, .cls-11, .cls-12, .cls-13 {
        stroke-width: 0px;
      }

      .cls-3 {
        stroke: #d3a166;
        stroke-linecap: round;
        stroke-width: 8.43px;
      }

      .cls-3, .cls-4, .cls-5 {
        stroke-miterlimit: 10;
      }

      .cls-4 {
        stroke: #1a1a1a;
      }

      .cls-4, .cls-5 {
        stroke-width: 4.22px;
      }

      .cls-5 {
        stroke: #91643a;
      }

      .cls-6 {
        fill: #9adbc3;
      }

      .cls-7 {
        fill: #1a1a1a;
      }

      .cls-8 {
        fill: #d3a166;
      }

      .cls-9 {
        fill: #cc6a6a;
      }

      .cls-10 {
        fill: #d18280;
      }

      .cls-11 {
        fill: #ad8257;
      }

      .cls-12 {
        fill: #91643a;
      }

      .cls-13 {
        fill: #f5c37e;
      }
    </style>
    <clipPath id="clippath">
      <path id="Tiles" class="cls-2" d="m525.86,806.02c0,14.95-12.12,27.07-27.07,27.07h-110.38c-14.95,0-27.07-12.12-27.07-27.07v-110.38c0-14.95,12.12-27.07,27.07-27.07h110.38c14.95,0,27.07,12.12,27.07,27.07v110.38Zm-167.43-110.35c0-14.95-12.12-27.07-27.07-27.07h-110.38c-14.95,0-27.07,12.12-27.07,27.07v110.38c0,14.95,12.12,27.07,27.07,27.07h110.38c14.95,0,27.07-12.12,27.07-27.07v-110.38Zm336.2-93.23c0-14.95-12.12-27.07-27.07-27.07h-110.38c-14.95,0-27.07,12.12-27.07,27.07v110.38c0,14.95,12.12,27.07,27.07,27.07h110.38c14.95,0,27.07-12.12,27.07-27.07v-110.38Zm-168.77-73.03c0-14.95-12.12-27.07-27.07-27.07h-110.38c-14.95,0-27.07,12.12-27.07,27.07v110.38c0,14.95,12.12,27.07,27.07,27.07h110.38c14.95,0,27.07-12.12,27.07-27.07v-110.38Zm-167.43.03c0-14.95-12.12-27.07-27.07-27.07h-110.38c-14.95,0-27.07,12.12-27.07,27.07v110.38c0,14.95,12.12,27.07,27.07,27.07h110.38c14.95,0,27.07-12.12,27.07-27.07v-110.38Zm-168.1,70.63c0-14.95-12.12-27.07-27.07-27.07H52.89c-13.61,0-24.87,10.05-26.78,23.13v118.25c1.91,13.08,13.17,23.13,26.78,23.13h110.38c14.95,0,27.07-12.12,27.07-27.07v-110.38Zm504.29-163.86c0-14.95-12.12-27.07-27.07-27.07h-110.38c-14.95,0-27.07,12.12-27.07,27.07v110.38c0,14.95,12.12,27.07,27.07,27.07h110.38c14.95,0,27.07-12.12,27.07-27.07v-110.38Zm-168.77-73.03c0-14.95-12.12-27.07-27.07-27.07h-110.38c-14.95,0-27.07,12.12-27.07,27.07v110.38c0,14.95,12.12,27.07,27.07,27.07h110.38c14.95,0,27.07-12.12,27.07-27.07v-110.38Zm-167.43.03c0-14.95-12.12-27.07-27.07-27.07h-110.38c-14.95,0-27.07,12.12-27.07,27.07v110.38c0,14.95,12.12,27.07,27.07,27.07h110.38c14.95,0,27.07-12.12,27.07-27.07v-110.38Zm-168.1,70.63c0-14.95-12.12-27.07-27.07-27.07H52.89c-13.61,0-24.87,10.05-26.78,23.13v118.25c1.91,13.08,13.17,23.13,26.78,23.13h110.38c14.95,0,27.07-12.12,27.07-27.07v-110.38Zm504.29-163.86c0-14.95-12.12-27.07-27.07-27.07h-110.38c-14.95,0-27.07,12.12-27.07,27.07v110.38c0,14.95,12.12,27.07,27.07,27.07h110.38c14.95,0,27.07-12.12,27.07-27.07v-110.38Zm-168.77-73.03c0-14.95-12.12-27.07-27.07-27.07h-110.38c-14.95,0-27.07,12.12-27.07,27.07v110.38c0,14.95,12.12,27.07,27.07,27.07h110.38c14.95,0,27.07-12.12,27.07-27.07v-110.38Zm-167.43.03c0-14.95-12.12-27.07-27.07-27.07h-110.38c-14.95,0-27.07,12.12-27.07,27.07v110.38c0,14.95,12.12,27.07,27.07,27.07h110.38c14.95,0,27.07-12.12,27.07-27.07v-110.38Zm-168.1,70.63c0-14.95-12.12-27.07-27.07-27.07H52.89c-13.61,0-24.87,10.05-26.78,23.13v118.25c1.91,13.08,13.17,23.13,26.78,23.13h110.38c14.95,0,27.07-12.12,27.07-27.07v-110.38Zm504.29-163.86c0-14.95-12.12-27.07-27.07-27.07h-110.38c-14.95,0-27.07,12.12-27.07,27.07v110.38c0,14.95,12.12,27.07,27.07,27.07h110.38c14.95,0,27.07-12.12,27.07-27.07v-110.38Zm-168.77-73.03c0-14.95-12.12-27.07-27.07-27.07h-110.38c-14.95,0-27.07,12.12-27.07,27.07v110.38c0,14.95,12.12,27.07,27.07,27.07h110.38c14.95,0,27.07-12.12,27.07-27.07V30.72Zm-167.43.03c0-14.95-12.12-27.07-27.07-27.07h-110.38c-14.95,0-27.07,12.12-27.07,27.07v110.38c0,14.95,12.12,27.07,27.07,27.07h110.38c14.95,0,27.07-12.12,27.07-27.07V30.74Zm-168.1,70.63c0-14.95-12.12-27.07-27.07-27.07H52.89c-13.61,0-24.87,10.05-26.78,23.13v118.25c1.91,13.08,13.17,23.13,26.78,23.13h110.38c14.95,0,27.07-12.12,27.07-27.07v-110.38Z"/>
    </clipPath>
  </defs>
  <g id="Layer_27" data-name="Layer 27">
    <g id="L">
      <g class="cls-1">
        <g>
          <rect class="cls-6" width="725.54" height="836.54"/>
          <path class="cls-8" d="m494.42,226.51s68.28,1.82,85.58,67.37c17.3,65.55-38.24,159.33-32.78,180.27,5.46,20.94-1.82,78.71-23.67,87.61-21.85,8.9-111.07,27.85-111.07,27.85,0,0-169.5-.04-202.65-25.43-33.15-25.39-22.57-52.7-19.66-64.08,2.9-11.38-37-74.2-41.18-124.28-4.18-50.07-2.36-96.51,66.84-129.28,69.19-32.78,170.25-75.57,278.6-20.03Z"/>
          <path class="cls-12" d="m200.9,410.38s-16.1-33.32-37.19-15.73c-21.08,17.59-12.28,69.49-4.84,88.61,7.43,19.12,30.55,60.07,49.95,40.96"/>
          <path class="cls-10" d="m501.7,709.51c-30.96-18.28-73.75-44.17-73.75-44.17l-67.37,19.46-67.37-19.46s-42.79,25.89-73.75,44.17c-25.3,14.94-135.72,28.26-207.05,38.93v88.08h697.55v-87.93c-69.7-10.43-183.07-24.21-208.27-39.08Z"/>
          <path class="cls-12" d="m471.7,680.02c-10.37-20.05,0-90.91,0-90.91l-111.12-14.68-111.12,14.68s10.37,70.86,0,90.91c-10.37,20.05-51.85,48.82-51.85,48.82,0,0,45.93,49.3,162.97,48.49,117.04.81,162.97-48.49,162.97-48.49,0,0-41.48-28.77-51.85-48.82Z"/>
          <path class="cls-12" d="m523.55,410.38s16.1-33.32,37.19-15.73c21.08,17.59,12.28,69.49,4.84,88.61-7.43,19.12-30.55,60.07-49.95,40.96"/>
          <path class="cls-11" d="m422.22,201.93c-21.97-9.9-42.53-15.21-61.64-16.6-19.11,1.4-39.67,6.71-61.64,16.6-87.61,39.46-136.42,88.31-114.19,242.18,21.68,150.04,46.55,221.24,175.83,221.22,122-.02,154.15-71.18,175.83-221.22,22.23-153.87-26.58-202.71-114.19-242.18Z"/>
          <path class="cls-13" d="m158.46,311.18c-9.1-33.69-.06-82.84,27.31-110.47,11.67-11.78,22.93-16.03,60.09-33.08,77.93-35.75,70.73-34.87,78.3-36.56,64.34-14.38,133.97,27.33,170.25,71.38,13.2,16.02,30.55,60.03,20.94,70.49-14.13,15.39-68.62-58.37-145.67-47.86-44.88,6.12-76.44,35.02-125.64,80.08-35.71,32.7-48.68,47.89-64.64,70.66"/>
          <path class="cls-3" d="m407.01,362.17s15.48-23.67,51.9-21.85c36.42,1.82,51.26,21.85,51.26,21.85"/>
          <path class="cls-3" d="m318.07,362.17s-15.48-23.67-51.9-21.85c-36.42,1.82-51.26,21.85-51.26,21.85"/>
          <path class="cls-8" d="m280.2,641.72c5.69-16.15,41.23-5.09,80.38-4.84,39.15.25.91,39.38.91,39.38,0,0-91.57-5.36-81.29-34.53Z"/>
          <path class="cls-8" d="m439.33,641.72c-5.69-16.15-41.23-5.09-80.38-4.84-39.15.25-.91,39.38-.91,39.38,0,0,91.57-5.36,81.29-34.53Z"/>
          <path class="cls-9" d="m150.55,727.61s53.54-12.25,58.27-33.85c4.73-21.59,19.63-44,32.21-39.17,12.58,4.83,46.27,60.65,72.22,62.78,25.95,2.14,41.62,18.17,41.62,18.17l5.73,41.77h-23.99s-74.28,45.42-74.28,45.42c0,0-90.09-21.49-111.76-95.13Z"/>
          <path class="cls-9" d="m569.07,727.62s-53.54-12.25-58.27-33.85-19.63-44-32.21-39.17c-12.58,4.83-46.27,60.65-72.22,62.78-25.95,2.14-41.62,18.17-41.62,18.17l-5.73,41.77h23.99s74.28,45.42,74.28,45.42c0,0,90.09-21.49,111.76-95.13Z"/>
          <path class="cls-5" d="m341.01,440.92s-15.8,20.75-22.76,33.69c-6.96,12.94-22.76,63.73,40.97,60.09"/>
          <path class="cls-4" d="m424.29,407.82s7.64-15.2,34.48-21.8c26.84-6.6,36.38,2.63,36.38,2.63"/>
          <circle class="cls-7" cx="457.54" cy="403.37" r="16.84"/>
          <path class="cls-4" d="m302.69,409.65s-6.79-15.6-33.23-23.66c-26.44-8.06-36.47.63-36.47.63"/>
          <circle class="cls-7" cx="270.33" cy="403.37" r="16.84"/>
          <path class="cls-5" d="m285.51,574.43s28.18,20.94,70.97,20.65c42.79-.29,70.45-20.65,70.45-20.65"/>
        </g>
      </g>
    </g>
  </g>
</svg>