<?xml version="1.0" encoding="UTF-8"?>
<svg id="Layer_2" data-name="Layer 2" xmlns="http://www.w3.org/2000/svg" xmlns:xlink="http://www.w3.org/1999/xlink" viewBox="0 0 725.54 836.54">
  <defs>
    <style>
      .cls-1 {
        clip-path: url(#clippath);
      }

      .cls-2, .cls-3, .cls-4, .cls-5 {
        fill: none;
      }

      .cls-2, .cls-6, .cls-7, .cls-8, .cls-9, .cls-10, .cls-11, .cls-12 {
        stroke-width: 0px;
      }

      .cls-3 {
        stroke: #004066;
        stroke-linecap: round;
        stroke-width: 8.43px;
      }

      .cls-3, .cls-4, .cls-5 {
        stroke-miterlimit: 10;
      }

      .cls-4 {
        stroke: #1a1a1a;
      }

      .cls-4, .cls-5 {
        stroke-width: 4.22px;
      }

      .cls-5 {
        stroke: #a36840;
      }

      .cls-6 {
        fill: #2d8462;
      }

      .cls-7 {
        fill: #1a1a1a;
      }

      .cls-8 {
        fill: #1b608d;
      }

      .cls-9 {
        fill: #d2905d;
      }

      .cls-10 {
        fill: #bb2400;
      }

      .cls-11 {
        fill: #bb7a4c;
      }

      .cls-12 {
        fill: #004066;
      }
    </style>
    <clipPath id="clippath">
      <path id="Tiles" class="cls-2" d="m525.86,806.02c0,14.95-12.12,27.07-27.07,27.07h-110.38c-14.95,0-27.07-12.12-27.07-27.07v-110.38c0-14.95,12.12-27.07,27.07-27.07h110.38c14.95,0,27.07,12.12,27.07,27.07v110.38Zm-167.43-110.35c0-14.95-12.12-27.07-27.07-27.07h-110.38c-14.95,0-27.07,12.12-27.07,27.07v110.38c0,14.95,12.12,27.07,27.07,27.07h110.38c14.95,0,27.07-12.12,27.07-27.07v-110.38Zm336.2-93.23c0-14.95-12.12-27.07-27.07-27.07h-110.38c-14.95,0-27.07,12.12-27.07,27.07v110.38c0,14.95,12.12,27.07,27.07,27.07h110.38c14.95,0,27.07-12.12,27.07-27.07v-110.38Zm-168.77-73.03c0-14.95-12.12-27.07-27.07-27.07h-110.38c-14.95,0-27.07,12.12-27.07,27.07v110.38c0,14.95,12.12,27.07,27.07,27.07h110.38c14.95,0,27.07-12.12,27.07-27.07v-110.38Zm-167.43.03c0-14.95-12.12-27.07-27.07-27.07h-110.38c-14.95,0-27.07,12.12-27.07,27.07v110.38c0,14.95,12.12,27.07,27.07,27.07h110.38c14.95,0,27.07-12.12,27.07-27.07v-110.38Zm-168.1,70.63c0-14.95-12.12-27.07-27.07-27.07H52.89c-13.61,0-24.87,10.05-26.78,23.13v118.25c1.91,13.08,13.17,23.13,26.78,23.13h110.38c14.95,0,27.07-12.12,27.07-27.07v-110.38Zm504.29-163.86c0-14.95-12.12-27.07-27.07-27.07h-110.38c-14.95,0-27.07,12.12-27.07,27.07v110.38c0,14.95,12.12,27.07,27.07,27.07h110.38c14.95,0,27.07-12.12,27.07-27.07v-110.38Zm-168.77-73.03c0-14.95-12.12-27.07-27.07-27.07h-110.38c-14.95,0-27.07,12.12-27.07,27.07v110.38c0,14.95,12.12,27.07,27.07,27.07h110.38c14.95,0,27.07-12.12,27.07-27.07v-110.38Zm-167.43.03c0-14.95-12.12-27.07-27.07-27.07h-110.38c-14.95,0-27.07,12.12-27.07,27.07v110.38c0,14.95,12.12,27.07,27.07,27.07h110.38c14.95,0,27.07-12.12,27.07-27.07v-110.38Zm-168.1,70.63c0-14.95-12.12-27.07-27.07-27.07H52.89c-13.61,0-24.87,10.05-26.78,23.13v118.25c1.91,13.08,13.17,23.13,26.78,23.13h110.38c14.95,0,27.07-12.12,27.07-27.07v-110.38Zm504.29-163.86c0-14.95-12.12-27.07-27.07-27.07h-110.38c-14.95,0-27.07,12.12-27.07,27.07v110.38c0,14.95,12.12,27.07,27.07,27.07h110.38c14.95,0,27.07-12.12,27.07-27.07v-110.38Zm-168.77-73.03c0-14.95-12.12-27.07-27.07-27.07h-110.38c-14.95,0-27.07,12.12-27.07,27.07v110.38c0,14.95,12.12,27.07,27.07,27.07h110.38c14.95,0,27.07-12.12,27.07-27.07v-110.38Zm-167.43.03c0-14.95-12.12-27.07-27.07-27.07h-110.38c-14.95,0-27.07,12.12-27.07,27.07v110.38c0,14.95,12.12,27.07,27.07,27.07h110.38c14.95,0,27.07-12.12,27.07-27.07v-110.38Zm-168.1,70.63c0-14.95-12.12-27.07-27.07-27.07H52.89c-13.61,0-24.87,10.05-26.78,23.13v118.25c1.91,13.08,13.17,23.13,26.78,23.13h110.38c14.95,0,27.07-12.12,27.07-27.07v-110.38Zm504.29-163.86c0-14.95-12.12-27.07-27.07-27.07h-110.38c-14.95,0-27.07,12.12-27.07,27.07v110.38c0,14.95,12.12,27.07,27.07,27.07h110.38c14.95,0,27.07-12.12,27.07-27.07v-110.38Zm-168.77-73.03c0-14.95-12.12-27.07-27.07-27.07h-110.38c-14.95,0-27.07,12.12-27.07,27.07v110.38c0,14.95,12.12,27.07,27.07,27.07h110.38c14.95,0,27.07-12.12,27.07-27.07V30.72Zm-167.43.03c0-14.95-12.12-27.07-27.07-27.07h-110.38c-14.95,0-27.07,12.12-27.07,27.07v110.38c0,14.95,12.12,27.07,27.07,27.07h110.38c14.95,0,27.07-12.12,27.07-27.07V30.74Zm-168.1,70.63c0-14.95-12.12-27.07-27.07-27.07H52.89c-13.61,0-24.87,10.05-26.78,23.13v118.25c1.91,13.08,13.17,23.13,26.78,23.13h110.38c14.95,0,27.07-12.12,27.07-27.07v-110.38Z"/>
    </clipPath>
  </defs>
  <g id="Layer_27" data-name="Layer 27">
    <g id="M">
      <g class="cls-1">
        <g>
          <rect class="cls-6" width="725.54" height="836.54"/>
          <g id="Sample_portrait" data-name="Sample portrait">
            <path class="cls-12" d="m555.9,413.53s24.56,169.18,17.46,207.25c-7.09,38.07-161.78,43.69-161.78,43.69l-40.26-62.79s158.83-273.01,184.57-188.15Z"/>
            <path class="cls-11" d="m511.78,535.86s55.75-9.02,28.21-87.81c-27.54-78.79-53.56-27.12-53.56-27.12l-13.54,114.93h38.89Z"/>
            <path class="cls-12" d="m161.58,413.53s-24.56,169.18-17.46,207.25c7.09,38.07,161.78,43.69,161.78,43.69l40.26-62.79s-158.83-273.01-184.57-188.15Z"/>
            <path class="cls-11" d="m611.47,710.88c-113.42-37.62-156.99,8.47-174.92-28.01-17.93-36.48,3.23-134.26,3.23-134.26l-80.07-12.1v-.29s-.97.15-.97.15l-.97-.15v.29s-80.07,12.1-80.07,12.1c0,0,21.16,97.78,3.23,134.26-17.93,36.48-61.49-9.61-174.92,28.01-78.72,26.11-57.6,125.65-57.6,125.65h621.66s20.13-99.54-58.59-125.65Z"/>
            <path class="cls-11" d="m205.69,535.86s-55.75-9.02-28.21-87.81c27.54-78.79,53.56-27.12,53.56-27.12l13.54,114.93h-38.89Z"/>
            <path class="cls-9" d="m358.84,140.96s-.06,0-.09,0c0,0,0,0-.01,0s0,0-.01,0c-.03,0-.06,0-.09,0-122.51.1-196.85,165.3-169.95,299.78,27.89,139.43,47.48,215.2,170,215.23.01,0,.02,0,.04,0,0,0,0,0,.01,0s0,0,.01,0c.01,0,.02,0,.04,0,122.52-.03,142.12-75.8,170-215.23,26.89-134.47-47.44-299.68-169.95-299.78Z"/>
            <path class="cls-10" d="m611.42,708.81c-33.86-14.69-174.87-25.94-174.87-25.94,0,0,13.76,96.74-49.96,120.1-19.53,7.16-25.82,9.47-27.85,10.21-2.03-.75-8.33-3.05-27.85-10.21-63.73-23.37-49.96-120.1-49.96-120.1,0,0-141.01,11.26-174.87,25.94-81.63,35.4-68.3,127.72-68.3,127.72h642.96s12.34-92.31-69.29-127.72Z"/>
            <path class="cls-8" d="m563.03,334.75c-37.12-161.54-128.34-193.18-159.12-196.11-9.24-.88-27.32-3.93-45.18-2.92-17.86-1.01-35.93,2.04-45.18,2.92-30.78,2.92-122,34.57-159.12,196.11-37.12,161.54,37.8,140.39,37.8,140.39,0,0-10.6-93.48,75.23-140.61,56.47-31.01,81.05-41.59,91.27-45.21,10.21,3.62,34.8,14.21,91.27,45.21,85.84,47.13,75.23,140.61,75.23,140.61,0,0,74.92,21.15,37.8-140.39Z"/>
          </g>
          <path class="cls-3" d="m398.87,388.4s9-21.91,42.71-20.23c33.71,1.69,42.13,20.23,42.13,20.23"/>
          <path class="cls-3" d="m323.24,388.4s-11.13-21.91-44.84-20.23c-33.71,1.69-42.13,20.23-42.13,20.23"/>
          <path class="cls-5" d="m346.21,465.08s-4.87,11.91-11.32,23.89c-6.44,11.98-32.34,55.98,18.77,53.85"/>
          <path class="cls-4" d="m409.59,425.28s8.46-13.28,33.8-16.83c25.33-3.55,33.25,5.84,33.25,5.84"/>
          <circle class="cls-7" cx="441.65" cy="424.84" r="15.59"/>
          <path class="cls-4" d="m310.14,427.74s-7.42-13.89-32.41-19.37c-24.99-5.48-33.6,3.28-33.6,3.28"/>
          <circle class="cls-7" cx="279.01" cy="424.84" r="15.59"/>
          <path class="cls-5" d="m293.64,580.57s20.19,14.33,59.79,14.06c39.61-.27,60.15-14.06,60.15-14.06"/>
        </g>
      </g>
    </g>
  </g>
</svg>