<?xml version="1.0" encoding="UTF-8"?>
<svg id="Layer_2" data-name="Layer 2" xmlns="http://www.w3.org/2000/svg" xmlns:xlink="http://www.w3.org/1999/xlink" viewBox="0 0 668.52 829.47">
  <defs>
    <style>
      .cls-1 {
        clip-path: url(#clippath);
      }

      .cls-2, .cls-3, .cls-4, .cls-5 {
        fill: none;
      }

      .cls-2, .cls-6, .cls-7, .cls-8, .cls-9, .cls-10, .cls-11, .cls-12 {
        stroke-width: 0px;
      }

      .cls-3 {
        stroke: #6b491b;
        stroke-width: 8.43px;
      }

      .cls-3, .cls-4 {
        stroke-linecap: round;
      }

      .cls-3, .cls-4, .cls-5 {
        stroke-miterlimit: 10;
      }

      .cls-4 {
        stroke: #b27350;
      }

      .cls-4, .cls-5 {
        stroke-width: 4.22px;
      }

      .cls-5 {
        stroke: #1a1a1a;
      }

      .cls-6 {
        fill: #5c69c6;
      }

      .cls-7 {
        fill: #1a1a1a;
      }

      .cls-8 {
        fill: #b58a68;
      }

      .cls-9 {
        fill: #6b491b;
      }

      .cls-10 {
        fill: #f2c097;
      }

      .cls-11 {
        fill: #ffe36c;
      }

      .cls-12 {
        fill: #f0ccad;
      }
    </style>
    <clipPath id="clippath">
      <path id="Tiles" class="cls-2" d="m499.75,802.37c0,14.95-12.12,27.07-27.07,27.07h-110.38c-14.95,0-27.07-12.12-27.07-27.07v-110.38c0-14.95,12.12-27.07,27.07-27.07h110.38c14.95,0,27.07,12.12,27.07,27.07v110.38Zm-167.43-110.35c0-14.95-12.12-27.07-27.07-27.07h-110.38c-14.95,0-27.07,12.12-27.07,27.07v110.38c0,14.95,12.12,27.07,27.07,27.07h110.38c14.95,0,27.07-12.12,27.07-27.07v-110.38Zm336.2-93.23c0-14.95-12.12-27.07-27.07-27.07h-110.38c-14.95,0-27.07,12.12-27.07,27.07v110.38c0,14.95,12.12,27.07,27.07,27.07h110.38c14.95,0,27.07-12.12,27.07-27.07v-110.38Zm-168.77-73.03c0-14.95-12.12-27.07-27.07-27.07h-110.38c-14.95,0-27.07,12.12-27.07,27.07v110.38c0,14.95,12.12,27.07,27.07,27.07h110.38c14.95,0,27.07-12.12,27.07-27.07v-110.38Zm-167.43.03c0-14.95-12.12-27.07-27.07-27.07h-110.38c-14.95,0-27.07,12.12-27.07,27.07v110.38c0,14.95,12.12,27.07,27.07,27.07h110.38c14.95,0,27.07-12.12,27.07-27.07v-110.38Zm-168.1,70.63c0-14.95-12.12-27.07-27.07-27.07H26.78c-13.61,0-24.87,10.05-26.78,23.13v118.25c1.91,13.08,13.17,23.13,26.78,23.13h110.38c14.95,0,27.07-12.12,27.07-27.07v-110.38Zm504.29-163.86c0-14.95-12.12-27.07-27.07-27.07h-110.38c-14.95,0-27.07,12.12-27.07,27.07v110.38c0,14.95,12.12,27.07,27.07,27.07h110.38c14.95,0,27.07-12.12,27.07-27.07v-110.38Zm-168.77-73.03c0-14.95-12.12-27.07-27.07-27.07h-110.38c-14.95,0-27.07,12.12-27.07,27.07v110.38c0,14.95,12.12,27.07,27.07,27.07h110.38c14.95,0,27.07-12.12,27.07-27.07v-110.38Zm-167.43.03c0-14.95-12.12-27.07-27.07-27.07h-110.38c-14.95,0-27.07,12.12-27.07,27.07v110.38c0,14.95,12.12,27.07,27.07,27.07h110.38c14.95,0,27.07-12.12,27.07-27.07v-110.38Zm-168.1,70.63c0-14.95-12.12-27.07-27.07-27.07H26.78c-13.61,0-24.87,10.05-26.78,23.13v118.25c1.91,13.08,13.17,23.13,26.78,23.13h110.38c14.95,0,27.07-12.12,27.07-27.07v-110.38Zm504.29-163.86c0-14.95-12.12-27.07-27.07-27.07h-110.38c-14.95,0-27.07,12.12-27.07,27.07v110.38c0,14.95,12.12,27.07,27.07,27.07h110.38c14.95,0,27.07-12.12,27.07-27.07v-110.38Zm-168.77-73.03c0-14.95-12.12-27.07-27.07-27.07h-110.38c-14.95,0-27.07,12.12-27.07,27.07v110.38c0,14.95,12.12,27.07,27.07,27.07h110.38c14.95,0,27.07-12.12,27.07-27.07v-110.38Zm-167.43.03c0-14.95-12.12-27.07-27.07-27.07h-110.38c-14.95,0-27.07,12.12-27.07,27.07v110.38c0,14.95,12.12,27.07,27.07,27.07h110.38c14.95,0,27.07-12.12,27.07-27.07v-110.38Zm-168.1,70.63c0-14.95-12.12-27.07-27.07-27.07H26.78c-13.61,0-24.87,10.05-26.78,23.13v118.25c1.91,13.08,13.17,23.13,26.78,23.13h110.38c14.95,0,27.07-12.12,27.07-27.07v-110.38Zm504.29-163.86c0-14.95-12.12-27.07-27.07-27.07h-110.38c-14.95,0-27.07,12.12-27.07,27.07v110.38c0,14.95,12.12,27.07,27.07,27.07h110.38c14.95,0,27.07-12.12,27.07-27.07v-110.38ZM499.75,27.07c0-14.95-12.12-27.07-27.07-27.07h-110.38c-14.95,0-27.07,12.12-27.07,27.07v110.38c0,14.95,12.12,27.07,27.07,27.07h110.38c14.95,0,27.07-12.12,27.07-27.07V27.07Zm-167.43.03C332.33,12.15,320.21.03,305.26.03h-110.38c-14.95,0-27.07,12.12-27.07,27.07v110.38c0,14.95,12.12,27.07,27.07,27.07h110.38c14.95,0,27.07-12.12,27.07-27.07V27.1Zm-168.1,70.63c0-14.95-12.12-27.07-27.07-27.07H26.78c-13.61,0-24.87,10.05-26.78,23.13v118.25c1.91,13.08,13.17,23.13,26.78,23.13h110.38c14.95,0,27.07-12.12,27.07-27.07v-110.38Z"/>
    </clipPath>
  </defs>
  <g id="Layer_27" data-name="Layer 27">
    <g id="N">
      <g class="cls-1">
        <g>
          <rect class="cls-6" x="-26.11" y="-3.64" width="725.54" height="836.54"/>
          <path class="cls-11" d="m506.39,717.39c-40.28-16.53-86.67-27.45-86.67-27.45h-168.98s-46.39,10.93-86.67,27.45c-31.26,12.83-114.79,16.95-173.8,32.15v83.35h692.27v-82.73c-59.12-15.71-144.47-19.77-176.15-32.77Z"/>
          <path class="cls-10" d="m373.59,752.51h-73.02c-31.59,0-55.6-28.41-50.34-59.56l7.88-46.63c4.15-24.57,25.43-42.55,50.34-42.55h57.27c24.92,0,46.19,17.98,50.34,42.55l7.88,46.63c5.26,31.15-18.75,59.56-50.34,59.56Z"/>
          <g id="Sample_portrait" data-name="Sample portrait">
            <path class="cls-10" d="m489.43,535.56s54.08-8.75,27.36-85.18c-26.71-76.42-51.95-26.3-51.95-26.3l-13.13,111.48h37.72Z"/>
            <path class="cls-10" d="m192.51,535.56s-54.08-8.75-27.36-85.18c26.71-76.42,51.95-26.3,51.95-26.3l13.13,111.48h-37.72Z"/>
            <path class="cls-12" d="m341.07,152.5s-.06,0-.09,0c0,0,0,0-.01,0s0,0-.01,0c-.03,0-.06,0-.09,0-118.84.1-190.94,160.35-164.85,290.79,27.05,135.25,46.06,208.74,164.9,208.77.01,0,.02,0,.04,0,0,0,0,0,.01,0s0,0,.01,0c.01,0,.02,0,.04,0,118.85-.03,137.85-73.52,164.9-208.77,26.09-130.44-46.02-290.69-164.85-290.79Z"/>
            <path class="cls-8" d="m539.01,340.38c11.92-160.33-124.37-187.29-154.22-190.12-8.97-.85-26.5-3.81-43.82-2.84-17.32-.98-34.86,1.98-43.82,2.84-29.85,2.84-157.08,44.69-140.31,204.58,13.43,128.08,35.12,92.96,35.12,92.96,0,0-37.18-83.67,3.1-92.96,0,0,1.44-6.66,2.07-17.56,12.39-214.84,320.2-104.32,298.51,16.53-1.93,10.74,2.07,13.43,2.07,13.43,29.95,21.69-7.23,86.76-7.23,86.76,0,0,37.18,39.25,48.55-113.62Z"/>
          </g>
          <path class="cls-9" d="m227.94,314.86c-10.76,4.21-25.84-.57-32.47-9.81-8.31-11.58-.59-26.35-6.49-29.43-7.31-3.82-19.8,18.47-33.55,15.26-7.51-1.75-13.83-10.75-14.07-18.53-.29-9.34,8.34-11.91,10.82-26.16.94-5.37-.27-5.14,0-15.26.45-16.88-5.66-17.59,5.41-29.43,16.88-18.04,30.74,8.36,38.97,0,3.51-3.56.78-7.72,2.16-18.53,1.57-12.21-.27-29.4,19.48-34.88,25.41-7.05,27.31,20.21,36.8,15.26,3.8-1.98,2.54-6.26,6.49-15.26,5.46-12.44,18.01-26.41,28.14-26.16,21.1.51,11.57,20.89,22.73,21.8,1.66.14,5.14.71,14.07-7.63s9.09-23.98,27.06-23.98c23.35,0,11.11,17.12,28.14,22.89,4.83,1.63,11.15,1.09,23.81,0,25.79-2.22,28.6-6.53,37.5-3.27,10.73,3.93,20.43,15.28,20.95,26.16.39,8.1-4.35,11.02-2.16,15.26,3.86,7.49,20.12,1.2,36.8,7.63,14.12,5.44,21.8,17.65,23.81,20.71,9.44,14.37,4.42,21.58,12.99,29.43,9.95,9.12,19.29,1.76,30.31,10.9,11.2,9.29,12.54,26.03,12.99,31.61,1.35,16.83-5.7,21.41-1.08,32.7,3.03,7.41,10.03,15.12,18.4,16.35,8.63,1.27,15.09-4.89,16.24-3.27,1.24,1.75-4.74,11.19-14.07,14.17-12.85,4.1-26.21-5.91-27.06-4.36-1.01,1.83,20.53,10.45,25.98,28.34,2.26,7.42,2.82,20.85,0,18.53-10.52-8.67-18.77-10.15-26.01-5.57-8.69,5.51-6.58,4.53-4.13,13.43,2.76,10.05,17.57,10.98,17.15,16.12-.34,4.12-11.11,8.59-21.65,7.63-4.52-.41-21.28,10.64-47.15-18.59-19.76-22.33-11.43-38.67-21.04-43.55-15.62-7.93-26.57-1.62-38.97-13.08-2.46-2.27-9.31-8.61-9.74-17.44-.35-7.22,3.82-11.4,2.16-13.08-3.15-3.19-16.81,13.24-35.72,13.08-.91,0-17.4-.36-23.81-10.9-5.8-9.53.99-20.22-3.25-22.89-5.61-3.53-16.32,15.91-34.64,16.35-10.22.25-21.67-5.44-25.98-14.17-4.51-9.12.17-18.76-2.16-19.62-3.2-1.18-8.31,18.22-25.98,30.52-4.26,2.97-16.11,11.21-27.06,7.63-9.24-3.02-9.92-11.88-16.24-11.99-9.4-.16-10.49,19.43-24.9,25.07Z"/>
          <path class="cls-3" d="m391.65,374.56s13.9-21.25,46.6-19.62c32.7,1.63,46.03,19.62,46.03,19.62"/>
          <path class="cls-3" d="m302.79,374.56s-13.9-21.25-46.6-19.62c-32.7,1.63-46.03,19.62-46.03,19.62"/>
          <path class="cls-4" d="m338.51,429.89s-8.87,37.84-15.12,49.46c-6.25,11.62-36.79,52.32,20.44,49.05"/>
          <path class="cls-5" d="m394.56,401.01s10.16-11.41,34.97-10.89c24.81.52,30.94,10.74,30.94,10.74"/>
          <circle class="cls-7" cx="426.95" cy="405.77" r="15.12"/>
          <path class="cls-5" d="m301.58,401.01s-10.16-11.41-34.97-10.89c-24.81.52-30.94,10.74-30.94,10.74"/>
          <circle class="cls-7" cx="269.19" cy="405.77" r="15.12"/>
          <path class="cls-4" d="m283.37,564.07s19.58,13.9,58,13.63c38.42-.26,58.35-13.63,58.35-13.63"/>
        </g>
      </g>
    </g>
  </g>
</svg>