<?xml version="1.0" encoding="UTF-8"?>
<svg id="Layer_2" data-name="Layer 2" xmlns="http://www.w3.org/2000/svg" viewBox="0 0 164.52 164.52">
  <defs>
    <style>
      .cls-1 {
        fill: #b75700;
      }

      .cls-1, .cls-2 {
        stroke-width: 0px;
      }

      .cls-2 {
        fill: #ffdb77;
      }
    </style>
  </defs>
  <g id="Portraits">
    <g id="D">
      <g id="Tiles">
        <g id="D-3">
          <path class="cls-2" d="m137.45,0H27.07C12.12,0,0,12.12,0,27.07v101.29c1.08,0,2.16.03,3.25.06,17.94-.5,40.64,2.08,49.6,2.85,17.54,1.51,55.26,4.31,91.87,32.26,11.42-3.18,19.81-13.64,19.81-26.08V27.07c0-14.95-12.12-27.07-27.07-27.07Z"/>
          <path class="cls-1" d="m3.25,128.42c1.06.03,2.12.07,3.19.12v26.42c4.97,5.84,12.36,9.56,20.63,9.56h110.38c2.52,0,4.95-.35,7.26-.99-36.61-27.95-74.32-30.74-91.87-32.26-8.95-.77-31.66-3.35-49.6-2.85Z"/>
          <path class="cls-1" d="m6.44,128.54c-1.06-.05-2.13-.09-3.19-.12-1.09-.03-2.17-.05-3.25-.06v9.09c0,6.68,2.43,12.79,6.44,17.51v-26.42Z"/>
        </g>
      </g>
    </g>
  </g>
</svg>