<?xml version="1.0" encoding="UTF-8"?>
<svg id="Layer_2" data-name="Layer 2" xmlns="http://www.w3.org/2000/svg" viewBox="0 0 164.52 164.52">
  <defs>
    <style>
      .cls-1 {
        fill: #c1650a;
      }

      .cls-1, .cls-2, .cls-3 {
        stroke-width: 0px;
      }

      .cls-2 {
        fill: #b75700;
      }

      .cls-3 {
        fill: #ffcf8f;
      }
    </style>
  </defs>
  <g id="Portraits">
    <g id="D">
      <g id="Tiles">
        <g id="D-7">
          <path class="cls-3" d="m5.61,105.95c-.96.32-2.04.69-3.23,1.11-.6,2.09-1.4,4.19-2.38,6.26v24.13c0,6.82,2.53,13.05,6.69,17.81v-45.77c-.42-1.18-.78-2.36-1.08-3.54Z"/>
          <path class="cls-3" d="m48.28,134.85c-20.96,4.65-36.21-10.32-41.59-25.37v45.77c4.96,5.67,12.25,9.26,20.38,9.26h54.4c-5.23-6.43-9.62-14.83-12.49-25.78-1.84-7.01-13.62-5.46-20.7-3.89Z"/>
          <path class="cls-2" d="m137.45,0H27.07C18.8,0,11.4,3.71,6.44,9.56v79.95c1.06-2.05,2.59-3.72,4.62-4.87,48.18-27.13,60.14,10.77,73.76,9.37,41.19-4.24,72.93,44.68,72.93,44.68,1.91-.5,4.2-.87,6.77-1.09,0-.05,0-.1,0-.16V27.07c0-14.95-12.12-27.07-27.07-27.07Z"/>
          <path class="cls-2" d="m2.38,107.06c1.19-.42,2.27-.79,3.23-1.11-1.58-6.2-1.4-12.15.83-16.44V9.56C2.43,14.28,0,20.39,0,27.07v59.77c4.1,4.46,4.68,12.2,2.38,20.22Z"/>
          <path class="cls-1" d="m0,86.84v26.48c.98-2.07,1.78-4.17,2.38-6.26,2.31-8.02,1.73-15.76-2.38-20.22Z"/>
          <path class="cls-1" d="m84.82,94.01c-13.62,1.4-25.58-36.5-73.76-9.37-2.03,1.14-3.56,2.82-4.62,4.87-2.23,4.29-2.41,10.24-.83,16.44.3,1.17.66,2.35,1.08,3.54,5.39,15.04,20.63,30.02,41.59,25.37,7.08-1.57,18.86-3.12,20.7,3.89,2.87,10.94,7.26,19.35,12.49,25.78h55.98c14.9,0,26.98-12.04,27.07-26.91-2.57.22-4.86.59-6.77,1.09,0,0-31.74-48.92-72.93-44.68Z"/>
        </g>
      </g>
    </g>
  </g>
</svg>