<?xml version="1.0" encoding="UTF-8"?>
<svg id="Layer_2" data-name="Layer 2" xmlns="http://www.w3.org/2000/svg" viewBox="0 0 164.52 164.52">
  <defs>
    <style>
      .cls-1 {
        fill: #1a1a1a;
      }

      .cls-1, .cls-2, .cls-3, .cls-4, .cls-5 {
        stroke-width: 0px;
      }

      .cls-2 {
        fill: #d6835f;
      }

      .cls-3 {
        fill: #c1650a;
      }

      .cls-4 {
        fill: #b75700;
      }

      .cls-5 {
        fill: #ffcf8f;
      }
    </style>
  </defs>
  <g id="Portraits">
    <g id="D">
      <g id="Tiles">
        <g id="D-11">
          <path class="cls-5" d="m0,27.07v43.28c.22-.04.45-.04.69.02.91.21,1.47,1.12,1.26,2.03-.61,2.59-1.26,5.11-1.95,7.59v57.46c0,6.82,2.53,13.05,6.69,17.81V9.26C2.53,14.02,0,20.25,0,27.07Z"/>
          <path class="cls-5" d="m142.58,17.47c.04-.44-36.84,8.26-59.65-17.47H27.07C18.94,0,11.65,3.59,6.69,9.26v146c4.96,5.67,12.25,9.26,20.38,9.26h110.38c14.95,0,27.07-12.12,27.07-27.07V62.99c-13.5-11.59-23.6-28.95-21.94-45.52Zm-14.51,65.72c-.41.42-.96.63-1.5.63-.54,0-1.07-.2-1.48-.61-4.14-4.09-14.12-12.6-28.68-16.52,2.38,2.42,4.02,5.62,4.44,9.26,1,8.68-5.21,16.52-13.89,17.53-8.68,1-16.52-5.21-17.53-13.89-.69-5.96,2.03-11.53,6.62-14.76-9.42.75-17.17,3.55-22.44,6.1-1.05.51-2.31.07-2.82-.98-.51-1.05-.07-2.31.98-2.82,7.24-3.49,18.84-7.48,33.05-6.59,21.63,1.34,36.38,12.91,43.24,19.68.83.82.84,2.15.02,2.98Zm6.42-38.94c-.82,1.19-2.13,1.82-3.47,1.82-.83,0-1.66-.24-2.39-.75-.96-.66-1.98-1.42-3.08-2.23-6.86-5.07-17.22-12.74-37.39-14.07-21.29-1.39-37.64,7.37-46.43,12.07-.92.49-1.74.93-2.47,1.31-2.07,1.07-4.61.26-5.68-1.81-1.07-2.07-.26-4.61,1.81-5.68.7-.36,1.48-.78,2.35-1.25,8.85-4.74,27.27-14.6,50.97-13.06,22.64,1.49,34.67,10.39,41.85,15.7,1.02.76,1.97,1.46,2.86,2.07,1.92,1.32,2.4,3.95,1.08,5.86Z"/>
          <path class="cls-1" d="m84.82,60.53c-14.21-.89-25.81,3.1-33.05,6.59-1.05.51-1.49,1.77-.98,2.82.51,1.05,1.76,1.49,2.82.98,5.27-2.54,13.02-5.35,22.44-6.1,2.09-1.47,4.56-2.45,7.27-2.77,5.04-.58,9.79,1.28,13.09,4.63,14.56,3.93,24.54,12.43,28.68,16.52.41.41.95.61,1.48.61.54,0,1.09-.21,1.5-.63.82-.83.81-2.16-.02-2.98-6.86-6.77-21.6-18.34-43.24-19.68Z"/>
          <path class="cls-1" d="m83.32,62.06c-2.71.31-5.19,1.3-7.27,2.77-4.59,3.23-7.31,8.8-6.62,14.76,1,8.68,8.85,14.89,17.53,13.89,8.68-1,14.89-8.85,13.89-17.53-.42-3.64-2.06-6.83-4.44-9.26-3.3-3.35-8.05-5.22-13.09-4.63Z"/>
          <path class="cls-2" d="m.69,70.37c-.23-.05-.47-.06-.69-.02v9.63c.68-2.48,1.34-5,1.95-7.59.21-.91-.35-1.81-1.26-2.03Z"/>
          <path class="cls-4" d="m133.42,38.4c-.89-.61-1.83-1.31-2.86-2.07-7.19-5.32-19.21-14.22-41.85-15.7-23.7-1.54-42.11,8.31-50.97,13.06-.87.47-1.66.89-2.35,1.25-2.07,1.07-2.88,3.61-1.81,5.68,1.07,2.07,3.61,2.88,5.68,1.81.73-.38,1.55-.82,2.47-1.31,8.79-4.71,25.15-13.47,46.43-12.07,20.17,1.32,30.53,8.99,37.39,14.07,1.11.82,2.13,1.57,3.08,2.23.73.5,1.56.75,2.39.75,1.34,0,2.66-.64,3.47-1.82,1.32-1.92.84-4.54-1.08-5.86Z"/>
          <path class="cls-3" d="m137.45,0h-54.52c22.81,25.73,59.69,17.03,59.65,17.47-1.66,16.57,8.44,33.93,21.94,45.52V27.07c0-14.95-12.12-27.07-27.07-27.07Z"/>
        </g>
      </g>
    </g>
  </g>
</svg>