<?xml version="1.0" encoding="UTF-8"?>
<svg id="Layer_2" data-name="Layer 2" xmlns="http://www.w3.org/2000/svg" viewBox="0 0 164.52 164.52">
  <defs>
    <style>
      .cls-1 {
        fill: #d6835f;
      }

      .cls-1, .cls-2, .cls-3, .cls-4 {
        stroke-width: 0px;
      }

      .cls-2 {
        fill: #c1650a;
      }

      .cls-3 {
        fill: #ffca7d;
      }

      .cls-4 {
        fill: #ffcf8f;
      }
    </style>
  </defs>
  <g id="Portraits">
    <g id="D">
      <g id="Tiles">
        <g id="D-15">
          <path class="cls-4" d="m3.91,90.29c-1.32,0-2.62-.03-3.91-.06v47.22c0,6.82,2.53,13.05,6.69,17.81v-65c-.93.02-1.87.04-2.79.04Z"/>
          <path class="cls-4" d="m6.69,86.07V9.26c-1.9,2.17-3.45,4.63-4.59,7.33.43.04.85.08,1.29.12.93.08,1.61.9,1.53,1.83-.08.88-.81,1.54-1.68,1.54-.05,0-.1,0-.15,0-.72-.06-1.42-.13-2.12-.2-.63,2.29-.98,4.71-.98,7.2v58.98c2.19.06,4.43.07,6.69.02Z"/>
          <path class="cls-3" d="m87.77,151.67c-18.41,7.33-39.74,11.48-64.62,12.56,1.28.19,2.59.29,3.92.29h62.14c-.94-4-1.55-8.22-1.44-12.85Z"/>
          <path class="cls-2" d="m164.52,137.45v-60.7c-18.2,36.54-42.41,61.26-76.75,74.92-.12,4.63.5,8.85,1.44,12.85h48.24c14.95,0,27.07-12.12,27.07-27.07Z"/>
          <path class="cls-4" d="m164.52,76.75V27.07c0-14.95-12.12-27.07-27.07-27.07H27.07C18.94,0,11.65,3.59,6.69,9.26v76.81c18.59-.39,39.42-4.76,59.31-17.34.98-.62,2.29-.33,2.91.65.62.98.33,2.29-.65,2.91-20.67,13.08-42.3,17.58-61.57,17.97v65c4.15,4.74,9.92,8.03,16.46,8.97,24.88-1.09,46.21-5.24,64.62-12.56,34.34-13.66,58.55-38.38,76.75-74.92Z"/>
          <path class="cls-1" d="m6.69,90.25c19.27-.39,40.9-4.89,61.57-17.97.98-.62,1.28-1.92.65-2.91-.62-.98-1.92-1.28-2.91-.65-19.9,12.59-40.72,16.95-59.31,17.34-2.27.05-4.5.04-6.69-.02v4.19c1.29.04,2.59.06,3.91.06.92,0,1.85-.02,2.79-.04Z"/>
          <path class="cls-1" d="m3.24,20.07c.86,0,1.6-.66,1.68-1.54.08-.93-.6-1.75-1.53-1.83-.44-.04-.86-.08-1.29-.12-.45,1.06-.82,2.16-1.13,3.28.7.07,1.4.13,2.12.2.05,0,.1,0,.15,0Z"/>
        </g>
      </g>
    </g>
  </g>
</svg>