<?xml version="1.0" encoding="UTF-8"?>
<svg id="Layer_2" data-name="Layer 2" xmlns="http://www.w3.org/2000/svg" viewBox="0 0 164.52 164.52">
  <defs>
    <style>
      .cls-1 {
        fill: #82c482;
      }

      .cls-1, .cls-2, .cls-3, .cls-4 {
        stroke-width: 0px;
      }

      .cls-2 {
        fill: #c1650a;
      }

      .cls-3 {
        fill: #ffca7d;
      }

      .cls-4 {
        fill: #ffdb77;
      }
    </style>
  </defs>
  <g id="Portraits">
    <g id="D">
      <g id="Tiles">
        <g id="D-18">
          <path class="cls-4" d="m5.35,10.92c-.06.09-.12.17-.19.26l-.04,9.89.23-10.15Z"/>
          <path class="cls-3" d="m2.76,126.86L5.12,21.07l.04-9.89C1.92,15.64,0,21.13,0,27.07v99.66c1.08.07,1.9.12,2.55.16.06-.01.13-.02.22-.04Z"/>
          <path class="cls-1" d="m2.75,146.1h-.41s.18-7.88.18-7.88l-.33-11.21s.02-.04.37-.11c-.64-.04-1.47-.09-2.55-.16v10.71c0,4.35,1.03,8.45,2.85,12.09l-.1-3.44Z"/>
          <path class="cls-3" d="m2.76,126.86c1.74-.28,8.64-.91,36.04-1.33,7.54-.12,14.17-1.39,20.02-3.58,3.87-15.84.62-30.88,7.09-44.8,11.32-24.37,23.84-19.87,29.09-39.69,3.84-14.48-2.12-25-5.37-37.45H27.07C18.17,0,10.28,4.29,5.35,10.92l-.23,10.15-2.36,105.79Z"/>
          <polygon class="cls-3" points="2.75 146.1 2.51 138.22 2.34 146.09 2.75 146.1"/>
          <path class="cls-1" d="m57.32,127.06c.6-1.72,1.09-3.42,1.51-5.12-5.85,2.19-12.48,3.47-20.02,3.58-27.4.42-34.3,1.05-36.04,1.33-.08.01-.15.03-.22.04-.36.07-.37.11-.37.11l.33,11.21.23,7.88.1,3.44c3.12,6.25,8.59,11.12,15.26,13.46,10.17-5.71,32.54-16.81,39.21-35.93Z"/>
          <path class="cls-1" d="m147.15,61.84c-6,27.11,5.43,26.97,4.37,55.73-.72,19.35-11.5,35.42-33.48,46.95h19.42c14.95,0,27.07-12.12,27.07-27.07V36.77c-6.51,4.71-14.02,9.93-17.37,25.07Z"/>
          <path class="cls-2" d="m137.45,0h-47.81c3.25,12.45,9.21,22.97,5.37,37.45-5.25,19.83-17.77,15.33-29.09,39.69-6.47,13.92-3.22,28.95-7.09,44.8-.41,1.7-.91,3.4-1.51,5.12-6.67,19.12-29.04,30.22-39.21,35.93,2.81.98,5.82,1.53,8.96,1.53h90.96c21.98-11.53,32.76-27.6,33.48-46.95,1.06-28.75-10.37-28.62-4.37-55.73,3.35-15.15,10.87-20.36,17.37-25.07v-9.7c0-14.95-12.12-27.07-27.07-27.07Z"/>
        </g>
      </g>
    </g>
  </g>
</svg>