<?xml version="1.0" encoding="UTF-8"?>
<svg id="Layer_2" data-name="Layer 2" xmlns="http://www.w3.org/2000/svg" viewBox="0 0 164.52 164.52">
  <defs>
    <style>
      .cls-1 {
        fill: #c1650a;
      }

      .cls-1, .cls-2, .cls-3 {
        stroke-width: 0px;
      }

      .cls-2 {
        fill: #b75700;
      }

      .cls-3 {
        fill: #ffdb77;
      }
    </style>
  </defs>
  <g id="Portraits">
    <g id="D">
      <g id="Tiles">
        <g id="D-8">
          <path class="cls-3" d="m137.45,0H33.06c6.77,15.17,12.82,32.5,17.84,52.34,3.37,13.32,5.91,25.2,7.74,35.79,5.78,6.96,9.89,15.71,11.14,26.57,3.05,26.39-8.21,42.28-15.82,49.82h83.5c14.95,0,27.07-12.12,27.07-27.07V27.07c0-14.95-12.12-27.07-27.07-27.07Z"/>
          <path class="cls-2" d="m58.63,88.13c-1.83-10.59-4.37-22.47-7.74-35.79C45.88,32.5,39.83,15.17,33.06,0h-5.99C12.12,0,0,12.12,0,27.07v37.3c17.38-.29,43.65,5.74,58.63,23.76Z"/>
          <path class="cls-1" d="m69.77,114.7c-1.26-10.86-5.36-19.61-11.14-26.57-14.98-18.03-41.25-24.05-58.63-23.76v73.08c0,14.95,12.12,27.07,27.07,27.07h26.88c7.61-7.54,18.87-23.43,15.82-49.82Z"/>
        </g>
      </g>
    </g>
  </g>
</svg>