<?xml version="1.0" encoding="UTF-8"?>
<svg id="Layer_2" data-name="Layer 2" xmlns="http://www.w3.org/2000/svg" viewBox="0 0 164.52 164.52">
  <defs>
    <style>
      .cls-1 {
        fill: #c1650a;
      }

      .cls-1, .cls-2, .cls-3, .cls-4, .cls-5 {
        stroke-width: 0px;
      }

      .cls-2 {
        fill: #b75700;
      }

      .cls-3 {
        fill: #ffca7d;
      }

      .cls-4 {
        fill: #ffdb77;
      }

      .cls-5 {
        fill: #ffcf8f;
      }
    </style>
  </defs>
  <g id="Portraits">
    <g id="D">
      <g id="Tiles">
        <g id="D-12">
          <path class="cls-4" d="m137.45,0H52.13c-1.3,1.16-2.4,2.03-3.21,2.62.62,1.65,1.24,3.34,1.87,5.13,27.54,78.79-28.21,87.81-28.21,87.81h-.73c-4.17,16.53-8.73,31.74-13.83,45.64,1.24,5.98,2.18,12.06,2.87,17.95,4.51,3.37,10.12,5.37,16.19,5.37h110.38c14.95,0,27.07-12.12,27.07-27.07V27.07c0-14.95-12.12-27.07-27.07-27.07Z"/>
          <path class="cls-1" d="m4,151.61c1.8,2.93,4.14,5.49,6.89,7.54-.68-5.89-1.63-11.97-2.87-17.95-1.3,3.55-2.64,7.02-4.02,10.41Z"/>
          <path class="cls-3" d="m46.68,3.71c-3.76,2.06-7.76,2.75-11.44,2.73.12,16.48-1.28,32.72-4.35,48.39-2.82,14.38-5.81,27.94-9.04,40.72h.73s55.75-9.02,28.21-87.81c-.62-1.78-1.24-3.48-1.87-5.13-.89.65-1.43.98-1.43.98,0,0-.02.06-.81.11Z"/>
          <path class="cls-5" d="m21.85,95.56c3.22-12.78,6.22-26.35,9.04-40.72,3.07-15.67,4.47-31.92,4.35-48.39-7.76-.04-14.16-3.2-14.16-3.2,0,0,0-.07-.01-.2-1.41-.26-2.82-.59-4.25-1.02C6.95,6.06,0,15.75,0,27.07v110.38c0,5.19,1.46,10.04,4,14.16,1.38-3.39,2.72-6.85,4.02-10.41,5.1-13.91,9.66-29.12,13.83-45.64Z"/>
          <path class="cls-2" d="m26.2,3.6c-1.68-.04-3.4-.24-5.13-.56,0,.13.01.2.01.2,0,0,6.39,3.17,14.16,3.2,3.68.02,7.68-.67,11.44-2.73-1.59.11-6.34.23-20.48-.11Z"/>
          <path class="cls-1" d="m26.2,3.6c14.14.34,18.88.22,20.48.11.79-.06.81-.11.81-.11,0,0,.54-.33,1.43-.98.81-.59,1.92-1.46,3.21-2.62h-25.06c-3.63,0-7.09.72-10.25,2.01,1.42.43,2.84.76,4.25,1.02,1.73.32,3.45.52,5.13.56Z"/>
        </g>
      </g>
    </g>
  </g>
</svg>