<?xml version="1.0" encoding="UTF-8"?>
<svg id="Layer_2" data-name="Layer 2" xmlns="http://www.w3.org/2000/svg" viewBox="0 0 164.52 164.52">
  <defs>
    <style>
      .cls-1 {
        fill: #82c482;
      }

      .cls-1, .cls-2, .cls-3 {
        stroke-width: 0px;
      }

      .cls-2 {
        fill: #c1650a;
      }

      .cls-3 {
        fill: #ffdb77;
      }
    </style>
  </defs>
  <g id="Portraits">
    <g id="D">
      <g id="Tiles">
        <g id="D-16">
          <path class="cls-3" d="m137.45,0H27.07c-5.61,0-10.82,1.71-15.15,4.63.61,10.02.41,18.67-.43,24.05C8.57,47.33,2.8,45.77,0,61.99v12.47c57.32,5.85,130.8,15.04,155.76,25.67,3.01,1.28,5.93,2.63,8.76,4.03V27.07c0-14.95-12.12-27.07-27.07-27.07Z"/>
          <path class="cls-1" d="m0,74.47v6.97c2.15,7.86,6.72,13.44,7.11,27.5.27,9.43-2.82,14.05-7.11,17.75v10.75c0,14.95,12.12,27.07,27.07,27.07h110.38c14.95,0,27.07-12.12,27.07-27.07v-33.28c-2.83-1.4-5.75-2.75-8.76-4.03-24.96-10.63-98.43-19.82-155.76-25.67Z"/>
          <path class="cls-2" d="m11.92,4.63C4.73,9.5,0,17.73,0,27.07v34.92c2.8-16.22,8.57-14.66,11.49-33.31.84-5.38,1.05-14.03.43-24.05Z"/>
          <path class="cls-2" d="m7.11,108.94c-.4-14.06-4.96-19.64-7.11-27.5v45.25c4.3-3.7,7.38-8.33,7.11-17.75Z"/>
        </g>
      </g>
    </g>
  </g>
</svg>