<?xml version="1.0" encoding="UTF-8"?>
<svg id="Layer_2" data-name="Layer 2" xmlns="http://www.w3.org/2000/svg" viewBox="0 0 164.23 164.52">
  <defs>
    <style>
      .cls-1 {
        fill: #c1650a;
      }

      .cls-1, .cls-2, .cls-3 {
        stroke-width: 0px;
      }

      .cls-2 {
        fill: #b75700;
      }

      .cls-3 {
        fill: #ffdb77;
      }
    </style>
  </defs>
  <g id="Portraits">
    <g id="D">
      <g id="Tiles">
        <g id="D-5">
          <path class="cls-3" d="m26.78,0C13.17,0,1.91,10.05,0,23.13v118.25c1.91,13.08,13.17,23.13,26.78,23.13h91.77c-7.37-8.28-16.33-23.56-13.58-47.44,1.55-13.44,7.47-23.64,15.53-31.22.54-10.68,2.16-22.14,5.26-34.34,4.86-19.14,11.02-35.93,18.09-50.68-2.14-.55-4.39-.84-6.7-.84H26.78Z"/>
          <path class="cls-2" d="m120.51,85.85c12.19-11.46,29.29-16.94,43.72-18.58V27.07c0-12.64-8.66-23.25-20.37-26.23-7.08,14.75-13.23,31.54-18.09,50.68-3.1,12.19-4.72,23.65-5.26,34.34Z"/>
          <path class="cls-1" d="m104.98,117.07c-2.76,23.88,6.2,39.17,13.58,47.44h18.61c14.95,0,27.07-12.12,27.07-27.07v-70.17c-14.43,1.64-31.54,7.12-43.72,18.58-8.06,7.58-13.98,17.78-15.53,31.22Z"/>
        </g>
      </g>
    </g>
  </g>
</svg>