<?xml version="1.0" encoding="UTF-8"?>
<svg id="Layer_2" data-name="Layer 2" xmlns="http://www.w3.org/2000/svg" viewBox="0 0 164.23 164.52">
  <defs>
    <style>
      .cls-1 {
        fill: #c1650a;
      }

      .cls-1, .cls-2, .cls-3, .cls-4, .cls-5 {
        stroke-width: 0px;
      }

      .cls-2 {
        fill: #b75700;
      }

      .cls-3 {
        fill: #ffca7d;
      }

      .cls-4 {
        fill: #ffdb77;
      }

      .cls-5 {
        fill: #ffcf8f;
      }
    </style>
  </defs>
  <g id="Portraits">
    <g id="D">
      <g id="Tiles">
        <g id="D-9">
          <path class="cls-4" d="m0,23.13v118.25c1.91,13.08,13.17,23.13,26.78,23.13h110.38c14.95,0,27.07-12.12,27.07-27.07v-30.92c-.56-2.13-1.11-4.28-1.66-6.46h-3.21s-55.75-9.02-28.21-87.81c.74-2.12,1.48-4.12,2.22-6.06-6.04,0-6.1-.22-6.1-.22,0,0-3.16-1.9-7.12-5.97H26.78C13.17,0,1.91,10.05,0,23.13Z"/>
          <path class="cls-3" d="m148.97,14.94c-.73-.84-3.21-3.84-6.45-8.84-4.01.07-6.97.1-9.15.1-.74,1.93-1.48,3.94-2.22,6.06-27.54,78.79,28.21,87.81,28.21,87.81h3.21c-3.36-13.4-6.45-27.68-9.37-42.85-2.64-13.72-4.01-27.89-4.23-42.27Z"/>
          <path class="cls-5" d="m149.19,15.2s-.08-.09-.22-.26c.22,14.38,1.6,28.54,4.23,42.27,2.91,15.18,6.01,29.45,9.37,42.85.55,2.18,1.1,4.33,1.66,6.46V27.07c0-8.83-4.23-16.67-10.77-21.61-.48.09-.96.15-1.45.21-2.2,5.98-2.82,9.52-2.82,9.52Z"/>
          <path class="cls-2" d="m149.19,15.2s.63-3.54,2.82-9.52c-1.16.16-2.32.27-3.46.3-2.24.05-4.24.09-6.03.13,3.23,5,5.72,8,6.45,8.84.14.16.22.26.22.26Z"/>
          <path class="cls-1" d="m133.37,6.19c2.18,0,5.14-.02,9.15-.1,1.8-.03,3.79-.07,6.03-.13,1.14-.03,2.29-.14,3.46-.3.48-.06.96-.13,1.45-.21-4.53-3.42-10.18-5.46-16.3-5.46h-17.02c3.97,4.07,7.12,5.97,7.12,5.97,0,0,.06.22,6.1.22Z"/>
        </g>
      </g>
    </g>
  </g>
</svg>