<?xml version="1.0" encoding="UTF-8"?>
<svg id="Layer_2" data-name="Layer 2" xmlns="http://www.w3.org/2000/svg" viewBox="0 0 164.52 164.52">
  <defs>
    <style>
      .cls-1 {
        fill: #c1650a;
      }

      .cls-1, .cls-2, .cls-3, .cls-4 {
        stroke-width: 0px;
      }

      .cls-2 {
        fill: #b75700;
      }

      .cls-3 {
        fill: #ffdb77;
      }

      .cls-4 {
        fill: #ffcf8f;
      }
    </style>
  </defs>
  <g id="Portraits">
    <g id="D">
      <g id="Tiles">
        <g id="D-6">
          <path class="cls-3" d="m0,27.07v5.63C10.54,19.32,21.91,8.6,33.44,0h-6.37C12.12,0,0,12.12,0,27.07Z"/>
          <path class="cls-4" d="m127.43,134.82c-7.08-1.57-18.86-3.12-20.7,3.89-2.88,10.96-7.27,19.37-12.51,25.8h43.23c14.95,0,27.07-12.12,27.07-27.07v-18.94c-7.35,11.3-20.42,20.02-37.09,16.32Z"/>
          <path class="cls-2" d="m0,32.7v104.75s0,.08,0,.12c7.23-.52,13.58-.06,17.96,1.1,0,0,31.74-48.92,72.93-44.68,13.61,1.4,25.56-36.42,73.62-9.45V27.07c0-14.95-12.12-27.07-27.07-27.07H33.44C21.91,8.6,10.54,19.32,0,32.7Z"/>
          <path class="cls-1" d="m90.9,93.99c-41.19-4.24-72.93,44.68-72.93,44.68-4.38-1.15-10.73-1.62-17.96-1.1.07,14.89,12.16,26.95,27.07,26.95h67.15c5.24-6.43,9.64-14.84,12.51-25.8,1.84-7.01,13.62-5.46,20.7-3.89,16.68,3.7,29.74-5.02,37.09-16.32v-33.96c-48.07-26.97-60.02,10.85-73.62,9.45Z"/>
        </g>
      </g>
    </g>
  </g>
</svg>