<?xml version="1.0" encoding="UTF-8"?>
<svg id="Layer_2" data-name="Layer 2" xmlns="http://www.w3.org/2000/svg" viewBox="0 0 164.52 164.52">
  <defs>
    <style>
      .cls-1 {
        fill: #1a1a1a;
      }

      .cls-1, .cls-2, .cls-3, .cls-4, .cls-5 {
        stroke-width: 0px;
      }

      .cls-2 {
        fill: #d6835f;
      }

      .cls-3 {
        fill: #c1650a;
      }

      .cls-4 {
        fill: #b75700;
      }

      .cls-5 {
        fill: #ffcf8f;
      }
    </style>
  </defs>
  <g id="Portraits">
    <g id="D">
      <g id="Tiles">
        <g id="D-10">
          <path class="cls-5" d="m139.14,137.86c7.91-14.7,18.53-34.44,25.38-60.04V27.07c0-14.95-12.12-27.07-27.07-27.07h-44.69c-22.81,25.7-59.67,17-59.62,17.45,2.1,20.93-14.55,43.1-33.13,53.34v66.66c0,14.95,12.12,27.07,27.07,27.07h100.58c.84-6.87,5.45-15.45,11.49-26.65ZM45.28,45.31c-.73.5-1.56.75-2.39.75-1.34,0-2.66-.64-3.47-1.82-1.32-1.92-.84-4.54,1.08-5.86.73-.5,1.51-1.07,2.35-1.67,7.57-5.45,20.23-14.58,43.42-16.1,22.92-1.5,40.57,8.31,50.04,13.58,1.25.7,2.34,1.31,3.28,1.79,2.07,1.07,2.88,3.61,1.81,5.68-1.07,2.07-3.61,2.88-5.68,1.81-1-.51-2.17-1.17-3.51-1.91-8.72-4.85-24.96-13.89-45.39-12.54-20.78,1.36-31.77,9.29-39.05,14.53-.89.64-1.72,1.24-2.5,1.77Zm77.96,25.58c-5.27-2.55-13.03-5.36-22.45-6.1,4.59,3.23,7.31,8.8,6.62,14.76-1,8.68-8.85,14.89-17.53,13.89-8.68-1-14.89-8.85-13.89-17.53.42-3.64,2.06-6.83,4.44-9.26-14.56,3.93-24.54,12.43-28.68,16.52-.41.41-.95.61-1.48.61-.54,0-1.09-.21-1.5-.63-.82-.83-.81-2.16.02-2.98,6.86-6.77,21.6-18.34,43.24-19.68,14.2-.89,25.81,3.1,33.05,6.59,1.05.51,1.49,1.77.98,2.82-.51,1.05-1.76,1.49-2.82.98Z"/>
          <path class="cls-5" d="m131.1,164.52h6.35c14.95,0,27.07-12.12,27.07-27.07v-47.79c-6.76,20.7-15.58,37.12-22.41,49.8-5.61,10.42-10.1,18.78-11.01,25.06Z"/>
          <path class="cls-1" d="m125.07,67.1c-7.24-3.49-18.85-7.49-33.05-6.59-21.64,1.34-36.38,12.91-43.24,19.68-.83.82-.84,2.15-.02,2.98.41.42.96.63,1.5.63.54,0,1.07-.2,1.48-.61,4.14-4.09,14.12-12.6,28.68-16.52,3.3-3.35,8.05-5.22,13.09-4.63,2.71.31,5.18,1.3,7.27,2.76,9.43.74,17.18,3.55,22.45,6.1,1.05.51,2.31.07,2.82-.98.51-1.05.07-2.31-.98-2.82Z"/>
          <path class="cls-1" d="m80.43,66.67c-2.38,2.42-4.02,5.62-4.44,9.26-1,8.68,5.21,16.52,13.89,17.53,8.68,1,16.52-5.21,17.53-13.89.69-5.96-2.03-11.54-6.62-14.76-2.09-1.47-4.56-2.45-7.27-2.76-5.04-.58-9.78,1.28-13.09,4.63Z"/>
          <path class="cls-2" d="m127.65,164.52h3.45c.91-6.27,5.39-14.63,11.01-25.06,6.83-12.69,15.65-29.1,22.41-49.8v-11.84c-6.85,25.6-17.46,45.34-25.38,60.04-6.04,11.21-10.65,19.78-11.49,26.65Z"/>
          <path class="cls-4" d="m132.21,41.55c1.34.74,2.51,1.4,3.51,1.91,2.07,1.07,4.61.26,5.68-1.81,1.07-2.07.26-4.61-1.81-5.68-.93-.48-2.03-1.09-3.28-1.79-9.48-5.27-27.13-15.08-50.04-13.58-23.19,1.52-35.85,10.65-43.42,16.1-.84.61-1.62,1.17-2.35,1.67-1.92,1.32-2.4,3.95-1.08,5.86.82,1.19,2.13,1.82,3.47,1.82.83,0,1.66-.24,2.39-.75.78-.54,1.6-1.13,2.5-1.77,7.28-5.24,18.27-13.16,39.05-14.53,20.43-1.36,36.67,7.69,45.39,12.54Z"/>
          <path class="cls-3" d="m33.13,17.45c-.04-.44,36.81,8.25,59.62-17.45H27.07C12.12,0,0,12.12,0,27.07v43.72c18.58-10.24,35.23-32.41,33.13-53.34Z"/>
        </g>
      </g>
    </g>
  </g>
</svg>