<?xml version="1.0" encoding="UTF-8"?>
<svg id="Layer_2" data-name="Layer 2" xmlns="http://www.w3.org/2000/svg" viewBox="0 0 164.52 164.52">
  <defs>
    <style>
      .cls-1 {
        fill: #82c482;
      }

      .cls-1, .cls-2, .cls-3, .cls-4, .cls-5 {
        stroke-width: 0px;
      }

      .cls-2 {
        fill: #d6835f;
      }

      .cls-3 {
        fill: #ffca7d;
      }

      .cls-4 {
        fill: #ffdb77;
      }

      .cls-5 {
        fill: #ffcf8f;
      }
    </style>
  </defs>
  <g id="Portraits">
    <g id="D">
      <g id="Tiles">
        <g id="D-14">
          <path class="cls-4" d="m.14,24.34c-.09.9-.14,1.81-.14,2.73v110.38c0,3.68.74,7.19,2.07,10.39,32.72-3.38,60.71-5.7,72.33-6.63C38.9,118.96,16.49,80.44.14,24.34Z"/>
          <path class="cls-3" d="m76.61,164.52h60.84c2.76,0,5.42-.41,7.92-1.18-25.89-2.45-47.55-8.77-65.88-19.11-.72,3.98-1.9,11.17-2.88,20.29Z"/>
          <path class="cls-1" d="m27.07,164.52h49.54c.98-9.12,2.16-16.31,2.88-20.29-1.72-.97-3.42-1.97-5.09-3.02-11.62.93-39.61,3.25-72.33,6.63,4.07,9.8,13.73,16.68,25,16.68Z"/>
          <path class="cls-5" d="m74.4,141.21c1.67,1.04,3.37,2.04,5.09,3.02,18.33,10.34,39.99,16.66,65.88,19.11,11.09-3.39,19.15-13.7,19.15-25.89v-47.35c-28.96-1.39-50.69-11.14-52.23-11.85-1.06-.49-1.52-1.74-1.03-2.8.49-1.06,1.74-1.52,2.8-1.03,1.5.69,22.49,10.11,50.47,11.49V27.07c0-2.69-.4-5.29-1.13-7.75-20.71-2.36-30.86-6.19-34.41-12.8-1.07-1.99-1.52-4.15-1.46-6.52H27.07C13.04,0,1.5,10.67.14,24.34c16.35,56.1,38.76,94.61,74.26,116.87Z"/>
          <path class="cls-5" d="m131.94,4.92c2.86,5.31,12.02,8.66,30.1,10.85-4.28-9.31-13.68-15.77-24.6-15.77h-6.5c-.06,1.85.23,3.5,1,4.92Z"/>
          <path class="cls-2" d="m111.25,75.45c-.49,1.06-.02,2.31,1.03,2.8,1.55.71,23.27,10.46,52.23,11.85v-4.19c-27.98-1.38-48.97-10.8-50.47-11.49-1.06-.49-2.31-.02-2.8,1.03Z"/>
          <path class="cls-2" d="m128.97,6.52c3.56,6.6,13.7,10.44,34.41,12.8-.36-1.22-.81-2.41-1.34-3.55-18.08-2.19-27.24-5.54-30.1-10.85-.77-1.43-1.06-3.08-1-4.92h-3.43c-.07,2.37.38,4.53,1.46,6.52Z"/>
        </g>
      </g>
    </g>
  </g>
</svg>