<?xml version="1.0" encoding="UTF-8"?>
<svg id="Layer_2" data-name="Layer 2" xmlns="http://www.w3.org/2000/svg" viewBox="0 0 164.23 164.52">
  <defs>
    <style>
      .cls-1 {
        fill: #5c69c6;
      }

      .cls-1, .cls-2 {
        stroke-width: 0px;
      }

      .cls-2 {
        fill: #6b491b;
      }
    </style>
  </defs>
  <g id="Portraits">
    <g id="N">
      <g id="Tiles">
        <g id="N-1">
          <path class="cls-1" d="m137.16,0H26.78C13.17,0,1.91,10.05,0,23.13v118.25c1.91,13.08,13.17,23.13,26.78,23.13h110.38c5.55,0,10.72-1.68,15.01-4.55.37-16.59-5.6-17.37,5.41-29.13,2.27-2.43,4.49-4.05,6.65-5.06V27.07c0-14.95-12.12-27.07-27.07-27.07Z"/>
          <path class="cls-2" d="m157.58,130.84c-11.01,11.77-5.04,12.55-5.41,29.13,7.27-4.85,12.06-13.13,12.06-22.52v-11.67c-2.16,1.01-4.38,2.63-6.65,5.06Z"/>
        </g>
      </g>
    </g>
  </g>
</svg>