<?xml version="1.0" encoding="UTF-8"?>
<svg id="Layer_2" data-name="Layer 2" xmlns="http://www.w3.org/2000/svg" viewBox="0 0 164.52 164.52">
  <defs>
    <style>
      .cls-1 {
        fill: #5c69c6;
      }

      .cls-1, .cls-2 {
        stroke-width: 0px;
      }

      .cls-2 {
        fill: #6b491b;
      }
    </style>
  </defs>
  <g id="Portraits">
    <g id="N">
      <g id="Tiles">
        <g id="N-3">
          <path class="cls-1" d="m137.45,0H27.07C12.12,0,0,12.12,0,27.07v96.04c3.58-5.93,7.98-11,18.26-11,23.35,0,11.11,17.12,28.14,22.89,4.83,1.63,11.15,1.09,23.81,0,25.79-2.22,28.59-6.53,37.5-3.27,10.73,3.93,20.43,15.28,20.95,26.16.13,2.71-.32,4.83-.88,6.63h9.66c14.95,0,27.07-12.12,27.07-27.07V27.07c0-14.95-12.12-27.07-27.07-27.07Z"/>
          <path class="cls-2" d="m128.67,157.89c-.52-10.88-10.23-22.24-20.95-26.16-8.9-3.26-11.7,1.05-37.5,3.27-12.66,1.09-18.99,1.63-23.81,0-17.04-5.77-4.79-22.89-28.14-22.89-10.28,0-14.68,5.07-18.26,11v14.34c0,14.95,12.12,27.07,27.07,27.07h100.72c.57-1.79,1.01-3.92.88-6.63Z"/>
        </g>
      </g>
    </g>
  </g>
</svg>