<?xml version="1.0" encoding="UTF-8"?>
<svg id="Layer_2" data-name="Layer 2" xmlns="http://www.w3.org/2000/svg" viewBox="0 0 164.52 164.52">
  <defs>
    <style>
      .cls-1 {
        fill: #5c69c6;
      }

      .cls-1, .cls-2, .cls-3 {
        stroke-width: 0px;
      }

      .cls-2 {
        fill: #6b491b;
      }

      .cls-3 {
        fill: #f0ccad;
      }
    </style>
  </defs>
  <g id="Portraits">
    <g id="N">
      <g id="Tiles">
        <g id="N-7">
          <path class="cls-1" d="m137.45,0h-10.26c-.99,2.63-1.89,4.58-.69,6.92,3.68,7.15,18.66,1.76,34.51,6.83-4.65-8.21-13.46-13.75-23.56-13.75Z"/>
          <path class="cls-3" d="m110.27,148.62c-.35-7.22,3.82-11.4,2.16-13.08-3.15-3.19-16.81,13.24-35.72,13.08-.91,0-17.4-.36-23.81-10.9-5.8-9.53.99-20.22-3.25-22.89-5.61-3.53-16.32,15.91-34.64,16.35-5.04.12-10.38-1.21-15.02-3.63v9.89c0,14.95,12.12,27.07,27.07,27.07h91.32c-3.02-3-7.77-8.59-8.12-15.89Z"/>
          <path class="cls-2" d="m126.5,6.92c-1.2-2.34-.3-4.28.69-6.92H27.07C12.12,0,0,12.12,0,27.07v100.49c4.64,2.42,9.97,3.75,15.02,3.63,18.32-.44,29.03-19.88,34.64-16.35,4.24,2.67-2.55,13.36,3.25,22.89,6.41,10.54,22.9,10.89,23.81,10.9,18.91.16,32.57-16.27,35.72-13.08,1.66,1.68-2.51,5.86-2.16,13.08.35,7.3,5.09,12.89,8.12,15.89h19.06c14.95,0,27.07-12.12,27.07-27.07V27.07c0-4.84-1.28-9.39-3.51-13.32-15.85-5.07-30.83.32-34.51-6.83Z"/>
        </g>
      </g>
    </g>
  </g>
</svg>