<?xml version="1.0" encoding="UTF-8"?>
<svg id="Layer_2" data-name="Layer 2" xmlns="http://www.w3.org/2000/svg" viewBox="0 0 164.52 164.52">
  <defs>
    <style>
      .cls-1 {
        fill: #1a1a1a;
      }

      .cls-1, .cls-2, .cls-3, .cls-4, .cls-5 {
        stroke-width: 0px;
      }

      .cls-2 {
        fill: #b27350;
      }

      .cls-3 {
        fill: #b58a68;
      }

      .cls-4 {
        fill: #6b491b;
      }

      .cls-5 {
        fill: #f0ccad;
      }
    </style>
  </defs>
  <g id="Portraits">
    <g id="N">
      <g id="Tiles">
        <g id="N-11">
          <path class="cls-5" d="m160.39,21.34c.4-2.25.68-4.5.86-6.75-.63-.66-1.37-1.22-2.28-1.68-15.54-7.89-26.46-1.69-38.78-12.91H27.07C12.12,0,0,12.12,0,27.07v74.91c.75-3.04,1.2-4.96,1.22-5.04.26-1.13,1.4-1.84,2.53-1.57,1.13.27,1.84,1.4,1.57,2.53-.18.77-2.38,10.12-5.33,20.8v18.74c0,14.95,12.12,27.07,27.07,27.07h110.38c14.95,0,27.07-12.12,27.07-27.07v-11.45c-5.51-.49-9.29-4.47-9.29-4.47,0,0,4.62-8.09,9.29-19.5V36.44c-.65-.58-1.33-1.14-2.06-1.67,0,0-3.99-2.69-2.07-13.43Zm-106.29,24.28c-1.95-1.27-2.5-3.89-1.22-5.84.62-.95,15.62-23.25,50.33-21.52,34.29,1.71,48.61,20.52,49.2,21.32,1.39,1.87.99,4.51-.88,5.9-1.87,1.39-4.51.99-5.9-.88-.5-.65-12.76-16.41-42.85-17.92-29.94-1.49-42.73,17.52-42.86,17.72-.81,1.24-2.16,1.91-3.53,1.91-.79,0-1.59-.22-2.3-.69Zm37.61,42.81c-8.35,0-15.12-6.77-15.12-15.12,0-5.55,2.99-10.38,7.45-13.01-16.19,2.09-23.06,9.57-23.14,9.66l-3.15-2.8c.44-.5,11.08-12.11,36.59-11.59,25.68.54,32.43,11.3,32.7,11.76l-3.62,2.17c-.04-.07-5.28-7.97-24.51-9.48,4.72,2.56,7.93,7.56,7.93,13.3,0,8.35-6.77,15.12-15.12,15.12Z"/>
          <path class="cls-3" d="m160.39,21.34c-1.93,10.74,2.07,13.43,2.07,13.43.73.53,1.41,1.09,2.06,1.67v-9.37c0-4.25-.98-8.26-2.72-11.84-.17-.22-.35-.43-.54-.63-.18,2.24-.46,4.49-.86,6.75Z"/>
          <path class="cls-3" d="m164.52,126v-23.97c-4.67,11.42-9.29,19.5-9.29,19.5,0,0,3.78,3.98,9.29,4.47Z"/>
          <path class="cls-4" d="m158.98,12.91c.91.46,1.65,1.02,2.28,1.68.19.2.37.41.54.63-4.39-9.02-13.64-15.23-24.35-15.23h-17.25c12.32,11.22,23.23,5.02,38.78,12.91Z"/>
          <path class="cls-4" d="m59.94,44.4c.12-.19,12.91-19.21,42.86-17.72,30.08,1.5,42.35,17.27,42.85,17.92,1.39,1.87,4.03,2.26,5.9.88,1.87-1.39,2.26-4.03.88-5.9-.59-.8-14.91-19.61-49.2-21.32-34.71-1.73-49.71,20.57-50.33,21.52-1.27,1.95-.73,4.56,1.22,5.84.71.47,1.51.69,2.3.69,1.38,0,2.72-.67,3.53-1.91Z"/>
          <path class="cls-2" d="m3.76,95.37c-1.14-.27-2.27.44-2.53,1.57-.02.08-.47,2-1.22,5.04v16.73c2.94-10.68,5.15-20.03,5.33-20.8.27-1.13-.44-2.27-1.57-2.53Z"/>
          <path class="cls-1" d="m98.91,60.01c19.23,1.51,24.47,9.42,24.51,9.48l3.62-2.17c-.28-.46-7.03-11.22-32.7-11.76-25.5-.52-36.15,11.09-36.59,11.59l3.15,2.8c.08-.09,6.95-7.57,23.14-9.66,2.25-1.33,4.87-2.11,7.68-2.11,2.61,0,5.06.66,7.2,1.82Z"/>
          <path class="cls-1" d="m98.91,60.01c-2.14-1.16-4.59-1.82-7.2-1.82-2.81,0-5.42.78-7.68,2.11-4.45,2.63-7.45,7.47-7.45,13.01,0,8.35,6.77,15.12,15.12,15.12s15.12-6.77,15.12-15.12c0-5.75-3.21-10.74-7.93-13.3Z"/>
        </g>
      </g>
    </g>
  </g>
</svg>