<?xml version="1.0" encoding="UTF-8"?>
<svg id="Layer_2" data-name="Layer 2" xmlns="http://www.w3.org/2000/svg" viewBox="0 0 164.52 164.52">
  <defs>
    <style>
      .cls-1 {
        fill: #5c69c6;
      }

      .cls-1, .cls-2, .cls-3, .cls-4 {
        stroke-width: 0px;
      }

      .cls-2 {
        fill: #b27350;
      }

      .cls-3 {
        fill: #f2c097;
      }

      .cls-4 {
        fill: #f0ccad;
      }
    </style>
  </defs>
  <g id="Portraits">
    <g id="N">
      <g id="Tiles">
        <g id="N-15">
          <path class="cls-1" d="m154.19,36.86h-4.73c-14.69,50.04-34.1,84.66-70.77,102.49.92,2.66,1.65,5.42,2.13,8.27l2.85,16.89h53.78c14.95,0,27.07-12.12,27.07-27.07V33.23c-5.79,2.9-10.33,3.63-10.33,3.63Z"/>
          <path class="cls-3" d="m78.69,139.35c-19.06,9.27-42.77,14.01-72.91,14.01-.01,0-.02,0-.04,0h-.03s-.02,0-.04,0c-.17,0-.34,0-.51,0,4.92,6.76,12.89,11.16,21.89,11.16h56.6l-2.85-16.89c-.48-2.85-1.2-5.61-2.13-8.27Z"/>
          <path class="cls-3" d="m154.19,36.86s4.53-.74,10.33-3.63v-6.16c0-7.26-2.86-13.84-7.51-18.7-2.41,10-4.9,19.49-7.55,28.5h4.73Z"/>
          <path class="cls-4" d="m5.72,153.37h.03s.02,0,.04,0c30.14,0,53.85-4.75,72.91-14.01,36.67-17.83,56.09-52.45,70.77-102.49,2.64-9,5.14-18.5,7.55-28.5-4.93-5.15-11.87-8.37-19.56-8.37H27.07C12.12,0,0,12.12,0,27.07v.67c2.61.07,5.43.02,8.47-.15,1.17-.05,2.16.82,2.22,1.98.07,1.16-.82,2.16-1.98,2.22-2.24.13-4.38.19-6.41.19-.78,0-1.54-.01-2.3-.03v44.84c1.99.07,4.02.11,6.12.1,19.46-.13,33.97-3.74,42.72-6.74,9.48-3.25,14.42-6.51,14.47-6.54.97-.65,2.28-.39,2.92.58.65.97.39,2.27-.58,2.92-.83.56-20.9,13.73-59.51,13.99-.37,0-.74,0-1.1,0-1.73,0-3.4-.04-5.05-.09v56.42c0,5.95,1.92,11.45,5.18,15.91.17,0,.34,0,.51,0,.01,0,.02,0,.04,0Z"/>
          <path class="cls-2" d="m8.71,31.8c1.16-.07,2.05-1.06,1.98-2.22-.07-1.16-1.06-2.03-2.22-1.98-3.04.17-5.86.22-8.47.15v4.22c.75.02,1.51.03,2.3.03,2.03,0,4.17-.06,6.41-.19Z"/>
          <path class="cls-2" d="m6.15,81.11c38.61-.26,58.67-13.43,59.51-13.99.97-.65,1.22-1.95.58-2.92-.65-.97-1.96-1.23-2.92-.58-.05.03-4.99,3.29-14.47,6.54-8.75,3-23.26,6.6-42.72,6.74-2.1.01-4.14-.03-6.12-.1v4.23c1.65.05,3.32.09,5.05.09.36,0,.73,0,1.1,0Z"/>
        </g>
      </g>
    </g>
  </g>
</svg>