<?xml version="1.0" encoding="UTF-8"?>
<svg id="Layer_2" data-name="Layer 2" xmlns="http://www.w3.org/2000/svg" viewBox="0 0 164.52 164.52">
  <defs>
    <style>
      .cls-1 {
        fill: #5c69c6;
      }

      .cls-1, .cls-2, .cls-3 {
        stroke-width: 0px;
      }

      .cls-2 {
        fill: #f2c097;
      }

      .cls-3 {
        fill: #ffe36c;
      }
    </style>
  </defs>
  <g id="Portraits">
    <g id="N">
      <g id="Tiles">
        <g id="N-18">
          <path class="cls-1" d="m137.45,0h-53.49l4.38,25.95c11.15,2.79,44.63,11.56,76.17,23.86v-22.74c0-14.95-12.12-27.07-27.07-27.07Z"/>
          <path class="cls-3" d="m88.7,28.02c5.26,31.15-18.75,59.56-50.34,59.56H0v49.87c0,14.95,12.12,27.07,27.07,27.07h110.38c14.95,0,27.07-12.12,27.07-27.07V49.81c-31.54-12.29-65.02-21.07-76.17-23.86l.35,2.07Z"/>
          <path class="cls-2" d="m88.7,28.02l-.35-2.07L83.96,0H27.07C12.12,0,0,12.12,0,27.07v60.51h38.35c31.59,0,55.6-28.41,50.34-59.56Z"/>
        </g>
      </g>
    </g>
  </g>
</svg>