<?xml version="1.0" encoding="UTF-8"?>
<svg id="Layer_2" data-name="Layer 2" xmlns="http://www.w3.org/2000/svg" viewBox="0 0 164.52 164.52">
  <defs>
    <style>
      .cls-1 {
        fill: #5c69c6;
      }

      .cls-1, .cls-2 {
        stroke-width: 0px;
      }

      .cls-2 {
        fill: #6b491b;
      }
    </style>
  </defs>
  <g id="Portraits">
    <g id="N">
      <g id="Tiles">
        <g id="N-4">
          <path class="cls-1" d="m137.45,0H27.07C12.12,0,0,12.12,0,27.07v83.29c10.65,6.04,16.61,15.47,18.35,18.11,9.44,14.37,4.42,21.58,12.99,29.43,7.46,6.84,14.58,4.41,22.32,6.62h83.79c14.95,0,27.07-12.12,27.07-27.07V27.07c0-14.95-12.12-27.07-27.07-27.07Z"/>
          <path class="cls-2" d="m18.35,128.46c-1.73-2.64-7.7-12.07-18.35-18.11v27.09c0,14.95,12.12,27.07,27.07,27.07h26.59c-7.74-2.21-14.86.22-22.32-6.62-8.57-7.86-3.55-15.06-12.99-29.43Z"/>
        </g>
      </g>
    </g>
  </g>
</svg>