<?xml version="1.0" encoding="UTF-8"?>
<svg id="Layer_2" data-name="Layer 2" xmlns="http://www.w3.org/2000/svg" viewBox="0 0 164.52 164.52">
  <defs>
    <style>
      .cls-1 {
        fill: #5c69c6;
      }

      .cls-1, .cls-2, .cls-3, .cls-4 {
        stroke-width: 0px;
      }

      .cls-2 {
        fill: #b58a68;
      }

      .cls-3 {
        fill: #6b491b;
      }

      .cls-4 {
        fill: #f0ccad;
      }
    </style>
  </defs>
  <g id="Portraits">
    <g id="N">
      <g id="Tiles">
        <g id="N-8">
          <path class="cls-1" d="m137.45,0H57.87c1.24.67,2.5,1.5,3.78,2.56,11.2,9.29,12.54,26.03,12.99,31.61,1.35,16.83-5.7,21.41-1.08,32.7,3.03,7.41,10.03,15.12,18.4,16.35,8.63,1.27,15.09-4.89,16.24-3.27,1.24,1.75-4.74,11.19-14.07,14.17-12.85,4.1-26.21-5.91-27.06-4.36-1.01,1.83,20.53,10.45,25.98,28.34,2.26,7.42,2.82,20.85,0,18.53-10.52-8.67-18.77-10.15-26.01-5.57-8.69,5.51-6.58,4.53-4.13,13.43,2.76,10.05,17.57,10.98,17.15,16.12-.11,1.33-1.31,2.69-3.22,3.9h60.63c14.95,0,27.07-12.12,27.07-27.07V27.07c0-14.95-12.12-27.07-27.07-27.07Z"/>
          <path class="cls-1" d="m27.09,164.52h1.27c-.37-.22-.75-.46-1.13-.7-.05.23-.09.47-.14.7Z"/>
          <path class="cls-4" d="m0,137.45c0,6.05,1.98,11.63,5.34,16.14-.16-7.1-1.7-13.71-5.34-19.09v2.96Z"/>
          <path class="cls-2" d="m11.25,149.66c-5.76-6.5-9.12-12.5-11.25-17.85v2.68c3.64,5.39,5.18,12,5.34,19.09,4.93,6.63,12.83,10.93,21.73,10.93h.02c.05-.23.09-.46.14-.7-4.85-3.09-10.18-7.61-15.98-14.16Z"/>
          <path class="cls-3" d="m80.05,160.62c.42-5.14-14.39-6.07-17.15-16.12-2.45-8.9-4.56-7.92,4.13-13.43,7.24-4.58,15.49-3.1,26.01,5.57,2.82,2.32,2.26-11.11,0-18.53-5.45-17.89-26.99-26.51-25.98-28.34.85-1.55,14.21,8.46,27.06,4.36,9.33-2.98,15.31-12.42,14.07-14.17-1.14-1.61-7.61,4.54-16.24,3.27-8.37-1.23-15.37-8.94-18.4-16.35-4.62-11.29,2.43-15.87,1.08-32.7-.45-5.58-1.79-22.32-12.99-31.61-1.28-1.06-2.54-1.9-3.78-2.56h-30.8C12.12,0,0,12.12,0,27.07v104.74c2.13,5.35,5.49,11.34,11.25,17.85,5.8,6.55,11.13,11.07,15.98,14.16.38.24.76.47,1.13.7h48.46c1.92-1.21,3.12-2.57,3.22-3.9Z"/>
        </g>
      </g>
    </g>
  </g>
</svg>