<?xml version="1.0" encoding="UTF-8"?>
<svg id="Layer_2" data-name="Layer 2" xmlns="http://www.w3.org/2000/svg" viewBox="0 0 164.52 164.52">
  <defs>
    <style>
      .cls-1 {
        fill: #5c69c6;
      }

      .cls-1, .cls-2, .cls-3, .cls-4 {
        stroke-width: 0px;
      }

      .cls-2 {
        fill: #b58a68;
      }

      .cls-3 {
        fill: #6b491b;
      }

      .cls-4 {
        fill: #f2c097;
      }
    </style>
  </defs>
  <g id="Portraits">
    <g id="N">
      <g id="Tiles">
        <g id="N-12">
          <path class="cls-1" d="m137.45,0h-64.12c-4.09,1.58-9.53,2.51-14.93,2.02-3.2-.29-12.55,5.17-26.93-2.02h-4.4c-.11,0-.21,0-.32,0-4.4,21.58-9.61,34.75-14.79,42.57.28.76.55,1.52.83,2.31,17.16,49.09.98,70.26-12.78,79.12v13.43c0,14.95,12.12,27.07,27.07,27.07h110.38c14.95,0,27.07-12.12,27.07-27.07V27.07c0-14.95-12.12-27.07-27.07-27.07Z"/>
          <path class="cls-4" d="m12.78,44.89c-.28-.79-.55-1.55-.83-2.31-4.14,6.24-8.27,9.07-11.96,10.03v71.4c13.77-8.86,29.94-30.03,12.78-79.12Z"/>
          <path class="cls-2" d="m11.96,42.58C17.14,34.76,22.35,21.59,26.75,0,11.95.18,0,12.23,0,27.07v25.54c3.69-.97,7.82-3.79,11.96-10.03Z"/>
          <path class="cls-3" d="m58.4,2.02c5.39.49,10.84-.44,14.93-2.02H31.47c14.38,7.18,23.72,1.73,26.93,2.02Z"/>
        </g>
      </g>
    </g>
  </g>
</svg>