<?xml version="1.0" encoding="UTF-8"?>
<svg id="Layer_2" data-name="Layer 2" xmlns="http://www.w3.org/2000/svg" viewBox="0 0 164.52 164.52">
  <defs>
    <style>
      .cls-1 {
        fill: #5c69c6;
      }

      .cls-1, .cls-2 {
        stroke-width: 0px;
      }

      .cls-2 {
        fill: #ffe36c;
      }
    </style>
  </defs>
  <g id="Portraits">
    <g id="N">
      <g id="Tiles">
        <g id="N-16">
          <path class="cls-1" d="m137.45,0H27.07C12.12,0,0,12.12,0,27.07v110.38c0,2.68.39,5.26,1.12,7.7.42.17.85.34,1.27.52,19.73,8.09,60.27,12.72,102.33,18.85h32.74c14.95,0,27.07-12.12,27.07-27.07V27.07c0-14.95-12.12-27.07-27.07-27.07Z"/>
          <path class="cls-2" d="m1.12,145.15c3.32,11.2,13.68,19.37,25.95,19.37h77.64c-42.06-6.13-82.6-10.76-102.33-18.85-.42-.17-.84-.34-1.27-.52Z"/>
        </g>
      </g>
    </g>
  </g>
</svg>