<?xml version="1.0" encoding="UTF-8"?>
<svg id="Layer_2" data-name="Layer 2" xmlns="http://www.w3.org/2000/svg" viewBox="0 0 164.23 164.52">
  <defs>
    <style>
      .cls-1 {
        fill: #5c69c6;
      }

      .cls-1, .cls-2, .cls-3 {
        stroke-width: 0px;
      }

      .cls-2 {
        fill: #b58a68;
      }

      .cls-3 {
        fill: #6b491b;
      }
    </style>
  </defs>
  <g id="Portraits">
    <g id="N">
      <g id="Tiles">
        <g id="N-5">
          <path class="cls-1" d="m26.78,0C13.17,0,1.91,10.05,0,23.13v118.25c1.91,13.08,13.17,23.13,26.78,23.13h110.38c10.23,0,19.14-5.68,23.74-14.06-1.41-9.45-2.78-20.23-4.06-32.51-2.49-23.74-1.78-44.86,1.28-63.65-.9,0-1.8-.1-2.71-.31-7.51-1.75-13.83-10.75-14.07-18.53-.29-9.34,8.34-11.91,10.82-26.16.35-2.02.4-3.24.34-4.52-4.36-3.01-9.65-4.78-15.35-4.78H26.78Z"/>
          <path class="cls-2" d="m156.84,117.95c1.29,12.28,2.65,23.05,4.06,32.51,2.12-3.86,3.33-8.29,3.33-13.01V52.97c-1.99.84-4.03,1.34-6.11,1.33-3.07,18.79-3.77,39.91-1.28,63.65Z"/>
          <path class="cls-3" d="m152.17,9.3c-2.48,14.25-11.11,16.82-10.82,26.16.24,7.78,6.56,16.78,14.07,18.53.91.21,1.81.31,2.71.31,2.08.01,4.12-.49,6.11-1.33v-25.9c0-9.25-4.64-17.41-11.72-22.29.06,1.28.01,2.51-.34,4.52Z"/>
        </g>
      </g>
    </g>
  </g>
</svg>