<?xml version="1.0" encoding="UTF-8"?>
<svg id="Layer_2" data-name="Layer 2" xmlns="http://www.w3.org/2000/svg" viewBox="0 0 164.52 164.52">
  <defs>
    <style>
      .cls-1 {
        fill: #5c69c6;
      }

      .cls-1, .cls-2, .cls-3 {
        stroke-width: 0px;
      }

      .cls-2 {
        fill: #b58a68;
      }

      .cls-3 {
        fill: #6b491b;
      }
    </style>
  </defs>
  <g id="Portraits">
    <g id="N">
      <g id="Tiles">
        <g id="N-2">
          <path class="cls-1" d="m137.45,0H27.07C12.12,0,0,12.12,0,27.07v110.38c0,14.95,12.12,27.07,27.07,27.07h6.28c2.02-7.15,6.39-13.51,17.03-16.46,24.6-6.83,27.16,18.52,35.92,15.63.38-.18.75-.35,1.12-.52,3.49-2.04,2.39-6.32,6.25-15.11,5.46-12.44,18.01-26.41,28.14-26.16,21.1.51,11.57,20.89,22.73,21.8,1.66.14,5.14.71,14.07-7.63,2.45-2.28,4.23-5.08,5.89-7.94V27.07c0-14.95-12.12-27.07-27.07-27.07Z"/>
          <path class="cls-2" d="m87.43,163.17c-.37.17-.74.34-1.12.52.29-.09.58-.22.88-.37.09-.05.16-.1.24-.15Z"/>
          <path class="cls-3" d="m158.63,136.06c-8.93,8.34-12.42,7.77-14.07,7.63-11.16-.91-1.63-21.29-22.73-21.8-10.13-.25-22.68,13.72-28.14,26.16-3.86,8.79-2.77,13.08-6.25,15.11-.08.05-.15.1-.24.15-.3.16-.59.28-.88.37-8.76,2.88-11.32-22.46-35.92-15.63-10.65,2.96-15.02,9.32-17.03,16.46h104.1c14.95,0,27.07-12.12,27.07-27.07v-9.32c-1.66,2.86-3.44,5.65-5.89,7.94Z"/>
        </g>
      </g>
    </g>
  </g>
</svg>