<?xml version="1.0" encoding="UTF-8"?>
<svg id="Layer_2" data-name="Layer 2" xmlns="http://www.w3.org/2000/svg" viewBox="0 0 164.52 164.52">
  <defs>
    <style>
      .cls-1 {
        fill: #5c69c6;
      }

      .cls-1, .cls-2, .cls-3, .cls-4 {
        stroke-width: 0px;
      }

      .cls-2 {
        fill: #b58a68;
      }

      .cls-3 {
        fill: #6b491b;
      }

      .cls-4 {
        fill: #f0ccad;
      }
    </style>
  </defs>
  <g id="Portraits">
    <g id="N">
      <g id="Tiles">
        <g id="N-6">
          <path class="cls-1" d="m0,27.07v1.95c12.23-2.25,22.24,12.82,28.74,6.22,3.51-3.56.78-7.72,2.16-18.53.66-5.1.72-11.08,2.01-16.7h-5.85C12.12,0,0,12.12,0,27.07Z"/>
          <path class="cls-4" d="m156.46,116.99c-4.51-9.12.17-18.76-2.16-19.62-3.2-1.18-8.31,18.22-25.98,30.52-4.26,2.97-16.11,11.21-27.06,7.63-9.24-3.02-9.92-11.88-16.24-11.99-9.4-.16-10.49,19.43-24.9,25.07-8.53,3.34-19.78,1.01-27.38-4.71-1.32,6.49-2.31,13.37-2.95,20.63h107.65c14.95,0,27.07-12.12,27.07-27.07v-11.65c-3.46-2.33-6.33-5.32-8.05-8.81Z"/>
          <path class="cls-2" d="m27.66,138.79c-8.31-11.58-.59-26.35-6.49-29.43-5.03-2.62-12.51,7.1-21.16,12.38v15.71c0,14.95,12.12,27.07,27.07,27.07h2.73c.64-7.26,1.63-14.14,2.95-20.63-1.98-1.49-3.72-3.19-5.09-5.1Z"/>
          <path class="cls-3" d="m28.74,35.23c-6.49,6.6-16.5-8.47-28.74-6.22v92.72c8.65-5.28,16.13-15.01,21.16-12.38,5.91,3.08-1.82,17.85,6.49,29.43,1.37,1.91,3.11,3.61,5.09,5.1,7.6,5.72,18.85,8.05,27.38,4.71,14.4-5.64,15.49-25.23,24.9-25.07,6.32.11,7,8.97,16.24,11.99,10.95,3.58,22.8-4.66,27.06-7.63,17.67-12.3,22.78-31.7,25.98-30.52,2.34.86-2.34,10.5,2.16,19.62,1.72,3.49,4.59,6.47,8.05,8.81V27.07c0-14.95-12.12-27.07-27.07-27.07H32.92c-1.29,5.63-1.36,11.6-2.01,16.7-1.39,10.81,1.34,14.97-2.16,18.53Z"/>
        </g>
      </g>
    </g>
  </g>
</svg>