<?xml version="1.0" encoding="UTF-8"?>
<svg id="Layer_2" data-name="Layer 2" xmlns="http://www.w3.org/2000/svg" viewBox="0 0 164.52 164.52">
  <defs>
    <style>
      .cls-1 {
        fill: #5c69c6;
      }

      .cls-1, .cls-2, .cls-3, .cls-4 {
        stroke-width: 0px;
      }

      .cls-2 {
        fill: #b27350;
      }

      .cls-3 {
        fill: #f2c097;
      }

      .cls-4 {
        fill: #f0ccad;
      }
    </style>
  </defs>
  <g id="Portraits">
    <g id="N">
      <g id="Tiles">
        <g id="N-14">
          <path class="cls-1" d="m27.07,164.52h60.37l2.86-16.92c.69-4.1,1.87-8,3.45-11.68-32.54-18.65-50.51-52.06-64.31-99.08h-4.73S10.68,34.56.44,22.23c-.28,1.57-.44,3.18-.44,4.84v110.38c0,14.95,12.12,27.07,27.07,27.07Z"/>
          <path class="cls-3" d="m90.29,147.6l-2.86,16.92h50.01c9.17,0,17.26-4.56,22.16-11.53-27.11-1.41-48.56-7.15-65.86-17.07-1.58,3.68-2.76,7.58-3.45,11.68Z"/>
          <path class="cls-3" d="m24.7,36.84h4.73c-3.29-11.21-6.35-23.19-9.3-35.94C10.07,3.56,2.31,11.87.44,22.23c10.24,12.33,24.26,14.61,24.26,14.61Z"/>
          <path class="cls-4" d="m145.62,19.76c2.75,4.55,9.09,7.16,18.9,7.82v-.51c0-11.71-7.43-21.67-17.83-25.45-2.65,6.58-3.98,13.34-1.07,18.14Z"/>
          <path class="cls-4" d="m93.75,135.92c17.31,9.92,38.75,15.66,65.86,17.07,3.09-4.4,4.91-9.75,4.91-15.54v-56.57c-32.68-1.68-49.42-13.28-50.18-13.82-.95-.67-1.17-1.99-.5-2.94.67-.95,1.99-1.17,2.94-.5.1.07,4.95,3.43,14.28,6.72,7.25,2.56,18.57,5.47,33.46,6.3V31.81c-11.54-.72-18.95-3.98-22.51-9.87-3.73-6.16-2.39-13.99.56-21.46-1.66-.32-3.37-.49-5.12-.49H27.07c-2.4,0-4.72.32-6.94.9,2.96,12.74,6.01,24.73,9.3,35.94,13.8,47.02,31.77,80.43,64.31,99.08Z"/>
          <path class="cls-2" d="m142.01,21.95c3.56,5.88,10.97,9.14,22.51,9.87v-4.23c-9.81-.66-16.15-3.27-18.9-7.82-2.91-4.8-1.58-11.57,1.07-18.14-1.33-.48-2.7-.86-4.12-1.13-2.95,7.47-4.29,15.3-.56,21.46Z"/>
          <path class="cls-2" d="m116.78,63.63c-.95-.67-2.26-.45-2.94.5-.67.95-.45,2.26.5,2.94.76.54,17.5,12.13,50.18,13.82v-4.24c-14.89-.82-26.21-3.74-33.46-6.3-9.33-3.29-14.17-6.65-14.28-6.72Z"/>
        </g>
      </g>
    </g>
  </g>
</svg>