<?xml version="1.0" encoding="UTF-8"?>
<svg id="Layer_2" data-name="Layer 2" xmlns="http://www.w3.org/2000/svg" viewBox="0 0 164.52 164.52">
  <defs>
    <style>
      .cls-1 {
        fill: #5c69c6;
      }

      .cls-1, .cls-2, .cls-3 {
        stroke-width: 0px;
      }

      .cls-2 {
        fill: #f2c097;
      }

      .cls-3 {
        fill: #ffe36c;
      }
    </style>
  </defs>
  <g id="Portraits">
    <g id="N">
      <g id="Tiles">
        <g id="N-17">
          <path class="cls-1" d="m87.15,0H27.07C12.12,0,0,12.12,0,27.07v23.85c39.35-15.68,82.92-25.94,82.93-25.94L87.15,0Z"/>
          <path class="cls-3" d="m27.07,164.52h110.38c14.95,0,27.07-12.12,27.07-27.07v-49.89h-31.76c-31.59,0-55.6-28.41-50.34-59.56l.51-3.01S39.35,35.25,0,50.92v86.53c0,14.95,12.12,27.07,27.07,27.07Z"/>
          <path class="cls-2" d="m82.42,27.99c-5.26,31.15,18.75,59.56,50.34,59.56h31.76V27.07c0-14.95-12.12-27.07-27.07-27.07h-50.3l-4.22,24.98-.51,3.01Z"/>
        </g>
      </g>
    </g>
  </g>
</svg>