<?xml version="1.0" encoding="UTF-8"?>
<svg id="Layer_2" data-name="Layer 2" xmlns="http://www.w3.org/2000/svg" viewBox="0 0 164.52 164.52">
  <defs>
    <style>
      .cls-1 {
        fill: #262260;
      }

      .cls-1, .cls-2, .cls-3 {
        stroke-width: 0px;
      }

      .cls-2 {
        fill: #ac5d43;
      }

      .cls-3 {
        fill: #ecac01;
      }
    </style>
  </defs>
  <g id="Portraits">
    <g id="J">
      <g id="Tiles">
        <g id="J-3">
          <path class="cls-3" d="m137.45,0H27.07C12.12,0,0,12.12,0,27.07v101.29c2.14.02,4.29.07,6.44.18,18.34-.94,36.91,1.91,46.41,2.73,15.24,1.32,44.92,8.87,75.84,33.25h8.76c14.95,0,27.07-12.12,27.07-27.07V27.07c0-14.95-12.12-27.07-27.07-27.07Z"/>
          <path class="cls-1" d="m4.67,149.65c.59,0,1.18.01,1.76.02v-21.13c-2.15-.11-4.3-.16-6.44-.18v9.09c0,4.4,1.06,8.55,2.92,12.22.58-.01,1.17-.02,1.75-.02Z"/>
          <path class="cls-2" d="m6.44,149.67c-.59,0-1.17-.02-1.76-.02s-1.17.01-1.75.02c.97,1.9,2.15,3.68,3.52,5.29v-5.29Z"/>
          <path class="cls-1" d="m6.44,128.54v26.42c4.97,5.84,12.36,9.56,20.63,9.56h101.62c-30.92-24.38-60.6-31.93-75.84-33.25-9.49-.82-28.07-3.67-46.41-2.73Z"/>
        </g>
      </g>
    </g>
  </g>
</svg>