<?xml version="1.0" encoding="UTF-8"?>
<svg id="Layer_2" data-name="Layer 2" xmlns="http://www.w3.org/2000/svg" viewBox="0 0 164.52 164.52">
  <defs>
    <style>
      .cls-1 {
        fill: #262260;
      }

      .cls-1, .cls-2, .cls-3 {
        stroke-width: 0px;
      }

      .cls-2 {
        fill: #ac5d43;
      }

      .cls-3 {
        fill: #ecac01;
      }
    </style>
  </defs>
  <g id="Portraits">
    <g id="J">
      <g id="Tiles">
        <g id="J-7">
          <path class="cls-3" d="m137.45,0h-6.63c11.32,9.2,22.77,20.67,33.7,34.94v-7.87c0-14.95-12.12-27.07-27.07-27.07Z"/>
          <path class="cls-2" d="m0,107.92v29.53c0,2.59.37,5.1,1.05,7.48l.19-37.46c-.4.15-.81.3-1.24.45Z"/>
          <path class="cls-1" d="m1.68,17.66c-1.09,2.93-1.68,6.1-1.68,9.41v80.85c.43-.16.84-.31,1.24-.45l.44-89.81Z"/>
          <path class="cls-2" d="m6.44,105.68V9.56c-2.02,2.38-3.65,5.12-4.75,8.1l-.44,89.81-.19,37.46c3.25,11.31,13.66,19.59,26.02,19.59h99.66c-7.67-5.98-16.45-11.59-26.56-16.64C42.16,118.93,16.92,109.05,6.44,105.68Z"/>
          <path class="cls-1" d="m130.82,0H27.07C18.8,0,11.4,3.71,6.44,9.56v96.12c10.48,3.37,35.72,13.25,93.74,42.2,10.1,5.04,18.89,10.66,26.56,16.64h10.71c14.95,0,27.07-12.12,27.07-27.07V34.94c-10.93-14.28-22.37-25.75-33.7-34.94Z"/>
        </g>
      </g>
    </g>
  </g>
</svg>