<?xml version="1.0" encoding="UTF-8"?>
<svg id="Layer_2" data-name="Layer 2" xmlns="http://www.w3.org/2000/svg" viewBox="0 0 164.52 164.52">
  <defs>
    <style>
      .cls-1 {
        fill: #262260;
      }

      .cls-1, .cls-2, .cls-3, .cls-4 {
        stroke-width: 0px;
      }

      .cls-2 {
        fill: #893e28;
      }

      .cls-3 {
        fill: #1a1a1a;
      }

      .cls-4 {
        fill: #ac5d43;
      }
    </style>
  </defs>
  <g id="Portraits">
    <g id="J">
      <g id="Tiles">
        <g id="J-11">
          <path class="cls-4" d="m0,127.13v10.32c0,1.23.09,2.44.25,3.63l.07-14.14c-.11.06-.21.13-.32.19Z"/>
          <path class="cls-4" d="m.85,20.32c-.55,2.16-.85,4.42-.85,6.75v96.78c.12.04.23.08.33.14L.85,20.32Z"/>
          <path class="cls-4" d="m128.9,0H27.07C14.45,0,3.85,8.64.85,20.32L.33,123.99c.26.14.49.35.65.63.46.81.18,1.84-.63,2.3-.01,0-.02.01-.03.02l-.07,14.14c1.78,13.23,13.1,23.44,26.82,23.44h110.38c14.95,0,27.07-12.12,27.07-27.07V44.86c-7.31-15.23-18.51-30.97-35.61-44.86Zm-52.15,65.15c-8.41.71-15.33,3.22-20.05,5.51-1.05.51-2.31.07-2.82-.98-.51-1.05-.07-2.31.98-2.82,6.6-3.19,17.18-6.82,30.14-6.01,19.73,1.23,33.17,11.77,39.43,17.95.83.82.84,2.15.02,2.98-.41.42-.96.63-1.5.63-.54,0-1.07-.2-1.48-.61-3.72-3.68-12.66-11.3-25.69-14.89,2.03,2.17,3.42,4.97,3.78,8.15.91,7.89-4.74,15.02-12.63,15.93-7.89.91-15.02-4.74-15.93-12.63-.61-5.3,1.75-10.25,5.75-13.21Zm64.13-20.89c-.82,1.19-2.13,1.82-3.47,1.82-.83,0-1.66-.24-2.39-.75-9.67-6.67-25.65-14.91-46.87-16.3-21.37-1.41-38.39,4.76-48.9,10.19-2.07,1.07-4.61.26-5.68-1.81-1.07-2.07-.26-4.61,1.81-5.68,11.46-5.91,30-12.64,53.32-11.11,23.14,1.52,40.56,10.5,51.1,17.77,1.92,1.32,2.4,3.95,1.08,5.86Z"/>
          <path class="cls-1" d="m137.45,0h-8.54c17.1,13.89,28.31,29.63,35.61,44.86v-17.79c0-14.95-12.12-27.07-27.07-27.07Z"/>
          <path class="cls-3" d="m95.78,66.9c13.03,3.59,21.96,11.21,25.69,14.89.41.41.95.61,1.48.61.54,0,1.09-.21,1.5-.63.82-.83.81-2.16-.02-2.98-6.26-6.18-19.7-16.72-39.43-17.95-12.96-.8-23.54,2.83-30.14,6.01-1.05.51-1.49,1.77-.98,2.82.51,1.05,1.76,1.49,2.82.98,4.72-2.28,11.64-4.8,20.05-5.51,1.95-1.45,4.29-2.42,6.88-2.72,4.71-.55,9.14,1.26,12.15,4.48Z"/>
          <path class="cls-3" d="m86.94,90.98c7.89-.91,13.54-8.05,12.63-15.93-.37-3.18-1.76-5.98-3.78-8.15-3.01-3.22-7.44-5.03-12.15-4.48-2.59.3-4.93,1.28-6.88,2.72-4,2.96-6.36,7.91-5.75,13.21.91,7.89,8.05,13.54,15.93,12.63Z"/>
          <path class="cls-2" d="m.35,126.92c.81-.46,1.09-1.49.63-2.3-.16-.28-.39-.49-.65-.63-.11-.06-.22-.11-.33-.14v3.29c.11-.06.21-.13.32-.19.01,0,.02-.01.03-.02Z"/>
          <path class="cls-1" d="m88.71,20.62c-23.32-1.53-41.86,5.2-53.32,11.11-2.07,1.07-2.88,3.61-1.81,5.68,1.07,2.07,3.61,2.88,5.68,1.81,10.51-5.42,27.53-11.6,48.9-10.19,21.22,1.39,37.2,9.63,46.87,16.3.73.5,1.56.75,2.39.75,1.34,0,2.66-.64,3.47-1.82,1.32-1.92.84-4.54-1.08-5.86-10.54-7.27-27.96-16.25-51.1-17.77Z"/>
        </g>
      </g>
    </g>
  </g>
</svg>