<?xml version="1.0" encoding="UTF-8"?>
<svg id="Layer_2" data-name="Layer 2" xmlns="http://www.w3.org/2000/svg" viewBox="0 0 164.52 164.52">
  <defs>
    <style>
      .cls-1 {
        fill: #893e28;
      }

      .cls-1, .cls-2, .cls-3, .cls-4, .cls-5 {
        stroke-width: 0px;
      }

      .cls-2 {
        fill: #15153f;
      }

      .cls-3 {
        fill: #ac5d43;
      }

      .cls-4 {
        fill: #9895da;
      }

      .cls-5 {
        fill: #ecac01;
      }
    </style>
  </defs>
  <g id="Portraits">
    <g id="J">
      <g id="Tiles">
        <g id="J-15">
          <path class="cls-5" d="m94.75,140.82c3.42.26,23.14,1.79,49.91,4.31-5.15-13-17.5-17.76-27.31-26.66-7.32,5.73-15.26,10.67-23.9,14.84.35,2.59.78,5.1,1.3,7.52Z"/>
          <path class="cls-1" d="m94.75,140.82c-.52-2.42-.95-4.93-1.3-7.52-23.77,11.47-52.81,17.06-88.78,17.06-.29,0-.8,0-1.4,0,4.59,8.43,13.52,14.16,23.8,14.16h70.26c-1.11-14.27-3.11-23.73-3.11-23.73,0,0,.18.01.53.04Z"/>
          <path class="cls-4" d="m145.71,148.24c-.3-1.09-.67-2.12-1.06-3.11-26.76-2.52-46.49-4.05-49.91-4.31-.35-.03-.53-.04-.53-.04,0,0,2,9.47,3.11,23.73h40.12c2.87,0,5.64-.45,8.24-1.28,1.3-4.29,1.72-8.93.03-15Z"/>
          <path class="cls-2" d="m164.52,137.45V54.99c-12.31,27.03-27.53,48.1-47.17,63.48,9.81,8.91,22.16,13.67,27.31,26.66.39.99.75,2.01,1.06,3.11,1.69,6.07,1.28,10.71-.03,15,10.92-3.49,18.83-13.71,18.83-25.79Z"/>
          <path class="cls-3" d="m4.67,150.37c35.97,0,65-5.59,88.78-17.06,8.63-4.17,16.57-9.11,23.9-14.84,19.65-15.38,34.86-36.44,47.17-63.48v-27.92c0-14.95-12.12-27.07-27.07-27.07H27.07C12.12,0,0,12.12,0,27.07v38.79c19.19-.06,40.98-4.23,61.75-17.37.98-.62,2.29-.33,2.91.65s.33,2.29-.65,2.91c-21.55,13.63-44.13,17.95-64,18v67.39c0,4.68,1.19,9.07,3.27,12.91.6,0,1.11,0,1.4,0Z"/>
          <path class="cls-1" d="m64,52.05c.98-.62,1.28-1.92.65-2.91s-1.93-1.28-2.91-.65c-20.77,13.14-42.55,17.32-61.75,17.37v4.19c19.87-.05,42.45-4.37,64-18Z"/>
        </g>
      </g>
    </g>
  </g>
</svg>