<?xml version="1.0" encoding="UTF-8"?>
<svg id="Layer_2" data-name="Layer 2" xmlns="http://www.w3.org/2000/svg" viewBox="0 0 164.52 164.52">
  <defs>
    <style>
      .cls-1 {
        fill: #893e28;
      }

      .cls-1, .cls-2, .cls-3 {
        stroke-width: 0px;
      }

      .cls-2 {
        fill: #15153f;
      }

      .cls-3 {
        fill: #9895da;
      }
    </style>
  </defs>
  <g id="Portraits">
    <g id="J">
      <g id="Tiles">
        <g id="J-18">
          <path class="cls-1" d="m1.81,17.33c-1.17,3.02-1.81,6.3-1.81,9.74v108.87c.94.34,1.69.61,2.3.83l-.49-119.43Z"/>
          <path class="cls-3" d="m2.52,146.1h-.18s-.02-5-.02-5l-.14-3.44s0,0,.12-.04v-.85c-.61-.22-1.37-.49-2.3-.83v1.51c0,4.18.95,8.14,2.64,11.67l-.12-3.02Z"/>
          <polygon class="cls-1" points="2.52 146.1 2.32 141.09 2.34 146.09 2.52 146.1"/>
          <path class="cls-1" d="m2.3,137.61c.69-.25,5.34-1.92,36.51-13.15C96.23,103.78,100.08,37.08,97.46,0H27.07C15.55,0,5.72,7.2,1.81,17.33l.49,119.43v.85Z"/>
          <path class="cls-3" d="m157.63,78.91c-3.64-18.42-18.98-28.87-20.6-45.79-1.54-16.02,3.85-24.1,7.24-32.25-2.18-.57-4.47-.87-6.83-.87h-39.99c2.62,37.08-1.23,103.78-58.65,124.46-31.16,11.22-35.81,12.9-36.51,13.15-.12.04-.12.04-.12.04l.14,3.44.2,5,.12,3.02c4.36,9.11,13.66,15.4,24.43,15.4h110.38c14.95,0,27.07-12.12,27.07-27.07v-2.78c-9.92-.23-18.62-.39-24.77-.39-18.25,0,23.96-24.56,17.88-55.37Z"/>
          <path class="cls-2" d="m144.28.87c-3.39,8.15-8.78,16.23-7.24,32.25,1.62,16.92,16.96,27.36,20.6,45.79,6.08,30.82-36.13,55.37-17.88,55.37,6.14,0,14.84.16,24.77.39V27.07c0-12.59-8.6-23.17-20.24-26.2Z"/>
        </g>
      </g>
    </g>
  </g>
</svg>