<?xml version="1.0" encoding="UTF-8"?>
<svg id="Layer_2" data-name="Layer 2" xmlns="http://www.w3.org/2000/svg" viewBox="0 0 164.52 164.52">
  <defs>
    <style>
      .cls-1 {
        fill: #262260;
      }

      .cls-1, .cls-2 {
        stroke-width: 0px;
      }

      .cls-2 {
        fill: #ecac01;
      }
    </style>
  </defs>
  <g id="Portraits">
    <g id="J">
      <g id="Tiles">
        <g id="J-8">
          <path class="cls-2" d="m137.45,0H27.07c-2.38,0-4.69.31-6.9.89,10.6,20.69,19.99,45.18,27.31,74.17,10.45,41.32,12.25,69.84,9.37,89.46h80.59c14.95,0,27.07-12.12,27.07-27.07V27.07c0-14.95-12.12-27.07-27.07-27.07Z"/>
          <path class="cls-1" d="m47.49,75.06C40.16,46.07,30.77,21.58,20.17.89,8.56,3.94,0,14.5,0,27.07v110.38c0,14.95,12.12,27.07,27.07,27.07h29.79c2.88-19.62,1.08-48.14-9.37-89.46Z"/>
        </g>
      </g>
    </g>
  </g>
</svg>