<?xml version="1.0" encoding="UTF-8"?>
<svg id="Layer_2" data-name="Layer 2" xmlns="http://www.w3.org/2000/svg" viewBox="0 0 164.52 164.52">
  <defs>
    <style>
      .cls-1 {
        fill: #262260;
      }

      .cls-1, .cls-2, .cls-3, .cls-4, .cls-5 {
        stroke-width: 0px;
      }

      .cls-2 {
        fill: #893e28;
      }

      .cls-3 {
        fill: #15153f;
      }

      .cls-4 {
        fill: #ac5d43;
      }

      .cls-5 {
        fill: #ecac01;
      }
    </style>
  </defs>
  <g id="Portraits">
    <g id="J">
      <g id="Tiles">
        <g id="J-12">
          <path class="cls-5" d="m137.45,0H56.59c-.89,5.41-2.15,10.11-3.69,14.2,22.33,72.82-30.32,81.35-30.32,81.35h-8.17c-3.18,11.4-6.59,22.12-10.28,32.15-2.15,6.99-3.99,14.24.11,24.27,4.81,7.54,13.23,12.54,22.83,12.54h110.38c14.95,0,27.07-12.12,27.07-27.07V27.07c0-14.95-12.12-27.07-27.07-27.07Z"/>
          <path class="cls-3" d="m4.12,127.71c-1.33,3.61-2.69,7.15-4.1,10.58.16,5.03,1.68,9.71,4.21,13.68-4.1-10.03-2.27-17.28-.11-24.27Z"/>
          <path class="cls-2" d="m27.31,39.37c-.39,2.31-.81,4.61-1.27,6.9-3.57,17.68-7.4,34.09-11.64,49.29h8.17s52.65-8.53,30.32-81.35c-6.06,16.12-16.42,22.69-25.59,25.16Z"/>
          <path class="cls-4" d="m14.4,95.56c4.24-15.2,8.08-31.62,11.64-49.29.46-2.29.88-4.59,1.27-6.9-10.03,2.7-18.64.5-18.64.5,0,0,1.6-12.88-1.42-31.23C2.76,13.47,0,19.95,0,27.07v110.38c0,.28.01.57.02.85,1.41-3.44,2.77-6.97,4.1-10.58,3.69-10.04,7.1-20.75,10.28-32.15Z"/>
          <path class="cls-1" d="m8.67,39.86s8.61,2.21,18.64-.5c9.17-2.47,19.53-9.05,25.59-25.16,1.54-4.09,2.8-8.8,3.69-14.2h-29.52c-7.83,0-14.87,3.33-19.81,8.63,3.02,18.35,1.42,31.23,1.42,31.23Z"/>
        </g>
      </g>
    </g>
  </g>
</svg>