<?xml version="1.0" encoding="UTF-8"?>
<svg id="Layer_2" data-name="Layer 2" xmlns="http://www.w3.org/2000/svg" viewBox="0 0 164.52 164.52">
  <defs>
    <style>
      .cls-1 {
        fill: #15153f;
      }

      .cls-1, .cls-2, .cls-3 {
        stroke-width: 0px;
      }

      .cls-2 {
        fill: #9895da;
      }

      .cls-3 {
        fill: #ecac01;
      }
    </style>
  </defs>
  <g id="Portraits">
    <g id="J">
      <g id="Tiles">
        <g id="J-16">
          <path class="cls-3" d="m137.45,0H27.07c-3.52,0-6.88.68-9.97,1.9,4.56,3.52,9.57,7.22,14.93,15.8,13.26,21.2-10.88,25.18-1.46,54.31.7,2.17,1.51,4.16,2.39,6.02,49.81,5.72,102.43,13.43,122.79,22.1,3.04,1.29,5.95,2.65,8.76,4.06V27.07c0-14.95-12.12-27.07-27.07-27.07Z"/>
          <path class="cls-2" d="m32.97,78.03c9.84,20.77,29.51,23.53,29.27,39.77-.25,17.59-10.03,31.82-12.98,46.71h88.19c14.95,0,27.07-12.12,27.07-27.07v-33.25c-2.81-1.41-5.73-2.77-8.76-4.06-20.35-8.67-72.97-16.38-122.79-22.1Z"/>
          <path class="cls-1" d="m62.24,117.8c.23-16.24-19.43-19-29.27-39.77-.88-1.86-1.69-3.85-2.39-6.02-9.42-29.13,14.72-33.11,1.46-54.31-5.37-8.58-10.37-12.28-14.93-15.8C7.09,5.87,0,15.64,0,27.07v110.38c0,14.95,12.12,27.07,27.07,27.07h22.19c2.95-14.9,12.73-29.12,12.98-46.71Z"/>
        </g>
      </g>
    </g>
  </g>
</svg>