<?xml version="1.0" encoding="UTF-8"?>
<svg id="Layer_2" data-name="Layer 2" xmlns="http://www.w3.org/2000/svg" viewBox="0 0 164.23 164.52">
  <defs>
    <style>
      .cls-1 {
        fill: #262260;
      }

      .cls-1, .cls-2 {
        stroke-width: 0px;
      }

      .cls-2 {
        fill: #ecac01;
      }
    </style>
  </defs>
  <g id="Portraits">
    <g id="J">
      <g id="Tiles">
        <g id="J-5">
          <path class="cls-2" d="m137.16,0H26.78C13.17,0,1.91,10.05,0,23.13v118.25c1.91,13.08,13.17,23.13,26.78,23.13h95.38c-2.41-19.53-.35-47.4,9.69-87.09,6.74-26.67,15.23-49.53,24.8-69.13-4.92-5.11-11.83-8.3-19.49-8.3Z"/>
          <path class="cls-1" d="m122.16,164.52h15c14.95,0,27.07-12.12,27.07-27.07V27.07c0-7.29-2.89-13.91-7.58-18.77-9.57,19.61-18.06,42.47-24.8,69.13-10.04,39.69-12.1,67.56-9.69,87.09Z"/>
        </g>
      </g>
    </g>
  </g>
</svg>