<?xml version="1.0" encoding="UTF-8"?>
<svg id="Layer_2" data-name="Layer 2" xmlns="http://www.w3.org/2000/svg" viewBox="0 0 164.23 164.52">
  <defs>
    <style>
      .cls-1 {
        fill: #262260;
      }

      .cls-1, .cls-2, .cls-3, .cls-4, .cls-5 {
        stroke-width: 0px;
      }

      .cls-2 {
        fill: #893e28;
      }

      .cls-3 {
        fill: #15153f;
      }

      .cls-4 {
        fill: #ac5d43;
      }

      .cls-5 {
        fill: #ecac01;
      }
    </style>
  </defs>
  <g id="Portraits">
    <g id="J">
      <g id="Tiles">
        <g id="J-9">
          <path class="cls-5" d="m0,23.13v118.25c1.91,13.08,13.17,23.13,26.78,23.13h110.38c14.95,0,27.07-12.12,27.07-27.07v-5.49c-2.39-8.21-5.88-15.75-1.62-26.57.46-1.17,1.01-2.35,1.62-3.54v-1.78h-4.87s-51.51-8.35-31.02-79.01c-2.66-5.55-4.75-12.46-5.95-21.05H26.78C13.17,0,1.91,10.05,0,23.13Z"/>
          <path class="cls-3" d="m164.23,131.96v-30.11c-.62,1.19-1.16,2.37-1.62,3.54-4.26,10.82-.77,18.36,1.62,26.57Z"/>
          <path class="cls-2" d="m151.96,41.72c-8.25-2.24-17.45-7.81-23.61-20.68-20.5,70.66,31.02,79.01,31.02,79.01h4.87v-3.46c-4-14.83-7.64-30.8-11.03-47.96-.45-2.29-.86-4.6-1.24-6.91Z"/>
          <path class="cls-4" d="m151.96,41.72c.38,2.32.79,4.62,1.24,6.91,3.39,17.16,7.02,33.13,11.03,47.96v-53.55c-3.32.14-7.65-.07-12.27-1.33Z"/>
          <path class="cls-1" d="m151.96,41.72c4.62,1.26,8.95,1.47,12.27,1.33v-15.98c0-14.95-12.12-27.07-27.07-27.07h-14.77c1.2,8.59,3.29,15.5,5.95,21.05,6.16,12.86,15.36,18.43,23.61,20.68Z"/>
        </g>
      </g>
    </g>
  </g>
</svg>