<?xml version="1.0" encoding="UTF-8"?>
<svg id="Layer_2" data-name="Layer 2" xmlns="http://www.w3.org/2000/svg" viewBox="0 0 164.23 164.52">
  <defs>
    <style>
      .cls-1 {
        fill: #15153f;
      }

      .cls-1, .cls-2, .cls-3 {
        stroke-width: 0px;
      }

      .cls-2 {
        fill: #9895da;
      }

      .cls-3 {
        fill: #ecac01;
      }
    </style>
  </defs>
  <g id="Portraits">
    <g id="J">
      <g id="Tiles">
        <g id="J-13">
          <path class="cls-3" d="m0,23.13v88.32c5.4-3.23,11.27-6.22,17.66-8.94,19.54-8.33,68.85-15.77,116.84-21.41,1.01-2.05,1.93-4.27,2.71-6.71,9.42-29.13-14.72-33.11-1.46-54.31,5.56-8.89,10.73-12.54,15.42-16.18-4.09-2.48-8.88-3.91-14.01-3.91H26.78C13.17,0,1.91,10.05,0,23.13Z"/>
          <path class="cls-2" d="m105.55,120.18c-.23-16.06,19.01-18.93,28.95-39.08-48,5.64-97.3,13.09-116.84,21.41-6.38,2.72-12.25,5.71-17.66,8.94v29.93c1.91,13.08,13.17,23.13,26.78,23.13h91.23c-3.44-14.05-12.22-27.68-12.46-44.34Z"/>
          <path class="cls-1" d="m135.76,20.08c-13.26,21.2,10.88,25.18,1.46,54.31-.79,2.44-1.7,4.66-2.71,6.71-9.94,20.15-29.18,23.02-28.95,39.08.24,16.66,9.02,30.29,12.46,44.34h19.15c14.95,0,27.07-12.12,27.07-27.07V27.07c0-9.82-5.23-18.42-13.06-23.17-4.69,3.64-9.86,7.29-15.42,16.18Z"/>
        </g>
      </g>
    </g>
  </g>
</svg>