<?xml version="1.0" encoding="UTF-8"?>
<svg id="Layer_2" data-name="Layer 2" xmlns="http://www.w3.org/2000/svg" viewBox="0 0 164.52 164.52">
  <defs>
    <style>
      .cls-1 {
        fill: #262260;
      }

      .cls-1, .cls-2, .cls-3 {
        stroke-width: 0px;
      }

      .cls-2 {
        fill: #ac5d43;
      }

      .cls-3 {
        fill: #ecac01;
      }
    </style>
  </defs>
  <g id="Portraits">
    <g id="J">
      <g id="Tiles">
        <g id="J-6">
          <path class="cls-3" d="m0,27.07v31.2C15.33,32.6,32.52,13.75,49.45,0h-22.38C12.12,0,0,12.12,0,27.07Z"/>
          <path class="cls-2" d="m53.53,164.52h83.91c14.95,0,27.07-12.12,27.07-27.07v-28.46c-13.94,5.35-39.24,16.33-84.4,38.86-10.12,5.05-18.91,10.67-26.59,16.66Z"/>
          <path class="cls-1" d="m0,58.27v79.18c0,14.95,12.12,27.07,27.07,27.07h26.46c7.67-5.99,16.47-11.61,26.59-16.66,45.16-22.54,70.46-33.51,84.4-38.86V27.07c0-14.95-12.12-27.07-27.07-27.07H49.45C32.52,13.75,15.33,32.6,0,58.27Z"/>
        </g>
      </g>
    </g>
  </g>
</svg>