<?xml version="1.0" encoding="UTF-8"?>
<svg id="Layer_2" data-name="Layer 2" xmlns="http://www.w3.org/2000/svg" viewBox="0 0 164.52 164.52">
  <defs>
    <style>
      .cls-1 {
        fill: #262260;
      }

      .cls-1, .cls-2, .cls-3, .cls-4 {
        stroke-width: 0px;
      }

      .cls-2 {
        fill: #893e28;
      }

      .cls-3 {
        fill: #1a1a1a;
      }

      .cls-4 {
        fill: #ac5d43;
      }
    </style>
  </defs>
  <g id="Portraits">
    <g id="J">
      <g id="Tiles">
        <g id="J-10">
          <path class="cls-4" d="m2.86,112.87s-1.06.27-2.86.51v24.07c0,14.95,12.12,27.07,27.07,27.07h110.38c3.6,0,7.03-.71,10.16-1.98-.12-.36-.25-.72-.35-1.1-2.85-10.33.06-25.9,17.25-36.53V27.07c0-14.95-12.12-27.07-27.07-27.07H51.36C-5.46,46.17,2.86,112.87,2.86,112.87Zm120.1-43.22c-.51,1.05-1.76,1.49-2.81.98-4.72-2.28-11.65-4.8-20.05-5.5,4,2.96,6.36,7.91,5.75,13.21-.91,7.89-8.05,13.54-15.93,12.63-7.89-.91-13.54-8.05-12.63-15.93.37-3.18,1.76-5.98,3.78-8.15-13.03,3.59-21.96,11.21-25.69,14.89-.41.41-.95.61-1.48.61-.54,0-1.09-.21-1.5-.63-.82-.83-.81-2.16.02-2.98,6.26-6.18,19.7-16.72,39.43-17.95,12.96-.81,23.54,2.83,30.14,6.01,1.05.51,1.49,1.77.98,2.81Zm16.63-37.94c2.07,1.07,2.88,3.61,1.81,5.68-1.07,2.07-3.61,2.88-5.68,1.81-10.51-5.42-27.53-11.59-48.9-10.19-21.22,1.39-37.2,9.63-46.87,16.3-.73.5-1.56.75-2.39.75-1.34,0-2.66-.64-3.47-1.82-1.32-1.92-.84-4.54,1.08-5.86,10.54-7.27,27.96-16.25,51.1-17.77,23.31-1.53,41.86,5.2,53.32,11.11Z"/>
          <path class="cls-4" d="m150.51,160.54c.05.18.11.34.16.52,8.26-4.64,13.84-13.47,13.84-23.61v-8.51c-14.03,9.58-16.44,22.77-14,31.61Z"/>
          <path class="cls-1" d="m0,27.07v86.3c1.8-.24,2.86-.51,2.86-.51,0,0-8.32-66.7,48.51-112.87h-24.29C12.12,0,0,12.12,0,27.07Z"/>
          <path class="cls-3" d="m121.98,66.83c-6.6-3.19-17.18-6.82-30.14-6.01-19.73,1.22-33.17,11.77-39.43,17.95-.83.82-.84,2.15-.02,2.98.41.42.96.63,1.5.63.54,0,1.07-.2,1.48-.61,3.73-3.68,12.66-11.3,25.69-14.89,3.01-3.22,7.44-5.03,12.15-4.48,2.59.3,4.93,1.28,6.88,2.72,8.41.71,15.33,3.22,20.05,5.5,1.05.51,2.31.07,2.81-.98s.07-2.31-.98-2.81Z"/>
          <path class="cls-3" d="m81.06,66.88c-2.03,2.17-3.42,4.97-3.78,8.15-.91,7.89,4.74,15.02,12.63,15.93,7.89.91,15.02-4.74,15.93-12.63.61-5.3-1.75-10.25-5.75-13.21-1.95-1.45-4.29-2.42-6.88-2.72-4.71-.55-9.14,1.26-12.15,4.48Z"/>
          <path class="cls-2" d="m147.26,161.44c.1.37.23.73.35,1.1,1.06-.43,2.08-.92,3.07-1.48-.05-.17-.12-.34-.16-.52-2.43-8.83-.03-22.02,14-31.61v-4.02c-17.19,10.63-20.1,26.19-17.25,36.53Z"/>
          <path class="cls-1" d="m34.09,44.24c.82,1.19,2.13,1.82,3.47,1.82.83,0,1.66-.24,2.39-.75,9.67-6.67,25.65-14.91,46.87-16.3,21.38-1.4,38.39,4.76,48.9,10.19,2.07,1.07,4.61.26,5.68-1.81,1.07-2.07.26-4.61-1.81-5.68-11.46-5.91-30.01-12.63-53.32-11.11-23.14,1.52-40.56,10.5-51.1,17.77-1.92,1.32-2.4,3.95-1.08,5.86Z"/>
        </g>
      </g>
    </g>
  </g>
</svg>