<?xml version="1.0" encoding="UTF-8"?>
<svg id="Layer_2" data-name="Layer 2" xmlns="http://www.w3.org/2000/svg" viewBox="0 0 164.52 164.52">
  <defs>
    <style>
      .cls-1 {
        fill: #893e28;
      }

      .cls-1, .cls-2, .cls-3, .cls-4, .cls-5 {
        stroke-width: 0px;
      }

      .cls-2 {
        fill: #15153f;
      }

      .cls-3 {
        fill: #ac5d43;
      }

      .cls-4 {
        fill: #9895da;
      }

      .cls-5 {
        fill: #ecac01;
      }
    </style>
  </defs>
  <g id="Portraits">
    <g id="J">
      <g id="Tiles">
        <g id="J-14">
          <path class="cls-5" d="m81.14,131.52c-9.25-4.9-17.66-10.77-25.34-17.64-10.26,12.33-26.14,16.28-31.92,31.78,29.7-2.85,52.08-4.58,55.74-4.86.64-2.97,1.14-6.07,1.52-9.28Z"/>
          <path class="cls-1" d="m79.63,140.8c.35-.03.53-.04.53-.04,0,0-2.01,9.48-3.11,23.76h60.41c10.35,0,19.34-5.81,23.89-14.34-32.27-1.04-58.53-7.18-80.2-18.66-.38,3.21-.88,6.32-1.52,9.28Z"/>
          <path class="cls-4" d="m79.63,140.8c-3.66.28-26.04,2.01-55.74,4.86-.31.82-.59,1.66-.84,2.55-1.83,6.57-1.19,11.46.37,16.05,1.2.16,2.42.25,3.66.25h49.97c1.11-14.28,3.11-23.76,3.11-23.76,0,0-.18.01-.53.04Z"/>
          <path class="cls-2" d="m23.41,164.26c-1.56-4.59-2.2-9.48-.37-16.05.25-.89.54-1.73.84-2.55,5.79-15.5,21.66-19.45,31.92-31.78C31.54,92.17,14.57,60.53,1.45,18.34c-.93,2.74-1.45,5.68-1.45,8.73v110.38c0,13.71,10.19,25.03,23.41,26.82Z"/>
          <path class="cls-3" d="m55.81,113.88c7.68,6.87,16.09,12.74,25.34,17.64,21.66,11.48,47.93,17.62,80.2,18.66,2.03-3.79,3.18-8.13,3.18-12.73v-67.44c-31.07-.57-54.87-11.25-56.49-11.99-1.06-.49-1.52-1.74-1.03-2.8.49-1.06,1.73-1.52,2.8-1.03,1.57.72,24.65,11.07,54.73,11.63V27.07c0-6.79-2.5-12.98-6.63-17.74-2.31-1.36-4.36-3.1-6.07-5.2-4.17-2.62-9.09-4.13-14.37-4.13H27.07C15.18,0,5.08,7.67,1.45,18.34c13.12,42.19,30.09,73.84,54.36,95.54Z"/>
          <path class="cls-1" d="m106.99,55.22c-.49,1.06-.02,2.31,1.03,2.8,1.62.75,25.43,11.43,56.49,11.99v-4.19c-30.08-.56-53.16-10.91-54.73-11.63-1.06-.49-2.31-.02-2.8,1.03Z"/>
          <path class="cls-1" d="m157.89,9.33c-1.75-2.02-3.8-3.77-6.07-5.2,1.71,2.1,3.76,3.84,6.07,5.2Z"/>
        </g>
      </g>
    </g>
  </g>
</svg>