<?xml version="1.0" encoding="UTF-8"?>
<svg id="Layer_2" data-name="Layer 2" xmlns="http://www.w3.org/2000/svg" viewBox="0 0 164.52 164.52">
  <defs>
    <style>
      .cls-1 {
        fill: #893e28;
      }

      .cls-1, .cls-2, .cls-3 {
        stroke-width: 0px;
      }

      .cls-2 {
        fill: #15153f;
      }

      .cls-3 {
        fill: #9895da;
      }
    </style>
  </defs>
  <g id="Portraits">
    <g id="J">
      <g id="Tiles">
        <g id="J-17">
          <path class="cls-1" d="m135.57,124.44c14.87,5.36,23.7,8.54,28.95,10.43V27.07c0-14.95-12.12-27.07-27.07-27.07h-60.53c-2.62,37.08,1.24,103.76,58.65,124.44Z"/>
          <path class="cls-3" d="m31.72,33.09c-1.62,16.92-16.96,27.36-20.6,45.79-6.08,30.82,36.13,55.37,17.88,55.37-7,0-17.32.2-29,.49v2.71c0,14.95,12.12,27.07,27.07,27.07h110.38c14.95,0,27.07-12.12,27.07-27.07v-2.58c-5.25-1.89-14.08-5.07-28.95-10.43C78.16,103.76,74.3,37.08,76.92,0H27.07c-.97,0-1.93.05-2.87.15,3.36,8.39,9.11,16.47,7.52,32.94Z"/>
          <path class="cls-2" d="m0,134.74c11.68-.28,21.99-.49,29-.49,18.25,0-23.96-24.56-17.88-55.37,3.64-18.42,18.98-28.87,20.6-45.79,1.58-16.47-4.16-24.55-7.52-32.94C10.6,1.59,0,13.09,0,27.07v107.67Z"/>
        </g>
      </g>
    </g>
  </g>
</svg>