<?xml version="1.0" encoding="UTF-8"?>
<svg id="Layer_2" data-name="Layer 2" xmlns="http://www.w3.org/2000/svg" viewBox="0 0 164.23 164.52">
  <defs>
    <style>
      .cls-1 {
        fill: #ede27a;
      }

      .cls-1, .cls-2, .cls-3 {
        stroke-width: 0px;
      }

      .cls-2 {
        fill: #fff8a4;
      }

      .cls-3 {
        fill: #fe7879;
      }
    </style>
  </defs>
  <g id="Portraits">
    <g id="B">
      <g id="Tiles">
        <g id="B-1">
          <path class="cls-3" d="m26.78,0C13.17,0,1.91,10.05,0,23.13v118.25c1.91,13.08,13.17,23.13,26.78,23.13h60.66c-.34-4.51.51-8.42.89-10.27,3.09-15.03-17.07-19.95-17.72-30.59-.89-14.6,22-29.14,22-29.14-5.76-19.93-6.75-41.43,3.11-51.29,14.85-14.85,32.03-14.38,35.15-14.16-.19-2.7-.56-15.85,8.88-28.95-.85-.08-1.71-.13-2.58-.13H26.78Z"/>
          <path class="cls-1" d="m130.87,29.08c-3.13-.22-20.3-.7-35.15,14.16-9.86,9.86-8.86,31.36-3.11,51.29,0,0-22.89,14.54-22,29.14.65,10.64,20.82,15.57,17.72,30.59-.38,1.85-1.23,5.76-.89,10.27h49.72c.31,0,.62-.01.93-.02,5.13-16.17,15.5-31.16,26.14-44.06V27.07c0-14.08-10.75-25.64-24.49-26.94-9.44,13.1-9.07,26.25-8.88,28.95Z"/>
          <path class="cls-2" d="m164.23,137.45v-17.01c-10.64,12.9-21,27.89-26.14,44.06,14.52-.49,26.14-12.41,26.14-27.05Z"/>
        </g>
      </g>
    </g>
  </g>
</svg>