<?xml version="1.0" encoding="UTF-8"?>
<svg id="Layer_2" data-name="Layer 2" xmlns="http://www.w3.org/2000/svg" viewBox="0 0 164.52 164.52">
  <defs>
    <style>
      .cls-1 {
        fill: #ede27a;
      }

      .cls-1, .cls-2, .cls-3 {
        stroke-width: 0px;
      }

      .cls-2 {
        fill: #fff8a4;
      }

      .cls-3 {
        fill: #fe7879;
      }
    </style>
  </defs>
  <g id="Portraits">
    <g id="B">
      <g id="Tiles">
        <g id="B-3">
          <path class="cls-3" d="m137.45,0H27.07C12.12,0,0,12.12,0,27.07v86.93c4.99-5.48,12.44-8.64,20.46-7.77.81.09,1.61.18,2.4.27,0-2.56.03-5.23.13-8.01,1.12-31.59,16.67-18.95,28.4-32.76,8.52-10.02,21.24-7.2,25.09-6.41,15.03,3.09,19.95-17.07,30.59-17.72,14.6-.89,29.14,22,29.14,22,9.56-2.76,19.47-4.42,28.3-4.32V27.07c0-14.95-12.12-27.07-27.07-27.07Z"/>
          <path class="cls-1" d="m136.22,63.6s-14.54-22.89-29.14-22c-10.64.65-15.57,20.82-30.59,17.72-3.85-.79-16.58-3.62-25.09,6.41-11.73,13.81-27.28,1.17-28.4,32.76-.1,2.78-.14,5.44-.13,8.01,6.49.75,12.07,1.61,16.03,2.02,17.5,1.83,66.49,12.68,105.54,55.09,11.57-3.08,20.09-13.62,20.09-26.16V59.28c-8.82-.1-18.74,1.56-28.3,4.32Z"/>
          <path class="cls-2" d="m38.89,108.52c-3.96-.41-9.54-1.27-16.03-2.02-.79-.09-1.58-.18-2.4-.27-8.03-.86-15.47,2.3-20.46,7.77v23.44c0,14.95,12.12,27.07,27.07,27.07h110.38c2.41,0,4.75-.32,6.98-.91-39.05-42.41-88.04-53.25-105.54-55.09Z"/>
        </g>
      </g>
    </g>
  </g>
</svg>