<?xml version="1.0" encoding="UTF-8"?>
<svg id="Layer_2" data-name="Layer 2" xmlns="http://www.w3.org/2000/svg" viewBox="0 0 164.52 164.52">
  <defs>
    <style>
      .cls-1 {
        fill: #ede27a;
      }

      .cls-1, .cls-2, .cls-3 {
        stroke-width: 0px;
      }

      .cls-2 {
        fill: #fff8a4;
      }

      .cls-3 {
        fill: #ffd79c;
      }
    </style>
  </defs>
  <g id="Portraits">
    <g id="B">
      <g id="Tiles">
        <g id="B-7">
          <path class="cls-1" d="m149.15,2.65c4.78,5.52,9.9,11.83,14.78,18.81-1.75-8.32-7.32-15.22-14.78-18.81Z"/>
          <path class="cls-3" d="m45.03,114.72c-28.56-.47-40.26-6.13-45.03-17.73v40.46c0,14.95,12.12,27.07,27.07,27.07h106c-13.1-27.58-37.56-48.97-88.05-49.8Z"/>
          <path class="cls-2" d="m27.07,0C12.12,0,0,12.12,0,27.07v69.92c4.77,11.59,16.47,17.26,45.03,17.73,50.49.83,74.94,22.22,88.05,49.8h4.37c14.95,0,27.07-12.12,27.07-27.07V27.07c0-1.92-.2-3.8-.58-5.61-4.88-6.98-10-13.29-14.78-18.81-3.54-1.7-7.51-2.65-11.7-2.65H27.07Z"/>
        </g>
      </g>
    </g>
  </g>
</svg>