<?xml version="1.0" encoding="UTF-8"?>
<svg id="Layer_2" data-name="Layer 2" xmlns="http://www.w3.org/2000/svg" viewBox="0 0 164.52 164.52">
  <defs>
    <style>
      .cls-1 {
        fill: #15153f;
      }

      .cls-1, .cls-2, .cls-3, .cls-4, .cls-5, .cls-6 {
        stroke-width: 0px;
      }

      .cls-2 {
        fill: #e0b16e;
      }

      .cls-3 {
        fill: #bcb15e;
      }

      .cls-4 {
        fill: #333;
      }

      .cls-5 {
        fill: #fff8a4;
      }

      .cls-6 {
        fill: #ffd79c;
      }
    </style>
  </defs>
  <g id="Portraits">
    <g id="B">
      <g id="Tiles">
        <g id="B-11">
          <path class="cls-6" d="m125.25,164.52c3.58-30.67,24.12-112.6,16.64-141.33-2.07-7.97-4.66-15.78-8.02-23.19H27.07C12.12,0,0,12.12,0,27.07v110.38c0,14.95,12.12,27.07,27.07,27.07h8.53c.7-.64,1.34-1.16,1.94-1.52.8-.47,1.83-.21,2.31.59.17.29.24.61.23.93h85.18ZM45.03,49.82c-.79,0-1.59-.28-2.23-.84-1.4-1.23-1.53-3.36-.3-4.76,14.63-16.61,30.49-24.57,47.12-23.65,19.6,1.08,33.22,14.33,34.59,16.3,1.07,1.52.7,3.63-.82,4.7-1.5,1.05-3.56.71-4.64-.75-1.86-2.23-14.44-13.29-31-13.57-13.95-.26-27.46,6.98-40.19,21.43-.67.76-1.6,1.14-2.53,1.14Zm36.33,58.75c-7.87,1.06-15.11-4.46-16.16-12.33-.32-2.41-.03-4.75.76-6.88-6,3.34-10.54,7.3-13.63,10.54-.41.43-.97.65-1.52.65-.52,0-1.05-.19-1.46-.58-.84-.8-.87-2.14-.07-2.98,4.65-4.87,12.34-11.28,23.2-15.23,1.52-.84,3.22-1.44,5.05-1.68.18-.02.36-.03.54-.05,17.75-4.54,32.89.29,40.54,3.71,1.06.48,1.54,1.72,1.06,2.79-.48,1.06-1.72,1.54-2.79,1.06-4.76-2.13-15.71-6.1-29.08-4.94,3.11,2.23,5.33,5.67,5.88,9.76,1.06,7.87-4.46,15.1-12.33,16.16Z"/>
          <path class="cls-5" d="m125.25,164.52h12.19c14.95,0,27.07-12.12,27.07-27.07V27.07c0-14.95-12.12-27.07-27.07-27.07h-3.58c3.36,7.4,5.95,15.22,8.02,23.19,7.48,28.74-13.06,110.66-16.64,141.33Z"/>
          <path class="cls-1" d="m87.8,82.65c13.37-1.15,24.33,2.82,29.08,4.94,1.06.47,2.31,0,2.79-1.06.47-1.06,0-2.31-1.06-2.79-7.65-3.42-22.79-8.25-40.54-3.71,3.58-.35,7,.66,9.74,2.62Z"/>
          <path class="cls-1" d="m72.47,81.76c-10.86,3.95-18.54,10.35-23.2,15.23-.8.84-.77,2.18.07,2.98.41.39.93.58,1.46.58.56,0,1.11-.22,1.52-.65,3.09-3.24,7.62-7.2,13.63-10.54,1.19-3.21,3.5-5.92,6.52-7.6Z"/>
          <path class="cls-4" d="m87.8,82.65c-2.74-1.96-6.15-2.96-9.74-2.62-.18.02-.36.02-.54.05-1.83.25-3.53.84-5.05,1.68-3.02,1.68-5.34,4.38-6.52,7.6-.79,2.13-1.08,4.48-.76,6.88,1.06,7.87,8.29,13.39,16.16,12.33,7.87-1.06,13.39-8.29,12.33-16.16-.55-4.09-2.78-7.53-5.88-9.76Z"/>
          <path class="cls-2" d="m37.54,163c-.6.36-1.25.88-1.94,1.52h4.48c.01-.31-.06-.64-.23-.93-.48-.8-1.51-1.06-2.31-.59Z"/>
          <path class="cls-3" d="m87.75,27.25c16.56.28,29.14,11.34,31,13.57,1.08,1.46,3.14,1.8,4.64.75,1.52-1.07,1.89-3.17.82-4.7-1.38-1.96-15-15.21-34.59-16.3-16.64-.92-32.49,7.04-47.12,23.65-1.23,1.4-1.1,3.53.3,4.76.64.57,1.44.84,2.23.84.93,0,1.87-.39,2.53-1.14,12.73-14.45,26.24-21.69,40.19-21.43Z"/>
        </g>
      </g>
    </g>
  </g>
</svg>