<?xml version="1.0" encoding="UTF-8"?>
<svg id="Layer_2" data-name="Layer 2" xmlns="http://www.w3.org/2000/svg" viewBox="0 0 164.52 164.52">
  <defs>
    <style>
      .cls-1 {
        fill: #e0b16e;
      }

      .cls-1, .cls-2, .cls-3, .cls-4 {
        stroke-width: 0px;
      }

      .cls-2 {
        fill: #fff8a4;
      }

      .cls-3 {
        fill: #fe7879;
      }

      .cls-4 {
        fill: #ffd79c;
      }
    </style>
  </defs>
  <g id="Portraits">
    <g id="B">
      <g id="Tiles">
        <g id="B-15">
          <path class="cls-3" d="m70.61,144.29c.18,7.14.72,13.98,1.72,20.23h65.11c14.95,0,27.07-12.12,27.07-27.07V27.07c0-3.26-.58-6.38-1.63-9.27-4.68,2.24-8.44,3.1-9.56,3.32-16.38,62.33-37.54,104.08-82.71,123.17Z"/>
          <path class="cls-1" d="m7.48,156.12c4.93,5.17,11.88,8.4,19.59,8.4h45.27c-1-6.25-1.54-13.09-1.72-20.23-17.2,7.27-37.89,11.25-63.13,11.83Z"/>
          <path class="cls-1" d="m153.33,21.12c1.12-.22,4.88-1.08,9.56-3.32-1.36-3.72-3.51-7.06-6.24-9.82-1.09,4.48-2.19,8.85-3.32,13.14Z"/>
          <path class="cls-4" d="m153.33,21.12c1.13-4.28,2.23-8.66,3.32-13.14-2.33-2.34-5.09-4.26-8.15-5.63-11.45,11.76-21.88,16.55-23.61,5.64-.27-1.72-.18-4.45.18-8H38.78c-1.25.95-3.03,2.92-5.06,5.17-6.53,7.24-16.39,18.19-29.13,18.36-.1,0-.2,0-.3,0-1.36,0-2.7-.13-4-.36-.18,1.27-.28,2.58-.28,3.9v56.08c5.28.36,10.65.37,16.02,0,22.45-1.54,41.87-9.28,54.69-21.81.83-.81,2.17-.8,2.98.03.81.83.8,2.17-.03,2.98-16.5,16.13-41.11,23.24-65.22,23.24-2.82,0-5.64-.11-8.43-.3v50.16c0,7.24,2.85,13.81,7.48,18.67,25.24-.58,45.93-4.56,63.13-11.83,45.18-19.08,66.33-60.84,82.71-123.17Z"/>
          <path class="cls-4" d="m4.54,20.16c11.27-.15,20.54-10.44,26.67-17.25.96-1.07,1.84-2.05,2.66-2.91h-6.8C14.62,0,4.13,8.41.98,19.86c1.09.19,2.19.3,3.31.3.08,0,.17,0,.25,0Z"/>
          <path class="cls-2" d="m124.89,8c1.73,10.9,12.15,6.12,23.61-5.64-3.37-1.51-7.11-2.36-11.05-2.36h-12.38c-.36,3.55-.45,6.28-.18,8Z"/>
          <path class="cls-1" d="m4.59,23.53c12.74-.17,22.6-11.12,29.13-18.36,2.03-2.25,3.81-4.22,5.06-5.17h-4.9c-.82.87-1.7,1.85-2.66,2.91-6.13,6.81-15.4,17.09-26.67,17.25-.08,0-.17,0-.25,0-1.12,0-2.23-.11-3.31-.3-.3,1.08-.53,2.18-.69,3.31,1.3.23,2.64.36,4,.36.1,0,.2,0,.3,0Z"/>
          <path class="cls-1" d="m73.65,64.35c.83-.81.85-2.15.03-2.98-.81-.83-2.15-.85-2.98-.03-12.82,12.53-32.24,20.27-54.69,21.81-5.37.37-10.74.36-16.02,0v4.14c2.8.19,5.61.3,8.43.3,24.11,0,48.72-7.11,65.22-23.24Z"/>
        </g>
      </g>
    </g>
  </g>
</svg>