<?xml version="1.0" encoding="UTF-8"?>
<svg id="Layer_2" data-name="Layer 2" xmlns="http://www.w3.org/2000/svg" viewBox="0 0 164.52 164.52">
  <defs>
    <style>
      .cls-1 {
        fill: #4b416d;
      }

      .cls-1, .cls-2, .cls-3 {
        stroke-width: 0px;
      }

      .cls-2 {
        fill: #e0b16e;
      }

      .cls-3 {
        fill: #fe7879;
      }
    </style>
  </defs>
  <g id="Portraits">
    <g id="B">
      <g id="Tiles">
        <g id="B-18">
          <path class="cls-3" d="m137.45,0h-64.82c1.14,6.42,2.8,12.16,5.12,16.87,2.74,5.57,6.63,9.49,11.65,12.28-.18-1.35-.31-2.1-.31-2.1,0,0,34.48,2.25,75.42,6.02v-6c0-14.95-12.12-27.07-27.07-27.07Z"/>
          <path class="cls-2" d="m89.4,29.15c-5.02-2.79-8.91-6.71-11.65-12.28-2.32-4.71-3.98-10.46-5.12-16.87H27.07C12.12,0,0,12.12,0,27.07v110.38c0,3.84.8,7.49,2.24,10.8,3.88-1.16,12.11-3.62,29.57-8.85,66.47-19.89,59.4-96.58,57.59-110.24Z"/>
          <path class="cls-1" d="m89.4,29.15c1.81,13.67,8.88,90.36-57.59,110.24-17.46,5.22-25.69,7.68-29.57,8.85,4.17,9.58,13.71,16.27,24.83,16.27h110.38c14.95,0,27.07-12.12,27.07-27.07V33.07c-40.94-3.77-75.42-6.02-75.42-6.02,0,0,.13.75.31,2.1Z"/>
        </g>
      </g>
    </g>
  </g>
</svg>