<?xml version="1.0" encoding="UTF-8"?>
<svg id="Layer_2" data-name="Layer 2" xmlns="http://www.w3.org/2000/svg" viewBox="0 0 164.52 164.52">
  <defs>
    <style>
      .cls-1 {
        fill: #ede27a;
      }

      .cls-1, .cls-2, .cls-3 {
        stroke-width: 0px;
      }

      .cls-2 {
        fill: #fff8a4;
      }

      .cls-3 {
        fill: #fe7879;
      }
    </style>
  </defs>
  <g id="Portraits">
    <g id="B">
      <g id="Tiles">
        <g id="B-4">
          <path class="cls-3" d="m137.45,0H27.07c-.97,0-1.92.05-2.86.15,9.24,13.01,8.87,26,8.68,28.68,3.13-.22,20.3-.7,35.15,14.16,9.86,9.86,8.86,31.36,3.11,51.29,0,0,22.89,14.54,22,29.14-.65,10.64-20.82,15.57-17.72,30.59.39,1.89,1.26,5.9.87,10.51h61.14c14.95,0,27.07-12.12,27.07-27.07V27.07c0-14.95-12.12-27.07-27.07-27.07Z"/>
          <path class="cls-1" d="m75.43,154.01c-3.09-15.03,17.07-19.95,17.72-30.59.89-14.6-22-29.14-22-29.14,5.76-19.93,6.75-41.43-3.11-51.29-14.85-14.85-32.03-14.38-35.15-14.16.19-2.68.56-15.67-8.68-28.68C10.61,1.58,0,13.08,0,27.07v94.87c7.58,12.06,14,25.77,16.82,40.56,3.16,1.3,6.62,2.01,10.25,2.01h49.24c.39-4.61-.49-8.63-.87-10.51Z"/>
          <path class="cls-2" d="m0,137.45c0,11.32,6.95,21.01,16.82,25.06-2.82-14.79-9.24-28.5-16.82-40.56v15.5Z"/>
        </g>
      </g>
    </g>
  </g>
</svg>