<?xml version="1.0" encoding="UTF-8"?>
<svg id="Layer_2" data-name="Layer 2" xmlns="http://www.w3.org/2000/svg" viewBox="0 0 164.52 164.52">
  <defs>
    <style>
      .cls-1 {
        fill: #ede27a;
      }

      .cls-1, .cls-2, .cls-3 {
        stroke-width: 0px;
      }

      .cls-2 {
        fill: #fff8a4;
      }

      .cls-3 {
        fill: #fe7879;
      }
    </style>
  </defs>
  <g id="Portraits">
    <g id="B">
      <g id="Tiles">
        <g id="B-8">
          <path class="cls-3" d="m137.45,0h-61.34c-.66,4.35-2.57,9.03-7.08,12.87-13.81,11.73-1.17,27.28-32.76,28.4-7.16.26-13.57.14-19.32-.23,1.58,23.13,11.58,42.69,11.59,63.47.02,38.05-9.49,44.14-14.34,56.75,3.83,2.08,8.22,3.25,12.88,3.25h110.38c14.95,0,27.07-12.12,27.07-27.07V27.07c0-14.95-12.12-27.07-27.07-27.07Z"/>
          <path class="cls-1" d="m17.56,23.39c-.89,6.14-1,12-.61,17.65,5.75.37,12.16.48,19.32.23,31.59-1.12,18.95-16.67,32.76-28.4,4.51-3.83,6.42-8.52,7.08-12.87H27.07c-3.3,0-6.46.59-9.38,1.67.9,7.04.94,14.3-.13,21.72Z"/>
          <path class="cls-2" d="m16.94,41.04c-.39-5.65-.28-11.51.61-17.65,1.07-7.42,1.03-14.68.13-21.72C7.36,5.49,0,15.42,0,27.07v110.38c0,10.29,5.74,19.24,14.19,23.82,4.85-12.6,14.36-18.7,14.34-56.75-.01-20.78-10.01-40.34-11.59-63.47Z"/>
        </g>
      </g>
    </g>
  </g>
</svg>