<?xml version="1.0" encoding="UTF-8"?>
<svg id="Layer_2" data-name="Layer 2" xmlns="http://www.w3.org/2000/svg" viewBox="0 0 164.52 164.52">
  <defs>
    <style>
      .cls-1 {
        fill: #e0b16e;
      }

      .cls-1, .cls-2, .cls-3 {
        stroke-width: 0px;
      }

      .cls-2 {
        fill: #fff8a4;
      }

      .cls-3 {
        fill: #fe7879;
      }
    </style>
  </defs>
  <g id="Portraits">
    <g id="B">
      <g id="Tiles">
        <g id="B-12">
          <path class="cls-3" d="m137.45,0H27.07c-5.66,0-10.91,1.74-15.26,4.71-.67,5.44-.56,12.36.74,21.96.02.15.03.31.05.46,17.07,49.33,1.36,71.14-12.61,80.53v29.8c0,14.95,12.12,27.07,27.07,27.07h110.38c14.95,0,27.07-12.12,27.07-27.07V27.07c0-14.95-12.12-27.07-27.07-27.07Z"/>
          <path class="cls-1" d="m12.61,27.12c1.37,11.52-4.34,26.97-12.61,41.25v39.28c13.96-9.39,29.68-31.2,12.61-80.53Z"/>
          <path class="cls-2" d="m12.61,27.12c-.02-.15-.03-.31-.05-.46-1.31-9.59-1.41-16.51-.74-21.96C4.68,9.58,0,17.78,0,27.07v41.3c8.27-14.27,13.98-29.73,12.61-41.25Z"/>
        </g>
      </g>
    </g>
  </g>
</svg>