<?xml version="1.0" encoding="UTF-8"?>
<svg id="Layer_2" data-name="Layer 2" xmlns="http://www.w3.org/2000/svg" viewBox="0 0 164.52 164.52">
  <defs>
    <style>
      .cls-1 {
        fill: #4b416d;
      }

      .cls-1, .cls-2 {
        stroke-width: 0px;
      }

      .cls-2 {
        fill: #fe7879;
      }
    </style>
  </defs>
  <g id="Portraits">
    <g id="B">
      <g id="Tiles">
        <g id="B-16">
          <path class="cls-2" d="m137.45,0H27.07C12.12,0,0,12.12,0,27.07v99.6c46.76,4.38,100.53,10.68,120.81,17.85,12.48,4.42,22.81,9.74,31.37,15.63,7.42-4.83,12.34-13.19,12.34-22.71V27.07c0-14.95-12.12-27.07-27.07-27.07Z"/>
          <path class="cls-1" d="m0,126.67v10.78c0,14.95,12.12,27.07,27.07,27.07h110.38c5.44,0,10.49-1.61,14.73-4.36-8.56-5.89-18.89-11.21-31.37-15.63-20.27-7.17-74.05-13.47-120.81-17.85Z"/>
        </g>
      </g>
    </g>
  </g>
</svg>