<?xml version="1.0" encoding="UTF-8"?>
<svg id="Layer_2" data-name="Layer 2" xmlns="http://www.w3.org/2000/svg" viewBox="0 0 164.23 164.52">
  <defs>
    <style>
      .cls-1 {
        fill: #ede27a;
      }

      .cls-1, .cls-2, .cls-3 {
        stroke-width: 0px;
      }

      .cls-2 {
        fill: #fff8a4;
      }

      .cls-3 {
        fill: #fe7879;
      }
    </style>
  </defs>
  <g id="Portraits">
    <g id="B">
      <g id="Tiles">
        <g id="B-5">
          <path class="cls-3" d="m0,23.13v118.25c1.91,13.08,13.17,23.13,26.78,23.13h110.38c2.05,0,4.05-.24,5.97-.67.49-2.72,1.09-5.4,1.81-7.98,8.52-30.88-9.61-9.77-9.58-68.15.01-21.15,3.03-27.37,1.65-46.08-3.01.03-6.17,0-9.5-.13-31.59-1.12-18.95-16.67-32.76-28.4-4.6-3.91-6.49-8.7-7.12-13.11H26.78C13.17,0,1.91,10.05,0,23.13Z"/>
          <path class="cls-1" d="m94.74,13.11c13.81,11.73,1.17,27.28,32.76,28.4,3.32.12,6.48.16,9.5.13-.31-4.16-.83-8.92-1.65-14.62-1.33-9.24-.34-18.29,2.21-27.01-.13,0-.27-.01-.4-.01h-49.54c.63,4.41,2.52,9.21,7.12,13.11Z"/>
          <path class="cls-2" d="m135.35,27.02c.82,5.69,1.34,10.46,1.65,14.62,1.38,18.71-1.64,24.93-1.65,46.08-.03,58.38,18.1,37.27,9.58,68.15-.71,2.58-1.31,5.26-1.81,7.98,12.08-2.72,21.1-13.5,21.1-26.4V27.07C164.23,12.25,152.32.22,137.56.01c-2.55,8.72-3.55,17.77-2.21,27.01Z"/>
        </g>
      </g>
    </g>
  </g>
</svg>