<?xml version="1.0" encoding="UTF-8"?>
<svg id="Layer_2" data-name="Layer 2" xmlns="http://www.w3.org/2000/svg" viewBox="0 0 164.23 164.52">
  <defs>
    <style>
      .cls-1 {
        fill: #e0b16e;
      }

      .cls-1, .cls-2, .cls-3 {
        stroke-width: 0px;
      }

      .cls-2 {
        fill: #fff8a4;
      }

      .cls-3 {
        fill: #fe7879;
      }
    </style>
  </defs>
  <g id="Portraits">
    <g id="B">
      <g id="Tiles">
        <g id="B-9">
          <path class="cls-3" d="m0,23.13v118.25c1.91,13.08,13.17,23.13,26.78,23.13h110.38c14.95,0,27.07-12.12,27.07-27.07v-28.93c-12.03-9.13-24.07-27.91-14.48-65.82-7.79-9.84-9.4-26.52-7.1-42.14-1.77-.37-3.61-.56-5.49-.56H26.78C13.17,0,1.91,10.05,0,23.13Z"/>
          <path class="cls-1" d="m149.75,42.7c-9.59,37.9,2.45,56.69,14.48,65.82v-57.43c-6.21-.93-10.97-3.96-14.48-8.38Z"/>
          <path class="cls-2" d="m149.75,42.7c3.51,4.43,8.27,7.46,14.48,8.38v-24.01c0-13.07-9.26-23.98-21.58-26.51-2.3,15.62-.68,32.3,7.1,42.14Z"/>
        </g>
      </g>
    </g>
  </g>
</svg>