<?xml version="1.0" encoding="UTF-8"?>
<svg id="Layer_2" data-name="Layer 2" xmlns="http://www.w3.org/2000/svg" viewBox="0 0 164.23 164.52">
  <defs>
    <style>
      .cls-1 {
        fill: #4b416d;
      }

      .cls-1, .cls-2 {
        stroke-width: 0px;
      }

      .cls-2 {
        fill: #fe7879;
      }
    </style>
  </defs>
  <g id="Portraits">
    <g id="B">
      <g id="Tiles">
        <g id="B-13">
          <path class="cls-2" d="m164.23,129.23V27.07c0-14.95-12.12-27.07-27.07-27.07H26.78C13.17,0,1.91,10.05,0,23.13v118.25c1.32,9.05,7.12,16.65,15.08,20.48,8.34-5.63,18.34-10.71,30.35-14.96,19.98-7.07,72.52-13.29,118.8-17.67Z"/>
          <path class="cls-1" d="m137.16,164.52c14.95,0,27.07-12.12,27.07-27.07v-8.22c-46.28,4.37-98.82,10.59-118.8,17.67-12.01,4.25-22.01,9.33-30.35,14.96,3.54,1.7,7.51,2.66,11.7,2.66h110.38Z"/>
        </g>
      </g>
    </g>
  </g>
</svg>