<?xml version="1.0" encoding="UTF-8"?>
<svg id="Layer_2" data-name="Layer 2" xmlns="http://www.w3.org/2000/svg" viewBox="0 0 164.52 164.52">
  <defs>
    <style>
      .cls-1 {
        fill: #ede27a;
      }

      .cls-1, .cls-2, .cls-3 {
        stroke-width: 0px;
      }

      .cls-2 {
        fill: #fff8a4;
      }

      .cls-3 {
        fill: #fe7879;
      }
    </style>
  </defs>
  <g id="Portraits">
    <g id="B">
      <g id="Tiles">
        <g id="B-2">
          <path class="cls-3" d="m137.45,0H27.07C12.12,0,0,12.12,0,27.07v30.06c8.87-.13,18.87,1.54,28.5,4.32,0,0,14.54-22.89,29.14-22,10.64.65,15.57,20.82,30.59,17.72,3.85-.79,16.58-3.62,25.09,6.41,11.73,13.81,27.28,1.17,28.4,32.76.13,3.59.16,6.98.12,10.21.99-.12,2-.23,3.03-.34,7.6-.82,14.68,1.97,19.65,6.92V27.07c0-14.95-12.12-27.07-27.07-27.07Z"/>
          <path class="cls-1" d="m126.44,108.49c3.83-.4,9.18-1.21,15.4-1.95.04-3.23.01-6.62-.12-10.21-1.12-31.59-16.67-18.95-28.4-32.76-8.52-10.02-21.24-7.2-25.09-6.41-15.03,3.09-19.95-17.07-30.59-17.72-14.6-.89-29.14,22-29.14,22-9.63-2.78-19.63-4.45-28.5-4.32v80.32c0,12.77,8.84,23.47,20.74,26.32,39.07-42.56,88.18-53.44,105.71-55.27Z"/>
          <path class="cls-2" d="m144.87,106.2c-1.03.11-2.04.23-3.03.34-6.22.73-11.57,1.55-15.4,1.95-17.52,1.83-66.63,12.71-105.71,55.27,2.03.49,4.15.75,6.33.75h110.38c14.95,0,27.07-12.12,27.07-27.07v-24.32c-4.97-4.95-12.05-7.74-19.65-6.92Z"/>
        </g>
      </g>
    </g>
  </g>
</svg>