<?xml version="1.0" encoding="UTF-8"?>
<svg id="Layer_2" data-name="Layer 2" xmlns="http://www.w3.org/2000/svg" viewBox="0 0 164.52 164.52">
  <defs>
    <style>
      .cls-1 {
        fill: #ede27a;
      }

      .cls-1, .cls-2, .cls-3 {
        stroke-width: 0px;
      }

      .cls-2 {
        fill: #fff8a4;
      }

      .cls-3 {
        fill: #ffd79c;
      }
    </style>
  </defs>
  <g id="Portraits">
    <g id="B">
      <g id="Tiles">
        <g id="B-6">
          <path class="cls-1" d="m1.16,19.23C6.66,12.88,12.03,7.13,16.58,2.11,9.21,5.21,3.49,11.49,1.16,19.23Z"/>
          <path class="cls-3" d="m111.29,114.69c-28.95.47-53.93,18.71-70.68,49.83h96.84c14.95,0,27.07-12.12,27.07-27.07v-46.36c-5.95,15.57-20.2,23.06-53.23,23.61Z"/>
          <path class="cls-2" d="m0,27.07v110.38c0,14.95,12.12,27.07,27.07,27.07h13.54c16.75-31.12,41.73-49.35,70.68-49.83,33.03-.54,47.27-8.03,53.23-23.61V27.07c0-14.95-12.12-27.07-27.07-27.07H27.07c-3.72,0-7.26.75-10.49,2.11C12.03,7.13,6.66,12.88,1.16,19.23c-.75,2.48-1.16,5.11-1.16,7.84Z"/>
        </g>
      </g>
    </g>
  </g>
</svg>