<?xml version="1.0" encoding="UTF-8"?>
<svg id="Layer_2" data-name="Layer 2" xmlns="http://www.w3.org/2000/svg" viewBox="0 0 164.52 164.52">
  <defs>
    <style>
      .cls-1 {
        fill: #15153f;
      }

      .cls-1, .cls-2, .cls-3, .cls-4, .cls-5, .cls-6 {
        stroke-width: 0px;
      }

      .cls-2 {
        fill: #e0b16e;
      }

      .cls-3 {
        fill: #bcb15e;
      }

      .cls-4 {
        fill: #333;
      }

      .cls-5 {
        fill: #fff8a4;
      }

      .cls-6 {
        fill: #ffd79c;
      }
    </style>
  </defs>
  <g id="Portraits">
    <g id="B">
      <g id="Tiles">
        <g id="B-10">
          <path class="cls-2" d="m0,122.01v15.44c0,7.27,2.87,13.86,7.53,18.72-2.43-10.88-4.81-22.27-7.23-34.15-.1,0-.2-.01-.3-.01Z"/>
          <path class="cls-6" d="m138.49,164.01c.23.13.46.27.7.44,14.14-.9,25.33-12.64,25.33-27.01V27.07c0-14.95-12.12-27.07-27.07-27.07H39.7c-8.18,15.71-14.3,34.57-17.85,56.01-5.19,31.36,19.21,66.77,5.36,108.51h109.1c.49-.69,1.42-.92,2.18-.5Zm-12.11-64.72c-.41.41-.95.61-1.48.61s-1.08-.21-1.5-.62c-3.15-3.18-7.76-7.06-13.82-10.29.83,2.12,1.17,4.46.89,6.87-.91,7.89-8.05,13.54-15.93,12.63-7.89-.91-13.54-8.05-12.63-15.93.47-4.1,2.64-7.58,5.7-9.87-13.39-.91-24.27,3.27-28.99,5.48-1.05.49-2.31.04-2.8-1.01-.49-1.05-.04-2.31,1.01-2.8,7.58-3.56,22.63-8.67,40.47-4.46.18.01.36.01.54.03,1.83.21,3.53.77,5.07,1.58,10.93,3.75,18.74,10.01,23.49,14.8.82.83.81,2.16-.01,2.98Zm5.09-50.2c-.62.48-1.34.71-2.07.71-1,0-2-.45-2.66-1.3-11.57-14.88-24.29-22.5-37.81-22.67-19.15-.27-33.29,14.49-33.74,14.98-1.09,1.45-3.14,1.79-4.64.74-1.53-1.07-1.89-3.17-.83-4.7,1.5-2.13,17.1-17.24,37.67-17.75,16.32-.41,31.32,8.1,44.67,25.26,1.14,1.47.88,3.59-.59,4.73Z"/>
          <path class="cls-6" d="m.55,122.03c-.09,0-.16,0-.25-.01,2.42,11.88,4.8,23.27,7.23,34.15,3.87,4.04,8.97,6.87,14.71,7.91-5.21-10.44-12.3-42.05-21.69-42.05Z"/>
          <path class="cls-5" d="m21.84,56.01C25.39,34.57,31.52,15.71,39.7,0h-12.63C12.12,0,0,12.12,0,27.07v94.94c.1,0,.2.01.3.01.08,0,.16.01.25.01,9.39,0,16.48,31.61,21.69,42.05,1.57.28,3.18.44,4.83.44h.13c13.85-41.74-10.55-77.15-5.36-108.51Z"/>
          <path class="cls-1" d="m102.9,81.51c3.06,1.62,5.43,4.29,6.67,7.48,6.06,3.23,10.67,7.11,13.82,10.29.41.42.95.62,1.5.62s1.07-.2,1.48-.61c.83-.82.83-2.15.01-2.98-4.75-4.79-12.55-11.05-23.49-14.8Z"/>
          <path class="cls-1" d="m97.3,79.89c-17.84-4.21-32.89.9-40.47,4.46-1.05.5-1.51,1.75-1.01,2.8.49,1.05,1.75,1.5,2.8,1.01,4.72-2.21,15.6-6.38,28.99-5.48,2.7-2.01,6.1-3.08,9.69-2.8Z"/>
          <path class="cls-4" d="m102.9,81.51c-1.54-.81-3.24-1.37-5.07-1.58-.18-.02-.36-.02-.54-.03-3.59-.28-6.99.78-9.69,2.8-3.07,2.28-5.23,5.77-5.7,9.87-.91,7.89,4.74,15.02,12.63,15.93,7.89.91,15.02-4.74,15.93-12.63.28-2.41-.06-4.75-.89-6.87-1.25-3.19-3.61-5.86-6.67-7.48Z"/>
          <path class="cls-2" d="m136.31,164.52h1.14c.59,0,1.16-.03,1.74-.06-.24-.17-.48-.32-.7-.44-.76-.42-1.69-.18-2.18.5Z"/>
          <path class="cls-3" d="m132.06,44.35c-13.35-17.17-28.35-25.67-44.67-25.26-20.57.51-36.17,15.62-37.67,17.75-1.07,1.53-.7,3.63.83,4.7,1.5,1.05,3.55.71,4.64-.74.45-.49,14.58-15.24,33.74-14.98,13.52.17,26.24,7.79,37.81,22.67.67.86,1.66,1.3,2.66,1.3.72,0,1.45-.23,2.07-.71,1.47-1.14,1.74-3.26.59-4.73Z"/>
        </g>
      </g>
    </g>
  </g>
</svg>