<?xml version="1.0" encoding="UTF-8"?>
<svg id="Layer_2" data-name="Layer 2" xmlns="http://www.w3.org/2000/svg" viewBox="0 0 164.52 164.52">
  <defs>
    <style>
      .cls-1 {
        fill: #e0b16e;
      }

      .cls-1, .cls-2, .cls-3, .cls-4 {
        stroke-width: 0px;
      }

      .cls-2 {
        fill: #fff8a4;
      }

      .cls-3 {
        fill: #fe7879;
      }

      .cls-4 {
        fill: #ffd79c;
      }
    </style>
  </defs>
  <g id="Portraits">
    <g id="B">
      <g id="Tiles">
        <g id="B-14">
          <path class="cls-3" d="m27.07,164.52h67.89c1.03-6.38,1.57-13.38,1.74-20.69C52.25,124.55,31.3,82.98,15.05,21.16h-.74s-5.51-.89-12.21-4.57c-1.35,3.22-2.1,6.76-2.1,10.47v110.38c0,14.95,12.12,27.07,27.07,27.07Z"/>
          <path class="cls-1" d="m94.96,164.52h42.49c7.78,0,14.78-3.28,19.72-8.53-24.07-.89-43.91-4.97-60.47-12.15-.17,7.3-.71,14.31-1.74,20.69Z"/>
          <path class="cls-1" d="m15.05,21.16c-1.36-5.17-2.68-10.47-3.99-15.92-3.93,2.89-7.05,6.8-8.96,11.35,6.7,3.67,12.21,4.57,12.21,4.57h.74Z"/>
          <path class="cls-4" d="m96.69,143.83c16.57,7.19,36.41,11.27,60.47,12.15,4.55-4.84,7.35-11.36,7.35-18.54v-50.42c-15.5-1.43-30.22-5.76-41.75-12.47-1.01-.58-1.35-1.88-.76-2.88s1.88-1.35,2.88-.76c11.13,6.47,24.97,10.58,39.63,11.96V27.07c0-1.66-.16-3.28-.44-4.86-8.94-3.01-16.26-10.65-21.48-16.11-2.39-2.49-4.45-4.65-5.73-5.36-.32-.17-.55-.44-.7-.74H27.07c-.2,0-.39.01-.59.01-.85,1.51-1.78,1.42-2.79.2-4.69.58-9,2.36-12.62,5.03,1.3,5.45,2.63,10.75,3.99,15.92,16.25,61.81,37.2,103.39,81.64,122.67Z"/>
          <path class="cls-4" d="m145.03,3.76c4.53,4.73,10.72,11.2,17.98,14.41-3.24-9.3-11.39-16.28-21.35-17.84,1.02.98,2.13,2.14,3.37,3.43Z"/>
          <path class="cls-2" d="m26.48.01c-.94.02-1.87.09-2.79.2,1.01,1.22,1.94,1.31,2.79-.2Z"/>
          <path class="cls-1" d="m136.86.74c1.29.71,3.35,2.86,5.73,5.36,5.23,5.46,12.54,13.1,21.48,16.11-.25-1.39-.61-2.74-1.06-4.04-7.26-3.21-13.46-9.67-17.98-14.41-1.24-1.29-2.35-2.46-3.37-3.43-1.37-.21-2.78-.33-4.21-.33h-1.29c.15.3.38.56.7.74Z"/>
          <path class="cls-1" d="m122.01,71.68c-.58,1.01-.24,2.3.76,2.88,11.53,6.71,26.25,11.03,41.75,12.47v-4.16c-14.66-1.37-28.5-5.48-39.63-11.96-1.01-.58-2.3-.24-2.88.76Z"/>
        </g>
      </g>
    </g>
  </g>
</svg>