<?xml version="1.0" encoding="UTF-8"?>
<svg id="Layer_2" data-name="Layer 2" xmlns="http://www.w3.org/2000/svg" viewBox="0 0 164.52 164.52">
  <defs>
    <style>
      .cls-1 {
        fill: #4b416d;
      }

      .cls-1, .cls-2, .cls-3 {
        stroke-width: 0px;
      }

      .cls-2 {
        fill: #e0b16e;
      }

      .cls-3 {
        fill: #fe7879;
      }
    </style>
  </defs>
  <g id="Portraits">
    <g id="B">
      <g id="Tiles">
        <g id="B-17">
          <path class="cls-3" d="m77.71,29.73c5.15-3.2,9.11-7.35,11.83-12.88,2.31-4.71,3.97-10.44,5.11-16.85H27.07C12.12,0,0,12.12,0,27.07v6.22c42.1-3.92,78.1-6.26,78.1-6.26,0,0-.17.97-.39,2.7Z"/>
          <path class="cls-2" d="m77.71,29.73c-1.92,15.16-7.89,90.03,57.67,109.64,14.5,4.34,22.63,6.77,27.2,8.14,1.25-3.11,1.94-6.5,1.94-10.06V27.07c0-14.95-12.12-27.07-27.07-27.07h-42.79c-1.14,6.41-2.8,12.14-5.11,16.85-2.72,5.53-6.68,9.68-11.83,12.88Z"/>
          <path class="cls-1" d="m0,137.45c0,14.95,12.12,27.07,27.07,27.07h110.38c11.39,0,21.14-7.04,25.13-17.01-4.56-1.37-12.69-3.8-27.2-8.14-65.56-19.61-59.58-94.48-57.67-109.64.22-1.73.39-2.7.39-2.7,0,0-36,2.34-78.1,6.26v104.16Z"/>
        </g>
      </g>
    </g>
  </g>
</svg>