<?xml version="1.0" encoding="UTF-8"?>
<svg id="Layer_2" data-name="Layer 2" xmlns="http://www.w3.org/2000/svg" viewBox="0 0 164.52 164.52">
  <defs>
    <style>
      .cls-1 {
        fill: #542f16;
      }

      .cls-1, .cls-2, .cls-3 {
        stroke-width: 0px;
      }

      .cls-2 {
        fill: #fff5cc;
      }

      .cls-3 {
        fill: #ecac01;
      }
    </style>
  </defs>
  <g id="Portraits">
    <g id="C">
      <g id="Tiles">
        <g id="C-7">
          <path class="cls-3" d="m137.45,0H27.07c-1.91,0-3.78.2-5.58.58,7.67,3.2,14,7.3,18.7,11.97,15.54,2.39,41.06,9.33,84.71,25.5,15.98,5.92,29,14.37,39.63,24.47V27.07c0-14.95-12.12-27.07-27.07-27.07Z"/>
          <path class="cls-1" d="m55.68,111.52c-22.49.5-40.83-.12-55.68-1.64v27.57c0,14.95,12.12,27.07,27.07,27.07h110.38c8.39,0,15.88-3.82,20.85-9.81-14.89-25.57-44.7-44.49-102.62-43.19Z"/>
          <path class="cls-2" d="m40.18,12.55C35.49,7.88,29.16,3.78,21.49.58,11.65,2.64,3.78,10.05,1.05,19.62c2.86-1.84,4.58-2.87,4.58-2.87,10.97,2.06,6.46-8.52,34.55-4.2Z"/>
          <path class="cls-2" d="m40.18,12.55c-28.09-4.32-23.58,6.26-34.55,4.2,0,0-1.72,1.03-4.58,2.87-.68,2.37-1.05,4.87-1.05,7.45v82.81c14.84,1.52,33.19,2.14,55.68,1.64,57.92-1.3,87.73,17.62,102.62,43.19,3.88-4.69,6.22-10.7,6.22-17.26V62.52c-10.62-10.11-23.65-18.55-39.63-24.47C81.24,21.88,55.72,14.94,40.18,12.55Z"/>
        </g>
      </g>
    </g>
  </g>
</svg>