<?xml version="1.0" encoding="UTF-8"?>
<svg id="Layer_2" data-name="Layer 2" xmlns="http://www.w3.org/2000/svg" viewBox="0 0 164.52 164.52">
  <defs>
    <style>
      .cls-1 {
        fill: #542f16;
      }

      .cls-1, .cls-2, .cls-3 {
        stroke-width: 0px;
      }

      .cls-2 {
        fill: #1a1a1a;
      }

      .cls-3 {
        fill: #d1c695;
      }
    </style>
  </defs>
  <g id="Portraits">
    <g id="C">
      <g id="Tiles">
        <g id="C-11">
          <path class="cls-1" d="m137.45,164.52c14.95,0,27.07-12.12,27.07-27.07V27.07c0-14.95-12.12-27.07-27.07-27.07H27.07C12.12,0,0,12.12,0,27.07v110.38c0,14.95,12.12,27.07,27.07,27.07h110.38ZM40.8,48.12c-1.1,0-2.2-.43-3.02-1.28-1.62-1.67-1.59-4.34.08-5.96,10-9.73,22.65-20.3,40.66-24.97,19.29-5,41.24-2.28,67.1,8.32,2.15.88,3.19,3.34,2.3,5.5-.88,2.15-3.34,3.19-5.5,2.3-24.11-9.88-44.32-12.49-61.79-7.96-16.11,4.17-27.69,13.89-36.9,22.85-.82.8-1.88,1.19-2.94,1.19Zm65.85,29.1c-.68.95-1.99,1.17-2.94.49-4.67-3.33-12.35-7.53-22.42-8.63-1.75-.19-3.45-.26-5.11-.25,5.07,2.37,8.3,7.78,7.62,13.65-.85,7.34-7.49,12.6-14.83,11.75-7.34-.85-12.6-7.49-11.75-14.83.37-3.17,1.82-5.95,3.94-8.02-5.91,2-10.33,4.7-12.68,6.34-.37.26-.79.38-1.2.38-.67,0-1.32-.32-1.73-.9-.67-.96-.43-2.27.52-2.94,6.14-4.28,18.93-11.18,35.66-9.37,10.98,1.19,19.34,5.76,24.42,9.39.95.68,1.17,1.99.49,2.94Z"/>
          <path class="cls-2" d="m106.15,74.29c-5.08-3.62-13.44-8.2-24.42-9.39-16.73-1.81-29.52,5.09-35.66,9.37-.95.67-1.19,1.98-.52,2.94.41.59,1.07.9,1.73.9.42,0,.84-.12,1.2-.38,2.35-1.64,6.77-4.34,12.68-6.34,2.78-2.72,6.72-4.21,10.89-3.73,1.47.17,2.85.58,4.12,1.18,1.66,0,3.36.06,5.11.25,10.08,1.09,17.75,5.29,22.42,8.63.95.68,2.26.46,2.94-.49.68-.95.46-2.26-.49-2.94Z"/>
          <path class="cls-2" d="m61.16,71.39c-2.12,2.07-3.57,4.85-3.94,8.02-.85,7.34,4.41,13.98,11.75,14.83,7.34.85,13.98-4.41,14.83-11.75.68-5.87-2.55-11.28-7.62-13.65-1.27-.59-2.65-1.01-4.12-1.18-4.17-.48-8.11,1.01-10.89,3.73Z"/>
          <path class="cls-3" d="m142.43,32.04c2.16.88,4.62-.15,5.5-2.3.88-2.15-.15-4.62-2.3-5.5-25.86-10.6-47.81-13.32-67.1-8.32-18.02,4.67-30.67,15.24-40.66,24.97-1.67,1.62-1.71,4.29-.08,5.96.83.85,1.92,1.28,3.02,1.28s2.12-.4,2.94-1.19c9.21-8.96,20.79-18.67,36.9-22.85,17.47-4.53,37.68-1.92,61.79,7.96Z"/>
        </g>
      </g>
    </g>
  </g>
</svg>