<?xml version="1.0" encoding="UTF-8"?>
<svg id="Layer_2" data-name="Layer 2" xmlns="http://www.w3.org/2000/svg" viewBox="0 0 164.52 164.52">
  <defs>
    <style>
      .cls-1 {
        fill: #471d00;
      }

      .cls-1, .cls-2, .cls-3, .cls-4 {
        stroke-width: 0px;
      }

      .cls-2 {
        fill: #542f16;
      }

      .cls-3 {
        fill: #3f1900;
      }

      .cls-4 {
        fill: #ecac01;
      }
    </style>
  </defs>
  <g id="Portraits">
    <g id="C">
      <g id="Tiles">
        <g id="C-15">
          <path class="cls-4" d="m162.14,148.54c-11.04,5.49-24.57,10.24-41.04,14.07.17.64.34,1.28.51,1.91h15.84c11,0,20.45-6.56,24.69-15.98Z"/>
          <path class="cls-1" d="m112.27,164.52h9.34c-.18-.63-.35-1.26-.51-1.91-2.85.66-5.79,1.3-8.83,1.91Z"/>
          <path class="cls-2" d="m162.14,148.54c1.52-3.39,2.38-7.14,2.38-11.09V27.07c0-14.95-12.12-27.07-27.07-27.07H27.07C12.12,0,0,12.12,0,27.07v57.89c19.35.54,34.88-6.66,57.06-20.56.99-.62,2.29-.32,2.91.67s.32,2.29-.67,2.91c-24.36,15.26-40.65,21.24-58.1,21.3h-.27c-.31,0-.62-.02-.93-.02v48.19c0,14.95,12.12,27.07,27.07,27.07h85.2c3.03-.61,5.97-1.24,8.83-1.91,16.47-3.83,30-8.58,41.04-14.07Zm-75.04-72.19c-.28.18-.59.26-.9.26-.56,0-1.1-.28-1.42-.78-2.15-3.38-3.96-6.3-5.54-8.87-10.25-16.55-11.08-17.91-36.35-34.61-.78-.51-.99-1.56-.48-2.34.51-.78,1.56-.99,2.34-.48,25.88,17.11,26.97,18.86,37.36,35.65,1.58,2.55,3.38,5.46,5.52,8.83.5.79.27,1.83-.52,2.33Z"/>
          <path class="cls-3" d="m1.2,89.28c17.45-.07,33.74-6.04,58.1-21.3.99-.62,1.29-1.92.67-2.91s-1.92-1.28-2.91-.67c-22.18,13.9-37.71,21.1-57.06,20.56v4.3c.31,0,.62.02.93.02h.27Z"/>
          <path class="cls-3" d="m82.1,65.19c-10.39-16.78-11.47-18.54-37.36-35.65-.78-.51-1.82-.3-2.34.48-.51.78-.3,1.82.48,2.34,25.26,16.7,26.1,18.05,36.35,34.61,1.59,2.56,3.39,5.48,5.54,8.87.32.51.87.78,1.42.78.31,0,.62-.08.9-.26.79-.5,1.02-1.54.52-2.33-2.14-3.37-3.94-6.28-5.52-8.83Z"/>
        </g>
      </g>
    </g>
  </g>
</svg>