<?xml version="1.0" encoding="UTF-8"?>
<svg id="Layer_2" data-name="Layer 2" xmlns="http://www.w3.org/2000/svg" viewBox="0 0 164.52 164.52">
  <defs>
    <style>
      .cls-1 {
        fill: #471d00;
      }

      .cls-1, .cls-2, .cls-3, .cls-4 {
        stroke-width: 0px;
      }

      .cls-2 {
        fill: #542f16;
      }

      .cls-3 {
        fill: #cc9456;
      }

      .cls-4 {
        fill: #ecac01;
      }
    </style>
  </defs>
  <g id="Portraits">
    <g id="C">
      <g id="Tiles">
        <g id="C-18">
          <path class="cls-4" d="m137.45,0h-15.34c1.3,4.24,2.88,8.09,4.79,11.43.28.49.56.96.84,1.42.29-.74.32-1.11.32-1.11,0,0,13.62,1.11,33.54,3.1-4.47-8.8-13.6-14.84-24.15-14.84Z"/>
          <path class="cls-1" d="m11.32,75.52c9.97-1.34,24.88-1.23,44.36-11.19C116.16,33.38,126.11,17.05,127.74,12.85c-.28-.46-.56-.93-.84-1.42-1.91-3.34-3.49-7.19-4.79-11.43h-19.07C77.77,4.33,46.74,6.86,8.75,7.14,3.37,12.09,0,19.18,0,27.07v33.65c6.38,2.68,9.92,7.14,11.32,14.8Z"/>
          <path class="cls-3" d="m11.32,75.52c-1.4-7.66-4.94-12.12-11.32-14.8v19.48c2.46-2.94,6.25-4,11.32-4.68Z"/>
          <path class="cls-3" d="m0,125.48v11.97c0,2.8.43,5.51,1.22,8.05-.23-6.68-.54-13.37-1.22-20.02Z"/>
          <path class="cls-3" d="m127.74,12.85c-1.63,4.2-11.58,20.53-72.06,51.47-19.47,9.96-34.38,9.85-44.36,11.19-5.07.68-8.86,1.74-11.32,4.68v45.28c.68,6.65.99,13.33,1.22,20.02,3.43,11.02,13.71,19.02,25.85,19.02h110.38c14.95,0,27.07-12.12,27.07-27.07V27.07c0-4.4-1.06-8.56-2.92-12.23-19.92-1.98-33.54-3.1-33.54-3.1,0,0-.03.37-.32,1.11Z"/>
          <path class="cls-2" d="m27.07,0c-7.07,0-13.5,2.71-18.32,7.14,37.99-.28,69.02-2.81,94.29-7.14H27.07Z"/>
        </g>
      </g>
    </g>
  </g>
</svg>