<?xml version="1.0" encoding="UTF-8"?>
<svg id="Layer_2" data-name="Layer 2" xmlns="http://www.w3.org/2000/svg" viewBox="0 0 164.52 164.52">
  <defs>
    <style>
      .cls-1 {
        fill: #471d00;
      }

      .cls-1, .cls-2, .cls-3, .cls-4 {
        stroke-width: 0px;
      }

      .cls-2 {
        fill: #542f16;
      }

      .cls-3 {
        fill: #fff5cc;
      }

      .cls-4 {
        fill: #ecac01;
      }
    </style>
  </defs>
  <g id="Portraits">
    <g id="C">
      <g id="Tiles">
        <g id="C-8">
          <path class="cls-4" d="m137.45,0H27.07c-6.43,0-12.33,2.25-16.98,5.99,32.41,45.02,32.51,108.58,32.16,139.73-.04,3.66-.16,7.17-.33,10.56,4.22.98,8.34,3.43,11.79,8.23h83.73c14.95,0,27.07-12.12,27.07-27.07V27.07c0-14.95-12.12-27.07-27.07-27.07Z"/>
          <path class="cls-1" d="m41.92,156.28c-.14,2.84-.33,5.58-.55,8.23h12.34c-3.46-4.8-7.57-7.25-11.79-8.23Z"/>
          <path class="cls-2" d="m0,109.29v28.16c0,4.72,1.21,9.16,3.34,13.02.34-13.2-.28-27.43-3.34-41.18Z"/>
          <path class="cls-3" d="m42.25,145.72c.35-31.15.26-94.71-32.16-139.73C3.94,10.95,0,18.55,0,27.07v82.22c3.05,13.75,3.67,27.98,3.34,41.18,4.6,8.37,13.51,14.05,23.73,14.05h14.3c.22-2.65.41-5.4.55-8.23.17-3.39.29-6.9.33-10.56Z"/>
        </g>
      </g>
    </g>
  </g>
</svg>