<?xml version="1.0" encoding="UTF-8"?>
<svg id="Layer_2" data-name="Layer 2" xmlns="http://www.w3.org/2000/svg" viewBox="0 0 164.52 164.52">
  <defs>
    <style>
      .cls-1 {
        fill: #471d00;
      }

      .cls-1, .cls-2, .cls-3, .cls-4 {
        stroke-width: 0px;
      }

      .cls-2 {
        fill: #542f16;
      }

      .cls-3 {
        fill: #fff5cc;
      }

      .cls-4 {
        fill: #ecac01;
      }
    </style>
  </defs>
  <g id="Portraits">
    <g id="C">
      <g id="Tiles">
        <g id="C-12">
          <path class="cls-4" d="m137.45,0H54.86c5.16,8.36,8.55,22.73,7.99,46.51-1.02,43.53-18.06,60.16-34.45,66.03,4.14,16.96,8.68,34.75,9.81,51.98h99.24c14.95,0,27.07-12.12,27.07-27.07V27.07c0-14.95-12.12-27.07-27.07-27.07Z"/>
          <path class="cls-1" d="m26.05,44.44c-.58,1.55-1.17,3.09-1.8,4.62-6.85,16.72-1.76,39.25,4.15,63.47,16.39-5.87,33.44-22.5,34.45-66.03.56-23.78-2.83-38.15-7.99-46.51h-13.63c-1.27,13.69-3.61,24.93-6.58,34.16-1.63,5.05-4.81,8.41-8.59,10.28Z"/>
          <path class="cls-2" d="m24.25,49.06c.63-1.53,1.23-3.08,1.8-4.62C15.4,49.7-.1,43.01.39,28.07c.08-2.33.24-4.93.46-7.77-.56,2.16-.85,4.43-.85,6.77v110.38c0,14.95,12.12,27.07,27.07,27.07h11.14c-1.13-17.23-5.67-35.02-9.81-51.98-5.91-24.23-11-46.75-4.15-63.47Z"/>
          <path class="cls-3" d="m.39,28.07c-.49,14.94,15.01,21.63,25.66,16.38,3.78-1.87,6.96-5.23,8.59-10.28,2.97-9.23,5.31-20.47,6.58-34.16h-14.16C14.46,0,3.86,8.63.85,20.3c-.22,2.84-.39,5.44-.46,7.77Z"/>
        </g>
      </g>
    </g>
  </g>
</svg>