<?xml version="1.0" encoding="UTF-8"?>
<svg id="Layer_2" data-name="Layer 2" xmlns="http://www.w3.org/2000/svg" viewBox="0 0 164.52 164.52">
  <defs>
    <style>
      .cls-1 {
        fill: #542f16;
      }

      .cls-1, .cls-2, .cls-3 {
        stroke-width: 0px;
      }

      .cls-2 {
        fill: #cc9456;
      }

      .cls-3 {
        fill: #ecac01;
      }
    </style>
  </defs>
  <g id="Portraits">
    <g id="C">
      <g id="Tiles">
        <g id="C-16">
          <path class="cls-3" d="m137.45,0H38.31c1.44,27.45-6.16,53.34-38.31,71.95v36.82c43.96,4.5,111.2,12.59,137.49,22.12,9.3,3.37,18.15,7.29,26.55,11.62.31-1.64.48-3.33.48-5.06V27.07c0-14.95-12.12-27.07-27.07-27.07Z"/>
          <path class="cls-2" d="m0,108.77v28.68c0,14.95,12.12,27.07,27.07,27.07h110.38c13.22,0,24.22-9.48,26.59-22.01-8.4-4.32-17.24-8.24-26.55-11.62-26.29-9.53-93.54-17.62-137.49-22.12Z"/>
          <path class="cls-1" d="m38.31,0h-11.24C12.12,0,0,12.12,0,27.07v44.88C32.15,53.34,39.74,27.45,38.31,0Z"/>
        </g>
      </g>
    </g>
  </g>
</svg>