<?xml version="1.0" encoding="UTF-8"?>
<svg id="Layer_2" data-name="Layer 2" xmlns="http://www.w3.org/2000/svg" viewBox="0 0 164.23 164.52">
  <defs>
    <style>
      .cls-1 {
        fill: #fff5cc;
      }

      .cls-1, .cls-2 {
        stroke-width: 0px;
      }

      .cls-2 {
        fill: #ecac01;
      }
    </style>
  </defs>
  <g id="Portraits">
    <g id="C">
      <g id="Tiles">
        <g id="C-5">
          <path class="cls-2" d="m137.16,0H26.78C13.17,0,1.91,10.05,0,23.13v118.25c1.91,13.08,13.17,23.13,26.78,23.13h102.6c-.38-5.14-.62-10.61-.68-16.42-.46-40.73,10.12-111.74,28.72-138.96-4.96-5.6-12.2-9.13-20.27-9.13Z"/>
          <path class="cls-1" d="m128.7,148.09c.07,5.82.3,11.28.68,16.42h7.77c14.95,0,27.07-12.12,27.07-27.07V27.07c0-6.88-2.57-13.16-6.8-17.94-18.61,27.23-29.19,98.24-28.72,138.96Z"/>
        </g>
      </g>
    </g>
  </g>
</svg>