<?xml version="1.0" encoding="UTF-8"?>
<svg id="Layer_2" data-name="Layer 2" xmlns="http://www.w3.org/2000/svg" viewBox="0 0 164.23 164.52">
  <defs>
    <style>
      .cls-1 {
        fill: #471d00;
      }

      .cls-1, .cls-2, .cls-3, .cls-4 {
        stroke-width: 0px;
      }

      .cls-2 {
        fill: #542f16;
      }

      .cls-3 {
        fill: #fff5cc;
      }

      .cls-4 {
        fill: #ecac01;
      }
    </style>
  </defs>
  <g id="Portraits">
    <g id="C">
      <g id="Tiles">
        <g id="C-9">
          <path class="cls-4" d="m0,23.13v118.25c1.91,13.08,13.17,23.13,26.78,23.13h102.85c1.22-16.45,5.51-33.37,9.74-49.59-12.56-8.78-23.34-26.38-24.14-60.72-.76-32.59,5.88-47.5,14.36-53.5-.02-.24-.04-.47-.06-.71H26.78C13.17,0,1.91,10.05,0,23.13Z"/>
          <path class="cls-1" d="m147.54,51.44c-.32-1.29-.61-2.59-.9-3.88-4.54-1.63-8.46-5.21-10.33-11.02-3.09-9.6-5.49-21.38-6.72-35.83-8.48,6-15.12,20.91-14.36,53.5.8,34.34,11.58,51.94,24.14,60.72,6.26-24,12.37-46.45,8.17-63.49Z"/>
          <path class="cls-2" d="m146.64,47.56c.29,1.3.58,2.59.9,3.88,4.21,17.04-1.91,39.49-8.17,63.49-4.23,16.22-8.52,33.14-9.74,49.59h7.53c14.95,0,27.07-12.12,27.07-27.07V44.65c-4.88,3.86-11.75,5-17.59,2.91Z"/>
          <path class="cls-3" d="m136.31,36.54c1.87,5.81,5.79,9.39,10.33,11.02,5.84,2.1,12.71.96,17.59-2.91v-17.58c0-14.95-12.12-27.07-27.07-27.07h-7.63c.02.24.04.47.06.71,1.23,14.44,3.63,26.23,6.72,35.83Z"/>
        </g>
      </g>
    </g>
  </g>
</svg>