<?xml version="1.0" encoding="UTF-8"?>
<svg id="Layer_2" data-name="Layer 2" xmlns="http://www.w3.org/2000/svg" viewBox="0 0 164.23 164.52">
  <defs>
    <style>
      .cls-1 {
        fill: #542f16;
      }

      .cls-1, .cls-2, .cls-3 {
        stroke-width: 0px;
      }

      .cls-2 {
        fill: #cc9456;
      }

      .cls-3 {
        fill: #ecac01;
      }
    </style>
  </defs>
  <g id="Portraits">
    <g id="C">
      <g id="Tiles">
        <g id="C-13">
          <path class="cls-3" d="m164.23,112.09v-40.69C134.8,52.51,127.86,26.96,129.52,0H26.78C13.17,0,1.91,10.05,0,23.13v118.25c.41,2.78,1.24,5.43,2.42,7.87,10.42-6.07,21.75-11.51,34.1-15.99,24.53-8.9,84.36-16.54,127.71-21.17Z"/>
          <path class="cls-2" d="m26.78,164.52h110.38c14.95,0,27.07-12.12,27.07-27.07v-25.36c-43.35,4.64-103.17,12.28-127.71,21.17-12.35,4.48-23.68,9.92-34.1,15.99,4.39,9.03,13.64,15.26,24.36,15.26Z"/>
          <path class="cls-1" d="m164.23,71.39V27.07c0-14.95-12.12-27.07-27.07-27.07h-7.64c-1.65,26.96,5.29,52.51,34.71,71.39Z"/>
        </g>
      </g>
    </g>
  </g>
</svg>