<?xml version="1.0" encoding="UTF-8"?>
<svg id="Layer_2" data-name="Layer 2" xmlns="http://www.w3.org/2000/svg" viewBox="0 0 164.52 164.52">
  <defs>
    <style>
      .cls-1 {
        fill: #542f16;
      }

      .cls-1, .cls-2, .cls-3 {
        stroke-width: 0px;
      }

      .cls-2 {
        fill: #fff5cc;
      }

      .cls-3 {
        fill: #ecac01;
      }
    </style>
  </defs>
  <g id="Portraits">
    <g id="C">
      <g id="Tiles">
        <g id="C-6">
          <path class="cls-3" d="m0,27.07v40.81C35.82,30.53,72.23,9.66,104.74,0H27.07C12.12,0,0,12.12,0,27.07Z"/>
          <path class="cls-1" d="m27.98,152.7c-3.19,3.03-6,6.66-8.48,10.74,2.4.7,4.94,1.08,7.57,1.08h110.38c14.95,0,27.07-12.12,27.07-27.07v-27.9c-22.34-2.54-36.3-7.21-44.19-13.15-32.69,15.39-70.91,35.95-92.35,56.31Z"/>
          <path class="cls-2" d="m0,67.88v69.57c0,12.32,8.24,22.71,19.5,25.99,2.48-4.07,5.28-7.7,8.48-10.74,21.44-20.37,59.67-40.92,92.35-56.31-28.48-21.47,22.29-59.54,43.79-73.93-2.19-12.75-13.29-22.45-26.67-22.45h-32.71C72.23,9.66,35.82,30.53,0,67.88Z"/>
          <path class="cls-2" d="m120.33,96.39c7.89,5.94,21.85,10.61,44.19,13.15V27.07c0-1.57-.14-3.11-.4-4.62-21.49,14.4-72.27,52.47-43.79,73.93Z"/>
        </g>
      </g>
    </g>
  </g>
</svg>