<?xml version="1.0" encoding="UTF-8"?>
<svg id="Layer_2" data-name="Layer 2" xmlns="http://www.w3.org/2000/svg" viewBox="0 0 164.52 164.52">
  <defs>
    <style>
      .cls-1 {
        fill: #542f16;
      }

      .cls-1, .cls-2, .cls-3, .cls-4, .cls-5 {
        stroke-width: 0px;
      }

      .cls-2 {
        fill: #1a1a1a;
      }

      .cls-3 {
        fill: #3f1900;
      }

      .cls-4 {
        fill: #d1c695;
      }

      .cls-5 {
        fill: #fff5cc;
      }
    </style>
  </defs>
  <g id="Portraits">
    <g id="C">
      <g id="Tiles">
        <g id="C-10">
          <path class="cls-1" d="m2.75,101.07c.13,4.07-.93,7.52-2.75,10.29v26.09c0,14.95,12.12,27.07,27.07,27.07h82.68c.89-15.6,21.44-34.05,51-45.13.87-.33,1.84.11,2.17.99.33.87-.12,1.84-.99,2.17-27.81,10.43-47.87,27.93-48.82,41.97h24.33c14.95,0,27.07-12.12,27.07-27.07V27.07c0-14.95-12.12-27.07-27.07-27.07H27.07c-3.63,0-7.09.72-10.25,2.02C3.61,28.13,1.71,68.99,2.75,101.07Zm118.98-23.44c-.68.95-1.99,1.17-2.94.49-2.7-1.93-6.41-4.14-10.99-5.88,2.6,2.77,4.01,6.62,3.54,10.69-.85,7.34-7.49,12.6-14.83,11.75s-12.6-7.49-11.75-14.83c.56-4.81,3.61-8.71,7.7-10.6-14.02-.3-24.72,5.97-28.89,8.88-.37.26-.79.38-1.2.38-.67,0-1.32-.31-1.73-.9-.67-.96-.43-2.27.52-2.93,6.14-4.28,18.94-11.19,35.66-9.38,10.98,1.19,19.34,5.76,24.42,9.39.95.68,1.17,1.99.49,2.94ZM28.42,27.1c25.62-14.85,58.52-25.07,108.38,11.69,1.87,1.38,2.27,4.02.89,5.9-.83,1.12-2.1,1.71-3.4,1.71-.87,0-1.75-.27-2.5-.82C85.98,11.8,57.07,20.24,32.65,34.4c-2.02,1.17-4.59.48-5.76-1.53-1.17-2.01-.48-4.59,1.53-5.76Z"/>
          <path class="cls-5" d="m0,27.07v84.29c1.82-2.77,2.89-6.22,2.75-10.29C1.71,68.99,3.61,28.13,16.82,2.02,6.95,6.06,0,15.75,0,27.07Z"/>
          <path class="cls-2" d="m121.24,74.69c-5.08-3.62-13.44-8.2-24.42-9.39-16.72-1.82-29.52,5.09-35.66,9.38-.96.67-1.19,1.98-.52,2.93.41.59,1.06.9,1.73.9.42,0,.84-.12,1.2-.38,4.17-2.91,14.87-9.18,28.89-8.88,2.15-.99,4.59-1.44,7.12-1.15,3.27.38,6.12,1.91,8.21,4.13,4.59,1.74,8.3,3.95,10.99,5.88.95.67,2.26.46,2.94-.49s.46-2.26-.49-2.94Z"/>
          <path class="cls-2" d="m99.59,68.11c-2.53-.29-4.97.15-7.12,1.15-4.1,1.89-7.15,5.79-7.7,10.6-.85,7.34,4.41,13.98,11.75,14.83s13.98-4.41,14.83-11.75c.47-4.07-.94-7.92-3.54-10.69-2.09-2.22-4.94-3.75-8.21-4.13Z"/>
          <path class="cls-4" d="m26.89,32.86c1.17,2.01,3.75,2.7,5.76,1.53,24.42-14.15,53.33-22.6,99.15,11.19.75.55,1.63.82,2.5.82,1.29,0,2.57-.59,3.4-1.71,1.38-1.87.98-4.51-.89-5.9C86.95,2.03,54.04,12.26,28.42,27.1c-2.01,1.17-2.7,3.75-1.53,5.76Z"/>
          <path class="cls-3" d="m161.93,122.54c.87-.33,1.31-1.3.99-2.17-.33-.87-1.3-1.31-2.17-.99-29.57,11.09-50.11,29.53-51,45.13h3.37c.94-14.04,21-31.54,48.82-41.97Z"/>
        </g>
      </g>
    </g>
  </g>
</svg>