<?xml version="1.0" encoding="UTF-8"?>
<svg id="Layer_2" data-name="Layer 2" xmlns="http://www.w3.org/2000/svg" viewBox="0 0 164.52 164.52">
  <defs>
    <style>
      .cls-1 {
        fill: #471d00;
      }

      .cls-1, .cls-2, .cls-3, .cls-4 {
        stroke-width: 0px;
      }

      .cls-2 {
        fill: #542f16;
      }

      .cls-3 {
        fill: #3f1900;
      }

      .cls-4 {
        fill: #ecac01;
      }
    </style>
  </defs>
  <g id="Portraits">
    <g id="C">
      <g id="Tiles">
        <g id="C-14">
          <path class="cls-4" d="m27.07,164.52h23.59c.14-.51.28-1.03.41-1.54-20.98-4.72-37.37-10.88-50.05-18.15,3.21,11.37,13.65,19.7,26.05,19.7Z"/>
          <path class="cls-1" d="m50.66,164.52h7.7c-2.49-.5-4.91-1.01-7.28-1.54-.14.52-.27,1.04-.41,1.54Z"/>
          <path class="cls-2" d="m58.36,164.52h79.09c14.95,0,27.07-12.12,27.07-27.07v-48.3c-17.16-.87-35.74-7.5-61.14-18.39-1.07-.46-1.57-1.7-1.11-2.77s1.7-1.56,2.77-1.11c25.85,11.08,43.99,16.89,59.47,17.91V27.07c0-14.95-12.12-27.07-27.07-27.07h-24.36c.02.46.06.91.13,1.36,1.68,11.54,18.06,18.96,46.11,20.91.93.06,1.63.87,1.57,1.8-.06.89-.8,1.57-1.68,1.57-.04,0-.08,0-.12,0-38.2-2.65-47.84-14.4-49.21-23.79-.09-.61-.13-1.22-.16-1.84H27.07C12.12,0,0,12.12,0,27.07v110.38c0,2.56.36,5.03,1.02,7.37,12.68,7.27,29.07,13.44,50.05,18.15,2.37.53,4.79,1.05,7.28,1.54Zm57.76-122.61c-25.26,16.7-26.1,18.05-36.35,34.61-1.59,2.56-3.39,5.48-5.54,8.87-.32.51-.87.78-1.42.78-.31,0-.62-.08-.9-.26-.79-.5-1.02-1.54-.52-2.33,2.14-3.37,3.94-6.28,5.52-8.83,10.39-16.78,11.47-18.54,37.36-35.65.78-.51,1.82-.3,2.34.48.51.78.3,1.82-.48,2.34Z"/>
          <path class="cls-3" d="m159.09,25.63s.08,0,.12,0c.88,0,1.62-.68,1.68-1.57.06-.93-.64-1.74-1.57-1.8-28.05-1.95-44.43-9.37-46.11-20.91-.07-.45-.11-.9-.13-1.36h-3.36c.02.62.07,1.23.16,1.84,1.37,9.39,11.02,21.13,49.21,23.79Z"/>
          <path class="cls-3" d="m102.28,67.99c-.46,1.07.04,2.31,1.11,2.77,25.4,10.89,43.97,17.51,61.14,18.39v-4.35c-15.48-1.03-33.62-6.83-59.47-17.91-1.07-.46-2.31.04-2.77,1.11Z"/>
          <path class="cls-3" d="m114.26,39.1c-25.88,17.11-26.97,18.86-37.36,35.65-1.58,2.55-3.38,5.46-5.52,8.83-.5.79-.27,1.83.52,2.33.28.18.59.26.9.26.56,0,1.1-.28,1.42-.78,2.15-3.38,3.96-6.3,5.54-8.87,10.25-16.56,11.08-17.91,36.35-34.61.78-.51.99-1.56.48-2.34-.51-.78-1.56-.99-2.34-.48Z"/>
        </g>
      </g>
    </g>
  </g>
</svg>