<?xml version="1.0" encoding="UTF-8"?>
<svg id="Layer_2" data-name="Layer 2" xmlns="http://www.w3.org/2000/svg" viewBox="0 0 164.52 164.52">
  <defs>
    <style>
      .cls-1 {
        fill: #471d00;
      }

      .cls-1, .cls-2, .cls-3, .cls-4 {
        stroke-width: 0px;
      }

      .cls-2 {
        fill: #542f16;
      }

      .cls-3 {
        fill: #cc9456;
      }

      .cls-4 {
        fill: #ecac01;
      }
    </style>
  </defs>
  <g id="Portraits">
    <g id="C">
      <g id="Tiles">
        <g id="C-17">
          <path class="cls-4" d="m45.26,11.72c1.96-3.41,3.58-7.36,4.9-11.72h-23.09C16.12,0,6.7,6.5,2.44,15.85c22.48-2.35,39.44-3.8,42.79-4.08.01-.02.02-.03.03-.05Z"/>
          <path class="cls-1" d="m45.23,11.77c.4-.03.63-.05.63-.05,0,0-6.97,41.17,72.89,44.06,21.49.78,36.21.95,45.77,3.87V27.07c0-7.93-3.41-15.06-8.85-20.02-35.06-.5-64.08-2.97-88.03-7.05h-17.48c-1.32,4.35-2.94,8.3-4.9,11.72-.01.02-.02.03-.03.05Z"/>
          <path class="cls-3" d="m0,27.07v110.38c0,14.95,12.12,27.07,27.07,27.07h110.38c14.95,0,27.07-12.12,27.07-27.07v-34.56c-.63-6.74-.62-11.77,0-15.54v-27.69c-9.56-2.93-24.28-3.1-45.77-3.87C38.88,52.88,45.86,11.72,45.86,11.72c0,0-.23.02-.63.05-3.35.28-20.31,1.73-42.79,4.08-1.56,3.42-2.44,7.22-2.44,11.22Z"/>
          <path class="cls-3" d="m164.52,102.89v-15.54c-.62,3.77-.63,8.8,0,15.54Z"/>
          <path class="cls-2" d="m137.45,0h-69.81c23.95,4.08,52.97,6.56,88.03,7.05-4.81-4.38-11.2-7.05-18.22-7.05Z"/>
        </g>
      </g>
    </g>
  </g>
</svg>