<?xml version="1.0" encoding="UTF-8"?>
<svg id="Layer_2" data-name="Layer 2" xmlns="http://www.w3.org/2000/svg" viewBox="0 0 164.52 164.52">
  <defs>
    <style>
      .cls-1 {
        fill: #2d8462;
      }

      .cls-1, .cls-2, .cls-3 {
        stroke-width: 0px;
      }

      .cls-2 {
        fill: #3b3f56;
      }

      .cls-3 {
        fill: #fcc7a2;
      }
    </style>
  </defs>
  <g id="Portraits">
    <g id="F">
      <g id="Tiles">
        <g id="F-7">
          <path class="cls-1" d="m137.45,0h-45.75c10.65,5.39,20.54,10.83,28.93,15.68,14.75,8.54,30.01,20.02,43.89,31.85v-20.47c0-14.95-12.12-27.07-27.07-27.07Z"/>
          <path class="cls-3" d="m90.82,149.86c-35.7,1.59-64.94-.91-90.65-9.46,1.47,13.56,12.95,24.12,26.91,24.12h110.38c3.13,0,6.14-.54,8.94-1.52-13.44-8.71-31-14.24-55.57-13.14Z"/>
          <path class="cls-2" d="m91.7,0H27.07C12.12,0,0,12.12,0,27.07v110.38c0,1,.06,1.98.16,2.95,25.71,8.56,54.95,11.05,90.65,9.46,24.57-1.09,42.13,4.44,55.57,13.14,10.56-3.69,18.13-13.74,18.13-25.55V47.54c-13.88-11.83-29.14-23.31-43.89-31.85-8.39-4.86-18.28-10.3-28.93-15.68Z"/>
        </g>
      </g>
    </g>
  </g>
</svg>