<?xml version="1.0" encoding="UTF-8"?>
<svg id="Layer_2" data-name="Layer 2" xmlns="http://www.w3.org/2000/svg" viewBox="0 0 164.52 164.52">
  <defs>
    <style>
      .cls-1 {
        fill: #1a1a1a;
      }

      .cls-1, .cls-2, .cls-3 {
        stroke-width: 0px;
      }

      .cls-2 {
        fill: #1b1e38;
      }

      .cls-3 {
        fill: #fcc7a2;
      }
    </style>
  </defs>
  <g id="Portraits">
    <g id="F">
      <g id="Tiles">
        <g id="F-11">
          <path class="cls-3" d="m0,27.07v110.38c0,14.95,12.12,27.07,27.07,27.07h110.38c7.15,0,13.64-2.77,18.48-7.3l8.59-60.07V27.07c0-14.95-12.12-27.07-27.07-27.07H27.07C12.12,0,0,12.12,0,27.07Zm127.02,26.98c-.07-.07-8.48-7.52-31.06-2.85,6.82,2.16,11.76,8.53,11.76,16.06,0,9.3-7.54,16.84-16.84,16.84s-16.84-7.54-16.84-16.84c0-3.59,1.13-6.91,3.04-9.64-4.73,2.4-8.24,4.94-10.69,7.07-4.98,4.33-6.86,7.93-6.88,7.97l-3.76-1.9c.33-.66,8.39-16.15,35.86-22.9,27.65-6.8,37.92,2.75,38.35,3.16l-2.93,3.03Zm-80.66-18.52c.69-1.09,17.23-26.79,55.68-24.89,38.49,1.93,49.1,23.34,49.53,24.25,1,2.1.1,4.62-2,5.62-2.1,1-4.62.1-5.62-2-.35-.69-9.22-17.79-42.34-19.45-33.54-1.69-47.97,20.71-48.11,20.94-.8,1.28-2.17,1.98-3.58,1.98-.76,0-1.54-.21-2.23-.64-1.97-1.24-2.57-3.84-1.34-5.81Z"/>
          <path class="cls-2" d="m47.69,41.35c.7.43,1.47.64,2.23.64,1.4,0,2.78-.7,3.58-1.98.14-.23,14.57-22.63,48.11-20.94,33.12,1.66,42,18.76,42.34,19.45,1,2.1,3.51,3,5.62,2,2.1-1,3-3.51,2-5.62-.43-.91-11.04-22.33-49.53-24.25-38.45-1.9-55,23.8-55.68,24.89-1.23,1.97-.64,4.58,1.34,5.81Z"/>
          <path class="cls-1" d="m91.6,47.86c-27.47,6.75-35.53,22.24-35.86,22.9l3.76,1.9s1.9-3.64,6.88-7.97c2.45-2.13,5.96-4.67,10.69-7.07,3.05-4.35,8.09-7.2,13.8-7.2,1.77,0,3.48.28,5.08.78,22.58-4.67,30.99,2.78,31.06,2.85l2.93-3.03c-.42-.41-10.7-9.95-38.35-3.16Z"/>
          <path class="cls-1" d="m77.08,57.62c-1.91,2.73-3.04,6.05-3.04,9.64,0,9.3,7.54,16.84,16.84,16.84s16.84-7.54,16.84-16.84c0-7.53-4.94-13.9-11.76-16.06-1.6-.51-3.31-.78-5.08-.78-5.71,0-10.76,2.85-13.8,7.2Z"/>
          <path class="cls-2" d="m155.93,157.22c5.28-4.94,8.59-11.97,8.59-19.77v-40.3l-8.59,60.07Z"/>
        </g>
      </g>
    </g>
  </g>
</svg>