<?xml version="1.0" encoding="UTF-8"?>
<svg id="Layer_2" data-name="Layer 2" xmlns="http://www.w3.org/2000/svg" viewBox="0 0 164.52 164.52">
  <defs>
    <style>
      .cls-1 {
        fill: #2d8462;
      }

      .cls-1, .cls-2, .cls-3, .cls-4, .cls-5, .cls-6 {
        stroke-width: 0px;
      }

      .cls-2 {
        fill: #1b1e38;
      }

      .cls-3 {
        fill: #dbad89;
      }

      .cls-4 {
        fill: #b28a6f;
      }

      .cls-5 {
        fill: #80ba5a;
      }

      .cls-6 {
        fill: #fcc7a2;
      }
    </style>
  </defs>
  <g id="Portraits">
    <g id="F">
      <g id="Tiles">
        <g id="F-15">
          <path class="cls-1" d="m153.08,62.58c-11.43,36.81-26.42,66.64-47.25,88.46.05,1.68.12,3.34.21,4.95,1.82-2.32,3.7-3.69,5.89-3.72,9.55-.13,20.45,4.55,31.4,11.6,12.12-2.69,21.19-13.49,21.19-26.42V58.26c-.75.45-1.52.84-2.31,1.16-2.34.95-5.45,2.02-9.13,3.16Z"/>
          <path class="cls-2" d="m153.08,62.58c3.68-1.15,6.79-2.21,9.13-3.16.79-.32,1.56-.71,2.31-1.16v-31.19c0-.08,0-.16,0-.24-.61-.03-1.22-.1-1.82-.21-2.91,12.63-6.09,24.63-9.61,35.97Z"/>
          <path class="cls-3" d="m105.83,151.04c-4.68,4.9-9.65,9.4-14.94,13.48h10.04c1.8-3.45,3.44-6.39,5.12-8.53-.09-1.61-.16-3.27-.21-4.95Z"/>
          <path class="cls-3" d="m164.51,26.83c-.02-1.9-.23-3.76-.62-5.54-.4,1.79-.8,3.57-1.2,5.33.61.11,1.22.18,1.82.21Z"/>
          <path class="cls-6" d="m108.73,101.2c-5.72-13.24-16.6-34.71-29.37-41.52C61.68,50.24,7.06,72.08,0,74.97v16.06c30.85-1.54,50.9-14.72,51.11-14.86l2.35,3.5c-.89.6-21.3,14.06-53.46,15.58v42.19c0,3.27.58,6.4,1.64,9.3,50.16-4.61,84.4-24.5,107.09-45.55Z"/>
          <path class="cls-6" d="m73.78,34.62c17.79-1.46,44.13,25.46,57.57,40.76,12.35-17.45,16.97-31.17,16.97-31.17l5.53-38.67c-4.55-3.47-10.23-5.54-16.4-5.54H27.07C12.12,0,0,12.12,0,27.07v10.6c20.18.1,44.46-.63,73.78-3.04Z"/>
          <path class="cls-5" d="m111.93,152.27c-2.2.03-4.07,1.4-5.89,3.72-1.68,2.14-3.31,5.07-5.12,8.53h36.53c2.02,0,3.99-.23,5.88-.65-10.95-7.05-21.85-11.73-31.4-11.6Z"/>
          <path class="cls-2" d="m79.36,59.67c12.77,6.81,23.65,28.29,29.37,41.52,9.42-8.74,16.86-17.68,22.61-25.82-13.44-15.3-39.77-42.22-57.57-40.76-29.32,2.41-53.6,3.14-73.78,3.04v37.3c7.06-2.89,61.68-24.73,79.36-15.3Z"/>
          <path class="cls-4" d="m53.46,79.67l-2.35-3.5c-.21.14-20.25,13.32-51.11,14.86v4.22c32.15-1.52,52.56-14.98,53.46-15.58Z"/>
          <path class="cls-2" d="m105.83,151.04c20.83-21.82,35.83-51.65,47.25-88.46,3.52-11.34,6.7-23.34,9.61-35.97.41-1.77.81-3.54,1.2-5.33-1.39-6.38-5.03-11.92-10.04-15.74l-5.53,38.67s-4.62,13.72-16.97,31.17c-5.75,8.13-13.19,17.07-22.61,25.82-22.69,21.05-56.93,40.94-107.09,45.55,3.79,10.37,13.75,17.77,25.43,17.77h63.81c5.29-4.08,10.27-8.58,14.94-13.48Z"/>
        </g>
      </g>
    </g>
  </g>
</svg>