<?xml version="1.0" encoding="UTF-8"?>
<svg id="Layer_2" data-name="Layer 2" xmlns="http://www.w3.org/2000/svg" viewBox="0 0 164.52 164.52">
  <defs>
    <style>
      .cls-1 {
        fill: #77ad53;
      }

      .cls-1, .cls-2, .cls-3, .cls-4 {
        stroke-width: 0px;
      }

      .cls-2 {
        fill: #1b1e38;
      }

      .cls-3 {
        fill: #dbad89;
      }

      .cls-4 {
        fill: #80ba5a;
      }
    </style>
  </defs>
  <g id="Portraits">
    <g id="F">
      <g id="Tiles">
        <g id="F-18">
          <path class="cls-1" d="m22.46,109.24c-7.49,11.21-14.08,24.69-19.32,40.86,4.54,8.57,13.55,14.41,23.93,14.41h110.38c14.95,0,27.07-12.12,27.07-27.07v-17.24c-32.11,25.28-68.55,33.97-68.55,33.97L22.46,109.24Z"/>
          <path class="cls-1" d="m22.67,109.05v-.12s-.04.07-.06.1l.06.02Z"/>
          <path class="cls-3" d="m21.69,108.77l.92.26s.04-.07.07-.1l2.12-32.89s-5.11-21.3,20.24-27.22C79.59,40.75,91.8,15.91,100.03,0h-11.44C65.62,16.91,36.75,26.22,0,26.99c0,.03,0,.05,0,.08v110.38c0,4.57,1.14,8.88,3.14,12.66,5.24-16.17,11.83-29.65,19.32-40.86l-.78-.47Z"/>
          <path class="cls-4" d="m137.45,0h-37.42c-8.22,15.91-20.44,40.75-54.99,48.82-25.35,5.92-20.24,27.22-20.24,27.22l-2.12,32.89v.12s-.07-.02-.07-.02l-.92-.26.78.47,73.5,44.94s36.44-8.7,68.55-33.97V27.07c0-14.95-12.12-27.07-27.07-27.07Z"/>
          <path class="cls-2" d="m88.59,0H27.07C12.15,0,.04,12.08,0,26.99c36.75-.78,65.61-10.09,88.59-26.99Z"/>
        </g>
      </g>
    </g>
  </g>
</svg>