<?xml version="1.0" encoding="UTF-8"?>
<svg id="Layer_2" data-name="Layer 2" xmlns="http://www.w3.org/2000/svg" viewBox="0 0 164.52 164.52">
  <defs>
    <style>
      .cls-1 {
        fill: #2d8462;
      }

      .cls-1, .cls-2, .cls-3, .cls-4, .cls-5 {
        stroke-width: 0px;
      }

      .cls-2 {
        fill: #3b3f56;
      }

      .cls-3 {
        fill: #1b1e38;
      }

      .cls-4 {
        fill: #dbad89;
      }

      .cls-5 {
        fill: #fcc7a2;
      }
    </style>
  </defs>
  <g id="Portraits">
    <g id="F">
      <g id="Tiles">
        <g id="F-8">
          <path class="cls-1" d="m137.45,0H27.07c-1.22,0-2.42.09-3.59.24,10.83,10.96,18.85,20.34,22.09,25.47,6.48,10.26,11.31,26.53,7.43,45.36,1.75,28.88-6.61,60.85-15.74,88.87.8,1.44,1.52,2.98,2.16,4.58h98.04c14.95,0,27.07-12.12,27.07-27.07V27.07c0-14.95-12.12-27.07-27.07-27.07Z"/>
          <path class="cls-3" d="m12.3,128.65c.31,6.07.45,12.37.4,18.94,5.27-1.86,11.36-1.33,17.93,4.16,2.67,2.23,4.85,5.01,6.63,8.2,9.14-28.02,17.49-59.99,15.74-88.87-3.68,17.88-15.23,38.06-40.7,57.58Z"/>
          <path class="cls-4" d="m30.62,151.75c-6.57-5.49-12.66-6.02-17.93-4.16-.03,4.1-.14,8.29-.32,12.59,4.23,2.74,9.28,4.34,14.7,4.34h12.34c-.64-1.6-1.35-3.13-2.16-4.58-1.77-3.19-3.96-5.97-6.63-8.2Z"/>
          <path class="cls-5" d="m5.99,118.73c-1.9-2.66-3.89-5.32-5.99-7.93v26.65c0,3.51.68,6.86,1.89,9.94l4.07-28.45.03-.21Z"/>
          <path class="cls-3" d="m12.3,128.65c-.62.47-1.23.95-1.87,1.42l-3.19-9.58c-.41-.59-.83-1.17-1.25-1.76l-.03.21-4.07,28.45c2.09,5.28,5.78,9.74,10.48,12.79.18-4.3.29-8.49.32-12.59.05-6.56-.08-12.87-.4-18.94Z"/>
          <path class="cls-2" d="m7.23,120.49l3.19,9.58c.63-.47,1.25-.94,1.87-1.42,25.47-19.52,37.02-39.7,40.7-57.58,3.88-18.83-.95-35.1-7.43-45.36-3.24-5.13-11.26-14.51-22.09-25.47C10.23,2,0,13.34,0,27.07v83.73c2.1,2.61,4.08,5.27,5.99,7.93.42.59.84,1.17,1.25,1.76Z"/>
        </g>
      </g>
    </g>
  </g>
</svg>