<?xml version="1.0" encoding="UTF-8"?>
<svg id="Layer_2" data-name="Layer 2" xmlns="http://www.w3.org/2000/svg" viewBox="0 0 164.52 164.52">
  <defs>
    <style>
      .cls-1 {
        fill: #2d8462;
      }

      .cls-1, .cls-2, .cls-3 {
        stroke-width: 0px;
      }

      .cls-2 {
        fill: #1b1e38;
      }

      .cls-3 {
        fill: #dbad89;
      }
    </style>
  </defs>
  <g id="Portraits">
    <g id="F">
      <g id="Tiles">
        <g id="F-12">
          <path class="cls-1" d="m137.45,0H40.04c8.12,22.92,1.35,58.9-4.57,74.12-3.48,8.94-10.38,22.65-18.73,32.77-2.6,15.53-7.61,30.89-15.19,39.6,3.72,10.5,13.74,18.03,25.52,18.03h110.38c14.95,0,27.07-12.12,27.07-27.07V27.07c0-14.95-12.12-27.07-27.07-27.07Z"/>
          <path class="cls-2" d="m0,119.55v17.89c0,3.17.55,6.21,1.55,9.04,7.57-8.71,12.59-24.06,15.19-39.6-5.18,6.28-10.92,11.16-16.74,12.66Z"/>
          <path class="cls-3" d="m16.74,106.89c8.35-10.12,15.26-23.83,18.73-32.77,5.92-15.22,12.69-51.2,4.57-74.12h-12.97c-5.67,0-10.93,1.75-15.28,4.73-.86,12.75-2.32,26.35-4.42,40.89-2.26,15.62-4.69,30.58-7.36,44.88v29.05c5.82-1.51,11.56-6.39,16.74-12.66Z"/>
          <path class="cls-2" d="m11.79,4.73C4.67,9.61,0,17.79,0,27.07v63.43c2.68-14.3,5.11-29.26,7.36-44.88,2.1-14.54,3.56-28.14,4.42-40.89Z"/>
        </g>
      </g>
    </g>
  </g>
</svg>