<?xml version="1.0" encoding="UTF-8"?>
<svg id="Layer_2" data-name="Layer 2" xmlns="http://www.w3.org/2000/svg" viewBox="0 0 164.52 164.52">
  <defs>
    <style>
      .cls-1 {
        fill: #77ad53;
      }

      .cls-1, .cls-2, .cls-3 {
        stroke-width: 0px;
      }

      .cls-2 {
        fill: #2d8462;
      }

      .cls-3 {
        fill: #80ba5a;
      }
    </style>
  </defs>
  <g id="Portraits">
    <g id="F">
      <g id="Tiles">
        <g id="F-16">
          <path class="cls-2" d="m137.45,0H27.07C12.12,0,0,12.12,0,27.07v83.74c21.74,19.74,38.96,41.44,38.96,41.44-.31,1.04-.63,2.06-.96,3.08,12.39,3.06,25.69,6.15,39.34,9.18h60.11c14.95,0,27.07-12.12,27.07-27.07V27.07c0-14.95-12.12-27.07-27.07-27.07Z"/>
          <path class="cls-1" d="m34.53,164.52h42.8c-13.64-3.04-26.95-6.12-39.34-9.18-1.03,3.16-2.2,6.22-3.47,9.18Z"/>
          <path class="cls-3" d="m38.96,152.25S21.74,130.55,0,110.81v26.64c0,14.95,12.12,27.07,27.07,27.07h7.46c1.27-2.97,2.44-6.02,3.47-9.18.33-1.02.66-2.04.96-3.08Z"/>
        </g>
      </g>
    </g>
  </g>
</svg>