<?xml version="1.0" encoding="UTF-8"?>
<svg id="Layer_2" data-name="Layer 2" xmlns="http://www.w3.org/2000/svg" viewBox="0 0 164.23 164.52">
  <defs>
    <style>
      .cls-1 {
        fill: #2d8462;
      }

      .cls-1, .cls-2, .cls-3, .cls-4 {
        stroke-width: 0px;
      }

      .cls-2 {
        fill: #1b1e38;
      }

      .cls-3 {
        fill: #dbad89;
      }

      .cls-4 {
        fill: #fcc7a2;
      }
    </style>
  </defs>
  <g id="Portraits">
    <g id="F">
      <g id="Tiles">
        <g id="F-5">
          <path class="cls-1" d="m137.16,0H26.78C13.17,0,1.91,10.05,0,23.13v118.25c1.91,13.08,13.17,23.13,26.78,23.13h101.73c-2.8-9.91-4.85-19.79-5.64-29.22-3.57-42.78-2.75-82.9,40.7-114.12-2.69-12.12-13.49-21.18-26.42-21.18Z"/>
          <path class="cls-2" d="m122.88,135.29c.79,9.43,2.84,19.32,5.64,29.22h1.33c1.95-4.12,4.49-7.67,7.76-10.4,5.29-4.41,10.27-5.62,14.75-4.95-.71-13.43-.56-25.8.89-37.22l.72,4.07c1.37-20.38,4.86-38,10.26-53.41V27.07c0-2.02-.23-4-.65-5.89-43.45,31.22-44.27,71.34-40.7,114.12Z"/>
          <path class="cls-3" d="m137.6,154.12c-3.27,2.72-5.81,6.28-7.76,10.4h7.31c5.93,0,11.42-1.91,15.88-5.15-.28-3.47-.5-6.87-.68-10.2-4.49-.67-9.46.54-14.75,4.95Z"/>
          <path class="cls-4" d="m160.24,151.6c2.53-4.12,3.99-8.96,3.99-14.15V62.61c-5.4,15.42-8.89,33.03-10.26,53.41l6.27,35.58Z"/>
          <path class="cls-2" d="m153.25,111.95c-1.45,11.41-1.6,23.79-.89,37.22.18,3.34.4,6.73.68,10.2,2.88-2.09,5.33-4.73,7.2-7.77l-6.27-35.58-.72-4.07Z"/>
        </g>
      </g>
    </g>
  </g>
</svg>