<?xml version="1.0" encoding="UTF-8"?>
<svg id="Layer_2" data-name="Layer 2" xmlns="http://www.w3.org/2000/svg" viewBox="0 0 164.23 164.52">
  <defs>
    <style>
      .cls-1 {
        fill: #77ad53;
      }

      .cls-1, .cls-2, .cls-3 {
        stroke-width: 0px;
      }

      .cls-2 {
        fill: #2d8462;
      }

      .cls-3 {
        fill: #80ba5a;
      }
    </style>
  </defs>
  <g id="Portraits">
    <g id="F">
      <g id="Tiles">
        <g id="F-13">
          <path class="cls-2" d="m124.44,150.36s17.32-22.88,39.79-41.55V27.07c0-14.95-12.12-27.07-27.07-27.07H26.78C13.17,0,1.91,10.05,0,23.13v118.25c1.91,13.08,13.17,23.13,26.78,23.13h72.12c9.69-2.22,19.11-4.45,28.05-6.67-.91-2.44-1.76-4.93-2.51-7.49Z"/>
          <path class="cls-1" d="m126.95,157.85c-8.94,2.22-18.36,4.45-28.05,6.67h30.81c-.98-2.17-1.9-4.39-2.75-6.67Z"/>
          <path class="cls-3" d="m124.44,150.36c.75,2.56,1.6,5.06,2.51,7.49.85,2.28,1.77,4.5,2.75,6.67h7.46c14.95,0,27.07-12.12,27.07-27.07v-28.64c-22.47,18.67-39.79,41.55-39.79,41.55Z"/>
        </g>
      </g>
    </g>
  </g>
</svg>