<?xml version="1.0" encoding="UTF-8"?>
<svg id="Layer_2" data-name="Layer 2" xmlns="http://www.w3.org/2000/svg" viewBox="0 0 164.52 164.52">
  <defs>
    <style>
      .cls-1 {
        fill: #2d8462;
      }

      .cls-1, .cls-2, .cls-3, .cls-4 {
        stroke-width: 0px;
      }

      .cls-2 {
        fill: #3b3f56;
      }

      .cls-3 {
        fill: #1b1e38;
      }

      .cls-4 {
        fill: #fcc7a2;
      }
    </style>
  </defs>
  <g id="Portraits">
    <g id="F">
      <g id="Tiles">
        <g id="F-6">
          <path class="cls-1" d="m0,27.07v61.82c4.39-2.91,9.17-5.74,14.38-8.48-.04-17.14,13.15-47.82,23.7-60.63,6.21-7.53,12.94-14.08,20.07-19.77h-31.09C12.12,0,0,12.12,0,27.07Z"/>
          <path class="cls-3" d="m17.14,90.26c-1.93-2.1-2.75-5.56-2.76-9.86-5.21,2.74-9.99,5.57-14.38,8.48v35.09c5.11-12,11.49-22.58,19.05-32.07-.65-.44-1.29-.98-1.9-1.65Z"/>
          <path class="cls-4" d="m19.05,91.91c-7.56,9.49-13.94,20.07-19.05,32.07v13.47c0,14.95,12.12,27.07,27.07,27.07h110.38c14.33,0,26.06-11.14,27-25.24-19.26-6.86-36.56-17.24-53.16-32.04-55.49-49.49-78.02-5.79-92.24-15.32Z"/>
          <path class="cls-2" d="m38.08,19.77c-10.55,12.81-23.74,43.49-23.7,60.63,0,4.3.84,7.76,2.76,9.86.62.67,1.25,1.21,1.9,1.65,14.22,9.53,36.75-34.17,92.24,15.32,16.59,14.8,33.9,25.18,53.16,32.04.04-.61.07-1.22.07-1.83V27.07c0-14.95-12.12-27.07-27.07-27.07H58.16c-7.13,5.69-13.87,12.24-20.07,19.77Z"/>
        </g>
      </g>
    </g>
  </g>
</svg>