<?xml version="1.0" encoding="UTF-8"?>
<svg id="Layer_2" data-name="Layer 2" xmlns="http://www.w3.org/2000/svg" viewBox="0 0 164.52 164.52">
  <defs>
    <style>
      .cls-1 {
        fill: #1a1a1a;
      }

      .cls-1, .cls-2, .cls-3, .cls-4 {
        stroke-width: 0px;
      }

      .cls-2 {
        fill: #1b1e38;
      }

      .cls-3 {
        fill: #b28a6f;
      }

      .cls-4 {
        fill: #fcc7a2;
      }
    </style>
  </defs>
  <g id="Portraits">
    <g id="F">
      <g id="Tiles">
        <g id="F-10">
          <path class="cls-4" d="m0,27.07v71.9l10.56,59.93c4.57,3.52,10.29,5.62,16.51,5.62h96.07c1.9-4.77,4.29-9.13,6.09-12.43.35-.63.67-1.23.97-1.77,6.75-12.54,14.63-46,14.71-46.33l4.11.96c-.33,1.4-8.09,34.34-15.1,47.37-.3.56-.63,1.16-.98,1.8-1.54,2.8-3.53,6.45-5.23,10.41h9.74c14.95,0,27.07-12.12,27.07-27.07V27.07c0-14.95-12.12-27.07-27.07-27.07H27.07C12.12,0,0,12.12,0,27.07Zm111.1,47.3c-.05-.11-3.77-8.14-15.77-15.41,1.38,2.45,2.18,5.27,2.18,8.28,0,9.3-7.54,16.84-16.84,16.84s-16.84-7.54-16.84-16.84c0-7.74,5.23-14.25,12.35-16.22-22.77-6.14-31.38.99-31.47,1.06l-2.76-3.19c.45-.39,11.23-9.35,38.46-1.05,27.05,8.25,34.25,24.16,34.55,24.83l-3.86,1.69ZM17.27,34.71c.48-.9,12.15-22.17,50.52-24.09,38.39-1.91,54.95,22.71,55.63,23.76,1.27,1.95.73,4.56-1.22,5.83-.71.47-1.51.69-2.3.69-1.37,0-2.71-.67-3.52-1.9-.61-.92-14.82-21.63-48.16-19.96-33.27,1.66-43.1,18.91-43.5,19.64-1.11,2.03-3.67,2.79-5.7,1.7-2.04-1.1-2.82-3.62-1.74-5.67Z"/>
          <path class="cls-2" d="m19,40.38c2.03,1.1,4.59.33,5.7-1.7.4-.73,10.23-17.98,43.5-19.64,33.34-1.67,47.55,19.04,48.16,19.96.81,1.23,2.15,1.9,3.52,1.9.79,0,1.59-.22,2.3-.69,1.95-1.27,2.5-3.89,1.22-5.83-.69-1.05-17.25-25.67-55.63-23.76-38.37,1.92-50.04,23.19-50.52,24.09-1.08,2.05-.3,4.57,1.74,5.67Z"/>
          <path class="cls-1" d="m80.42,47.84c-27.24-8.3-38.02.66-38.46,1.05l2.76,3.19c.09-.08,8.7-7.2,31.47-1.06,1.43-.4,2.94-.63,4.5-.63,6.29,0,11.77,3.46,14.66,8.57,12,7.27,15.72,15.3,15.77,15.41l3.86-1.69c-.29-.67-7.49-16.58-34.55-24.83Z"/>
          <path class="cls-1" d="m80.68,50.39c-1.56,0-3.06.23-4.5.63-7.12,1.97-12.35,8.48-12.35,16.22,0,9.3,7.54,16.84,16.84,16.84s16.84-7.54,16.84-16.84c0-3.01-.8-5.83-2.18-8.28-2.89-5.11-8.37-8.57-14.66-8.57Z"/>
          <path class="cls-2" d="m0,137.45c0,8.73,4.14,16.5,10.56,21.45L0,98.97v38.48Z"/>
          <path class="cls-3" d="m133.91,152.31c7.01-13.04,14.78-45.98,15.1-47.37l-4.11-.96c-.08.34-7.96,33.79-14.71,46.33-.29.55-.62,1.14-.97,1.77-1.81,3.3-4.19,7.66-6.09,12.43h4.56c1.7-3.96,3.69-7.6,5.23-10.41.35-.64.68-1.25.98-1.8Z"/>
        </g>
      </g>
    </g>
  </g>
</svg>