<?xml version="1.0" encoding="UTF-8"?>
<svg id="Layer_2" data-name="Layer 2" xmlns="http://www.w3.org/2000/svg" viewBox="0 0 164.52 164.52">
  <defs>
    <style>
      .cls-1 {
        fill: #2d8462;
      }

      .cls-1, .cls-2, .cls-3, .cls-4, .cls-5, .cls-6 {
        stroke-width: 0px;
      }

      .cls-2 {
        fill: #1b1e38;
      }

      .cls-3 {
        fill: #dbad89;
      }

      .cls-4 {
        fill: #b28a6f;
      }

      .cls-5 {
        fill: #80ba5a;
      }

      .cls-6 {
        fill: #fcc7a2;
      }
    </style>
  </defs>
  <g id="Portraits">
    <g id="F">
      <g id="Tiles">
        <g id="F-14">
          <path class="cls-1" d="m53.49,156.49c2.35.51,4.18,2.43,5.91,5.25.1-.94.18-1.89.26-2.87-24.19-23.22-38.62-57.65-49.22-101.61-4.42-4.01-7.84-8.05-10.45-12.04v92.22c0,12.36,8.29,22.79,19.62,26.02,11.44-6.08,23.15-9.33,33.88-6.98Z"/>
          <path class="cls-2" d="m10.45,57.27c-2.34-9.7-4.49-19.86-6.52-30.46-1.3-.01-2.61-.21-3.91-.59,0,.28-.02.56-.02.85v18.16c2.61,3.99,6.03,8.02,10.45,12.04Z"/>
          <path class="cls-3" d="m3.93,26.81c-.64-3.32-1.26-6.68-1.87-10.09C.84,19.66.12,22.86.02,26.22c1.3.37,2.6.57,3.91.59Z"/>
          <path class="cls-3" d="m59.41,161.74c.52.85,1.03,1.77,1.55,2.77h5.05c-2.18-1.8-4.3-3.68-6.34-5.64-.08.97-.16,1.93-.26,2.87Z"/>
          <path class="cls-6" d="m126.28,20.6c4.74,7.51,17.61,10.75,38.24,9.65v-3.19c0-14.95-12.12-27.07-27.07-27.07h-10.45c-2.79,7.05-4.37,14.83-.72,20.6Z"/>
          <path class="cls-6" d="m37.66,73.52c5.54-18.82,26.19-34.08,38.75-38.19,12.36-4.04,36.24,1.83,88.1,2.29v-3.15c-2.61.14-5.13.21-7.51.21-18.03,0-29.29-3.9-34.3-11.83-4.29-6.79-3-15.24-.22-22.85H27.07c-5.31,0-10.26,1.53-14.43,4.17,2.73,13.31,9.81,41.47,25.03,69.35Z"/>
          <path class="cls-6" d="m84.67,61.22c-12.63,4.42-21.72,25.44-27.03,41.82,22.15,26.29,54.29,46.52,100.51,44.43,1.53-.07,3.04-.16,4.55-.26,1.17-3.03,1.82-6.32,1.82-9.76v-42.11c-.66.02-1.31.04-1.98.04-.31,0-.63,0-.94,0-34.47,0-56.93-15.09-57.88-15.74l2.38-3.48c.22.15,22.41,15.01,55.53,15.01.3,0,.59,0,.88,0,.68,0,1.35-.03,2.02-.04v-16.6c-10.95-3.71-60.93-19.92-79.85-13.3Z"/>
          <path class="cls-5" d="m60.96,164.52c-.52-1-1.03-1.93-1.55-2.77-1.73-2.82-3.56-4.74-5.91-5.25-10.73-2.35-22.43.9-33.88,6.98,2.37.68,4.87,1.05,7.45,1.05h33.89Z"/>
          <path class="cls-2" d="m76.42,35.33c-12.57,4.11-33.21,19.37-38.75,38.19,5.52,10.12,12.12,20.2,19.97,29.51,5.31-16.38,14.4-37.4,27.03-41.82,18.91-6.62,68.89,9.59,79.85,13.3v-36.9c-51.86-.46-75.74-6.33-88.1-2.29Z"/>
          <path class="cls-4" d="m161.62,91.16c-33.12,0-55.3-14.86-55.53-15.01l-2.38,3.48c.95.65,23.41,15.74,57.88,15.74.31,0,.63,0,.94,0,.67,0,1.32-.03,1.98-.04v-4.22c-.67.02-1.34.04-2.02.04-.3,0-.59,0-.88,0Z"/>
          <path class="cls-2" d="m10.45,57.27c10.6,43.96,25.03,78.39,49.22,101.61,2.04,1.96,4.15,3.84,6.34,5.64h71.44c11.51,0,21.33-7.18,25.25-17.31-1.51.1-3.02.19-4.55.26-46.21,2.09-78.35-18.14-100.51-44.43-7.85-9.32-14.45-19.4-19.97-29.51C22.44,45.64,15.37,17.48,12.64,4.17c-4.7,2.97-8.43,7.35-10.58,12.54.61,3.41,1.24,6.77,1.87,10.09,2.03,10.6,4.18,20.77,6.52,30.46Z"/>
          <path class="cls-4" d="m122.71,22.85c5.01,7.94,16.27,11.83,34.3,11.83,2.38,0,4.89-.08,7.51-.21v-4.22c-20.63,1.1-33.5-2.15-38.24-9.65-3.64-5.77-2.07-13.55.72-20.6h-4.51c-2.78,7.62-4.07,16.06.22,22.85Z"/>
        </g>
      </g>
    </g>
  </g>
</svg>