<?xml version="1.0" encoding="UTF-8"?>
<svg id="Layer_2" data-name="Layer 2" xmlns="http://www.w3.org/2000/svg" viewBox="0 0 164.52 164.52">
  <defs>
    <style>
      .cls-1 {
        fill: #77ad53;
      }

      .cls-1, .cls-2, .cls-3, .cls-4 {
        stroke-width: 0px;
      }

      .cls-2 {
        fill: #1b1e38;
      }

      .cls-3 {
        fill: #dbad89;
      }

      .cls-4 {
        fill: #80ba5a;
      }
    </style>
  </defs>
  <g id="Portraits">
    <g id="F">
      <g id="Tiles">
        <g id="F-17">
          <path class="cls-1" d="m68.39,149.88S32.07,141.21,0,116.03v21.41c0,14.95,12.12,27.07,27.07,27.07h110.38c10.61,0,19.78-6.1,24.22-14.99-4.78-18.01-11.68-32.63-19.96-44.47l-73.32,44.83Z"/>
          <path class="cls-3" d="m119.32,44.52c25.94,2.19,24.98,38.94,24.98,38.94l-2.13,21.3.5-.29-.96.58c8.27,11.84,15.17,26.46,19.96,44.47,1.82-3.64,2.85-7.74,2.85-12.08V27.07s0-.04,0-.07c-.71,0-1.4.03-2.11.03-41.49,0-71.67-9.36-94.25-27.03h-6.34c7.19,14.71,16.22,41.04,57.51,44.52Z"/>
          <path class="cls-4" d="m68.39,149.88l73.32-44.83.96-.58-.5.29,2.13-21.3s.96-36.75-24.98-38.94C78.03,41.04,69,14.71,61.82,0H27.07C12.12,0,0,12.12,0,27.07v88.96c32.07,25.18,68.39,33.85,68.39,33.85Z"/>
          <path class="cls-2" d="m162.41,27.03c.71,0,1.41-.02,2.11-.03-.04-14.92-12.14-27-27.07-27h-69.29c22.58,17.67,52.76,27.03,94.25,27.03Z"/>
        </g>
      </g>
    </g>
  </g>
</svg>