<?xml version="1.0" encoding="UTF-8"?>
<svg id="Layer_2" data-name="Layer 2" xmlns="http://www.w3.org/2000/svg" viewBox="0 0 164.52 164.52">
  <defs>
    <style>
      .cls-1 {
        fill: #5c69c6;
      }

      .cls-1, .cls-2, .cls-3 {
        stroke-width: 0px;
      }

      .cls-2 {
        fill: #d89845;
      }

      .cls-3 {
        fill: #efc3a5;
      }
    </style>
  </defs>
  <g id="Portraits">
    <g id="G">
      <g id="TIles">
        <g id="G-7">
          <path class="cls-1" d="m137.45,0H53.8c43.91,8.88,82.15,26.98,110.72,69.68V27.07c0-14.95-12.12-27.07-27.07-27.07Z"/>
          <path class="cls-3" d="m9.89,156.25c-.63.22-1.34.28-2.11.19,4.91,4.99,11.74,8.08,19.29,8.08h64.12c-36.29-22.87-72.75-5.24-81.31-8.27Z"/>
          <path class="cls-2" d="m53.8,0h-26.73C12.12,0,0,12.12,0,27.07v110.38c0,7.4,2.97,14.1,7.78,18.99.77.09,1.47.04,2.11-.19,8.55,3.03,45.02-14.6,81.31,8.27h46.25c14.95,0,27.07-12.12,27.07-27.07v-67.77C135.95,26.98,97.71,8.88,53.8,0Z"/>
        </g>
      </g>
    </g>
  </g>
</svg>