<?xml version="1.0" encoding="UTF-8"?>
<svg id="Layer_2" data-name="Layer 2" xmlns="http://www.w3.org/2000/svg" viewBox="0 0 164.52 164.52">
  <defs>
    <style>
      .cls-1 {
        fill: #1a1a1a;
      }

      .cls-1, .cls-2, .cls-3, .cls-4, .cls-5 {
        stroke-width: 0px;
      }

      .cls-2 {
        fill: #d89845;
      }

      .cls-3 {
        fill: #af7331;
      }

      .cls-4 {
        fill: #e5ab83;
      }

      .cls-5 {
        fill: #efc3a5;
      }
    </style>
  </defs>
  <g id="Portraits">
    <g id="G">
      <g id="TIles">
        <g id="G-11">
          <path class="cls-4" d="m152.47,159.97c1.65-1.1,3.18-2.39,4.54-3.82.33-2.13,1.03-7.43,1.21-15.13-1.81,6.45-3.73,12.77-5.75,18.95Z"/>
          <path class="cls-5" d="m112.11,16.63c-5.98-6.96-12.13-12.4-18.3-16.63H27.07C12.12,0,0,12.12,0,27.07v110.38c0,14.95,12.12,27.07,27.07,27.07h110.38c5.56,0,10.72-1.68,15.02-4.55,2.02-6.19,3.94-12.5,5.75-18.95.59-25.16-4.4-75.85-46.11-124.38ZM35.9,56.17c-2.14-.9-3.16-3.33-2.28-5.48.41-1.01,10.56-24.63,46.82-22.83,35.86,1.79,45.37,21.84,45.75,22.69.96,2.12.02,4.62-2.1,5.58-.56.26-1.16.38-1.74.38-1.6,0-3.14-.92-3.84-2.47-.3-.63-8.11-16.24-38.5-17.76-30.06-1.53-38.28,16.86-38.61,17.64-.91,2.13-3.38,3.14-5.51,2.25Zm25.62,49.6c0-4.45,1.88-8.46,4.87-11.3-5.59,1.92-9.7,4.25-12.5,6.22-4.98,3.5-7.04,6.63-7.06,6.66l-3.55-2.27c.37-.58,9.29-14.14,35.28-17.79,26.19-3.67,34.8,6.15,35.16,6.57l-3.22,2.72c-.06-.06-7.06-7.66-28.17-5.49,6.05,2.15,10.38,7.9,10.38,14.68,0,8.61-6.98,15.59-15.59,15.59s-15.59-6.98-15.59-15.59Z"/>
          <path class="cls-2" d="m137.45,0h-43.64c6.17,4.23,12.32,9.67,18.3,16.63,41.71,48.53,46.69,99.22,46.11,124.38-.18,7.7-.88,13-1.21,15.13,4.65-4.86,7.51-11.44,7.51-18.7V27.07c0-14.95-12.12-27.07-27.07-27.07Z"/>
          <path class="cls-3" d="m80.03,36.28c30.39,1.52,38.2,17.13,38.5,17.76.71,1.56,2.24,2.47,3.84,2.47.58,0,1.17-.12,1.74-.38,2.12-.96,3.06-3.46,2.1-5.58-.39-.85-9.89-20.9-45.75-22.69-36.27-1.8-46.41,21.83-46.82,22.83-.88,2.14.14,4.58,2.28,5.48s4.6-.12,5.51-2.25c.33-.78,8.55-19.17,38.61-17.64Z"/>
          <path class="cls-1" d="m82.32,91.09c21.11-2.16,28.11,5.43,28.17,5.49l3.22-2.72c-.35-.42-8.97-10.23-35.16-6.57-26,3.64-34.92,17.21-35.28,17.79l3.55,2.27s2.08-3.16,7.06-6.66c2.8-1.97,6.91-4.3,12.5-6.22,2.8-2.65,6.56-4.29,10.72-4.29,1.83,0,3.58.33,5.21.91Z"/>
          <path class="cls-1" d="m92.7,105.77c0-6.78-4.34-12.53-10.38-14.68-1.63-.58-3.38-.91-5.21-.91-4.16,0-7.93,1.64-10.72,4.29-2.99,2.84-4.87,6.85-4.87,11.3,0,8.61,6.98,15.59,15.59,15.59s15.59-6.98,15.59-15.59Z"/>
        </g>
      </g>
    </g>
  </g>
</svg>