<?xml version="1.0" encoding="UTF-8"?>
<svg id="Layer_2" data-name="Layer 2" xmlns="http://www.w3.org/2000/svg" viewBox="0 0 164.52 164.52">
  <defs>
    <style>
      .cls-1 {
        fill: #d68f5f;
      }

      .cls-1, .cls-2, .cls-3, .cls-4, .cls-5 {
        stroke-width: 0px;
      }

      .cls-2 {
        fill: #af7331;
      }

      .cls-3 {
        fill: #bfdcdd;
      }

      .cls-4 {
        fill: #e5ab83;
      }

      .cls-5 {
        fill: #efc3a5;
      }
    </style>
  </defs>
  <g id="Portraits">
    <g id="G">
      <g id="TIles">
        <g id="G-15">
          <path class="cls-2" d="m162.66,43.95c.3,1.96-1.05,3.79-3,4.09l-3.43.52c-1.96.3-3.79-1.05-4.09-3l-2.16-14.17h-11.69c-19.07,44.18-43.52,79.22-70.29,102.57,0,11.03.77,21.57,2.67,30.56h66.78c14.95,0,27.07-12.12,27.07-27.07V27.07c0-.44-.01-.87-.03-1.3-1.47.89-2.9,1.65-4.25,2.29l2.43,15.89Z"/>
          <path class="cls-4" d="m149.41,2.79c-3.46,9.91-7.18,19.45-11.13,28.6h11.69l-1.09-7.16c-.3-1.96,1.05-3.79,3-4.09l3.43-.52c1.96-.3,3.79,1.05,4.09,3l.83,5.44c1.35-.64,2.78-1.4,4.25-2.29-.48-10.1-6.49-18.74-15.07-22.98Z"/>
          <path class="cls-4" d="m17.7,162.85c2.92,1.08,6.08,1.67,9.37,1.67h43.6c-1.9-8.99-2.66-19.53-2.67-30.56-16.15,14.08-33.14,23.9-50.3,28.89Z"/>
          <path class="cls-5" d="m68,133.96c26.77-23.34,51.22-58.39,70.29-102.57,3.95-9.15,7.67-18.69,11.13-28.6-3.61-1.78-7.67-2.79-11.97-2.79H27.07C12.12,0,0,12.12,0,27.07v63.32c30.02-1.01,35.35-6.46,35.4-6.52-.06.06-.08.1-.08.1l3.43,2.45c-.89,1.25-6.8,7.15-38.76,8.19v42.83c0,11.66,7.37,21.59,17.7,25.4,17.16-4.99,34.15-14.81,50.3-28.89Z"/>
          <path class="cls-1" d="m38.76,86.43l-3.43-2.45s.02-.04.08-.1c-.05.06-5.39,5.51-35.4,6.52v4.22c31.96-1.03,37.87-6.94,38.76-8.19Z"/>
          <path class="cls-3" d="m156.23,48.56l3.43-.52c1.96-.3,3.3-2.13,3-4.09l-2.43-15.89-.83-5.44c-.3-1.96-2.13-3.3-4.09-3l-3.43.52c-1.96.3-3.3,2.13-3,4.09l1.09,7.16,2.16,14.17c.3,1.96,2.13,3.3,4.09,3Z"/>
        </g>
      </g>
    </g>
  </g>
</svg>