<?xml version="1.0" encoding="UTF-8"?>
<svg id="Layer_2" data-name="Layer 2" xmlns="http://www.w3.org/2000/svg" viewBox="0 0 164.52 164.52">
  <defs>
    <style>
      .cls-1 {
        fill: #5459a3;
      }

      .cls-1, .cls-2, .cls-3 {
        stroke-width: 0px;
      }

      .cls-2 {
        fill: #af7331;
      }

      .cls-3 {
        fill: #e5ab83;
      }
    </style>
  </defs>
  <g id="Portraits">
    <g id="G">
      <g id="TIles">
        <g id="G-18">
          <path class="cls-2" d="m75.21,12.17c.08.16.16.31.24.47-.15-.3-.24-.47-.24-.47Z"/>
          <path class="cls-2" d="m163.9,21.33c-2.63-12.19-13.47-21.33-26.46-21.33h-66.4c1.06,4.53,2.42,8.64,4.16,12.17,0,0,43.97,3.51,88.7,9.17Z"/>
          <path class="cls-3" d="m75.45,12.64c-.08-.16-.17-.31-.24-.47-1.73-3.53-3.1-7.64-4.16-12.17H27.07C12.12,0,0,12.12,0,27.07v110.38c0,1.62.15,3.21.42,4.75,10.77-.59,46.88-1.41,63.77-7.6,61.21-22.44,15-114.71,11.26-121.97Z"/>
          <path class="cls-1" d="m75.21,12.17s.09.17.24.47c3.75,7.25,49.95,99.52-11.26,121.97-16.89,6.19-53,7.01-63.77,7.6,2.25,12.68,13.32,22.31,26.65,22.31h110.38c14.95,0,27.07-12.12,27.07-27.07V27.07c0-1.97-.22-3.89-.61-5.74-44.73-5.66-88.7-9.17-88.7-9.17Z"/>
        </g>
      </g>
    </g>
  </g>
</svg>