<?xml version="1.0" encoding="UTF-8"?>
<svg id="Layer_2" data-name="Layer 2" xmlns="http://www.w3.org/2000/svg" viewBox="0 0 164.52 164.52">
  <defs>
    <style>
      .cls-1 {
        fill: #5c69c6;
      }

      .cls-1, .cls-2 {
        stroke-width: 0px;
      }

      .cls-2 {
        fill: #d89845;
      }
    </style>
  </defs>
  <g id="Portraits">
    <g id="G">
      <g id="TIles">
        <g id="G-8">
          <path class="cls-1" d="m137.45,0H27.07C17.85,0,9.71,4.61,4.82,11.65c11.34,20.76,20.81,46.37,28.1,78.06,6.96,30.28,9.73,54.86,9.65,74.81h94.88c14.95,0,27.07-12.12,27.07-27.07V27.07c0-14.95-12.12-27.07-27.07-27.07Z"/>
          <path class="cls-2" d="m4.82,11.65C1.79,16.03,0,21.34,0,27.07v110.38c0,14.95,12.12,27.07,27.07,27.07h15.49c.09-19.95-2.69-44.52-9.65-74.81C25.64,58.02,16.16,32.41,4.82,11.65Z"/>
        </g>
      </g>
    </g>
  </g>
</svg>