<?xml version="1.0" encoding="UTF-8"?>
<svg id="Layer_2" data-name="Layer 2" xmlns="http://www.w3.org/2000/svg" viewBox="0 0 164.52 164.52">
  <defs>
    <style>
      .cls-1 {
        fill: #5c69c6;
      }

      .cls-1, .cls-2, .cls-3, .cls-4 {
        stroke-width: 0px;
      }

      .cls-2 {
        fill: #d89845;
      }

      .cls-3 {
        fill: #af7331;
      }

      .cls-4 {
        fill: #e5ab83;
      }
    </style>
  </defs>
  <g id="Portraits">
    <g id="G">
      <g id="TIles">
        <g id="G-12">
          <path class="cls-1" d="m137.45,0H42.55c-.31,23.98-4.8,41.13-11.09,53.39,3.35,31.56,7.51,73.15,10.47,111.13h95.52c14.95,0,27.07-12.12,27.07-27.07V27.07c0-14.95-12.12-27.07-27.07-27.07Z"/>
          <path class="cls-3" d="m17.41,71.78c1.19,23.68-8.04,36.93-17.41,44.24v21.43c0,14.95,12.12,27.07,27.07,27.07h14.85c-2.96-37.98-7.12-79.56-10.47-111.13-4.13,8.05-9.04,14-14.04,18.39Z"/>
          <path class="cls-4" d="m17.41,71.78c-6.07,5.33-12.28,8.37-17.41,10.1v34.14c9.38-7.3,18.61-20.56,17.41-44.24Z"/>
          <path class="cls-2" d="m31.45,53.39c6.29-12.26,10.79-29.41,11.09-53.39h-15.48C12.12,0,0,12.12,0,27.07v54.8c5.14-1.73,11.34-4.77,17.41-10.1,5-4.39,9.91-10.33,14.04-18.39Z"/>
        </g>
      </g>
    </g>
  </g>
</svg>