<?xml version="1.0" encoding="UTF-8"?>
<svg id="Layer_2" data-name="Layer 2" xmlns="http://www.w3.org/2000/svg" viewBox="0 0 164.52 164.52">
  <defs>
    <style>
      .cls-1 {
        fill: #5459a3;
      }

      .cls-1, .cls-2, .cls-3 {
        stroke-width: 0px;
      }

      .cls-2 {
        fill: #5c69c6;
      }

      .cls-3 {
        fill: #af7331;
      }
    </style>
  </defs>
  <g id="Portraits">
    <g id="G">
      <g id="TIles">
        <g id="G-16">
          <path class="cls-2" d="m137.45,0H42.06c3.27,42.31,5.01,79.86,2.45,93.64-1.81,9.73-13.21,17.47-29.16,23.61,28.12,4.01,53.87,8.82,65.96,14.06,19.41,8.42,33.49,20.18,43.71,33.21h12.43c14.95,0,27.07-12.12,27.07-27.07V27.07c0-14.95-12.12-27.07-27.07-27.07Z"/>
          <path class="cls-3" d="m44.5,93.64c2.57-13.78.82-51.33-2.45-93.64h-14.99C12.12,0,0,12.12,0,27.07v88.09c5.15.67,10.28,1.37,15.35,2.09,15.95-6.14,27.34-13.88,29.16-23.61Z"/>
          <path class="cls-1" d="m81.31,131.31c-12.09-5.24-37.85-10.05-65.96-14.06-5.06-.72-10.2-1.42-15.35-2.09v22.29c0,14.95,12.12,27.07,27.07,27.07h97.95c-10.21-13.03-24.3-24.79-43.71-33.21Z"/>
        </g>
      </g>
    </g>
  </g>
</svg>