<?xml version="1.0" encoding="UTF-8"?>
<svg id="Layer_2" data-name="Layer 2" xmlns="http://www.w3.org/2000/svg" viewBox="0 0 164.23 164.52">
  <defs>
    <style>
      .cls-1 {
        fill: #5c69c6;
      }

      .cls-1, .cls-2 {
        stroke-width: 0px;
      }

      .cls-2 {
        fill: #d89845;
      }
    </style>
  </defs>
  <g id="Portraits">
    <g id="G">
      <g id="TIles">
        <g id="G-5">
          <path class="cls-1" d="m137.16,0H26.78C13.17,0,1.91,10.05,0,23.13v118.25c1.91,13.08,13.17,23.13,26.78,23.13h92.58c-.12-20.26,2.48-44.18,8.97-72.43,7.64-33.25,17.99-60.2,29.87-82.04-4.96-6.13-12.54-10.04-21.04-10.04Z"/>
          <path class="cls-2" d="m119.36,164.52h17.8c14.95,0,27.07-12.12,27.07-27.07V27.07c0-6.45-2.26-12.37-6.03-17.03-11.88,21.84-22.23,48.79-29.87,82.04-6.49,28.25-9.09,52.17-8.97,72.43Z"/>
        </g>
      </g>
    </g>
  </g>
</svg>