<?xml version="1.0" encoding="UTF-8"?>
<svg id="Layer_2" data-name="Layer 2" xmlns="http://www.w3.org/2000/svg" viewBox="0 0 164.23 164.52">
  <defs>
    <style>
      .cls-1 {
        fill: #5c69c6;
      }

      .cls-1, .cls-2, .cls-3, .cls-4 {
        stroke-width: 0px;
      }

      .cls-2 {
        fill: #d89845;
      }

      .cls-3 {
        fill: #af7331;
      }

      .cls-4 {
        fill: #e5ab83;
      }
    </style>
  </defs>
  <g id="Portraits">
    <g id="G">
      <g id="TIles">
        <g id="G-9">
          <path class="cls-1" d="m0,23.13v118.25c1.91,13.08,13.17,23.13,26.78,23.13h90.9c2.04-33.9,6.95-77.04,11.1-109.97-5.42-14.21-9.09-32.1-9.39-54.55H26.78C13.17,0,1.91,10.05,0,23.13Z"/>
          <path class="cls-3" d="m143.8,81.41c-5.55-7.03-10.81-15.83-15.02-26.86-4.15,32.93-9.06,76.07-11.1,109.97h19.48c14.95,0,27.07-12.12,27.07-27.07v-16.93c-9.29-6.09-19.51-17.63-20.43-39.11Z"/>
          <path class="cls-4" d="m143.8,81.41c.92,21.48,11.15,33.02,20.43,39.11v-20.47c-6.3-4.02-13.59-9.97-20.43-18.64Z"/>
          <path class="cls-2" d="m143.8,81.41c6.85,8.67,14.13,14.62,20.43,18.64V27.07c0-14.95-12.12-27.07-27.07-27.07h-17.77c.3,22.45,3.97,40.35,9.39,54.55,4.21,11.02,9.47,19.83,15.02,26.86Z"/>
        </g>
      </g>
    </g>
  </g>
</svg>