<?xml version="1.0" encoding="UTF-8"?>
<svg id="Layer_2" data-name="Layer 2" xmlns="http://www.w3.org/2000/svg" viewBox="0 0 164.23 164.52">
  <defs>
    <style>
      .cls-1 {
        fill: #5459a3;
      }

      .cls-1, .cls-2, .cls-3 {
        stroke-width: 0px;
      }

      .cls-2 {
        fill: #5c69c6;
      }

      .cls-3 {
        fill: #af7331;
      }
    </style>
  </defs>
  <g id="Portraits">
    <g id="G">
      <g id="TIles">
        <g id="G-13">
          <path class="cls-2" d="m0,23.13v118.25c1.91,13.08,13.17,23.13,26.78,23.13h11.5c9.96-12.08,23.44-22.93,41.66-30.83,14.69-6.37,49.53-12.09,84.29-16.54v-26.67c-24.62-15.96-43.86-32.16-46.22-44.83-1.69-9.1-1.58-25.68-.43-45.65H26.78C13.17,0,1.91,10.05,0,23.13Z"/>
          <path class="cls-3" d="m118.01,45.65c2.36,12.68,21.6,28.87,46.22,44.83V27.07c0-14.95-12.12-27.07-27.07-27.07h-19.58c-1.15,19.97-1.27,36.55.43,45.65Z"/>
          <path class="cls-1" d="m38.28,164.52h98.88c14.95,0,27.07-12.12,27.07-27.07v-20.3c-34.75,4.44-69.6,10.16-84.29,16.54-18.22,7.9-31.7,18.75-41.66,30.83Z"/>
        </g>
      </g>
    </g>
  </g>
</svg>