<?xml version="1.0" encoding="UTF-8"?>
<svg id="Layer_2" data-name="Layer 2" xmlns="http://www.w3.org/2000/svg" viewBox="0 0 164.52 164.52">
  <defs>
    <style>
      .cls-1 {
        fill: #5c69c6;
      }

      .cls-1, .cls-2 {
        stroke-width: 0px;
      }

      .cls-2 {
        fill: #d89845;
      }
    </style>
  </defs>
  <g id="Portraits">
    <g id="G">
      <g id="TIles">
        <g id="G-2">
          <path class="cls-1" d="m137.45,0H27.07C12.12,0,0,12.12,0,27.07v110.38c0,14.95,12.12,27.07,27.07,27.07h52.38c21.19-7.86,39.55-8.9,49.95-8.18,8.61.59,17.12,1.16,25.53,1.78,5.87-4.97,9.6-12.38,9.6-20.67V27.07c0-14.95-12.12-27.07-27.07-27.07Z"/>
          <path class="cls-2" d="m79.45,164.52h58c6.66,0,12.76-2.41,17.47-6.4-8.4-.62-16.92-1.19-25.53-1.78-10.4-.71-28.76.32-49.95,8.18Z"/>
        </g>
      </g>
    </g>
  </g>
</svg>