<?xml version="1.0" encoding="UTF-8"?>
<svg id="Layer_2" data-name="Layer 2" xmlns="http://www.w3.org/2000/svg" viewBox="0 0 164.52 164.52">
  <defs>
    <style>
      .cls-1 {
        fill: #5c69c6;
      }

      .cls-1, .cls-2, .cls-3 {
        stroke-width: 0px;
      }

      .cls-2 {
        fill: #d89845;
      }

      .cls-3 {
        fill: #efc3a5;
      }
    </style>
  </defs>
  <g id="Portraits">
    <g id="G">
      <g id="TIles">
        <g id="G-6">
          <path class="cls-1" d="m0,27.07v37.51C23.27,29.06,50.73,9.95,75.04,0H27.07C12.12,0,0,12.12,0,27.07Z"/>
          <path class="cls-3" d="m80.41,144.51c-11.1,4.72-20.44,11.6-28.3,20.01h85.33c10.56,0,19.7-6.05,24.16-14.87-15.46-9.1-41-22.23-81.2-5.14Z"/>
          <path class="cls-2" d="m0,64.58v72.86c0,14.95,12.12,27.07,27.07,27.07h25.04c7.86-8.41,17.2-15.3,28.3-20.01,40.2-17.09,65.74-3.96,81.2,5.14,1.86-3.67,2.91-7.81,2.91-12.2V27.07c0-14.95-12.12-27.07-27.07-27.07h-62.41C50.73,9.95,23.27,29.06,0,64.58Z"/>
        </g>
      </g>
    </g>
  </g>
</svg>