<?xml version="1.0" encoding="UTF-8"?>
<svg id="Layer_2" data-name="Layer 2" xmlns="http://www.w3.org/2000/svg" viewBox="0 0 164.52 164.52">
  <defs>
    <style>
      .cls-1 {
        fill: #1a1a1a;
      }

      .cls-1, .cls-2, .cls-3, .cls-4, .cls-5 {
        stroke-width: 0px;
      }

      .cls-2 {
        fill: #d89845;
      }

      .cls-3 {
        fill: #d68f5f;
      }

      .cls-4 {
        fill: #af7331;
      }

      .cls-5 {
        fill: #efc3a5;
      }
    </style>
  </defs>
  <g id="Portraits">
    <g id="G">
      <g id="TIles">
        <g id="G-10">
          <path class="cls-5" d="m132.63,164.52c2.03-4.48,4.16-8.41,5.69-11.21l.8-1.47c6.29-11.69,18.51-47.69,18.63-48.05l3.99,1.35c-.5,1.49-12.46,36.71-18.91,48.7l-.81,1.49c-1.28,2.35-3.02,5.56-4.75,9.2h.18c14.95,0,27.07-12.12,27.07-27.07V27.07c0-14.95-12.12-27.07-27.07-27.07H50.55C12.08,43.23,10.58,123.77,12.08,159.99c4.29,2.86,9.45,4.53,14.99,4.53h105.56Zm-21.46-54.87c-.05-.1-4.42-7.82-17.17-13.73,2.18,2.68,3.49,6.1,3.49,9.82,0,8.61-6.98,15.59-15.59,15.59s-15.59-6.98-15.59-15.59c0-7.07,4.71-13.03,11.16-14.94-21.22-3.95-28.89,3.18-28.97,3.26l-2.99-2.97c.39-.39,9.72-9.52,35.56-3.86,25.64,5.62,33.5,19.83,33.82,20.43l-3.71,2ZM38.52,50.52c.39-.85,9.89-20.9,45.75-22.69,36.03-1.79,48.31,21.53,48.81,22.53,1.05,2.08.23,4.61-1.85,5.67-.61.31-1.26.46-1.91.46-1.53,0-3.01-.84-3.75-2.29-.45-.85-10.61-19.46-40.88-17.94-30.39,1.52-38.2,17.13-38.51,17.79-1,2.09-3.5,3-5.59,2.02-2.1-.98-3.02-3.44-2.07-5.54Z"/>
          <path class="cls-2" d="m50.55,0h-23.48C12.12,0,0,12.12,0,27.07v110.38c0,9.4,4.8,17.69,12.08,22.54-1.5-36.22,0-116.76,38.47-159.99Z"/>
          <path class="cls-4" d="m40.58,56.07c2.1.98,4.6.06,5.59-2.02.32-.66,8.12-16.28,38.51-17.79,30.28-1.52,40.44,17.09,40.88,17.94.75,1.45,2.22,2.29,3.75,2.29.64,0,1.29-.15,1.91-.46,2.08-1.05,2.9-3.59,1.85-5.67-.5-.99-12.78-24.31-48.81-22.53-35.86,1.79-45.37,21.84-45.75,22.69-.96,2.1-.03,4.57,2.07,5.54Z"/>
          <path class="cls-3" d="m142.83,153.84c6.45-12,18.41-47.21,18.91-48.7l-3.99-1.35c-.12.36-12.34,36.37-18.63,48.05l-.8,1.47c-1.53,2.81-3.66,6.73-5.69,11.21h4.64c1.73-3.64,3.47-6.84,4.75-9.2l.81-1.49Z"/>
          <path class="cls-1" d="m81.07,87.22c-25.83-5.66-35.17,3.47-35.56,3.86l2.99,2.97c.08-.07,7.75-7.21,28.97-3.26,1.41-.42,2.89-.65,4.43-.65,4.89,0,9.24,2.25,12.1,5.77,12.75,5.91,17.12,13.63,17.17,13.73l3.71-2c-.32-.6-8.18-14.81-33.82-20.43Z"/>
          <path class="cls-1" d="m81.9,90.15c-1.54,0-3.03.23-4.43.65-6.45,1.91-11.16,7.87-11.16,14.94,0,8.61,6.98,15.59,15.59,15.59s15.59-6.98,15.59-15.59c0-3.72-1.31-7.14-3.49-9.82-2.86-3.52-7.22-5.77-12.1-5.77Z"/>
        </g>
      </g>
    </g>
  </g>
</svg>