<?xml version="1.0" encoding="UTF-8"?>
<svg id="Layer_2" data-name="Layer 2" xmlns="http://www.w3.org/2000/svg" viewBox="0 0 164.52 164.52">
  <defs>
    <style>
      .cls-1 {
        fill: #d89845;
      }

      .cls-1, .cls-2, .cls-3, .cls-4, .cls-5, .cls-6 {
        stroke-width: 0px;
      }

      .cls-2 {
        fill: #d68f5f;
      }

      .cls-3 {
        fill: #af7331;
      }

      .cls-4 {
        fill: #bfdcdd;
      }

      .cls-5 {
        fill: #e5ab83;
      }

      .cls-6 {
        fill: #efc3a5;
      }
    </style>
  </defs>
  <g id="Portraits">
    <g id="G">
      <g id="TIles">
        <g id="G-14">
          <path class="cls-3" d="m94.2,135.61c-25.63-23.33-50.5-58.99-70.08-104.25h-10.54l-1.22,13.91c-.17,1.97-1.91,3.43-3.89,3.26l-3.46-.3c-1.97-.17-3.43-1.91-3.26-3.89l1.38-15.78c-1-.44-2.05-.95-3.14-1.53,0,.01,0,.02,0,.03v110.38c0,14.95,12.12,27.07,27.07,27.07h64.47c1.81-8.54,2.58-18.47,2.66-28.91Z"/>
          <path class="cls-5" d="m94.2,135.61c-.08,10.43-.86,20.37-2.66,28.91h45.91c1.51,0,2.98-.13,4.42-.36-15.45-4.28-31.7-14.02-47.66-28.54Z"/>
          <path class="cls-5" d="m3.64,22.85c.17-1.97,1.91-3.43,3.89-3.26l3.46.3c1.97.17,3.43,1.91,3.26,3.89l-.66,7.58h10.54c-3.82-8.84-7.45-18.04-10.84-27.59-.21.13-.43.26-.64.39.36,5.15.68,8.07.68,8.07,0,0-2.73-.62-7.04-2.5C2.37,14.42,0,20.45,0,27.04c1.09.58,2.14,1.09,3.14,1.53l.5-5.71Z"/>
          <path class="cls-6" d="m94.2,135.61c15.96,14.52,32.21,24.26,47.66,28.54,12.85-2.11,22.65-13.26,22.65-26.7v-42.78c-1.54.03-3.11.06-4.76.07-.69,0-1.38,0-2.06,0-15.63,0-27.67-1.25-35.78-3.72-6.45-1.96-8.25-4.08-8.65-4.68l3.52-2.33s-.02-.04-.07-.1c.06.07,6.15,6.83,43.02,6.61,1.67-.01,3.25-.04,4.79-.07V27.07c0-14.95-12.12-27.07-27.07-27.07h-.97c-4.44,9.76-8.31,22.07-3.4,29.95,3.83,6.14,12.77,8.96,26.58,8.39l.18,4.21c-1.2.05-2.37.08-3.51.08-13.49,0-22.5-3.51-26.83-10.45-5.59-8.98-2.1-21.82,2.38-32.18H27.07c-5.04,0-9.75,1.38-13.78,3.77,3.39,9.55,7.01,18.75,10.84,27.59,19.58,45.25,44.45,80.92,70.08,104.25Z"/>
          <path class="cls-1" d="m12.65,4.17c-2.4,1.52-4.55,3.4-6.36,5.57,4.31,1.88,7.04,2.5,7.04,2.5,0,0-.32-2.92-.68-8.07Z"/>
          <path class="cls-2" d="m129.49,32.18c4.32,6.94,13.34,10.45,26.83,10.45,1.14,0,2.31-.03,3.51-.08l-.18-4.21c-13.82.57-22.76-2.25-26.58-8.39-4.91-7.88-1.04-20.19,3.4-29.95h-4.6c-4.48,10.37-7.97,23.2-2.38,32.18Z"/>
          <path class="cls-2" d="m116.71,83.91c.05.06.07.1.07.1l-3.52,2.33c.4.6,2.2,2.72,8.65,4.68,8.12,2.47,20.15,3.72,35.78,3.72.68,0,1.37,0,2.06,0,1.65-.01,3.22-.04,4.76-.07v-4.22c-1.54.04-3.12.06-4.79.07-36.87.22-42.97-6.54-43.02-6.61Z"/>
          <path class="cls-4" d="m10.99,19.89l-3.46-.3c-1.97-.17-3.71,1.29-3.89,3.26l-.5,5.71-1.38,15.78c-.17,1.97,1.29,3.71,3.26,3.89l3.46.3c1.97.17,3.71-1.29,3.89-3.26l1.22-13.91.66-7.58c.17-1.97-1.29-3.71-3.26-3.89Z"/>
        </g>
      </g>
    </g>
  </g>
</svg>