<?xml version="1.0" encoding="UTF-8"?>
<svg id="Layer_2" data-name="Layer 2" xmlns="http://www.w3.org/2000/svg" viewBox="0 0 164.52 164.52">
  <defs>
    <style>
      .cls-1 {
        fill: #5459a3;
      }

      .cls-1, .cls-2, .cls-3, .cls-4 {
        stroke-width: 0px;
      }

      .cls-2 {
        fill: #5c69c6;
      }

      .cls-3 {
        fill: #af7331;
      }

      .cls-4 {
        fill: #e5ab83;
      }
    </style>
  </defs>
  <g id="Portraits">
    <g id="G">
      <g id="TIles">
        <g id="G-17">
          <path class="cls-2" d="m12.02,4.57C6.38,8.35,2.25,14.19.69,21.01c11.47-1.43,22.84-2.72,33.38-3.85-7.42-4.07-14.85-8.3-22.05-12.6Z"/>
          <path class="cls-3" d="m87,12.14c1.73-3.52,3.09-7.62,4.15-12.14H27.07c-5.57,0-10.75,1.68-15.05,4.57,7.2,4.3,14.63,8.52,22.05,12.6,29.79-3.17,52.93-5.02,52.93-5.02Z"/>
          <path class="cls-4" d="m99.58,134.58c18.41,6.75,58.29,7.11,64.49,7.76.29-1.59.45-3.22.45-4.89V27.07c0-14.95-12.12-27.07-27.07-27.07h-46.29c-1.06,4.52-2.42,8.62-4.15,12.14,0,0-51.15,99.07,12.57,122.44Z"/>
          <path class="cls-1" d="m0,27.07v110.38c0,14.95,12.12,27.07,27.07,27.07h110.38c13.28,0,24.32-9.57,26.62-22.18-6.2-.64-46.08-1.01-64.49-7.76-63.73-23.37-12.57-122.44-12.57-122.44,0,0-23.15,1.85-52.93,5.02-10.54,1.12-21.91,2.41-33.38,3.85-.45,1.95-.69,3.98-.69,6.06Z"/>
        </g>
      </g>
    </g>
  </g>
</svg>