<?xml version="1.0" encoding="UTF-8"?>
<svg id="Layer_2" data-name="Layer 2" xmlns="http://www.w3.org/2000/svg" viewBox="0 0 165.48 173.59">
  <defs>
    <style>
      .cls-1 {
        stroke: #f6921e;
      }

      .cls-1, .cls-2, .cls-3, .cls-4, .cls-5, .cls-6 {
        fill: none;
        stroke-linecap: round;
        stroke-linejoin: round;
      }

      .cls-2, .cls-4 {
        stroke: #464f5c;
      }

      .cls-3 {
        stroke: #e11f26;
      }

      .cls-3, .cls-6 {
        stroke-width: 3px;
      }

      .cls-4, .cls-7 {
        stroke-width: .75px;
      }

      .cls-8, .cls-5 {
        stroke-width: 2px;
      }

      .cls-8, .cls-9 {
        stroke: #282661;
      }

      .cls-8, .cls-9, .cls-7 {
        stroke-miterlimit: 10;
      }

      .cls-8, .cls-7 {
        fill: #fff;
      }

      .cls-5, .cls-6 {
        stroke: #98a2a9;
      }

      .cls-9 {
        fill: #efefef;
        opacity: .53;
        stroke-width: .5px;
      }

      .cls-7 {
        stroke: #6d6e70;
      }

      .cls-10 {
        fill: #282661;
      }

      .cls-10, .cls-11 {
        stroke-width: 0px;
      }

      .cls-11 {
        fill: #3cb8ea;
      }
    </style>
  </defs>
  <g id="Cards_Updated_Copy_Outlined_" data-name="Cards (Updated | Copy Outlined)">
    <g>
      <rect id="Border" class="cls-8" x="1" y="1" width="163.48" height="171.59" rx="18" ry="18"/>
      <path class="cls-9" d="m19.29,69.95c-.26-2-1.62-8.68,1.48-8.42,96.9,7.9,120.45-2.49,122.65,1.28,1.19,2.04-.29,84.44-1.73,86.28-1.29,1.66,1.85,3.33-41.21,4.08-31.75.56-73.35,3.97-78.48-3.06-1.35-1.85-2.37-3.73-2.22-7.91,1.47-42.27.7-63.01-.49-72.24Z"/>
      <line class="cls-2" x1="29.95" y1="84.2" x2="29.95" y2="149.35"/>
      <line class="cls-2" x1="34.87" y1="148.39" x2="34.27" y2="122.71"/>
      <line class="cls-2" x1="39.67" y1="149.35" x2="39.67" y2="70.65"/>
      <line class="cls-2" x1="44.83" y1="149.35" x2="44.83" y2="130.75"/>
      <line class="cls-2" x1="53.95" y1="149.35" x2="53.95" y2="133.28"/>
      <line class="cls-2" x1="63.91" y1="148.39" x2="61.39" y2="72.44"/>
      <line class="cls-2" x1="70.99" y1="148.39" x2="70.99" y2="125.47"/>
      <line class="cls-2" x1="77.69" y1="148.53" x2="76.27" y2="73.29"/>
      <line class="cls-2" x1="89.22" y1="146.83" x2="87.9" y2="72.82"/>
      <line class="cls-2" x1="104.51" y1="148.05" x2="103.08" y2="72.33"/>
      <line class="cls-2" x1="111.55" y1="146.24" x2="111.08" y2="106.76"/>
      <line class="cls-2" x1="119.46" y1="145.98" x2="119.24" y2="108.05"/>
      <line class="cls-2" x1="127.86" y1="145.73" x2="126.9" y2="71.48"/>
      <line class="cls-4" x1="39.67" y1="75.44" x2="133.48" y2="74.96"/>
      <line class="cls-4" x1="26.72" y1="84.2" x2="102.81" y2="83.4"/>
      <line class="cls-4" x1="27.32" y1="90.08" x2="48.31" y2="89.85"/>
      <path class="cls-4" d="m26.48,96.68c3.43-1.71,6.31-2.36,8.28-2.64,2.38-.34,3.4-.13,6.6-.6,3.19-.47,4.64-1.05,6.43-1.44,5.25-1.15,9.62.11,11.93.6,4.85,1.02,17.43,1.82,43.3,1.05"/>
      <path class="cls-4" d="m26.72,120.67c2.51.28,6.11,1.02,9.72,3.24,4.08,2.51,4.79,4.82,8.4,6.84,3.35,1.88,5.99,1.71,12.24,1.92,12.33.41,9.98,1.3,19.8,1.44,9.34.13,8.85-.71,22.2-1.08,5.2-.14,10.46-.1,21,0,6.88.06,12.59.16,16.56.24"/>
      <line class="cls-4" x1="26.47" y1="135.8" x2="49.51" y2="136.03"/>
      <line class="cls-4" x1="26.48" y1="140.05" x2="50.12" y2="140.05"/>
      <path class="cls-4" d="m27.44,147.19c4.75-2.56,8.89-3.33,12.24-3.36,1.86-.02,2.92.2,7.08.72,4.11.52,8.24.87,12.36,1.32,11.31,1.23,32.55.74,45.71.48,6.82-.13,17.52-.33,30.95-.48"/>
      <line class="cls-4" x1="63.5" y1="139.51" x2="136.61" y2="139.51"/>
      <line class="cls-4" x1="63.6" y1="125.47" x2="134.57" y2="126.07"/>
      <line class="cls-4" x1="63.5" y1="119.59" x2="76.98" y2="119.59"/>
      <line class="cls-4" x1="62.76" y1="113.72" x2="76.38" y2="115.15"/>
      <line class="cls-4" x1="76.98" y1="118.03" x2="88.37" y2="118.03"/>
      <path class="cls-4" d="m96.18,107.74c-1.64.27-3.61.91-5.04,2.5-1.55,1.72-1.77,3.77-2.49,3.72-.74-.06-.61-2.27-2.19-4.32-1-1.29-2.28-2-3.24-2.4"/>
      <path class="cls-4" d="m96.9,107.64c-2.35-.57-3.96-2.49-5.04-3.28-1.63-1.19-2.54-2.46-3.41-2.15-.7.25-.58,1.24-1.51,2.51-.76,1.03-1.73,2.46-2.4,2.77"/>
      <rect class="cls-7" x="107.18" y="78.37" width="21.77" height="28.86" rx="3.08" ry="3.08"/>
      <line class="cls-3" x1="118.06" y1="85.85" x2="118.06" y2="97.65"/>
      <line class="cls-3" x1="112.53" y1="91.75" x2="123.59" y2="91.75"/>
      <line id="V" class="cls-6" x1="47.11" y1="71.5" x2="49.51" y2="149.35"/>
      <path class="cls-6" d="m26.72,104.84c1.64-1.17,4.37-2.79,8.04-3.48,2.42-.45,4.7-.39,8.88.36,8.01,1.44,10.73,3.23,17.04,4.68,4.08.94,6.96,1.12,12.24,1.44,10.75.66,34.39.85,65.27-1.88"/>
      <path class="cls-5" d="m59.83,105.68c-2.16-1.53-5.04-3.94-7.65-7.44-2.13-2.86-3.42-5.58-4.22-7.68"/>
      <path class="cls-5" d="m47.11,92.24c-.86,1.37-2.1,3.06-3.84,4.69-2.37,2.23-4.71,3.46-6.36,4.14"/>
      <path class="cls-5" d="m35.83,101.07c1.19.08,4.89.49,8.16,3.62,4.2,4.03,4.46,9.48,4.49,10.46"/>
      <path class="cls-5" d="m49.03,118.51c.6-1.69,1.85-4.46,4.51-7.2,2.25-2.32,4.64-3.74,6.29-4.56"/>
      <path class="cls-1" d="m30.38,82.4v.2c0,1.17.98,2.11,2.15,2.05l13.22-.65,15.63.2,14.88-.4h25.92c.64,0,1.17.52,1.18,1.16l.13,8.78c-.14.82.77,1.74,1.94,1.91h1.75"/>
      <path class="cls-1" d="m95.78,128.13v-.52c.04-.86.72-1.56,1.58-1.61l4.53-.23c1.19-.02,2.15-.98,2.15-2.17l-.56-29.85"/>
      <rect class="cls-7" x="23.81" y="68.27" width="14.33" height="14.33" rx="7.17" ry="7.17"/>
      <rect class="cls-7" x="87.56" y="126.96" width="14.33" height="14.33" rx="7.17" ry="7.17"/>
      <g>
        <path class="cls-11" d="m30.19,70.75c.21-.22,1.1-.32,1.1-.06.06,2.83-.04,6.94,0,8.69,0,0-1.78,0-2.76,0-.31,0-.22-2.45-.3-4.14-.01-.25-1.73.19-1.41-.51.09-.21,1.66-2.18,3.37-3.98Z"/>
        <path class="cls-11" d="m31.75,70.75c-.21-.22-1.1-.32-1.1-.06-.06,2.83.04,6.94,0,8.69,0,0,1.78,0,2.76,0,.31,0,.22-2.45.3-4.14.01-.25,1.73.19,1.41-.51-.09-.21-1.66-2.18-3.37-3.98Z"/>
      </g>
      <g>
        <path class="cls-11" d="m93.95,129.6c.21-.22,1.1-.32,1.1-.06.06,2.83-.04,6.94,0,8.69,0,0-1.78,0-2.76,0-.31,0-.22-2.45-.3-4.14-.01-.25-1.73.19-1.41-.51.09-.21,1.66-2.18,3.37-3.98Z"/>
        <path class="cls-11" d="m95.51,129.6c-.21-.22-1.1-.32-1.1-.06-.06,2.83.04,6.94,0,8.69,0,0,1.78,0,2.76,0,.31,0,.22-2.45.3-4.14.01-.25,1.73.19,1.41-.51-.09-.21-1.66-2.18-3.37-3.98Z"/>
      </g>
      <g>
        <path class="cls-10" d="m53.28,21.38h1.71l4.62,10.58h-1.95l-1.06-2.54h-4.96l-1.08,2.54h-1.89l4.62-10.58Zm2.64,6.41l-1.81-4.2-1.8,4.2h3.61Z"/>
        <path class="cls-10" d="m60.39,28.04v-.03c0-2.25,1.74-4.14,4.12-4.14,1.49,0,2.42.55,3.17,1.37l-1.14,1.21c-.55-.57-1.14-.99-2.04-.99-1.32,0-2.29,1.14-2.29,2.52v.03c0,1.41.97,2.54,2.37,2.54.86,0,1.47-.39,2.06-.97l1.09,1.08c-.78.87-1.7,1.49-3.24,1.49-2.35,0-4.09-1.84-4.09-4.09Z"/>
        <path class="cls-10" d="m68.73,28.04v-.03c0-2.25,1.74-4.14,4.12-4.14,1.49,0,2.42.55,3.17,1.37l-1.14,1.21c-.55-.57-1.14-.99-2.04-.99-1.32,0-2.29,1.14-2.29,2.52v.03c0,1.41.97,2.54,2.37,2.54.86,0,1.47-.39,2.06-.97l1.09,1.08c-.78.87-1.7,1.49-3.24,1.49-2.35,0-4.09-1.84-4.09-4.09Z"/>
        <path class="cls-10" d="m77.07,28.02v-.03c0-2.26,1.6-4.12,3.87-4.12,2.52,0,3.79,1.98,3.79,4.26,0,.17-.01.33-.03.51h-5.82c.2,1.29,1.11,2.01,2.28,2.01.88,0,1.51-.33,2.14-.94l1.07.94c-.75.9-1.79,1.49-3.24,1.49-2.29,0-4.06-1.67-4.06-4.11Zm5.86-.58c-.12-1.17-.81-2.08-2.01-2.08-1.11,0-1.89.85-2.05,2.08h4.06Z"/>
        <path class="cls-10" d="m85.92,30.92l.81-1.23c.87.65,1.78.98,2.59.98s1.23-.33,1.23-.86v-.03c0-.62-.84-.83-1.77-1.11-1.17-.33-2.48-.81-2.48-2.31v-.03c0-1.51,1.25-2.43,2.82-2.43.99,0,2.07.34,2.91.9l-.72,1.29c-.76-.46-1.57-.75-2.23-.75-.71,0-1.11.35-1.11.78v.03c0,.58.86.82,1.79,1.12,1.16.36,2.46.88,2.46,2.31v.03c0,1.67-1.29,2.49-2.94,2.49-1.12,0-2.37-.39-3.36-1.18Z"/>
        <path class="cls-10" d="m93.29,30.92l.81-1.23c.87.65,1.79.98,2.59.98s1.23-.33,1.23-.86v-.03c0-.62-.84-.83-1.77-1.11-1.17-.33-2.47-.81-2.47-2.31v-.03c0-1.51,1.25-2.43,2.82-2.43.99,0,2.07.34,2.91.9l-.72,1.29c-.76-.46-1.58-.75-2.24-.75-.7,0-1.11.35-1.11.78v.03c0,.58.85.82,1.79,1.12,1.15.36,2.46.88,2.46,2.31v.03c0,1.67-1.29,2.49-2.94,2.49-1.12,0-2.37-.39-3.36-1.18Z"/>
        <path class="cls-10" d="m106.32,29.76v-4.17h-1v-1.56h1v-2.17h1.82v2.17h2.13v1.56h-2.13v3.88c0,.71.36.99.97.99.41,0,.76-.09,1.12-.27v1.48c-.45.25-.95.41-1.63.41-1.33,0-2.28-.58-2.28-2.33Z"/>
        <path class="cls-10" d="m111.45,28.04v-.03c0-2.26,1.8-4.14,4.23-4.14s4.21,1.84,4.21,4.11v.03c0,2.25-1.8,4.12-4.24,4.12s-4.2-1.84-4.2-4.09Zm6.63,0v-.03c0-1.39-1-2.55-2.43-2.55s-2.38,1.14-2.38,2.52v.03c0,1.38,1,2.54,2.41,2.54s2.4-1.14,2.4-2.5Z"/>
        <path class="cls-10" d="m41.56,39.45h1.84v4.37h5.01v-4.37h1.85v10.5h-1.85v-4.42h-5.01v4.42h-1.84v-10.5Z"/>
        <path class="cls-10" d="m52.32,46.02v-.03c0-2.26,1.61-4.12,3.87-4.12,2.52,0,3.79,1.98,3.79,4.26,0,.17-.02.33-.03.51h-5.82c.19,1.29,1.11,2.01,2.28,2.01.88,0,1.52-.33,2.15-.94l1.06.94c-.75.9-1.79,1.49-3.24,1.49-2.29,0-4.07-1.67-4.07-4.11Zm5.87-.58c-.12-1.17-.81-2.08-2.01-2.08-1.11,0-1.89.85-2.05,2.08h4.07Z"/>
        <path class="cls-10" d="m61.27,47.67v-.03c0-1.71,1.35-2.55,3.29-2.55.88,0,1.51.14,2.13.33v-.19c0-1.12-.69-1.73-1.96-1.73-.88,0-1.54.2-2.26.5l-.5-1.42c.88-.39,1.74-.65,3-.65,1.18,0,2.07.32,2.62.89.58.57.86,1.41.86,2.44v4.7h-1.77v-.99c-.54.64-1.36,1.16-2.58,1.16-1.49,0-2.82-.86-2.82-2.45Zm5.45-.57v-.54c-.47-.18-1.08-.32-1.8-.32-1.17,0-1.86.5-1.86,1.32v.03c0,.77.67,1.2,1.54,1.2,1.2,0,2.12-.69,2.12-1.7Z"/>
        <path class="cls-10" d="m70.71,39h1.83v10.95h-1.83v-10.95Z"/>
        <path class="cls-10" d="m75.28,47.76v-4.17h-1v-1.56h1v-2.17h1.82v2.17h2.13v1.56h-2.13v3.88c0,.71.36.99.97.99.41,0,.76-.09,1.12-.27v1.48c-.45.25-.95.41-1.63.41-1.33,0-2.28-.58-2.28-2.33Z"/>
        <path class="cls-10" d="m81.06,39h1.83v4.25c.51-.73,1.24-1.38,2.47-1.38,1.79,0,2.82,1.2,2.82,3.03v5.05h-1.81v-4.5c0-1.23-.62-1.93-1.7-1.93s-1.78.73-1.78,1.96v4.47h-1.83v-10.95Z"/>
        <path class="cls-10" d="m94.62,44.73v-.03c0-2.99,2.23-5.43,5.4-5.43,1.95,0,3.12.67,4.12,1.63l-1.18,1.37c-.86-.78-1.74-1.29-2.96-1.29-1.98,0-3.45,1.63-3.45,3.69v.03c0,2.05,1.46,3.72,3.46,3.72,1.29,0,2.12-.51,3.02-1.35l1.18,1.2c-1.09,1.14-2.29,1.86-4.26,1.86-3.08,0-5.34-2.38-5.34-5.4Z"/>
        <path class="cls-10" d="m105.41,47.67v-.03c0-1.71,1.35-2.55,3.29-2.55.88,0,1.51.14,2.13.33v-.19c0-1.12-.69-1.73-1.96-1.73-.88,0-1.54.2-2.26.5l-.5-1.42c.88-.39,1.74-.65,3-.65,1.18,0,2.07.32,2.62.89.58.57.86,1.41.86,2.44v4.7h-1.77v-.99c-.54.64-1.36,1.16-2.58,1.16-1.49,0-2.82-.86-2.82-2.45Zm5.45-.57v-.54c-.47-.18-1.08-.32-1.8-.32-1.17,0-1.86.5-1.86,1.32v.03c0,.77.67,1.2,1.54,1.2,1.2,0,2.12-.69,2.12-1.7Z"/>
        <path class="cls-10" d="m114.75,42.03h1.83v1.79c.49-1.19,1.41-2,2.8-1.94v1.92h-.11c-1.59,0-2.7,1.04-2.7,3.14v3.01h-1.83v-7.92Z"/>
        <path class="cls-10" d="m120.25,46.02v-.03c0-2.26,1.6-4.12,3.87-4.12,2.52,0,3.79,1.98,3.79,4.26,0,.17-.01.33-.03.51h-5.82c.2,1.29,1.11,2.01,2.28,2.01.88,0,1.51-.33,2.14-.94l1.07.94c-.75.9-1.79,1.49-3.24,1.49-2.29,0-4.06-1.67-4.06-4.11Zm5.86-.58c-.12-1.17-.81-2.08-2.01-2.08-1.11,0-1.89.85-2.05,2.08h4.06Z"/>
      </g>
    </g>
  </g>
</svg>