<?xml version="1.0" encoding="UTF-8"?>
<svg id="Cards" xmlns="http://www.w3.org/2000/svg" viewBox="0 0 165.48 173.59">
  <defs>
    <style>
      .cls-1 {
        stroke: #282661;
        stroke-miterlimit: 10;
        stroke-width: 2px;
      }

      .cls-1, .cls-2 {
        fill: none;
      }

      .cls-2 {
        stroke: #d39c66;
        stroke-linecap: round;
        stroke-linejoin: round;
        stroke-width: .5px;
      }

      .cls-3 {
        fill: #282661;
        font-family: Gotham-Medium, Gotham;
        font-size: 15px;
        font-weight: 500;
      }

      .cls-4 {
        fill: #f6f7f9;
      }

      .cls-4, .cls-5, .cls-6, .cls-7, .cls-8, .cls-9, .cls-10, .cls-11, .cls-12, .cls-13, .cls-14, .cls-15, .cls-16, .cls-17 {
        stroke-width: 0px;
      }

      .cls-5 {
        fill: #8282b1;
      }

      .cls-6 {
        fill: #546875;
      }

      .cls-7 {
        fill: #717d82;
      }

      .cls-8 {
        fill: #dde3e9;
      }

      .cls-9 {
        fill: #abb2b7;
      }

      .cls-10 {
        fill: #b5b035;
      }

      .cls-11 {
        fill: #96999a;
      }

      .cls-12 {
        fill: #9793c8;
      }

      .cls-13 {
        fill: #fff7db;
      }

      .cls-14 {
        fill: #fbc39f;
      }

      .cls-15 {
        fill: #fbc49f;
      }

      .cls-16 {
        fill: #f5f6f8;
      }

      .cls-17 {
        fill: #f5f7f9;
      }
    </style>
  </defs>
  <path class="cls-6" d="m61.96,50.25c-37.54.1-2.56,10.82.24,16.21.67,1.3-.64,3.78.22,4.62,3.46,3.37,9.67-.06,11.88,2.88.35.47.54.92.98,4.17.57,4.23.85,6.35.96,10.11.31,10.68,49.32,37.76,60.74,24.68.99-1.14,1.4-2.47,2.18-5.08,4.66-15.72-2.48-22.2-.96-39.44.8-9.06-.05-11.51.1-16.09.08-2.39-3.57-.7-7.12-.14-4.17.66-2.49-.96-21.24-1.37-35.4-.77-28.47-.46-41.2-.32-1.85.02-3.76-.25-6.78-.24Z"/>
  <polygon class="cls-7" points="20.34 136.61 47.91 149.73 20.34 147.77 20.34 136.61"/>
  <path class="cls-9" d="m63.02,64.09l4.72,61.78c.84,11-10.15,19.07-20.39,14.97l-16.77-6.71c-6.08-2.43-11,4.87-10.45-1.66l2.85-33.82c.1-1.21-.78-7.81-.97-9.01-6.74-40.91,2.91-29.57,9.89-33.02l9.67-4.77c2.03-1,4.25-1.53,6.51-1.54h0c7.82-.04,14.35,5.97,14.94,13.77Z"/>
  <path class="cls-11" d="m23.71,50.84l.72-.5h20.22l-24.3,13.75v-6.84c0-2.56,1.26-4.95,3.36-6.4Z"/>
  <polygon class="cls-6" points="20.34 129.91 20.34 136.61 45.14 149.34 65.11 150.43 20.34 129.91"/>
  <path class="cls-5" d="m65.11,150.43c-11.33-.47-30.83-16.26-36.61-16.78-.42-.04-2.35-.16-3.04-1.39-.81-1.44.64-3.39,1.42-5.05,3.29-7.03-2.07-15.03.62-17.31,1.08-.92,2.46.64,6.89,2.07,4.73,1.53,7.94,2.33,11.5,4.36,14.75,8.36,77.1,30.94,87.71,30.01.53-.05,1.9-.31,3.01.97,1.54,1.77,1.17,5.8.73,5.8-11.49,0-30.85-.93-72.23-2.65Z"/>
  <polygon class="cls-12" points="27.1 109.75 47.91 91.33 135.16 117.28 135.16 146.61 27.1 109.75"/>
  <path class="cls-16" d="m28.57,96.23c.66,2.02,3.46,1.6,8.81,4.43,5.49,2.9,6.04,5.19,9.23,5.47,2.86.25,5.13-1.35,8.82-4.34,12.75-10.3,19.8-16.14,19.85-23.66,0-1.17,0-2.73-.98-4.17-1.86-2.74-4.95-1.68-10.16-4.6-2.8-1.57-3.07-2.53-4.84-2.66-2.82-.21-5.09,2-6.53,3.39-10.49,10.07-5.62,3.37-19.36,18.39-3.85,4.21-5.4,6.02-4.84,7.74Z"/>
  <path class="cls-8" d="m88.11,151.77c-11.69-2.13-11.96-6.61-24.7-10.53-12.16-3.74-20.26-2.23-22.02-7.02-.31-.85.03-3.07.73-7.5,1.02-6.51,1.55-11.49,2.9-12.12,2.06-.95,4.15,3.48,11.09,6.97,1.86.93,4.06.93,8.45,2.63,34.95,13.52,53.17,16.47,53.17,16.47,7.21.83,16.73,1.21,19.73,6.62.77,1.38,1.09,4.51-.13,5.8-1.13,1.2-3.81-.11-4.95-.05-12.2.65-18.39.34-27.58.04-16.66-.54-14.92-.98-16.69-1.3Z"/>
  <path class="cls-4" d="m44.61,116.61c-.77-2.97,2.12-6.76,7.91-14.34,6.1-7.98,6.81-6.76,14.52-15.97,5.46-6.52,7.18-9.62,11.62-10.77,3.48-.9,6.44-.04,9.32.85,14.48,4.48,17.68,6.91,25.89,9.44,12.81,3.95,24.99,3.14,27.02,8.83.37,1.05.37,1.9.36,2.78-.13,11.53-4.54,22.65-4.76,26.62-.79,14.11,4.2,22.45,1.32,23.74-1.29.58-3.35-.93-7.23-2.75-5.54-2.6-9.96-2.75-13.33-3.21-12.99-1.74-22.78-9.49-46.95-15.97-16.17-4.34-24.39-4.25-25.7-9.26Z"/>
  <path class="cls-13" d="m100.39,71.04c.06,4.28,6.94-6.12,19.89-3.61,13.77,2.67,18.56,5.59,18.62,2.26.16-8.14,1.01-10.89,1.11-16.51.05-2.82-4.43-2.58-12.71-2.57-11.81,0-21.05-.11-21.05-.11-.42.08-5.59-1.02-5.7.73-.23,3.68-.24,14.24-.16,19.82Z"/>
  <path class="cls-10" d="m100.35,63.49c0,3.44-.03,4.75-.23,8.29-.41,7.16-.94,6.28,21.86,7.14,4.32.16,15.99,1.49,16.2-1.15.23-2.93.38-4.74.5-6.72.14-2.29.66-3.24,0-4.36-1.18-1.98-4.25-1.96-7.02-2.18-4.99-.4-1.06.61-16.57-2.64-3.01-.63-7.75-.73-9.77-.48-1.41.17-4.97.9-4.97,2.09Z"/>
  <path class="cls-15" d="m51.07,99.86c-2.71-.03-3.99,4.41-4.11,4.84-.29,1-.84,2.91,0,3.63,1.52,1.3,7.75-1.21,7.74-4.6,0-1.82-1.81-3.85-3.63-3.87Z"/>
  <path class="cls-15" d="m71.64,79.77c-1.3,1.09-2.51,3.04-1.94,3.87.61.89,3.16.33,4.84-.73,1.85-1.16,3.48-3.45,2.9-4.36-.61-.97-3.81-.48-5.81,1.21Z"/>
  <path id="Head" class="cls-14" d="m38.49,89.45c2.14,4.77,7.04,6.19,8.23,6.53.67.19,7.97,2.18,13.31-2.9,2.94-2.8,5.31-7.76,3.63-12.58-1.77-5.1-6.94-6.83-8.23-7.26-.78-.26-8.59-2.72-14.04,2.66-3.37,3.34-5,8.87-2.9,13.55Z"/>
  <path class="cls-2" d="m51.72,79.25c.72,0,1.66-.05,2.77-.2,1.1-.15,2.02-.37,2.73-.56"/>
  <path class="cls-2" d="m48.54,84.79c0,.58,0,1.18,0,1.8-.02.82-.06,1.62-.11,2.38"/>
  <path class="cls-2" d="m52.4,90.3c.47-.9,1.2-2.08,2.3-3.27,1.17-1.27,2.36-2.12,3.27-2.66"/>
  <circle class="cls-17" cx="46.02" cy="84.82" r="1.89"/>
  <circle class="cls-17" cx="52.5" cy="77.05" r="1.89"/>
  <text class="cls-3" transform="translate(20.77 31.95)"><tspan x="0" y="0">Amount of Sleep</tspan></text>
  <rect id="Border" class="cls-1" x="1" y="1" width="163.48" height="171.59"/>
</svg>