<?xml version="1.0" encoding="UTF-8"?>
<svg id="Cards" xmlns="http://www.w3.org/2000/svg" viewBox="0 0 165.48 173.59">
  <defs>
    <style>
      .cls-1 {
        stroke: #bbbdbf;
        stroke-linecap: round;
        stroke-linejoin: round;
      }

      .cls-1, .cls-2 {
        fill: none;
      }

      .cls-2 {
        stroke: #282661;
        stroke-miterlimit: 10;
        stroke-width: 2px;
      }

      .cls-3 {
        fill: #282661;
        font-family: Gotham-Medium, Gotham;
        font-size: 15px;
        font-weight: 500;
      }

      .cls-4 {
        fill: #f3f3f4;
      }

      .cls-4, .cls-5, .cls-6, .cls-7, .cls-8, .cls-9, .cls-10, .cls-11 {
        stroke-width: 0px;
      }

      .cls-5 {
        fill: #f3f8f9;
      }

      .cls-6 {
        fill: #f9a83b;
      }

      .cls-7 {
        fill: #2a9dcb;
      }

      .cls-8 {
        fill: #c3ccd5;
      }

      .cls-9 {
        fill: #cfe4b1;
      }

      .cls-10 {
        fill: #dfe3e7;
      }

      .cls-11 {
        fill: #fff7da;
      }

      .cls-12 {
        letter-spacing: -.03em;
      }
    </style>
  </defs>
  <path class="cls-7" d="m41.23,101.35c-11.64-17.64.97-38.01,6.54-40.93,27.92-14.66,38.91,5.95,61.13,8.67,22.58,2.76,15.5,38.5,1.39,48.4-9.49,6.66,36.14,15.87,32.38,25.11-5.79,14.23-61.65-1.91-65.6-1.78-3.17.11-38.41,17.18-44.79,1.78-9.16-22.12,21.86-21.72,8.97-41.25Z"/>
  <rect class="cls-6" x="54.42" y="76.44" width="31.45" height="44.76"/>
  <path class="cls-5" d="m54.42,93.73h16.18c2.73,0,4.95,2.22,4.95,4.95v26.84h-21.13v-31.79h0Z"/>
  <rect class="cls-4" x="49.1" y="67.29" width="41.93" height="12.81" rx="2.97" ry="2.97"/>
  <line class="cls-1" x1="55.75" y1="67.9" x2="55.75" y2="76.1"/>
  <line class="cls-1" x1="65.74" y1="67.9" x2="65.74" y2="77.27"/>
  <line class="cls-1" x1="75.55" y1="67.95" x2="75.55" y2="77.27"/>
  <line class="cls-1" x1="83.29" y1="68.17" x2="83.29" y2="73.03"/>
  <path class="cls-10" d="m47.2,136.57c-1.36-.13-2.72-5.84-1.76-10.55,1.54-7.6,8.94-11.9,16.47-16.14,3.82-2.15,13.54-7.21,28.95-9.82,11.86-2.01,18.39-2.13,26.95-.17,23.21,5.32,19.14,16.7,18.21,18.11-.27.41-3.6,20.28-26.53-6.3-1.78-2.06-5.5-3.9-11.98-2.99-18.09,2.52-22.82,7.27-30.61,12.98-4.46,3.26-13.73,3.4-16.8,9.82-1.22,2.55-1.96,5.15-2.9,5.06Z"/>
  <path class="cls-11" d="m48.12,137.95c-.35-3.72,1.69-6.68,3.68-9.47,4.6-6.45,10.58-9.53,15.43-11.95,6.62-3.31,12.1-4.67,17.15-5.9,3.9-.94,10.48-2.5,19.27-2.73,4.35-.11,10.3-.23,17.65,1.64,6.77,1.72,11.72,2.98,13.48,6.82,2.57,5.63-3.34,13.25-5.32,15.81-9.6,12.38-24.29,15.72-35.61,18.14-9.71,2.07-26.58,5.67-38.43-2.5-2-1.37-6.81-4.69-7.3-9.86Z"/>
  <path class="cls-9" d="m82.21,118.2c-.9-.92-.56-1.47-1.33-2.16-1.69-1.52-5.65-.97-6.82,1-.58.97.06,1.38-.33,2.66-.91,2.92-4.75,2.43-6.16,5.49-.87,1.9.02,3.37-1,3.99-1.21.74-2.73-1.16-4.49-.5-1.41.53-2.17,2.38-2.16,3.83.02,3.14,3.71,5.63,4.99,4.99,1.17-.58-.09-3.54,1.33-4.49,1.56-1.05,3.67,2.12,6.99,1.66,2.89-.4,3.11-3.05,6.82-3.66,1.8-.3,3.86-.02,4.16.83.21.58-.56.99-.5,2,.08,1.41,1.68,2.03,1.5,2.5-.23.6-2.86-.23-6.66-.17-3.51.06-4.34.81-4.66,1.16-.84.94-1.25,2.62-.5,3.49.78.91,2.6.67,3.66,0,.95-.6.9-1.32,1.66-1.5.72-.17,1.21.35,2.83,1.33,1.88,1.14,2.82,1.7,3.49,1.5.69-.21.75-.87,2.16-3.33.7-1.22,1.05-1.83,1.33-2.16,1.41-1.69,3.62-2.12,6.66-2.66,3.03-.55,4.19-.3,4.99-1.33.88-1.13.05-2.12.83-2.99,1.55-1.73,5.8,1.04,7.49-.67,1.21-1.22,0-3.63,1-4.16,1.17-.62,3.04,2.51,4.83,2,1.42-.41,2.33-3,1.83-4.99-.71-2.83-4.28-4.61-7.15-4.49-2.87.12-4.12,2.09-5.66,1.33-1.62-.79-.68-3.17-2.33-4.49-2.23-1.78-7.62-.38-10.81,2.5-1.46,1.31-2,2.51-3.66,2.83-1.42.27-3.21-.19-4.33-1.33Z"/>
  <path class="cls-8" d="m137.53,115.23c-2.4-9.47,1.45,10.29-18.97,20.44-16.43,8.16-27.56,17.24-61.14,7.04-11.44-3.47-12.45-16.67-12.3-14.77.6,7.73.36,6.71,1.64,14.36.7,4.18,7.11,8.34,11.32,10.39,13.26,6.46,27.65,4.5,33.28,3.66,11.76-1.75,22.69-4.65,38.93-18.3,10.86-9.12,9.47-14.02,7.24-22.82Z"/>
  <text class="cls-3" transform="translate(40.34 31.95)"><tspan x="0" y="0">Am</tspan><tspan class="cls-12" x="26.08" y="0">o</tspan><tspan x="35.42" y="0">xicillin</tspan></text>
  <rect id="Border" class="cls-2" x="1" y="1" width="163.48" height="171.59"/>
</svg>