<?xml version="1.0" encoding="UTF-8"?>
<svg id="Layer_2" data-name="Layer 2" xmlns="http://www.w3.org/2000/svg" viewBox="0 0 165.48 173.59">
  <defs>
    <style>
      .cls-1 {
        fill: none;
        stroke: #bbbdbf;
        stroke-linecap: round;
        stroke-linejoin: round;
      }

      .cls-2 {
        fill: #fff;
        stroke: #282661;
        stroke-miterlimit: 10;
        stroke-width: 2px;
      }

      .cls-3 {
        fill: #f3f3f4;
      }

      .cls-3, .cls-4, .cls-5, .cls-6, .cls-7 {
        stroke-width: 0px;
      }

      .cls-4 {
        fill: #f3f8f9;
      }

      .cls-5 {
        fill: #f9a83b;
      }

      .cls-6 {
        fill: #282661;
      }

      .cls-7 {
        fill: #2a9dcb;
      }
    </style>
  </defs>
  <g id="Cards_Updated_Copy_Outlined_" data-name="Cards (Updated | Copy Outlined)">
    <g>
      <rect id="Border" class="cls-2" x="1" y="1" width="163.48" height="171.59" rx="18" ry="18"/>
      <path class="cls-7" d="m32.68,83.8c-8.8-19.22,15.09-33.61,21.04-35.64,29.84-10.2,37.54,11.86,59.07,17.95,21.89,6.2,29.03,38.91,13.56,46.52-10.4,5.12-1.57,32.08-10.99,35.37-23.61,8.25-32.55-19.55-49.78-11.09-18.02,8.85-35.86,6.26-39.79-9.94-5.65-23.26,16.64-21.9,6.9-43.18Z"/>
      <rect class="cls-5" x="53.79" y="78.44" width="42.36" height="75.95" rx="6.25" ry="6.25" transform="translate(24.85 -12.66) rotate(11.56)"/>
      <path class="cls-4" d="m53.11,98.04h22.12c2.73,0,4.95,2.22,4.95,4.95v34.1h-27.07v-39.05h0Z" transform="translate(24.91 -10.97) rotate(11.56)"/>
      <rect class="cls-3" x="56.26" y="68.01" width="53.72" height="15.74" rx="2.97" ry="2.97" transform="translate(16.89 -15.12) rotate(11.56)"/>
      <line class="cls-1" x1="66.58" y1="65.23" x2="64.56" y2="75.11"/>
      <line class="cls-1" x1="79.11" y1="67.8" x2="76.81" y2="79.07"/>
      <line class="cls-1" x1="91.42" y1="70.38" x2="89.13" y2="81.6"/>
      <line class="cls-1" x1="101.08" y1="72.63" x2="99.88" y2="78.47"/>
      <g>
        <path class="cls-6" d="m45.41,21.38h1.71l4.62,10.58h-1.95l-1.07-2.54h-4.96l-1.08,2.54h-1.89l4.62-10.58Zm2.64,6.41l-1.82-4.2-1.8,4.2h3.61Z"/>
        <path class="cls-6" d="m53.31,24.03h1.83v1.2c.51-.71,1.2-1.37,2.42-1.37,1.14,0,1.95.55,2.37,1.39.63-.84,1.47-1.39,2.67-1.39,1.72,0,2.78,1.09,2.78,3.03v5.05h-1.81v-4.5c0-1.26-.59-1.93-1.61-1.93s-1.7.69-1.7,1.96v4.47h-1.81v-4.51c0-1.23-.6-1.92-1.61-1.92s-1.69.75-1.69,1.96v4.47h-1.83v-7.92Z"/>
        <path class="cls-6" d="m67.13,28.04v-.03c0-2.26,1.8-4.14,4.23-4.14s4.21,1.84,4.21,4.11v.03c0,2.25-1.8,4.12-4.24,4.12s-4.2-1.84-4.2-4.09Zm6.63,0v-.03c0-1.39-1-2.55-2.43-2.55s-2.38,1.14-2.38,2.52v.03c0,1.38,1,2.54,2.41,2.54s2.4-1.14,2.4-2.5Z"/>
        <path class="cls-6" d="m80.1,26.69l1.84-2.66h1.93l-2.79,3.87,2.91,4.05h-1.98l-1.95-2.82-1.93,2.82h-1.94l2.89-4.04-2.79-3.88h1.98l1.82,2.66Z"/>
        <path class="cls-6" d="m85.62,21.09h1.95v1.72h-1.95v-1.72Zm.06,2.94h1.83v7.92h-1.83v-7.92Z"/>
        <path class="cls-6" d="m89.45,28.04v-.03c0-2.25,1.74-4.14,4.12-4.14,1.49,0,2.42.55,3.17,1.37l-1.14,1.21c-.55-.57-1.14-.99-2.04-.99-1.32,0-2.29,1.14-2.29,2.52v.03c0,1.41.97,2.54,2.37,2.54.86,0,1.47-.39,2.05-.97l1.1,1.08c-.78.87-1.7,1.49-3.24,1.49-2.36,0-4.09-1.84-4.09-4.09Z"/>
        <path class="cls-6" d="m98.48,21.09h1.95v1.72h-1.95v-1.72Zm.06,2.94h1.83v7.92h-1.83v-7.92Z"/>
        <path class="cls-6" d="m102.83,21h1.83v10.95h-1.83v-10.95Z"/>
        <path class="cls-6" d="m107.12,21h1.83v10.95h-1.83v-10.95Z"/>
        <path class="cls-6" d="m111.35,21.09h1.95v1.72h-1.95v-1.72Zm.06,2.94h1.83v7.92h-1.83v-7.92Z"/>
        <path class="cls-6" d="m115.6,24.03h1.83v1.21c.51-.73,1.24-1.38,2.47-1.38,1.79,0,2.82,1.2,2.82,3.03v5.05h-1.82v-4.5c0-1.23-.61-1.93-1.69-1.93s-1.78.73-1.78,1.96v4.47h-1.83v-7.92Z"/>
      </g>
    </g>
  </g>
</svg>