<?xml version="1.0" encoding="UTF-8"?>
<svg id="Cards" xmlns="http://www.w3.org/2000/svg" viewBox="0 0 165.48 173.59">
  <defs>
    <style>
      .cls-1 {
        stroke: #808184;
        stroke-width: 1.5px;
      }

      .cls-1, .cls-2 {
        fill: none;
      }

      .cls-1, .cls-3, .cls-4 {
        stroke-linecap: round;
        stroke-linejoin: round;
      }

      .cls-5 {
        letter-spacing: -.02em;
      }

      .cls-6 {
        letter-spacing: -.03em;
      }

      .cls-7 {
        letter-spacing: -.02em;
      }

      .cls-2 {
        stroke: #282661;
      }

      .cls-2, .cls-8 {
        stroke-miterlimit: 10;
      }

      .cls-2, .cls-4 {
        stroke-width: 2px;
      }

      .cls-9 {
        fill: #231f20;
        font-family: Gotham-Light, Gotham;
        font-size: 9.27px;
        font-weight: 300;
      }

      .cls-10 {
        letter-spacing: 0em;
      }

      .cls-11 {
        fill: #282661;
        font-family: Gotham-Medium, Gotham;
        font-size: 15px;
        font-weight: 500;
      }

      .cls-12 {
        fill: #1ca6dc;
      }

      .cls-12, .cls-13, .cls-14, .cls-15 {
        stroke-width: 0px;
      }

      .cls-13 {
        fill: #248ab1;
      }

      .cls-14 {
        fill: #ef9070;
      }

      .cls-15 {
        fill: #ffd04f;
      }

      .cls-8 {
        fill: #c3ccd4;
        stroke: #a6a8ab;
        stroke-width: .75px;
      }

      .cls-3 {
        stroke: #58595b;
        stroke-width: .5px;
      }

      .cls-3, .cls-4 {
        fill: #f3f3f4;
      }

      .cls-4 {
        stroke: #404041;
      }
    </style>
  </defs>
  <path class="cls-15" d="m33.78,69.96c0,20.53,0,29.81-.19,55.7-.04,5.77-2.94,15.45.58,18.65,1.67,1.52,3.94.95,4.99.71,13.1-3.02,21.73,2.05,45.94,1.31.45-.01,9.74-.18,10.51-1.07,1.36-1.59-1.93-6.49-2.4-7.79-2.01-5.61-2.21-21.05-5.48-51.93-2.13-20.18-1.79-28.2-6.72-31.39-1.78-1.15-2.61-.62-10.75-.47-14.25.26-15.36-1.31-19.77,0-10.42,3.09-16.7,15.28-16.7,16.29Z"/>
  <path class="cls-14" d="m54.13,93.65c.3-4.97.94-8.84,2.23-16.57,1.84-11.04,3.01-13.87,5.47-15.5,3.12-2.06,6.82-1.17,7.91-.86,7.87,2.28,10.8,13.39,11.76,17,1.13,4.26,1.07,6.75,1.01,17.87-.12,24.17.08,26.51-.41,37.88-.17,4.04-5.22,13.7-8.11,13.56-18.78-.93-21.48-1.69-27.57-1.72-9.55-.05-10.41,2.47-12.26-.86-3.22-5.81-1.5-9.84-.58-17,.29-2.29,1.74-1.81,5.94-2.58,8.72-1.6,12.79.03,14.6-2.58,1.06-1.53.51-3.33,0-6.46-.98-5.96-.65-11.36,0-22.17Z"/>
  <path class="cls-1" d="m81.14,105.68c1.2.06,3.05.28,5.11,1.11.34.14,8.15,2.53,8.88,9.1,1.85,16.57,17.68,8.88,17.68,8.88"/>
  <path class="cls-1" d="m82.92,104.06c.99.33,2.67,1.01,4.66.61,7.42-1.52,5.01-14.58,12.49-15.2,5.59-.46,8.85,8.47,9.57,8.58"/>
  <path class="cls-13" d="m60.32,97.24c7.62-.18,9.82-.28,14.87-.06,1.85.08,8.03.18,8.87,3.44,1.15,4.48.66,8.76.92,11.56.83,8.79-2.94,10.13-10.78,9.97-12.57-.26-23.52,4.22-22.63-12.02.98-17.81,2.51-12.73,8.75-12.88Z"/>
  <path class="cls-12" d="m51.83,106.15c7.03.62,11.1,1.75,17.39,1.51,7.8-.29,6.93.52,14.77-1.44,2.31-.58,2.33,4.93,1.08,7.03-1.39,2.33-4.39,2.09-15.68,2.43-12.05.36-18.12,1.09-18.71-1.89-.82-4.19-.99-7.82,1.13-7.64Z"/>
  <rect class="cls-4" x="104.86" y="71.27" width="30.37" height="37.18" rx="2.95" ry="2.95"/>
  <text class="cls-9" transform="translate(113.34 85.37)"><tspan x="0" y="0">115</tspan></text>
  <text class="cls-9" transform="translate(114.37 101.78)"><tspan class="cls-6" x="0" y="0">7</tspan><tspan x="5.21" y="0">5</tspan></text>
  <line class="cls-3" x1="110.36" y1="89.6" x2="129.47" y2="89.6"/>
  <path class="cls-8" d="m112.34,124.26c-.25-2.5,2.57-4.61,4.49-5.48,3.34-1.51,8.56-1.37,10.17,1.37,1.65,2.81-.93,7.6-5.09,8.77-4.18,1.17-9.26-1.51-9.57-4.66Z"/>
  <text class="cls-11" transform="translate(25.96 33.33)"><tspan x="0" y="0">Blood P</tspan><tspan class="cls-7" x="59.41" y="0">r</tspan><tspan x="65.34" y="0">e</tspan><tspan class="cls-10" x="74.4" y="0">s</tspan><tspan x="81.76" y="0">su</tspan><tspan class="cls-5" x="98.58" y="0">r</tspan><tspan x="104.5" y="0">e</tspan></text>
  <rect id="Border" class="cls-2" x="1" y="1" width="163.48" height="171.59"/>
</svg>