<?xml version="1.0" encoding="UTF-8"?>
<svg id="Layer_2" data-name="Layer 2" xmlns="http://www.w3.org/2000/svg" viewBox="0 0 165.48 173.59">
  <defs>
    <style>
      .cls-1 {
        fill: none;
        stroke: #808184;
        stroke-width: 1.5px;
      }

      .cls-1, .cls-2, .cls-3 {
        stroke-linecap: round;
        stroke-linejoin: round;
      }

      .cls-4 {
        fill: #fff;
        stroke: #282661;
      }

      .cls-4, .cls-5 {
        stroke-miterlimit: 10;
      }

      .cls-4, .cls-3 {
        stroke-width: 2px;
      }

      .cls-6 {
        letter-spacing: -.02em;
      }

      .cls-7 {
        fill: #231f20;
        font-family: Gotham-Light, Gotham;
        font-size: 11px;
        font-weight: 300;
      }

      .cls-8 {
        fill: #282661;
      }

      .cls-8, .cls-9, .cls-10, .cls-11, .cls-12 {
        stroke-width: 0px;
      }

      .cls-9 {
        fill: #1ca6dc;
      }

      .cls-10 {
        fill: #248ab1;
      }

      .cls-11 {
        fill: #ef9070;
      }

      .cls-12 {
        fill: #ffd04f;
      }

      .cls-5 {
        fill: #c3ccd4;
        stroke: #a6a8ab;
        stroke-width: .75px;
      }

      .cls-2 {
        stroke: #58595b;
        stroke-width: .5px;
      }

      .cls-2, .cls-3 {
        fill: #f3f3f4;
      }

      .cls-3 {
        stroke: #404041;
      }
    </style>
  </defs>
  <g id="Cards_Updated_Copy_Outlined_" data-name="Cards (Updated | Copy Outlined)">
    <g>
      <rect id="Border" class="cls-4" x="1" y="1" width="163.48" height="171.59" rx="18" ry="18"/>
      <path class="cls-12" d="m33.78,69.96c0,20.53,0,29.81-.19,55.7-.04,5.77-2.94,15.45.58,18.65,1.67,1.52,3.94.95,4.99.71,13.1-3.02,21.73,2.05,45.94,1.31.45-.01,9.74-.18,10.51-1.07,1.36-1.59-1.93-6.49-2.4-7.79-2.01-5.61-2.21-21.05-5.48-51.93-2.13-20.18-1.79-28.2-6.72-31.39-1.78-1.15-2.61-.62-10.75-.47-14.25.26-15.36-1.31-19.77,0-10.42,3.09-16.7,15.28-16.7,16.29Z"/>
      <path class="cls-11" d="m54.13,93.65c.3-4.97.94-8.84,2.23-16.57,1.84-11.04,3.01-13.87,5.47-15.5,3.12-2.06,6.82-1.17,7.91-.86,7.87,2.28,10.8,13.39,11.76,17,1.13,4.26,1.07,6.75,1.01,17.87-.12,24.17.08,26.51-.41,37.88-.17,4.04-5.22,13.7-8.11,13.56-18.78-.93-21.48-1.69-27.57-1.72-9.55-.05-10.41,2.47-12.26-.86-3.22-5.81-1.5-9.84-.58-17,.29-2.29,1.74-1.81,5.94-2.58,8.72-1.6,12.79.03,14.6-2.58,1.06-1.53.51-3.33,0-6.46-.98-5.96-.65-11.36,0-22.17Z"/>
      <path class="cls-1" d="m81.14,105.68c1.2.06,3.05.28,5.11,1.11.34.14,8.15,2.53,8.88,9.1,1.85,16.57,17.68,8.88,17.68,8.88"/>
      <path class="cls-1" d="m82.92,104.06c.99.33,2.67,1.01,4.66.61,7.42-1.52,5.01-14.58,12.49-15.2,5.59-.46,8.85,8.47,9.57,8.58"/>
      <path class="cls-10" d="m60.32,97.24c7.62-.18,9.82-.28,14.87-.06,1.85.08,8.03.18,8.87,3.44,1.15,4.48.66,8.76.92,11.56.83,8.79-2.94,10.13-10.78,9.97-12.57-.26-23.52,4.22-22.63-12.02.98-17.81,2.51-12.73,8.75-12.88Z"/>
      <path class="cls-9" d="m51.83,106.15c7.03.62,11.1,1.75,17.39,1.51,7.8-.29,6.93.52,14.77-1.44,2.31-.58,2.33,4.93,1.08,7.03-1.39,2.33-4.39,2.09-15.68,2.43-12.05.36-18.12,1.09-18.71-1.89-.82-4.19-.99-7.82,1.13-7.64Z"/>
      <rect class="cls-3" x="104.86" y="71.27" width="30.37" height="37.18" rx="2.95" ry="2.95"/>
      <text class="cls-7" transform="translate(112.85 85.76)"><tspan x="0" y="0">115</tspan></text>
      <text class="cls-7" transform="translate(113.31 101.36)"><tspan class="cls-6" x="0" y="0">7</tspan><tspan x="6.18" y="0">5</tspan></text>
      <line class="cls-2" x1="110.36" y1="89.6" x2="129.47" y2="89.6"/>
      <path class="cls-5" d="m112.34,124.26c-.25-2.5,2.57-4.61,4.49-5.48,3.34-1.51,8.56-1.37,10.17,1.37,1.65,2.81-.93,7.6-5.09,8.77-4.18,1.17-9.26-1.51-9.57-4.66Z"/>
      <g>
        <path class="cls-8" d="m27.31,22.83h4.71c1.2,0,2.14.33,2.75.93.46.46.71,1.05.71,1.74v.03c0,1.26-.72,1.94-1.5,2.34,1.23.42,2.08,1.12,2.08,2.55v.03c0,1.88-1.54,2.88-3.88,2.88h-4.86v-10.5Zm6.31,2.97c0-.83-.66-1.33-1.84-1.33h-2.65v2.79h2.52c1.18,0,1.98-.46,1.98-1.42v-.03Zm-1.57,3.01h-2.92v2.88h3.06c1.25,0,2.02-.5,2.02-1.44v-.03c0-.88-.7-1.41-2.16-1.41Z"/>
        <path class="cls-8" d="m38.02,22.38h1.83v10.95h-1.83v-10.95Z"/>
        <path class="cls-8" d="m41.78,29.42v-.03c0-2.27,1.8-4.14,4.23-4.14s4.21,1.84,4.21,4.11v.03c0,2.25-1.8,4.12-4.24,4.12s-4.2-1.85-4.2-4.1Zm6.63,0v-.03c0-1.4-1-2.55-2.43-2.55s-2.38,1.14-2.38,2.52v.03c0,1.38,1,2.53,2.41,2.53s2.4-1.14,2.4-2.5Z"/>
        <path class="cls-8" d="m51.64,29.42v-.03c0-2.27,1.8-4.14,4.23-4.14s4.21,1.84,4.21,4.11v.03c0,2.25-1.8,4.12-4.25,4.12s-4.2-1.85-4.2-4.1Zm6.63,0v-.03c0-1.4-1-2.55-2.43-2.55s-2.38,1.14-2.38,2.52v.03c0,1.38,1,2.53,2.42,2.53s2.4-1.14,2.4-2.5Z"/>
        <path class="cls-8" d="m61.52,29.39v-.03c0-2.62,1.79-4.11,3.67-4.11,1.3,0,2.13.64,2.7,1.39v-4.26h1.81v10.95h-1.81v-1.32c-.58.82-1.41,1.48-2.7,1.48-1.86,0-3.67-1.48-3.67-4.11Zm6.4,0v-.03c0-1.53-1.08-2.54-2.29-2.54s-2.28.98-2.28,2.54v.03c0,1.53,1.05,2.53,2.28,2.53s2.29-1.02,2.29-2.53Z"/>
        <path class="cls-8" d="m76.7,22.83h4.14c2.46,0,3.99,1.39,3.99,3.51v.03c0,2.36-1.89,3.58-4.2,3.58h-2.08v3.38h-1.84v-10.5Zm3.99,5.46c1.39,0,2.26-.78,2.26-1.87v-.03c0-1.23-.88-1.88-2.26-1.88h-2.15v3.78h2.15Z"/>
        <path class="cls-8" d="m86.5,25.41h1.83v1.79c.5-1.18,1.41-2,2.8-1.93v1.92h-.1c-1.59,0-2.7,1.04-2.7,3.13v3.01h-1.83v-7.92Z"/>
        <path class="cls-8" d="m92,29.4v-.03c0-2.26,1.61-4.12,3.87-4.12,2.52,0,3.79,1.98,3.79,4.26,0,.17-.02.33-.03.51h-5.82c.19,1.29,1.11,2.01,2.28,2.01.88,0,1.52-.33,2.15-.95l1.06.95c-.75.9-1.79,1.49-3.24,1.49-2.29,0-4.07-1.67-4.07-4.11Zm5.87-.58c-.12-1.17-.81-2.08-2.01-2.08-1.11,0-1.89.86-2.06,2.08h4.07Z"/>
        <path class="cls-8" d="m100.85,32.3l.81-1.23c.87.64,1.79.97,2.59.97s1.23-.33,1.23-.85v-.03c0-.62-.84-.83-1.77-1.11-1.17-.33-2.47-.81-2.47-2.31v-.03c0-1.51,1.25-2.43,2.82-2.43.99,0,2.07.35,2.91.9l-.72,1.29c-.76-.46-1.58-.75-2.24-.75-.7,0-1.11.34-1.11.78v.03c0,.58.85.83,1.79,1.12,1.15.36,2.46.88,2.46,2.31v.03c0,1.67-1.29,2.49-2.94,2.49-1.12,0-2.37-.39-3.36-1.19Z"/>
        <path class="cls-8" d="m108.22,32.3l.81-1.23c.87.64,1.78.97,2.59.97s1.23-.33,1.23-.85v-.03c0-.62-.84-.83-1.77-1.11-1.17-.33-2.48-.81-2.48-2.31v-.03c0-1.51,1.25-2.43,2.82-2.43.99,0,2.07.35,2.91.9l-.72,1.29c-.76-.46-1.57-.75-2.23-.75-.71,0-1.11.34-1.11.78v.03c0,.58.86.83,1.79,1.12,1.16.36,2.46.88,2.46,2.31v.03c0,1.67-1.29,2.49-2.94,2.49-1.12,0-2.37-.39-3.36-1.19Z"/>
        <path class="cls-8" d="m116.29,30.45v-5.04h1.82v4.5c0,1.23.62,1.92,1.7,1.92s1.78-.72,1.78-1.95v-4.47h1.83v7.92h-1.83v-1.23c-.51.75-1.25,1.39-2.47,1.39-1.79,0-2.82-1.2-2.82-3.04Z"/>
        <path class="cls-8" d="m125.66,25.41h1.83v1.79c.5-1.18,1.41-2,2.8-1.93v1.92h-.1c-1.59,0-2.7,1.04-2.7,3.13v3.01h-1.83v-7.92Z"/>
        <path class="cls-8" d="m131.17,29.4v-.03c0-2.26,1.6-4.12,3.87-4.12,2.52,0,3.79,1.98,3.79,4.26,0,.17-.01.33-.03.51h-5.82c.2,1.29,1.11,2.01,2.28,2.01.88,0,1.51-.33,2.14-.95l1.07.95c-.75.9-1.79,1.49-3.24,1.49-2.29,0-4.06-1.67-4.06-4.11Zm5.86-.58c-.12-1.17-.81-2.08-2.01-2.08-1.11,0-1.89.86-2.05,2.08h4.06Z"/>
      </g>
    </g>
  </g>
</svg>