<?xml version="1.0" encoding="UTF-8"?>
<svg id="Layer_2" data-name="Layer 2" xmlns="http://www.w3.org/2000/svg" viewBox="0 0 165.48 173.59">
  <defs>
    <style>
      .cls-1 {
        fill: #fff;
        stroke: #282661;
        stroke-miterlimit: 10;
        stroke-width: 2px;
      }

      .cls-2 {
        fill: #282661;
      }

      .cls-2, .cls-3, .cls-4, .cls-5, .cls-6 {
        stroke-width: 0px;
      }

      .cls-3 {
        fill: #d95a5c;
      }

      .cls-4 {
        fill: #f59d9f;
      }

      .cls-5 {
        fill: #e3f1fb;
      }

      .cls-6 {
        fill: #f27678;
      }
    </style>
  </defs>
  <g id="Cards_Updated_Copy_Outlined_" data-name="Cards (Updated | Copy Outlined)">
    <g>
      <rect id="Border" class="cls-1" x="1" y="1" width="163.48" height="171.59" rx="18" ry="18"/>
      <path class="cls-5" d="m28.01,96.3c-4.66,1.3-4.45,4.21-4.37,5.57,0,0,.25,4.34-.58,14.03-.58,6.8-3.55,8.48-.29,12.59,1.26,1.59,1.84,4.31,6.71,5.23,1.82.34,3.19.26,7.58.33,5.87.1,6.77.3,13.71.56,7.29.27,20.42.58,35.87.67,37.28.2,28.91-1.22,41.41-.56,2.83.15,8.17.48,11.08-.67,2.67-1.06,1.63-2.7,1.17-5.79-.36-2.37.33-4.75.29-7.13-.2-11.35.04-13.12-1.75-16.6-2.2-4.29-.82-8.52-2.92-9.36-2.47-.99-8.46-.83-22.75-.11-5.13.26-17.64-1.12-37.04-.45-16.76.58-34.57.52-41.41.89-2.85.16-4.89.28-6.71.78Z"/>
      <path class="cls-6" d="m68.11,67.59c1.04.22-3.45,9.97-1.97,17.53,1.03,5.29,3.17,8.69,8.3,16.41,7.01,10.56,10.93,13.3,15.14,19.6,17.47,26.15,15.03,25.17,14.74,26.84-.32,1.89-4.71,3.29-5.87,3.77-.98.41-4.07,1.68-6.52.28-1.63-.93-9.91-18.52-15.02-24.94-4.07-5.11-9.69-9.9-12.55-16.49-2.47-5.68-3.08-8.94-4.46-18.2-.68-4.55,1.02-9.22,1.98-13.52.88-3.9,5.38-11.47,6.23-11.29Z"/>
      <path class="cls-3" d="m76.77,105.95c.42-.29-3.53-4.68-4.96-12.04-.72-3.69-1.96-10.1,1.98-14.46,2.39-2.64,6.6-4.46,10.78-3.4,3.1.78,6.13,3.14,7.09,6.24,1.04,3.34-.71,6.36-.39,6.46.39.13,2.92-4.27,3.79-10.15.6-4.1,1.04-7.06-.57-9.64-3.32-5.31-12.56-4.55-16.16-4.25-4.23.35-8.46.69-11.34,3.97-2.87,3.26-2.71,7.52-2.55,11.91.23,6.27,2.37,10.87,3.69,13.61,3.42,7.14,8.19,12.06,8.65,11.76Z"/>
      <path class="cls-4" d="m47.21,147.2c-1.13,2.89,3.15,4.29,5.13,4.93,2.17.7,8.6,2.83,8.93.18.2-1.61,4.63-10.7,9.41-17,6.24-8.22,9.03-10.95,14.93-16.82,8.16-8.12,9.5-9.3,13.23-15.88,3.91-6.88,4.17-14.93,4.16-16.35-.04-5.13-1.69-8.87-2.55-10.78-1.01-2.23-7.74-9.6-8.95-9.25-1.12.33,2.37,9.13,2.42,11.99.02,1.17.25,6.17-4.54,13.71-5.34,8.4-9.09,9.97-19.28,20.7-6.31,6.64-10.62,12.09-14.18,17.3-5.53,8.08-6.81,12.38-8.72,17.28Z"/>
      <g>
        <path class="cls-2" d="m39.84,16.38h4.02c2.31,0,3.44,1.08,3.44,2.52s-1,2.37-2.4,2.67c.93.36,1.63,1.02,1.63,2.14,0,1.86-1.63,3.17-4.47,3.17h-5.04l2.82-10.5Zm2.47,8.86c1.46,0,2.37-.62,2.37-1.63,0-.79-.71-1.25-1.84-1.25h-2.8l-.77,2.88h3.04Zm.75-4.44c1.47,0,2.37-.57,2.37-1.61,0-.73-.57-1.18-1.74-1.18h-2.49l-.74,2.79h2.59Z"/>
        <path class="cls-2" d="m52.8,23.22h-2.19l-.97,3.66h-1.86l2.82-10.5h3.81c1.47,0,2.5.33,3.18,1.02.49.5.76,1.19.76,1.98,0,.97-.34,1.8-.96,2.4-.53.53-1.39,1-2.62,1.26l1.95,3.84h-2.12l-1.8-3.66Zm.63-1.64c1.11,0,1.98-.28,2.47-.79.33-.33.53-.75.53-1.26,0-.39-.13-.71-.38-.96-.34-.33-.92-.51-1.75-.51h-2.29l-.95,3.52h2.37Z"/>
        <path class="cls-2" d="m59.43,22.59c0-1.71.72-3.33,1.91-4.51s2.71-1.88,4.44-1.88c1.98,0,3.32.89,4.09,2.25l-1.53,1.04c-.63-.96-1.4-1.59-2.78-1.59-1.06,0-2.04.48-2.8,1.23-.86.86-1.41,2.08-1.41,3.39,0,1.72,1.19,2.83,2.87,2.83,1.17,0,1.95-.47,2.77-1.19l1.21,1.23c-.99.96-2.22,1.67-4.03,1.67-2.7,0-4.74-1.71-4.74-4.47Z"/>
        <path class="cls-2" d="m75.96,16.3h1.77l1.79,10.57h-1.89l-.4-2.53h-4.96l-1.74,2.53h-2.01l7.45-10.57Zm1.04,6.4l-.67-4.24-2.94,4.24h3.61Z"/>
        <path class="cls-2" d="m84.42,18.28l-1.99.51-.03-1.59,3.1-.9h1.28l-2.83,10.57h-1.83l2.31-8.59Z"/>
        <path class="cls-2" d="m92.38,28.36l.67-1.37c.85.53,1.74.83,2.82.83,1.62,0,2.5-.83,2.5-2.42v-.6c-.66.84-1.48,1.44-2.79,1.44-1.88,0-3.6-1.38-3.6-3.71v-.03c0-2.34,1.75-3.72,3.6-3.72,1.33,0,2.16.61,2.77,1.35v-1.19h1.82v6.3c0,1.33-.35,2.33-1.01,2.99-.72.72-1.83,1.06-3.25,1.06-1.31,0-2.52-.33-3.54-.94Zm6.01-5.83v-.03c0-1.29-1.07-2.16-2.33-2.16s-2.25.85-2.25,2.16v.03c0,1.29,1,2.17,2.25,2.17s2.33-.88,2.33-2.17Z"/>
        <path class="cls-2" d="m102.03,22.95v-.03c0-2.26,1.61-4.12,3.87-4.12,2.52,0,3.79,1.98,3.79,4.26,0,.17-.02.33-.03.51h-5.82c.19,1.29,1.11,2.01,2.28,2.01.88,0,1.52-.33,2.15-.95l1.06.95c-.75.9-1.79,1.49-3.24,1.49-2.29,0-4.07-1.67-4.07-4.11Zm5.87-.58c-.12-1.17-.81-2.08-2.01-2.08-1.11,0-1.89.86-2.05,2.08h4.07Z"/>
        <path class="cls-2" d="m111.51,18.96h1.83v1.22c.51-.74,1.24-1.38,2.47-1.38,1.79,0,2.82,1.2,2.82,3.03v5.05h-1.81v-4.5c0-1.23-.62-1.93-1.7-1.93s-1.78.74-1.78,1.96v4.47h-1.83v-7.92Z"/>
        <path class="cls-2" d="m120.39,22.95v-.03c0-2.26,1.6-4.12,3.87-4.12,2.52,0,3.79,1.98,3.79,4.26,0,.17-.01.33-.03.51h-5.82c.2,1.29,1.11,2.01,2.28,2.01.88,0,1.51-.33,2.14-.95l1.07.95c-.75.9-1.79,1.49-3.24,1.49-2.29,0-4.06-1.67-4.06-4.11Zm5.86-.58c-.12-1.17-.81-2.08-2.01-2.08-1.11,0-1.89.86-2.05,2.08h4.06Z"/>
        <path class="cls-2" d="m19.53,36.01c0-1.89.95-3.28,2.77-4.28l.53.81c-1.42.95-2.09,1.98-2.09,3.47s.67,2.52,2.09,3.47l-.53.81c-1.82-1-2.77-2.39-2.77-4.28Z"/>
        <path class="cls-2" d="m23.49,38.19l.54-.82c.58.43,1.19.65,1.73.65s.82-.22.82-.57v-.02c0-.41-.56-.55-1.18-.74-.78-.22-1.65-.54-1.65-1.54v-.02c0-1.01.83-1.62,1.88-1.62.66,0,1.38.23,1.94.6l-.48.86c-.51-.31-1.05-.5-1.49-.5-.47,0-.74.23-.74.52v.02c0,.39.57.55,1.19.75.77.24,1.64.59,1.64,1.54v.02c0,1.11-.86,1.66-1.96,1.66-.75,0-1.58-.26-2.24-.79Z"/>
        <path class="cls-2" d="m28.65,36.27v-.02c0-1.51,1.2-2.76,2.82-2.76s2.81,1.23,2.81,2.74v.02c0,1.5-1.2,2.75-2.83,2.75s-2.8-1.23-2.8-2.73Zm4.42,0v-.02c0-.93-.67-1.7-1.62-1.7s-1.59.76-1.59,1.68v.02c0,.92.67,1.69,1.61,1.69s1.6-.76,1.6-1.67Z"/>
        <path class="cls-2" d="m35.49,33.6h1.22v.8c.34-.47.8-.91,1.61-.91.76,0,1.3.37,1.58.93.42-.56.98-.93,1.78-.93,1.15,0,1.85.73,1.85,2.02v3.37h-1.21v-3c0-.84-.39-1.29-1.07-1.29s-1.13.46-1.13,1.31v2.98h-1.21v-3.01c0-.82-.4-1.28-1.07-1.28s-1.13.5-1.13,1.31v2.98h-1.22v-5.28Z"/>
        <path class="cls-2" d="m44.7,36.26v-.02c0-1.51,1.07-2.75,2.58-2.75,1.68,0,2.53,1.32,2.53,2.84,0,.11-.01.22-.02.34h-3.88c.13.86.74,1.34,1.52,1.34.59,0,1.01-.22,1.43-.63l.71.63c-.5.6-1.19.99-2.16.99-1.53,0-2.71-1.11-2.71-2.74Zm3.91-.39c-.08-.78-.54-1.39-1.34-1.39-.74,0-1.26.57-1.37,1.39h2.71Z"/>
        <path class="cls-2" d="m53.53,33.6h1.3l1.42,3.88,1.43-3.88h1.27l-2.16,5.32h-1.09l-2.17-5.32Z"/>
        <path class="cls-2" d="m59.37,37.36v-.02c0-1.14.9-1.7,2.19-1.7.59,0,1.01.09,1.42.22v-.13c0-.75-.46-1.15-1.31-1.15-.59,0-1.03.13-1.51.33l-.33-.95c.59-.26,1.16-.43,2-.43.79,0,1.38.21,1.75.59.39.38.57.94.57,1.63v3.13h-1.18v-.66c-.36.43-.91.77-1.72.77-.99,0-1.88-.57-1.88-1.63Zm3.63-.38v-.36c-.31-.12-.72-.21-1.2-.21-.78,0-1.24.33-1.24.88v.02c0,.51.45.8,1.03.8.8,0,1.41-.46,1.41-1.13Z"/>
        <path class="cls-2" d="m65.59,33.6h1.22v1.19c.33-.79.94-1.33,1.87-1.29v1.28h-.07c-1.06,0-1.8.69-1.8,2.09v2.01h-1.22v-5.28Z"/>
        <path class="cls-2" d="m69.75,31.64h1.3v1.15h-1.3v-1.15Zm.04,1.96h1.22v5.28h-1.22v-5.28Z"/>
        <path class="cls-2" d="m72.23,37.36v-.02c0-1.14.9-1.7,2.19-1.7.59,0,1.01.09,1.42.22v-.13c0-.75-.46-1.15-1.31-1.15-.59,0-1.03.13-1.51.33l-.33-.95c.59-.26,1.16-.43,2-.43.79,0,1.38.21,1.75.59.39.38.57.94.57,1.63v3.13h-1.18v-.66c-.36.43-.91.77-1.72.77-.99,0-1.88-.57-1.88-1.63Zm3.63-.38v-.36c-.31-.12-.72-.21-1.2-.21-.78,0-1.24.33-1.24.88v.02c0,.51.45.8,1.03.8.8,0,1.41-.46,1.41-1.13Z"/>
        <path class="cls-2" d="m78.45,33.6h1.22v.81c.34-.49.83-.92,1.65-.92,1.19,0,1.88.8,1.88,2.02v3.37h-1.21v-3c0-.82-.41-1.29-1.13-1.29s-1.19.49-1.19,1.31v2.98h-1.22v-5.28Z"/>
        <path class="cls-2" d="m84.91,37.42v-2.78h-.67v-1.04h.67v-1.45h1.21v1.45h1.42v1.04h-1.42v2.59c0,.47.24.66.65.66.27,0,.51-.06.75-.18v.99c-.3.17-.63.27-1.09.27-.89,0-1.52-.39-1.52-1.55Z"/>
        <path class="cls-2" d="m88.34,38.19l.54-.82c.58.43,1.19.65,1.73.65s.82-.22.82-.57v-.02c0-.41-.56-.55-1.18-.74-.78-.22-1.65-.54-1.65-1.54v-.02c0-1.01.83-1.62,1.88-1.62.66,0,1.38.23,1.94.6l-.48.86c-.51-.31-1.05-.5-1.49-.5-.47,0-.74.23-.74.52v.02c0,.39.57.55,1.19.75.77.24,1.64.59,1.64,1.54v.02c0,1.11-.86,1.66-1.96,1.66-.75,0-1.58-.26-2.24-.79Z"/>
        <path class="cls-2" d="m96.8,31.64h1.3v1.15h-1.3v-1.15Zm.04,1.96h1.22v5.28h-1.22v-5.28Z"/>
        <path class="cls-2" d="m99.63,33.6h1.22v.81c.34-.49.83-.92,1.65-.92,1.19,0,1.88.8,1.88,2.02v3.37h-1.21v-3c0-.82-.41-1.29-1.13-1.29s-1.19.49-1.19,1.31v2.98h-1.22v-5.28Z"/>
        <path class="cls-2" d="m105.55,36.27v-.02c0-1.5,1.16-2.76,2.75-2.76.99,0,1.61.37,2.11.91l-.76.81c-.37-.38-.76-.66-1.36-.66-.88,0-1.53.76-1.53,1.68v.02c0,.94.65,1.69,1.58,1.69.57,0,.98-.26,1.37-.65l.73.72c-.52.58-1.13.99-2.16.99-1.57,0-2.73-1.23-2.73-2.73Z"/>
        <path class="cls-2" d="m111.54,33.6h1.22v1.19c.33-.79.94-1.33,1.87-1.29v1.28h-.07c-1.06,0-1.8.69-1.8,2.09v2.01h-1.22v-5.28Z"/>
        <path class="cls-2" d="m115.21,36.26v-.02c0-1.51,1.07-2.75,2.58-2.75,1.68,0,2.53,1.32,2.53,2.84,0,.11,0,.22-.02.34h-3.88c.13.86.74,1.34,1.52,1.34.59,0,1.01-.22,1.43-.63l.71.63c-.5.6-1.19.99-2.16.99-1.53,0-2.71-1.11-2.71-2.74Zm3.91-.39c-.08-.78-.54-1.39-1.34-1.39-.74,0-1.26.57-1.37,1.39h2.71Z"/>
        <path class="cls-2" d="m121.18,37.36v-.02c0-1.14.9-1.7,2.19-1.7.59,0,1.01.09,1.42.22v-.13c0-.75-.46-1.15-1.31-1.15-.59,0-1.03.13-1.51.33l-.33-.95c.59-.26,1.16-.43,2-.43.79,0,1.38.21,1.75.59.39.38.57.94.57,1.63v3.13h-1.18v-.66c-.36.43-.91.77-1.72.77-.99,0-1.88-.57-1.88-1.63Zm3.63-.38v-.36c-.31-.12-.72-.21-1.2-.21-.78,0-1.24.33-1.24.88v.02c0,.51.45.8,1.03.8.8,0,1.41-.46,1.41-1.13Z"/>
        <path class="cls-2" d="m126.98,38.19l.54-.82c.58.43,1.19.65,1.73.65s.82-.22.82-.57v-.02c0-.41-.56-.55-1.18-.74-.78-.22-1.65-.54-1.65-1.54v-.02c0-1.01.83-1.62,1.88-1.62.66,0,1.38.23,1.94.6l-.48.86c-.51-.31-1.05-.5-1.49-.5-.47,0-.74.23-.74.52v.02c0,.39.57.55,1.19.75.77.24,1.64.59,1.64,1.54v.02c0,1.11-.86,1.66-1.96,1.66-.75,0-1.58-.26-2.24-.79Z"/>
        <path class="cls-2" d="m132.13,36.26v-.02c0-1.51,1.07-2.75,2.58-2.75,1.68,0,2.53,1.32,2.53,2.84,0,.11,0,.22-.02.34h-3.88c.13.86.74,1.34,1.52,1.34.59,0,1.01-.22,1.43-.63l.71.63c-.5.6-1.19.99-2.16.99-1.53,0-2.71-1.11-2.71-2.74Zm3.91-.39c-.08-.78-.54-1.39-1.34-1.39-.74,0-1.26.57-1.37,1.39h2.71Z"/>
        <path class="cls-2" d="m141.1,37.36v-.02c0-1.14.9-1.7,2.19-1.7.59,0,1.01.09,1.42.22v-.13c0-.75-.46-1.15-1.31-1.15-.59,0-1.03.13-1.51.33l-.33-.95c.59-.26,1.16-.43,2-.43.79,0,1.38.21,1.75.59.39.38.57.94.57,1.63v3.13h-1.18v-.66c-.36.43-.91.77-1.72.77-.99,0-1.88-.57-1.88-1.63Zm3.63-.38v-.36c-.31-.12-.72-.21-1.2-.21-.78,0-1.24.33-1.24.88v.02c0,.51.45.8,1.03.8.8,0,1.41-.46,1.41-1.13Z"/>
        <path class="cls-2" d="m14.24,45.6h1.22v.88c.39-.55.94-.99,1.8-.99,1.24,0,2.45.98,2.45,2.74v.02c0,1.75-1.2,2.74-2.45,2.74-.88,0-1.43-.44-1.8-.93v2.42h-1.22v-6.88Zm4.24,2.65v-.02c0-1.02-.7-1.69-1.51-1.69s-1.54.68-1.54,1.69v.02c0,1.01.72,1.69,1.54,1.69s1.51-.65,1.51-1.69Z"/>
        <path class="cls-2" d="m20.67,48.26v-.02c0-1.51,1.07-2.75,2.58-2.75,1.68,0,2.53,1.32,2.53,2.84,0,.11,0,.22-.02.34h-3.88c.13.86.74,1.34,1.52,1.34.59,0,1.01-.22,1.43-.63l.71.63c-.5.6-1.19.99-2.16.99-1.53,0-2.71-1.11-2.71-2.74Zm3.91-.39c-.08-.78-.54-1.39-1.34-1.39-.74,0-1.26.57-1.37,1.39h2.71Z"/>
        <path class="cls-2" d="m26.99,45.6h1.22v1.19c.33-.79.94-1.33,1.87-1.29v1.28h-.07c-1.06,0-1.8.69-1.8,2.09v2.01h-1.22v-5.28Z"/>
        <path class="cls-2" d="m30.7,50.19l.54-.82c.58.43,1.19.65,1.73.65s.82-.22.82-.57v-.02c0-.41-.56-.55-1.18-.74-.78-.22-1.65-.54-1.65-1.54v-.02c0-1.01.83-1.62,1.88-1.62.66,0,1.38.23,1.94.6l-.48.86c-.51-.31-1.05-.5-1.49-.5-.47,0-.74.23-.74.52v.02c0,.39.57.55,1.19.75.77.24,1.64.59,1.64,1.54v.02c0,1.11-.86,1.66-1.96,1.66-.75,0-1.58-.26-2.24-.79Z"/>
        <path class="cls-2" d="m35.85,48.27v-.02c0-1.51,1.2-2.76,2.82-2.76s2.81,1.23,2.81,2.74v.02c0,1.5-1.2,2.75-2.83,2.75s-2.8-1.23-2.8-2.73Zm4.42,0v-.02c0-.93-.67-1.7-1.62-1.7s-1.59.76-1.59,1.68v.02c0,.92.67,1.69,1.61,1.69s1.6-.76,1.6-1.67Z"/>
        <path class="cls-2" d="m42.7,45.6h1.22v.81c.34-.49.83-.92,1.65-.92,1.19,0,1.88.8,1.88,2.02v3.37h-1.21v-3c0-.82-.41-1.29-1.13-1.29s-1.19.49-1.19,1.31v2.98h-1.22v-5.28Z"/>
        <path class="cls-2" d="m48.54,46.19c.61-.11.9-.42.86-.93h-.52v-1.38h1.33v1.17c0,1.11-.53,1.58-1.54,1.66l-.13-.52Z"/>
        <path class="cls-2" d="m50.98,50.19l.54-.82c.58.43,1.19.65,1.73.65s.82-.22.82-.57v-.02c0-.41-.56-.55-1.18-.74-.78-.22-1.65-.54-1.65-1.54v-.02c0-1.01.83-1.62,1.88-1.62.66,0,1.38.23,1.94.6l-.48.86c-.51-.31-1.05-.5-1.49-.5-.47,0-.74.23-.74.52v.02c0,.39.57.55,1.19.75.77.24,1.64.59,1.64,1.54v.02c0,1.11-.86,1.66-1.96,1.66-.75,0-1.58-.26-2.24-.79Z"/>
        <path class="cls-2" d="m60.63,50.06v.82h-1.22v-7.3h1.22v2.9c.39-.55.94-.99,1.8-.99,1.24,0,2.45.98,2.45,2.74v.02c0,1.75-1.2,2.74-2.45,2.74-.88,0-1.43-.44-1.8-.93Zm3.02-1.81v-.02c0-1.02-.7-1.69-1.51-1.69s-1.54.68-1.54,1.69v.02c0,1.01.72,1.69,1.54,1.69s1.51-.65,1.51-1.69Z"/>
        <path class="cls-2" d="m66.12,45.6h1.22v1.19c.33-.79.94-1.33,1.87-1.29v1.28h-.07c-1.06,0-1.8.69-1.8,2.09v2.01h-1.22v-5.28Z"/>
        <path class="cls-2" d="m69.79,48.26v-.02c0-1.51,1.07-2.75,2.58-2.75,1.68,0,2.53,1.32,2.53,2.84,0,.11,0,.22-.02.34h-3.88c.13.86.74,1.34,1.52,1.34.59,0,1.01-.22,1.43-.63l.71.63c-.5.6-1.19.99-2.16.99-1.53,0-2.71-1.11-2.71-2.74Zm3.91-.39c-.08-.78-.54-1.39-1.34-1.39-.74,0-1.26.57-1.37,1.39h2.71Z"/>
        <path class="cls-2" d="m75.76,49.36v-.02c0-1.14.9-1.7,2.19-1.7.59,0,1.01.09,1.42.22v-.13c0-.75-.46-1.15-1.31-1.15-.59,0-1.03.13-1.51.33l-.33-.95c.59-.26,1.16-.43,2-.43.79,0,1.38.21,1.75.59.39.38.57.94.57,1.63v3.13h-1.18v-.66c-.36.43-.91.77-1.72.77-.99,0-1.88-.57-1.88-1.63Zm3.63-.38v-.36c-.31-.12-.72-.21-1.2-.21-.78,0-1.24.33-1.24.88v.02c0,.51.45.8,1.03.8.8,0,1.41-.46,1.41-1.13Z"/>
        <path class="cls-2" d="m81.56,50.19l.54-.82c.58.43,1.19.65,1.73.65s.82-.22.82-.57v-.02c0-.41-.56-.55-1.18-.74-.78-.22-1.65-.54-1.65-1.54v-.02c0-1.01.83-1.62,1.88-1.62.66,0,1.38.23,1.94.6l-.48.86c-.51-.31-1.05-.5-1.49-.5-.47,0-.74.23-.74.52v.02c0,.39.57.55,1.19.75.77.24,1.64.59,1.64,1.54v.02c0,1.11-.86,1.66-1.96,1.66-.75,0-1.58-.26-2.24-.79Z"/>
        <path class="cls-2" d="m87.15,49.42v-2.78h-.67v-1.04h.67v-1.45h1.21v1.45h1.42v1.04h-1.42v2.59c0,.47.24.66.65.66.27,0,.51-.06.75-.18v.99c-.3.17-.63.27-1.09.27-.89,0-1.52-.39-1.52-1.55Z"/>
        <path class="cls-2" d="m93.72,48.27v-.02c0-1.5,1.16-2.76,2.75-2.76.99,0,1.61.37,2.11.91l-.76.81c-.37-.38-.76-.66-1.36-.66-.88,0-1.53.76-1.53,1.68v.02c0,.94.65,1.69,1.58,1.69.57,0,.98-.26,1.37-.65l.73.72c-.52.58-1.13.99-2.16.99-1.57,0-2.73-1.23-2.73-2.73Z"/>
        <path class="cls-2" d="m99.36,49.36v-.02c0-1.14.9-1.7,2.19-1.7.59,0,1.01.09,1.42.22v-.13c0-.75-.46-1.15-1.31-1.15-.59,0-1.03.13-1.51.33l-.33-.95c.59-.26,1.16-.43,2-.43.79,0,1.38.21,1.75.59.39.38.57.94.57,1.63v3.13h-1.18v-.66c-.36.43-.91.77-1.72.77-.99,0-1.88-.57-1.88-1.63Zm3.63-.38v-.36c-.31-.12-.72-.21-1.2-.21-.78,0-1.24.33-1.24.88v.02c0,.51.45.8,1.03.8.8,0,1.41-.46,1.41-1.13Z"/>
        <path class="cls-2" d="m105.58,45.6h1.22v.81c.34-.49.83-.92,1.65-.92,1.19,0,1.88.8,1.88,2.02v3.37h-1.21v-3c0-.82-.41-1.29-1.13-1.29s-1.19.49-1.19,1.31v2.98h-1.22v-5.28Z"/>
        <path class="cls-2" d="m111.5,48.27v-.02c0-1.5,1.16-2.76,2.75-2.76.99,0,1.61.37,2.11.91l-.76.81c-.37-.38-.76-.66-1.36-.66-.88,0-1.53.76-1.53,1.68v.02c0,.94.65,1.69,1.58,1.69.57,0,.98-.26,1.37-.65l.73.72c-.52.58-1.13.99-2.16.99-1.57,0-2.73-1.23-2.73-2.73Z"/>
        <path class="cls-2" d="m117.06,48.26v-.02c0-1.51,1.07-2.75,2.58-2.75,1.68,0,2.53,1.32,2.53,2.84,0,.11-.01.22-.02.34h-3.88c.13.86.74,1.34,1.52,1.34.59,0,1.01-.22,1.43-.63l.71.63c-.5.6-1.19.99-2.16.99-1.53,0-2.71-1.11-2.71-2.74Zm3.91-.39c-.08-.78-.54-1.39-1.34-1.39-.74,0-1.26.57-1.37,1.39h2.71Z"/>
        <path class="cls-2" d="m123.38,45.6h1.22v1.19c.33-.79.94-1.33,1.87-1.29v1.28h-.07c-1.06,0-1.8.69-1.8,2.09v2.01h-1.22v-5.28Z"/>
        <path class="cls-2" d="m130.51,45.6h1.22v1.19c.33-.79.94-1.33,1.87-1.29v1.28h-.07c-1.06,0-1.8.69-1.8,2.09v2.01h-1.22v-5.28Z"/>
        <path class="cls-2" d="m134.67,43.64h1.3v1.15h-1.3v-1.15Zm.04,1.96h1.22v5.28h-1.22v-5.28Z"/>
        <path class="cls-2" d="m137.08,50.19l.54-.82c.58.43,1.19.65,1.73.65s.82-.22.82-.57v-.02c0-.41-.56-.55-1.18-.74-.78-.22-1.65-.54-1.65-1.54v-.02c0-1.01.83-1.62,1.88-1.62.66,0,1.38.23,1.94.6l-.48.86c-.51-.31-1.05-.5-1.49-.5-.47,0-.74.23-.74.52v.02c0,.39.57.55,1.19.75.77.24,1.64.59,1.64,1.54v.02c0,1.11-.86,1.66-1.96,1.66-.75,0-1.58-.26-2.24-.79Z"/>
        <path class="cls-2" d="m142.51,43.58h1.22v4.36l2.19-2.34h1.47l-2.1,2.15,2.17,3.13h-1.42l-1.56-2.29-.75.78v1.51h-1.22v-7.3Z"/>
        <path class="cls-2" d="m148.06,51.48c1.42-.95,2.09-1.98,2.09-3.47s-.67-2.52-2.09-3.47l.53-.81c1.82,1,2.77,2.39,2.77,4.28s-.95,3.28-2.77,4.28l-.53-.81Z"/>
      </g>
    </g>
  </g>
</svg>