<?xml version="1.0" encoding="UTF-8"?>
<svg id="Cards" xmlns="http://www.w3.org/2000/svg" viewBox="0 0 165.48 173.59">
  <defs>
    <style>
      .cls-1 {
        letter-spacing: -.04em;
      }

      .cls-2 {
        letter-spacing: -.03em;
      }

      .cls-3 {
        letter-spacing: 0em;
      }

      .cls-4 {
        fill: none;
        stroke: #282661;
        stroke-miterlimit: 10;
        stroke-width: 2px;
      }

      .cls-5 {
        fill: #282661;
        font-family: Gotham-Medium, Gotham;
        font-size: 15px;
        font-weight: 500;
      }

      .cls-6 {
        fill: #d95a5c;
      }

      .cls-6, .cls-7, .cls-8, .cls-9 {
        stroke-width: 0px;
      }

      .cls-7 {
        fill: #f59d9f;
      }

      .cls-8 {
        fill: #e3f1fb;
      }

      .cls-9 {
        fill: #f27678;
      }
    </style>
  </defs>
  <path class="cls-8" d="m28.01,51.82c-4.66,3.4-4.45,11.02-4.37,14.58,0,0,.25,11.36-.58,36.75-.58,17.82-3.55,22.2-.29,32.96,1.26,4.15,1.84,11.29,6.71,13.71,1.82.9,3.19.69,7.58.87,5.87.25,6.77.78,13.71,1.46,7.29.72,20.42,1.53,35.87,1.75,37.28.54,28.91-3.19,41.41-1.46,2.83.39,8.17,1.27,11.08-1.75,2.67-2.76,1.63-7.07,1.17-15.17-.36-6.21.33-12.44.29-18.67-.2-29.73.04-34.35-1.75-43.45-2.2-11.22-.82-22.3-2.92-24.5-2.47-2.6-8.46-2.17-22.75-.29-5.13.67-17.64-2.93-37.04-1.17-16.76,1.53-34.57,1.36-41.41,2.33-2.85.41-4.89.72-6.71,2.04Z"/>
  <path class="cls-9" d="m68.11,58.59c1.04.22-3.45,9.97-1.97,17.53,1.03,5.29,3.17,8.69,8.3,16.41,7.01,10.56,10.93,13.3,15.14,19.6,17.47,26.15,15.03,25.17,14.74,26.84-.32,1.89-4.71,3.29-5.87,3.77-.98.41-4.07,1.68-6.52.28-1.63-.93-9.91-18.52-15.02-24.94-4.07-5.11-9.69-9.9-12.55-16.49-2.47-5.68-3.08-8.94-4.46-18.2-.68-4.55,1.02-9.22,1.98-13.52.88-3.9,5.38-11.47,6.23-11.29Z"/>
  <path class="cls-6" d="m76.77,96.95c.42-.29-3.53-4.68-4.96-12.04-.72-3.69-1.96-10.1,1.98-14.46,2.39-2.64,6.6-4.46,10.78-3.4,3.1.78,6.13,3.14,7.09,6.24,1.04,3.34-.71,6.36-.39,6.46.39.13,2.92-4.27,3.79-10.15.6-4.1,1.04-7.06-.57-9.64-3.32-5.31-12.56-4.55-16.16-4.25-4.23.35-8.46.69-11.34,3.97-2.87,3.26-2.71,7.52-2.55,11.91.23,6.27,2.37,10.87,3.69,13.61,3.42,7.14,8.19,12.06,8.65,11.76Z"/>
  <path class="cls-7" d="m47.21,138.2c-1.13,2.89,3.15,4.29,5.13,4.93,2.17.7,8.6,2.83,8.93.18.2-1.61,4.63-10.7,9.41-17,6.24-8.22,9.03-10.95,14.93-16.82,8.16-8.12,9.5-9.3,13.23-15.88,3.91-6.88,4.17-14.93,4.16-16.35-.04-5.13-1.69-8.87-2.55-10.78-1.01-2.23-7.74-9.6-8.95-9.25-1.12.33,2.37,9.13,2.42,11.99.02,1.17.25,6.17-4.54,13.71-5.34,8.4-9.09,9.97-19.28,20.7-6.31,6.64-10.62,12.09-14.18,17.3-5.53,8.08-6.81,12.38-8.72,17.28Z"/>
  <text class="cls-5" transform="translate(54.94 31.88)"><tspan x="0" y="0">BR</tspan><tspan class="cls-3" x="21.67" y="0">C</tspan><tspan class="cls-1" x="32.74" y="0">A</tspan><tspan class="cls-2" x="43.99" y="0">-</tspan><tspan x="49.66" y="0">1</tspan></text>
  <rect id="Border" class="cls-4" x="1" y="1" width="163.48" height="171.59"/>
</svg>