<?xml version="1.0" encoding="UTF-8"?>
<svg id="Layer_2" data-name="Layer 2" xmlns="http://www.w3.org/2000/svg" viewBox="0 0 165.48 173.59">
  <defs>
    <style>
      .cls-1, .cls-2, .cls-3, .cls-4, .cls-5 {
        fill: none;
      }

      .cls-1, .cls-2, .cls-4 {
        stroke-linecap: round;
        stroke-linejoin: round;
      }

      .cls-1, .cls-4 {
        stroke: #6da7d9;
      }

      .cls-2 {
        stroke: #808184;
      }

      .cls-3 {
        stroke-width: 1.5px;
      }

      .cls-3, .cls-6, .cls-5 {
        stroke-miterlimit: 10;
      }

      .cls-3, .cls-5 {
        stroke: #ffd04f;
      }

      .cls-6 {
        fill: #fff;
        stroke: #282661;
      }

      .cls-6, .cls-4 {
        stroke-width: 2px;
      }

      .cls-7 {
        fill: #282661;
      }

      .cls-7, .cls-8, .cls-9, .cls-10, .cls-11 {
        stroke-width: 0px;
      }

      .cls-8 {
        fill: #3e9dcb;
      }

      .cls-9 {
        fill: #fff7da;
      }

      .cls-10 {
        fill: #fcdb77;
      }

      .cls-11 {
        fill: #f59ca0;
      }
    </style>
  </defs>
  <g id="Cards_Updated_Copy_Outlined_" data-name="Cards (Updated | Copy Outlined)">
    <g>
      <rect id="Border" class="cls-6" x="1" y="1" width="163.48" height="171.59" rx="18" ry="18"/>
      <rect class="cls-9" x="64.73" y="59.4" width="73.92" height="105.77" rx="12" ry="12"/>
      <path class="cls-8" d="m77.34,156.3c1.13-37.9,2.06-39,6.73-51.95,1.97-5.47,7.01-6.68,8.75-7.22,7.25-2.25,19.63-2.18,25.46,3.49,3.33,3.24,5.02,6.95,5.15,9.18,2.65,47.72,6.82,50.06-7.98,50.11-12.47.05-38.24,1.26-38.1-3.61Z"/>
      <path class="cls-11" d="m98.97,92.82c.39,8.52-.23,14.06-.26,17.74,0,.35-1.88,4.98-1.45,5.68.64,1.03,5.52.53,6.33-.26.62-.6-.9-4.44-.86-5.07.29-4.28.05-12.42.42-17.97.02-.35-.41-1.27-.86-1.83-.47-.58-1.64-.66-2.37-.18-.74.48-.98,1.44-.96,1.89Z"/>
      <path class="cls-11" d="m98.58,109.97c-1.4-2.56-4.39-4.87-6.31-4.14-1.04.39-1.47,1.56-1.76,2.32-3.14,8.24-3.66,6.32-4.84,11.03-1.11,4.4-2.53,9.52-.76,14.31.23.62,1.08,2.78,2.18,2.77.83,0,1.05-1.22,2.78-2.29.76-.47,1.74-1.07,2.73-.82,1.3.33,1.4,1.8,2.54,1.99,1.1.19,2.15-.99,2.41-1.28,1.51-1.7,1.25-3.74,1.35-7.3.16-5.74,1.01-5.99.78-10.93-.19-3.95-.8-5.18-1.07-5.68Z"/>
      <path class="cls-11" d="m103.39,110.11c1.55-2.47,4.67-4.6,6.55-3.76,1.01.45,1.38,1.65,1.62,2.42,2.64,8.41,3.28,6.53,4.18,11.3.85,4.46,1.96,9.65-.09,14.33-.26.6-1.24,2.71-2.34,2.64-.82-.05-.97-1.28-2.64-2.45-.73-.51-1.67-1.17-2.68-.98-1.32.25-1.5,1.71-2.65,1.84-1.11.12-2.09-1.12-2.33-1.42-1.41-1.79-1.02-3.81-.91-7.36.18-5.74-.66-6.04-.13-10.95.42-3.93,1.11-5.12,1.41-5.6Z"/>
      <path class="cls-10" d="m107.46,122.76c1.36.02,1.96-2.76,4.44-1.13,1.8,1.18,3.22-4.87,3.85-1.56.85,4.46,1.96,9.65-.09,14.33-.26.6-1.24,2.71-2.34,2.64-.82-.05-.97-1.28-2.64-2.45-.73-.51-1.67-1.17-2.68-.98-1.32.25-1.5,1.71-2.65,1.84-1.11.12-2.09-1.12-2.33-1.42-1.41-1.79-1.02-3.81-.91-7.36.1-3.23,0-5.46,1.89-5.27,1.46.14,3.1,1.36,3.46,1.37Z"/>
      <path class="cls-10" d="m94.6,120.51c-1.3-.4-2.85-3.33-5.42-1.85-1.87,1.08-2.69-2.76-3.51.52-1.11,4.4-2.53,9.52-.76,14.31.23.62,1.08,2.78,2.18,2.77.83,0,1.05-1.22,2.78-2.29.76-.47,1.74-1.07,2.73-.82,1.3.33,1.4,1.8,2.54,1.99,1.1.19,2.15-.99,2.41-1.28,1.51-1.7,1.25-3.74,1.35-7.3.09-3.23,1.17-6.71-.12-5.33-1.36,1.45-2.11-.09-4.16-.72Z"/>
      <ellipse class="cls-8" cx="101.46" cy="79.55" rx="14.52" ry="13.5" transform="translate(18.94 178.61) rotate(-88.3)"/>
      <line class="cls-5" x1="30.82" y1="92.18" x2="39.8" y2="93.34"/>
      <line class="cls-5" x1="28.59" y1="97.21" x2="42.73" y2="98.98"/>
      <line class="cls-5" x1="27.8" y1="104.36" x2="45.16" y2="107.39"/>
      <line class="cls-5" x1="32.42" y1="114.04" x2="43.83" y2="114.04"/>
      <path class="cls-3" d="m39.02,121.14c-1.34.07-11.22-10.81-11.22-18.91,0-8.46,7.21-15.82,7.56-15.79.98.08,6.82,11.12,8.52,14.99,3.5,8-1.15,15.83-2.32,17.47-1.46,2.05-2.17,2.22-2.54,2.24Z"/>
      <path class="cls-4" d="m30.74,61.75c-1.05.75-3.6,2.78-4.62,6.31-1.17,4.01.37,7.42,1.35,9.58,2.06,4.55,5.46,7.14,7.33,8.34"/>
      <path class="cls-4" d="m39.65,65.02c-.42,1.16-.92,2.97-.9,5.18.04,3.98,1.74,5.6,1.58,8.34-.11,1.8-1.03,4.36-4.96,7.33"/>
      <line class="cls-1" x1="26.53" y1="66.92" x2="38.77" y2="69.17"/>
      <line class="cls-1" x1="25.7" y1="74.38" x2="39.8" y2="75.45"/>
      <line class="cls-1" x1="28.91" y1="80.23" x2="39.56" y2="81.26"/>
      <line class="cls-1" x1="32.5" y1="128.51" x2="43.88" y2="128.51"/>
      <line class="cls-1" x1="31.48" y1="135.37" x2="46.5" y2="136.9"/>
      <path class="cls-4" d="m32.22,139.84c-.66-2.36-1.45-6.69.28-11.33,1.14-3.05,3.93-7.74,6.52-7.37,1.34.19,2.17,1.83,3.82,5.1.54,1.06,1.83,3.74,3.12,8.5.46,1.7.98,3.9,1.42,6.52"/>
      <line class="cls-2" x1="55.24" y1="103.84" x2="64.73" y2="103.84"/>
      <path class="cls-2" d="m24.31,86.85h22.02c4.79,0,8.7,4.74,8.7,10.53v12.28c0,5.79-3.92,10.53-8.7,10.53h-22.02"/>
      <g>
        <path class="cls-7" d="m42.66,21.75c0-1.71.72-3.33,1.91-4.51,1.14-1.14,2.71-1.88,4.44-1.88,1.98,0,3.32.89,4.09,2.25l-1.53,1.04c-.63-.96-1.4-1.59-2.78-1.59-1.06,0-2.04.48-2.8,1.23-.86.86-1.41,2.08-1.41,3.39,0,1.72,1.19,2.83,2.87,2.83,1.17,0,1.95-.46,2.77-1.18l1.21,1.23c-.99.96-2.22,1.67-4.03,1.67-2.7,0-4.74-1.71-4.74-4.47Z"/>
        <path class="cls-7" d="m55.59,15.55h7.81l-.45,1.68h-5.97l-.77,2.87h5.29l-.45,1.68h-5.29l-1.14,4.27h-1.86l2.82-10.5Z"/>
        <path class="cls-7" d="m67.38,17.25h-3.34l.46-1.71h8.52l-.46,1.71h-3.33l-2.37,8.79h-1.84l2.37-8.79Z"/>
        <path class="cls-7" d="m77,22.39h-2.19l-.97,3.66h-1.86l2.82-10.5h3.81c1.47,0,2.5.33,3.18,1.02.5.49.76,1.19.76,1.98,0,.97-.34,1.8-.96,2.4-.52.52-1.39,1-2.62,1.26l1.95,3.84h-2.11l-1.8-3.66Zm.63-1.64c1.11,0,1.98-.28,2.47-.79.33-.33.52-.75.52-1.26,0-.39-.13-.71-.38-.96-.34-.33-.91-.51-1.75-.51h-2.29l-.94,3.52h2.37Z"/>
        <path class="cls-7" d="m88.16,27.53l.67-1.37c.86.53,1.74.82,2.82.82,1.62,0,2.5-.82,2.5-2.41v-.6c-.66.84-1.49,1.44-2.79,1.44-1.88,0-3.6-1.38-3.6-3.71v-.03c0-2.34,1.75-3.72,3.6-3.72,1.33,0,2.16.62,2.78,1.35v-1.18h1.81v6.3c0,1.33-.34,2.33-1,2.98-.72.72-1.83,1.07-3.25,1.07-1.3,0-2.52-.33-3.54-.94Zm6.01-5.83v-.03c0-1.29-1.06-2.16-2.32-2.16s-2.25.86-2.25,2.16v.03c0,1.29,1,2.17,2.25,2.17s2.32-.88,2.32-2.17Z"/>
        <path class="cls-7" d="m97.8,22.12v-.03c0-2.26,1.6-4.12,3.87-4.12,2.52,0,3.79,1.98,3.79,4.26,0,.17-.01.33-.03.51h-5.82c.2,1.29,1.11,2.01,2.28,2.01.88,0,1.51-.33,2.14-.94l1.07.94c-.75.9-1.79,1.49-3.24,1.49-2.29,0-4.06-1.67-4.06-4.11Zm5.86-.58c-.12-1.17-.81-2.08-2.01-2.08-1.11,0-1.89.85-2.05,2.08h4.06Z"/>
        <path class="cls-7" d="m107.28,18.13h1.83v1.21c.51-.74,1.25-1.38,2.47-1.38,1.79,0,2.82,1.2,2.82,3.03v5.05h-1.82v-4.5c0-1.23-.61-1.93-1.69-1.93s-1.79.73-1.79,1.96v4.47h-1.83v-7.92Z"/>
        <path class="cls-7" d="m116.16,22.12v-.03c0-2.26,1.61-4.12,3.87-4.12,2.52,0,3.79,1.98,3.79,4.26,0,.17-.02.33-.03.51h-5.82c.19,1.29,1.11,2.01,2.28,2.01.88,0,1.52-.33,2.15-.94l1.06.94c-.75.9-1.79,1.49-3.24,1.49-2.29,0-4.07-1.67-4.07-4.11Zm5.87-.58c-.12-1.17-.81-2.08-2.01-2.08-1.11,0-1.89.85-2.05,2.08h4.07Z"/>
        <path class="cls-7" d="m8.94,35.18c0-1.89.95-3.28,2.77-4.28l.53.81c-1.42.95-2.09,1.98-2.09,3.47s.67,2.52,2.09,3.47l-.53.81c-1.82-1-2.77-2.39-2.77-4.28Z"/>
        <path class="cls-7" d="m12.9,37.36l.54-.82c.58.43,1.19.65,1.73.65s.82-.22.82-.57v-.02c0-.41-.56-.55-1.18-.74-.78-.22-1.65-.54-1.65-1.54v-.02c0-1.01.83-1.62,1.88-1.62.66,0,1.38.23,1.94.6l-.48.86c-.51-.31-1.05-.5-1.49-.5-.47,0-.74.23-.74.52v.02c0,.39.57.55,1.19.75.77.24,1.64.59,1.64,1.54v.02c0,1.11-.86,1.66-1.96,1.66-.75,0-1.58-.26-2.24-.79Z"/>
        <path class="cls-7" d="m18.05,35.44v-.02c0-1.51,1.2-2.76,2.82-2.76s2.81,1.23,2.81,2.74v.02c0,1.5-1.2,2.75-2.83,2.75s-2.8-1.23-2.8-2.73Zm4.42,0v-.02c0-.93-.67-1.7-1.62-1.7s-1.59.76-1.59,1.68v.02c0,.92.67,1.69,1.61,1.69s1.6-.76,1.6-1.67Z"/>
        <path class="cls-7" d="m24.9,32.77h1.22v.8c.34-.47.8-.91,1.61-.91.76,0,1.3.37,1.58.93.42-.56.98-.93,1.78-.93,1.15,0,1.85.73,1.85,2.02v3.37h-1.21v-3c0-.84-.39-1.29-1.07-1.29s-1.13.46-1.13,1.31v2.98h-1.21v-3.01c0-.82-.4-1.28-1.07-1.28s-1.13.5-1.13,1.31v2.98h-1.22v-5.28Z"/>
        <path class="cls-7" d="m34.11,35.43v-.02c0-1.51,1.07-2.75,2.58-2.75,1.68,0,2.53,1.32,2.53,2.84,0,.11,0,.22-.02.34h-3.88c.13.86.74,1.34,1.52,1.34.59,0,1.01-.22,1.43-.63l.71.63c-.5.6-1.19.99-2.16.99-1.53,0-2.71-1.11-2.71-2.74Zm3.91-.39c-.08-.78-.54-1.39-1.34-1.39-.74,0-1.26.57-1.37,1.39h2.71Z"/>
        <path class="cls-7" d="m42.94,32.77h1.3l1.42,3.88,1.43-3.88h1.27l-2.16,5.32h-1.09l-2.17-5.32Z"/>
        <path class="cls-7" d="m48.78,36.53v-.02c0-1.14.9-1.7,2.19-1.7.59,0,1.01.09,1.42.22v-.13c0-.75-.46-1.15-1.31-1.15-.59,0-1.03.13-1.51.33l-.33-.95c.59-.26,1.16-.43,2-.43.79,0,1.38.21,1.75.59.39.38.57.94.57,1.63v3.13h-1.18v-.66c-.36.43-.91.77-1.72.77-.99,0-1.88-.57-1.88-1.63Zm3.63-.38v-.36c-.31-.12-.72-.21-1.2-.21-.78,0-1.24.33-1.24.88v.02c0,.51.45.8,1.03.8.8,0,1.41-.46,1.41-1.13Z"/>
        <path class="cls-7" d="m55,32.77h1.22v1.19c.33-.79.94-1.33,1.87-1.29v1.28h-.07c-1.06,0-1.8.69-1.8,2.09v2.01h-1.22v-5.28Z"/>
        <path class="cls-7" d="m59.16,30.81h1.3v1.15h-1.3v-1.15Zm.04,1.96h1.22v5.28h-1.22v-5.28Z"/>
        <path class="cls-7" d="m61.64,36.53v-.02c0-1.14.9-1.7,2.19-1.7.59,0,1.01.09,1.42.22v-.13c0-.75-.46-1.15-1.31-1.15-.59,0-1.03.13-1.51.33l-.33-.95c.59-.26,1.16-.43,2-.43.79,0,1.38.21,1.75.59.39.38.57.94.57,1.63v3.13h-1.18v-.66c-.36.43-.91.77-1.72.77-.99,0-1.88-.57-1.88-1.63Zm3.63-.38v-.36c-.31-.12-.72-.21-1.2-.21-.78,0-1.24.33-1.24.88v.02c0,.51.45.8,1.03.8.8,0,1.41-.46,1.41-1.13Z"/>
        <path class="cls-7" d="m67.86,32.77h1.22v.81c.34-.49.83-.92,1.65-.92,1.19,0,1.88.8,1.88,2.02v3.37h-1.21v-3c0-.82-.41-1.29-1.13-1.29s-1.19.49-1.19,1.31v2.98h-1.22v-5.28Z"/>
        <path class="cls-7" d="m74.32,36.59v-2.78h-.67v-1.04h.67v-1.45h1.21v1.45h1.42v1.04h-1.42v2.59c0,.47.24.66.65.66.27,0,.51-.06.75-.18v.99c-.3.17-.63.27-1.09.27-.89,0-1.52-.39-1.52-1.55Z"/>
        <path class="cls-7" d="m77.75,37.36l.54-.82c.58.43,1.19.65,1.73.65s.82-.22.82-.57v-.02c0-.41-.56-.55-1.18-.74-.78-.22-1.65-.54-1.65-1.54v-.02c0-1.01.83-1.62,1.88-1.62.66,0,1.38.23,1.94.6l-.48.86c-.51-.31-1.05-.5-1.49-.5-.47,0-.74.23-.74.52v.02c0,.39.57.55,1.19.75.77.24,1.64.59,1.64,1.54v.02c0,1.11-.86,1.66-1.96,1.66-.75,0-1.58-.26-2.24-.79Z"/>
        <path class="cls-7" d="m85.83,36.53v-.02c0-1.14.9-1.7,2.19-1.7.59,0,1.01.09,1.42.22v-.13c0-.75-.46-1.15-1.31-1.15-.59,0-1.03.13-1.51.33l-.33-.95c.59-.26,1.16-.43,2-.43.79,0,1.38.21,1.75.59.39.38.57.94.57,1.63v3.13h-1.18v-.66c-.36.43-.91.77-1.72.77-.99,0-1.88-.57-1.88-1.63Zm3.63-.38v-.36c-.31-.12-.72-.21-1.2-.21-.78,0-1.24.33-1.24.88v.02c0,.51.45.8,1.03.8.8,0,1.41-.46,1.41-1.13Z"/>
        <path class="cls-7" d="m92.05,32.77h1.22v1.19c.33-.79.94-1.33,1.87-1.29v1.28h-.07c-1.06,0-1.8.69-1.8,2.09v2.01h-1.22v-5.28Z"/>
        <path class="cls-7" d="m95.72,35.43v-.02c0-1.51,1.07-2.75,2.58-2.75,1.68,0,2.53,1.32,2.53,2.84,0,.11,0,.22-.02.34h-3.88c.13.86.74,1.34,1.52,1.34.59,0,1.01-.22,1.43-.63l.71.63c-.5.6-1.19.99-2.16.99-1.53,0-2.71-1.11-2.71-2.74Zm3.91-.39c-.08-.78-.54-1.39-1.34-1.39-.74,0-1.26.57-1.37,1.39h2.71Z"/>
        <path class="cls-7" d="m104.69,36.53v-.02c0-1.14.9-1.7,2.19-1.7.59,0,1.01.09,1.42.22v-.13c0-.75-.46-1.15-1.31-1.15-.59,0-1.03.13-1.51.33l-.33-.95c.59-.26,1.16-.43,2-.43.79,0,1.38.21,1.75.59.39.38.57.94.57,1.63v3.13h-1.18v-.66c-.36.43-.91.77-1.72.77-.99,0-1.88-.57-1.88-1.63Zm3.63-.38v-.36c-.31-.12-.72-.21-1.2-.21-.78,0-1.24.33-1.24.88v.02c0,.51.45.8,1.03.8.8,0,1.41-.46,1.41-1.13Z"/>
        <path class="cls-7" d="m110.49,37.36l.54-.82c.58.43,1.19.65,1.73.65s.82-.22.82-.57v-.02c0-.41-.56-.55-1.18-.74-.78-.22-1.65-.54-1.65-1.54v-.02c0-1.01.83-1.62,1.88-1.62.66,0,1.38.23,1.94.6l-.48.86c-.51-.31-1.05-.5-1.49-.5-.47,0-.74.23-.74.52v.02c0,.39.57.55,1.19.75.77.24,1.64.59,1.64,1.54v.02c0,1.11-.86,1.66-1.96,1.66-.75,0-1.58-.26-2.24-.79Z"/>
        <path class="cls-7" d="m115.4,37.36l.54-.82c.58.43,1.19.65,1.73.65s.82-.22.82-.57v-.02c0-.41-.56-.55-1.18-.74-.78-.22-1.65-.54-1.65-1.54v-.02c0-1.01.83-1.62,1.88-1.62.66,0,1.38.23,1.94.6l-.48.86c-.51-.31-1.05-.5-1.49-.5-.47,0-.74.23-.74.52v.02c0,.39.57.55,1.19.75.77.24,1.64.59,1.64,1.54v.02c0,1.11-.86,1.66-1.96,1.66-.75,0-1.58-.26-2.24-.79Z"/>
        <path class="cls-7" d="m120.55,35.44v-.02c0-1.51,1.2-2.76,2.82-2.76s2.81,1.23,2.81,2.74v.02c0,1.5-1.2,2.75-2.83,2.75s-2.8-1.23-2.8-2.73Zm4.42,0v-.02c0-.93-.67-1.7-1.62-1.7s-1.59.76-1.59,1.68v.02c0,.92.67,1.69,1.61,1.69s1.6-.76,1.6-1.67Z"/>
        <path class="cls-7" d="m127.12,35.44v-.02c0-1.5,1.16-2.76,2.75-2.76.99,0,1.61.37,2.11.91l-.76.81c-.37-.38-.76-.66-1.36-.66-.88,0-1.53.76-1.53,1.68v.02c0,.94.65,1.69,1.58,1.69.57,0,.98-.26,1.37-.65l.73.72c-.52.58-1.13.99-2.16.99-1.57,0-2.73-1.23-2.73-2.73Z"/>
        <path class="cls-7" d="m133.14,30.81h1.3v1.15h-1.3v-1.15Zm.04,1.96h1.22v5.28h-1.22v-5.28Z"/>
        <path class="cls-7" d="m135.62,36.53v-.02c0-1.14.9-1.7,2.19-1.7.59,0,1.01.09,1.42.22v-.13c0-.75-.46-1.15-1.31-1.15-.59,0-1.03.13-1.51.33l-.33-.95c.59-.26,1.16-.43,2-.43.79,0,1.38.21,1.75.59.39.38.57.94.57,1.63v3.13h-1.18v-.66c-.36.43-.91.77-1.72.77-.99,0-1.88-.57-1.88-1.63Zm3.63-.38v-.36c-.31-.12-.72-.21-1.2-.21-.78,0-1.24.33-1.24.88v.02c0,.51.45.8,1.03.8.8,0,1.41-.46,1.41-1.13Z"/>
        <path class="cls-7" d="m142.04,36.59v-2.78h-.67v-1.04h.67v-1.45h1.21v1.45h1.42v1.04h-1.42v2.59c0,.47.24.66.65.66.27,0,.51-.06.75-.18v.99c-.3.17-.63.27-1.09.27-.89,0-1.52-.39-1.52-1.55Z"/>
        <path class="cls-7" d="m145.46,35.43v-.02c0-1.51,1.07-2.75,2.58-2.75,1.68,0,2.53,1.32,2.53,2.84,0,.11,0,.22-.02.34h-3.88c.13.86.74,1.34,1.52,1.34.59,0,1.01-.22,1.43-.63l.71.63c-.5.6-1.19.99-2.16.99-1.53,0-2.71-1.11-2.71-2.74Zm3.91-.39c-.08-.78-.54-1.39-1.34-1.39-.74,0-1.26.57-1.37,1.39h2.71Z"/>
        <path class="cls-7" d="m151.53,35.42v-.02c0-1.75,1.19-2.74,2.45-2.74.87,0,1.42.43,1.8.93v-2.84h1.21v7.3h-1.21v-.88c-.39.55-.94.99-1.8.99-1.24,0-2.45-.99-2.45-2.74Zm4.27,0v-.02c0-1.02-.72-1.69-1.53-1.69s-1.52.65-1.52,1.69v.02c0,1.02.7,1.69,1.52,1.69s1.53-.68,1.53-1.69Z"/>
        <path class="cls-7" d="m34.47,44.77h1.25l1.06,3.62,1.17-3.64h1.04l1.17,3.64,1.08-3.62h1.22l-1.73,5.32h-1.09l-1.18-3.61-1.19,3.61h-1.08l-1.72-5.32Z"/>
        <path class="cls-7" d="m43.55,42.81h1.3v1.15h-1.3v-1.15Zm.04,1.96h1.22v5.28h-1.22v-5.28Z"/>
        <path class="cls-7" d="m46.64,48.59v-2.78h-.67v-1.04h.67v-1.45h1.21v1.45h1.42v1.04h-1.42v2.59c0,.47.24.66.65.66.27,0,.51-.06.75-.18v.99c-.3.17-.63.27-1.09.27-.89,0-1.52-.39-1.52-1.55Z"/>
        <path class="cls-7" d="m50.49,42.75h1.22v2.83c.34-.49.83-.92,1.65-.92,1.19,0,1.88.8,1.88,2.02v3.37h-1.21v-3c0-.82-.41-1.29-1.13-1.29s-1.19.49-1.19,1.31v2.98h-1.22v-7.3Z"/>
        <path class="cls-7" d="m59.41,47.44v-.02c0-1.5,1.16-2.76,2.75-2.76.99,0,1.61.37,2.11.91l-.76.81c-.37-.38-.76-.66-1.36-.66-.88,0-1.53.76-1.53,1.68v.02c0,.94.65,1.69,1.58,1.69.57,0,.98-.26,1.37-.65l.73.72c-.52.58-1.13.99-2.16.99-1.57,0-2.73-1.23-2.73-2.73Z"/>
        <path class="cls-7" d="m69.02,44.77h1.26l-2.1,5.42c-.42,1.09-.89,1.49-1.74,1.49-.5,0-.88-.12-1.25-.33l.41-.89c.22.12.46.2.71.2.34,0,.55-.15.75-.6l-2.2-5.29h1.3l1.48,3.92,1.38-3.92Z"/>
        <path class="cls-7" d="m70.69,49.36l.54-.82c.58.43,1.19.65,1.73.65s.82-.22.82-.57v-.02c0-.41-.56-.55-1.18-.74-.78-.22-1.65-.54-1.65-1.54v-.02c0-1.01.83-1.62,1.88-1.62.66,0,1.38.23,1.94.6l-.48.86c-.51-.31-1.05-.5-1.49-.5-.47,0-.74.23-.74.52v.02c0,.39.57.55,1.19.75.77.24,1.64.59,1.64,1.54v.02c0,1.11-.86,1.66-1.96,1.66-.75,0-1.58-.26-2.24-.79Z"/>
        <path class="cls-7" d="m76.28,48.59v-2.78h-.67v-1.04h.67v-1.45h1.21v1.45h1.42v1.04h-1.42v2.59c0,.47.24.66.65.66.27,0,.51-.06.75-.18v.99c-.3.17-.63.27-1.09.27-.89,0-1.52-.39-1.52-1.55Z"/>
        <path class="cls-7" d="m80.16,42.81h1.3v1.15h-1.3v-1.15Zm.04,1.96h1.22v5.28h-1.22v-5.28Z"/>
        <path class="cls-7" d="m82.71,47.44v-.02c0-1.5,1.16-2.76,2.75-2.76.99,0,1.61.37,2.11.91l-.76.81c-.37-.38-.76-.66-1.36-.66-.88,0-1.53.76-1.53,1.68v.02c0,.94.65,1.69,1.58,1.69.57,0,.98-.26,1.37-.65l.73.72c-.52.58-1.13.99-2.16.99-1.57,0-2.73-1.23-2.73-2.73Z"/>
        <path class="cls-7" d="m91.98,45.81h-.67v-1.01h.67v-.39c0-.58.15-1.02.43-1.3.28-.28.67-.42,1.18-.42.43,0,.72.06.99.14v1.02c-.24-.08-.45-.13-.71-.13-.46,0-.7.26-.7.8v.29h1.4v1h-1.38v4.24h-1.21v-4.24Zm3.51-3h1.3v1.15h-1.3v-1.15Zm.04,1.96h1.22v5.28h-1.22v-5.28Z"/>
        <path class="cls-7" d="m99.54,49.23v.82h-1.22v-7.3h1.22v2.9c.39-.55.94-.99,1.8-.99,1.24,0,2.45.98,2.45,2.74v.02c0,1.75-1.2,2.74-2.45,2.74-.88,0-1.43-.44-1.8-.93Zm3.02-1.81v-.02c0-1.02-.7-1.69-1.51-1.69s-1.54.68-1.54,1.69v.02c0,1.01.72,1.69,1.54,1.69s1.51-.65,1.51-1.69Z"/>
        <path class="cls-7" d="m105.03,44.77h1.22v1.19c.33-.79.94-1.33,1.87-1.29v1.28h-.07c-1.06,0-1.8.69-1.8,2.09v2.01h-1.22v-5.28Z"/>
        <path class="cls-7" d="m108.7,47.44v-.02c0-1.51,1.2-2.76,2.82-2.76s2.81,1.23,2.81,2.74v.02c0,1.5-1.2,2.75-2.83,2.75s-2.8-1.23-2.8-2.73Zm4.42,0v-.02c0-.93-.67-1.7-1.62-1.7s-1.59.76-1.59,1.68v.02c0,.92.67,1.69,1.61,1.69s1.6-.76,1.6-1.67Z"/>
        <path class="cls-7" d="m115.13,49.36l.54-.82c.58.43,1.19.65,1.73.65s.82-.22.82-.57v-.02c0-.41-.56-.55-1.18-.74-.78-.22-1.65-.54-1.65-1.54v-.02c0-1.01.83-1.62,1.88-1.62.66,0,1.38.23,1.94.6l-.48.86c-.51-.31-1.05-.5-1.49-.5-.47,0-.74.23-.74.52v.02c0,.39.57.55,1.19.75.77.24,1.64.59,1.64,1.54v.02c0,1.11-.86,1.66-1.96,1.66-.75,0-1.58-.26-2.24-.79Z"/>
        <path class="cls-7" d="m120.59,42.81h1.3v1.15h-1.3v-1.15Zm.04,1.96h1.22v5.28h-1.22v-5.28Z"/>
        <path class="cls-7" d="m123,49.36l.54-.82c.58.43,1.19.65,1.73.65s.82-.22.82-.57v-.02c0-.41-.56-.55-1.18-.74-.78-.22-1.65-.54-1.65-1.54v-.02c0-1.01.83-1.62,1.88-1.62.66,0,1.38.23,1.94.6l-.48.86c-.51-.31-1.05-.5-1.49-.5-.47,0-.74.23-.74.52v.02c0,.39.57.55,1.19.75.77.24,1.64.59,1.64,1.54v.02c0,1.11-.86,1.66-1.96,1.66-.75,0-1.58-.26-2.24-.79Z"/>
        <path class="cls-7" d="m127.96,50.64c1.42-.95,2.09-1.98,2.09-3.47s-.67-2.52-2.09-3.47l.53-.81c1.82,1,2.77,2.39,2.77,4.28s-.95,3.28-2.77,4.28l-.53-.81Z"/>
      </g>
    </g>
  </g>
</svg>