<?xml version="1.0" encoding="UTF-8"?>
<svg id="Cards" xmlns="http://www.w3.org/2000/svg" viewBox="0 0 165.48 173.59">
  <defs>
    <style>
      .cls-1, .cls-2 {
        stroke: #808184;
        stroke-width: 1.5px;
      }

      .cls-1, .cls-2, .cls-3, .cls-4 {
        stroke-linecap: round;
      }

      .cls-1, .cls-2, .cls-3, .cls-4, .cls-5, .cls-6 {
        fill: none;
      }

      .cls-1, .cls-3, .cls-4 {
        stroke-linejoin: round;
      }

      .cls-2 {
        stroke-linejoin: bevel;
      }

      .cls-3, .cls-4 {
        stroke: #6da7d9;
      }

      .cls-4, .cls-5 {
        stroke-width: 2px;
      }

      .cls-5 {
        stroke: #282661;
      }

      .cls-5, .cls-6 {
        stroke-miterlimit: 10;
      }

      .cls-6 {
        stroke: #ffd04f;
      }

      .cls-7 {
        fill: #282661;
        font-family: Gotham-Medium, Gotham;
        font-size: 15px;
        font-weight: 500;
      }

      .cls-8 {
        fill: #3e9dcb;
      }

      .cls-8, .cls-9, .cls-10 {
        stroke-width: 0px;
      }

      .cls-9 {
        fill: #ffd398;
      }

      .cls-10 {
        fill: #f59ca0;
      }
    </style>
  </defs>
  <path class="cls-8" d="m78.77,147.45c0-40.31.96-41.51,5.52-55.43,1.92-5.87,7.24-7.32,9.07-7.95,7.63-2.62,20.8-2.93,27.17,2.91,3.64,3.34,5.56,7.22,5.76,9.6,4.32,50.63,8.82,52.99-6.9,53.51-13.25.44-40.61,2.55-40.61-2.64Z"/>
  <path class="cls-10" d="m99.77,79.3c.68,9.04.2,14.95.28,18.87,0,.37-1.84,5.36-1.36,6.08.72,1.08,5.89.39,6.72-.47.64-.66-1.1-4.69-1.07-5.37.17-4.56-.34-13.2-.12-19.11.01-.37-.48-1.34-.97-1.92-.51-.6-1.76-.65-2.52-.12-.77.54-1,1.57-.96,2.04Z"/>
  <path class="cls-10" d="m99.89,97.54c-1.57-2.68-4.82-5.03-6.84-4.2-1.09.45-1.52,1.71-1.8,2.52-3.08,8.86-3.69,6.83-4.8,11.88-1.04,4.72-2.39,10.2-.36,15.24.26.65,1.23,2.92,2.4,2.88.88-.03,1.07-1.33,2.88-2.52.8-.52,1.81-1.19,2.88-.96,1.4.31,1.54,1.87,2.76,2.04,1.17.17,2.25-1.12,2.52-1.44,1.55-1.85,1.21-4.02,1.2-7.8-.01-6.11.89-6.4.48-11.64-.33-4.19-1.01-5.48-1.32-6Z"/>
  <path class="cls-10" d="m105.01,97.54c1.57-2.68,4.82-5.03,6.84-4.2,1.09.45,1.52,1.71,1.8,2.52,3.08,8.86,3.69,6.83,4.8,11.88,1.04,4.72,2.39,10.2.36,15.24-.26.65-1.23,2.92-2.4,2.88-.88-.03-1.07-1.33-2.88-2.52-.8-.52-1.81-1.19-2.88-.96-1.4.31-1.54,1.87-2.76,2.04-1.17.17-2.25-1.12-2.52-1.44-1.55-1.85-1.21-4.02-1.2-7.8.01-6.11-.89-6.4-.48-11.64.33-4.19,1.01-5.48,1.32-6Z"/>
  <path class="cls-9" d="m109.73,110.86c1.45-.02,1.99-3,4.68-1.35,1.95,1.2,3.27-5.28,4.04-1.77,1.04,4.72,2.39,10.2.36,15.24-.26.65-1.23,2.92-2.4,2.88-.88-.03-1.07-1.33-2.88-2.52-.8-.52-1.81-1.19-2.88-.96-1.4.31-1.54,1.87-2.76,2.04-1.17.17-2.25-1.12-2.52-1.44-1.55-1.85-1.21-4.02-1.2-7.8,0-3.43-.16-5.8,1.84-5.66,1.56.11,3.34,1.35,3.72,1.35Z"/>
  <path class="cls-9" d="m95.99,108.88c-1.39-.39-3.13-3.45-5.82-1.8-1.95,1.2-2.95-2.85-3.72.66-1.04,4.72-2.39,10.2-.36,15.24.26.65,1.23,2.92,2.4,2.88.88-.03,1.07-1.33,2.88-2.52.8-.52,1.81-1.19,2.88-.96,1.4.31,1.54,1.87,2.76,2.04,1.17.17,2.25-1.12,2.52-1.44,1.55-1.85,1.21-4.02,1.2-7.8,0-3.43,1.03-7.17-.3-5.66-1.4,1.58-2.24-.03-4.44-.63Z"/>
  <ellipse class="cls-8" cx="102" cy="65.12" rx="14.35" ry="15.44"/>
  <line class="cls-6" x1="44.15" y1="94.33" x2="54.23" y2="95.63"/>
  <line class="cls-6" x1="41.65" y1="99.98" x2="57.52" y2="101.96"/>
  <line class="cls-6" x1="40.76" y1="108" x2="60.25" y2="111.41"/>
  <line class="cls-6" x1="45.95" y1="118.88" x2="59.75" y2="118.88"/>
  <path class="cls-6" d="m53.35,126.84c-1.5.08-12.59-12.14-12.59-21.24,0-9.5,8.1-17.76,8.49-17.73,1.1.09,7.66,12.48,9.56,16.83,3.93,8.98-1.29,17.78-2.6,19.61-1.64,2.31-2.43,2.5-2.86,2.52Z"/>
  <path class="cls-4" d="m44.06,60.17c-1.18.84-4.04,3.13-5.19,7.09-1.31,4.5.42,8.33,1.52,10.76,2.31,5.11,6.13,8.02,8.23,9.36"/>
  <path class="cls-4" d="m54.06,63.84c-.47,1.3-1.04,3.33-1.01,5.82.04,4.47,1.95,6.28,1.77,9.36-.12,2.02-1.16,4.89-5.57,8.23"/>
  <line class="cls-3" x1="39.33" y1="65.97" x2="53.08" y2="68.5"/>
  <line class="cls-3" x1="38.4" y1="74.34" x2="54.23" y2="75.54"/>
  <line class="cls-3" x1="42" y1="80.91" x2="53.96" y2="82.07"/>
  <line class="cls-3" x1="46.03" y1="135.11" x2="58.81" y2="135.11"/>
  <line class="cls-3" x1="44.89" y1="142.82" x2="61.76" y2="144.54"/>
  <path class="cls-4" d="m45.72,147.84c-.74-2.64-1.63-7.52.32-12.72,1.28-3.42,4.42-8.69,7.32-8.27,1.5.22,2.43,2.05,4.29,5.73.61,1.2,2.06,4.2,3.5,9.54.52,1.91,1.1,4.38,1.59,7.32"/>
  <polyline class="cls-2" points="38.4 87.25 67.59 88.36 70.15 91.59 70.48 124.28 68.13 126.82 38.4 126.09"/>
  <line class="cls-1" x1="70.57" y1="108" x2="82.22" y2="108"/>
  <text class="cls-7" transform="translate(60.35 32.6)"><tspan x="0" y="0">CFTR</tspan></text>
  <rect id="Border" class="cls-5" x="1" y="1" width="163.48" height="171.59"/>
</svg>