<?xml version="1.0" encoding="UTF-8"?>
<svg id="Cards" xmlns="http://www.w3.org/2000/svg" viewBox="0 0 165.48 173.59">
  <defs>
    <style>
      .cls-1 {
        letter-spacing: -.02em;
      }

      .cls-2 {
        fill: none;
        stroke: #282661;
        stroke-miterlimit: 10;
        stroke-width: 2px;
      }

      .cls-3 {
        letter-spacing: -.05em;
      }

      .cls-4 {
        letter-spacing: 0em;
      }

      .cls-5 {
        fill: #282661;
        font-family: Gotham-Medium, Gotham;
        font-size: 15px;
        font-weight: 500;
      }

      .cls-6 {
        fill: #566975;
      }

      .cls-6, .cls-7, .cls-8 {
        stroke-width: 0px;
      }

      .cls-7 {
        fill: #ccdce4;
      }

      .cls-8 {
        fill: #f1f1f2;
      }
    </style>
  </defs>
  <path id="Blob" class="cls-6" d="m28.43,59.48c1.14,14.68,2.18,66.49,1.7,83.43-.34,12.02,20.15,8.44,50.93,8.63,31.97.2,55.86,6.69,55.67-4.83s-.38-59.03-1.14-83.47c-.35-11.23-17.76-7.86-55.29-8.31-39-.47-52.7-6.01-51.88,4.54Z"/>
  <path class="cls-7" d="m32.38,95.3c.16,2.23,2.55,1.24,3.99,2.92,3.18,3.72,1.69,7.78,1.6,17.01-.14,13.78,3.09,14.59,1.06,23.13-.75,3.16-1.72,6.21-.53,7.85,2.15,2.98,26.98.88,45.19,1.74,28.05,1.33,33.23.92,44.66.39,1.23-.06.74-4.29.8-8.92.25-20.11-.8-30.57-.8-30.57-.26-2.62-.85-7.98,2.13-10.37,1.06-.86,2.66-.32,2.66-1.59,0-4.25.78-6.64.94-10.9.4-10.37.3-11.95-1.86-15.95-3.25-6.01-12.05-8.36-25.13-10.51-10.91-1.8-7.44-1.61-26.05-1.86-14.68-.2-18.93-2.28-26.58-.12-.58.16-4.37,1.44-11.96,3.99-9.16,3.08-10.09,4.84-10.1,5.6-.19,11.17-.76,17.35,0,28.16Z"/>
  <path class="cls-6" d="m50.19,145.01c6,5.25,11.96.57,31.37,1.06,20.11.51,28.01,5.9,34.56.27,3.4-2.93,4.09-6.81,5.32-14.36,1.44-8.85.77-15.69-8.24-51.31-2.31-9.15-3.49-13.52-7.71-16.75-3.24-2.48-8.63-3.25-19.41-4.79-9.51-1.36-12.9-.99-14.36-.8-3.25.43-8.29,1.11-13.03,4.52-4.56,3.28-6.49,7.41-9.04,13.03-.83,1.84-4.25,9.61-5.85,21.53-.34,2.56-1.47,11.84,0,24.46,1.52,13.03,2.28,19.54,6.38,23.13Z"/>
  <path id="Spine" class="cls-8" d="m76.15,57.4c-1.94,0,.41,4.63,1.42,8.38,1.19,4.42.42,6.48-.53,15.95-1.52,15.15-1.16,25.84-1.06,28.18.05,1.15.21,3.48.53,8.15.97,13.93,1.67,19.67,3.19,26.05.07.31-.49,2.03.53,2.13q3.72.35,6.38.53c1.55.1.59-2.75.18-6.2-.54-4.53-.41-7.88-.18-13.82.16-4.02.44-4,.71-9.39,0,0,.21-4.28.18-8.86-.06-8.83-1.03-11.47-1.77-23.22-.65-10.18-.94-15.33.18-18.61.98-2.87,4.32-8.83,2.13-8.91-4.43-.18-6.38-.36-11.87-.36Z"/>
  <path class="cls-8" d="m73.49,74.47c.22.8.85,3.03,3.01,4.61,3.4,2.47,7.41,1.03,7.8.89.29-.11,4.2-1.66,5.14-5.49.44-1.78.35-4.54-1.06-5.32-1.16-.64-7.84-.5-11.7-.71-1.76-.1-2.24.18-2.48.35-1.82,1.34-.83,5.23-.71,5.67Z"/>
  <path class="cls-8" d="m37.34,67.92c0,.24.09,1.39,6.73,3.19,8.83,2.39,16.52,2.47,17.72,2.48,6.97.04,9.09-.88,12.94.71,1.13.47,2.47,1.18,4.61,1.42,2.82.32,4.65-.45,7.27-1.06,1.97-.46,4.32-.6,9.04-.89,9.92-.6,12.11,1.3,20.56.18,2.46-.33,7.75-1.03,7.98-2.84.18-1.42-2.84-2.85-3.19-3.01-3.35-1.56-6.48-.82-9.57-.35-10.37,1.55-11.09-1.4-20.03.71-3.13.74-4.32,1.4-7.44,1.59-4.13.26-6.96-.59-9.75-1.24-9.26-2.16-8.67.07-18.96-1.95-4.97-.98-9.03-2.27-14.36-.89-.98.26-3.51.93-3.54,1.95Z"/>
  <path class="cls-8" d="m36.63,67.03c-2.64.94-3.66,3.91-4.08,5.14-.84,2.47-1.01,5.75-.18,6.03,1.06.35,2-4.72,6.9-8.7.76-.62,1.77-1.34,1.6-1.93-.22-.79-2.48-1.16-4.25-.53Z"/>
  <path class="cls-8" d="m119.75,71.46c-.68,2.21,3.24,3.81,7.62,9.92,2.71,3.79,5.13,6.03,6.14,5.85,1.27-.23-.05-3.1.12-7.27.07-1.76-2.28-1.66-4.84-4.61-3.42-3.93-3.79-5.76-5.59-5.91-1.33-.11-3.06.74-3.45,2.01Z"/>
  <path class="cls-8" d="m44.43,90.07c.6.65,3.08-2.4,8.33-4.66,5.38-2.32,8.13-2.57,11.52-2.25,5.81.55,11.19,5.44,13.68,3.89.99-.62,1.23-3.17,1.11-4.24-.08-.7-2.72-1.04-5.4-2.48-5.84-3.14-12.65-2.11-13.65-1.95-2.31.38-7.58,1.31-11.87,5.49-2.35,2.3-4.36,5.52-3.72,6.2Z"/>
  <path class="cls-8" d="m76.34,90.22c-1.29-1.25-3.61-2.63-9.22-2.81-7.36-.25-12.87,1.8-15.6,3.01-6.08,2.71-7.25,5.26-7.62,6.38-.11.35-.64,1.95,0,2.48.84.69,3.04-1.01,5.67-2.48.47-.26,5.09-2.8,10.28-3.72,3.38-.6,8.48-1.5,12.23,1.24,1.88,1.38,3.6,3.11,4.86,2.83,1.25-.28,1.21-2.34.99-4.07-.07-.55-.32-1.63-1.59-2.86Z"/>
  <path class="cls-8" d="m76.86,100.92c-1.46-2.87-6.99-3.16-9.92-3.36-7.32-.48-12.59,1.91-17.37,4.08-4.48,2.03-6.5,3.72-6.91,5.85-.14.72-.2,2.03.35,2.3.77.38,3.26-1.43,4.13-2.3,3.83-3.85,8.46-3.58,12.17-4.02,4.02-.48,7.83-1.99,12.17.3.94.49,4.47,1.5,5.32.89.81-.59.68-2.49.04-3.73Z"/>
  <path class="cls-8" d="m76.31,109.96c-1.76-1.41-3.89-1.5-4.67-1.52-7.67-.2-13.74,1.12-13.74,1.12-8.88,1.93-11.37,3.7-12.75,5.26-1.62,1.84-1.81,3.51-1.84,3.97-.09,1.16.12,3.14,1.03,3.44,1.23.4,2.48-2.68,5.29-5.18,5.04-4.49,12.07-4.39,12.69-4.38,4.39.12,7.64,1.97,12.88,1.32,1.03-.13,2.45-.39,2.74-1.25.38-1.13-1.43-2.61-1.64-2.77Z"/>
  <path class="cls-8" d="m87.51,114.53c1.68.59,2.96-1.52,5.86-2.67,2.78-1.1,5.25-.61,10.08.35,5.76,1.15,10.13,3.36,10.83,3.72,4.27,2.2,6.28,4.23,7.28,3.54.86-.59.35-2.81-.37-4.25-1.04-2.09-2.94-3.45-6.35-4.96-7.4-3.27-13.89-3.65-15.5-3.72-7.06-.32-10.21,1.17-11.76,2.31-1.68,1.23-1.84,2.3-1.87,2.66-.1,1.21.66,2.63,1.79,3.02Z"/>
  <path class="cls-8" d="m87.02,105.48c1.8.56,3.98-.75,7.85-2.72,3.38-1.72,6.7-1.45,9.22-1.24,1.85.15,6.17-1.3,10.4,2.37,1.9,1.65,3.81,3.32,4.49,3.01.75-.34.73-2.91-.35-4.79-.51-.88-1.69-2.35-7.8-3.9-5.28-1.34-8.13-2.06-12.05-1.42-3.62.59-2.5.48-8.86,2.25-1.62.45-3.11,1.73-3.54,2.89-.46,1.24-.57,3.16.65,3.54Z"/>
  <path class="cls-8" d="m86.37,96.09c1.58,1.34,5.02-2.03,11.58-2.96,4.05-.57,7.45-.55,8.51-.23,5.62,1.66,9.24,4.2,10.33,3.31.76-.61.24-2.88-.89-4.43-.46-.63-2.85-2.37-9.8-3.19-5.64-.67-9.19.09-16.3,1.6-1.14.24-3.03.67-3.69,2.12-.39.85-.44,3.19.26,3.79Z"/>
  <path class="cls-8" d="m84.91,87.21c1.32.93,4.47-1.89,8.96-3.35,4.98-1.61,9.61-.51,10.99-.18,5.87,1.4,8.54,3.82,9.75,2.78.96-.83.27-2.85-1.42-4.55-1.25-1.25-2.79-1.56-4.08-1.77-8.03-1.32-14.48-.25-14.89-.18-4.78.83-8.52,1.36-9.56,3.58-.58,1.25-.61,3.06.24,3.66Z"/>
  <path class="cls-8" d="m46.91,135.84c2.14.75,3.8-4.08,10.1-8.15,2.4-1.55,6.45-4.17,11.87-4.43,4.15-.2,6.89,1.09,8.18-.52.94-1.17.79-3.46-.36-4.65-1.89-1.95-6.07-.47-14.02,2.33-1.31.46-.7.28-14,7.27-1.01.53-2.83,1.49-3.37,3.37-.51,1.8.22,4.3,1.6,4.79Z"/>
  <path class="cls-8" d="m86.91,118.65c1.19-1.14,3.26-.31,8.27,1.46,10.57,3.74,9.38,2.88,14.97,5.24,8.89,3.75,10.42,5.3,10.77,7.14.21,1.1.06,2.7-.87,3.36-1.76,1.26-4.66-2.03-11.01-5.31-7.05-3.64-11.8-6.09-17.24-5.43-1.34.16-3.23.58-4.49-.57-1.51-1.38-1.71-4.63-.4-5.89Z"/>
  <path class="cls-8" d="m78.21,129.48c-1.8-1.51-4.73-.68-10.52,1.04-6.39,1.9-5.28,2.5-14.07,5.85-3.49,1.33-5.85,2.06-6.11,3.72-.19,1.24.83,2.76,2.04,3.01,1.44.3,2.72-1.3,4.07-2.48,5.36-4.69,16.06-6.51,22.41-4.96.74.18,2.11.58,2.96-.1,1.35-1.07,1.03-4.57-.78-6.09Z"/>
  <path class="cls-8" d="m85.58,129.31c1.11-.75,2.76-.61,8.12.95,10.61,3.08,10.69,4.43,19.18,7.07,3.75,1.17,7.03,1.93,7.17,3.46.08.82-.75,1.7-1.74,2.04-2.26.77-4.26-1.71-8.72-3.61-6.93-2.96-16.15-2.98-17.82-2.98-2.72,0-4.69.21-6.08-.93-1.86-1.51-1.91-4.77-.1-5.99Z"/>
  <path class="cls-8" d="m52.4,146.78c-.12-.99,8.82-4.13,12.76-4.96,5.63-1.19,8.44-1.79,12.41-1.95,2.72-.11,2.23.13,14.36,1.42,6.02.64,10.87,1.08,16.66,3.72,1.48.67,4.37,2.65,4.24,3.25-.23,1.12-7.9,1.16-18.42.59-11.85-.65-25.12-.57-29.42-.59-8.44-.03-12.5-.8-12.58-1.48Z"/>
  <text class="cls-5" transform="translate(35.7 33.33)"><tspan x="0" y="0">Che</tspan><tspan class="cls-4" x="29.44" y="0">s</tspan><tspan x="36.81" y="0">t </tspan><tspan class="cls-3" x="47.47" y="0">X</tspan><tspan x="57.66" y="0">-R</tspan><tspan class="cls-1" x="74.62" y="0">a</tspan><tspan x="83.13" y="0">y</tspan></text>
  <rect id="Border" class="cls-2" x="1" y="1" width="163.48" height="171.59"/>
</svg>