<?xml version="1.0" encoding="UTF-8"?>
<svg id="Layer_2" data-name="Layer 2" xmlns="http://www.w3.org/2000/svg" viewBox="0 0 165.48 173.59">
  <defs>
    <style>
      .cls-1, .cls-2 {
        fill: none;
        stroke: #464f5c;
        stroke-linecap: round;
        stroke-linejoin: round;
      }

      .cls-3 {
        fill: #fff;
        stroke: #282661;
        stroke-miterlimit: 10;
      }

      .cls-3, .cls-2 {
        stroke-width: 2px;
      }

      .cls-4 {
        fill: #282661;
      }

      .cls-4, .cls-5, .cls-6, .cls-7, .cls-8, .cls-9, .cls-10, .cls-11, .cls-12, .cls-13, .cls-14, .cls-15, .cls-16, .cls-17, .cls-18, .cls-19, .cls-20 {
        stroke-width: 0px;
      }

      .cls-5 {
        fill: #454f5b;
      }

      .cls-6 {
        fill: #45505c;
      }

      .cls-7 {
        fill: #87c07b;
      }

      .cls-8 {
        fill: #576775;
      }

      .cls-9 {
        fill: #576976;
      }

      .cls-10 {
        fill: #cc5253;
      }

      .cls-11 {
        fill: #e0866b;
      }

      .cls-12 {
        fill: #dfe3e7;
      }

      .cls-13 {
        fill: #c5e5f3;
      }

      .cls-14 {
        fill: #c2ccd4;
      }

      .cls-15 {
        fill: #c38d62;
      }

      .cls-16 {
        fill: #b6814f;
      }

      .cls-17 {
        fill: #909eaa;
      }

      .cls-18 {
        fill: #ef916f;
      }

      .cls-19 {
        fill: #fcc274;
      }

      .cls-20 {
        fill: #f4f7f9;
      }
    </style>
  </defs>
  <g id="Cards_Updated_Copy_Outlined_" data-name="Cards (Updated | Copy Outlined)">
    <g>
      <rect id="Border" class="cls-3" x="1" y="1" width="163.48" height="171.59" rx="18" ry="18"/>
      <path class="cls-13" d="m22.47,55.89c.23-3.45,4.08-.24,33.71,0h70.29c12.07-1.1,17.83-3.32,20.72,0,2.02,2.32,1.02,5.76.26,10.78-.22,1.46-.62,9.77-1,25.93-.56,24.03.72,30.98-4.77,36.72-3.53,3.69-3.92,3.91-11.02,3.7-53.3-1.52-52.34-5.61-67.41-3.41-5.27.77-30.49,4.94-37.24.26-2.07-1.44-3.15-3.41-3.15-3.41-2.26-4.16-.18-8.94-.26-10.23-.91-14.43-1.19-44.33-.14-60.35Z"/>
      <path class="cls-7" d="m19.54,124.79c-.28,21.13,107.46,7.31,128.96,7.57-1.6-26.16-2.69-44.74-1.63-48.11.24-.75-.11-5.47.18-9.89.14-2.12-.14-3.22-.61-3.66-3.38-3.22-11.41-4.19-23.89-3.41-6.67.41-11.93,1.13-14.95,1.57-6.21.92-8.8,1.6-20.46,3.93-7.14,1.43-11.99,2.34-16.26,3.15-19.14,3.6-21.73,3.68-25.18,2.62-4.44-1.36-5.65-3.16-11.28-4.2-4.03-.75-10.06-2.51-11.94,0-1.11,1.48-1.06,3.75-1.04,4.45.36,14.78-1.75,34.8-1.9,45.96Z"/>
      <path class="cls-12" d="m19.54,124.79c-.55-6.02,14.69.19,25.89,1.69,20.48,2.74,19.71-1.83,60.85-1.22,20.14.3,18.3.65,24.39.26,4.45-.28,8.41.38,16.69,0,1.09-.05.83,3.15.88,3.76,1.03,14.41,2.32,17.42-.67,20.37-1.59,1.57-5.2,1.54-11.12,1.57-6.91.04-13.84.83-20.72.26-14.74-1.21-17.13,2.49-43.02,2.89-27.23.42-41.14-3.43-46.42-2.1-.38.1-4.71.52-5.67-.26-1.5-1.22-1.19-4.53-1.19-6.03-.03-11.22.54-16.51.11-21.19Z"/>
      <polygon id="Back" class="cls-16" points="97.36 82.76 146.9 82.76 146.73 101.39 98.01 101.39 97.36 82.76"/>
      <rect id="Seat" class="cls-15" x="98.01" y="101.39" width="48.89" height="4.81"/>
      <rect class="cls-16" x="98.07" y="105.83" width="48.92" height="4.47"/>
      <path id="Metal_side" data-name="Metal side" class="cls-8" d="m97.54,86.99c-.96-.69-2.48-.22-3.13.84-.71,1.16-2.09,37.68.84,40,.89.7,2.2.73,2.92-.03,1.14-1.21.15-16.55,0-21.77-.36-12.13,1.38-17.6-.63-19.03Z"/>
      <path class="cls-5" d="m110.74,125.35c-1.11-1.06-2.14-2.04-3.5-1.92-1.79.16-3.18,2.15-3.5,3.85-.25,1.33.35,1.46.17,2.8-.26,1.96-1.65,2.36-3.32,5.25-1.05,1.8-1.57,2.71-1.22,3.32.86,1.53,6.71.57,10.84-2.45,1.54-1.12,3.4-2.48,3.67-4.72.34-2.8-2.03-5.06-3.15-6.12Z"/>
      <path class="cls-6" d="m125.78,122.02c.27-2.41-.03-3.29.7-3.85,1.04-.79,3.3-.29,4.37,1.05,1.32,1.65.21,3.81,1.22,4.37,1.17.65,3.08-1.96,4.72-1.22.92.41,1.16,1.61,1.18,1.7.38,2.06-2.14,4.01-3.8,5.29-2.17,1.68-3.45,2.67-5.25,2.45-1.9-.24-3.66-1.75-4.2-3.5-.54-1.75.6-2.27,1.05-6.29Z"/>
      <line class="cls-1" x1="128.46" y1="126.5" x2="128.46" y2="133.46"/>
      <line class="cls-1" x1="132.53" y1="126.5" x2="133.16" y2="134.51"/>
      <line class="cls-1" x1="105.67" y1="135.43" x2="107.01" y2="140.1"/>
      <line class="cls-1" x1="108.41" y1="133.74" x2="110.69" y2="138.22"/>
      <line class="cls-2" x1="107.48" y1="126.54" x2="112.06" y2="123.41"/>
      <line class="cls-2" x1="129.38" y1="120.28" x2="123.85" y2="120.28"/>
      <path class="cls-11" d="m78.03,89.82c1.21-.13,2.32,1.93,6.48,7.2,1.88,2.38,2.96,3.38,2.62,4.55-.4,1.38-2.51,2.08-4.02,2.1-2.89.04-5.48-2.33-6.47-4.9-1.5-3.9-.43-8.76,1.39-8.95Z"/>
      <path class="cls-20" d="m34.74,137.36c-1.31.29-1.89,2.16-1.92,2.27-1.28,4.33,4.78,11.01,7.69,10.14,1.52-.45,1.91-2.87,1.92-2.97.33-2.23-1.21-3.93-3.67-6.64-1.65-1.83-2.81-3.06-4.02-2.8Z"/>
      <path class="cls-20" d="m71.46,146.1c-.16,1.77,1.84,3.86,3.81,4.02,1.2.1,1.65-.58,4.21-1.92,4.12-2.16,6.13-2.06,6.42-3.32.27-1.16-1.12-2.51-2.41-3.15-4.13-2.04-11.75,1.13-12.04,4.37Z"/>
      <path class="cls-18" d="m59.33,122.09c.61,2-.32,6.91-1.51,9.55-.75,1.68-1.95,2.27-5.07,4.2-9.02,5.57-9.62,7.16-12.59,6.99-2.87-.16-6.04-1.85-6.29-3.85-.19-1.54,1.39-2.92,3.85-5.07,3.6-3.15,4.91-2.77,6.12-4.95.84-1.52.28-1.85,1.54-5.8.77-2.43,1.17-3.66,1.96-4.3,2.04-1.65,5.88-2.99,8.04-.98,1.15,1.07,3.37,2.27,3.96,4.2Z"/>
      <path class="cls-18" d="m64.58,117.8c4.74-.47,7.45.62,8.94,2.18.83.87.71,3.55,1.02,6.34.57,5.11,1.97,11.19,2.63,14.06.62,2.71,1.08,4.21.17,5.42-.85,1.14-2.63,1.65-4.02,1.22-1.83-.55-3.25-2.51-4.78-5.95-.63-1.42-2.46-4.74-6.12-11.37-2.62-4.74-3.59-8.24-2.83-9.44.17-.27,1.32-2.12,4.98-2.48Z"/>
      <path class="cls-14" d="m42.29,103.05c-1.31,1.85.99,3.37,1.48,10.75.31,4.69-.41,7.23,1.4,8.74.83.7,1.39.49,4.55.87,6.49.78,9.16,2.25,10.32.87.8-.95-.15-2.04.7-2.97.92-1.01,2.67-.44,7.34.17,5.16.68,5.86.35,6.29,0,1.13-.92.92-2.47.87-6.82-.09-8.25.58-8.48-.17-9.62-1.89-2.82-6.01-1.31-16.79-1.92-10.29-.59-14.34-2.41-15.99-.09Z"/>
      <path class="cls-10" d="m62.98,61c-2.16.37-3.93,1.52-6.97,4.72-5.35,5.63-8.46,11.14-10.32,14.69-5.2,9.95-8.01,15.52-5.6,20.11.21.4.85,1.52,3.15,3.32,8.09,6.32,21.87,9.4,30.77,3.67,1.18-.76,3.54-2.32,4.9-5.25,1.15-2.49,1-4.75.52-8.74-.87-7.26-1.84-12.05-2.8-16.96-1.62-8.28-1.77-9.57-3.32-11.37-2.29-2.65-6.32-4.88-10.34-4.19Z"/>
      <path class="cls-18" d="m54.79,70.79c1.8-.31,5.72,4.73,7.52,9.27.45,1.13.76,2.22,1.75,2.62,1.75.72,3.43-1.63,7.17-3.5,2.97-1.48,8.35-3.22,10.14-1.22,1.37,1.52.12,4.61,0,4.9-.98,2.35-2.9,3.39-5.42,4.9-9.17,5.48-8.57,6.55-11.02,6.64-4.67.19-8.73-3.65-10.67-6.82-4.22-6.93-1.74-16.39.52-16.79Z"/>
      <path class="cls-17" d="m72.09,84.12c.4,1.14,3.31,4.3,3.41,4.33.58.18,1.58-.64,1.57-1.38,0-.47-2.33-3.76-3.49-4.31-.15-.07-.99-.44-1.4-.09-.45.39-.11,1.39-.09,1.44Z"/>
      <path class="cls-9" d="m67.95,81.18c.07.53.77.56,2.57,2.11.59.51.62.6.87.7,1.28.51,3.63-.5,3.85-2.1.2-1.54-1.67-2.87-3.24-3.08-2.1-.27-4.18,1.41-4.05,2.36Z"/>
      <path class="cls-18" d="m63,60.3c-.07,1.6-.2,4.58,1.92,6.29,2.44,1.97,5.93.72,6.47.52,3.28-1.17,4.7-4.11,5.25-5.25.33-.69,3.39-7.21,0-10.32-2.52-2.31-7.01-1.29-9.62.52-3.78,2.63-3.98,7.2-4.02,8.22Z"/>
      <path class="cls-19" d="m64.4,59.95c-1.56.05-3.28-1.52-3.5-3.15-.22-1.67,1.19-2.97,3.5-5.07,2.13-1.95,3.61-3.3,6.12-4.02.92-.26,5.37-1.55,8.04.7,1.46,1.23.93,2.29,3.15,4.7,1.51,1.64,2.55,2.01,2.45,2.82-.13,1.08-2.18,2.14-4.02,1.92-2.63-.31-2.81-2.99-5.42-3.5-2.33-.46-4.65,1.19-5.95,2.1-2.58,1.82-2.82,3.45-4.37,3.5Z"/>
      <path class="cls-19" d="m64.93,66.6c-.68-.72-2.8-8.45-2.06-9.44.76-1.03,6.25,6.91,7.31,7.17,1.11.27,5.3-1.26,5.09-.12-.86,4.47-4.02,9.12-10.33,2.39Z"/>
      <g>
        <path class="cls-4" d="m22.16,21.45h3.92c3.3,0,5.58,2.26,5.58,5.22v.03c0,2.96-2.28,5.25-5.58,5.25h-3.92v-10.5Zm1.84,1.68v7.14h2.07c2.21,0,3.64-1.49,3.64-3.54v-.03c0-2.05-1.44-3.57-3.64-3.57h-2.07Z"/>
        <path class="cls-4" d="m33.14,29.67v-.03c0-1.71,1.35-2.55,3.29-2.55.88,0,1.52.14,2.13.33v-.19c0-1.12-.69-1.73-1.96-1.73-.88,0-1.54.19-2.26.5l-.5-1.43c.88-.39,1.74-.64,3-.64,1.18,0,2.07.32,2.62.88.59.57.86,1.41.86,2.45v4.7h-1.77v-.99c-.54.64-1.37,1.15-2.58,1.15-1.48,0-2.82-.85-2.82-2.44Zm5.45-.57v-.54c-.46-.18-1.08-.31-1.8-.31-1.17,0-1.86.49-1.86,1.32v.03c0,.77.68,1.2,1.54,1.2,1.2,0,2.12-.69,2.12-1.7Z"/>
        <path class="cls-4" d="m42.51,21.09h1.95v1.72h-1.95v-1.72Zm.06,2.94h1.83v7.92h-1.83v-7.92Z"/>
        <path class="cls-4" d="m46.86,21h1.83v10.95h-1.83v-10.95Z"/>
        <path class="cls-4" d="m56.55,24.03h1.89l-3.15,8.13c-.63,1.63-1.33,2.24-2.61,2.24-.75,0-1.32-.18-1.88-.5l.62-1.33c.33.18.69.3,1.06.3.51,0,.83-.22,1.12-.9l-3.3-7.93h1.95l2.22,5.88,2.07-5.88Z"/>
        <path class="cls-4" d="m64.01,30.42l1.11-1.32c1,.87,2.02,1.37,3.31,1.37,1.14,0,1.86-.54,1.86-1.32v-.03c0-.75-.42-1.15-2.37-1.6-2.24-.54-3.5-1.2-3.5-3.13v-.03c0-1.8,1.5-3.04,3.58-3.04,1.53,0,2.74.46,3.81,1.32l-.99,1.39c-.95-.71-1.89-1.08-2.85-1.08-1.08,0-1.71.56-1.71,1.25v.03c0,.81.48,1.17,2.5,1.65,2.22.54,3.36,1.33,3.36,3.07v.03c0,1.96-1.54,3.13-3.75,3.13-1.61,0-3.12-.55-4.38-1.68Z"/>
        <path class="cls-4" d="m74.4,29.76v-4.17h-1.01v-1.56h1.01v-2.18h1.81v2.18h2.13v1.56h-2.13v3.88c0,.71.36.99.97.99.41,0,.77-.09,1.12-.27v1.49c-.45.25-.94.41-1.63.41-1.33,0-2.28-.59-2.28-2.33Z"/>
        <path class="cls-4" d="m79.53,28.02v-.03c0-2.26,1.6-4.12,3.87-4.12,2.52,0,3.79,1.98,3.79,4.26,0,.17-.02.33-.03.51h-5.82c.19,1.29,1.11,2.01,2.28,2.01.88,0,1.52-.33,2.14-.94l1.07.94c-.75.9-1.79,1.49-3.24,1.49-2.29,0-4.07-1.67-4.07-4.11Zm5.86-.59c-.12-1.17-.81-2.08-2.01-2.08-1.11,0-1.89.85-2.05,2.08h4.06Z"/>
        <path class="cls-4" d="m89.01,24.03h1.83v1.32c.59-.83,1.41-1.49,2.7-1.49,1.86,0,3.67,1.47,3.67,4.11v.03c0,2.62-1.8,4.11-3.67,4.11-1.32,0-2.15-.66-2.7-1.39v3.63h-1.83v-10.32Zm6.36,3.97v-.03c0-1.53-1.05-2.54-2.26-2.54s-2.31,1.02-2.31,2.54v.03c0,1.52,1.08,2.54,2.31,2.54s2.26-.97,2.26-2.54Z"/>
        <path class="cls-4" d="m103.34,26.73v-.03c0-2.99,2.24-5.43,5.4-5.43,1.95,0,3.12.67,4.12,1.63l-1.18,1.37c-.85-.78-1.74-1.29-2.96-1.29-1.98,0-3.45,1.64-3.45,3.69v.03c0,2.05,1.46,3.72,3.46,3.72,1.29,0,2.12-.51,3.02-1.35l1.18,1.2c-1.09,1.14-2.29,1.86-4.26,1.86-3.08,0-5.34-2.38-5.34-5.4Z"/>
        <path class="cls-4" d="m114.09,28.03v-.03c0-2.27,1.8-4.14,4.23-4.14s4.21,1.84,4.21,4.11v.03c0,2.25-1.8,4.12-4.25,4.12s-4.2-1.85-4.2-4.1Zm6.63,0v-.03c0-1.39-1-2.55-2.43-2.55s-2.38,1.14-2.38,2.52v.03c0,1.38,1,2.54,2.42,2.54s2.4-1.14,2.4-2.51Z"/>
        <path class="cls-4" d="m124.29,29.07v-5.04h1.82v4.5c0,1.23.62,1.92,1.7,1.92s1.78-.72,1.78-1.95v-4.47h1.83v7.92h-1.83v-1.23c-.51.75-1.25,1.39-2.48,1.39-1.78,0-2.82-1.2-2.82-3.04Z"/>
        <path class="cls-4" d="m133.67,24.03h1.83v1.21c.51-.73,1.25-1.38,2.47-1.38,1.79,0,2.82,1.2,2.82,3.03v5.05h-1.81v-4.5c0-1.23-.62-1.94-1.7-1.94s-1.78.74-1.78,1.96v4.47h-1.83v-7.92Z"/>
        <path class="cls-4" d="m143.36,29.76v-4.17h-1.01v-1.56h1.01v-2.18h1.81v2.18h2.13v1.56h-2.13v3.88c0,.71.36.99.97.99.41,0,.77-.09,1.12-.27v1.49c-.45.25-.95.41-1.63.41-1.33,0-2.28-.59-2.28-2.33Z"/>
      </g>
    </g>
  </g>
</svg>