<?xml version="1.0" encoding="UTF-8"?>
<svg id="Layer_2" data-name="Layer 2" xmlns="http://www.w3.org/2000/svg" viewBox="0 0 165.48 173.59">
  <defs>
    <style>
      .cls-1 {
        fill: #fff;
        stroke: #282661;
        stroke-width: 2px;
      }

      .cls-1, .cls-2 {
        stroke-miterlimit: 10;
      }

      .cls-2 {
        fill: none;
        stroke: #dee4e8;
      }

      .cls-3 {
        fill: #fad582;
      }

      .cls-3, .cls-4, .cls-5, .cls-6, .cls-7, .cls-8, .cls-9 {
        stroke-width: 0px;
      }

      .cls-4 {
        fill: #282661;
      }

      .cls-5 {
        fill: #5c6ab0;
      }

      .cls-6 {
        fill: #958680;
      }

      .cls-7 {
        fill: #272661;
      }

      .cls-8 {
        fill: #dee3e7;
      }

      .cls-9 {
        fill: #f27678;
      }
    </style>
  </defs>
  <g id="Cards_Updated_Copy_Outlined_" data-name="Cards (Updated | Copy Outlined)">
    <g>
      <rect id="Border" class="cls-1" x="1" y="1" width="163.48" height="171.59" rx="18" ry="18"/>
      <path class="cls-9" d="m24.48,75.32c-.09-6.16-1.19-16.37.41-19.02,1.97-3.26,9.9-2.64,16.19-2.36,17.73.8,83.14-2.46,100.26.8,6.3,1.2,6.47,11.44,6.87,26.77.23,8.5-.28,46.14-.15,49.68.3,7.92.25,10.52-2.66,14.06-1.85,2.25-4.62,2.84-5.99,3.1-13.62,2.6-37.65,1.29-48.77,1.11-8.24-.13-7.93.37-25.72.44-28.07.11-31.76-.39-34.92-2.22-4.36-2.51-3.94-7.13-4.09-11.08-.52-13.57-1.33-53.67-1.44-61.3Z"/>
      <rect class="cls-5" x="49.75" y="74.12" width="1.56" height="65" rx=".78" ry=".78"/>
      <rect class="cls-5" x="36.17" y="47.3" width="28.42" height="30.78" rx="11.75" ry="11.75"/>
      <circle class="cls-5" cx="50.38" cy="96.02" r="11.38"/>
      <circle class="cls-8" cx="50.38" cy="95.93" r="8.43"/>
      <circle class="cls-5" cx="50.38" cy="122.29" r="11.38"/>
      <path class="cls-8" d="m50.38,113.86v16.87c-4.66,0-8.43-3.78-8.43-8.44s3.77-8.43,8.43-8.43Z"/>
      <path class="cls-5" d="m50.38,137.19c-6.28,0-11.38,5.09-11.38,11.38s5.1,11.38,11.38,11.38,11.38-5.1,11.38-11.38-5.09-11.38-11.38-11.38Zm0,19.73c-4.66,0-8.43-3.78-8.43-8.44s3.77-8.43,8.43-8.43,8.44,3.78,8.44,8.43-3.78,8.44-8.44,8.44Z"/>
      <path class="cls-2" d="m46.95,58.85v-1.59c0-.64.52-1.16,1.16-1.16h4.53c.64,0,1.16.52,1.16,1.16v1.59"/>
      <rect class="cls-8" x="42.83" y="58.85" width="15.39" height="10.43" rx="1.33" ry="1.33"/>
      <path class="cls-3" d="m84.92,119.29c.51-1.39-1.1-2.56-3.29-5.72-3.21-4.64-2.27-5.79-5-8.51-1.92-1.91-2.66-1.62-5.13-3.81-3.07-2.73-3.44-4.86-4.73-4.7-.86.11-1.67,1.93-.26,4.19,1.67,2.68,3.4,3.25,3.15,4.32-.19.81-1.24.66-2.1,1.91-.76,1.1-.7,2.33-.66,3.18.03.66.17,3.37,2.1,4.7,1.44.99,2.18-.15,3.94.98,1.02.66,2.89,3.59,3.61,4.61,1.28,1.79,2.01,3.8,2.83,4.32,1.41.9,3.27-.53,4.34-.89,1.27-.42.77-3.46,1.18-4.57Z"/>
      <path class="cls-3" d="m100.19,90.11c.74,1.89,1.66,3.89,3.49,4.49,1.41.46,2.61-.16,3.33.67.43.5.29,1.07.17,3.33-.13,2.28-1.19,5.41-1,5.82,1.08,2.32,6.82,4.35,8.06,4.32,1.95-.05,4.07-4.27,4.92-5.65.56-.92,2.09.22,1.5-2.49-.51-2.32-2.81-5.65-2.33-6.66.42-.88,1.21-1.14,2.16-1.66,2.38-1.33,4.01-3.36,4.66-4.49,1.6-2.8.75-6.19-.33-10.48-.54-2.14-.81-3.21-1.33-3.99-3-4.48-6.6-4.08-11.3-3.82-6.2.33-8.31.5-10.14,2.83-2.52,3.2-5.63,8.06-1.84,17.79Z"/>
      <path class="cls-6" d="m107.28,98.7c-.02-1.63-8.39,1.02-10.2,2.44-1.61,1.27-1.94,2.96-2.66,5.1-1.62,4.81-3.42,9.55-4.88,14.41-3.04,10.1-3.76,11.19-3.33,14.19.54,3.77,2.56,8.2,4.66,8.2,3.02,0,4.04-4.89,5.25-4.61,1.03.24,2,3,.96,9.93-.51,3.4-1.2,5.91.22,7.32,1.34,1.32,5.21,2.16,6.37,2.27,5.82.57,6.48-.72,16.68-.72,18.86,0,18.29-1.22,19.06-2.22,1.07-1.38.94-2.46.89-11.31-.04-5.54.08-11.09,0-16.63-.25-16.36.04-25.47-8.3-27.16-2.9-.59-5.9-2-11.54-2.33-1.46-.08-.42,2.91-1.44,4.88-1.19,2.31-7.28,3.53-9.76,2.22-2.56-1.36-1.95-2.27-1.99-5.99Z"/>
      <path class="cls-6" d="m76.69,118.43c-1.57,2.18.27,4.59,3.66,14.63,1.79,5.32,3.16,8.09,6.1,10.86,1.05.99,3.33,3.14,5.76,2.66,3.11-.61,9.08-9.77,8.97-13.4-.07-2.24-4.95,1.44-8.53-4.56-5.1-8.55-7.29-12.26-9.91-13.25-2.57-.96-4.64,1.08-6.05,3.05Z"/>
      <path class="cls-7" d="m95.53,94.93c2,.99,10.78,1.74,11.47.33.39-.8-3.78-2.91-4.48-4.66-.74-1.83-1.91-15.61,1.16-15.3,4.07.42,5.13.61,6.48,0,2.54-1.15,2.64-4.64,3.49-4.49.88.15.03,3.61,1.83,4.99,2,1.53,3.98-1.24,6.65.33,1.37.81,1.34,9.93-.33,12.9-.77,1.36-3.68,4.29-3.49,4.89.56,1.74,11.63.21,13.3-2.16.79-1.12.27-2.45-.33-5.15-1.37-6.11-3.47-7.04-4.33-10.48-.3-1.19.5-9.4-7.14-13.14-6.56-3.2-14.71-1.92-20.12,2.49-4.32,3.52-1.66,8.04-2.48,10.81-2.01,6.75-5.97,16.5-1.67,18.62Z"/>
      <g>
        <path class="cls-4" d="m10.27,21.45h7.79v1.65h-5.94v2.73h5.26v1.67h-5.26v2.8h6.01v1.65h-7.86v-10.5Z"/>
        <path class="cls-4" d="m20.09,24.03h1.83v1.2c.51-.71,1.2-1.36,2.41-1.36,1.14,0,1.95.55,2.37,1.39.63-.84,1.47-1.39,2.67-1.39,1.72,0,2.78,1.09,2.78,3.03v5.05h-1.82v-4.5c0-1.26-.58-1.94-1.6-1.94s-1.7.69-1.7,1.96v4.47h-1.81v-4.52c0-1.23-.6-1.92-1.61-1.92s-1.69.75-1.69,1.96v4.47h-1.83v-7.92Z"/>
        <path class="cls-4" d="m34.33,24.03h1.83v1.32c.58-.83,1.41-1.49,2.7-1.49,1.86,0,3.67,1.47,3.67,4.11v.03c0,2.62-1.8,4.11-3.67,4.11-1.32,0-2.15-.66-2.7-1.39v3.63h-1.83v-10.32Zm6.36,3.97v-.03c0-1.53-1.05-2.54-2.27-2.54s-2.31,1.02-2.31,2.54v.03c0,1.52,1.08,2.54,2.31,2.54s2.27-.97,2.27-2.54Z"/>
        <path class="cls-4" d="m44.5,21h1.83v10.95h-1.83v-10.95Z"/>
        <path class="cls-4" d="m48.26,28.03v-.03c0-2.27,1.8-4.14,4.23-4.14s4.21,1.84,4.21,4.11v.03c0,2.25-1.8,4.12-4.25,4.12s-4.2-1.85-4.2-4.1Zm6.63,0v-.03c0-1.39-1-2.55-2.43-2.55s-2.38,1.14-2.38,2.52v.03c0,1.38,1,2.54,2.42,2.54s2.4-1.14,2.4-2.51Z"/>
        <path class="cls-4" d="m63.59,24.03h1.89l-3.15,8.13c-.63,1.63-1.33,2.24-2.61,2.24-.75,0-1.32-.18-1.88-.5l.62-1.33c.33.18.69.3,1.07.3.51,0,.82-.22,1.12-.9l-3.3-7.93h1.95l2.22,5.88,2.07-5.88Z"/>
        <path class="cls-4" d="m67.03,24.03h1.83v1.2c.51-.71,1.2-1.36,2.41-1.36,1.14,0,1.95.55,2.37,1.39.63-.84,1.47-1.39,2.67-1.39,1.72,0,2.78,1.09,2.78,3.03v5.05h-1.82v-4.5c0-1.26-.58-1.94-1.6-1.94s-1.7.69-1.7,1.96v4.47h-1.81v-4.52c0-1.23-.6-1.92-1.61-1.92s-1.69.75-1.69,1.96v4.47h-1.83v-7.92Z"/>
        <path class="cls-4" d="m80.84,28.02v-.03c0-2.26,1.61-4.12,3.87-4.12,2.52,0,3.79,1.98,3.79,4.26,0,.17-.02.33-.03.51h-5.82c.19,1.29,1.11,2.01,2.28,2.01.88,0,1.52-.33,2.15-.94l1.06.94c-.75.9-1.79,1.49-3.24,1.49-2.29,0-4.07-1.67-4.07-4.11Zm5.87-.59c-.12-1.17-.81-2.08-2.01-2.08-1.11,0-1.89.85-2.06,2.08h4.07Z"/>
        <path class="cls-4" d="m90.32,24.03h1.83v1.21c.51-.73,1.24-1.38,2.47-1.38,1.79,0,2.82,1.2,2.82,3.03v5.05h-1.81v-4.5c0-1.23-.62-1.94-1.7-1.94s-1.78.74-1.78,1.96v4.47h-1.83v-7.92Z"/>
        <path class="cls-4" d="m100.01,29.76v-4.17h-1v-1.56h1v-2.18h1.82v2.18h2.13v1.56h-2.13v3.88c0,.71.36.99.97.99.41,0,.76-.09,1.12-.27v1.49c-.45.25-.95.41-1.63.41-1.33,0-2.28-.59-2.28-2.33Z"/>
        <path class="cls-4" d="m109.81,30.42l1.11-1.32c1,.87,2.02,1.37,3.31,1.37,1.14,0,1.86-.54,1.86-1.32v-.03c0-.75-.42-1.15-2.37-1.6-2.24-.54-3.5-1.2-3.5-3.13v-.03c0-1.8,1.5-3.04,3.58-3.04,1.53,0,2.75.46,3.81,1.32l-.99,1.39c-.95-.71-1.89-1.08-2.85-1.08-1.08,0-1.71.56-1.71,1.25v.03c0,.81.48,1.17,2.5,1.65,2.22.54,3.36,1.33,3.36,3.07v.03c0,1.96-1.54,3.13-3.75,3.13-1.6,0-3.12-.55-4.38-1.68Z"/>
        <path class="cls-4" d="m120.2,29.76v-4.17h-1v-1.56h1v-2.18h1.82v2.18h2.13v1.56h-2.13v3.88c0,.71.36.99.97.99.41,0,.76-.09,1.12-.27v1.49c-.45.25-.95.41-1.63.41-1.33,0-2.28-.59-2.28-2.33Z"/>
        <path class="cls-4" d="m125.45,29.67v-.03c0-1.71,1.35-2.55,3.29-2.55.88,0,1.51.14,2.13.33v-.19c0-1.12-.69-1.73-1.96-1.73-.88,0-1.54.19-2.26.5l-.5-1.43c.88-.39,1.74-.64,3-.64,1.18,0,2.07.32,2.62.88.58.57.86,1.41.86,2.45v4.7h-1.77v-.99c-.54.64-1.37,1.15-2.58,1.15-1.49,0-2.82-.85-2.82-2.44Zm5.45-.57v-.54c-.47-.18-1.08-.31-1.8-.31-1.17,0-1.86.49-1.86,1.32v.03c0,.77.67,1.2,1.54,1.2,1.2,0,2.12-.69,2.12-1.7Z"/>
        <path class="cls-4" d="m135.1,29.76v-4.17h-1.01v-1.56h1.01v-2.18h1.81v2.18h2.13v1.56h-2.13v3.88c0,.71.36.99.97.99.41,0,.77-.09,1.12-.27v1.49c-.45.25-.94.41-1.63.41-1.33,0-2.28-.59-2.28-2.33Z"/>
        <path class="cls-4" d="m140.8,29.07v-5.04h1.82v4.5c0,1.23.62,1.92,1.7,1.92s1.78-.72,1.78-1.95v-4.47h1.83v7.92h-1.83v-1.23c-.51.75-1.25,1.39-2.47,1.39-1.79,0-2.82-1.2-2.82-3.04Z"/>
        <path class="cls-4" d="m149.54,30.92l.81-1.23c.87.64,1.78.97,2.59.97s1.23-.33,1.23-.85v-.03c0-.62-.84-.82-1.77-1.11-1.17-.33-2.48-.81-2.48-2.31v-.03c0-1.52,1.25-2.43,2.82-2.43.99,0,2.07.34,2.91.9l-.72,1.29c-.76-.46-1.57-.75-2.23-.75-.71,0-1.11.35-1.11.78v.03c0,.58.86.82,1.79,1.12,1.16.36,2.46.88,2.46,2.31v.03c0,1.66-1.29,2.49-2.94,2.49-1.12,0-2.37-.39-3.36-1.18Z"/>
      </g>
    </g>
  </g>
</svg>