<?xml version="1.0" encoding="UTF-8"?>
<svg id="Cards" xmlns="http://www.w3.org/2000/svg" viewBox="0 0 165.48 173.59">
  <defs>
    <style>
      .cls-1 {
        letter-spacing: -.03em;
      }

      .cls-2 {
        stroke: #282661;
        stroke-width: 2px;
      }

      .cls-2, .cls-3 {
        fill: none;
        stroke-miterlimit: 10;
      }

      .cls-3 {
        stroke: #dee4e8;
      }

      .cls-4 {
        fill: #282661;
        font-family: Gotham-Medium, Gotham;
        font-size: 15px;
        font-weight: 500;
      }

      .cls-5 {
        fill: #fad582;
      }

      .cls-5, .cls-6, .cls-7, .cls-8, .cls-9, .cls-10 {
        stroke-width: 0px;
      }

      .cls-6 {
        fill: #5c6ab0;
      }

      .cls-7 {
        fill: #958680;
      }

      .cls-8 {
        fill: #272661;
      }

      .cls-9 {
        fill: #dee3e7;
      }

      .cls-10 {
        fill: #f27678;
      }

      .cls-11 {
        letter-spacing: 0em;
      }
    </style>
  </defs>
  <path class="cls-10" d="m24.6,75.57c-.09-6.16-1.19-16.37.41-19.02,1.97-3.26,9.9-2.64,16.19-2.36,17.73.8,83.14-2.46,100.26.8,6.3,1.2,6.47,11.44,6.87,26.77.23,8.5-.28,46.14-.15,49.68.3,7.92.25,10.52-2.66,14.06-1.85,2.25-4.62,2.84-5.99,3.1-13.62,2.6-37.65,1.29-48.77,1.11-8.24-.13-7.93.37-25.72.44-28.07.11-31.76-.39-34.92-2.22-4.36-2.51-3.94-7.13-4.09-11.08-.52-13.57-1.33-53.67-1.44-61.3Z"/>
  <rect class="cls-6" x="49.86" y="74.37" width="1.56" height="65" rx=".78" ry=".78"/>
  <rect class="cls-6" x="36.29" y="47.55" width="28.42" height="30.78" rx="11.75" ry="11.75"/>
  <circle class="cls-6" cx="50.49" cy="96.27" r="11.38"/>
  <circle class="cls-9" cx="50.49" cy="96.18" r="8.43"/>
  <circle class="cls-6" cx="50.49" cy="122.54" r="11.38"/>
  <path class="cls-9" d="m50.49,114.11v16.87c-4.66,0-8.43-3.78-8.43-8.44s3.77-8.43,8.43-8.43Z"/>
  <path class="cls-6" d="m50.49,137.44c-6.28,0-11.38,5.09-11.38,11.38s5.1,11.38,11.38,11.38,11.38-5.1,11.38-11.38-5.09-11.38-11.38-11.38Zm0,19.73c-4.66,0-8.43-3.78-8.43-8.44s3.77-8.43,8.43-8.43,8.44,3.78,8.44,8.43-3.78,8.44-8.44,8.44Z"/>
  <path class="cls-3" d="m47.07,59.1v-1.59c0-.64.52-1.16,1.16-1.16h4.53c.64,0,1.16.52,1.16,1.16v1.59"/>
  <rect class="cls-9" x="42.95" y="59.1" width="15.39" height="10.43" rx="1.33" ry="1.33"/>
  <path class="cls-5" d="m85.03,119.54c.51-1.39-1.1-2.56-3.29-5.72-3.21-4.64-2.27-5.79-5-8.51-1.92-1.91-2.66-1.62-5.13-3.81-3.07-2.73-3.44-4.86-4.73-4.7-.86.11-1.67,1.93-.26,4.19,1.67,2.68,3.4,3.25,3.15,4.32-.19.81-1.24.66-2.1,1.91-.76,1.1-.7,2.33-.66,3.18.03.66.17,3.37,2.1,4.7,1.44.99,2.18-.15,3.94.98,1.02.66,2.89,3.59,3.61,4.61,1.28,1.79,2.01,3.8,2.83,4.32,1.41.9,3.27-.53,4.34-.89,1.27-.42.77-3.46,1.18-4.57Z"/>
  <path class="cls-5" d="m100.3,90.36c.74,1.89,1.66,3.89,3.49,4.49,1.41.46,2.61-.16,3.33.67.43.5.29,1.07.17,3.33-.13,2.28-1.19,5.41-1,5.82,1.08,2.32,6.82,4.35,8.06,4.32,1.95-.05,4.07-4.27,4.92-5.65.56-.92,2.09.22,1.5-2.49-.51-2.32-2.81-5.65-2.33-6.66.42-.88,1.21-1.14,2.16-1.66,2.38-1.33,4.01-3.36,4.66-4.49,1.6-2.8.75-6.19-.33-10.48-.54-2.14-.81-3.21-1.33-3.99-3-4.48-6.6-4.08-11.3-3.82-6.2.33-8.31.5-10.14,2.83-2.52,3.2-5.63,8.06-1.84,17.79Z"/>
  <path class="cls-7" d="m107.4,98.95c-.02-1.63-8.39,1.02-10.2,2.44-1.61,1.27-1.94,2.96-2.66,5.1-1.62,4.81-3.42,9.55-4.88,14.41-3.04,10.1-3.76,11.19-3.33,14.19.54,3.77,2.56,8.2,4.66,8.2,3.02,0,4.04-4.89,5.25-4.61,1.03.24,2,3,.96,9.93-.51,3.4-1.2,5.91.22,7.32,1.34,1.32,5.21,2.16,6.37,2.27,5.82.57,6.48-.72,16.68-.72,18.86,0,18.29-1.22,19.06-2.22,1.07-1.38.94-2.46.89-11.31-.04-5.54.08-11.09,0-16.63-.25-16.36.04-25.47-8.3-27.16-2.9-.59-5.9-2-11.54-2.33-1.46-.08-.42,2.91-1.44,4.88-1.19,2.31-7.28,3.53-9.76,2.22-2.56-1.36-1.95-2.27-1.99-5.99Z"/>
  <path class="cls-7" d="m76.8,118.68c-1.57,2.18.27,4.59,3.66,14.63,1.79,5.32,3.16,8.09,6.1,10.86,1.05.99,3.33,3.14,5.76,2.66,3.11-.61,9.08-9.77,8.97-13.4-.07-2.24-4.95,1.44-8.53-4.56-5.1-8.55-7.29-12.26-9.91-13.25-2.57-.96-4.64,1.08-6.05,3.05Z"/>
  <path class="cls-8" d="m95.65,95.18c2,.99,10.78,1.74,11.47.33.39-.8-3.78-2.91-4.48-4.66-.74-1.83-1.91-15.61,1.16-15.3,4.07.42,5.13.61,6.48,0,2.54-1.15,2.64-4.64,3.49-4.49.88.15.03,3.61,1.83,4.99,2,1.53,3.98-1.24,6.65.33,1.37.81,1.34,9.93-.33,12.9-.77,1.36-3.68,4.29-3.49,4.89.56,1.74,11.63.21,13.3-2.16.79-1.12.27-2.45-.33-5.15-1.37-6.11-3.47-7.04-4.33-10.48-.3-1.19.5-9.4-7.14-13.14-6.56-3.2-14.71-1.92-20.12,2.49-4.32,3.52-1.66,8.04-2.48,10.81-2.01,6.75-5.97,16.5-1.67,18.62Z"/>
  <text class="cls-4" transform="translate(9.03 32.2)"><tspan x="0" y="0">Empl</tspan><tspan class="cls-1" x="38.64" y="0">o</tspan><tspan x="48.04" y="0">yment </tspan><tspan class="cls-11" x="100.24" y="0">S</tspan><tspan x="109.77" y="0">t</tspan><tspan class="cls-11" x="115.93" y="0">a</tspan><tspan x="124.66" y="0">tus</tspan></text>
  <rect id="Border" class="cls-2" x="1.12" y="1.25" width="163.48" height="171.59"/>
</svg>