<?xml version="1.0" encoding="UTF-8"?>
<svg id="Layer_2" data-name="Layer 2" xmlns="http://www.w3.org/2000/svg" viewBox="0 0 165.48 173.59">
  <defs>
    <style>
      .cls-1 {
        fill: #fff;
        stroke: #282661;
        stroke-miterlimit: 10;
        stroke-width: 2px;
      }

      .cls-2 {
        fill: #f6f7db;
      }

      .cls-2, .cls-3, .cls-4, .cls-5, .cls-6, .cls-7, .cls-8 {
        stroke-width: 0px;
      }

      .cls-3 {
        fill: #282661;
      }

      .cls-4 {
        fill: #644420;
      }

      .cls-5 {
        fill: #59afe0;
      }

      .cls-6 {
        fill: #b4b036;
      }

      .cls-7 {
        fill: #b68150;
      }

      .cls-8 {
        fill: #fcc274;
      }
    </style>
  </defs>
  <g id="Cards_Updated_Copy_Outlined_" data-name="Cards (Updated | Copy Outlined)">
    <g>
      <rect id="Border" class="cls-1" x="1" y="1" width="163.48" height="171.59" rx="18" ry="18"/>
      <path id="Background" class="cls-8" d="m24.26,138.13c-6.79.26-19.79-.24-22.24-2.29-1.8-1.51-.76-1.61-1.03-7.7-.4-8.88,0-16.52,0-16.52.77-11.52.67-18.37.01-25.73-.34-3.82-.47-9.36,0-15.98.41-5.8-1.71-7.84,0-9.65,2.06-2.18,16.11-.82,21.75-1.7,10.27-1.6,96.41-.44,97.21-.49,35.64-2.17,43.36,1.79,43.83,3.66,1.46,5.75.23,32.57.68,41.92,1.08,22.27.73,24.79-.68,32.66-.59,3.26-11.78.76-20.08.92-10.23.2-20.45,1.38-30.68,1.13-19.2-.46-53.19-1.29-71.42-.23-5.77.34-11.57-.22-17.35,0Z"/>
      <rect class="cls-2" x="110.41" y="119.37" width="13.58" height="2.78" rx="1.39" ry="1.39" transform="translate(233.82 242.08) rotate(-179.72)"/>
      <rect class="cls-2" x="134.38" y="76.59" width="12.41" height="1.51" rx=".75" ry=".75" transform="translate(280.81 155.37) rotate(-179.72)"/>
      <rect class="cls-2" x="140.56" y="77.35" width="1.08" height="13.19" rx=".54" ry=".54" transform="translate(281.8 168.56) rotate(-179.72)"/>
      <rect class="cls-2" x="111.87" y="95.19" width="21.64" height="2.66" rx="1.33" ry="1.33" transform="translate(244.93 193.62) rotate(-179.72)"/>
      <rect class="cls-2" x="121.36" y="96.45" width="2.69" height="25.59" rx="1.34" ry="1.34" transform="translate(244.88 219.07) rotate(-179.72)"/>
      <rect class="cls-2" x="97.59" y="76.16" width="12.41" height="1.51" rx=".75" ry=".75" transform="translate(207.22 154.32) rotate(-179.72)"/>
      <rect class="cls-2" x="103.76" y="76.91" width="1.08" height="13.19" rx=".54" ry=".54" transform="translate(208.21 167.51) rotate(-179.72)"/>
      <path class="cls-2" d="m109.66,80.82l4.83,2.85c.39.23.88.24,1.27.01l4.88-2.76c.4-.22.64-.64.65-1.1l.05-5.61c0-.45-.23-.88-.63-1.11l-4.83-2.85c-.39-.23-.88-.24-1.27-.01l-4.88,2.76c-.4.22-.64.64-.65,1.1l-.05,5.61c0,.45.23.88.63,1.11Z"/>
      <path class="cls-6" d="m111.27,79.9l3.23,1.91c.39.23.88.24,1.27.01l3.27-1.85c.4-.22.64-.64.65-1.1l.04-3.75c0-.45-.23-.88-.63-1.11l-3.23-1.91c-.39-.23-.88-.24-1.27-.01l-3.27,1.85c-.4.22-.64.64-.65,1.1l-.04,3.75c0,.45.23.88.63,1.11Z"/>
      <path class="cls-2" d="m88.01,80.92l4.83,2.85c.39.23.88.24,1.27.01l4.88-2.76c.4-.22.64-.64.65-1.1l.05-5.61c0-.45-.23-.88-.63-1.11l-4.83-2.85c-.39-.23-.88-.24-1.27-.01l-4.88,2.76c-.4.22-.64.64-.65,1.1l-.05,5.61c0,.45.23.88.63,1.11Z"/>
      <path class="cls-6" d="m89.63,80.01l3.23,1.91c.39.23.88.24,1.27.01l3.27-1.85c.4-.22.64-.64.65-1.1l.04-3.75c0-.45-.23-.88-.63-1.11l-3.23-1.91c-.39-.23-.88-.24-1.27-.01l-3.27,1.85c-.4.22-.64.64-.65,1.1l-.04,3.75c0,.45.23.88.63,1.11Z"/>
      <path class="cls-2" d="m96,101.43l7.51,4.43c.39.23.88.24,1.27.01l7.59-4.29c.4-.22.64-.64.65-1.1l.08-8.72c0-.45-.23-.88-.63-1.11l-7.51-4.43c-.39-.23-.88-.24-1.27-.01l-7.59,4.29c-.4.22-.64.64-.65,1.1l-.08,8.72c0,.45.23.88.63,1.11Z"/>
      <path class="cls-6" d="m98.33,100.12l5.21,3.08c.39.23.88.24,1.27.01l5.27-2.98c.4-.22.64-.64.65-1.1l.06-6.05c0-.45-.23-.88-.63-1.11l-5.21-3.08c-.39-.23-.88-.24-1.27-.01l-5.27,2.98c-.4.22-.64.64-.65,1.1l-.06,6.05c0,.45.23.88.63,1.11Z"/>
      <path class="cls-2" d="m124.81,81.27l4.83,2.85c.39.23.88.24,1.27.01l4.88-2.76c.4-.22.64-.64.65-1.1l.05-5.61c0-.45-.23-.88-.63-1.11l-4.83-2.85c-.39-.23-.88-.24-1.27-.01l-4.88,2.76c-.4.22-.64.64-.65,1.1l-.05,5.61c0,.45.23.88.63,1.11Z"/>
      <path class="cls-5" d="m126.43,80.36l3.23,1.91c.39.23.88.24,1.27.01l3.27-1.85c.4-.22.64-.64.65-1.1l.04-3.75c0-.45-.23-.88-.63-1.11l-3.23-1.91c-.39-.23-.88-.24-1.27-.01l-3.27,1.85c-.4.22-.64.64-.65,1.1l-.04,3.75c0,.45.23.88.63,1.11Z"/>
      <path class="cls-2" d="m132.8,101.86l7.51,4.43c.39.23.88.24,1.27.01l7.59-4.29c.4-.22.64-.64.65-1.1l.08-8.72c0-.45-.23-.88-.63-1.11l-7.51-4.43c-.39-.23-.88-.24-1.27-.01l-7.59,4.29c-.4.22-.64.64-.65,1.1l-.08,8.72c0,.45.23.88.63,1.11Z"/>
      <path class="cls-5" d="m135.12,100.55l5.21,3.08c.39.23.88.24,1.27.01l5.27-2.98c.4-.22.64-.64.65-1.1l.06-6.05c0-.45-.23-.88-.63-1.11l-5.21-3.08c-.39-.23-.88-.24-1.27-.01l-5.27,2.98c-.4.22-.64.64-.65,1.1l-.06,6.05c0,.45.23.88.63,1.11Z"/>
      <path class="cls-2" d="m146.45,81.25l4.83,2.85c.39.23.88.24,1.27.01l4.88-2.76c.4-.22.64-.64.65-1.1l.05-5.61c0-.45-.23-.88-.63-1.11l-4.83-2.85c-.39-.23-.88-.24-1.27-.01l-4.88,2.76c-.4.22-.64.64-.65,1.1l-.05,5.61c0,.45.23.88.63,1.11Z"/>
      <path class="cls-6" d="m148.07,80.34l3.23,1.91c.39.23.88.24,1.27.01l3.27-1.85c.4-.22.64-.64.65-1.1l.04-3.75c0-.45-.23-.88-.63-1.11l-3.23-1.91c-.39-.23-.88-.24-1.27-.01l-3.27,1.85c-.4.22-.64.64-.65,1.1l-.04,3.75c0,.45.23.88.63,1.11Z"/>
      <rect class="cls-2" x="43.13" y="119.45" width="13.58" height="2.78" rx="1.39" ry="1.39" transform="translate(-.58 .24) rotate(-.28)"/>
      <rect class="cls-2" x="20.33" y="76.68" width="12.41" height="1.51" rx=".75" ry=".75" transform="translate(-.37 .13) rotate(-.28)"/>
      <rect class="cls-2" x="25.48" y="77.43" width="1.08" height="13.19" rx=".54" ry=".54" transform="translate(-.4 .13) rotate(-.28)"/>
      <rect class="cls-2" x="33.61" y="95.27" width="21.64" height="2.66" rx="1.33" ry="1.33" transform="translate(-.46 .21) rotate(-.28)"/>
      <rect class="cls-2" x="43.08" y="96.53" width="2.69" height="25.59" rx="1.34" ry="1.34" transform="translate(-.52 .21) rotate(-.28)"/>
      <rect class="cls-2" x="57.12" y="76.24" width="12.41" height="1.51" rx=".75" ry=".75" transform="translate(-.37 .31) rotate(-.28)"/>
      <rect class="cls-2" x="62.28" y="77" width="1.08" height="13.19" rx=".54" ry=".54" transform="translate(-.4 .3) rotate(-.27)"/>
      <path class="cls-2" d="m57.47,80.9l-4.83,2.85c-.39.23-.88.24-1.27.01l-4.88-2.76c-.4-.22-.64-.64-.65-1.1l-.05-5.61c0-.45.23-.88.63-1.11l4.83-2.85c.39-.23.88-.24,1.27-.01l4.88,2.76c.4.22.64.64.65,1.1l.05,5.61c0,.45-.23.88-.63,1.11Z"/>
      <path class="cls-6" d="m55.86,79.99l-3.23,1.91c-.39.23-.88.24-1.27.01l-3.27-1.85c-.4-.22-.64-.64-.65-1.1l-.04-3.75c0-.45.23-.88.63-1.11l3.23-1.91c.39-.23.88-.24,1.27-.01l3.27,1.85c.4.22.64.64.65,1.1l.04,3.75c0,.45-.23.88-.63,1.11Z"/>
      <path class="cls-2" d="m79.11,81.01l-4.83,2.85c-.39.23-.88.24-1.27.01l-4.88-2.76c-.4-.22-.64-.64-.65-1.1l-.05-5.61c0-.45.23-.88.63-1.11l4.83-2.85c.39-.23.88-.24,1.27-.01l4.88,2.76c.4.22.64.64.65,1.1l.05,5.61c0,.45-.23.88-.63,1.11Z"/>
      <path class="cls-6" d="m77.5,80.09l-3.23,1.91c-.39.23-.88.24-1.27.01l-3.27-1.85c-.4-.22-.64-.64-.65-1.1l-.04-3.75c0-.45.23-.88.63-1.11l3.23-1.91c.39-.23.88-.24,1.27-.01l3.27,1.85c.4.22.64.64.65,1.1l.04,3.75c0,.45-.23.88-.63,1.11Z"/>
      <path class="cls-2" d="m71.12,101.51l-7.51,4.43c-.39.23-.88.24-1.27.01l-7.59-4.29c-.4-.22-.64-.64-.65-1.1l-.08-8.72c0-.45.23-.88.63-1.11l7.51-4.43c.39-.23.88-.24,1.27-.01l7.59,4.29c.4.22.64.64.65,1.1l.08,8.72c0,.45-.23.88-.63,1.11Z"/>
      <path class="cls-6" d="m68.8,100.2l-5.21,3.08c-.39.23-.88.24-1.27.01l-5.27-2.98c-.4-.22-.64-.64-.65-1.1l-.06-6.05c0-.45.23-.88.63-1.11l5.21-3.08c.39-.23.88-.24,1.27-.01l5.27,2.98c.4.22.64.64.65,1.1l.06,6.05c0,.45-.23.88-.63,1.11Z"/>
      <path class="cls-2" d="m42.31,81.36l-4.83,2.85c-.39.23-.88.24-1.27.01l-4.88-2.76c-.4-.22-.64-.64-.65-1.1l-.05-5.61c0-.45.23-.88.63-1.11l4.83-2.85c.39-.23.88-.24,1.27-.01l4.88,2.76c.4.22.64.64.65,1.1l.05,5.61c0,.45-.23.88-.63,1.11Z"/>
      <path class="cls-6" d="m40.7,80.45l-3.23,1.91c-.39.23-.88.24-1.27.01l-3.27-1.85c-.4-.22-.64-.64-.65-1.1l-.04-3.75c0-.45.23-.88.63-1.11l3.23-1.91c.39-.23.88-.24,1.27-.01l3.27,1.85c.4.22.64.64.65,1.1l.04,3.75c0,.45-.23.88-.63,1.11Z"/>
      <path class="cls-2" d="m34.33,101.95l-7.51,4.43c-.39.23-.88.24-1.27.01l-7.59-4.29c-.4-.22-.64-.64-.65-1.1l-.08-8.72c0-.45.23-.88.63-1.11l7.51-4.43c.39-.23.88-.24,1.27-.01l7.59,4.29c.4.22.64.64.65,1.1l.08,8.72c0,.45-.23.88-.63,1.11Z"/>
      <path class="cls-6" d="m32,100.64l-5.21,3.08c-.39.23-.88.24-1.27.01l-5.27-2.98c-.4-.22-.64-.64-.65-1.1l-.06-6.05c0-.45.23-.88.63-1.11l5.21-3.08c.39-.23.88-.24,1.27-.01l5.27,2.98c.4.22.64.64.65,1.1l.06,6.05c0,.45-.23.88-.63,1.11Z"/>
      <path class="cls-2" d="m20.67,81.34l-4.83,2.85c-.39.23-.88.24-1.27.01l-4.88-2.76c-.4-.22-.64-.64-.65-1.1l-.05-5.61c0-.45.23-.88.63-1.11l4.83-2.85c.39-.23.88-.24,1.27-.01l4.88,2.76c.4.22.64.64.65,1.1l.05,5.61c0,.45-.23.88-.63,1.11Z"/>
      <path class="cls-6" d="m19.06,80.43l-3.23,1.91c-.39.23-.88.24-1.27.01l-3.27-1.85c-.4-.22-.64-.64-.65-1.1l-.04-3.75c0-.45.23-.88.63-1.11l3.23-1.91c.39-.23.88-.24,1.27-.01l3.27,1.85c.4.22.64.64.65,1.1l.04,3.75c0,.45-.23.88-.63,1.11Z"/>
      <path class="cls-7" d="m78.83,124.2c-1.01-.65-1.13.68-2.33,0-1.15-.65-1.7-2.78-.83-4.16.31-.48,1.03-1.26,1.83-1.16,1.07.12.93.01,2.04.17.68.09,1.8,1.3,2.11.67.53-1.08-3.82-2.57-4.27-4.82-.09-.44,2.74-1.55,3.27-3.33.87-2.89,3.32-4.38,4.32-4.99.97-.59,1.51-.92,2.33-1,2.62-.25,5.08,2.25,5.49,3.33,2.41,6.32,4.73,14.23,2.5,15.95-2.01,1.56-4.22,2.23-4.5,2.83-.22.48-.9,1.86-.5,3.33.31,1.12,7.43,2.19,7.31,2.83-.18.94-6.66,3.2-6.97,3.49-2.05,1.86-6.98,2.99-8.59,1.05-.46-.55-5.44-2.71-5.66-3.55-.36-1.38,3.22-3.78,3.27-5.15.1-2.9.17-4.85-.83-5.49Z"/>
      <path class="cls-4" d="m80.5,121.37c.69.07,1.4-.55,1.66-1.16.21-.49.15-1.05-.67-2.83-1.17-2.54-1.62-2.65-1.66-3.49-.02-.42.09-1.04,2.33-3.66,3.99-4.67,4.98-1.32,9.29-2.83,1.89-.67,2.09-4.46.41-6.21-2.15-2.24-4.98-3.91-8.2-2.09-1.57.89-.82,1.24-1.66,2-1.22,1.08-2.58.09-4.16,1-.35.2-.95.64-1.83,2.49-1.55,3.27-.98,4.63-2.16,8.65-.78,2.66-1.35,3.16-1.16,4.66.28,2.23,2.28,5.3,2.87,5.16.46-.11-.71-1.12.12-3,.07-.15,1.28-1.33,2.16-1.16,1.38.26,1.46,2.37,2.66,2.49Z"/>
      <path class="cls-5" d="m78.39,131.7c.92-.08,1.69,2.31,2.77,3.14,2.75,2.1,7.61,1.91,8.98-.17.71-1.08.04-1.98.83-2.83.9-.96,2.66-.72,5.15-.17,5.26,1.16,6,.77,7.42,1.86,1.59,1.22,7.93,28.18,4.38,30.89-1.48,1.13-14.55-.9-25.94,0-9.24.73-14.21,2.88-16.29.17-.52-.68-.62-1.95-.83-4.49-.11-1.33.23-24.22,2.71-26.11,3.68-2.81,7.67-2.03,10.81-2.31Z"/>
      <g>
        <path class="cls-3" d="m29.75,21.45h7.81v1.68h-5.97v2.87h5.29v1.68h-5.29v4.27h-1.84v-10.5Z"/>
        <path class="cls-3" d="m38.47,29.67v-.03c0-1.71,1.35-2.55,3.29-2.55.88,0,1.51.14,2.13.33v-.19c0-1.12-.69-1.73-1.96-1.73-.88,0-1.54.2-2.26.5l-.5-1.43c.88-.39,1.74-.64,3-.64,1.18,0,2.07.31,2.62.88.58.57.86,1.41.86,2.45v4.69h-1.77v-.99c-.54.64-1.36,1.15-2.58,1.15-1.49,0-2.82-.86-2.82-2.45Zm5.45-.57v-.54c-.47-.18-1.08-.32-1.8-.32-1.17,0-1.86.5-1.86,1.32v.03c0,.76.67,1.2,1.54,1.2,1.2,0,2.12-.69,2.12-1.7Z"/>
        <path class="cls-3" d="m47.8,24.03h1.83v1.2c.51-.71,1.2-1.37,2.41-1.37,1.14,0,1.95.55,2.37,1.39.63-.84,1.47-1.39,2.67-1.39,1.72,0,2.78,1.1,2.78,3.03v5.05h-1.82v-4.5c0-1.26-.58-1.93-1.6-1.93s-1.7.69-1.7,1.96v4.47h-1.81v-4.51c0-1.23-.6-1.92-1.61-1.92s-1.69.75-1.69,1.96v4.47h-1.83v-7.92Z"/>
        <path class="cls-3" d="m62.07,21.09h1.95v1.72h-1.95v-1.72Zm.06,2.94h1.83v7.92h-1.83v-7.92Z"/>
        <path class="cls-3" d="m66.43,21h1.83v10.95h-1.83v-10.95Z"/>
        <path class="cls-3" d="m76.11,24.03h1.89l-3.15,8.13c-.63,1.63-1.33,2.23-2.61,2.23-.75,0-1.32-.18-1.88-.49l.62-1.34c.33.18.69.3,1.07.3.51,0,.82-.22,1.12-.9l-3.3-7.93h1.95l2.22,5.88,2.07-5.88Z"/>
        <path class="cls-3" d="m83.81,26.73v-.03c0-2.99,2.23-5.43,5.4-5.43,1.95,0,3.12.67,4.12,1.64l-1.18,1.36c-.86-.78-1.74-1.29-2.96-1.29-1.98,0-3.45,1.63-3.45,3.69v.03c0,2.06,1.46,3.72,3.46,3.72,1.29,0,2.12-.51,3.02-1.35l1.18,1.2c-1.09,1.14-2.29,1.86-4.26,1.86-3.08,0-5.34-2.39-5.34-5.4Z"/>
        <path class="cls-3" d="m94.61,29.67v-.03c0-1.71,1.35-2.55,3.29-2.55.88,0,1.51.14,2.13.33v-.19c0-1.12-.69-1.73-1.96-1.73-.88,0-1.54.2-2.26.5l-.5-1.43c.88-.39,1.74-.64,3-.64,1.18,0,2.07.31,2.62.88.58.57.86,1.41.86,2.45v4.69h-1.77v-.99c-.54.64-1.36,1.15-2.58,1.15-1.49,0-2.82-.86-2.82-2.45Zm5.45-.57v-.54c-.47-.18-1.08-.32-1.8-.32-1.17,0-1.86.5-1.86,1.32v.03c0,.76.67,1.2,1.54,1.2,1.2,0,2.12-.69,2.12-1.7Z"/>
        <path class="cls-3" d="m103.94,24.03h1.83v1.21c.51-.74,1.24-1.38,2.47-1.38,1.79,0,2.82,1.2,2.82,3.03v5.05h-1.81v-4.5c0-1.23-.62-1.93-1.7-1.93s-1.78.73-1.78,1.96v4.47h-1.83v-7.92Z"/>
        <path class="cls-3" d="m112.82,28.03v-.03c0-2.25,1.74-4.14,4.12-4.14,1.49,0,2.42.55,3.17,1.37l-1.14,1.21c-.55-.57-1.14-.99-2.04-.99-1.32,0-2.29,1.14-2.29,2.52v.03c0,1.41.97,2.53,2.37,2.53.85,0,1.47-.39,2.05-.97l1.09,1.08c-.78.87-1.69,1.49-3.24,1.49-2.36,0-4.09-1.85-4.09-4.1Z"/>
        <path class="cls-3" d="m121.16,28.02v-.03c0-2.26,1.6-4.12,3.87-4.12,2.52,0,3.79,1.98,3.79,4.26,0,.17-.01.33-.03.51h-5.82c.2,1.29,1.11,2.01,2.28,2.01.88,0,1.51-.33,2.14-.94l1.07.94c-.75.9-1.79,1.49-3.24,1.49-2.29,0-4.06-1.67-4.06-4.11Zm5.86-.58c-.12-1.17-.81-2.08-2.01-2.08-1.11,0-1.89.85-2.05,2.08h4.06Z"/>
        <path class="cls-3" d="m130.64,24.03h1.83v1.78c.5-1.18,1.41-2,2.8-1.93v1.92h-.1c-1.59,0-2.7,1.04-2.7,3.13v3.01h-1.83v-7.92Z"/>
        <path class="cls-3" d="m58.66,39.45h1.84v4.36h5.01v-4.36h1.84v10.5h-1.84v-4.42h-5.01v4.42h-1.84v-10.5Z"/>
        <path class="cls-3" d="m69.88,39.09h1.95v1.72h-1.95v-1.72Zm.06,2.94h1.83v7.92h-1.83v-7.92Z"/>
        <path class="cls-3" d="m73.5,48.91l.81-1.23c.87.64,1.79.97,2.59.97s1.23-.33,1.23-.86v-.03c0-.62-.84-.83-1.77-1.11-1.17-.33-2.47-.81-2.47-2.31v-.03c0-1.51,1.25-2.43,2.82-2.43.99,0,2.07.34,2.91.9l-.72,1.29c-.76-.46-1.58-.75-2.24-.75-.7,0-1.11.34-1.11.78v.03c0,.58.85.83,1.79,1.12,1.15.36,2.46.88,2.46,2.31v.03c0,1.67-1.29,2.49-2.94,2.49-1.12,0-2.37-.39-3.36-1.18Z"/>
        <path class="cls-3" d="m81.88,47.76v-4.17h-1.01v-1.56h1.01v-2.18h1.81v2.18h2.13v1.56h-2.13v3.88c0,.71.36.99.97.99.41,0,.77-.09,1.12-.27v1.48c-.45.26-.94.41-1.63.41-1.33,0-2.28-.58-2.28-2.33Z"/>
        <path class="cls-3" d="m87.01,46.03v-.03c0-2.27,1.8-4.14,4.23-4.14s4.21,1.85,4.21,4.11v.03c0,2.25-1.8,4.12-4.25,4.12s-4.2-1.85-4.2-4.1Zm6.63,0v-.03c0-1.4-1-2.55-2.43-2.55s-2.38,1.14-2.38,2.52v.03c0,1.38,1,2.53,2.42,2.53s2.4-1.14,2.4-2.5Z"/>
        <path class="cls-3" d="m97.29,42.03h1.83v1.78c.5-1.18,1.41-2,2.8-1.93v1.92h-.1c-1.59,0-2.7,1.04-2.7,3.13v3.01h-1.83v-7.92Z"/>
        <path class="cls-3" d="m108.99,42.03h1.89l-3.15,8.13c-.63,1.63-1.33,2.23-2.61,2.23-.75,0-1.32-.18-1.88-.49l.62-1.34c.33.18.69.3,1.06.3.51,0,.83-.22,1.12-.9l-3.3-7.93h1.95l2.22,5.88,2.07-5.88Z"/>
      </g>
    </g>
  </g>
</svg>