<?xml version="1.0" encoding="UTF-8"?>
<svg id="Cards" xmlns="http://www.w3.org/2000/svg" viewBox="0 0 165.48 173.59">
  <defs>
    <style>
      .cls-1 {
        letter-spacing: -.03em;
      }

      .cls-2 {
        fill: none;
        stroke: #282661;
        stroke-miterlimit: 10;
        stroke-width: 2.01px;
      }

      .cls-3 {
        letter-spacing: -.02em;
      }

      .cls-4 {
        letter-spacing: 0em;
      }

      .cls-5 {
        fill: #282661;
        font-family: Gotham-Medium, Gotham;
        font-size: 15px;
        font-weight: 500;
      }

      .cls-6 {
        fill: #f6f7db;
      }

      .cls-6, .cls-7, .cls-8, .cls-9, .cls-10, .cls-11 {
        stroke-width: 0px;
      }

      .cls-7 {
        fill: #644420;
      }

      .cls-8 {
        fill: #59afe0;
      }

      .cls-9 {
        fill: #b4b036;
      }

      .cls-10 {
        fill: #b68150;
      }

      .cls-11 {
        fill: #fcc274;
      }
    </style>
  </defs>
  <path id="Background" class="cls-11" d="m23.43,138.86c-6.61.26-9.87.7-12.25-1.37-1.75-1.53-2.18-3.68-2.45-9.83-.39-8.97,0-15.08,0-15.08.75-11.64,1.13-17.46.49-24.91-.33-3.86-.95-8.38-.49-15.08.4-5.86,1.27-8.22,2.94-10.05,2.01-2.2,4.8-3.22,10.29-4.11,10-1.62,91.34-1.55,92.13-1.6,34.73-2.2,37.61,3.76,38.75,5.26,3.5,4.57,1.72,33.73,2.17,43.18,1.06,22.51,2.2,27.39-1.96,30.62-2.51,1.95-5.14,1.89-13.23,2.06-9.97.21-19.92,1.39-29.89,1.14-18.71-.47-51.83-1.3-69.59-.23-5.62.34-11.28-.22-16.91,0Z"/>
  <rect class="cls-6" x="43.29" y="117.37" width="13.58" height="2.78" rx="1.39" ry="1.39"/>
  <rect class="cls-6" x="106.61" y="117.37" width="13.58" height="2.78" rx="1.39" ry="1.39"/>
  <rect class="cls-6" x="22.03" y="74.41" width="12.41" height="1.51" rx=".75" ry=".75"/>
  <rect class="cls-6" x="27.16" y="75.16" width="1.08" height="13.19" rx=".54" ry=".54"/>
  <rect class="cls-6" x="12.25" y="66.01" width="13.52" height="16.81" rx="6.76" ry="6.76"/>
  <rect class="cls-6" x="29.76" y="66.01" width="13.52" height="16.81" rx="6.76" ry="6.76"/>
  <circle class="cls-6" cx="27.77" cy="94" r="8.76"/>
  <rect class="cls-9" x="14.72" y="68.49" width="8.42" height="12.28" rx="4.21" ry="4.21"/>
  <rect class="cls-9" x="32.31" y="68.49" width="8.42" height="12.28" rx="4.21" ry="4.21"/>
  <circle class="cls-9" cx="27.77" cy="94.09" r="6.7"/>
  <rect class="cls-6" x="55.76" y="74.48" width="12.41" height="1.51" rx=".75" ry=".75"/>
  <rect class="cls-6" x="60.88" y="75.24" width="1.08" height="13.19" rx=".54" ry=".54"/>
  <rect class="cls-6" x="45.98" y="66.08" width="13.52" height="16.81" rx="6.76" ry="6.76"/>
  <rect class="cls-6" x="63.49" y="66.08" width="13.52" height="16.81" rx="6.76" ry="6.76"/>
  <circle class="cls-6" cx="61.49" cy="94.07" r="8.76"/>
  <rect class="cls-9" x="48.44" y="68.56" width="8.42" height="12.28" rx="4.21" ry="4.21"/>
  <rect class="cls-9" x="66.04" y="68.56" width="8.42" height="12.28" rx="4.21" ry="4.21"/>
  <circle class="cls-9" cx="61.49" cy="94.16" r="6.7"/>
  <rect class="cls-6" x="35.22" y="93.09" width="18.95" height="2.66" rx="1.33" ry="1.33"/>
  <rect class="cls-6" x="43.29" y="94.42" width="2.69" height="25.59" rx="1.34" ry="1.34"/>
  <rect class="cls-6" x="96.33" y="74.55" width="12.41" height="1.51" rx=".75" ry=".75"/>
  <rect class="cls-6" x="101.46" y="75.3" width="1.08" height="13.19" rx=".54" ry=".54"/>
  <rect class="cls-6" x="86.55" y="66.14" width="13.52" height="16.81" rx="6.76" ry="6.76"/>
  <rect class="cls-6" x="104.07" y="66.14" width="13.52" height="16.81" rx="6.76" ry="6.76"/>
  <circle class="cls-6" cx="102.07" cy="94.14" r="8.76"/>
  <rect class="cls-9" x="89.02" y="68.63" width="8.42" height="12.28" rx="4.21" ry="4.21"/>
  <rect class="cls-9" x="106.62" y="68.63" width="8.42" height="12.28" rx="4.21" ry="4.21"/>
  <circle class="cls-9" cx="102.07" cy="94.22" r="6.7"/>
  <rect class="cls-6" x="130.06" y="74.62" width="12.41" height="1.51" rx=".75" ry=".75"/>
  <rect class="cls-6" x="135.19" y="75.37" width="1.08" height="13.19" rx=".54" ry=".54"/>
  <rect class="cls-6" x="120.28" y="66.22" width="13.52" height="16.81" rx="6.76" ry="6.76"/>
  <rect class="cls-6" x="137.79" y="66.22" width="13.52" height="16.81" rx="6.76" ry="6.76"/>
  <circle class="cls-6" cx="135.8" cy="94.21" r="8.76"/>
  <rect class="cls-8" x="122.74" y="68.7" width="8.42" height="12.28" rx="4.21" ry="4.21"/>
  <rect class="cls-9" x="140.34" y="68.7" width="8.42" height="12.28" rx="4.21" ry="4.21"/>
  <circle class="cls-8" cx="135.8" cy="94.3" r="6.7"/>
  <rect class="cls-6" x="109.53" y="93.23" width="18.95" height="2.66" rx="1.33" ry="1.33"/>
  <rect class="cls-6" x="117.59" y="94.56" width="2.69" height="25.59" rx="1.34" ry="1.34"/>
  <path class="cls-10" d="m78.45,124.02c-1.01-.65-1.13.68-2.33,0-1.15-.65-1.7-2.78-.83-4.16.31-.48,1.03-1.26,1.83-1.16,1.07.12.93.01,2.04.17.68.09,1.8,1.3,2.11.67.53-1.08-3.82-2.57-4.27-4.82-.09-.44,2.74-1.55,3.27-3.33.87-2.89,3.32-4.38,4.32-4.99.97-.59,1.51-.92,2.33-1,2.62-.25,5.08,2.25,5.49,3.33,2.41,6.32,4.73,14.23,2.5,15.95-2.01,1.56-4.22,2.23-4.5,2.83-.22.48-.9,1.86-.5,3.33.31,1.12,7.43,2.19,7.31,2.83-.18.94-6.66,3.2-6.97,3.49-2.05,1.86-6.98,2.99-8.59,1.05-.46-.55-5.44-2.71-5.66-3.55-.36-1.38,3.22-3.78,3.27-5.15.1-2.9.17-4.85-.83-5.49Z"/>
  <path class="cls-7" d="m80.12,121.19c.69.07,1.4-.55,1.66-1.16.21-.49.15-1.05-.67-2.83-1.17-2.54-1.62-2.65-1.66-3.49-.02-.42.09-1.04,2.33-3.66,3.99-4.67,4.98-1.32,9.29-2.83,1.89-.67,2.09-4.46.41-6.21-2.15-2.24-4.98-3.91-8.2-2.09-1.57.89-.82,1.24-1.66,2-1.22,1.08-2.58.09-4.16,1-.35.2-.95.64-1.83,2.49-1.55,3.27-.98,4.63-2.16,8.65-.78,2.66-1.35,3.16-1.16,4.66.28,2.23,2.28,5.3,2.87,5.16.46-.11-.71-1.12.12-3,.07-.15,1.28-1.33,2.16-1.16,1.38.26,1.46,2.37,2.66,2.49Z"/>
  <path class="cls-8" d="m78.01,131.51c.92-.08,1.69,2.31,2.77,3.14,2.75,2.1,7.61,1.91,8.98-.17.71-1.08.04-1.98.83-2.83.9-.96,2.66-.72,5.15-.17,5.26,1.16,6,.77,7.42,1.86,1.59,1.22,7.93,28.18,4.38,30.89-1.48,1.13-14.55-.9-25.94,0-9.24.73-14.21,2.88-16.29.17-.52-.68-.62-1.95-.83-4.49-.11-1.33.23-24.22,2.71-26.11,3.68-2.81,7.67-2.03,10.81-2.31Z"/>
  <text class="cls-5" transform="translate(28.02 31.77)"><tspan class="cls-1" x="0" y="0">F</tspan><tspan x="9.46" y="0">amily Can</tspan><tspan class="cls-3" x="83.71" y="0">c</tspan><tspan x="92.05" y="0">er</tspan><tspan x="24.41" y="18" xml:space="preserve"> Hi</tspan><tspan class="cls-4" x="44.6" y="18">s</tspan><tspan class="cls-3" x="51.97" y="18">t</tspan><tspan x="57.91" y="18">ory</tspan></text>
  <rect id="Border" class="cls-2" x=".62" y=".82" width="165.04" height="171.59"/>
</svg>