<?xml version="1.0" encoding="UTF-8"?>
<svg id="Cards" xmlns="http://www.w3.org/2000/svg" viewBox="0 0 165.48 173.59">
  <defs>
    <style>
      .cls-1 {
        stroke: #282661;
        stroke-miterlimit: 10;
        stroke-width: 2px;
      }

      .cls-1, .cls-2 {
        fill: none;
      }

      .cls-3 {
        letter-spacing: -.02em;
      }

      .cls-4 {
        fill: #282661;
        font-family: Gotham-Medium, Gotham;
        font-size: 15px;
        font-weight: 500;
      }

      .cls-5 {
        fill: #bdb8db;
      }

      .cls-5, .cls-6 {
        stroke-width: 0px;
      }

      .cls-6 {
        fill: #cf4946;
      }

      .cls-7 {
        letter-spacing: 0em;
      }

      .cls-2 {
        stroke: #ffd24f;
        stroke-linecap: round;
        stroke-linejoin: round;
        stroke-width: 3px;
      }
    </style>
  </defs>
  <path class="cls-5" d="m28.05,64.12c-3.62,6.47-1.84,11.64-1.14,22.97,1.41,22.75-.76,41.73-.76,41.73-.33,2.89-1.04,8.33,1.89,13.4,1.94,3.35,4.92,5.6,8.34,7.27,22.49,11.01,69.51-.35,88.29,0,.98.02,3.76.1,6.44-1.53,5.13-3.12,6.21-10.29,6.82-16.08,1.9-17.93-.81-21.28.38-35.22,1.06-12.36,3.72-15.94,2.27-26.8-1.41-10.6-4.82-13.75-6.44-14.93-5.2-3.79-12.14-1.76-15.16-1.53-25.01,1.91-49.21-4.32-81.85,1.91-4.52.86-7.03,5.11-9.09,8.81Z"/>
  <path class="cls-6" d="m84.25,78.8c-.54-1.01-1.73-3.08-3.83-5.24-4.79-4.91-14.41-10.32-23.37-6.85-7.81,3.02-11.29,11.05-11.68,13.9-2.82,20.15,6.97,36.77,26.79,55.6,4.03,3.83,8.32,5.11,9.07,5.04,7.72-.71,13.5-42.88,3.02-62.45Z"/>
  <path class="cls-6" d="m77.85,78.8c.54-1.01,1.73-3.08,3.83-5.24,4.79-4.91,14.41-10.32,23.37-6.85,7.81,3.02,11.29,11.05,11.68,13.9,2.82,20.15-6.97,36.77-26.79,55.6-4.03,3.83-8.32,5.11-9.07,5.04-7.72-.71-13.5-42.88-3.02-62.45Z"/>
  <path class="cls-2" d="m37.41,112.42c13.58.1,22.22.5,25.66.4.62-.02,2.85.4,4.5-.81,1.16-.85,4.78-11.18,8.11-17.12.92-1.64,1.71-2.9,2.65-2.82,1.02.09,1.7,1.7,2.12,2.82,2.54,6.79,3.4,16.58,4.41,22.77.14.87.44,2.61.88,2.62.21,0,.5-.36,1.06-2.82.6-2.65,1.44-7.47,2.12-10.48.11-.49.34-1.45,1.06-2.01.68-.54,4.71-.26,9.56-.26,2.62,0,1.29,8.33,1.87,8.31,11.46-.28,16.62-.3,24.55-.2"/>
  <text class="cls-4" transform="translate(42.39 32.6)"><tspan x="0" y="0">Heart R</tspan><tspan class="cls-7" x="56.97" y="0">a</tspan><tspan class="cls-3" x="65.7" y="0">t</tspan><tspan x="71.64" y="0">e</tspan></text>
  <rect id="Border" class="cls-1" x="1" y="1" width="163.48" height="171.59"/>
</svg>