<?xml version="1.0" encoding="UTF-8"?>
<svg id="Layer_2" data-name="Layer 2" xmlns="http://www.w3.org/2000/svg" viewBox="0 0 165.48 173.59">
  <defs>
    <style>
      .cls-1 {
        fill: #fff;
        stroke: #282661;
        stroke-miterlimit: 10;
        stroke-width: 2px;
      }

      .cls-2 {
        fill: #282661;
      }

      .cls-2, .cls-3, .cls-4 {
        stroke-width: 0px;
      }

      .cls-3 {
        fill: #bdb8db;
      }

      .cls-4 {
        fill: #cf4946;
      }

      .cls-5 {
        fill: none;
        stroke: #ffd24f;
        stroke-linecap: round;
        stroke-linejoin: round;
        stroke-width: 3px;
      }
    </style>
  </defs>
  <g id="Cards_Updated_Copy_Outlined_" data-name="Cards (Updated | Copy Outlined)">
    <g>
      <rect id="Border" class="cls-1" x="1" y="1" width="163.48" height="171.59" rx="18" ry="18"/>
      <path class="cls-3" d="m28.05,64.12c-3.62,6.47-1.84,11.64-1.14,22.97,1.41,22.75-.76,41.73-.76,41.73-.33,2.89-1.04,8.33,1.89,13.4,1.94,3.35,4.92,5.6,8.34,7.27,22.49,11.01,69.51-.35,88.29,0,.98.02,3.76.1,6.44-1.53,5.13-3.12,6.21-10.29,6.82-16.08,1.9-17.93-.81-21.28.38-35.22,1.06-12.36,3.72-15.94,2.27-26.8-1.41-10.6-4.82-13.75-6.44-14.93-5.2-3.79-12.14-1.76-15.16-1.53-25.01,1.91-49.21-4.32-81.85,1.91-4.52.86-7.03,5.11-9.09,8.81Z"/>
      <path class="cls-4" d="m84.25,78.8c-.54-1.01-1.73-3.08-3.83-5.24-4.79-4.91-14.41-10.32-23.37-6.85-7.81,3.02-11.29,11.05-11.68,13.9-2.82,20.15,6.97,36.77,26.79,55.6,4.03,3.83,8.32,5.11,9.07,5.04,7.72-.71,13.5-42.88,3.02-62.45Z"/>
      <path class="cls-4" d="m77.85,78.8c.54-1.01,1.73-3.08,3.83-5.24,4.79-4.91,14.41-10.32,23.37-6.85,7.81,3.02,11.29,11.05,11.68,13.9,2.82,20.15-6.97,36.77-26.79,55.6-4.03,3.83-8.32,5.11-9.07,5.04-7.72-.71-13.5-42.88-3.02-62.45Z"/>
      <path class="cls-5" d="m37.41,112.42c13.58.1,22.22.5,25.66.4.62-.02,2.85.4,4.5-.81,1.16-.85,4.78-11.18,8.11-17.12.92-1.64,1.71-2.9,2.65-2.82,1.02.09,1.7,1.7,2.12,2.82,2.54,6.79,3.4,16.58,4.41,22.77.14.87.44,2.61.88,2.62.21,0,.5-.36,1.06-2.82.6-2.65,1.44-7.47,2.12-10.48.11-.49.34-1.45,1.06-2.01.68-.54,4.71-.26,9.56-.26,2.62,0,1.29,8.33,1.87,8.31,11.46-.28,16.62-.3,24.55-.2"/>
      <g>
        <path class="cls-2" d="m43.74,22.11h1.84v4.36h5.01v-4.36h1.84v10.5h-1.84v-4.42h-5.01v4.42h-1.84v-10.5Z"/>
        <path class="cls-2" d="m54.49,28.67v-.03c0-2.26,1.6-4.12,3.87-4.12,2.52,0,3.79,1.98,3.79,4.26,0,.17-.01.33-.03.51h-5.82c.2,1.29,1.11,2.01,2.28,2.01.88,0,1.51-.33,2.14-.95l1.07.95c-.75.9-1.79,1.49-3.24,1.49-2.29,0-4.06-1.67-4.06-4.11Zm5.86-.58c-.12-1.17-.81-2.08-2.01-2.08-1.11,0-1.89.86-2.05,2.08h4.06Z"/>
        <path class="cls-2" d="m63.45,30.33v-.03c0-1.71,1.35-2.55,3.28-2.55.89,0,1.52.13,2.13.33v-.2c0-1.12-.69-1.72-1.96-1.72-.88,0-1.54.19-2.26.5l-.5-1.43c.88-.39,1.74-.64,3-.64,1.18,0,2.07.32,2.62.88.58.57.85,1.41.85,2.45v4.69h-1.77v-.99c-.54.64-1.37,1.15-2.58,1.15-1.48,0-2.82-.85-2.82-2.44Zm5.44-.57v-.54c-.46-.18-1.08-.32-1.8-.32-1.17,0-1.86.5-1.86,1.32v.03c0,.76.68,1.2,1.54,1.2,1.2,0,2.12-.69,2.12-1.7Z"/>
        <path class="cls-2" d="m72.78,24.68h1.83v1.79c.5-1.18,1.41-2,2.8-1.93v1.92h-.1c-1.59,0-2.7,1.04-2.7,3.13v3.01h-1.83v-7.92Z"/>
        <path class="cls-2" d="m79.36,30.41v-4.17h-1v-1.56h1v-2.17h1.82v2.17h2.13v1.56h-2.13v3.88c0,.71.36.99.97.99.41,0,.76-.09,1.12-.27v1.49c-.45.25-.95.4-1.63.4-1.33,0-2.28-.58-2.28-2.32Z"/>
        <path class="cls-2" d="m89.86,22.11h4.68c1.32,0,2.36.39,3.03,1.05.55.57.87,1.35.87,2.26v.03c0,1.72-1.04,2.76-2.49,3.18l2.83,3.97h-2.19l-2.58-3.66h-2.31v3.66h-1.84v-10.5Zm4.54,5.2c1.32,0,2.16-.69,2.16-1.75v-.03c0-1.12-.81-1.74-2.17-1.74h-2.69v3.52h2.7Z"/>
        <path class="cls-2" d="m99.96,30.33v-.03c0-1.71,1.35-2.55,3.29-2.55.88,0,1.51.13,2.13.33v-.2c0-1.12-.69-1.72-1.96-1.72-.88,0-1.54.19-2.26.5l-.5-1.43c.88-.39,1.74-.64,3-.64,1.18,0,2.07.32,2.62.88.58.57.86,1.41.86,2.45v4.69h-1.77v-.99c-.54.64-1.37,1.15-2.58,1.15-1.49,0-2.82-.85-2.82-2.44Zm5.45-.57v-.54c-.47-.18-1.08-.32-1.8-.32-1.17,0-1.86.5-1.86,1.32v.03c0,.76.67,1.2,1.54,1.2,1.2,0,2.12-.69,2.12-1.7Z"/>
        <path class="cls-2" d="m109.6,30.41v-4.17h-1.01v-1.56h1.01v-2.17h1.81v2.17h2.13v1.56h-2.13v3.88c0,.71.36.99.97.99.41,0,.77-.09,1.12-.27v1.49c-.45.25-.94.4-1.63.4-1.33,0-2.28-.58-2.28-2.32Z"/>
        <path class="cls-2" d="m114.73,28.67v-.03c0-2.26,1.6-4.12,3.87-4.12,2.52,0,3.79,1.98,3.79,4.26,0,.17-.01.33-.03.51h-5.82c.2,1.29,1.11,2.01,2.28,2.01.88,0,1.51-.33,2.14-.95l1.07.95c-.75.9-1.79,1.49-3.24,1.49-2.29,0-4.06-1.67-4.06-4.11Zm5.86-.58c-.12-1.17-.81-2.08-2.01-2.08-1.11,0-1.89.86-2.05,2.08h4.06Z"/>
      </g>
    </g>
  </g>
</svg>