<?xml version="1.0" encoding="UTF-8"?>
<svg id="Layer_2" data-name="Layer 2" xmlns="http://www.w3.org/2000/svg" viewBox="0 0 165.48 173.59">
  <defs>
    <style>
      .cls-1 {
        fill: none;
        stroke: #58595b;
        stroke-linecap: round;
        stroke-linejoin: round;
      }

      .cls-2 {
        stroke: #282661;
        stroke-miterlimit: 10;
        stroke-width: 2px;
      }

      .cls-2, .cls-3 {
        fill: #fff;
      }

      .cls-4 {
        fill: #f3f3f4;
      }

      .cls-4, .cls-5, .cls-6, .cls-7, .cls-8, .cls-9, .cls-10, .cls-11, .cls-12, .cls-13, .cls-3, .cls-14, .cls-15 {
        stroke-width: 0px;
      }

      .cls-5 {
        fill: #282661;
      }

      .cls-6 {
        fill: #a2d6f3;
      }

      .cls-7 {
        fill: #272660;
      }

      .cls-8 {
        fill: #d95b5b;
      }

      .cls-9 {
        fill: #ab5e43;
      }

      .cls-10 {
        fill: #fdddc0;
      }

      .cls-11 {
        fill: #699eb6;
      }

      .cls-12 {
        fill: #7dc79d;
      }

      .cls-13 {
        fill: #825444;
      }

      .cls-14 {
        fill: #ffda77;
      }

      .cls-15 {
        fill: #00537b;
      }
    </style>
  </defs>
  <g id="Cards_Updated_Copy_Outlined_" data-name="Cards (Updated | Copy Outlined)">
    <g>
      <rect id="Border" class="cls-2" x="1" y="1" width="163.48" height="171.59" rx="18" ry="18"/>
      <path class="cls-12" d="m39.99,73.3c.59-1.5,9.47-2.94,15.25-8.82,5.18-5.26,8.72-7.77,10.22-8.53,5.72-2.91,4.86-1.95,20.32-1,10.45.64,12.76-2.61,16.24-.04,2.53,1.87,4.3,5.05,7.85,11.42,1.93,3.47,3.75,7.14,4.55,9.04,6.06,14.41.82,26.75,1.61,52.89.16,5.18,14.14,21.18,6.24,24.87-10.14,4.74-8.83-.99-26.95,4.49-5.83,1.77-7.64-6.3-17.46-8.04-7.7-1.37-22.13,7.39-28.31,5.63-1.34-.38-7.02-5.51-5.96-16.95.18-1.96,2.54-5.58,3.83-20.71,1.31-15.47-2.95-14.18-3.37-20.14-.99-14.22-7.21-16.1-4.04-24.11Z"/>
      <path class="cls-3" d="m56.04,141.9c-.54.15-2.46,1.3-6.28,3.61-.66.4-1.17.71-1.26,1.26-.19,1.17,1.69,2.8,3.61,3.14,1.48.26,2.82-.45,5.49-1.88,3.35-1.79,3.89-2.94,4.08-3.45.13-.36.61-1.66,0-2.51-1.03-1.44-4.4-.5-5.65-.16Z"/>
      <path class="cls-4" d="m64.51,140.49c1.46.43,3.01-.26,3.77-1.26,1.71-2.27-.22-6.8-2.35-7.06-1.77-.22-4.22,2.43-3.92,5.02.14,1.17.89,2.81,2.51,3.3Z"/>
      <path class="cls-7" d="m46.11,79.44c-.84-.18-2.29-.47-3.06-1.65-1-1.53-.35-3.8.12-5.41.23-.79.5-1.74,1.18-2.82,1.62-2.6,3.31-2.43,4.12-4.36.7-1.65-.38-2.17,0-4.36.64-3.66,4.29-5.67,4.47-5.77,2.26-1.21,5.64-1.73,7.89-.24.42.28.33.32,3.06,3.3,2.21,2.42,2.18,2.29,2.35,2.59,1.28,2.21-.1,3.55.24,7.77.21,2.62.99,5.23,1.29,6.24.77,2.55,1.46,3.83.82,5.06-.56,1.08-1.8,1.5-2.82,1.77-5.4,1.43-9.41.02-19.66-2.12Z"/>
      <path class="cls-13" d="m52.59,64.96c.74-2.86-.37-3.7.47-5.3.73-1.4,2.33-2.18,3.65-2.35,2.92-.39,4.93,2.11,5.41,2.71.39.48,2.35,2.91,1.53,4.59-.69,1.43-1.74,3.18-5.18,3.18-.87,0-1.15,1.07-1.41,1.88-.53,1.64.62,2.57.12,3.65-.66,1.42-3.75,2.16-5.3.82-.98-.85-1.62-.86-1.65-1.53-.02-.54.63-2.51,1.29-4.59.72-2.25.83-2.16,1.06-3.06Z"/>
      <path class="cls-11" d="m51.41,97.82c-1.63.63-1.5,10.59.12,18.58.43,2.13,1.07,4.72,2.35,9.89,1.94,7.83,2.69,10.11,4.71,10.95.35.14,2.08.1,5.53,0,3.26-.09,4.07-.21,4.71-.82.99-.96,1-2.61.71-4.47-.66-4.24-2.38-6.44-4.94-11.18-3.3-6.11-4.96-9.16-5.06-12.12-.1-2.75.58-5.09-.82-6.12-1.16-.86-2.42.18-4.94-.59-2.49-.75-1.61-4.39-2.35-4.1Z"/>
      <path class="cls-6" d="m52.94,100.53c-.02.07.05.14.07.16.77.85,2.08,6.11,2.52,9.05.98,6.53-.35,13.45-.35,13.45-.65,3.39-2.36,9.91-2.47,15.15-.01.58-.02,1.64.59,2.67.42.71,1.15,1.43,5.53,2.79,4.06,1.26,4.74,1.05,5.18.73,1.04-.77,1.06-2.45,1.06-3.39-.01-6.63-.02-9.95-.35-12.73-.7-5.81-1.45-11.99.59-18.3.38-1.18,1.69-4.93.59-8.73-.45-1.56-1.01-2.1-1.53-2.3-1.28-.5-2.1,1.14-4.47,1.82-3.31.94-6.82-.81-6.94-.36Z"/>
      <path class="cls-13" d="m46.56,73.39c-1.56,2.48-1.09,6.94-.8,11.7.34,5.64.5,8.47-.59,11.77-.87,2.63-2.18,4.62-1.29,6.94.38,1,1.22,2.2,2,2.12.71-.08,1.37-1.23,2.12-5.18.97-5.14,1.77-7.9,2.25-14.78.22-3.17-1.09-5.47-.84-8.64.14-1.85.33-3.59-.35-3.88-.7-.3-1.72-1.26-2.49-.04Z"/>
      <path class="cls-13" d="m58.91,72.79c-.93.38,1.85,5.61,2.5,11.47.58,5.24.48,8.78,1.18,14.95,0,0-.84-1.18.29,2.99.52,1.94,1.64,2.99,1.95,3.01.73.05,1.82-.5,2.12-2.94.35-2.85-.38-4.03-1.06-8-.4-2.37-.54-4.68-.82-9.3-.23-3.77-.64-7.77-2.18-9.98-.58-.84-3.26-2.49-3.97-2.2Z"/>
      <path class="cls-15" d="m48.31,84.19c-.58-1.96-1.49-4.88-1.14-7.7.1-.8-.32-3.61.24-4.12.9-.83,3.05-1.34,3.53-.24.27.62,4.75,1.77,5.65.12.78-1.43,3.08,1.16,3.77,2.24.84,1.32,1.74,2.76,1.71,3.41-.08,1.37-.58,10.43,1.41,17.19.42,1.44.07,3.13-.76,4.59-.71,1.24-2.12,1.67-3.3,2-2.94.84-7.76.9-9.3-1.65-.45-.74-.24-1.08-.24-3.88,0-1.71,0-5.61-.82-9.42-.02-.1.26.84-.75-2.54Z"/>
      <path class="cls-10" d="m97.78,125.34c-1.35,2.46-.51,6.87-.82,11.18-.32,4.4-1.19,6.14.12,7.77.09.12,1.05,1.28,1.88,1.06,1.02-.27,1-2.37,1.53-5.65,1.02-6.38,3.13-12.58,1.87-15.62-.18-.44-1.05-.51-2.06-.55-.93-.04-2.17,1.19-2.51,1.8Z"/>
      <path class="cls-10" d="m107.04,124.95c-.97,2.12.57,7.5,1.22,12.28.56,4.15.65,7.79,1.71,8.13.6.19,1.18.36,1.55,0,1.06-1.04.33-4.81.16-7.89-.23-4.03.63-6.8-.39-9.85-.71-2.13-1.35-.73-1.49-.75-.94-.08-2.63-2.19-2.75-1.92Z"/>
      <path class="cls-3" d="m97.39,143.18c-1.76-.68-4.26-.21-5.11.66-.38.39-.45.42-.38,1.04.13,1.2,6.94,2.28,7.53.94.51-1.16-.44-2.02-2.04-2.64Z"/>
      <path class="cls-3" d="m109.24,143.86c-.66.82-1.59,1.89-.47,2.2,3.74,1.02,8.03.33,8.08-.47.07-1.06-2.4-2.13-4.36-2.35-.96-.11-2.68-.09-3.26.63Z"/>
      <path class="cls-8" d="m99.08,115.22c-1.51.93-.09-.49-1.61,4.47-.62,2.02-1.12,6.57-.75,7.66.69,2.04,3.94,3.41,5.41,2.47,1.6-1.01.7-4.47,2-4.83.55-.15,1.13.35,1.41.59,0,0-.54,3.18.38,4.32,1.04,1.28,4.8.97,5.86.04.75-.66.14-4.14-.43-8.34-.78-5.8-.31-4.59-1.45-5.32-1.17-.75-1.88.21-4.94,0-3.71-.25-4.69-1.8-5.89-1.06Z"/>
      <path class="cls-10" d="m97.71,96.18c-1.98,4.23-2.03,6.57-4.28,12.45-1.32,3.46-3.38,5.22-2.59,7.89.07.24.5,1.68,1.29,1.77.97.11,1.74-1.89,4.24-7.3,2.1-4.56,2.83-5.88,3.27-8.46.33-1.95.71-4.33-.56-5.31-.85-.65-.85-2.15-1.37-1.03Z"/>
      <path class="cls-10" d="m107.83,98.43c-.55,1.91,2.4,5.22,5.85,11.97,2.81,5.5,3.83,7.32,5.3,7.3.64-.01,1.35-.38,1.65-.94.65-1.23-.99-2.73-2.59-5.65-1.57-2.86-3.05-7.38-4.32-10.86-1.04-2.87-1.95-2.97-2.67-3.26-.89-.36-2.72-.29-3.22,1.44Z"/>
      <path class="cls-14" d="m101.79,93.33c-1.4-1.18-3.45.78-6.24,2.82-.56.41.18,1.27.47,1.88.76,1.61,2.37,1.91,2.59,2.94,1.14,5.35,1.35,7.25,1.14,8.04-.47,1.77-2.25,6.59-1.96,7.38,1.04,2.81,11.34,4.73,13.65,1.89.27-.34-1.03-7.02-.96-9.98.17-6.85-.12-3.54.14-7.44.13-2.04,2.89-1.83,2.82-3.06-.02-.32-.16-.76-3.18-2.94-2.51-1.81-3.02-1.95-3.41-1.77-.89.41-.39,2.07-1.41,2.59-.8.4-2.03-.14-2.7-.82-.67-.67-.47-1.13-.95-1.54Z"/>
      <path class="cls-10" d="m101.32,90.15c-3.77-4.47.41-9.1.59-9.3.58-.63,2-2.17,4.24-2.24,3.02-.08,4.8,2.61,4.94,2.82,1.41,2.21,1.39,5.38-.12,6.94-1.68,1.74-2.9,1.32-3.53,2.94-.38.99-.71,2.68-1.26,3.83-.43.91-1.67,1.21-2.67.92-1.06-.31-1.71-2.67-1.73-2.75-.33-1.46.42-2.12-.47-3.18Z"/>
      <path class="cls-9" d="m102.25,80.49c.2,1.1,2.65.43,4.72,2.36,1.87,1.74,1.25,5.85,2.76,6.14.68.13,2-1.11,2.4-1.59,1.14-1.38.39-5.26-1.94-7.04-.86-.66-2.37-2.69-4.63-2.45-1.74.19-3.48,1.61-3.31,2.58Z"/>
      <polyline class="cls-1" points="40.92 56.88 40.92 52.82 81.34 52.28"/>
      <line class="cls-1" x1="81.75" y1="46.36" x2="83.02" y2="148.65"/>
      <polyline class="cls-1" points="82.62 75.68 121.48 75.68 121.48 79.46"/>
      <line class="cls-1" x1="82.62" y1="128.84" x2="75.5" y2="128.84"/>
      <line class="cls-1" x1="82.52" y1="114.79" x2="77.49" y2="114.79"/>
      <line class="cls-1" x1="82.13" y1="100.41" x2="75.5" y2="100.41"/>
      <line class="cls-1" x1="81.69" y1="86.94" x2="77.49" y2="86.94"/>
      <line class="cls-1" x1="81.78" y1="64.48" x2="75.5" y2="64.48"/>
      <g>
        <path class="cls-5" d="m58.95,21.38h1.84v4.36h5.01v-4.36h1.84v10.5h-1.84v-4.42h-5.01v4.42h-1.84v-10.5Z"/>
        <path class="cls-5" d="m69.7,27.95v-.03c0-2.27,1.6-4.12,3.87-4.12,2.52,0,3.79,1.98,3.79,4.26,0,.17-.01.33-.03.51h-5.82c.2,1.29,1.11,2.01,2.28,2.01.88,0,1.51-.33,2.14-.95l1.07.95c-.75.9-1.79,1.49-3.24,1.49-2.29,0-4.06-1.67-4.06-4.11Zm5.86-.58c-.12-1.17-.81-2.09-2.01-2.09-1.11,0-1.89.86-2.05,2.09h4.06Z"/>
        <path class="cls-5" d="m79.23,21.02h1.95v1.72h-1.95v-1.72Zm.06,2.94h1.83v7.92h-1.83v-7.92Z"/>
        <path class="cls-5" d="m83.47,33.36l.67-1.36c.86.52,1.74.82,2.82.82,1.62,0,2.5-.82,2.5-2.41v-.6c-.66.84-1.49,1.44-2.79,1.44-1.88,0-3.6-1.38-3.6-3.71v-.03c0-2.34,1.75-3.72,3.6-3.72,1.33,0,2.16.62,2.78,1.35v-1.19h1.81v6.3c0,1.33-.34,2.32-1,2.98-.72.72-1.83,1.06-3.25,1.06-1.3,0-2.52-.33-3.54-.94Zm6.01-5.83v-.03c0-1.29-1.06-2.16-2.32-2.16s-2.25.86-2.25,2.16v.03c0,1.29,1,2.18,2.25,2.18s2.32-.89,2.32-2.18Z"/>
        <path class="cls-5" d="m93.54,20.93h1.83v4.25c.51-.74,1.24-1.38,2.47-1.38,1.79,0,2.82,1.2,2.82,3.03v5.05h-1.81v-4.5c0-1.23-.62-1.93-1.7-1.93s-1.78.73-1.78,1.96v4.47h-1.83v-10.95Z"/>
        <path class="cls-5" d="m103.23,29.69v-4.17h-1v-1.56h1v-2.17h1.82v2.17h2.13v1.56h-2.13v3.88c0,.71.36.99.97.99.41,0,.76-.09,1.12-.27v1.48c-.45.25-.95.4-1.63.4-1.33,0-2.28-.58-2.28-2.32Z"/>
      </g>
    </g>
  </g>
</svg>