<?xml version="1.0" encoding="UTF-8"?>
<svg id="Cards" xmlns="http://www.w3.org/2000/svg" viewBox="0 0 165.48 173.59">
  <defs>
    <style>
      .cls-1 {
        stroke: #808184;
      }

      .cls-1, .cls-2, .cls-3 {
        stroke-linecap: round;
        stroke-linejoin: round;
      }

      .cls-1, .cls-4 {
        fill: none;
      }

      .cls-2, .cls-3 {
        fill: #f3f3f4;
        stroke: #58595b;
      }

      .cls-5 {
        letter-spacing: -.03em;
      }

      .cls-6 {
        fill: #231f20;
        font-family: Gotham-Light, Gotham;
        font-size: 6.02px;
        font-weight: 300;
      }

      .cls-4 {
        stroke: #282661;
        stroke-width: 2px;
      }

      .cls-4, .cls-7 {
        stroke-miterlimit: 10;
      }

      .cls-8 {
        letter-spacing: -.01em;
      }

      .cls-9 {
        letter-spacing: -.02em;
      }

      .cls-3 {
        stroke-width: .25px;
      }

      .cls-10 {
        fill: #282661;
        font-family: Gotham-Medium, Gotham;
        font-size: 15px;
        font-weight: 500;
      }

      .cls-11 {
        fill: #faaf40;
      }

      .cls-11, .cls-12, .cls-13, .cls-14, .cls-15, .cls-16, .cls-17, .cls-18 {
        stroke-width: 0px;
      }

      .cls-12 {
        fill: #282560;
      }

      .cls-13 {
        fill: #6ecbf3;
      }

      .cls-14 {
        fill: #41a3d4;
      }

      .cls-15 {
        fill: #ab5e44;
      }

      .cls-16 {
        fill: #9994c8;
      }

      .cls-17 {
        fill: #ead3b4;
      }

      .cls-18 {
        fill: #f5f7f9;
      }

      .cls-7 {
        fill: #c3ccd4;
        stroke: #a6a8ab;
        stroke-width: .75px;
      }
    </style>
  </defs>
  <path class="cls-17" d="m28.76,149.28c-1.23-1.29-1.39-2.61-1.58-5.56-.43-6.42-.65-9.63-.45-12.22.73-9.77-1.09-10.89-.23-23.81.3-4.43.73-7.51,3.85-10.32,3.24-2.92,7.76-4.1,9.73-4.6,5.37-1.36,9.5-.97,14.94-.79,7.24.23,14.48-.46,21.73-.63,14.98-.37,33.25-1.07,46.4.48,2.16.26,6.39.83,10.41,3.02,1.18.64,3.82,2.22,5.66,4.76,2.9,4,2.12,8.07,1.81,9.84-1.5,8.68-3.78,32.88-.23,40.32.26.55,1.26,2.47,0,3.49-1.44,1.17-5.04.5-6.11.32-9.53-1.62-19.63.35-29.42,0-10.97-.39-40.97-.92-61.11-.79-3.49.02-11.96.09-15.39-3.49Z"/>
  <path class="cls-18" d="m44.06,142.63c-.25.55,1.95,1.76,1.83,3.47-.02.35-.22,1.22-3.62,3.02-3.54,1.87-6.49,2.13-6.47,2.57.04.84,8.67,1.09,14.32,1.36,9.5.45,19,.19,28.52.32,6.67.09,7.69.64,11.77.26,1.35-.12-.47-4.42-2.57-9.03-1.1-2.42-1.66-3.64-2.24-4.05-2.64-1.86-6.06.19-14.06,2.26-3.42.88-7.61,1.97-12.95,1.53-4.68-.38-8.93-.49-8.93-.49-3.13-.74-5.35-1.75-5.6-1.21Z"/>
  <path class="cls-16" d="m58.62,94.86c-1.09-.43-2.92,2.06-6.52,7.31-2.49,3.64-2.13,6.43-1.99,7.27.5,2.91,1.33,3.53,1.21,5.73-.15,2.55-1.4,4.06-2.72,6.19-4.77,7.68-5.36,15.27-4.98,19.62.19,2.14.55,2.73.75,3.02,1.36,1.9,4.31,2.24,15.99,1.06,2.21-.22,5.1-.54,11.17-1.36,11.73-1.59,13.27-2.08,14.49-3.62,2.45-3.12,1.54-7.99,1.06-10.56-1.13-6.03-4.53-9.37-3.02-11.32.33-.42.65-.47,3.32-1.06,6.93-1.51,8.23-1.92,8.6-2.87.34-.86-.31-1.6-1.36-3.47-3.28-5.86-2.09-7.87-4.53-10.56-.94-1.04-3.1-1.86-7.39-3.47-11.17-4.18-11.02-3.25-11.57-2.63-.98,1.11-4.24,1.3-6-1-1.49-1.95-5.66,2.06-6.52,1.72Z"/>
  <path id="R" class="cls-12" d="m72.66,83.26c2.23,1.91,2.52,3.12,2.34,3.89-.25,1.11-1.44,1.13-1.87,2.47-.49,1.5.82,2.1.74,4.32-.06,1.87-1.01,2.15-.7,3.56.31,1.43,1.39,1.63,1.34,2.75-.05,1.24-1.38,1.35-1.56,2.59-.21,1.45,1.53,1.92,1.94,4.2.08.47,0,1.23-.18,2.75-.36,3.19-.68,3.25-.61,4.46.09,1.51.72,4.01,2.44,4.6.79.27,1.91.19,2.24-.38.48-.82-1.25-1.75-1.3-3.81-.04-1.51.87-2.06.43-3.23-.35-.93-1.04-.88-1.23-1.69-.28-1.15,1.02-1.6,1.35-3.17.42-2.01-1.4-2.79-.94-4.76.34-1.47,1.44-1.46,1.54-2.74.13-1.7-1.78-2.17-1.76-3.92.02-1.67,1.77-2.09,1.6-3.65-.14-1.27-1.34-1.37-1.49-2.73-.15-1.29.9-1.62,1.05-3.14.15-1.51-1.61-6.11-3.2-6.43-1.09-.22-1.35,2.89-2.17,4.06Z"/>
  <path class="cls-12" d="m63.28,87.45c-1.24-.25-2.18.83-3.11,2.07-.99,1.31-1.04,1.66-1.27,3.31-.19,1.34-.78,2.34-1.15,2.96-1.11,1.88-1.97,1.94-2.05,3.02-.1,1.27,1.03,1.86.65,2.68-.36.77-1.52.52-1.87,1.35-.25.6.29.9.29,1.95,0,1.21-.72,1.35-.87,2.63-.16,1.38.62,1.67.35,2.7-.32,1.2-1.47,1.15-1.95,2.26-.75,1.72.82,4.58,1.99,4.55.82-.02,1.55-1.45,1.78-2.55.39-1.87-.71-2.65-.13-3.92.58-1.28,1.92-.99,2.27-2.13.42-1.41-1.44-2.45-.89-3.87.29-.74,1.25-1.6,1.25-1.6h0s1.34-1.27,1.19-2.36c-.11-.79-.94-.95-.86-1.45.11-.71,1.77-.51,2.31-1.53.44-.83-.4-1.43-.02-2.42.41-1.11,1.62-.81,2.43-1.99,1-1.45,1.67-4.16,1.51-4.6-.26-.73-.82-.83-1.83-1.04Z"/>
  <path class="cls-15" d="m60.16,87.81c1.12,1.11,1.76,1.55,3.69,2.95.52.37.15,1.05-.12,2.43-.59,3.04-.88,3.69-.66,4.3.66,1.78,3.64,2.03,5.33,2.19,1.47.14,2.88.44,4.04-1.33.16-.24,1.2-.57,1.21-3.65.01-3.43,3.34-4.98,4.81-6.05,2.68-1.95,3.04-7.44,2.57-10.3-.79-4.74-4.67-9.26-9.27-9.77-3.42-.38-6.25,1.57-8.63,3.2-1.83,1.25-3.04,2.08-3.86,3.76-1.42,2.89-2.33,4.22-1.39,7.58.54,1.94,1.9,4.33,2.28,4.7Z"/>
  <path class="cls-12" d="m69.56,71.72c.84.17.56,2.32,1.32,5.11,1.12,4.16,3.63,6.42,6.49,9,.8.72,1.4,1.17,2.13,1.11,1.7-.15,2.91-3,3.27-4.97.76-4.22-1.58-9.28-5.74-11.73-2.18-1.29-4.62-1.45-6.27-1.6-1.53-.14-3.11-.27-5.03.21-4,1-6.79,4.01-7.86,6.88-.27.73-.7,1.91-.19,2.45.82.87,3.53-.46,4.71-1.04,1.2-.59,3.24-1.59,5.25-3.69,1.08-1.13,1.43-1.82,1.93-1.72Z"/>
  <path class="cls-15" d="m52.37,126.94c-1.34-1.72-4.29-4.12-7.24-3.17-.14.05-2.44.83-2.87,2.72-.53,2.35,2.26,4.66,4.22,5.58,2.56,1.2,6.44,1.34,7.39-.45.87-1.63-1.07-4.12-1.51-4.68Z"/>
  <path class="cls-15" d="m87.99,127.66c-2.3,1.57-1.72,3.47-6.94,8.78-3.68,3.73-5.51,5.6-7.01,6.9-3.05,2.66-4.89,3.83-4.61,5.17.32,1.5,3.06,2.06,3.32,2.11,1.69.33,4.27.2,11.17-4.98,6.01-4.51,9.88-8.79,12.83-13.58,2.6-4.23,1.5-8.22,1.28-8.52-1.15-1.58-5.99,1.36-10.03,4.11Z"/>
  <path class="cls-1" d="m98.02,122.91c.53.02,2.98,4.67,3.66,5.39,3.15,3.33-.19,11.89,6.88,12.75,1.57.19,3.15-.3,4.43-1.24l2.06-1.51"/>
  <path class="cls-1" d="m93.75,123.23c10.32-7.67,13.34,8.4,18.06,7.83,7.15-.87,6.81-8.9,7.15-8.84"/>
  <path class="cls-14" d="m86.93,116.13c3.86-1.06,4.96-1.4,7.56-1.93.95-.2,4.11-.93,4.95.62,1.16,2.14,1.45,4.37,1.95,5.76,1.55,4.37-.2,5.53-4.21,6.45-6.43,1.47-11.43,5.15-13.05-3.23-1.78-9.19-.35-6.8,2.81-7.67Z"/>
  <path class="cls-13" d="m83.75,121.76c3.66-.58,5.87-.53,9.05-1.45,3.93-1.14,3.6-.62,7.33-2.62,1.1-.59,1.82,2.21,1.45,3.44-.41,1.36-1.97,1.63-7.67,3.24-6.09,1.72-9.08,2.87-9.76,1.43-.95-2.03-1.5-3.86-.4-4.03Z"/>
  <rect class="cls-2" x="108.78" y="97.81" width="20.24" height="24.12" rx="2.35" ry="2.35"/>
  <text class="cls-6" transform="translate(113.72 106.95) scale(1.03 1)"><tspan x="0" y="0">145</tspan></text>
  <text class="cls-6" transform="translate(115.12 116.73) scale(1.03 1)"><tspan x="0" y="0">90</tspan></text>
  <line class="cls-3" x1="112.53" y1="110.22" x2="125.27" y2="110.22"/>
  <path class="cls-7" d="m115.05,138.7c-.14-1.46,1.5-2.69,2.62-3.2,1.95-.88,5-.8,5.94.8.97,1.64-.54,4.44-2.97,5.12-2.44.69-5.41-.88-5.59-2.72Z"/>
  <g>
    <path class="cls-11" d="m117.39,63.23c.42-.52,2.21-.75,2.22-.14.13,6.6-.09,16.15,0,20.23,0,0-2.11,0-4.09,0-.62,0-.44-5.7-.6-9.64-.02-.57-4.94.45-4.3-1.19.19-.49,3.34-5.08,6.77-9.27Z"/>
    <path class="cls-11" d="m120.53,63.23c-.42-.52-2.21-.75-2.22-.14-.13,6.6.09,16.15,0,20.23,0,0,2.11,0,4.09,0,.62,0,.44-5.7.6-9.64.02-.57,4.94.45,4.3-1.19-.19-.49-3.34-5.08-6.77-9.27Z"/>
  </g>
  <text class="cls-10" transform="translate(34.76 31.95)"><tspan x="0" y="0">Hyper</tspan><tspan class="cls-9" x="45.66" y="0">t</tspan><tspan x="51.6" y="0">ensi</tspan><tspan class="cls-5" x="81.76" y="0">v</tspan><tspan x="90.24" y="0">e </tspan><tspan x="17.3" y="18">Diso</tspan><tspan class="cls-8" x="50.69" y="18">r</tspan><tspan x="56.68" y="18">der</tspan></text>
  <rect id="Border" class="cls-4" x="1" y="1" width="163.48" height="171.59"/>
</svg>