<?xml version="1.0" encoding="UTF-8"?>
<svg id="Cards" xmlns="http://www.w3.org/2000/svg" viewBox="0 0 165.48 173.59">
  <defs>
    <style>
      .cls-1 {
        fill: #edeced;
        stroke: #a6aaad;
      }

      .cls-1, .cls-2, .cls-3, .cls-4, .cls-5 {
        stroke-linecap: round;
        stroke-linejoin: round;
      }

      .cls-2 {
        stroke: #464f5c;
      }

      .cls-2, .cls-6 {
        fill: none;
      }

      .cls-2, .cls-5 {
        stroke-width: .75px;
      }

      .cls-3 {
        stroke-width: .25px;
      }

      .cls-3, .cls-4, .cls-5 {
        fill: #f0f8f9;
        stroke: #919eac;
      }

      .cls-4 {
        stroke-width: .5px;
      }

      .cls-6 {
        stroke: #282661;
        stroke-miterlimit: 10;
        stroke-width: 2px;
      }

      .cls-7 {
        fill: #282661;
        font-family: Gotham-Medium, Gotham;
        font-size: 15px;
        font-weight: 500;
      }

      .cls-8 {
        fill: #81c3e0;
      }

      .cls-8, .cls-9, .cls-10, .cls-11, .cls-12 {
        stroke-width: 0px;
      }

      .cls-9 {
        fill: #454f5b;
      }

      .cls-10 {
        fill: #a5aaac;
      }

      .cls-11 {
        fill: #a6aaad;
      }

      .cls-12 {
        fill: #f0ed89;
      }

      .cls-13 {
        letter-spacing: 0em;
      }
    </style>
  </defs>
  <path class="cls-12" d="m25.28,76.1c-3.77,3.01-6.58,33.42-3.41,36.76,4.57,4.82,13.91,3.33,42.77,2.61,24.63-.61,34.56.05,51.42.2,14.1.13,21.5,1.23,25.71-2.41,2.43-2.1-.64-35.16-2.89-37.21-4.44-4.05-11.29-3.35-29.12-3.24-29.83.18-44.66.75-59.82.39-14.92-.36-20.32-.56-24.66,2.9Z"/>
  <path class="cls-12" d="m20.67,125.65c-2.61,4.53-2.05,13.59.8,16.21,1.37,1.26,6.12,1.88,8.3,2.19,11.75,1.66,110.94-.34,112.16-1.46,2.21-2.05,2.28-9.08,1.19-12.68-2.59-8.49-14.73-7.82-22.6-7.65-7.07.16-73.87,1.31-90.82-.17-1.85-.16-6.6-.66-9.04,3.57Z"/>
  <line class="cls-2" x1="97.74" y1="87.21" x2="118.8" y2="66.83"/>
  <path class="cls-1" d="m41.56,130.16l11.28,10.97c.89.87,2.32.88,3.22.01l47.37-45.42c.97-.93.95-2.48-.04-3.39l-11.51-10.47c-.9-.82-2.28-.8-3.16.04l-47.13,44.91c-.95.91-.96,2.42-.02,3.34Z"/>
  <path class="cls-11" d="m42.04,137.66l2.14,2.2c.36.37.96.39,1.34.03l46.08-43.2c.4-.38.4-1.01,0-1.39l-2.38-2.24c-.37-.35-.94-.35-1.31,0l-45.84,43.24c-.39.37-.4.98-.03,1.36Z"/>
  <path class="cls-8" d="m84.56,88.83l11.91,10.89c.61.56,1.56.55,2.16-.02l4.75-4.51c.67-.64.66-1.71-.03-2.33l-11.99-10.8c-.61-.55-1.55-.54-2.15.03l-4.67,4.42c-.67.63-.66,1.7.02,2.32Z"/>
  <path class="cls-9" d="m83.3,87.68l14.17,13.03c.07.06.72-.5.74-.6l.72-4.24c.22-1.04.54-2.38-.19-3.14l-6.38-5.76c-.77-.8-1.9-1.16-2.98-.93l-4.41.64c-.1.02-1.47.36-1.67.99Z"/>
  <path class="cls-10" d="m41.98,136.48l3.33,3.43s.07.11.08.17l1.01,9.21c.03.28-.31.44-.5.23l-13.39-14.48c-.19-.21,0-.54.27-.48l9.05,1.84c.06.01.11.04.15.08Z"/>
  <path class="cls-8" d="m119.35,71.32c-.64-1.45-2.3,3.25-.99,4.67.95,1.04,2.46,1.32,3.01.44.74-1.21-.37-1.36-2.01-5.11Z"/>
  <line class="cls-4" x1="50.45" y1="118.31" x2="53.64" y2="121.32"/>
  <line class="cls-5" x1="53.64" y1="115.3" x2="56.84" y2="118.31"/>
  <line class="cls-4" x1="56.84" y1="112.29" x2="60.04" y2="115.3"/>
  <line class="cls-3" x1="60.04" y1="109.28" x2="63.24" y2="112.29"/>
  <line class="cls-4" x1="63.24" y1="106.27" x2="66.43" y2="109.28"/>
  <line class="cls-5" x1="66.85" y1="103.26" x2="70.05" y2="106.27"/>
  <line class="cls-4" x1="70.05" y1="100.25" x2="73.25" y2="103.26"/>
  <line class="cls-3" x1="73.25" y1="97.25" x2="76.44" y2="100.25"/>
  <line class="cls-4" x1="76.44" y1="94.24" x2="79.64" y2="97.25"/>
  <line class="cls-5" x1="79.64" y1="91.23" x2="82.84" y2="94.24"/>
  <line class="cls-3" x1="47.25" y1="121.32" x2="50.45" y2="124.33"/>
  <line class="cls-4" x1="44.05" y1="124.33" x2="47.25" y2="127.34"/>
  <text class="cls-7" transform="translate(27.87 32.6)"><tspan x="0" y="0">Immuniz</tspan><tspan class="cls-13" x="64.51" y="0">a</tspan><tspan x="73.24" y="0">tions</tspan></text>
  <rect id="Border" class="cls-6" x="1" y="1" width="163.48" height="171.59"/>
</svg>