<?xml version="1.0" encoding="UTF-8"?>
<svg id="Layer_2" data-name="Layer 2" xmlns="http://www.w3.org/2000/svg" viewBox="0 0 165.48 173.59">
  <defs>
    <style>
      .cls-1 {
        fill: #edeced;
        stroke: #a6aaad;
      }

      .cls-1, .cls-2, .cls-3, .cls-4, .cls-5 {
        stroke-linecap: round;
        stroke-linejoin: round;
      }

      .cls-2 {
        fill: none;
        stroke: #464f5c;
      }

      .cls-2, .cls-5 {
        stroke-width: .75px;
      }

      .cls-6 {
        fill: #fff;
        stroke: #282661;
        stroke-miterlimit: 10;
        stroke-width: 2px;
      }

      .cls-3 {
        stroke-width: .25px;
      }

      .cls-3, .cls-4, .cls-5 {
        fill: #f0f8f9;
        stroke: #919eac;
      }

      .cls-4 {
        stroke-width: .5px;
      }

      .cls-7 {
        fill: #81c3e0;
      }

      .cls-7, .cls-8, .cls-9, .cls-10, .cls-11, .cls-12 {
        stroke-width: 0px;
      }

      .cls-8 {
        fill: #282661;
      }

      .cls-9 {
        fill: #454f5b;
      }

      .cls-10 {
        fill: #a5aaac;
      }

      .cls-11 {
        fill: #a6aaad;
      }

      .cls-12 {
        fill: #f0ed89;
      }
    </style>
  </defs>
  <g id="Cards_Updated_Copy_Outlined_" data-name="Cards (Updated | Copy Outlined)">
    <g>
      <rect id="Border" class="cls-6" x="1" y="1" width="163.48" height="171.59" rx="18" ry="18"/>
      <path class="cls-12" d="m25.28,76.1c-3.77,3.01-6.58,33.42-3.41,36.76,4.57,4.82,13.91,3.33,42.77,2.61,24.63-.61,34.56.05,51.42.2,14.1.13,21.5,1.23,25.71-2.41,2.43-2.1-.64-35.16-2.89-37.21-4.44-4.05-11.29-3.35-29.12-3.24-29.83.18-44.66.75-59.82.39-14.92-.36-20.32-.56-24.66,2.9Z"/>
      <path class="cls-12" d="m20.67,125.65c-2.61,4.53-2.05,13.59.8,16.21,1.37,1.26,6.12,1.88,8.3,2.19,11.75,1.66,110.94-.34,112.16-1.46,2.21-2.05,2.28-9.08,1.19-12.68-2.59-8.49-14.73-7.82-22.6-7.65-7.07.16-73.87,1.31-90.82-.17-1.85-.16-6.6-.66-9.04,3.57Z"/>
      <line class="cls-2" x1="97.74" y1="87.21" x2="118.8" y2="66.83"/>
      <path class="cls-1" d="m41.56,130.16l11.28,10.97c.89.87,2.32.88,3.22.01l47.37-45.42c.97-.93.95-2.48-.04-3.39l-11.51-10.47c-.9-.82-2.28-.8-3.16.04l-47.13,44.91c-.95.91-.96,2.42-.02,3.34Z"/>
      <path class="cls-11" d="m42.04,137.66l2.14,2.2c.36.37.96.39,1.34.03l46.08-43.2c.4-.38.4-1.01,0-1.39l-2.38-2.24c-.37-.35-.94-.35-1.31,0l-45.84,43.24c-.39.37-.4.98-.03,1.36Z"/>
      <path class="cls-7" d="m84.56,88.83l11.91,10.89c.61.56,1.56.55,2.16-.02l4.75-4.51c.67-.64.66-1.71-.03-2.33l-11.99-10.8c-.61-.55-1.55-.54-2.15.03l-4.67,4.42c-.67.63-.66,1.7.02,2.32Z"/>
      <path class="cls-9" d="m83.3,87.68l14.17,13.03c.07.06.72-.5.74-.6l.72-4.24c.22-1.04.54-2.38-.19-3.14l-6.38-5.76c-.77-.8-1.9-1.16-2.98-.93l-4.41.64c-.1.02-1.47.36-1.67.99Z"/>
      <path class="cls-10" d="m41.98,136.48l3.33,3.43s.07.11.08.17l1.01,9.21c.03.28-.31.44-.5.23l-13.39-14.48c-.19-.21,0-.54.27-.48l9.05,1.84c.06.01.11.04.15.08Z"/>
      <path class="cls-7" d="m119.35,71.32c-.64-1.45-2.3,3.25-.99,4.67.95,1.04,2.46,1.32,3.01.44.74-1.21-.37-1.36-2.01-5.11Z"/>
      <line class="cls-4" x1="50.45" y1="118.31" x2="53.64" y2="121.32"/>
      <line class="cls-5" x1="53.64" y1="115.3" x2="56.84" y2="118.31"/>
      <line class="cls-4" x1="56.84" y1="112.29" x2="60.04" y2="115.3"/>
      <line class="cls-3" x1="60.04" y1="109.28" x2="63.24" y2="112.29"/>
      <line class="cls-4" x1="63.24" y1="106.27" x2="66.43" y2="109.28"/>
      <line class="cls-5" x1="66.85" y1="103.26" x2="70.05" y2="106.27"/>
      <line class="cls-4" x1="70.05" y1="100.25" x2="73.25" y2="103.26"/>
      <line class="cls-3" x1="73.25" y1="97.25" x2="76.44" y2="100.25"/>
      <line class="cls-4" x1="76.44" y1="94.24" x2="79.64" y2="97.25"/>
      <line class="cls-5" x1="79.64" y1="91.23" x2="82.84" y2="94.24"/>
      <line class="cls-3" x1="47.25" y1="121.32" x2="50.45" y2="124.33"/>
      <line class="cls-4" x1="44.05" y1="124.33" x2="47.25" y2="127.34"/>
      <g>
        <path class="cls-8" d="m29.33,22.1h1.84v10.5h-1.84v-10.5Z"/>
        <path class="cls-8" d="m33.75,24.68h1.83v1.2c.51-.71,1.2-1.37,2.42-1.37,1.14,0,1.95.55,2.37,1.39.63-.84,1.47-1.39,2.67-1.39,1.72,0,2.78,1.09,2.78,3.03v5.05h-1.82v-4.5c0-1.26-.58-1.93-1.6-1.93s-1.7.69-1.7,1.96v4.47h-1.81v-4.51c0-1.23-.6-1.92-1.61-1.92s-1.7.75-1.7,1.96v4.47h-1.83v-7.92Z"/>
        <path class="cls-8" d="m47.98,24.68h1.83v1.2c.51-.71,1.2-1.37,2.42-1.37,1.14,0,1.95.55,2.37,1.39.63-.84,1.47-1.39,2.67-1.39,1.72,0,2.78,1.09,2.78,3.03v5.05h-1.81v-4.5c0-1.26-.59-1.93-1.61-1.93s-1.7.69-1.7,1.96v4.47h-1.81v-4.51c0-1.23-.6-1.92-1.61-1.92s-1.69.75-1.69,1.96v4.47h-1.83v-7.92Z"/>
        <path class="cls-8" d="m62.14,29.73v-5.04h1.82v4.5c0,1.23.62,1.92,1.7,1.92s1.78-.72,1.78-1.95v-4.47h1.83v7.92h-1.83v-1.23c-.51.75-1.24,1.4-2.47,1.4-1.79,0-2.82-1.2-2.82-3.04Z"/>
        <path class="cls-8" d="m71.52,24.68h1.83v1.22c.51-.74,1.25-1.38,2.47-1.38,1.79,0,2.82,1.2,2.82,3.03v5.05h-1.81v-4.5c0-1.23-.62-1.93-1.7-1.93s-1.79.73-1.79,1.96v4.47h-1.83v-7.92Z"/>
        <path class="cls-8" d="m80.86,21.74h1.95v1.72h-1.95v-1.72Zm.06,2.94h1.83v7.92h-1.83v-7.92Z"/>
        <path class="cls-8" d="m84.76,31.36l4.58-5.19h-4.41v-1.49h6.72v1.25l-4.58,5.19h4.58v1.48h-6.88v-1.24Z"/>
        <path class="cls-8" d="m92.98,30.32v-.03c0-1.71,1.35-2.55,3.29-2.55.88,0,1.52.13,2.13.33v-.2c0-1.12-.69-1.72-1.96-1.72-.88,0-1.54.2-2.26.5l-.5-1.42c.88-.39,1.74-.65,3-.65,1.18,0,2.07.32,2.62.89.59.57.86,1.41.86,2.44v4.69h-1.77v-.99c-.54.64-1.37,1.16-2.58,1.16-1.48,0-2.82-.86-2.82-2.45Zm5.45-.57v-.54c-.46-.18-1.08-.32-1.8-.32-1.17,0-1.86.5-1.86,1.32v.03c0,.76.68,1.2,1.54,1.2,1.2,0,2.12-.69,2.12-1.7Z"/>
        <path class="cls-8" d="m102.63,30.41v-4.17h-1v-1.56h1v-2.17h1.82v2.17h2.13v1.56h-2.13v3.88c0,.71.36.99.97.99.4,0,.76-.09,1.12-.27v1.48c-.45.25-.95.4-1.63.4-1.34,0-2.28-.58-2.28-2.32Z"/>
        <path class="cls-8" d="m108.45,21.74h1.95v1.72h-1.95v-1.72Zm.06,2.94h1.83v7.92h-1.83v-7.92Z"/>
        <path class="cls-8" d="m112.27,28.69v-.03c0-2.26,1.8-4.14,4.23-4.14s4.21,1.84,4.21,4.11v.03c0,2.25-1.8,4.12-4.24,4.12s-4.2-1.84-4.2-4.09Zm6.63,0v-.03c0-1.4-1-2.55-2.43-2.55s-2.38,1.14-2.38,2.52v.03c0,1.38,1,2.53,2.41,2.53s2.4-1.14,2.4-2.5Z"/>
        <path class="cls-8" d="m122.55,24.68h1.83v1.22c.51-.74,1.25-1.38,2.47-1.38,1.79,0,2.82,1.2,2.82,3.03v5.05h-1.81v-4.5c0-1.23-.62-1.93-1.7-1.93s-1.78.73-1.78,1.96v4.47h-1.83v-7.92Z"/>
        <path class="cls-8" d="m131.22,31.57l.81-1.23c.87.65,1.79.98,2.6.98s1.23-.33,1.23-.86v-.03c0-.62-.84-.83-1.77-1.11-1.17-.33-2.47-.81-2.47-2.31v-.03c0-1.51,1.25-2.43,2.82-2.43.99,0,2.07.35,2.91.9l-.72,1.29c-.76-.46-1.57-.75-2.23-.75-.71,0-1.11.34-1.11.78v.03c0,.59.85.83,1.79,1.12,1.16.36,2.46.88,2.46,2.31v.03c0,1.67-1.29,2.49-2.94,2.49-1.12,0-2.37-.39-3.36-1.19Z"/>
      </g>
    </g>
  </g>
</svg>