<?xml version="1.0" encoding="UTF-8"?>
<svg id="Cards" xmlns="http://www.w3.org/2000/svg" viewBox="0 0 165.48 173.59">
  <defs>
    <style>
      .cls-1 {
        stroke-dasharray: 0 0 4.57 4.57;
      }

      .cls-1, .cls-2, .cls-3, .cls-4, .cls-5 {
        stroke-miterlimit: 10;
      }

      .cls-1, .cls-3, .cls-4, .cls-5 {
        fill: none;
      }

      .cls-1, .cls-4, .cls-5 {
        stroke: #202b36;
      }

      .cls-2 {
        fill: #dfe4e8;
        stroke: #919eac;
      }

      .cls-3 {
        stroke: #282661;
        stroke-width: 2px;
      }

      .cls-5 {
        stroke-dasharray: 0 0 4.54 4.54;
      }

      .cls-6 {
        letter-spacing: 0em;
      }

      .cls-7 {
        fill: #282661;
        font-family: Gotham-Medium, Gotham;
        font-size: 15px;
        font-weight: 500;
      }

      .cls-8 {
        fill: #bf2627;
      }

      .cls-8, .cls-9, .cls-10, .cls-11, .cls-12, .cls-13 {
        stroke-width: 0px;
      }

      .cls-9 {
        fill: #848e98;
      }

      .cls-10 {
        fill: #ed3e3f;
      }

      .cls-11 {
        fill: #edf7fb;
      }

      .cls-12 {
        fill: #f2757d;
      }

      .cls-13 {
        fill: #f6be79;
      }
    </style>
  </defs>
  <path class="cls-13" d="m30.09,98.1c4.28-17.5,16.69-12.88,18.05-14.36,2.98-3.22,15.5-8.19,14.58-13.64-2.73-16.15,13.64-12.81,17-13.43,2.2-.41,5.59,3.75,13.36,6.42,8.75,3,17.91,5.43,29.3,20.65,7.39,9.87,10.67,13.91,9.84,17.23-3.82,15.36,5.19,21.43,4.92,24.61-.38,4.42-5.13,9.93-8.74,15.12-3.12,4.48-15.21,7.56-19.97,6.62-7.88-1.55-8.06-3.89-13.54-4.92-9.77-1.84-57.71,3.61-60.7.82-3.41-3.18-14.56-18.03-14.3-20.27.61-5.33,8.06-16.08,10.2-24.84Z"/>
  <path class="cls-11" d="m23.42,91.33l21.23,22.77,33.45,36.03,5.28,3.57c2.58,1.74,5.85,2.28,8.77,1.22,6.37-2.31,6.66-8.85,3.56-13.44h0s-55.06-59.78-55.06-59.78l-17.23,9.63Z"/>
  <g>
    <line class="cls-4" x1="87.41" y1="78.57" x2="86.54" y2="80.91"/>
    <line class="cls-5" x1="84.98" y1="85.17" x2="73.24" y2="117.12"/>
    <line class="cls-4" x1="72.46" y1="119.25" x2="71.59" y2="121.59"/>
  </g>
  <g>
    <line class="cls-4" x1="118.78" y1="110.71" x2="116.36" y2="111.32"/>
    <line class="cls-1" x1="111.92" y1="112.43" x2="78.67" y2="120.78"/>
    <line class="cls-4" x1="76.45" y1="121.33" x2="74.02" y2="121.94"/>
  </g>
  <path class="cls-10" d="m44.69,113.99v.16s33.39,35.96,33.39,35.96c0,0,.02.02.03.03l5.15,3.47c3,2.03,6.9,2.42,10.12.76,5.16-2.67,5.22-8.63,2.33-12.9h0s-29.85-32.41-29.85-32.41c-.05-.05-.13-.07-.2-.04l-1.78-.74c-1.11-.46-2.38-.36-3.38.3-1.35.89-1.19,1.45-2.86,1.75-1.08.19-3.12-.16-4.19-.4-1.5-.34-4.32-1.02-6.36.69-1.3,1.09-2.4,3.37-2.4,3.37Z"/>
  <path class="cls-9" d="m22.47,93.59l8.53,10.17c1.34,1.6,3.03,3.56,5.13-.01l2.71-3.27c.22-.27,5.09-4.85,6.53-5.64.85-.46,1.74-.83,2.66-1.11l3.48-1.04c.84-.34,5.12-1.74,1.12-4.95l-8.73-9.55c-.59-.64-2.43-2.47-5.87-.69l-4.41,1.76c-.36.17-6.71,5.26-6.98,5.56l-4.03,4.49c-.23.26-1.38,2.49-.17,4.29Z"/>
  <circle class="cls-2" cx="116.04" cy="81.7" r="29.56"/>
  <ellipse class="cls-10" cx="103.5" cy="90" rx="7.94" ry="6.72"/>
  <ellipse class="cls-10" cx="110.9" cy="67.53" rx="6.65" ry="7.88" transform="translate(-9.74 115.55) rotate(-53.04)"/>
  <ellipse class="cls-10" cx="128.4" cy="85.83" rx="7.23" ry="6.04" transform="translate(-18.72 132.85) rotate(-51.48)"/>
  <g>
    <path class="cls-8" d="m106.92,64.18c-.25-.08-.65-.9,1.3-1.3,5.87-1.2,8.08,4.58,7.97,6.26-.06.86-.97.33-1.12-.07-2.32-5.96-6.73-4.44-8.15-4.89Z"/>
    <path class="cls-12" d="m106.56,66.33c-.08-.35-.82-1.16-.85-.8-.62,7.71,8.43,7.54,9.09,6.39.2-.35-.86-.54-1.61-.38-1.04.22-5.59-.77-6.63-5.21Z"/>
  </g>
  <g>
    <path class="cls-8" d="m131.83,81.81c.08-.25.9-.65,1.3,1.3,1.2,5.87-4.58,8.08-6.26,7.97-.86-.06-.33-.97.07-1.12,5.96-2.32,4.44-6.73,4.89-8.15Z"/>
    <path class="cls-12" d="m129.67,81.46c.35-.08,1.16-.82.8-.85-7.71-.62-7.54,8.43-6.39,9.09.35.2.54-.86.38-1.61-.22-1.04.77-5.59,5.21-6.63Z"/>
  </g>
  <g>
    <path class="cls-8" d="m98.34,88.87c-.26.05-1-.49.54-1.76,4.61-3.83,9.28.24,9.98,1.77.36.79-.7.74-1.02.47-4.85-4.17-8.03-.74-9.49-.48Z"/>
    <path class="cls-12" d="m99.04,90.94c-.24-.27-1.27-.64-1.13-.31,3.08,7.09,10.99,2.68,11.03,1.35.01-.41-1.01-.07-1.6.43-.82.69-5.29,1.95-8.3-1.47Z"/>
  </g>
  <text class="cls-7" transform="translate(41.33 32.28)"><tspan x="0" y="0">RBC </tspan><tspan class="cls-6" x="37.26" y="0">C</tspan><tspan x="48.19" y="0">ount</tspan></text>
  <rect id="Border" class="cls-3" x="1" y="1" width="163.48" height="171.59"/>
</svg>