<?xml version="1.0" encoding="UTF-8"?>
<svg id="Layer_2" data-name="Layer 2" xmlns="http://www.w3.org/2000/svg" viewBox="0 0 165.48 173.59">
  <defs>
    <style>
      .cls-1 {
        stroke-dasharray: 0 0 4.72 4.72;
      }

      .cls-1, .cls-2, .cls-3, .cls-4, .cls-5 {
        stroke-miterlimit: 10;
      }

      .cls-1, .cls-3, .cls-4, .cls-5 {
        stroke: #919eac;
      }

      .cls-1, .cls-4, .cls-5 {
        fill: none;
      }

      .cls-2 {
        fill: #fff;
        stroke: #282661;
        stroke-width: 2px;
      }

      .cls-3 {
        fill: #dfe4e8;
      }

      .cls-5 {
        stroke-dasharray: 0 0 5.25 5.25;
      }

      .cls-6 {
        fill: #282661;
      }

      .cls-6, .cls-7, .cls-8, .cls-9, .cls-10, .cls-11, .cls-12 {
        stroke-width: 0px;
      }

      .cls-7 {
        fill: #bf2627;
      }

      .cls-8 {
        fill: #848e98;
      }

      .cls-9 {
        fill: #ed3e3f;
      }

      .cls-10 {
        fill: #edf7fb;
      }

      .cls-11 {
        fill: #f2757d;
      }

      .cls-12 {
        fill: #f6be79;
      }
    </style>
  </defs>
  <g id="Cards_Updated_Copy_Outlined_" data-name="Cards (Updated | Copy Outlined)">
    <g>
      <rect id="Border" class="cls-2" x="1" y="1" width="163.48" height="171.59" rx="18" ry="18"/>
      <path class="cls-12" d="m30.09,107.1c4.47-17.45,8.04-11.32,18.05-14.36,11.35-3.44,12.19-2.15,12.58-13.64.56-16.37,11.58-18.41,14.94-17.83,13.13,2.24,9.65,8.15,17.42,10.82,8.75,3,17.91,5.43,29.3,20.65,7.39,9.87,9.64,13.81,9.84,17.23,1.08,17.61,7.88,7.58,7.92,24.61.02,8.28-6.88,11.08-11.74,15.12-9.84,8.18-15.21,7.56-19.97,6.62-7.88-1.55-7.26.17-21.94-6.36-9.09-4.04-39.2,9.29-52.3,2.26-10.77-5.78-15.24-9.41-14.3-20.27,1.29-15.06,5.65-7.08,10.2-24.84Z"/>
      <path class="cls-10" d="m23.42,100.33l21.23,22.77,33.45,36.03,5.28,3.57c2.58,1.74,5.85,2.28,8.77,1.22,6.37-2.31,6.66-8.85,3.56-13.44h0s-55.06-59.78-55.06-59.78l-17.23,9.63Z"/>
      <g>
        <line class="cls-4" x1="89.96" y1="76.77" x2="89.16" y2="79.13"/>
        <line class="cls-1" x1="87.63" y1="83.6" x2="73.16" y2="126"/>
        <line class="cls-4" x1="72.4" y1="128.23" x2="71.59" y2="130.59"/>
      </g>
      <g>
        <line class="cls-4" x1="124.86" y1="118.92" x2="122.43" y2="119.49"/>
        <line class="cls-5" x1="117.32" y1="120.7" x2="79.01" y2="129.76"/>
        <line class="cls-4" x1="76.46" y1="130.37" x2="74.02" y2="130.94"/>
      </g>
      <path class="cls-9" d="m44.69,122.99v.16s33.39,35.96,33.39,35.96c0,0,.02.02.03.03l5.15,3.47c3,2.03,6.9,2.42,10.12.76,5.16-2.67,5.22-8.63,2.33-12.9h0s-29.85-32.41-29.85-32.41c-.05-.05-.13-.07-.2-.04l-1.78-.74c-1.11-.46-2.38-.36-3.38.3-1.35.89-1.19,1.45-2.86,1.75-1.08.19-3.12-.16-4.19-.4-1.5-.34-4.32-1.02-6.36.69-1.3,1.09-2.4,3.37-2.4,3.37Z"/>
      <path class="cls-8" d="m22.47,102.59l8.53,10.17c1.34,1.6,3.03,3.56,5.13-.01l2.71-3.27c.22-.27,5.09-4.85,6.53-5.64.85-.46,1.74-.83,2.66-1.11l3.48-1.04c.84-.34,5.12-1.74,1.12-4.95l-8.73-9.55c-.59-.64-2.43-2.47-5.87-.69l-4.41,1.76c-.36.17-6.71,5.26-6.98,5.56l-4.03,4.49c-.23.26-1.38,2.49-.17,4.29Z"/>
      <circle class="cls-3" cx="116.04" cy="90.7" r="29.56"/>
      <ellipse class="cls-9" cx="103.5" cy="99" rx="7.94" ry="6.72"/>
      <ellipse class="cls-9" cx="110.9" cy="76.53" rx="6.65" ry="7.88" transform="translate(-16.93 119.14) rotate(-53.04)"/>
      <ellipse class="cls-9" cx="128.4" cy="94.83" rx="7.23" ry="6.04" transform="translate(-25.76 136.24) rotate(-51.48)"/>
      <g>
        <path class="cls-7" d="m106.92,73.18c-.25-.08-.65-.9,1.3-1.3,5.87-1.2,8.08,4.58,7.97,6.26-.06.86-.97.33-1.12-.07-2.32-5.96-6.73-4.44-8.15-4.89Z"/>
        <path class="cls-11" d="m106.56,75.33c-.08-.35-.82-1.16-.85-.8-.62,7.71,8.43,7.54,9.09,6.39.2-.35-.86-.54-1.61-.38-1.04.22-5.59-.77-6.63-5.21Z"/>
      </g>
      <g>
        <path class="cls-7" d="m131.83,90.81c.08-.25.9-.65,1.3,1.3,1.2,5.87-4.58,8.08-6.26,7.97-.86-.06-.33-.97.07-1.12,5.96-2.32,4.44-6.73,4.89-8.15Z"/>
        <path class="cls-11" d="m129.67,90.46c.35-.08,1.16-.82.8-.85-7.71-.62-7.54,8.43-6.39,9.09.35.2.54-.86.38-1.61-.22-1.04.77-5.59,5.21-6.63Z"/>
      </g>
      <g>
        <path class="cls-7" d="m98.34,97.87c-.26.05-1-.49.54-1.76,4.61-3.83,9.28.24,9.98,1.77.36.79-.7.74-1.02.47-4.85-4.17-8.03-.74-9.49-.48Z"/>
        <path class="cls-11" d="m99.04,99.94c-.24-.27-1.27-.64-1.13-.31,3.08,7.09,10.99,2.68,11.03,1.35.01-.41-1.01-.07-1.6.43-.82.69-5.29,1.95-8.3-1.47Z"/>
      </g>
      <g>
        <path class="cls-6" d="m44.48,21.78h4.68c1.32,0,2.35.39,3.03,1.05.55.57.87,1.35.87,2.27v.03c0,1.73-1.04,2.76-2.49,3.18l2.83,3.97h-2.19l-2.58-3.66h-2.31v3.66h-1.84v-10.5Zm4.54,5.2c1.32,0,2.16-.69,2.16-1.75v-.03c0-1.12-.81-1.74-2.17-1.74h-2.69v3.52h2.7Z"/>
        <path class="cls-6" d="m54.53,28.35v-.03c0-2.26,1.61-4.12,3.87-4.12,2.52,0,3.79,1.98,3.79,4.26,0,.17-.01.33-.03.51h-5.82c.19,1.29,1.11,2.01,2.28,2.01.88,0,1.51-.33,2.14-.94l1.06.94c-.75.9-1.79,1.49-3.24,1.49-2.29,0-4.07-1.67-4.07-4.11Zm5.87-.58c-.12-1.17-.81-2.08-2.01-2.08-1.11,0-1.89.85-2.05,2.08h4.06Z"/>
        <path class="cls-6" d="m63.62,28.33v-.03c0-2.62,1.79-4.11,3.68-4.11,1.3,0,2.13.65,2.7,1.39v-4.26h1.82v10.95h-1.82v-1.32c-.58.82-1.41,1.48-2.7,1.48-1.86,0-3.68-1.48-3.68-4.11Zm6.41,0v-.03c0-1.53-1.08-2.54-2.29-2.54s-2.28.98-2.28,2.54v.03c0,1.53,1.05,2.53,2.28,2.53s2.29-1.02,2.29-2.53Z"/>
        <path class="cls-6" d="m78.8,21.78h4.71c1.2,0,2.14.33,2.74.93.46.46.71,1.05.71,1.74v.03c0,1.26-.72,1.94-1.5,2.34,1.23.42,2.09,1.12,2.09,2.55v.03c0,1.88-1.54,2.88-3.88,2.88h-4.86v-10.5Zm6.31,2.97c0-.82-.66-1.33-1.84-1.33h-2.65v2.79h2.52c1.18,0,1.98-.46,1.98-1.42v-.03Zm-1.58,3.02h-2.92v2.88h3.06c1.25,0,2.03-.5,2.03-1.44v-.03c0-.88-.71-1.41-2.16-1.41Z"/>
        <path class="cls-6" d="m89.51,21.33h1.83v10.95h-1.83v-10.95Z"/>
        <path class="cls-6" d="m93.28,28.36v-.03c0-2.27,1.8-4.14,4.23-4.14s4.21,1.85,4.21,4.11v.03c0,2.25-1.8,4.12-4.24,4.12s-4.2-1.85-4.2-4.1Zm6.63,0v-.03c0-1.4-1.01-2.55-2.43-2.55s-2.38,1.14-2.38,2.52v.03c0,1.38,1,2.53,2.41,2.53s2.4-1.14,2.4-2.5Z"/>
        <path class="cls-6" d="m103.13,28.36v-.03c0-2.27,1.8-4.14,4.23-4.14s4.21,1.85,4.21,4.11v.03c0,2.25-1.8,4.12-4.25,4.12s-4.2-1.85-4.2-4.1Zm6.63,0v-.03c0-1.4-1-2.55-2.43-2.55s-2.38,1.14-2.38,2.52v.03c0,1.38,1,2.53,2.42,2.53s2.4-1.14,2.4-2.5Z"/>
        <path class="cls-6" d="m113.02,28.33v-.03c0-2.62,1.79-4.11,3.68-4.11,1.3,0,2.13.65,2.7,1.39v-4.26h1.82v10.95h-1.82v-1.32c-.58.82-1.41,1.48-2.7,1.48-1.86,0-3.68-1.48-3.68-4.11Zm6.41,0v-.03c0-1.53-1.08-2.54-2.29-2.54s-2.28.98-2.28,2.54v.03c0,1.53,1.05,2.53,2.28,2.53s2.29-1.02,2.29-2.53Z"/>
        <path class="cls-6" d="m44.31,45.06v-.03c0-2.99,2.24-5.43,5.4-5.43,1.95,0,3.12.67,4.12,1.64l-1.19,1.36c-.85-.78-1.74-1.29-2.96-1.29-1.98,0-3.45,1.63-3.45,3.69v.03c0,2.06,1.46,3.72,3.46,3.72,1.29,0,2.12-.51,3.02-1.35l1.18,1.2c-1.09,1.14-2.29,1.86-4.26,1.86-3.07,0-5.34-2.39-5.34-5.4Z"/>
        <path class="cls-6" d="m55.07,46.35v-.03c0-2.26,1.61-4.12,3.87-4.12,2.52,0,3.79,1.98,3.79,4.26,0,.17-.01.33-.03.51h-5.82c.2,1.29,1.11,2.01,2.28,2.01.88,0,1.51-.33,2.15-.94l1.06.94c-.75.9-1.79,1.49-3.24,1.49-2.29,0-4.06-1.67-4.06-4.11Zm5.87-.58c-.12-1.17-.81-2.08-2.01-2.08-1.11,0-1.89.85-2.05,2.08h4.07Z"/>
        <path class="cls-6" d="m64.65,39.33h1.83v10.95h-1.83v-10.95Z"/>
        <path class="cls-6" d="m68.94,39.33h1.83v10.95h-1.83v-10.95Z"/>
        <path class="cls-6" d="m77.39,45.06v-.03c0-2.99,2.23-5.43,5.4-5.43,1.95,0,3.12.67,4.12,1.64l-1.18,1.36c-.86-.78-1.74-1.29-2.96-1.29-1.98,0-3.45,1.63-3.45,3.69v.03c0,2.06,1.46,3.72,3.46,3.72,1.29,0,2.12-.51,3.01-1.35l1.19,1.2c-1.1,1.14-2.29,1.86-4.26,1.86-3.08,0-5.34-2.39-5.34-5.4Z"/>
        <path class="cls-6" d="m88.14,46.36v-.03c0-2.27,1.8-4.14,4.23-4.14s4.21,1.85,4.21,4.11v.03c0,2.25-1.8,4.12-4.24,4.12s-4.2-1.85-4.2-4.1Zm6.63,0v-.03c0-1.4-1.01-2.55-2.43-2.55s-2.38,1.14-2.38,2.52v.03c0,1.38,1,2.53,2.41,2.53s2.4-1.14,2.4-2.5Z"/>
        <path class="cls-6" d="m98.34,47.4v-5.04h1.81v4.5c0,1.23.62,1.92,1.7,1.92s1.79-.72,1.79-1.95v-4.47h1.83v7.92h-1.83v-1.23c-.51.75-1.25,1.39-2.48,1.39-1.78,0-2.82-1.2-2.82-3.04Z"/>
        <path class="cls-6" d="m107.72,42.36h1.83v1.22c.51-.74,1.24-1.38,2.47-1.38,1.79,0,2.82,1.2,2.82,3.03v5.05h-1.82v-4.5c0-1.23-.61-1.93-1.69-1.93s-1.78.73-1.78,1.96v4.47h-1.83v-7.92Z"/>
        <path class="cls-6" d="m117.4,48.09v-4.17h-1.01v-1.56h1.01v-2.17h1.81v2.17h2.13v1.56h-2.13v3.88c0,.71.36.99.97.99.41,0,.77-.09,1.12-.27v1.48c-.45.26-.94.41-1.63.41-1.33,0-2.28-.58-2.28-2.33Z"/>
      </g>
    </g>
  </g>
</svg>