<?xml version="1.0" encoding="UTF-8"?>
<svg id="Layer_2" data-name="Layer 2" xmlns="http://www.w3.org/2000/svg" viewBox="0 0 165.48 173.59">
  <defs>
    <style>
      .cls-1 {
        fill: #fff;
        stroke: #282661;
        stroke-miterlimit: 10;
        stroke-width: 2px;
      }

      .cls-2 {
        fill: #f3f4f5;
      }

      .cls-2, .cls-3, .cls-4, .cls-5, .cls-6, .cls-7, .cls-8, .cls-9, .cls-10, .cls-11, .cls-12, .cls-13, .cls-14, .cls-15, .cls-16, .cls-17, .cls-18, .cls-19, .cls-20, .cls-21, .cls-22, .cls-23, .cls-24 {
        stroke-width: 0px;
      }

      .cls-3 {
        fill: #282661;
      }

      .cls-4 {
        fill: #352013;
      }

      .cls-5 {
        fill: #432d1c;
      }

      .cls-6 {
        fill: #432d1e;
      }

      .cls-7 {
        fill: #432e1e;
      }

      .cls-8 {
        fill: #177bbe;
      }

      .cls-9 {
        fill: #157abf;
      }

      .cls-10 {
        fill: #cfe4b1;
      }

      .cls-11 {
        fill: #dfe3e7;
      }

      .cls-12 {
        fill: #d95b5c;
      }

      .cls-13 {
        fill: #e1f1fa;
      }

      .cls-14 {
        fill: #a7877b;
      }

      .cls-15 {
        fill: #cf4a47;
      }

      .cls-16 {
        fill: #c2ccd4;
      }

      .cls-17 {
        fill: #b68150;
      }

      .cls-18 {
        fill: #b69687;
      }

      .cls-19 {
        fill: #b58150;
      }

      .cls-20 {
        fill: #8e9dac;
      }

      .cls-21 {
        fill: #6ac297;
      }

      .cls-22 {
        fill: #fce59d;
      }

      .cls-23 {
        fill: #fcc274;
      }

      .cls-24 {
        fill: #e8a655;
      }
    </style>
  </defs>
  <g id="Cards_Updated_Copy_Outlined_" data-name="Cards (Updated | Copy Outlined)">
    <g>
      <rect id="Border" class="cls-1" x="1" y="1" width="163.48" height="171.59" rx="18" ry="18"/>
      <path class="cls-11" d="m21.89,99.62c1.03-10.75.57-10.32-.79-20.68-.83-6.34,2.3-11.61,4.16-14.02,3.3-4.27,10.84-4.02,28.01-2.65,0,0,5.23-.09,22.07-.81,36.09-1.55,55.95-5.53,62.15,3.34.74,1.06.55,39.36.8,43.85,1.25,22.32,1.53,42.01-1.59,44.6-2.72,2.26-6.89,2.68-8.7,2.06-2.44-.84-22.06-.56-61.29,0-32.63.46-34.16.93-37.05-1.61-10.22-8.95-10.17-29.04-7.78-54.08Z"/>
      <path class="cls-21" d="m95.62,97.26c-3.54,2.69-4.81,6.14-6.99,12.35-2.08,5.92-2.16,8.91-3.73,19.58-2.54,17.24-4.35,23.1-1.17,25.4,1.2.87,2.38.69,5.59.47,0,0,10.9-.77,23.3-.23,10.42.46,14.58,1.24,16.94-1.57,1.12-1.34,1.15-1.82,1.01-5.42-.45-11.49-.67-17.24-.7-17.48-1.54-12.32-2.31-18.49-4.66-23.07-2-3.9-4.32-8.44-9.55-11.19-6.05-3.17-14.42-3.11-20.04,1.17Z"/>
      <path class="cls-17" d="m90.73,130.35c-1.93,5.17.82,7.52.47,14.68-.28,5.79-2.28,8.39-.7,9.79.69.61,1.38.38,7.92,0,3.8-.22,3.98-.16,4.43-.47,2.43-1.64.75-5.69,1.17-14.45.31-6.55,1.43-7.93,0-10.25-2-3.25-7.05-5.21-10.25-3.5-1.79.96-2.51,2.8-3.03,4.19Z"/>
      <path class="cls-19" d="m99.35,97.03c-1.49-.56-3.67-1.38-5.36-3.5-3.37-4.22-1.89-9.97-1.4-11.89.57-2.2,1.64-6.37,5.59-8.86,4.22-2.65,8.79-1.57,10.49-1.17,1.57.37,5.64,1.34,8.39,5.13,2.89,4,3.12,9.49.93,13.75-2.47,4.8-7.13,6.34-8.39,6.76-.78.26-5.23,1.65-10.25-.23Z"/>
      <path class="cls-20" d="m101.68,83.74c1.25.61,2.21-.74,3.73-.23.94.32,1.83,1.27,1.86,2.21.05,1.52-2.11,2.36-1.86,3.03.21.57,1.88.25,3.96.23,4.84-.04,5.77,1.59,8.39.7.28-.1,2.67-.95,3.85-3.38,1-2.07.87-4.76-.58-6.64-.28-.36-1.42-1.83-3.15-1.98-1.63-.14-1.94,1.05-3.96,1.63-1.25.36-3.41-.03-7.69-.82-2.1-.39-2.89-.59-3.85-.12-1.02.51-2.15,1.76-1.98,3.26.01.11.19,1.57,1.28,2.1Z"/>
      <path class="cls-13" d="m33.05,113.69c4.16,3.9,8.61-.17,25.29.7,9.67.5,15.94,2.28,18.18-1.05.84-1.25.55-2.39.35-6.29-.1-1.88.21,3,.23-13.75.04-28.07-.83-27.06-.35-28.69.13-.43.58-1.82-.09-2.58-.81-.92-2.82-.35-3.41-.2-6.97,1.79-34.96,1.26-41.13.12-.41-.08-1.65-.33-2.45.35-1.4,1.18-.49,4.36-.23,5.36.84,3.2-1.26-1.97.98,28.2,1.2,16.13,1.76,17.01,2.63,17.83Z"/>
      <path class="cls-10" d="m31.2,109.18c1.18-1.07,2.32-.58,8.49-.5,4.25.05,2.33-.2,10.84-.35,18.68-.33,17.18,1.07,20.86,0,1.04-.3,2.9-.92,4.08,0,1.17.91.84,2.69.58,6.64-.58,8.77-.87,13.16-.35,15.61.23,1.1.6,2.41-.12,3.26-1.21,1.44-4.57.4-6.06,0-8.54-2.29-14.35.81-30.41-.47-1.1-.09-3.41-.3-5.01-1.98-1.6-1.67-1.67-3.94-1.75-5.48-.6-11.42-3.45-14.66-1.15-16.75Z"/>
      <polygon class="cls-2" points="31.18 135.12 31.18 127.21 75.69 127.21 75.69 135.36 31.18 135.12"/>
      <rect class="cls-16" x="31.18" y="132.78" width="44.51" height="4.68"/>
      <path class="cls-9" d="m28.71,61.73c5.99-.54,13.41-1.21,19.56-.47.34.04,6.42.59,6.93,1,.87.7-.4,3.13-2.62,6.29-4.64,6.6-9.41,10.63-16.15,17.71-4.54,4.77-5.7,13.04-4,16.43,5.58,11.11,3.51,11.07,8,19.11,2.28,4.08,3.84,5.93,2.76,7.34-1.41,1.84-6.27,1.55-8.83,1.4-2.22-.13-3.33-.2-4.14-.82-2.34-1.79-.4-6.18.55-9.67,1.28-4.67-.11-4.44-.97-19.11-.76-13.01.41-11.65-.41-20.62-1.15-12.42-4.13-18.28-.69-18.6Z"/>
      <path class="cls-8" d="m59.58,61.42c8.09-.52,19.04-.9,20.3-.58s-.31,4.9-.58,5.54c-1.16,2.79-1.12,9.4-1.05,22.61.09,16.02.13,24.03.82,27.85.95,5.31,2.74,12.44.23,13.87-.85.48-2.04.23-3.61-.12-1.1-.24-6.7-.56-7.85-2.56-1.13-1.98,2.56-4.85,3.54-7.22,0,0,3.19-7.77,4.66-28.43.02-.32.07-1.04-.23-1.86-.84-2.31-9.64-3.61-14.8-19.93-.73-2.3-5.88-8.87-1.43-9.16Z"/>
      <g>
        <path class="cls-14" d="m55.87,105.6s.02.05.02.06c.11.27.14.68.11,1-.01.14-.09.98-.78,1.62-.3.28-.55.36-.52.51.03.19.5.37.88.26.44-.12.42-.53,1.12-1.37.45-.53.57-.5.69-.8.24-.58,0-1.2-.33-1.58-.11-.12-.5-.57-.83-.46-.26.08-.44.48-.36.77Z"/>
        <path class="cls-18" d="m57.19,105.12c-.29.65.18,1.32.49,1.61.3.27.47.18.52.39.15.61-1.11,2.06-1.23,2.19-.14.16-.3.33-.29.5.02.26.43.44.79.32.3-.1.42-.37.93-1.12.89-1.32,1.19-1.49,1.26-2.04.02-.14-.03-.4-.12-.93-.11-.62-.16-.94-.31-1.16-.09-.14-.42-.62-1.01-.53-.38.06-.84.34-1.03.77Z"/>
        <path class="cls-14" d="m51.05,107.59c-.02.41,4.02-.17,3.08-.58s-1.86.04-1.95-.15c-.13-.27,1.68-1.52,1.63-2.11-.02-.25-1.06-.07-1.27-.05-.36.04-1.43,1.59-1.48,2.89Z"/>
        <path class="cls-18" d="m53.15,104.86c-.41.23-.07,1.17-.44,2.59-.26.99-.64,1.32-.46,1.88.11.33.85.44,1.07-.32.44-1.54.28-1.8.62-2.69.16-.43.29-.61.21-.87-.12-.41-.67-.77-1-.59Z"/>
        <path class="cls-18" d="m52.73,99.5c-.15.16.39.08-1.94.46-.7.11.15,1.09,1.07,1.36.93.28.46.52.5,1.33.04.75-.38,1.35-.38,1.97-.02,1.91,2.23.88,3.03,1.06,1,.22,3.7,1.2,4.35.73.47-.34-.28-1.25.28-1.74.42-.37.29-.33,1.09-.64,1.15-.45,2.08-1.3,1.86-1.57-.17-.22-1.13-.14-1.82.06-1.09.33-.43.89-1.48,1.1-.17.04-1.45.11-2.18-.03-1.18-.24-2.07-1.17-2.23-1.35-.56-.65-.22-.87-.15-1.79.02-.3-.26-1.88-.48-1.41-.26.55-.26.84-.61.67-.52-.25-.11-1.48-.62-1.04-.28.25-.09.61-.32.84Z"/>
      </g>
      <path class="cls-15" d="m47.12,90.41c0,.99-.8,1.79-1.79,1.79s-1.79-.8-1.79-1.79.8-1.79,1.79-1.79,1.79.8,1.79,1.79Z"/>
      <path class="cls-4" d="m63.81,105.3c-.12.9.84,1.59,1.62,3.61.41,1.04.44,1.6.89,1.93.36.26.82.26,1.02.04.21-.23.07-.64-.49-2.2-.7-1.97-.94-2.58-1.54-3.29-.57-.67-.87-.72-.93-.73-.35-.04-.53.34-.57.65Z"/>
      <path class="cls-24" d="m66.32,110.35c-3.07-.16-3.03.88-2.45.94,2.22.24,2.22.32,3.7-.2.07-.02.17-.47.03-.71-.14-.24-.43.01-1.28-.03Z"/>
      <path class="cls-7" d="m67.97,106.03c-.35,1.27.07,1.83,0,3.72-.06,1.51-.36,2.15-.07,2.69.19.36.57.54.85.36.35-.23.38-.93.62-3.19.3-2.76.45-3.46.12-4.11-.19-.37-.55-.74-.88-.61-.38.14-.57.84-.65,1.13Z"/>
      <path class="cls-23" d="m68.01,111.88c-.46,0-.86.03-1.97.17-.61.08-.79.11-.87.26-.13.25.05.82.35.86,2.69.35,2.04.32,3.39-.2.3-.11.27-.69.08-.93-.09-.11-.23-.17-.98-.17Z"/>
      <path class="cls-12" d="m64.94,100.65c.49-.61.86.2,2.89-.1.18-.03.43-.07.71.05.58.24.76.97.92,1.55.79,2.88,1.28,3.05.95,3.59-.52.84-2.1,1.1-2.93.53-.75-.51-.71-1.57-1.1-1.59-.34-.01-.22,1.11-.9,1.56-.75.49-2.24.03-2.54-.8-.14-.38.01-.76.32-1.5.38-.92.66-.99.88-1.73.26-.89.53-1.22.81-1.57Z"/>
      <path class="cls-5" d="m66.5,96.32c-.57-1.28-2.21-1.1-4.04-2.6-1.15-.95-1.47-1.82-2.09-1.74-.4.05-.67.47-.73.8-.08.45.56.62,1.04,1.09,1.34,1.29,1.92,1.55,4.22,2.99.74.47,1.25.84,1.55.71.31-.14.26-.77.05-1.24Z"/>
      <path class="cls-22" d="m66.1,94.44c-.94.22-1.27,1.47-1.4,2-.26,1,.11,1.11.19,3.32.03.78,0,.98.23,1.2.71.67,2.9.56,3.8-.3.39-.37.22-1.42-.14-3.51-.18-1.06-.31-1.59-.86-2.06-.11-.1-.97-.85-1.81-.65Z"/>
      <path class="cls-5" d="m67.95,95.34c1.1.06,3.83,1.35,3.49,2.79-.16.69-.83,1.02-1.22,1.42-.2.21-1,.88-1.59.77-.41-.07-.62-.64-.34-.92.65-.67,1.68-1.3,1.6-1.54-.11-.36-1.21-.29-1.77-1.07-.3-.43-.57-1.46-.16-1.44Z"/>
      <path id="Head" class="cls-6" d="m64.93,90.82c-.14.11-.78.63-.8,1.46-.01.76.52,1.53,1.12,1.72.23.07.42.04.58.22.25.27.05.63.28.82.2.16.61.1.85-.1.3-.25.09-.62.43-.94.69-.66,1.1-2.1.57-3.01-.58-1-2.2-.8-3.03-.16Z"/>
      <g>
        <path class="cls-3" d="m53.49,21.45h1.84v10.5h-1.84v-10.5Z"/>
        <path class="cls-3" d="m57.28,30.91l.81-1.23c.87.64,1.78.97,2.59.97s1.23-.33,1.23-.85v-.03c0-.62-.84-.83-1.77-1.11-1.17-.33-2.48-.81-2.48-2.31v-.03c0-1.51,1.25-2.43,2.82-2.43.99,0,2.07.35,2.91.9l-.72,1.29c-.76-.46-1.57-.75-2.23-.75-.71,0-1.11.34-1.11.78v.03c0,.58.85.83,1.79,1.12,1.15.36,2.46.88,2.46,2.31v.03c0,1.67-1.29,2.49-2.94,2.49-1.12,0-2.37-.39-3.36-1.19Z"/>
        <path class="cls-3" d="m65.01,28.03v-.03c0-2.27,1.8-4.14,4.23-4.14s4.21,1.84,4.21,4.11v.03c0,2.25-1.8,4.12-4.24,4.12s-4.2-1.85-4.2-4.1Zm6.63,0v-.03c0-1.4-1-2.55-2.43-2.55s-2.38,1.14-2.38,2.52v.03c0,1.38,1,2.53,2.41,2.53s2.4-1.14,2.4-2.5Z"/>
        <path class="cls-3" d="m75.38,21h1.83v10.95h-1.83v-10.95Z"/>
        <path class="cls-3" d="m79.04,29.67v-.03c0-1.71,1.35-2.55,3.29-2.55.88,0,1.52.13,2.13.33v-.2c0-1.12-.69-1.72-1.96-1.72-.88,0-1.54.19-2.26.5l-.5-1.43c.88-.39,1.74-.64,3-.64,1.18,0,2.07.32,2.62.88.59.57.86,1.41.86,2.45v4.69h-1.77v-.99c-.54.64-1.37,1.15-2.58,1.15-1.48,0-2.82-.85-2.82-2.44Zm5.45-.57v-.54c-.46-.18-1.08-.32-1.8-.32-1.17,0-1.86.5-1.86,1.32v.03c0,.76.68,1.2,1.54,1.2,1.2,0,2.12-.69,2.12-1.7Z"/>
        <path class="cls-3" d="m88.69,29.76v-4.17h-1v-1.56h1v-2.17h1.82v2.17h2.13v1.56h-2.13v3.88c0,.71.36.99.97.99.4,0,.76-.09,1.12-.27v1.49c-.45.25-.95.4-1.63.4-1.34,0-2.28-.58-2.28-2.32Z"/>
        <path class="cls-3" d="m94.51,21.09h1.95v1.72h-1.95v-1.72Zm.06,2.94h1.83v7.92h-1.83v-7.92Z"/>
        <path class="cls-3" d="m98.34,28.03v-.03c0-2.27,1.8-4.14,4.23-4.14s4.21,1.84,4.21,4.11v.03c0,2.25-1.8,4.12-4.24,4.12s-4.2-1.85-4.2-4.1Zm6.63,0v-.03c0-1.4-1-2.55-2.43-2.55s-2.38,1.14-2.38,2.52v.03c0,1.38,1,2.53,2.41,2.53s2.4-1.14,2.4-2.5Z"/>
        <path class="cls-3" d="m108.61,24.03h1.83v1.22c.51-.74,1.25-1.38,2.47-1.38,1.79,0,2.82,1.2,2.82,3.03v5.05h-1.81v-4.5c0-1.23-.62-1.93-1.7-1.93s-1.78.74-1.78,1.96v4.47h-1.83v-7.92Z"/>
      </g>
    </g>
  </g>
</svg>