<?xml version="1.0" encoding="UTF-8"?>
<svg id="Layer_2" data-name="Layer 2" xmlns="http://www.w3.org/2000/svg" viewBox="0 0 165.48 173.59">
  <defs>
    <style>
      .cls-1 {
        stroke: #282661;
        stroke-miterlimit: 10;
        stroke-width: 2px;
      }

      .cls-1, .cls-2 {
        fill: #fff;
      }

      .cls-3 {
        fill: #282661;
      }

      .cls-3, .cls-4, .cls-5, .cls-6, .cls-7, .cls-8, .cls-9, .cls-2, .cls-10, .cls-11, .cls-12, .cls-13 {
        stroke-width: 0px;
      }

      .cls-4 {
        fill: #44393a;
      }

      .cls-5 {
        fill: #409f6f;
      }

      .cls-6 {
        fill: #e0e1e0;
      }

      .cls-7 {
        fill: #b2b4b4;
      }

      .cls-8 {
        fill: #99999a;
      }

      .cls-9 {
        fill: #fdddc0;
      }

      .cls-10 {
        fill: #ed3e3f;
      }

      .cls-11 {
        fill: #ffd14e;
      }

      .cls-12 {
        fill: #efb679;
      }

      .cls-13 {
        fill: #f27678;
      }
    </style>
  </defs>
  <g id="Cards_Updated_Copy_Outlined_" data-name="Cards (Updated | Copy Outlined)">
    <g>
      <rect id="Border" class="cls-1" x="1" y="1" width="163.48" height="171.59" rx="18" ry="18"/>
      <path class="cls-9" d="m70.96,95.27c-.19.77-.51,2.3-.5,4.66,0,.62-2.89,2.47-1.77,6.65.95,3.56,1.87,8.05,3.44,9.87.72.84,4.57,2.64,6.82,3.27,2.08.58,6.15.67,8.15.09,1.91-.55,5.84-4.55,6.65-6.94.7-2.08,2.52-1.28,3.49-7.62,1.08-7.01-1.87-11.01-2.49-12.14-3.77-6.81-20.97-4.59-22.95-.33.44-.94-.38.68-.83,2.49Z"/>
      <path class="cls-12" d="m73.21,113.1c1.8,1.6,3.05,1.86,4.4,2.49,1.59.75,6.96,1.26,9.26.2,0,0,2.37-.63,4.72-1.93.87-.48-.48,2.42-1.32,3.7-1.24,1.88-3.67,2.64-4.7,2.95-.73.22-5.61,1.71-9.2-.48-3.02-1.84-4.06-7.74-3.16-6.93Z"/>
      <path class="cls-13" d="m67.96,93.1c-.12,2.07.08,2.16-.17,3.16-.34,1.4-.87,1.8-2.49,4.32-2.29,3.57-2.35,4.49-2.33,4.99.07,1.67,1.67,1.91,1.5,3.16-.19,1.3-1.8,1.36-2.83,3.49-.34.7-.68,1.41-.5,2.16.46,1.92,4,2.75,6.32,2.83,2.75.09,5.82-.83,5.82-.83h0s1.07-2.81.67-4.82c-.81-4.02-.94-2.91-1.49-6.15-.09-.56.81-4.24,1.06-5.6.21-1.16-.55-4.91.27-5.04.77-.12.03,1.53,1.83,2.49,1.67.89,3.49.56,3.82.5,2.12-.38,1.42-1.62,2.99-1.5,1.02.08,1.65,2.3,6.65,2,1.57-.1,2.61-1.16,2.99-1.5,1.55-1.37,2.31-.82,2.16,2-.2,3.84-1.27,5.38-1.5,7.98-.3,3.5-.12,3.42-1,4.99-1.42,2.52-2.51,5.33-2.16,6.32.27.78,4.26.4,5.32.49,1.47.13,1.05-1.47,4.32-2.83,3.47-1.44,5.37.78,5.82-.99.44-1.74-.76-6.48-1.33-7.32-1.74-2.54-3.46-2.15-4.16-3.99-.83-2.19,1.44-3.25.83-6.15-.49-2.36-.71-1.97-.83-4.32-.08-1.62.48-4,.61-5.75.18-2.43-.43-3.26-1.44-4.72-2.39-3.47-7.66-4.52-8.81-4.99-2.07-.84-4.19-1.71-6.48-1-2.06.64-2.27,1.94-3.99,2-2.24.07-2.9-2.08-4.99-1.83-1.46.17-2.65,1.41-3.16,2.49-.6,1.26-1.04,1.82-1.33,3.66-.35,2.22-.65.47-1.53,3.16-.62,1.88-.35,5.27-.46,7.15Z"/>
      <path id="Arm_L" data-name="Arm L" class="cls-9" d="m66.36,115.99c-.32-.96-9.62-4.25-9.64-5.43-.02-1.01,1.07-1.95,2.77-3.88,1.35-1.54,5.8-10.29,6.82-12.31.11-.22.27-.39.48-.51.5-.29,2.51-.87,3.24-1.3.66-.38.83-1.26.35-1.86-.31-.38-.65-.83-.8-1.53-.3-1.43-.56-2.81.77-5.32.87-1.64,1.34-2.08,1.11-2.66-.37-.93-1.19-1.37-2.55-.89-1.5.53-2.14,2.08-2.66,3.33-.94,2.26-1.46,4.2-2.11,6.1-.68,2.02-17.92,15.15-18.4,21.06-.2,2.43,12.43,14.98,13.97,14.52,1.24-.37.97-1.66,3.1-4.66,2.15-3.01,3.86-3.72,3.55-4.66Z"/>
      <path id="Arm_R" data-name="Arm R" class="cls-9" d="m101.72,115.39c-.04.62,1.04,1.55,2.33,3,2.05,2.3-.85,6.23.33,6.82.67.33,3.61-.76,6.16-2.99,4.76-4.17,7.33-6.62,7.98-8.98.41-1.48.18-1.72,0-2.66-.61-3.22-14.78-17.36-15.13-19.79-.31-2.13.22-2.58-.83-5.32-.41-1.08-1.36-3.44-3.49-4.16-.98-.33-2.27-.33-2.49.17-.27.58,1.26,1.21,2.16,2.99,1.36,2.7.3,4.06.17,4.48-.56,1.7-1.34,2.38-1,3.49.3.97,1.19,1.43,1.83,1.83,2,1.26,5.81,9.07,7.59,13.7.75,1.94,2.14,2.49,1.89,3.09-.88,2.18-7.44,3.57-7.49,4.33Z"/>
      <path class="cls-6" d="m57.05,123.98c.86-.99,2.09-1.51,3.33-3.77,1.34-2.43-1.03-6.3.11-7.1,1.27-.89,4.2,2,8.32,1.55,5.67-.61,6.93,2.18,8.65,3.33,2.76,1.86,7.81,1.02,10.42-.67.42-.27,1.15-.8,2.22-.89,1.34-.1,1.91.6,3.1.89,1.78.43,3.38-.41,5.54-1.55,3.26-1.72,4.64-2.14,5.88-1.88,1.24.26.87.89,2.1,4.1.93,2.41,2.8,5.89,2.52,6.71-.99,2.85-7.78,2.13-9.62,5.38-1.04,1.84-.66,1.69-.22,4.98.25,1.88.57,2.81,0,3.55-1.13,1.46-4.13,3.89-5.65,3.55-11.43-2.55-22.13,2.54-28.1-1.17,0,0-1.81-.07-2.33-1.15-1.07-2.23,1.01-7.06.17-9.44-.41-1.17-1.86-1.52-4.85-2.86-2.33-1.05-3.79-1.02-1.58-3.56Z"/>
      <path class="cls-11" d="m43.63,76.9c-.4,2.55,1.88,4.75,1.36,5.49-.48.68-2.56-.96-2.92-.4-.51.82,4.32,6,3.76,6.95-.36.6-2.07-1.82-2.59-1.2-1.25,1.49,4.81,12,5.48,11.5.48-.36-2.56-6.46-1.3-7.74.76-.77,2.49,1.82,2.92,1.2.76-1.11-4.13-7.07-3.4-8.13.43-.63,2.46,1.07,2.92.4.57-.84-2.57-3.48-3.08-8.33-.15-1.46,0-2.52-.49-2.78-.69-.37-2.36,1.16-2.66,3.04Z"/>
      <path class="cls-11" d="m118.3,72.14c-1.83,6.12-2.13,7.88-1.48,8.98.72,1.2,2.64-1.59,3.21-.5.6,1.13-3.09,6.14-2.41,7.32.33.57,2.35-1.09,2.74-.5.83,1.25-2.64,8.85-2.27,9.32.55.7,8.28-11.44,7.69-12.48-.3-.52-2.79,1.37-3.21.67-.59-1.01,3.99-6.6,3.21-8.32-.61-1.34-3.97,2.24-4.54.84-.52-1.26,2.95-4.12,2.47-6.1-.38-1.56-2.44-5.6-3.48-4.88-.67.46-1.61,4.58-1.94,5.66Z"/>
      <path class="cls-8" d="m58.6,53.87c.69-1.88,1.52-3.97,2.22-4.61,1.73-1.59,3.61-1.6,5.43-1.11,1.62.44,2.7,2.08,3.88,2.11,2.22.05,2.6-3.6,5.1-4.1,5.18-1.05,1.72,2.11,8.65,1.55,4.3-.35,3.33,3.52,6.54,2.19,3.72-1.54,3.27-2.25,8.54-2.19,2.51.03,2.02,2.53,4.66,3.55,2.23.86,3.48.22,4.43,1.33.72.84,2.22,1.7.44,4.21-2.61,3.68,2.81,5.34,2.44,7.32-1.11,5.99-6.36,3.18-8.87,4.28-4.56,2-7.59,1.81-11.81,1.6-2.15-.11-1.77-2.6-7.47-2.77-3.13-.1-4.96,1.81-7.1,2-2.51.22-6.41,3.29-10.64-3.88-3.16-5.36-9.36-6.06-9.54-7.99-.05-.5,2.14-.82,3.11-3.48Z"/>
      <path class="cls-7" d="m29.33,75.87c2.13.66,2.14,2.58,3.76,3.11,3.4,1.12,3.79-.73,4.66-1.22,1.31-.73,2.35,1.17,4.11,1.99,2.86,1.32,4.04-.86,6.32-.34,1.7.39,2.72,1.02,6.2-.22,1.68-.6.81-3.35,3.32-3.77,2.37-.4,2.35-2.37,3.33-3.33,1.05-1.01,2.21,1.47,4.21.89,3.18-.92,1.59-1.52,5.99-4.77,1.69-1.25-1.55-6.9-4.22-6.65-2.99.28.83-4.32-4.21-6.7-2.15-1.01-2.95,2.62-5.99,2.49-2.31-.1-3.28-3.21-5.88-3.49-2.56-.28-2.78,3.68-4.87,3.27-3.08-.6-3.62.4-4.77.33-2.49-.16-2.97-2.59-5.1-2.6-1.87,0-3.82,1.86-4.21,3.7-.35,1.62.72,2.25.22,3.55-.58,1.52-2.26,1.27-4.21,2.88-.39.32-3.17,2.61-2.88,5.76.22,2.4,2.13,4.45,4.21,5.1Z"/>
      <path class="cls-7" d="m108.92,65.12c.86.9-1.97,2.57-1.11,4.99.53,1.5,2.33,2.47,3.77,2.66,2.24.3,1.77.4,5.21-1.33.23-.12,2.44-1.98,3.88-1.56,2.15.62,2.41,3.4,3.77,3.77,2.14.58,3.02-4.49,5.21-3.77,4.55,1.49,3.62-.77,5.88-1.77,3.38-1.49,5.28,3.04,6.76-.23,1.24-2.73,4.05-2.45,1.49-8.37-1.55-3.59.65-6.08-3.49-7.04-3.85-.89-3.87-3.11-6.94-3.12-3.67-.01-5.68,2.89-7.37,3.45-3.61,1.22-3.89.07-6.31-1.88-2.93-2.37-5.83-1.67-8.87-.45-2.77,1.11-2.44,4.65-5.1,4.76-2.27.1.55,3.99-.44,4.99-1.28,1.29-.6,3.11.33,3.66,1.33.79,2.73.6,3.33,1.22Z"/>
      <path class="cls-2" d="m123.11,153.02H45.07c-4.02,0-7.32-3.29-7.32-7.32s3.29-7.32,7.32-7.32h78.04c4.02,0,7.32,3.29,7.32,7.32s-3.29,7.32-7.32,7.32Z"/>
      <rect class="cls-5" x="41.97" y="143.37" width="29.04" height="4.66" rx="2.33" ry="2.33"/>
      <rect class="cls-10" x="96.29" y="143.37" width="30.59" height="4.66" rx="2.33" ry="2.33"/>
      <rect class="cls-11" x="68.68" y="143.37" width="29.93" height="4.66"/>
      <path class="cls-4" d="m118.57,136.54h0c1.01,0,1.83.82,1.83,1.83v15.66c0,.46-.37.83-.83.83h0c-1.01,0-1.83-.82-1.83-1.83v-15.66c0-.46.37-.83.83-.83Z"/>
      <g>
        <path class="cls-3" d="m40.2,30.42l1.11-1.32c1,.87,2.02,1.37,3.31,1.37,1.14,0,1.86-.54,1.86-1.32v-.03c0-.75-.42-1.15-2.37-1.6-2.24-.54-3.5-1.2-3.5-3.13v-.03c0-1.8,1.5-3.04,3.58-3.04,1.53,0,2.75.46,3.81,1.32l-.99,1.39c-.95-.71-1.89-1.08-2.85-1.08-1.08,0-1.71.56-1.71,1.25v.03c0,.81.48,1.17,2.5,1.65,2.22.54,3.36,1.33,3.36,3.07v.03c0,1.96-1.54,3.13-3.75,3.13-1.6,0-3.12-.55-4.38-1.68Z"/>
        <path class="cls-3" d="m50.6,29.76v-4.17h-1v-1.56h1v-2.18h1.82v2.18h2.13v1.56h-2.13v3.88c0,.71.36.99.97.99.41,0,.76-.09,1.12-.27v1.49c-.45.25-.95.41-1.63.41-1.33,0-2.28-.59-2.28-2.33Z"/>
        <path class="cls-3" d="m56.37,24.03h1.83v1.79c.49-1.19,1.41-2,2.8-1.94v1.92h-.11c-1.59,0-2.7,1.04-2.7,3.13v3.02h-1.83v-7.92Z"/>
        <path class="cls-3" d="m61.88,28.02v-.03c0-2.26,1.6-4.12,3.87-4.12,2.52,0,3.79,1.98,3.79,4.26,0,.17-.01.33-.03.51h-5.82c.2,1.29,1.11,2.01,2.28,2.01.88,0,1.51-.33,2.14-.94l1.07.94c-.75.9-1.79,1.49-3.24,1.49-2.29,0-4.06-1.67-4.06-4.11Zm5.86-.59c-.12-1.17-.81-2.08-2.01-2.08-1.11,0-1.89.85-2.05,2.08h4.06Z"/>
        <path class="cls-3" d="m70.73,30.92l.81-1.23c.87.64,1.78.97,2.59.97s1.23-.33,1.23-.85v-.03c0-.62-.84-.82-1.77-1.11-1.17-.33-2.48-.81-2.48-2.31v-.03c0-1.52,1.25-2.43,2.82-2.43.99,0,2.07.34,2.91.9l-.72,1.29c-.76-.46-1.57-.75-2.23-.75-.71,0-1.11.35-1.11.78v.03c0,.58.86.82,1.79,1.12,1.16.36,2.46.88,2.46,2.31v.03c0,1.66-1.29,2.49-2.94,2.49-1.12,0-2.37-.39-3.36-1.18Z"/>
        <path class="cls-3" d="m78.09,30.92l.81-1.23c.87.64,1.79.97,2.59.97s1.23-.33,1.23-.85v-.03c0-.62-.84-.82-1.77-1.11-1.17-.33-2.47-.81-2.47-2.31v-.03c0-1.52,1.25-2.43,2.82-2.43.99,0,2.07.34,2.91.9l-.72,1.29c-.76-.46-1.58-.75-2.24-.75-.7,0-1.11.35-1.11.78v.03c0,.58.85.82,1.79,1.12,1.15.36,2.46.88,2.46,2.31v.03c0,1.66-1.29,2.49-2.94,2.49-1.12,0-2.37-.39-3.36-1.18Z"/>
        <path class="cls-3" d="m90.96,21.45h1.84v8.82h5.52v1.68h-7.37v-10.5Z"/>
        <path class="cls-3" d="m99.45,28.02v-.03c0-2.26,1.61-4.12,3.87-4.12,2.52,0,3.79,1.98,3.79,4.26,0,.17-.02.33-.03.51h-5.82c.19,1.29,1.11,2.01,2.28,2.01.88,0,1.52-.33,2.15-.94l1.06.94c-.75.9-1.79,1.49-3.24,1.49-2.29,0-4.07-1.67-4.07-4.11Zm5.87-.59c-.12-1.17-.81-2.08-2.01-2.08-1.11,0-1.89.85-2.06,2.08h4.07Z"/>
        <path class="cls-3" d="m107.82,24.03h1.95l2.13,5.82,2.14-5.82h1.91l-3.24,7.98h-1.63l-3.25-7.98Z"/>
        <path class="cls-3" d="m116.61,28.02v-.03c0-2.26,1.61-4.12,3.87-4.12,2.52,0,3.79,1.98,3.79,4.26,0,.17-.02.33-.03.51h-5.82c.19,1.29,1.11,2.01,2.28,2.01.88,0,1.52-.33,2.15-.94l1.06.94c-.75.9-1.79,1.49-3.24,1.49-2.29,0-4.07-1.67-4.07-4.11Zm5.87-.59c-.12-1.17-.81-2.08-2.01-2.08-1.11,0-1.89.85-2.06,2.08h4.07Z"/>
        <path class="cls-3" d="m126.2,21h1.83v10.95h-1.83v-10.95Z"/>
      </g>
    </g>
  </g>
</svg>