<?xml version="1.0" encoding="UTF-8"?>
<svg id="Cards" xmlns="http://www.w3.org/2000/svg" viewBox="0 0 165.48 173.59">
  <defs>
    <style>
      .cls-1 {
        letter-spacing: -.01em;
      }

      .cls-2 {
        fill: none;
        stroke: #282661;
        stroke-miterlimit: 10;
        stroke-width: 2px;
      }

      .cls-3 {
        letter-spacing: -.11em;
      }

      .cls-4 {
        fill: #282661;
        font-family: Gotham-Medium, Gotham;
        font-size: 15px;
        font-weight: 500;
      }

      .cls-5 {
        fill: #f9c5c0;
      }

      .cls-5, .cls-6, .cls-7, .cls-8, .cls-9 {
        stroke-width: 0px;
      }

      .cls-6 {
        fill: #d3662b;
      }

      .cls-7 {
        fill: #d1d2d2;
      }

      .cls-8 {
        fill: #8b9caa;
      }

      .cls-9 {
        fill: #f4f7f9;
      }
    </style>
  </defs>
  <path class="cls-5" d="m44.54,74.54c2.54-3.14,5.35-4.19,7.78-4.93,13.52-4.12,25.61-1.89,45.32,1.23,12.32,1.95,14.61,2.19,17.33,5.54,5.54,6.83,5.62,17.63,5.78,37.27.13,16.11.11,28.2-5.55,33.57-2.45,2.32-4.82,2.32-9.33,2.46-9.19.3-18.35,1.79-27.55,1.85-23.64.15-29.27,1.47-35.32-4.62-1.45-1.46-4.75-4.86-6.22-10.78-1.13-4.55-.53-7.93.22-15.4,1.4-13.97.25-11.84,1.56-22.79,1.49-12.5,2.31-18.84,6-23.41Z"/>
  <path class="cls-9" d="m65.71,115.72c-1.55-.8-.9-5.78.08-7.37,1.11-1.81,2.69-2.61,4.03-2.96s2.81-.23,4.11.32c17.47,7.39,48.81,19.94,58.46,24.12.48.21,1.14.61,2.34,2.33,1.89,2.71,1.54,7.29-.83,9.7-.98,1-2.97,3.36-5.92,2.07-13.55-5.91-49.79-21.77-62.26-28.21Z"/>
  <path class="cls-6" d="m79.53,122.35c.76.36-.23-2.14.21-4.1.57-2.56,1.92-4.46,3.13-5.45,2.37-1.95,4.36-1.55,3.7-1.82-4.89-2.02-8-3.42-13.11-5.5-1.98-.81-4.82-.16-6.42,1.37-1.54,1.48-2.07,2.48-2.26,5.95-.16,2.91,1.05,2.98,2.23,3.59,5.35,2.74,9.27,4.45,12.52,5.96Z"/>
  <ellipse class="cls-7" cx="130.74" cy="137.09" rx="7.44" ry="5.12" transform="translate(-31.86 234.29) rotate(-77.23)"/>
  <path class="cls-8" d="m29.39,70.14c.65-5.16-3.98-8.01-2.8-9.01,1.05-.89,5.2.37,7.13,2.52,3.04,3.39,8.01,14.49,14.06,16.94,6.8,2.76,14.38,11.86,14.7,18.75.1,2.2-.76,5.51-1.72,5.77-.95.26-2.68-2.56-3.61-4.69-1.75-4.05-6.52-5.14-12.7-4.55-5.86.56-17.18-9.06-15.06-25.74Z"/>
  <text class="cls-4" transform="translate(35.73 25.54)"><tspan class="cls-3" x="0" y="0">T</tspan><tspan x="7.99" y="0">oba</tspan><tspan class="cls-1" x="36.72" y="0">cc</tspan><tspan x="53.4" y="0">o Use</tspan></text>
  <rect id="Border" class="cls-2" x="1" y="1" width="163.48" height="171.59"/>
</svg>