<?xml version="1.0" encoding="UTF-8"?>
<svg id="Layer_2" data-name="Layer 2" xmlns="http://www.w3.org/2000/svg" viewBox="0 0 165.48 173.59">
  <defs>
    <style>
      .cls-1 {
        fill: #fff;
        stroke: #282661;
        stroke-miterlimit: 10;
        stroke-width: 2px;
      }

      .cls-2 {
        fill: #282661;
      }

      .cls-2, .cls-3, .cls-4, .cls-5, .cls-6, .cls-7 {
        stroke-width: 0px;
      }

      .cls-3 {
        fill: #c3ccd4;
      }

      .cls-4 {
        fill: #d3662b;
      }

      .cls-5 {
        fill: #d1d2d2;
      }

      .cls-6 {
        fill: #f59c9f;
      }

      .cls-7 {
        fill: #f4f7f9;
      }
    </style>
  </defs>
  <g id="Cards_Updated_Copy_Outlined_" data-name="Cards (Updated | Copy Outlined)">
    <g>
      <rect id="Border" class="cls-1" x="1" y="1" width="163.48" height="171.59" rx="18" ry="18"/>
      <path class="cls-6" d="m44.54,74.54c2.54-3.14,5.35-4.19,7.78-4.93,13.52-4.12,25.61-1.89,45.32,1.23,12.32,1.95,14.61,2.19,17.33,5.54,5.54,6.83,5.62,17.63,5.78,37.27.13,16.11.11,28.2-5.55,33.57-2.45,2.32-4.82,2.32-9.33,2.46-9.19.3-18.35,1.79-27.55,1.85-23.64.15-29.27,1.47-35.32-4.62-1.45-1.46-4.75-4.86-6.22-10.78-1.13-4.55-.53-7.93.22-15.4,1.4-13.97.25-11.84,1.56-22.79,1.49-12.5,2.31-18.84,6-23.41Z"/>
      <path class="cls-7" d="m65.71,115.72c-1.55-.8-.9-5.78.08-7.37,1.11-1.81,2.69-2.61,4.03-2.96,1.36-.36,2.81-.23,4.11.32,17.47,7.39,48.81,19.94,58.46,24.12.48.21,1.14.61,2.34,2.33,1.89,2.71,1.54,7.29-.83,9.7-.98,1-2.97,3.36-5.92,2.07-13.55-5.91-49.79-21.77-62.26-28.21Z"/>
      <path class="cls-4" d="m79.53,122.35c.76.36-.23-2.14.21-4.1.57-2.56,1.92-4.46,3.13-5.45,2.37-1.95,4.36-1.55,3.7-1.82-4.89-2.02-8-3.42-13.11-5.5-1.98-.81-4.82-.16-6.42,1.37-1.54,1.48-2.07,2.48-2.26,5.95-.16,2.91,1.05,2.98,2.23,3.59,5.35,2.74,9.27,4.45,12.52,5.96Z"/>
      <ellipse class="cls-5" cx="130.74" cy="137.09" rx="7.44" ry="5.12" transform="translate(-31.86 234.29) rotate(-77.23)"/>
      <path class="cls-3" d="m29.39,70.14c.65-5.16-3.98-8.01-2.8-9.01,1.05-.89,5.2.37,7.13,2.52,3.04,3.39,8.01,14.49,14.06,16.94,6.8,2.76,14.38,11.86,14.7,18.75.1,2.2-.76,5.51-1.72,5.77-.95.26-2.68-2.56-3.61-4.69-1.75-4.05-6.52-5.14-12.7-4.55-5.86.56-17.18-9.06-15.06-25.74Z"/>
      <g>
        <path class="cls-2" d="m51.18,24.01l1.11-1.32c1.01.87,2.03,1.37,3.32,1.37,1.14,0,1.86-.54,1.86-1.32v-.03c0-.75-.42-1.15-2.37-1.6-2.23-.54-3.49-1.2-3.49-3.13v-.03c0-1.8,1.5-3.04,3.58-3.04,1.53,0,2.75.46,3.81,1.32l-.99,1.39c-.94-.71-1.89-1.08-2.85-1.08-1.08,0-1.71.56-1.71,1.25v.03c0,.81.48,1.17,2.5,1.65,2.22.54,3.36,1.33,3.36,3.08v.03c0,1.96-1.54,3.13-3.75,3.13-1.6,0-3.12-.55-4.38-1.68Z"/>
        <path class="cls-2" d="m61.26,17.62h1.83v1.2c.51-.71,1.2-1.36,2.41-1.36,1.14,0,1.95.55,2.37,1.39.63-.84,1.47-1.39,2.67-1.39,1.72,0,2.77,1.09,2.77,3.03v5.05h-1.82v-4.5c0-1.26-.58-1.93-1.6-1.93s-1.69.69-1.69,1.96v4.47h-1.82v-4.51c0-1.23-.6-1.92-1.6-1.92s-1.7.75-1.7,1.96v4.47h-1.83v-7.92Z"/>
        <path class="cls-2" d="m75.08,21.63v-.03c0-2.27,1.8-4.14,4.23-4.14s4.21,1.84,4.21,4.11v.03c0,2.25-1.8,4.12-4.25,4.12s-4.2-1.85-4.2-4.1Zm6.63,0v-.03c0-1.4-1-2.55-2.43-2.55s-2.38,1.14-2.38,2.52v.03c0,1.38,1,2.53,2.42,2.53s2.4-1.14,2.4-2.5Z"/>
        <path class="cls-2" d="m85.35,14.59h1.83v6.54l3.29-3.51h2.21l-3.15,3.23,3.25,4.69h-2.13l-2.34-3.43-1.12,1.17v2.26h-1.83v-10.95Z"/>
        <path class="cls-2" d="m94.13,14.68h1.95v1.72h-1.95v-1.72Zm.06,2.94h1.83v7.92h-1.83v-7.92Z"/>
        <path class="cls-2" d="m98.37,17.62h1.83v1.22c.51-.74,1.25-1.38,2.47-1.38,1.79,0,2.82,1.2,2.82,3.03v5.05h-1.81v-4.5c0-1.23-.62-1.93-1.7-1.93s-1.79.74-1.79,1.96v4.47h-1.83v-7.92Z"/>
        <path class="cls-2" d="m107.67,27.03l.67-1.37c.86.53,1.74.83,2.82.83,1.62,0,2.5-.83,2.5-2.42v-.6c-.66.84-1.49,1.44-2.79,1.44-1.88,0-3.6-1.38-3.6-3.71v-.03c0-2.34,1.75-3.72,3.6-3.72,1.34,0,2.16.61,2.78,1.35v-1.19h1.81v6.3c0,1.33-.34,2.33-1,2.99-.72.72-1.83,1.06-3.26,1.06-1.3,0-2.52-.33-3.54-.94Zm6.01-5.83v-.03c0-1.29-1.06-2.16-2.32-2.16s-2.25.85-2.25,2.16v.03c0,1.29,1,2.17,2.25,2.17s2.32-.88,2.32-2.17Z"/>
        <path class="cls-2" d="m29.9,33.04h1.84v4.36h5.01v-4.36h1.84v10.5h-1.84v-4.42h-5.01v4.42h-1.84v-10.5Z"/>
        <path class="cls-2" d="m40.55,41.26v-.03c0-1.71,1.35-2.55,3.28-2.55.89,0,1.51.13,2.13.33v-.2c0-1.12-.69-1.72-1.96-1.72-.88,0-1.54.19-2.26.5l-.5-1.43c.88-.39,1.74-.64,3-.64,1.18,0,2.07.32,2.62.88.58.57.85,1.41.85,2.45v4.69h-1.77v-.99c-.54.64-1.36,1.15-2.58,1.15-1.49,0-2.82-.85-2.82-2.44Zm5.44-.57v-.54c-.47-.18-1.08-.32-1.8-.32-1.17,0-1.86.5-1.86,1.32v.03c0,.76.67,1.2,1.54,1.2,1.2,0,2.12-.69,2.12-1.7Z"/>
        <path class="cls-2" d="m51.71,42.31v1.23h-1.83v-10.95h1.83v4.35c.58-.83,1.41-1.48,2.7-1.48,1.86,0,3.67,1.47,3.67,4.11v.03c0,2.62-1.8,4.11-3.67,4.11-1.32,0-2.15-.66-2.7-1.39Zm4.53-2.71v-.03c0-1.53-1.05-2.54-2.27-2.54s-2.31,1.02-2.31,2.54v.03c0,1.51,1.08,2.53,2.31,2.53s2.27-.97,2.27-2.53Z"/>
        <path class="cls-2" d="m59.99,32.68h1.95v1.72h-1.95v-1.72Zm.06,2.94h1.83v7.92h-1.83v-7.92Z"/>
        <path class="cls-2" d="m64.63,41.35v-4.17h-1.01v-1.56h1.01v-2.17h1.81v2.17h2.13v1.56h-2.13v3.88c0,.71.36.99.97.99.41,0,.77-.09,1.12-.27v1.49c-.45.25-.94.4-1.63.4-1.33,0-2.28-.58-2.28-2.32Z"/>
        <path class="cls-2" d="m69.77,42.51l.81-1.23c.87.64,1.79.97,2.59.97s1.23-.33,1.23-.85v-.03c0-.62-.84-.83-1.77-1.11-1.17-.33-2.47-.81-2.47-2.31v-.03c0-1.51,1.24-2.43,2.82-2.43.99,0,2.07.35,2.91.9l-.72,1.29c-.77-.46-1.58-.75-2.24-.75-.7,0-1.11.34-1.11.78v.03c0,.58.86.83,1.79,1.12,1.16.36,2.46.88,2.46,2.31v.03c0,1.67-1.29,2.49-2.94,2.49-1.12,0-2.37-.39-3.36-1.19Z"/>
        <path class="cls-2" d="m83.2,31.57h1.58l-6.78,13.89h-1.58l6.78-13.89Z"/>
        <path class="cls-2" d="m85.96,33.04h1.84v4.36h5.01v-4.36h1.85v10.5h-1.85v-4.42h-5.01v4.42h-1.84v-10.5Z"/>
        <path class="cls-2" d="m97.18,32.68h1.95v1.72h-1.95v-1.72Zm.06,2.94h1.83v7.92h-1.83v-7.92Z"/>
        <path class="cls-2" d="m100.79,42.51l.81-1.23c.87.64,1.79.97,2.59.97s1.23-.33,1.23-.85v-.03c0-.62-.84-.83-1.77-1.11-1.17-.33-2.47-.81-2.47-2.31v-.03c0-1.51,1.24-2.43,2.82-2.43.99,0,2.07.35,2.91.9l-.72,1.29c-.77-.46-1.58-.75-2.24-.75-.7,0-1.11.34-1.11.78v.03c0,.58.86.83,1.79,1.12,1.16.36,2.46.88,2.46,2.31v.03c0,1.67-1.29,2.49-2.94,2.49-1.12,0-2.37-.39-3.36-1.19Z"/>
        <path class="cls-2" d="m109.18,41.35v-4.17h-1v-1.56h1v-2.17h1.82v2.17h2.13v1.56h-2.13v3.88c0,.71.36.99.97.99.41,0,.76-.09,1.12-.27v1.49c-.45.25-.94.4-1.63.4-1.33,0-2.28-.58-2.28-2.32Z"/>
        <path class="cls-2" d="m114.31,39.63v-.03c0-2.27,1.8-4.14,4.23-4.14s4.21,1.84,4.21,4.11v.03c0,2.25-1.8,4.12-4.24,4.12s-4.2-1.85-4.2-4.1Zm6.63,0v-.03c0-1.4-1-2.55-2.43-2.55s-2.38,1.14-2.38,2.52v.03c0,1.38,1,2.53,2.41,2.53s2.4-1.14,2.4-2.5Z"/>
        <path class="cls-2" d="m124.58,35.62h1.83v1.79c.5-1.18,1.41-2,2.8-1.93v1.92h-.1c-1.59,0-2.7,1.04-2.7,3.13v3.01h-1.83v-7.92Z"/>
        <path class="cls-2" d="m136.28,35.62h1.89l-3.15,8.13c-.63,1.63-1.33,2.24-2.61,2.24-.75,0-1.32-.18-1.88-.5l.62-1.33c.33.18.69.3,1.07.3.51,0,.83-.22,1.12-.9l-3.3-7.94h1.95l2.22,5.88,2.07-5.88Z"/>
      </g>
    </g>
  </g>
</svg>