<?xml version="1.0" encoding="UTF-8"?>
<svg id="Layer_2" data-name="Layer 2" xmlns="http://www.w3.org/2000/svg" viewBox="0 0 164.52 164.52">
  <defs>
    <style>
      .cls-1 {
        fill: #2d8462;
      }

      .cls-1, .cls-2, .cls-3 {
        stroke-width: 0px;
      }

      .cls-2 {
        fill: #1b608d;
      }

      .cls-3 {
        fill: #d2905d;
      }
    </style>
  </defs>
  <g id="Portraits">
    <g id="M">
      <g id="Tiles">
        <g id="M-7">
          <path class="cls-1" d="m137.45,0h-26.27c18.01,14.47,36.72,35.25,53.34,64.77V27.07c0-14.95-12.12-27.07-27.07-27.07Z"/>
          <path class="cls-3" d="m0,137.45c0,14.95,12.12,27.07,27.07,27.07h61.34C36.42,135.98,11.53,124.79,0,120.4v17.05Z"/>
          <path class="cls-2" d="m111.18,0H27.07C12.12,0,0,12.12,0,27.07v93.33c11.53,4.39,36.42,15.58,88.41,44.11h49.03c14.95,0,27.07-12.12,27.07-27.07v-72.68C147.89,35.25,129.18,14.47,111.18,0Z"/>
        </g>
      </g>
    </g>
  </g>
</svg>