<?xml version="1.0" encoding="UTF-8"?>
<svg id="Layer_2" data-name="Layer 2" xmlns="http://www.w3.org/2000/svg" viewBox="0 0 164.52 164.52">
  <defs>
    <style>
      .cls-1 {
        fill: #1a1a1a;
      }

      .cls-1, .cls-2, .cls-3, .cls-4, .cls-5 {
        stroke-width: 0px;
      }

      .cls-2 {
        fill: #1b608d;
      }

      .cls-3 {
        fill: #d2905d;
      }

      .cls-4 {
        fill: #bb7a4c;
      }

      .cls-5 {
        fill: #004066;
      }
    </style>
  </defs>
  <g id="Portraits">
    <g id="M">
      <g id="Tiles">
        <g id="M-11">
          <path class="cls-4" d="m164.1,121.23c-2.52,12.35-5.01,24.15-7.55,35.4,4.54-4.52,7.48-10.65,7.91-17.46-.37-.08-.56-.14-.56-.14,0,0,.77-6.86.2-17.8Z"/>
          <path class="cls-3" d="m91.44,0H27.07C12.12,0,0,12.12,0,27.07v110.38c0,14.95,12.12,27.07,27.07,27.07h110.38c7.45,0,14.2-3.01,19.1-7.89,2.54-11.25,5.03-23.05,7.55-35.4-1.51-29-12.52-86.66-72.65-121.23Zm-55.54,56.17c-2.14-.9-3.16-3.33-2.28-5.48.41-1.01,10.56-24.63,46.82-22.83,35.86,1.79,45.37,21.84,45.75,22.69.96,2.12.02,4.62-2.1,5.58-.56.26-1.16.38-1.74.38-1.6,0-3.14-.92-3.84-2.47-.3-.63-8.11-16.24-38.5-17.76-30.06-1.53-38.28,16.86-38.61,17.64-.91,2.13-3.38,3.14-5.51,2.25Zm28.81,32.56c0-4.45,1.88-8.46,4.87-11.3-5.59,1.92-9.7,4.25-12.5,6.22-4.98,3.5-7.04,6.63-7.06,6.66l-3.55-2.27c.37-.58,9.29-14.14,35.28-17.79,26.19-3.66,34.8,6.15,35.16,6.57l-3.22,2.72c-.06-.06-7.06-7.66-28.17-5.49,6.04,2.15,10.38,7.9,10.38,14.68,0,8.61-6.98,15.59-15.59,15.59s-15.59-6.98-15.59-15.59Z"/>
          <path class="cls-2" d="m137.45,0h-46c60.13,34.57,71.14,92.23,72.65,121.23.57,10.93-.2,17.8-.2,17.8,0,0,.2.06.56.14.04-.57.06-1.14.06-1.72V27.07c0-14.95-12.12-27.07-27.07-27.07Z"/>
          <path class="cls-5" d="m80.03,36.28c30.39,1.52,38.2,17.13,38.5,17.76.71,1.56,2.24,2.47,3.84,2.47.58,0,1.17-.12,1.74-.38,2.12-.96,3.06-3.46,2.1-5.58-.39-.85-9.89-20.9-45.75-22.69-36.27-1.8-46.41,21.83-46.82,22.83-.88,2.14.14,4.58,2.28,5.48s4.6-.12,5.51-2.25c.33-.78,8.55-19.17,38.61-17.64Z"/>
          <path class="cls-1" d="m85.52,74.05c21.11-2.16,28.11,5.43,28.17,5.49l3.22-2.72c-.35-.42-8.97-10.23-35.16-6.57-26,3.64-34.92,17.21-35.28,17.79l3.55,2.27s2.08-3.16,7.06-6.66c2.8-1.97,6.91-4.3,12.5-6.22,2.8-2.65,6.56-4.29,10.72-4.29,1.83,0,3.58.33,5.21.91Z"/>
          <path class="cls-1" d="m95.9,88.73c0-6.78-4.34-12.53-10.38-14.68-1.63-.58-3.38-.91-5.21-.91-4.16,0-7.93,1.64-10.72,4.29-2.99,2.84-4.87,6.85-4.87,11.3,0,8.61,6.98,15.59,15.59,15.59s15.59-6.98,15.59-15.59Z"/>
        </g>
      </g>
    </g>
  </g>
</svg>