<?xml version="1.0" encoding="UTF-8"?>
<svg id="Layer_2" data-name="Layer 2" xmlns="http://www.w3.org/2000/svg" viewBox="0 0 164.52 164.52">
  <defs>
    <style>
      .cls-1 {
        fill: #a36840;
      }

      .cls-1, .cls-2, .cls-3, .cls-4, .cls-5 {
        stroke-width: 0px;
      }

      .cls-2 {
        fill: #2d8462;
      }

      .cls-3 {
        fill: #d2905d;
      }

      .cls-4 {
        fill: #bb7a4c;
      }

      .cls-5 {
        fill: #004066;
      }
    </style>
  </defs>
  <g id="Portraits">
    <g id="M">
      <g id="Tiles">
        <g id="M-15">
          <path class="cls-2" d="m70.24,164.52h67.2c11.27,0,20.92-6.89,25-16.68-31.33,7.85-70,11.56-92.79,13.17.18,1.19.37,2.36.59,3.51Z"/>
          <path class="cls-5" d="m145.57,33.52c-15.74,53.62-36.73,90.07-77.51,107.76.16,6.94.66,13.61,1.59,19.73,22.8-1.61,61.46-5.32,92.79-13.17,1.33-3.2,2.07-6.71,2.07-10.39V27.88c-7.51,4.58-14.08,5.64-14.08,5.64h-4.88Z"/>
          <path class="cls-4" d="m150.44,33.52s6.57-1.06,14.08-5.64v-.81c0-9.1-4.5-17.15-11.38-22.05-2.42,9.99-4.92,19.48-7.57,28.5h4.88Z"/>
          <path class="cls-4" d="m69.66,161.01c-.93-6.12-1.43-12.79-1.59-19.73-17.09,7.41-37.68,11.52-62.78,12.22,4.93,6.68,12.85,11.02,21.79,11.02h43.17c-.21-1.15-.41-2.32-.59-3.51Z"/>
          <path class="cls-3" d="m68.06,141.28c40.77-17.68,61.77-54.14,77.51-107.76,2.65-9.02,5.15-18.52,7.57-28.5-4.43-3.15-9.84-5.02-15.69-5.02H27.07C12.12,0,0,12.12,0,27.07v62.86c16.11-.89,28.35-4.03,36.14-6.7,9.78-3.35,14.88-6.72,14.93-6.75l2.35,3.5c-.8.54-18.8,12.34-53.41,14.17v43.29c0,6.01,1.96,11.56,5.28,16.05,25.11-.7,45.69-4.81,62.78-12.22Z"/>
          <path class="cls-1" d="m53.41,79.98l-2.35-3.5c-.05.03-5.15,3.4-14.93,6.75-7.79,2.67-20.03,5.8-36.14,6.7v4.23c34.62-1.83,52.61-13.64,53.41-14.17Z"/>
        </g>
      </g>
    </g>
  </g>
</svg>