<?xml version="1.0" encoding="UTF-8"?>
<svg id="Layer_2" data-name="Layer 2" xmlns="http://www.w3.org/2000/svg" viewBox="0 0 164.52 164.52">
  <defs>
    <style>
      .cls-1 {
        fill: #2d8462;
      }

      .cls-1, .cls-2, .cls-3 {
        stroke-width: 0px;
      }

      .cls-2 {
        fill: #bb2400;
      }

      .cls-3 {
        fill: #bb7a4c;
      }
    </style>
  </defs>
  <g id="Portraits">
    <g id="M">
      <g id="Tiles">
        <g id="M-18">
          <path class="cls-1" d="m137.45,0h-66.87c1.11,5.38,2.62,10.22,4.63,14.3,0,0,44.21,3.53,89.07,9.21-1.74-13.27-13.09-23.51-26.83-23.51Z"/>
          <path class="cls-3" d="m75.21,14.3c-2-4.07-3.51-8.92-4.63-14.3H27.07C12.12,0,0,12.12,0,27.07v110.38c0,2.05.24,4.04.67,5.96,3.79-1.39,10.97-4.02,24.58-9.01C88.97,111.03,75.21,14.3,75.21,14.3Z"/>
          <path class="cls-2" d="m25.24,134.4c-13.61,4.99-20.79,7.62-24.58,9.01,2.72,12.08,13.5,21.11,26.4,21.11h110.38c14.95,0,27.07-12.12,27.07-27.07V27.07c0-1.21-.09-2.39-.24-3.56-44.86-5.68-89.07-9.21-89.07-9.21,0,0,13.76,96.74-49.96,120.1Z"/>
        </g>
      </g>
    </g>
  </g>
</svg>