<?xml version="1.0" encoding="UTF-8"?>
<svg id="Layer_2" data-name="Layer 2" xmlns="http://www.w3.org/2000/svg" viewBox="0 0 164.52 164.52">
  <defs>
    <style>
      .cls-1 {
        fill: #2d8462;
      }

      .cls-1, .cls-2, .cls-3, .cls-4 {
        stroke-width: 0px;
      }

      .cls-2 {
        fill: #1b608d;
      }

      .cls-3 {
        fill: #bb7a4c;
      }

      .cls-4 {
        fill: #004066;
      }
    </style>
  </defs>
  <g id="Portraits">
    <g id="M">
      <g id="Tiles">
        <g id="M-12">
          <path class="cls-1" d="m137.45,0H43.23c.24,25.36-4.53,41.27-11.16,51.17,4.24,33.36,9.42,78.33,11.51,113.35h93.86c14.95,0,27.07-12.12,27.07-27.07V27.07c0-14.95-12.12-27.07-27.07-27.07Z"/>
          <path class="cls-4" d="m16.43,64.36c4.52,29.76-5.86,45.56-16.43,53.79v19.3c0,14.95,12.12,27.07,27.07,27.07h16.52c-2.09-35.02-7.27-79.99-11.51-113.35-4.67,6.98-10.25,10.97-15.65,13.19Z"/>
          <path class="cls-3" d="m16.43,64.36c-6.33,2.6-12.4,2.76-16.43,2.42v51.37c10.57-8.23,20.95-24.03,16.43-53.79Z"/>
          <path class="cls-2" d="m16.43,64.36c5.4-2.22,10.98-6.21,15.65-13.19,6.62-9.9,11.39-25.81,11.16-51.17h-16.16C12.12,0,0,12.12,0,27.07v39.71c4.03.34,10.1.18,16.43-2.42Z"/>
        </g>
      </g>
    </g>
  </g>
</svg>