<?xml version="1.0" encoding="UTF-8"?>
<svg id="Layer_2" data-name="Layer 2" xmlns="http://www.w3.org/2000/svg" viewBox="0 0 164.52 164.52">
  <defs>
    <style>
      .cls-1 {
        fill: #2d8462;
      }

      .cls-1, .cls-2, .cls-3 {
        stroke-width: 0px;
      }

      .cls-2 {
        fill: #bb2400;
      }

      .cls-3 {
        fill: #004066;
      }
    </style>
  </defs>
  <g id="Portraits">
    <g id="M">
      <g id="Tiles">
        <g id="M-16">
          <path class="cls-1" d="m137.45,0H43.69c1.14,19.86,1.24,36.35-.44,45.41-2.3,12.36-20.17,21.3-43.24,27.73v44.15c33.75,4.38,67.04,9.96,81.31,16.15,18.48,8.02,32.14,18.96,42.22,31.08h13.92c14.95,0,27.07-12.12,27.07-27.07V27.07c0-14.95-12.12-27.07-27.07-27.07Z"/>
          <path class="cls-3" d="m43.24,45.41c1.69-9.06,1.58-25.55.44-45.41h-16.62C12.12,0,0,12.12,0,27.07v46.07c23.07-6.44,40.94-15.37,43.24-27.73Z"/>
          <path class="cls-2" d="m81.31,133.44c-14.27-6.19-47.56-11.77-81.31-16.15v20.16c0,14.95,12.12,27.07,27.07,27.07h96.46c-10.08-12.12-23.73-23.06-42.22-31.08Z"/>
        </g>
      </g>
    </g>
  </g>
</svg>