<?xml version="1.0" encoding="UTF-8"?>
<svg id="Layer_2" data-name="Layer 2" xmlns="http://www.w3.org/2000/svg" viewBox="0 0 164.23 164.52">
  <defs>
    <style>
      .cls-1 {
        fill: #2d8462;
      }

      .cls-1, .cls-2 {
        stroke-width: 0px;
      }

      .cls-2 {
        fill: #1b608d;
      }
    </style>
  </defs>
  <g id="Portraits">
    <g id="M">
      <g id="Tiles">
        <g id="M-5">
          <path class="cls-1" d="m137.16,0H26.78C13.17,0,1.91,10.05,0,23.13v118.25c1.91,13.08,13.17,23.13,26.78,23.13h91.32c.54-18.37,3.6-41.41,10.23-70.3,7.73-33.65,17.82-61.65,29.21-84.94-4.96-5.68-12.25-9.27-20.39-9.27Z"/>
          <path class="cls-2" d="m118.1,164.52h19.06c14.95,0,27.07-12.12,27.07-27.07V27.07c0-6.82-2.52-13.04-6.68-17.8-11.39,23.29-21.48,51.29-29.21,84.94-6.64,28.89-9.69,51.93-10.23,70.3Z"/>
        </g>
      </g>
    </g>
  </g>
</svg>