<?xml version="1.0" encoding="UTF-8"?>
<svg id="Layer_2" data-name="Layer 2" xmlns="http://www.w3.org/2000/svg" viewBox="0 0 164.23 164.52">
  <defs>
    <style>
      .cls-1 {
        fill: #2d8462;
      }

      .cls-1, .cls-2, .cls-3 {
        stroke-width: 0px;
      }

      .cls-2 {
        fill: #bb2400;
      }

      .cls-3 {
        fill: #004066;
      }
    </style>
  </defs>
  <g id="Portraits">
    <g id="M">
      <g id="Tiles">
        <g id="M-13">
          <path class="cls-1" d="m0,23.13v118.25c1.91,13.08,13.17,23.13,26.78,23.13h13.09c9.79-11.17,22.8-21.21,40.07-28.7,14.69-6.37,49.53-12.09,84.29-16.54v-42.96c-24.5-6.49-43.82-15.66-46.22-28.54-1.75-9.42-1.57-26.86-.3-47.78H26.78C13.17,0,1.91,10.05,0,23.13Z"/>
          <path class="cls-3" d="m118.01,47.78c2.4,12.89,21.72,22.05,46.22,28.54V27.07c0-14.95-12.12-27.07-27.07-27.07h-19.45c-1.27,20.92-1.45,38.36.3,47.78Z"/>
          <path class="cls-2" d="m39.88,164.52h97.28c14.95,0,27.07-12.12,27.07-27.07v-18.17c-34.75,4.44-69.6,10.16-84.29,16.54-17.27,7.49-30.27,17.53-40.07,28.7Z"/>
        </g>
      </g>
    </g>
  </g>
</svg>