<?xml version="1.0" encoding="UTF-8"?>
<svg id="Layer_2" data-name="Layer 2" xmlns="http://www.w3.org/2000/svg" viewBox="0 0 164.52 164.52">
  <defs>
    <style>
      .cls-1 {
        fill: #2d8462;
      }

      .cls-1, .cls-2, .cls-3 {
        stroke-width: 0px;
      }

      .cls-2 {
        fill: #1b608d;
      }

      .cls-3 {
        fill: #d2905d;
      }
    </style>
  </defs>
  <g id="Portraits">
    <g id="M">
      <g id="Tiles">
        <g id="M-6">
          <path class="cls-1" d="m0,27.07v33.65C16.03,33.34,33.84,13.81,51.01,0h-23.94C12.12,0,0,12.12,0,27.07Z"/>
          <path class="cls-3" d="m137.45,164.52c14.95,0,27.07-12.12,27.07-27.07v-17.92c-10.37,3.71-34.97,14.37-90.76,44.99h63.69Z"/>
          <path class="cls-2" d="m0,60.72v76.73c0,14.95,12.12,27.07,27.07,27.07h46.68c55.79-30.63,80.39-41.28,90.76-44.99V27.07c0-14.95-12.12-27.07-27.07-27.07H51.01C33.84,13.81,16.03,33.34,0,60.72Z"/>
        </g>
      </g>
    </g>
  </g>
</svg>