<?xml version="1.0" encoding="UTF-8"?>
<svg id="Layer_2" data-name="Layer 2" xmlns="http://www.w3.org/2000/svg" viewBox="0 0 164.52 164.52">
  <defs>
    <style>
      .cls-1 {
        fill: #a36840;
      }

      .cls-1, .cls-2, .cls-3, .cls-4, .cls-5, .cls-6 {
        stroke-width: 0px;
      }

      .cls-2 {
        fill: #1a1a1a;
      }

      .cls-3 {
        fill: #1b608d;
      }

      .cls-4 {
        fill: #d2905d;
      }

      .cls-5 {
        fill: #bb7a4c;
      }

      .cls-6 {
        fill: #004066;
      }
    </style>
  </defs>
  <g id="Portraits">
    <g id="M">
      <g id="Tiles">
        <g id="M-10">
          <path class="cls-5" d="m0,137.45c0,5.73,1.79,11.05,4.83,15.42-1.62-7.28-3.22-14.78-4.83-22.51v7.08Z"/>
          <path class="cls-4" d="m0,103.6v26.76c1.61,7.73,3.21,15.23,4.83,22.51,4.89,7.04,13.03,11.65,22.24,11.65h105.56c2.03-4.48,4.16-8.41,5.69-11.21l.8-1.47c6.31-11.73,11.17-23.57,11.22-23.69l3.9,1.6c-.05.12-4.99,12.15-11.41,24.09l-.81,1.49c-1.28,2.35-3.02,5.56-4.75,9.2h.18c14.95,0,27.07-12.12,27.07-27.07V27.07c0-14.95-12.12-27.07-27.07-27.07h-66.72C21.16,28.51,4.99,72.72,0,103.6Zm116.22-11.99l-1.85,1c-.05-.1-4.42-7.82-17.17-13.73,2.18,2.68,3.49,6.1,3.49,9.82,0,8.61-6.98,15.59-15.59,15.59s-15.59-6.98-15.59-15.59c0-7.07,4.71-13.03,11.16-14.94-21.22-3.95-28.89,3.18-28.97,3.26l-2.99-2.97c.39-.39,9.73-9.52,35.56-3.86,25.64,5.62,33.5,19.83,33.82,20.43l-1.86.99Zm-31.95-63.78c36.03-1.79,48.31,21.53,48.81,22.53,1.05,2.08.23,4.61-1.85,5.67-.61.31-1.26.46-1.91.46-1.53,0-3.01-.84-3.75-2.29-.45-.85-10.61-19.46-40.88-17.94-30.39,1.52-38.2,17.13-38.51,17.79-1,2.09-3.5,3-5.59,2.02-2.1-.98-3.02-3.44-2.07-5.54.39-.85,9.89-20.9,45.75-22.69Z"/>
          <path class="cls-3" d="m0,27.07v76.53C4.99,72.72,21.16,28.51,70.72,0H27.07C12.12,0,0,12.12,0,27.07Z"/>
          <path class="cls-6" d="m40.58,56.07c2.1.98,4.6.06,5.59-2.02.32-.66,8.12-16.28,38.51-17.79,30.28-1.52,40.44,17.09,40.88,17.94.75,1.45,2.22,2.29,3.75,2.29.64,0,1.29-.15,1.91-.46,2.08-1.05,2.9-3.59,1.85-5.67-.5-.99-12.78-24.31-48.81-22.53-35.86,1.79-45.37,21.84-45.75,22.69-.96,2.1-.03,4.57,2.07,5.54Z"/>
          <path class="cls-1" d="m142.83,153.84c6.42-11.94,11.36-23.97,11.41-24.09l-3.9-1.6c-.05.12-4.91,11.95-11.22,23.69l-.8,1.47c-1.53,2.81-3.66,6.73-5.69,11.21h4.64c1.73-3.64,3.47-6.84,4.75-9.2l.81-1.49Z"/>
          <path class="cls-2" d="m84.26,70.19c-25.83-5.66-35.17,3.47-35.56,3.86l2.99,2.97c.08-.08,7.75-7.21,28.97-3.26,1.41-.42,2.89-.65,4.43-.65,4.89,0,9.24,2.25,12.1,5.77,12.75,5.91,17.12,13.63,17.17,13.73l1.85-1,1.86-.99c-.32-.6-8.18-14.81-33.82-20.43Z"/>
          <path class="cls-2" d="m85.09,73.11c-1.54,0-3.03.23-4.43.65-6.45,1.91-11.16,7.87-11.16,14.94,0,8.61,6.98,15.59,15.59,15.59s15.59-6.98,15.59-15.59c0-3.72-1.31-7.14-3.49-9.82-2.86-3.52-7.22-5.77-12.1-5.77Z"/>
        </g>
      </g>
    </g>
  </g>
</svg>