<?xml version="1.0" encoding="UTF-8"?>
<svg id="Layer_2" data-name="Layer 2" xmlns="http://www.w3.org/2000/svg" viewBox="0 0 164.52 164.52">
  <defs>
    <style>
      .cls-1 {
        fill: #a36840;
      }

      .cls-1, .cls-2, .cls-3, .cls-4, .cls-5 {
        stroke-width: 0px;
      }

      .cls-2 {
        fill: #2d8462;
      }

      .cls-3 {
        fill: #d2905d;
      }

      .cls-4 {
        fill: #bb7a4c;
      }

      .cls-5 {
        fill: #004066;
      }
    </style>
  </defs>
  <g id="Portraits">
    <g id="M">
      <g id="Tiles">
        <g id="M-14">
          <path class="cls-2" d="m27.07,164.52h64.89c.22-1.15.41-2.34.59-3.53-22.18-1.57-59.37-5.12-90.22-12.54,4.22,9.47,13.7,16.07,24.73,16.07Z"/>
          <path class="cls-5" d="m94.15,141.25c-40.77-17.68-61.77-54.14-77.51-107.76h-4.88s-5.27-.86-11.77-4.33v108.28c0,3.92.84,7.64,2.34,11,30.85,7.42,68.05,10.97,90.22,12.54.93-6.12,1.43-12.79,1.59-19.73Z"/>
          <path class="cls-4" d="m94.15,141.25c-.16,6.94-.66,13.61-1.59,19.73-.18,1.2-.38,2.38-.59,3.53h45.48c8.92,0,16.83-4.32,21.76-10.98-26.15-.51-47.45-4.65-65.06-12.29Z"/>
          <path class="cls-4" d="m16.65,33.49c-2.51-8.56-4.89-17.55-7.19-26.97C3.67,11.49,0,18.85,0,27.07v2.1c6.5,3.47,11.77,4.33,11.77,4.33h4.88Z"/>
          <path class="cls-3" d="m94.15,141.25c17.61,7.64,38.91,11.78,65.06,12.29,3.33-4.5,5.31-10.07,5.31-16.09v-43.19c-1.63.06-3.29.1-4.99.11-.38,0-.76,0-1.13,0-39.08,0-59.06-13.85-59.89-14.45l2.44-3.44s5.05,3.52,14.73,6.93c8.93,3.15,23.83,6.88,43.83,6.74,1.72-.01,3.38-.06,5.02-.12V27.07c0-14.95-12.12-27.07-27.07-27.07h-.97c-4.44,9.76-8.31,22.07-3.4,29.95,3.83,6.14,12.77,8.96,26.58,8.39l.18,4.21c-1.2.05-2.37.08-3.51.08-13.49,0-22.5-3.51-26.83-10.45-5.59-8.98-2.1-21.82,2.38-32.18H27.07c-6.73,0-12.88,2.46-17.62,6.52,2.3,9.42,4.68,18.41,7.19,26.97,15.74,53.62,36.73,90.07,77.51,107.76Z"/>
          <path class="cls-1" d="m129.49,32.18c4.32,6.94,13.34,10.45,26.83,10.45,1.14,0,2.31-.03,3.51-.08l-.18-4.21c-13.82.57-22.76-2.25-26.58-8.39-4.91-7.88-1.04-20.19,3.4-29.95h-4.6c-4.48,10.37-7.97,23.2-2.38,32.18Z"/>
          <path class="cls-1" d="m115.66,83.42c-9.67-3.41-14.68-6.9-14.73-6.93l-2.44,3.44c.84.6,20.81,14.45,59.89,14.45.38,0,.75,0,1.13,0,1.7-.01,3.36-.06,4.99-.11v-4.22c-1.64.06-3.3.11-5.02.12-20,.14-34.9-3.59-43.83-6.74Z"/>
        </g>
      </g>
    </g>
  </g>
</svg>