<?xml version="1.0" encoding="UTF-8"?>
<svg id="Layer_2" data-name="Layer 2" xmlns="http://www.w3.org/2000/svg" viewBox="0 0 164.52 164.52">
  <defs>
    <style>
      .cls-1 {
        fill: #2d8462;
      }

      .cls-1, .cls-2, .cls-3 {
        stroke-width: 0px;
      }

      .cls-2 {
        fill: #bb2400;
      }

      .cls-3 {
        fill: #bb7a4c;
      }
    </style>
  </defs>
  <g id="Portraits">
    <g id="M">
      <g id="Tiles">
        <g id="M-17">
          <path class="cls-1" d="m91.63,0H27.07C13.44,0,2.16,10.08.28,23.19c44.04-5.51,86.72-8.92,86.72-8.92,2-4.07,3.51-8.9,4.62-14.27Z"/>
          <path class="cls-3" d="m136.97,134.37c16.77,6.15,23.78,8.72,26.71,9.79.55-2.15.84-4.4.84-6.72V27.07c0-14.95-12.12-27.07-27.07-27.07h-45.82c-1.11,5.37-2.62,10.2-4.62,14.27,0,0-13.76,96.74,49.96,120.1Z"/>
          <path class="cls-2" d="m0,27.07v110.38c0,14.95,12.12,27.07,27.07,27.07h110.38c12.63,0,23.24-8.65,26.23-20.35-2.93-1.07-9.94-3.64-26.71-9.79C73.24,111.01,87,14.27,87,14.27c0,0-42.68,3.41-86.72,8.92-.18,1.27-.28,2.56-.28,3.88Z"/>
        </g>
      </g>
    </g>
  </g>
</svg>