<?xml version="1.0" encoding="UTF-8"?>
<svg id="Layer_2" data-name="Layer 2" xmlns="http://www.w3.org/2000/svg" viewBox="0 0 164.52 164.52">
  <defs>
    <style>
      .cls-1 {
        fill: #9adbc3;
      }

      .cls-1, .cls-2, .cls-3, .cls-4 {
        stroke-width: 0px;
      }

      .cls-2 {
        fill: #d3a166;
      }

      .cls-3 {
        fill: #ad8257;
      }

      .cls-4 {
        fill: #f5c37e;
      }
    </style>
  </defs>
  <g id="Portraits">
    <g id="L">
      <g id="Tiles">
        <g id="L-7">
          <path class="cls-1" d="m137.45,0h-38.3c13.07,10.1,24.6,21.26,33.92,32.57,4.88,5.92,10.32,15.67,14.76,26.12,4.86,1.05,10.59,2.63,16.68,5.01V27.07c0-14.95-12.12-27.07-27.07-27.07Z"/>
          <path class="cls-2" d="m154.46,102.48c3.73,5.73,7.09,11.82,10.06,18.35v-57.13c-6.09-2.37-11.83-3.96-16.68-5.01,7.37,17.37,11.97,36.68,6.63,43.79Z"/>
          <path class="cls-3" d="m154.01,103.07c-14.13,15.39-68.62-58.37-145.67-47.86-2.83.39-5.61.86-8.34,1.43v80.81c0,14.95,12.12,27.07,27.07,27.07h110.38c14.95,0,27.07-12.12,27.07-27.07v-16.61c-2.96-6.53-6.33-12.62-10.06-18.35-.15.2-.28.41-.45.58Z"/>
          <path class="cls-4" d="m154.01,103.07c.16-.18.3-.39.45-.58,5.34-7.1.75-26.42-6.63-43.79-4.44-10.46-9.88-20.2-14.76-26.12-9.32-11.32-20.85-22.48-33.92-32.57H27.07C12.12,0,0,12.12,0,27.07v29.57c2.73-.57,5.51-1.04,8.34-1.43,77.05-10.51,131.54,63.25,145.67,47.86Z"/>
        </g>
      </g>
    </g>
  </g>
</svg>