<?xml version="1.0" encoding="UTF-8"?>
<svg id="Layer_2" data-name="Layer 2" xmlns="http://www.w3.org/2000/svg" viewBox="0 0 164.52 164.52">
  <defs>
    <style>
      .cls-1 {
        fill: #1a1a1a;
      }

      .cls-1, .cls-2, .cls-3 {
        stroke-width: 0px;
      }

      .cls-2 {
        fill: #d3a166;
      }

      .cls-3 {
        fill: #ad8257;
      }
    </style>
  </defs>
  <g id="Portraits">
    <g id="L">
      <g id="Tiles">
        <g id="L-11">
          <path class="cls-3" d="m137.45,0h-39.62c37.93,1.92,53.73,22.67,54.39,23.55,1.39,1.87.99,4.51-.88,5.9-.75.56-1.63.83-2.51.83-1.29,0-2.56-.59-3.39-1.71-.56-.74-14.32-18.46-48.09-20.15-33.34-1.67-47.58,19.08-48.17,19.96-1.29,1.93-3.9,2.47-5.84,1.19-1.94-1.28-2.48-3.88-1.21-5.82.64-.97,14.88-22.17,47.58-23.75H27.07C12.12,0,0,12.12,0,27.07v110.38c0,14.95,12.12,27.07,27.07,27.07h110.38c14.95,0,27.07-12.12,27.07-27.07V27.07c0-14.95-12.12-27.07-27.07-27.07Zm-5.11,54.05c-.07-.07-8.48-7.52-31.06-2.85,6.82,2.16,11.76,8.53,11.76,16.06,0,9.3-7.54,16.84-16.84,16.84s-16.84-7.54-16.84-16.84c0-3.59,1.13-6.91,3.04-9.64-4.73,2.4-8.24,4.94-10.69,7.07-4.98,4.33-6.86,7.93-6.88,7.97l-3.76-1.9c.33-.66,8.39-16.15,35.86-22.9,27.65-6.8,37.92,2.75,38.35,3.16l-2.93,3.03Z"/>
          <path class="cls-2" d="m42.14,23.75c-1.27,1.94-.73,4.54,1.21,5.82,1.94,1.28,4.55.74,5.84-1.19.59-.88,14.82-21.63,48.17-19.96,33.76,1.69,47.53,19.41,48.09,20.15.83,1.12,2.1,1.71,3.39,1.71.87,0,1.75-.27,2.51-.83,1.87-1.39,2.26-4.03.88-5.9-.65-.88-16.45-21.63-54.39-23.55h-8.11c-32.69,1.58-46.94,22.78-47.58,23.75Z"/>
          <path class="cls-1" d="m96.92,47.86c-27.47,6.75-35.53,22.24-35.86,22.9l3.76,1.9s1.9-3.64,6.88-7.97c2.45-2.13,5.96-4.67,10.69-7.07,3.05-4.35,8.09-7.2,13.8-7.2,1.77,0,3.48.28,5.08.78,22.58-4.67,30.99,2.78,31.06,2.85l2.93-3.03c-.42-.41-10.7-9.95-38.35-3.16Z"/>
          <path class="cls-1" d="m82.4,57.62c-1.91,2.73-3.04,6.05-3.04,9.64,0,9.3,7.54,16.84,16.84,16.84s16.84-7.54,16.84-16.84c0-7.53-4.94-13.9-11.76-16.06-1.6-.51-3.31-.78-5.08-.78-5.71,0-10.76,2.85-13.8,7.2Z"/>
        </g>
      </g>
    </g>
  </g>
</svg>