<?xml version="1.0" encoding="UTF-8"?>
<svg id="Layer_2" data-name="Layer 2" xmlns="http://www.w3.org/2000/svg" viewBox="0 0 164.52 164.52">
  <defs>
    <style>
      .cls-1 {
        fill: #9adbc3;
      }

      .cls-1, .cls-2, .cls-3, .cls-4, .cls-5 {
        stroke-width: 0px;
      }

      .cls-2 {
        fill: #d3a166;
      }

      .cls-3 {
        fill: #cc6a6a;
      }

      .cls-4 {
        fill: #ad8257;
      }

      .cls-5 {
        fill: #91643a;
      }
    </style>
  </defs>
  <g id="Portraits">
    <g id="L">
      <g id="Tiles">
        <g id="L-15">
          <path class="cls-1" d="m147.55,64.24c-10.36,27.68-23.58,49.41-41.36,65.35-.57,11.04-.68,22.44.28,31.86,4.38-4.73,8.08-8.14,10.79-9.18,6.96-2.67,14.62,2.99,20.88,12.23,14.63-.36,26.38-12.33,26.38-27.05V58.26c-.75.45-1.52.84-2.31,1.16-3.43,1.4-8.52,3.04-14.66,4.82Z"/>
          <path class="cls-2" d="m147.55,64.24c6.14-1.78,11.23-3.42,14.66-4.82.79-.32,1.56-.71,2.31-1.16v-31.19c0-.08,0-.16,0-.24-1.72-.08-3.43-.5-5.13-1.3-3.52,13.99-7.42,26.9-11.84,38.71Z"/>
          <path class="cls-5" d="m106.18,129.59c-8.36,7.49-17.73,13.69-28.28,18.65-2.97,7.21-13.13,12.47-25.3,16.28h51.08c.95-1.07,1.88-2.1,2.78-3.07-.96-9.42-.85-20.83-.28-31.86Z"/>
          <path class="cls-5" d="m164.51,26.83c-.04-4.12-.99-8.02-2.67-11.51-.8,3.47-1.62,6.87-2.46,10.21,1.7.8,3.41,1.22,5.13,1.3Z"/>
          <path class="cls-4" d="m27.07,0C12.12,0,0,12.12,0,27.07v63.43c38.8-1.7,64.08-19.91,64.34-20.1l2.5,3.4c-1.11.82-26.65,19.26-66.84,20.93v39.78c38.19-.66,72.41-10.94,77.98,4.88,1.14,3.24,1.02,6.18-.08,8.86,10.56-4.95,19.93-11.16,28.28-18.65,17.79-15.94,31-37.66,41.36-65.35,4.42-11.81,8.32-24.72,11.84-38.71.84-3.34,1.66-6.74,2.46-10.21-4.38-9.06-13.65-15.32-24.39-15.32H27.07Z"/>
          <path class="cls-2" d="m77.9,148.24c1.1-2.68,1.22-5.62.08-8.86-5.57-15.82-39.79-5.54-77.98-4.88v2.95c0,14.95,12.12,27.07,27.07,27.07h25.53c12.17-3.81,22.33-9.07,25.3-16.28Z"/>
          <path class="cls-3" d="m117.25,152.27c-2.71,1.04-6.41,4.45-10.79,9.18-.9.97-1.83,2-2.78,3.07h33.76c.23,0,.46-.01.69-.02-6.26-9.24-13.92-14.9-20.88-12.23Z"/>
          <path class="cls-5" d="m66.84,73.79l-2.5-3.4c-.26.19-25.54,18.41-64.34,20.1v4.22c40.19-1.67,65.73-20.12,66.84-20.93Z"/>
        </g>
      </g>
    </g>
  </g>
</svg>