<?xml version="1.0" encoding="UTF-8"?>
<svg id="Layer_2" data-name="Layer 2" xmlns="http://www.w3.org/2000/svg" viewBox="0 0 164.52 164.52">
  <defs>
    <style>
      .cls-1 {
        fill: #9adbc3;
      }

      .cls-1, .cls-2, .cls-3, .cls-4, .cls-5 {
        stroke-width: 0px;
      }

      .cls-2 {
        fill: #d3a166;
      }

      .cls-3 {
        fill: #cc6a6a;
      }

      .cls-4 {
        fill: #d18280;
      }

      .cls-5 {
        fill: #91643a;
      }
    </style>
  </defs>
  <g id="Portraits">
    <g id="L">
      <g id="Tiles">
        <g id="L-18">
          <path class="cls-1" d="m164.52,42.27v-15.2c0-14.32-11.13-26.04-25.21-27,4.53,7.21,8.2,16.24,10.15,25.13,1.44,6.59,7.43,12.3,15.06,17.07Z"/>
          <path class="cls-4" d="m21.69,108.77H0s0,28.68,0,28.68c0,14.95,12.12,27.07,27.07,27.07h110.38c14.95,0,27.07-12.12,27.07-27.07v-17.24c-32.11,25.28-68.55,33.97-68.55,33.97L21.69,108.77Z"/>
          <path class="cls-5" d="m45.04,48.82c18.61-1.53,41.2-30.68,57.13-48.82h-55.52c-13.01,3.45-27.27,5.45-37.21,6.54C3.66,11.5,0,18.86,0,27.07v64.88l3.42-24.96s15.67-16.03,41.62-18.17Z"/>
          <path class="cls-2" d="m27.07,0c-6.74,0-12.9,2.47-17.63,6.54,9.94-1.09,24.2-3.09,37.21-6.54h-19.58Z"/>
          <path class="cls-3" d="m149.46,25.2c-1.95-8.89-5.62-17.92-10.15-25.13-.62-.04-1.24-.07-1.86-.07h-35.28c-15.93,18.14-38.52,47.29-57.13,48.82-25.95,2.14-41.62,18.17-41.62,18.17l-3.42,24.96v16.81h21.69s74.28,45.42,74.28,45.42c0,0,36.44-8.7,68.55-33.97V42.27c-7.62-4.77-13.61-10.48-15.06-17.07Z"/>
        </g>
      </g>
    </g>
  </g>
</svg>