<?xml version="1.0" encoding="UTF-8"?>
<svg id="Layer_2" data-name="Layer 2" xmlns="http://www.w3.org/2000/svg" viewBox="0 0 164.52 164.52">
  <defs>
    <style>
      .cls-1 {
        fill: #9adbc3;
      }

      .cls-1, .cls-2, .cls-3, .cls-4 {
        stroke-width: 0px;
      }

      .cls-2 {
        fill: #d3a166;
      }

      .cls-3 {
        fill: #ad8257;
      }

      .cls-4 {
        fill: #91643a;
      }
    </style>
  </defs>
  <g id="Portraits">
    <g id="L">
      <g id="Tiles">
        <g id="L-8">
          <path class="cls-1" d="m137.45,0H27.07c-3.62,0-7.07.72-10.22,2,13.92,9.97,26.8,25.32,33.04,48.97,8.83,33.45-1.31,74.24-12.63,108.96.8,1.44,1.52,2.98,2.16,4.58h98.04c14.95,0,27.07-12.12,27.07-27.07V27.07c0-14.95-12.12-27.07-27.07-27.07Z"/>
          <path class="cls-2" d="m11.37,148.11c5.56-2.44,12.12-2.32,19.25,3.63,2.67,2.23,4.85,5.01,6.63,8.2,11.32-34.72,21.46-75.51,12.63-108.96C43.64,27.32,30.76,11.97,16.85,2,6.97,6.04,0,15.74,0,27.07v31.17c8.73,23.88,12.78,53.09,11.37,89.87Z"/>
          <path class="cls-4" d="m30.62,151.75c-7.13-5.95-13.69-6.07-19.25-3.63-.14,3.58-.33,7.24-.57,10.97,4.53,3.41,10.16,5.44,16.27,5.44h12.34c-.64-1.6-1.35-3.13-2.16-4.58-1.77-3.19-3.96-5.97-6.63-8.2Z"/>
          <path class="cls-3" d="m0,58.24v79.2c0,8.84,4.24,16.69,10.8,21.63.24-3.72.44-7.39.57-10.97,1.41-36.78-2.64-65.99-11.37-89.87Z"/>
        </g>
      </g>
    </g>
  </g>
</svg>