<?xml version="1.0" encoding="UTF-8"?>
<svg id="Layer_2" data-name="Layer 2" xmlns="http://www.w3.org/2000/svg" viewBox="0 0 164.52 164.52">
  <defs>
    <style>
      .cls-1 {
        fill: #9adbc3;
      }

      .cls-1, .cls-2, .cls-3, .cls-4 {
        stroke-width: 0px;
      }

      .cls-2 {
        fill: #d3a166;
      }

      .cls-3 {
        fill: #ad8257;
      }

      .cls-4 {
        fill: #91643a;
      }
    </style>
  </defs>
  <g id="Portraits">
    <g id="L">
      <g id="Tiles">
        <g id="L-12">
          <path class="cls-1" d="m137.45,0H40.04c8.12,22.92,1.35,58.9-4.57,74.12-3.48,8.94-10.38,22.65-18.73,32.77-2.6,15.53-7.61,30.89-15.19,39.6,3.72,10.5,13.74,18.03,25.52,18.03h110.38c14.95,0,27.07-12.12,27.07-27.07V27.07c0-14.95-12.12-27.07-27.07-27.07Z"/>
          <path class="cls-2" d="m0,119.55v17.89c0,3.17.55,6.21,1.55,9.04,7.57-8.71,12.59-24.06,15.19-39.6-5.18,6.28-10.92,11.16-16.74,12.66Z"/>
          <path class="cls-4" d="m16.74,106.89c8.35-10.12,15.26-23.83,18.73-32.77,5.92-15.22,12.69-51.2,4.57-74.12h-12.97c-6.6,0-12.64,2.36-17.33,6.28-.85,9.14-1.99,18.69-3.44,28.69-1.99,13.78-4.07,26.88-6.3,39.33v45.25c5.82-1.51,11.56-6.39,16.74-12.66Z"/>
          <path class="cls-3" d="m9.74,6.28C3.79,11.25,0,18.72,0,27.07v47.23c2.23-12.45,4.31-25.56,6.3-39.33,1.45-10,2.58-19.55,3.44-28.69Z"/>
        </g>
      </g>
    </g>
  </g>
</svg>