<?xml version="1.0" encoding="UTF-8"?>
<svg id="Layer_2" data-name="Layer 2" xmlns="http://www.w3.org/2000/svg" viewBox="0 0 164.52 164.52">
  <defs>
    <style>
      .cls-1 {
        fill: #9adbc3;
      }

      .cls-1, .cls-2, .cls-3 {
        stroke-width: 0px;
      }

      .cls-2 {
        fill: #cc6a6a;
      }

      .cls-3 {
        fill: #d18280;
      }
    </style>
  </defs>
  <g id="Portraits">
    <g id="L">
      <g id="Tiles">
        <g id="L-16">
          <path class="cls-1" d="m137.45,0H27.07C12.12,0,0,12.12,0,27.07v110.38c0,.17,0,.34.01.52,12.2,6.64,26.91,11.1,34.27,13.09,25.84,4.76,56.07,9.28,85.14,13.46h18.02c14.95,0,27.07-12.12,27.07-27.07V27.07c0-14.95-12.12-27.07-27.07-27.07Z"/>
          <path class="cls-3" d="m38.96,152.25c-1.25,4.26-2.75,8.35-4.43,12.27h84.9c-29.07-4.18-59.3-8.7-85.14-13.46,2.91.79,4.68,1.19,4.68,1.19Z"/>
          <path class="cls-2" d="m34.28,151.06c-7.36-1.99-22.07-6.45-34.27-13.09.28,14.71,12.28,26.55,27.06,26.55h7.46c1.68-3.92,3.18-8,4.43-12.27,0,0-1.77-.4-4.68-1.19Z"/>
        </g>
      </g>
    </g>
  </g>
</svg>