<?xml version="1.0" encoding="UTF-8"?>
<svg id="Layer_2" data-name="Layer 2" xmlns="http://www.w3.org/2000/svg" viewBox="0 0 164.23 164.52">
  <defs>
    <style>
      .cls-1 {
        fill: #9adbc3;
      }

      .cls-1, .cls-2, .cls-3, .cls-4, .cls-5 {
        stroke-width: 0px;
      }

      .cls-2 {
        fill: #d3a166;
      }

      .cls-3 {
        fill: #ad8257;
      }

      .cls-4 {
        fill: #91643a;
      }

      .cls-5 {
        fill: #f5c37e;
      }
    </style>
  </defs>
  <g id="Portraits">
    <g id="L">
      <g id="Tiles">
        <g id="L-5">
          <path class="cls-1" d="m0,23.13v118.25c1.91,13.08,13.17,23.13,26.78,23.13h101.73c-2.8-9.91-4.85-19.79-5.64-29.22-2.2-26.38-2.73-51.75,7.38-74.65-2.91-18.73-.98-40.63,5.81-60.64H26.78C13.17,0,1.91,10.05,0,23.13Z"/>
          <path class="cls-2" d="m137.6,154.12c5.76-4.8,11.14-5.81,15.93-4.73-.17-4.84-.24-9.54-.23-14.12,0,0,0,.01-.01.02l-20.94-64.64c-.87-3.21-1.57-6.55-2.1-10.01-10.11,22.9-9.58,48.27-7.38,74.65.79,9.43,2.84,19.32,5.64,29.22h1.33c1.95-4.12,4.49-7.67,7.76-10.4Z"/>
          <path class="cls-4" d="m137.6,154.12c-3.27,2.72-5.81,6.28-7.76,10.4h7.31c6.36,0,12.2-2.2,16.81-5.86-.18-3.14-.33-6.23-.44-9.27-4.79-1.08-10.17-.07-15.93,4.73Z"/>
          <path class="cls-3" d="m153.54,149.39c.11,3.04.25,6.13.44,9.27,6.25-4.96,10.26-12.61,10.26-21.21v-17.07c-3.69,4.77-7.23,9.63-10.92,14.89-.02,4.58.06,9.28.23,14.12Z"/>
          <path class="cls-5" d="m130.25,60.64c.54,3.46,1.24,6.8,2.1,10.01l20.94,64.64s0-.01.01-.02c3.69-5.27,7.23-10.12,10.92-14.89V27.07c0-14.95-12.12-27.07-27.07-27.07h-1.1c-6.79,20.01-8.72,41.91-5.81,60.64Z"/>
        </g>
      </g>
    </g>
  </g>
</svg>