<?xml version="1.0" encoding="UTF-8"?>
<svg id="Layer_2" data-name="Layer 2" xmlns="http://www.w3.org/2000/svg" viewBox="0 0 164.23 164.52">
  <defs>
    <style>
      .cls-1 {
        fill: #9adbc3;
      }

      .cls-1, .cls-2, .cls-3, .cls-4 {
        stroke-width: 0px;
      }

      .cls-2 {
        fill: #d3a166;
      }

      .cls-3 {
        fill: #ad8257;
      }

      .cls-4 {
        fill: #91643a;
      }
    </style>
  </defs>
  <g id="Portraits">
    <g id="L">
      <g id="Tiles">
        <g id="L-9">
          <path class="cls-1" d="m0,23.13v118.25c1.91,13.08,13.17,23.13,26.78,23.13h110.38c14.95,0,27.07-12.12,27.07-27.07v-3.08c-2.65-5.78-3.78-11.36-4.03-16.55-12.1-9.07-22.81-29.43-27.44-41.33-6.11-15.73-13.14-53.62-3.71-76.36-.01-.04-.03-.09-.04-.13H26.78C13.17,0,1.91,10.05,0,23.13Z"/>
          <path class="cls-2" d="m129.1,0h-.09s.03.09.04.13c.02-.04.04-.09.06-.13Z"/>
          <path class="cls-2" d="m164.23,134.37v-13.99c-1.36-.7-2.7-1.56-4.03-2.55.26,5.18,1.39,10.77,4.03,16.55Z"/>
          <path class="cls-4" d="m132.76,76.49c4.63,11.9,15.33,32.26,27.44,41.33,1.33,1,2.68,1.86,4.03,2.55v-46.94c-1.92-11.48-3.77-23.5-5.59-36.09-1.55-10.7-2.74-20.88-3.61-30.59-4.77-4.2-11.02-6.75-17.88-6.75h-8.06s-.04.09-.06.13c-9.43,22.75-2.4,60.64,3.71,76.36Z"/>
          <path class="cls-3" d="m164.23,73.44V27.07c0-8.1-3.56-15.36-9.19-20.32.87,9.72,2.06,19.89,3.61,30.59,1.82,12.59,3.66,24.61,5.59,36.09Z"/>
        </g>
      </g>
    </g>
  </g>
</svg>