<?xml version="1.0" encoding="UTF-8"?>
<svg id="Layer_2" data-name="Layer 2" xmlns="http://www.w3.org/2000/svg" viewBox="0 0 164.23 164.52">
  <defs>
    <style>
      .cls-1 {
        fill: #9adbc3;
      }

      .cls-1, .cls-2, .cls-3 {
        stroke-width: 0px;
      }

      .cls-2 {
        fill: #cc6a6a;
      }

      .cls-3 {
        fill: #d18280;
      }
    </style>
  </defs>
  <g id="Portraits">
    <g id="L">
      <g id="Tiles">
        <g id="L-13">
          <path class="cls-1" d="m124.44,154.62s22.55-5.16,39.67-14.69c.07-.82.12-1.64.12-2.48V27.07c0-14.95-12.12-27.07-27.07-27.07H26.78C13.17,0,1.91,10.05,0,23.13v118.25c1.91,13.08,13.17,23.13,26.78,23.13h35.28c21.52-3.15,43.01-6.46,62.38-9.9,0,0,0,0,0,0Z"/>
          <path class="cls-3" d="m124.44,154.62c-19.36,3.44-40.85,6.75-62.38,9.9h65.81c-1.28-3.19-2.43-6.49-3.44-9.9Z"/>
          <path class="cls-2" d="m124.44,154.62c1,3.41,2.16,6.71,3.44,9.9h9.28c14.11,0,25.7-10.8,26.95-24.59-17.12,9.53-39.67,14.69-39.67,14.69,0,0,0,0,0,0Z"/>
        </g>
      </g>
    </g>
  </g>
</svg>