<?xml version="1.0" encoding="UTF-8"?>
<svg id="Layer_2" data-name="Layer 2" xmlns="http://www.w3.org/2000/svg" viewBox="0 0 164.52 164.52">
  <defs>
    <style>
      .cls-1 {
        fill: #9adbc3;
      }

      .cls-1, .cls-2 {
        stroke-width: 0px;
      }

      .cls-2 {
        fill: #f5c37e;
      }
    </style>
  </defs>
  <g id="Portraits">
    <g id="L">
      <g id="Tiles">
        <g id="L-2">
          <path class="cls-1" d="m130.25,127.4c11.33-2.53,22.82-3.32,34.27-2.67V27.07c0-14.95-12.12-27.07-27.07-27.07H27.07C12.12,0,0,12.12,0,27.07v110.38c0,14.95,12.12,27.07,27.07,27.07h23.66c.41-.19.8-.37,1.21-.56,77.93-35.75,70.73-34.87,78.3-36.56Z"/>
          <path class="cls-2" d="m164.52,137.45v-12.71c-11.45-.65-22.94.13-34.27,2.67-7.56,1.69-.37.81-78.3,36.56-.41.19-.81.37-1.21.56h86.71c14.95,0,27.07-12.12,27.07-27.07Z"/>
        </g>
      </g>
    </g>
  </g>
</svg>