<?xml version="1.0" encoding="UTF-8"?>
<svg id="Layer_2" data-name="Layer 2" xmlns="http://www.w3.org/2000/svg" viewBox="0 0 164.52 164.52">
  <defs>
    <style>
      .cls-1 {
        fill: #9adbc3;
      }

      .cls-1, .cls-2, .cls-3 {
        stroke-width: 0px;
      }

      .cls-2 {
        fill: #ad8257;
      }

      .cls-3 {
        fill: #f5c37e;
      }
    </style>
  </defs>
  <g id="Portraits">
    <g id="L">
      <g id="Tiles">
        <g id="L-6">
          <path class="cls-1" d="m.23,23.58C9.54,16.81,21.83,11.49,46.99,0h-19.92C13.3,0,1.94,10.28.23,23.58Z"/>
          <path class="cls-2" d="m20.42,163.69c2.13.54,4.35.82,6.65.82h110.38c14.95,0,27.07-12.12,27.07-27.07V57.26c-39.16,9.12-69.4,36.8-114.39,78-12.22,11.19-21.78,20.33-29.7,28.43Z"/>
          <path class="cls-3" d="m0,27.07v110.38c0,12.66,8.69,23.28,20.42,26.25,7.93-8.1,17.48-17.24,29.7-28.43,44.99-41.2,75.23-68.88,114.39-78v-30.19c0-14.95-12.12-27.07-27.07-27.07H46.99C21.83,11.49,9.54,16.81.23,23.58c-.15,1.14-.23,2.3-.23,3.49Z"/>
        </g>
      </g>
    </g>
  </g>
</svg>