<?xml version="1.0" encoding="UTF-8"?>
<svg id="Layer_2" data-name="Layer 2" xmlns="http://www.w3.org/2000/svg" viewBox="0 0 164.52 164.52">
  <defs>
    <style>
      .cls-1 {
        fill: #1a1a1a;
      }

      .cls-1, .cls-2, .cls-3, .cls-4, .cls-5 {
        stroke-width: 0px;
      }

      .cls-2 {
        fill: #d3a166;
      }

      .cls-3 {
        fill: #ad8257;
      }

      .cls-4 {
        fill: #91643a;
      }

      .cls-5 {
        fill: #f5c37e;
      }
    </style>
  </defs>
  <g id="Portraits">
    <g id="L">
      <g id="Tiles">
        <g id="L-10">
          <path class="cls-3" d="m15.48,2.61C10.16,8.24,5.59,13.43,1.37,18.57c-.88,2.68-1.37,5.53-1.37,8.5v110.38c0,14.95,12.12,27.07,27.07,27.07h88.25c.37-11.44,4.59-22.28,7.15-27.04,6.96-12.94,22.29-33.11,22.94-33.96l3.35,2.55c-.16.21-15.78,20.76-22.58,33.41-2.23,4.14-6.23,14.39-6.62,25.05h17.89c14.95,0,27.07-12.12,27.07-27.07V27.07c0-14.95-12.12-27.07-27.07-27.07h-56.85c32.33,1.76,46.45,22.76,47.08,23.73,1.27,1.95.73,4.56-1.22,5.84-.71.47-1.51.69-2.3.69-1.37,0-2.71-.67-3.52-1.9-.59-.89-14.79-21.63-48.17-19.96-33.76,1.69-47.53,19.41-48.1,20.17-1.4,1.85-4.04,2.23-5.89.84-1.86-1.39-2.25-4.01-.87-5.88.65-.88,16.35-21.49,54-23.52H27.07c-4.15,0-8.08.94-11.59,2.61Zm60.68,45.24c27.05,8.25,34.25,24.16,34.55,24.83l-3.86,1.69c-.05-.11-3.77-8.14-15.77-15.41,1.38,2.45,2.18,5.27,2.18,8.28,0,9.3-7.54,16.84-16.84,16.84s-16.84-7.54-16.84-16.84c0-7.74,5.23-14.25,12.35-16.22-22.77-6.14-31.38.99-31.47,1.06l-2.76-3.19c.45-.39,11.23-9.35,38.46-1.05Z"/>
          <path class="cls-5" d="m1.37,18.57C5.59,13.43,10.16,8.24,15.48,2.61,8.84,5.75,3.7,11.52,1.37,18.57Z"/>
          <path class="cls-2" d="m17.61,23.52c-1.38,1.86-.99,4.49.87,5.88,1.86,1.39,4.5,1.01,5.89-.84.57-.75,14.34-18.48,48.1-20.17,33.38-1.67,47.57,19.07,48.17,19.96.81,1.23,2.15,1.9,3.52,1.9.79,0,1.59-.22,2.3-.69,1.95-1.27,2.5-3.89,1.22-5.84-.63-.97-14.75-21.96-47.08-23.73h-8.99C33.96,2.04,18.26,22.64,17.61,23.52Z"/>
          <path class="cls-4" d="m148.77,106.06l-3.35-2.55c-.65.85-15.98,21.03-22.94,33.96-2.56,4.76-6.78,15.6-7.15,27.04h4.24c.39-10.65,4.39-20.9,6.62-25.05,6.8-12.64,22.42-33.2,22.58-33.41Z"/>
          <path class="cls-1" d="m71.92,51.02c1.43-.4,2.94-.63,4.5-.63,6.29,0,11.77,3.46,14.66,8.57,12,7.27,15.72,15.3,15.77,15.41l3.86-1.69c-.29-.67-7.49-16.58-34.55-24.83-27.24-8.3-38.02.66-38.46,1.05l2.76,3.19c.09-.08,8.7-7.2,31.47-1.06Z"/>
          <path class="cls-1" d="m76.42,50.39c-1.56,0-3.06.23-4.5.63-7.12,1.97-12.35,8.47-12.35,16.22,0,9.3,7.54,16.84,16.84,16.84s16.84-7.54,16.84-16.84c0-3.01-.8-5.83-2.18-8.28-2.89-5.11-8.37-8.57-14.66-8.57Z"/>
        </g>
      </g>
    </g>
  </g>
</svg>