<?xml version="1.0" encoding="UTF-8"?>
<svg id="Layer_2" data-name="Layer 2" xmlns="http://www.w3.org/2000/svg" viewBox="0 0 164.52 164.52">
  <defs>
    <style>
      .cls-1 {
        fill: #9adbc3;
      }

      .cls-1, .cls-2, .cls-3, .cls-4, .cls-5 {
        stroke-width: 0px;
      }

      .cls-2 {
        fill: #d3a166;
      }

      .cls-3 {
        fill: #cc6a6a;
      }

      .cls-4 {
        fill: #ad8257;
      }

      .cls-5 {
        fill: #91643a;
      }
    </style>
  </defs>
  <g id="Portraits">
    <g id="L">
      <g id="Tiles">
        <g id="L-14">
          <path class="cls-1" d="m47.11,152.23c2.99,1.15,7.18,5.18,12.17,10.69,1.04-8.89,1.06-19.74.59-30.45-19.83-16.6-33.51-40.07-43.89-70.6-.02-.02-.05-.03-.07-.05-7.18-5.5-12.31-11.09-15.91-16.59v92.22c0,14.66,11.66,26.59,26.2,27.05,6.27-9.26,13.94-14.94,20.9-12.26Z"/>
          <path class="cls-2" d="m15.91,61.82s.05.03.07.05c-3.69-10.84-6.96-22.57-9.94-35.21-2,.3-4.01.13-6.01-.44,0,.28-.02.56-.02.85v18.16c3.6,5.5,8.73,11.09,15.91,16.59Z"/>
          <path class="cls-5" d="m6.04,26.66c-.96-4.06-1.89-8.21-2.79-12.45C1.3,17.8.16,21.88.02,26.22c2,.57,4.01.74,6.01.44Z"/>
          <path class="cls-5" d="m86.77,149.08c-10.07-4.45-18.98-9.98-26.9-16.61.47,10.71.45,21.56-.59,30.45.47.52.95,1.05,1.43,1.6h51.04c-11.71-3.66-21.57-8.66-24.98-15.44Z"/>
          <path class="cls-4" d="m164.52,30.25v-3.18c0-14.95-12.12-27.07-27.07-27.07h-17.92c0,5.78,1.15,11.58,4.29,16.51,6.49,10.18,20.18,14.8,40.7,13.74Z"/>
          <path class="cls-4" d="m15.97,61.87c10.38,30.54,24.05,54.01,43.89,70.6,7.92,6.63,16.84,12.15,26.9,16.61-1.46-2.9-1.75-6.13-.48-9.73,5.58-15.86,39.94-5.5,78.23-4.88v-39.7c-.65.01-1.28.04-1.94.04-.3,0-.61,0-.92,0-42.49,0-70.16-20.2-71.33-21.07l2.51-3.38c.28.2,27.79,20.23,68.84,20.23.29,0,.57,0,.86,0,.66,0,1.31-.03,1.97-.04v-56.09c-1.89.09-3.74.15-5.53.15-19.01,0-32.02-5.32-38.73-15.85-3.63-5.71-4.96-12.29-4.97-18.78H27.07C16.78,0,7.82,5.75,3.25,14.21c.9,4.24,1.83,8.4,2.79,12.45,2.98,12.63,6.25,24.37,9.94,35.21Z"/>
          <path class="cls-2" d="m86.28,139.35c-1.27,3.59-.98,6.82.48,9.73,3.41,6.78,13.27,11.78,24.98,15.44h25.7c5.74,0,11.07-1.79,15.45-4.85-7.04-11.13-10.99-24.8,11.62-25.15v-.04c-38.29-.62-72.65-10.98-78.23,4.88Z"/>
          <path class="cls-2" d="m152.9,159.67c7.02-4.89,11.62-13.02,11.62-22.22v-2.93c-22.62.35-18.66,14.02-11.62,25.15Z"/>
          <path class="cls-3" d="m60.71,164.52c-.48-.54-.96-1.08-1.43-1.6-4.99-5.51-9.18-9.54-12.17-10.69-6.96-2.67-14.63,3-20.9,12.26.29,0,.57.02.87.02h33.64Z"/>
          <path class="cls-5" d="m120.26,18.78c6.71,10.53,19.72,15.85,38.73,15.85,1.79,0,3.64-.06,5.53-.15v-4.22c-20.52,1.06-34.21-3.56-40.7-13.74-3.14-4.93-4.28-10.74-4.29-16.51h-4.24c.01,6.48,1.34,13.07,4.97,18.78Z"/>
          <path class="cls-5" d="m161.69,90.61c-41.05,0-68.56-20.03-68.84-20.23l-2.51,3.38c1.17.87,28.84,21.07,71.33,21.07.3,0,.61,0,.92,0,.65,0,1.29-.03,1.94-.04v-4.22c-.65.01-1.3.04-1.97.04-.29,0-.57,0-.86,0Z"/>
        </g>
      </g>
    </g>
  </g>
</svg>