<?xml version="1.0" encoding="UTF-8"?>
<svg id="Layer_2" data-name="Layer 2" xmlns="http://www.w3.org/2000/svg" viewBox="0 0 164.52 164.52">
  <defs>
    <style>
      .cls-1 {
        fill: #9adbc3;
      }

      .cls-1, .cls-2, .cls-3, .cls-4, .cls-5 {
        stroke-width: 0px;
      }

      .cls-2 {
        fill: #d3a166;
      }

      .cls-3 {
        fill: #cc6a6a;
      }

      .cls-4 {
        fill: #d18280;
      }

      .cls-5 {
        fill: #91643a;
      }
    </style>
  </defs>
  <g id="Portraits">
    <g id="L">
      <g id="Tiles">
        <g id="L-17">
          <path class="cls-1" d="m14.9,25.17C16.84,16.29,20.5,7.29,25.02.09,11.03,1.14,0,12.81,0,27.07v15.07c7.55-4.75,13.46-10.43,14.9-16.97Z"/>
          <path class="cls-4" d="m68.39,154.14S32.07,145.47,0,120.29v17.15c0,14.95,12.12,27.07,27.07,27.07h110.38c14.95,0,27.07-12.12,27.07-27.07v-28.72h-21.85s-74.28,45.42-74.28,45.42Z"/>
          <path class="cls-5" d="m119.32,48.78c25.95,2.14,41.62,18.17,41.62,18.17l3.58,26.12V27.07c0-8.21-3.66-15.56-9.43-20.53-9.93-1.08-24.27-3.08-37.37-6.54h-55.49c15.93,18.15,38.5,47.25,57.1,48.78Z"/>
          <path class="cls-2" d="m137.45,0h-19.73c13.09,3.46,27.44,5.46,37.37,6.54-4.74-4.07-10.9-6.54-17.64-6.54Z"/>
          <path class="cls-3" d="m0,120.29c32.07,25.18,68.39,33.85,68.39,33.85l74.28-45.41h21.85v-15.67l-3.58-26.12s-15.67-16.03-41.62-18.17c-18.6-1.53-41.17-30.64-57.1-48.78H27.07c-.69,0-1.38.03-2.05.09-4.51,7.2-8.17,16.21-10.12,25.08-1.43,6.54-7.35,12.22-14.9,16.97v78.15Z"/>
        </g>
      </g>
    </g>
  </g>
</svg>